<?xml version="1.0" encoding="utf-8"?>
<!-- Generator: Adobe Illustrator 28.2.0, SVG Export Plug-In . SVG Version: 6.00 Build 0)  -->
<svg version="1.1" id="Capa_1" xmlns="http://www.w3.org/2000/svg" xmlns:xlink="http://www.w3.org/1999/xlink" x="0px" y="0px"
	 viewBox="0 0 64 64" style="enable-background:new 0 0 64 64;" xml:space="preserve">
<style type="text/css">
	.st0{fill:#303033;}
	.st1{fill:#BA6000;}
	.st2{fill:#34B8E4;}
	.st3{fill:#BCBEC0;}
	.st4{fill:#E588D3;}
	.st5{fill:#FCCA97;}
	.st6{fill:#F85C45;}
	.st7{fill:#FF8400;}
	.st8{fill:#939598;}
	.st9{fill:#754C29;}
	.st10{fill:#603913;}
	.st11{fill:#121214;}
	.st12{fill:#535359;}
</style>
<g>
	<g>
		<path class="st0" d="M3.3,45c4.5-4.2,16.8-8.2,19.7-9.2l-1.6-1c0.6-0.4,0.6-1,0.6-1c4.4-1.2,11.6-2.1,14.2-0.5
			c0.1,0.1,0.2,0.1,0.3,0.2l1.3,0.7v1.7h0c0,1.4-1.1,2.9-3.3,4.1c-0.1,0.1-4.9,2.8-5,2.9c0,0-6.5,7-13.3,9.2
			C7.3,55,2.1,50.3,2.1,47.4l0-2.4H3.3z"/>
		<path class="st1" d="M19,26.5c3.3-7.2,0.2-10.4,2.4-13.6c5.1-7.3,8-8.6,10.8-8.6c2.6,0,8.4,2,7.9,5.1c-0.3,3.7-7.9,11.8-6.7,15.7
			l-3.7,9.6l-13.3-4L19,26.5z"/>
		<path class="st2" d="M19.4,26.7c3.2-7,0.2-10.5,2.5-13.6c5.1-7,7.9-8.4,10.6-8.4c2.5,0,7.5,2.3,7.5,4.3
			c-0.3,3.6-7.5,12.1-6.3,15.9L30,34.3l-11.3-3.5L19.4,26.7z"/>
		<path class="st3" d="M21.7,15.7c0,0.3,0.2,0.4,0.5,0.3c0.3-0.1,0.5-0.5,0.5-0.8c0-0.3-0.2-0.4-0.5-0.3
			C21.9,15,21.7,15.4,21.7,15.7z"/>
		<path class="st1" d="M21.8,15.6c0,0.2,0.1,0.3,0.3,0.2c0.2-0.1,0.3-0.4,0.3-0.6c0-0.2-0.1-0.3-0.3-0.2
			C21.9,15.1,21.8,15.4,21.8,15.6z"/>
		<path class="st0" d="M17.9,21.2c0,0,0.1,0,0.1,0c0.1-0.1,0.2-0.2,0.1-0.3c-0.2-0.4,0.8-1.1,1.8-1.8c1.2-0.8,2.6-1.7,2.7-2.8
			c0.1-0.4-0.1-0.9-0.4-1.3c-0.3,0.1-0.3,0.4-0.3,0.4c0.2,0.3,0.3,0.5,0.3,0.8c-0.1,0.8-1.4,1.7-2.5,2.4c-1.3,0.9-2.4,1.6-1.9,2.4
			C17.7,21.1,17.8,21.2,17.9,21.2z"/>
		<path class="st4" d="M18.1,16L18.1,16c1.3-0.4,6.8,2.8,7.4,4.2c0.6,1.5,3.3,10-1,11.5c-2.5,0.4-6.3-2.5-6.1-2.8
			C20.3,26.3,18.6,21,18,18c-0.2-0.1-0.6-0.4-0.8-0.3C17.1,16.3,18.1,16,18.1,16z"/>
		<path class="st5" d="M18.4,28.9c-0.2,0.3,3.3,3.1,5.8,2.8c4.4-1.5,1.4-8.9,0.7-10.3c-0.8-1.5-6.2-4.8-7.4-4.2
			C16.2,17.7,21,25.3,18.4,28.9z"/>
		<path class="st6" d="M2.2,44.5c0.2-1.2-0.2-5.3,3-7.2c9.7-5.9,12.4-9.3,13.9-10.6c-0.1,0.5,0,0.5,0,0.6c-0.4,2.5,5.7,5.4,6.9,3.1
			c3.6-6.9-1.1-12.4,2.6-13.4c12-3.3,11.3-8,11.3-8c0,0.1,0.2,0.2,0.2,0.4c-0.3,3.7-4.1,13.1-2.9,17c0.7,2.2,0.7,7.8,0.7,7.8
			s-2.6,3.9-8.3,6.3l-1.2,0.7c0,0-4.1,5.9-11.3,8.4C7.6,52.9,1.7,47.9,2.2,44.5z"/>
		<path class="st7" d="M4,39.4c-0.4,0.6-0.4,1.4,0.1,1.7c0.5,0.3,1.2,0.1,1.7-0.6c0.4-0.6,0.4-1.4-0.1-1.7C5.2,38.5,4.4,38.8,4,39.4
			z"/>
		<path class="st0" d="M22.9,24c0.6,0,1.2-0.1,1.9-0.2c2-0.3,3.7-1.1,4-1.9c0.1-0.1,0-0.3-0.1-0.3c-0.1-0.1-0.3,0-0.3,0.1
			c-0.2,0.5-1.7,1.3-3.7,1.6c-2.7,0.4-5-0.1-6.2-1.4c-0.1-0.1-0.2-0.1-0.3,0c-0.1,0.1-0.1,0.2,0,0.3C19.1,23.4,20.8,24,22.9,24z"/>
		<path class="st0" d="M22.5,23.1c3,0,6.1-1,6.4-1c0.1,0,0.2-0.2,0.2-0.3c0-0.1-0.2-0.2-0.3-0.2c-0.1,0-8.9,2.7-10.6-0.8
			c-0.1-0.1-0.2-0.2-0.3-0.1c-0.1,0.1-0.2,0.2-0.1,0.3C18.4,22.6,20.4,23.1,22.5,23.1z"/>
		<g>
			<path class="st8" d="M27.8,22c0-0.4,0.3-0.9,0.7-1.1c0.2-0.1,0.3-0.1,0.5,0l0.3,0.2l-0.1,0.2c0,0.4-0.3,0.9-0.7,1.1c0,0,0,0,0,0
				l-0.1,0.2L28,22.4C27.9,22.4,27.8,22.2,27.8,22z"/>
			<path class="st4" d="M28.1,22.2c0,0.4,0.3,0.6,0.7,0.4c0.4-0.2,0.7-0.7,0.7-1.1c0-0.4-0.3-0.6-0.7-0.4
				C28.4,21.3,28.1,21.8,28.1,22.2z"/>
		</g>
		<path class="st0" d="M26.7,28c0.8,0,1.6-0.1,2.1-0.3c0.1-0.1,0.2-0.2,0.1-0.3c-0.1-0.1-0.2-0.2-0.3-0.1c-1.8,0.9-8.4-0.3-9.4-2
			c-0.1-0.1-0.2-0.1-0.3-0.1c-0.1,0.1-0.2,0.2-0.1,0.3c0.8,1.3,3.8,2,4.7,2.2C24.4,27.9,25.6,28,26.7,28z"/>
		<path class="st0" d="M28.1,27.8c0.2,0,0.4,0,0.6,0c0.1,0,0.2-0.2,0.2-0.3c0-0.1-0.2-0.2-0.3-0.2c-2.1,0.4-9.3-2.3-10-4.4
			c0-0.1-0.2-0.2-0.3-0.2c-0.1,0-0.2,0.2-0.2,0.3C18.9,25.2,25.3,27.8,28.1,27.8z"/>
		<path class="st0" d="M25.3,26c1.6,0,3.2-0.3,4-0.9c0.1-0.1,0.1-0.2,0-0.3c-0.1-0.1-0.2-0.1-0.3,0c-0.9,0.7-3.4,1-5.9,0.6
			c-2.1-0.3-3.6-0.9-4.1-1.7c-0.1-0.1-0.2-0.1-0.3-0.1c-0.1,0.1-0.1,0.2-0.1,0.3c0.8,1.3,3.4,1.7,4.5,1.9C23.7,26,24.5,26,25.3,26z"
			/>
		<path class="st0" d="M27.8,25.2c0.4,0,0.9,0,1.3,0c0.1,0,0.2-0.1,0.2-0.3c0-0.1-0.1-0.2-0.3-0.2c-5.1,0.3-7.9-1.2-9.4-2.6
			c-1.6-1.4-2.1-3-2.1-3c0-0.1-0.2-0.2-0.3-0.2c-0.1,0-0.2,0.2-0.2,0.3c0,0.1,0.5,1.7,2.2,3.2C20.7,23.8,23.3,25.2,27.8,25.2z"/>
		<path class="st0" d="M27,19.6c0,0.1,0,0.2,0,0.3c-0.1,0.9-0.4,2.2-1.6,2.3c-0.5,0-1,0.1-1.5,0.1c-5.7,0-6.8-3.1-6.8-3.3
			c0-0.1,0-0.3,0.2-0.3c0.1,0,0.3,0,0.3,0.2c0,0,1.2,3.4,7.8,2.9c0.8-0.1,1-0.8,1.2-1.9c0.1-0.6,0.2-1,0.5-1.2c0,0,0.1-0.1,0.2-0.1
			C27,18.8,27,19.2,27,19.6z"/>
		<g>
			<path class="st8" d="M28.1,25.1c0-0.4,0.3-0.9,0.7-1.1c0.2-0.1,0.3-0.1,0.5,0l0.3,0.2l-0.1,0.2c0,0.4-0.3,0.9-0.7,1.1
				c0,0,0,0,0,0l-0.1,0.2l-0.3-0.2C28.2,25.5,28.1,25.3,28.1,25.1z"/>
			<path class="st4" d="M28.4,25.3c0,0.4,0.3,0.6,0.7,0.4c0.4-0.2,0.7-0.7,0.7-1.1c0-0.4-0.3-0.6-0.7-0.4
				C28.7,24.4,28.4,24.9,28.4,25.3z"/>
		</g>
		<path class="st0" d="M27.7,30.2c0.1,0,0.2-0.1,0.2-0.2c0-0.1-0.1-0.3-0.2-0.3c-3.7-0.5-8.2-2.3-8.6-4c0-0.1-0.2-0.2-0.3-0.2
			c-0.1,0-0.2,0.2-0.2,0.3C19.2,28,24.3,29.7,27.7,30.2C27.7,30.2,27.7,30.2,27.7,30.2z"/>
		<path class="st0" d="M27.7,30.2c0.1,0,0.2-0.1,0.2-0.2c0-0.1-0.1-0.3-0.2-0.3c-2.1-0.4-7-2.5-8.7-5.6C19,24,18.8,24,18.7,24.1
			c-0.1,0.1-0.2,0.2-0.1,0.3C20.4,27.6,25.5,29.8,27.7,30.2C27.7,30.2,27.7,30.2,27.7,30.2z"/>
		<g>
			<path class="st8" d="M27.8,27.7c0-0.4,0.3-0.9,0.7-1.1c0.2-0.1,0.3-0.1,0.5,0l0.3,0.2l-0.1,0.2c0,0.4-0.3,0.9-0.7,1.1
				c0,0,0,0,0,0l-0.1,0.2L28,28.1C27.9,28,27.8,27.9,27.8,27.7z"/>
			<path class="st4" d="M28.1,27.9c0,0.4,0.3,0.6,0.7,0.4c0.4-0.2,0.7-0.7,0.7-1.1c0-0.4-0.3-0.6-0.7-0.4
				C28.4,26.9,28.1,27.4,28.1,27.9z"/>
		</g>
		<g>
			<path class="st8" d="M26.9,30.2c0-0.4,0.3-0.9,0.7-1.1c0.2-0.1,0.4-0.1,0.5,0l0.3,0.2l-0.1,0.2c0,0.4-0.3,0.9-0.7,1.1
				c0,0,0,0,0,0l-0.1,0.2l-0.3-0.2C27,30.5,26.9,30.4,26.9,30.2z"/>
			<path class="st4" d="M27.2,30.4c0,0.4,0.3,0.6,0.7,0.4c0.4-0.2,0.7-0.7,0.7-1.1c0-0.4-0.3-0.6-0.7-0.4
				C27.5,29.4,27.2,29.9,27.2,30.4z"/>
		</g>
		<path class="st9" d="M23.3,30.5c-0.3-0.3-0.7-0.5-1.1-0.7c-0.4-0.2-0.7-0.4-1.1-0.6c-0.4-0.2-0.7-0.4-1.1-0.6
			c-0.4-0.2-0.7-0.4-1.1-0.6c0.3,0.3,0.6,0.6,0.9,0.9c0.3,0.3,0.7,0.5,1.1,0.7c0.4,0.2,0.7,0.4,1.1,0.5
			C22.5,30.3,22.9,30.4,23.3,30.5z"/>
		<g>
			<path class="st3" d="M28.1,19.4c0,0.3,0.2,0.4,0.5,0.3c0.3-0.1,0.5-0.5,0.5-0.8c0-0.3-0.2-0.4-0.5-0.3
				C28.3,18.7,28.1,19.1,28.1,19.4z"/>
			<path class="st10" d="M28.2,19.3c0,0.2,0.2,0.3,0.3,0.2c0.2-0.1,0.3-0.4,0.3-0.6c0-0.2-0.1-0.3-0.3-0.2
				C28.4,18.8,28.2,19.1,28.2,19.3z"/>
			<path class="st11" d="M32.1,33.9v1.2l0,0c0,0,0,0,0,0.1c-0.1,0-0.1,0-0.2,0c0,0,0,0,0-0.1v-1.2H32.1z"/>
			<path class="st12" d="M31.8,34c0.1,0,0.1,0,0.2,0c0.1,0,0.1-0.1,0-0.1c-0.1,0-0.1,0-0.2,0C31.8,33.9,31.8,34,31.8,34z"/>
			<path class="st0" d="M32,34.2c0.1,0,0.2-0.1,0.2-0.2c0-8.9-2.9-14.5-3.7-15.1c0,0-0.2,0.1-0.3,0.4c0.8,0.5,3.5,6,3.5,14.7
				C31.7,34,31.8,34.2,32,34.2z"/>
		</g>
	</g>
	<g>
		<path class="st0" d="M25.1,51.7c4.5-4.2,16.8-8.2,19.7-9.2l-1.6-1c0.6-0.4,0.6-1,0.6-1c4.4-1.2,11.6-2.1,14.2-0.5
			c0.1,0.1,0.2,0.1,0.3,0.2l1.3,0.7v1.7h0c0,1.4-1.1,2.9-3.3,4.1c-0.1,0.1-4.9,2.8-5,2.9c0,0-6.5,7-13.3,9.2
			C29,61.7,23.8,57,23.9,54.1l0-2.4H25.1z"/>
		<path class="st1" d="M40.7,33.2c3.3-7.2,0.2-10.4,2.4-13.6c5.1-7.3,8-8.6,10.8-8.6c2.6,0,8.4,2,7.9,5.1
			c-0.3,3.7-7.9,11.7-6.7,15.7l-3.7,9.6l-13.3-3.9L40.7,33.2z"/>
		<path class="st2" d="M41.1,33.3c3.2-7,0.2-10.5,2.5-13.6c5.1-7,7.9-8.4,10.6-8.4c2.5,0,7.5,2.3,7.5,4.3c-0.3,3.6-7.5,12.1-6.3,16
			L51.7,41l-11.3-3.5L41.1,33.3z"/>
		<path class="st3" d="M43.4,22.4c0,0.3,0.2,0.4,0.5,0.3c0.3-0.1,0.5-0.5,0.5-0.8c0-0.3-0.2-0.4-0.5-0.3
			C43.6,21.7,43.4,22.1,43.4,22.4z"/>
		<path class="st1" d="M43.6,22.3c0,0.2,0.1,0.3,0.3,0.2c0.2-0.1,0.3-0.4,0.3-0.6c0-0.2-0.1-0.3-0.3-0.2
			C43.7,21.8,43.6,22.1,43.6,22.3z"/>
		<path class="st0" d="M39.6,27.9c0,0,0.1,0,0.1,0c0.1-0.1,0.2-0.2,0.1-0.3c-0.2-0.4,0.8-1.1,1.8-1.8c1.2-0.8,2.6-1.7,2.7-2.8
			c0.1-0.4-0.1-0.9-0.4-1.3c-0.3,0.1-0.3,0.4-0.3,0.4c0.2,0.3,0.3,0.5,0.3,0.8c-0.1,0.9-1.4,1.7-2.5,2.4c-1.3,0.8-2.4,1.6-1.9,2.4
			C39.5,27.8,39.6,27.9,39.6,27.9z"/>
		<path class="st4" d="M39.9,22.7L39.9,22.7c1.3-0.4,6.8,2.8,7.4,4.2c0.6,1.5,3.3,10-1,11.5c-2.5,0.4-6.3-2.5-6.1-2.8
			c1.9-2.6,0.3-7.9-0.3-10.9c-0.2-0.1-0.6-0.3-0.8-0.3C38.8,22.9,39.9,22.7,39.9,22.7z"/>
		<path class="st5" d="M40.1,35.6c-0.2,0.3,3.3,3.1,5.8,2.8c4.4-1.5,1.4-8.9,0.7-10.3c-0.8-1.5-6.2-4.8-7.4-4.2
			C38,24.4,42.7,32,40.1,35.6z"/>
		<path class="st6" d="M23.9,51.2c0.2-1.2-0.2-5.3,3-7.2c9.7-5.9,12.4-9.3,13.9-10.6c-0.1,0.5,0,0.5,0,0.6c-0.4,2.5,5.7,5.4,6.9,3.1
			c3.6-6.9-1.1-12.4,2.6-13.4c12-3.3,11.3-8,11.3-8c0,0.1,0.2,0.2,0.2,0.4c-0.3,3.6-4.1,13.1-2.9,17c0.7,2.2,0.7,7.8,0.7,7.8
			s-2.6,3.9-8.3,6.3l-1.2,0.7c0,0-4.1,5.9-11.3,8.4C29.3,59.6,23.4,54.6,23.9,51.2z"/>
		<path class="st7" d="M25.8,46.1c-0.4,0.6-0.4,1.4,0.1,1.7c0.5,0.3,1.2,0.1,1.7-0.6c0.4-0.6,0.4-1.4-0.1-1.7
			C27,45.2,26.2,45.5,25.8,46.1z"/>
		<path class="st0" d="M44.6,30.7c0.6,0,1.2,0,1.8-0.2c2-0.3,3.7-1.1,4-1.9c0.1-0.1,0-0.3-0.1-0.3c-0.1-0.1-0.3,0-0.3,0.1
			c-0.2,0.5-1.7,1.3-3.7,1.6c-2.7,0.4-5-0.1-6.2-1.4c-0.1-0.1-0.2-0.1-0.3,0c-0.1,0.1-0.1,0.2,0,0.3C40.9,30.1,42.6,30.7,44.6,30.7z
			"/>
		<path class="st0" d="M44.3,29.8c3,0,6.1-1,6.4-1c0.1,0,0.2-0.2,0.2-0.3c0-0.1-0.2-0.2-0.3-0.2c-0.1,0-8.9,2.7-10.6-0.8
			c-0.1-0.1-0.2-0.2-0.3-0.1c-0.1,0.1-0.2,0.2-0.1,0.3C40.2,29.3,42.2,29.8,44.3,29.8z"/>
		<g>
			<path class="st8" d="M49.6,28.7c0-0.4,0.3-0.9,0.7-1.1c0.2-0.1,0.3-0.1,0.5,0l0.3,0.2L50.9,28c0,0.4-0.3,0.9-0.7,1.1c0,0,0,0,0,0
				l-0.1,0.2l-0.3-0.2C49.6,29,49.6,28.9,49.6,28.7z"/>
			<path class="st4" d="M49.9,28.9c0,0.4,0.3,0.6,0.7,0.4c0.4-0.2,0.7-0.7,0.7-1.1s-0.3-0.6-0.7-0.4C50.2,28,49.9,28.5,49.9,28.9z"
				/>
		</g>
		<path class="st0" d="M48.4,34.7c0.8,0,1.6-0.1,2.1-0.3c0.1-0.1,0.2-0.2,0.1-0.3c-0.1-0.1-0.2-0.2-0.3-0.1c-1.8,0.9-8.4-0.3-9.4-2
			c-0.1-0.1-0.2-0.1-0.3-0.1c-0.1,0.1-0.2,0.2-0.1,0.3c0.8,1.3,3.8,2,4.7,2.2C46.2,34.6,47.4,34.7,48.4,34.7z"/>
		<path class="st0" d="M49.9,34.5c0.2,0,0.4,0,0.6,0c0.1,0,0.2-0.2,0.2-0.3c0-0.1-0.2-0.2-0.3-0.2c-2.1,0.4-9.3-2.3-10-4.4
			c0-0.1-0.2-0.2-0.3-0.2c-0.1,0-0.2,0.2-0.2,0.3C40.6,31.9,47.1,34.5,49.9,34.5z"/>
		<path class="st0" d="M47,32.7c1.6,0,3.2-0.3,4-0.9c0.1-0.1,0.1-0.2,0-0.3c-0.1-0.1-0.2-0.1-0.3,0c-0.9,0.7-3.4,1-5.9,0.6
			c-2-0.3-3.6-0.9-4.1-1.7c-0.1-0.1-0.2-0.1-0.3-0.1c-0.1,0.1-0.1,0.2-0.1,0.3c0.8,1.3,3.4,1.7,4.5,1.9C45.5,32.7,46.2,32.7,47,32.7
			z"/>
		<path class="st0" d="M49.6,31.9c0.4,0,0.9,0,1.3,0c0.1,0,0.2-0.1,0.2-0.3c0-0.1-0.1-0.2-0.3-0.2c-5.1,0.3-7.9-1.2-9.4-2.6
			c-1.6-1.4-2.1-3-2.1-3c0-0.1-0.2-0.2-0.3-0.2c-0.1,0-0.2,0.2-0.2,0.3c0,0.1,0.5,1.7,2.2,3.2C42.5,30.5,45.1,31.9,49.6,31.9z"/>
		<path class="st0" d="M48.8,26.2c0,0.1,0,0.2,0,0.3c-0.1,0.9-0.3,2.2-1.6,2.3c-0.5,0-1,0.1-1.5,0.1c-5.7,0-6.8-3.1-6.8-3.3
			c0-0.1,0-0.3,0.2-0.3c0.1,0,0.3,0,0.3,0.2c0,0,1.2,3.4,7.8,2.9c0.8-0.1,1-0.8,1.2-1.9c0.1-0.6,0.2-1,0.5-1.2c0,0,0.1-0.1,0.2-0.1
			C48.8,25.5,48.8,25.8,48.8,26.2z"/>
		<g>
			<path class="st8" d="M49.9,31.8c0-0.4,0.3-0.9,0.7-1.1c0.2-0.1,0.3-0.1,0.5,0l0.3,0.2l-0.1,0.2c0,0.4-0.3,0.9-0.7,1.1
				c0,0,0,0,0,0l-0.1,0.2l-0.3-0.2C50,32.2,49.9,32,49.9,31.8z"/>
			<path class="st4" d="M50.2,32c0,0.4,0.3,0.6,0.7,0.4c0.4-0.2,0.7-0.7,0.7-1.1c0-0.4-0.3-0.6-0.7-0.4C50.5,31.1,50.2,31.6,50.2,32
				z"/>
		</g>
		<path class="st0" d="M49.5,36.9c0.1,0,0.2-0.1,0.2-0.2c0-0.1-0.1-0.3-0.2-0.3c-3.7-0.5-8.2-2.3-8.6-4c0-0.1-0.2-0.2-0.3-0.2
			c-0.1,0-0.2,0.2-0.2,0.3C41,34.7,46,36.4,49.5,36.9C49.5,36.9,49.5,36.9,49.5,36.9z"/>
		<path class="st0" d="M49.5,36.9c0.1,0,0.2-0.1,0.2-0.2c0-0.1-0.1-0.3-0.2-0.3c-2.1-0.4-7-2.5-8.7-5.6c-0.1-0.1-0.2-0.2-0.3-0.1
			c-0.1,0.1-0.2,0.2-0.1,0.3C42.2,34.3,47.3,36.5,49.5,36.9C49.5,36.9,49.5,36.9,49.5,36.9z"/>
		<g>
			<path class="st8" d="M49.6,34.4c0-0.4,0.3-0.9,0.7-1.1c0.2-0.1,0.3-0.1,0.5,0l0.3,0.2l-0.1,0.2c0,0.4-0.3,0.9-0.7,1.1
				c0,0,0,0,0,0L50.1,35l-0.3-0.2C49.6,34.7,49.6,34.6,49.6,34.4z"/>
			<path class="st4" d="M49.9,34.5c0,0.4,0.3,0.6,0.7,0.4c0.4-0.2,0.7-0.7,0.7-1.1c0-0.4-0.3-0.6-0.7-0.4
				C50.2,33.6,49.9,34.1,49.9,34.5z"/>
		</g>
		<g>
			<path class="st8" d="M48.7,36.9c0-0.4,0.3-0.9,0.7-1.1c0.2-0.1,0.4-0.1,0.5,0l0.3,0.2L50,36.1c0,0.4-0.3,0.9-0.7,1.1c0,0,0,0,0,0
				l-0.1,0.2l-0.3-0.2C48.7,37.2,48.7,37.1,48.7,36.9z"/>
			<path class="st4" d="M49,37c0,0.4,0.3,0.6,0.7,0.4c0.4-0.2,0.7-0.7,0.7-1.1c0-0.4-0.3-0.6-0.7-0.4C49.3,36.1,49,36.6,49,37z"/>
		</g>
		<path class="st9" d="M45,37.2c-0.3-0.3-0.7-0.5-1.1-0.7c-0.4-0.2-0.7-0.4-1.1-0.6c-0.4-0.2-0.7-0.4-1.1-0.6
			c-0.4-0.2-0.7-0.4-1.1-0.6c0.3,0.3,0.6,0.6,0.9,0.9c0.3,0.3,0.7,0.5,1.1,0.7c0.4,0.2,0.8,0.4,1.1,0.5C44.2,37,44.6,37.1,45,37.2z"
			/>
		<g>
			<path class="st3" d="M49.8,26.1c0,0.3,0.2,0.4,0.5,0.3c0.3-0.1,0.5-0.5,0.5-0.8c0-0.3-0.2-0.4-0.5-0.3
				C50,25.4,49.8,25.8,49.8,26.1z"/>
			<path class="st10" d="M50,26c0,0.2,0.1,0.3,0.3,0.2c0.2-0.1,0.3-0.4,0.3-0.6c0-0.2-0.1-0.3-0.3-0.2C50.1,25.5,50,25.8,50,26z"/>
			<path class="st11" d="M53.9,40.6v1.2l0,0c0,0,0,0,0,0.1c-0.1,0-0.1,0-0.2,0c0,0,0,0,0-0.1v-1.2H53.9z"/>
			<path class="st12" d="M53.6,40.7c0.1,0,0.1,0,0.2,0c0.1,0,0.1-0.1,0-0.1c-0.1,0-0.1,0-0.2,0C53.6,40.6,53.6,40.7,53.6,40.7z"/>
			<path class="st0" d="M53.7,40.8c0.1,0,0.2-0.1,0.2-0.2c0-8.9-2.9-14.5-3.7-15.1c0,0-0.2,0.1-0.3,0.4c0.8,0.5,3.5,6,3.5,14.7
				C53.5,40.7,53.6,40.8,53.7,40.8z"/>
		</g>
	</g>
</g>
</svg>
