<?xml version="1.0" encoding="utf-8"?>
<!-- Generator: Adobe Illustrator 28.2.0, SVG Export Plug-In . SVG Version: 6.00 Build 0)  -->
<svg version="1.1" id="Capa_1" xmlns="http://www.w3.org/2000/svg" xmlns:xlink="http://www.w3.org/1999/xlink" x="0px" y="0px"
	 viewBox="0 0 64 64" style="enable-background:new 0 0 64 64;" xml:space="preserve">
<style type="text/css">
	.st0{opacity:0.1;}
	.st1{fill:#34B8E4;}
	.st2{fill:#FFFFFF;}
	.st3{opacity:0.5;fill:#D1D8DC;}
</style>
<g>
	<path class="st0" d="M58.8,34c0,0-0.3,3.6-4.7,6.9c-4.4,3.3-15.3,11.3-21,13c-5.7,1.7-13.8-0.8-19.3-3.4C8.3,47.9,2.3,45,9.6,40.2
		C16.8,35.4,38.6,25,38.6,25L58.8,34z"/>
	<path class="st1" d="M13,43.5c4.8,3.4,7.9,8.8,17.5,8.5c9.6-0.3,17.3-9.5,17.3-9.5L21.4,30.7L4,42.2C4,42.2,9.6,41.1,13,43.5z"/>
	<path class="st2" d="M34.5,10C19.4,12.7,17.5,30,17.3,33c0,0.1,0,0.3,0,0.4c0,0.4,2.3,1.5,5.1,2.8c10.5,4.8,21,7.2,25.5,6.3
		c1.6-0.4,3.1-1.3,4.5-2.1c3.8-2.2,6.4-4.3,7.2-7C62.6,17.8,51.5,6.9,34.5,10z"/>
	<path class="st3" d="M42.7,9.6c9.9,7.2,8,19.2,5.8,25.1c-3.3,8.6-17.9,4.9-18.1,4.9c7.5,2.6,14.1,3.8,17.4,3
		c1.6-0.4,3.1-1.3,4.5-2.1c3.8-2.2,6.4-4.3,7.2-7C62,20.5,54.9,10.8,42.7,9.6z"/>
</g>
</svg>
