<?xml version="1.0" encoding="utf-8"?>
<!-- Generator: Adobe Illustrator 28.2.0, SVG Export Plug-In . SVG Version: 6.00 Build 0)  -->
<svg version="1.1" id="Capa_1" xmlns="http://www.w3.org/2000/svg" xmlns:xlink="http://www.w3.org/1999/xlink" x="0px" y="0px"
	 viewBox="0 0 64 64" style="enable-background:new 0 0 64 64;" xml:space="preserve">
<style type="text/css">
	.st0{fill:#34B8E4;}
	.st1{opacity:0.5;fill:#A0A8B8;}
	.st2{fill:#2A2A2A;}
	.st3{fill:url(#SVGID_1_);}
	.st4{fill:url(#SVGID_00000094581239746509750200000018097028959891468687_);}
	.st5{fill:url(#SVGID_00000154388101350430920520000003916024337354618025_);}
	.st6{fill:url(#SVGID_00000118358951721156883550000006908161236796230552_);}
	.st7{fill:#E588D3;}
	.st8{fill:#0D1B2E;}
</style>
<g>
	<path class="st0" d="M48.3,29.9c0,0,6.7-3.3,9-4.9c2.2-1.6,3.2-2.2,3.3-3.2c0.2-1.1-0.5-3.7-4.2-2.9c0.7-0.4,1.2-2,0.4-3.1
		c-0.9-1.1-2.9-0.9-4.7-0.1c0.5-0.6,0.7-1.6,0-2.4c-0.7-0.7-3.2-0.7-4.9-0.3c-1.8,0.4-3.3,1.3-3.3,1.3s0.3-1.2-0.1-1.6
		c-0.4-0.4-2.2-1.1-4.9,0c-2.7,1.1-5.3,3.5-6.8,4.6c-1.5,1.1-6.2,4.4-7.8,5.7c-1.6,1.3-2.7,3.8-2.4,5.8c0.3,2,4.3,9.4,9.2,9.2
		C36,38,48.3,29.9,48.3,29.9z"/>
	<path class="st1" d="M48.2,27.3c-1.5,0.2-3.5,0.2-3.5,0.2l0.2,2.7l1.1,1.1c1.4-0.9,2.4-1.5,2.4-1.5s2.2-1.1,4.4-2.3
		C50.6,27.3,49.5,27.2,48.2,27.3z"/>
	<g>
		<path class="st0" d="M41.8,36.5c0.5-1.2,1.3-2.4,1.8-4c0.4-1.3,0.7-3.2,2.5-4.1c-0.5-0.2-1-0.6-2.2-1.3c-2-1-5.9-1-9.2,0.6
			c-3.3,1.6-4.4,3.8-4.3,6.2l4,6.4c0,0,0.7,0.4,2.5,0.4c1.3,0,3.8-1,5.8-1.8C42.1,38.4,41.4,37.4,41.8,36.5z"/>
		<path class="st2" d="M53.8,29.3c-2.2-0.8-5.1-0.6-6.4-0.6c-0.5,0-0.9-0.1-1.2-0.2c-1.8,0.9-2.1,2.8-2.5,4.1
			c-0.5,1.6-1.3,2.7-1.8,4c-0.4,0.9,0.2,1.8,1,2.5c0.9-0.4,1.6-0.7,2.1-0.9c1.7-0.7,4-1.5,5.9-1.6c1.9-0.1,4.3-0.7,5-2.1
			C56.6,33.1,56,30.1,53.8,29.3z"/>
	</g>
	<path class="st2" d="M25.1,29.1c-0.7-0.5-1.2-2,0-3.4c1.2-1.4,5.2-4.2,6.3-4.7c1.1-0.5,1.9-0.8,3.1-0.4c1.2,0.4,8.2,3.3,9.2,3.9
		c1,0.6,0.9,2.4,0,3c-0.9,0.6-4.5,0.8-5.8,2c-1.3,1.2-3.4,4.2-5.4,4.3C30.5,34,25.1,29.1,25.1,29.1z"/>
	<path class="st1" d="M56.4,18.9c0,0-5.9,2.6-6.8,3c-0.9,0.5-2,1.2-2.2,1.3c-0.2,0.1-0.9,0-1.1-0.1c-0.3-0.2,0-0.6,0.5-0.6
		c0.5,0,0.7,0.1,1.5-0.3c0.7-0.4,2.2-1.1,3.9-1.9C54.5,19.2,56.4,18.9,56.4,18.9z"/>
	<path class="st1" d="M52,15.7c0,0-5.8,2.7-6.7,3.2c-0.9,0.5-2,1.3-2.2,1.4c-0.2,0.1-0.9,0.1-1.1-0.1c-0.3-0.1,0-0.6,0.5-0.6
		c0.5,0,0.7,0.1,1.5-0.3c0.7-0.4,2.2-1.2,3.9-2C50.1,16.1,52,15.7,52,15.7z"/>
	<path class="st1" d="M43.7,14.4c0,0-3.5,2.3-4.3,2.9c-0.8,0.6-1.9,1.6-2.1,1.7c-0.2,0.1-0.8,0.2-1.1,0.1c-0.3-0.1-0.1-0.6,0.4-0.7
		c0.5-0.1,0.7-0.1,1.4-0.5c0.7-0.5,0.3-0.2,1.8-1.3C41.9,15,43.7,14.4,43.7,14.4z"/>
	<linearGradient id="SVGID_1_" gradientUnits="userSpaceOnUse" x1="50.8339" y1="15.523" x2="29.4048" y2="41.0255">
		<stop  offset="0" style="stop-color:#BA8563"/>
		<stop  offset="1" style="stop-color:#AA6D4F"/>
	</linearGradient>
	<path class="st3" d="M32,33.5c1.9,1.6,3.5,4.5,3.6,5.6c0.2,1.2,0.4,1.7-0.1,2.1c-0.5,0.4-1.8,1.6-2.2,1.9c-0.4,0.3-1,0.4-1.3,0.3
		l-3.6-8.5L32,33.5z"/>
	
		<linearGradient id="SVGID_00000056412025564044248370000002035916609519100083_" gradientUnits="userSpaceOnUse" x1="47.2674" y1="9.9577" x2="25.691" y2="35.6353">
		<stop  offset="0" style="stop-color:#D9A07C"/>
		<stop  offset="1" style="stop-color:#C98665"/>
	</linearGradient>
	<path style="fill:url(#SVGID_00000056412025564044248370000002035916609519100083_);" d="M18.8,30c-0.3,0,0.7-1,1.7-1.4
		c1-0.4,1.9-0.7,3-0.6c1.1,0.1,4,1.4,6.1,3.1s2.8,2.3,4.6,3.1c1.7,0.7,2.5,0.6,2.6,1.2c0.1,0.6-0.5,2.2-2.2,2.2
		c-1.7,0-3.7-0.6-6-2.6C26.3,33,20.7,29.9,18.8,30z"/>
	<g>
		
			<linearGradient id="SVGID_00000129898357708103834440000007821464659812380860_" gradientUnits="userSpaceOnUse" x1="25.8171" y1="33.2632" x2="31.4145" y2="31.8407">
			<stop  offset="0" style="stop-color:#274773"/>
			<stop  offset="1" style="stop-color:#132A45"/>
		</linearGradient>
		<path style="fill:url(#SVGID_00000129898357708103834440000007821464659812380860_);" d="M28.9,34.9c-0.2,0-0.3-0.1-0.5-0.2
			c-0.2-0.2-1.5-1.2-2-1.6L26.1,33c-0.3-0.2-0.6-0.5-0.6-0.8c0-0.2,0.1-0.3,0.2-0.5c0.2-0.2,0.9-0.6,2-1.3c0.4-0.2,0.8-0.4,1-0.2
			c0.1,0.1,1.2,0.9,2.1,1.6l0.4,0.3c0.2,0.1,0.3,0.3,0.3,0.5c0,0.2-0.1,0.3-0.2,0.5c-0.2,0.2-1.7,1.3-2,1.5
			C29.2,34.8,29.1,34.9,28.9,34.9z M28.5,30.6c-0.1,0-0.3,0.1-0.4,0.2c-1.6,0.9-1.9,1.2-2,1.3c0,0-0.1,0.1-0.1,0.1
			c0,0,0,0.2,0.4,0.4l0.2,0.1c0.6,0.4,1.8,1.4,2.1,1.6c0.1,0.1,0.1,0.1,0.2,0.1c0.1,0,0.2-0.1,0.2-0.1c0.3-0.2,1.7-1.3,2-1.5
			c0,0,0.1-0.1,0.1-0.1c0,0,0-0.1-0.1-0.1l-0.4-0.3C30,31.8,28.7,30.7,28.5,30.6C28.5,30.6,28.5,30.6,28.5,30.6z"/>
	</g>
	<g>
		
			<linearGradient id="SVGID_00000074427647663514734350000009165527586085549217_" gradientUnits="userSpaceOnUse" x1="28.887" y1="33.3536" x2="30.3971" y2="32.9698">
			<stop  offset="0" style="stop-color:#274773"/>
			<stop  offset="1" style="stop-color:#132A45"/>
		</linearGradient>
		<path style="fill:url(#SVGID_00000074427647663514734350000009165527586085549217_);" d="M30.3,33.9c-0.1,0-0.1,0-0.2-0.1
			c-0.6-0.6-1.3-1-1.3-1c-0.1-0.1-0.2-0.2-0.1-0.3c0.1-0.1,0.2-0.2,0.3-0.1c0,0,0.8,0.5,1.4,1.1c0.1,0.1,0.1,0.3,0,0.4
			C30.5,33.9,30.4,33.9,30.3,33.9z"/>
	</g>
	<path class="st0" d="M20.7,29.9c-1.5-0.4-2.9-0.2-3.9,0.2c-1,0.4-6.5,2.7-6.5,2.7L29,47.1c0,0,2.3-2,3-2.9c0.7-0.9,0.9-3.3,0.2-5.1
		C31.6,37.3,26.6,31.5,20.7,29.9z"/>
	<path class="st7" d="M13.8,31.8c-1.4-0.4-3.2-0.3-4,0S5.6,33.5,4.9,34c-0.7,0.5-1.7,1.6-1.4,4.2s1.2,3.3,3.3,4.7
		c2.1,1.3,12,7.4,14.6,8.5s4,0.3,5.2-0.6c1.2-0.9,2.5-2.1,3.1-2.6s2.1-2.7,0.4-5.7C28.4,39.4,20.1,33.8,13.8,31.8z"/>
	<path class="st8" d="M7.5,37.1c-1.1-0.5-2,0-2.1,0.7c-0.1,0.7,0,2,1.4,3c1.4,1,7.5,5,10.2,6.5c2.8,1.5,4.7,2.2,5.5,1.8
		s1.2-2.1,0-3.1C21.3,45.2,13,39.8,7.5,37.1z"/>
</g>
</svg>
