<?xml version="1.0" encoding="utf-8"?>
<!-- Generator: Adobe Illustrator 28.2.0, SVG Export Plug-In . SVG Version: 6.00 Build 0)  -->
<svg version="1.1" id="Capa_1" xmlns="http://www.w3.org/2000/svg" xmlns:xlink="http://www.w3.org/1999/xlink" x="0px" y="0px"
	 viewBox="0 0 64 64" style="enable-background:new 0 0 64 64;" xml:space="preserve">
<style type="text/css">
	.st0{fill:#34B8E4;}
	.st1{fill:#F85C45;}
	.st2{fill:#2A2A2A;}
	.st3{fill:#E588D3;}
	.st4{fill:#CED0D6;}
	.st5{fill:#F2EFE9;}
</style>
<g>
	<path class="st0" d="M25.4,6.8c0,0-2.7,0-3.9,1.2c-1.1,1.3-7.3,9.8-7.7,10.9c-0.5,1.1-1.1,3.4-1.4,5.4s-1.4,8.2-1.5,9
		c0,0.9,0.4,1.9,0.4,1.9s-0.1,2-0.1,2.4s0.4,1.7,2.3,1.9c1.9,0.2,2.6-0.9,2.7-1.2c0.1-0.2,0.4-1.8,0.4-1.8s1.1-1.1,1.3-2.1
		s1.7-7.6,1.7-7.8c0.1-0.1,0.5-0.7,0.5-0.7S19.9,38,20.1,39.2c0.2,1.3,0.5,2.7,0.5,2.7s-0.2,2.8-0.2,3.3c0,0.5,0.4,1.4,1.6,2.7
		s2.8,3.4,4.5,4c0,0,0.5,0.9,3.1,2.3c2.6,1.3,7.1,3.3,10.1,2.8c3-0.5,3.7-1.6,3.7-2.4c0-0.8,0-2.8,0-2.8s0.8-0.5,0.8-1.5
		s-0.2-7-0.2-7s1.9,11.8,2.2,12.5s1,1,1,1s0.8,3,0.9,3.3c0.1,0.3,1,1.4,2.7,1c1.7-0.4,2.1-1.5,2.1-2c0-0.5-0.2-2.9-0.2-2.9
		s0.4-0.4,0.2-1.6c-0.2-1.2-1.8-14.1-2.1-15.8c-0.3-1.8-1.2-4.8-1.6-5.8s-4.6-12.1-5-13c-0.3-0.9-1.5-2.4-1.5-2.4S42,13.6,39.2,11
		S29.4,6.1,25.4,6.8z"/>
	<path class="st1" d="M51.4,41.7c-0.2-1.5-0.4-2.7-0.5-3.2c-0.3-1.8-1.2-4.8-1.6-5.8c-0.1-0.2-0.3-0.8-0.7-1.7
		C46.8,32.9,46.2,40.8,51.4,41.7z"/>
	<path class="st2" d="M29.4,7.8c-1.8,0-2.7,1.1-2.6,3.4c0.2,2.3,1.5,9.5,1.5,9.5s1.4-1.5,3.5-2.3c2-0.8,6-2.2,6.2-3.6
		s-0.9-3-2.7-4.5C33.5,8.7,29.4,7.8,29.4,7.8z"/>
	<path class="st3" d="M23.4,32.9c-0.9-0.4-1.6-0.2-2,0.2c-0.4,0.5-0.6,1.9-0.6,2.5s-0.5,1.9-0.9,2.8c-0.4,1-0.6,2.1,0.7,3.7
		c1.3,1.6,3.4,3.9,6.5,6.2c3.1,2.2,7.1,3.5,8.9,4.1c0,0,0.7-1.2,0.6-2.2s-0.7-1.8-1.3-2.6S34,45.2,34,43.3c0-1.9,0.5-3.7-0.9-4.6
		C31.6,37.8,23.4,32.9,23.4,32.9z"/>
	<path class="st4" d="M20,25.9c0.4-3.9,1.9-11.7,2.3-13c0.4-1.3,1-2.9,0.9-2.9c-0.1,0-1.9,2-2,3.2s0.4,1.7,0.1,2.8
		s-1.9,4.9-1.8,10.6L20,25.9z"/>
	<path class="st4" d="M42.9,39.3c-0.5-1.2-3-4.3-3.6-6.8s-0.9-5.7-0.5-8.6c0.1-0.8,0.1-1.3,0-1.2c-0.1,0.1-1,2-1.2,3s0.8,2,0.9,2.6
		s0,4,0.9,6.5s2.2,9.6,2.3,12.9c0.1,3.3-1,4.8-1.6,5c-0.7,0.2-2.4,0.2-3.2,0c0,0,0.6,0.4,1.4,0.5c0.8,0.1,2,0.3,2.3,0.8
		c0.2,0.4,0.3,1.6,0.1,2.6c2.3-0.6,2.9-1.5,2.9-2.3c0-0.8,0-2.8,0-2.8s0.8-0.5,0.8-1.5c0-0.9-0.1-5.7-0.1-6.8v0
		C44.1,43.3,43.4,40.5,42.9,39.3z"/>
	<path class="st1" d="M34.3,4c0,0,4.7,2.9,6,3.7c1.3,0.8,2.4,4.3,2.3,5.7c0,1.4-3.7,3.4-6,3.9c0.6-1.4,0.5-3.2-0.9-5
		c-1.4-1.8-4.8-3.5-6-3.7s-2.6,0.7-2.9,2.2c0,0-0.5-1.7-0.2-2.9s1.6-2.8,2.6-3.4C30.1,3.8,32.7,3.3,34.3,4z"/>
	<path class="st5" d="M28.5,20c0,0,0.8-1.6,3-2.4c2.1-0.8,5.7-2.7,6.7-3.5c1-0.8,3.3-3.2,2.1-6.4c0,0,2.2,1.1,3.5,3.2
		c1.4,2.1,1.2,5,1.2,5.8c-0.1,0.9-1.3,1.6-1.3,1.6s-1-0.7-1.7-0.6c-0.8,0.2-4,1.2-6.3,1.6c-2.3,0.4-5.5,0.6-6.3,1.1
		c-0.9,0.5-1.2,0.7-1.2,0.7s-0.3-2.2-0.8-3.4c-0.5-1.2-2-4-2.5-6S24.4,7.8,25,6.8c0.6-1,1.2-1.7,2.6-2.5C29,3.5,30.2,3,31.2,3
		c1,0.1,1.6,0,3.1,1c-1.3,0-4.7,0.5-6,2.8c-1.3,2.3-0.9,4.6-0.4,6.5s0.7,2.7,0.6,4S28.5,20,28.5,20z"/>
	<path class="st4" d="M12.6,36.1c-0.1,0,0.2,0.7,0.6,0.9c0.4,0.3,1.2-0.2,1.5,0.1c0.3,0.2,0.3,1.6-0.5,2.4c1.3-0.1,1.9-1,1.9-1.2
		c0.1-0.2,0.4-1.8,0.4-1.8C15.3,36.8,13.5,36.8,12.6,36.1z"/>
	<path class="st4" d="M53,58.9c0-0.5-0.2-2.9-0.2-2.9c-1.2,0.6-3.2,0.9-3.7,0.9c-0.5,0-0.2,0.4,0.5,0.5c0.7,0.1,1.3-0.5,1.7-0.5
		c0.3,0,0.9,2.2,0.6,3.5C52.8,60,53,59.3,53,58.9z"/>
</g>
</svg>
