<?xml version="1.0" encoding="utf-8"?>
<!-- Generator: Adobe Illustrator 28.2.0, SVG Export Plug-In . SVG Version: 6.00 Build 0)  -->
<svg version="1.1" id="Capa_1" xmlns="http://www.w3.org/2000/svg" xmlns:xlink="http://www.w3.org/1999/xlink" x="0px" y="0px"
	 viewBox="0 0 64 64" style="enable-background:new 0 0 64 64;" xml:space="preserve">
<style type="text/css">
	.st0{fill:#2D3B3F;}
	.st1{fill:#3E4F54;}
	.st2{fill:#FF697F;}
	.st3{fill:#FF7D96;}
	.st4{fill:#4A5C60;}
</style>
<g>
	<path class="st0" d="M24,4.5c0.8-2.2,5.1-0.1,10.3,2.6c4.7,2.4,10.5,5.1,7.9,6.9c-2.6,1.7-8.9-1.5-12.7-3.5
		C25.6,8.5,23.2,6.6,24,4.5z"/>
	<path class="st1" d="M24,4.5c0,0-0.4,1.4,1.1,2.4c1.3,0.9,3.5,2.1,5.9,3.2c2.2,1.1,6.3,3.1,8,3.6c0.8,0.2,1.5,0.3,2,0.2
		c1.3-0.2,1.6-1,1.6-1s0.6,2.9,0.8,8c0.1,1.5,0,6.6-0.4,11.1c-0.9,8.3-1.6,20.5-3.4,27.2c-3.3,2.7-6-0.2-6-0.2s-1.9-8.8-2.1-19.1
		c-0.1-8.4-0.5-15.7-1.3-18.1c0,1.6,0.3,8.5-0.2,16.4C29.7,44.9,29.4,53.3,29,54c-2,1.8-5.9,1.2-6-0.9c-1-4.7-2.2-15.9-2.5-25.8
		c-0.2-7.2-0.1-11.7,0.7-15C22.4,7.3,24,4.5,24,4.5z"/>
	<path class="st0" d="M41.3,14.3c0,0-0.1,1.8,0,8.6c0.1,6.7-1.2,18.9-1.9,25.4c-0.8,6.6-0.6,11.6-0.6,11.6s0.9-6.5,1.8-14.3
		c0.9-7.8,1.4-18.9,1.5-23.4C42.1,17.6,41.3,14.3,41.3,14.3z"/>
	<path class="st0" d="M30,20.7c-0.6,0.2-1.2,1.4-1.2,3.3c0,1.4-0.4,13-0.6,17.3c-0.1,2.3-0.1,5.5-0.1,8.1c0,2.4,0.3,4.4,0.3,4.4
		s0.5-1.8,0.3-5.4c-0.1-3.6,0.1-11,0.3-15c0.2-4,0.6-9.3,0.7-10.6C29.8,21.8,30,20.7,30,20.7z"/>
	<path class="st0" d="M28,12.2c0,0-1,3.5-0.7,5.5c0.3,2.2,1.7,2.7,2,2.9c0.2,0.7,1.1,1.2,1.1,1.2l-0.5-1.4c0,0-1.5-0.9-1.7-2.3
		c-0.3-1.4,0.6-5.4,0.6-5.4L28,12.2L28,12.2z"/>
	<path class="st0" d="M38.5,22.9c2.1,2.3,4.9,2.3,4.9,2.3l0.1-1.7c0,0-2.3-0.1-4-1.9c-1.7-1.8-2.1-5-2.1-5l-1.1-0.2
		C36.4,17.1,36.6,20.8,38.5,22.9z"/>
	<path class="st0" d="M22.9,7c0,0,0.2,1.2,1.3,2.4c1.1,1.2,4.2,2.5,5.3,3.3c1.1,0.8,4.8,2.4,6.8,3.1c2,0.7,4.3,0.5,5.1,0.2
		c0.8-0.3,1.6-0.8,1.6-0.8l0,0.6c0,0-0.8,0.5-2,0.8c-1.2,0.3-3.2,0.5-5.5-0.4c-2.3-0.9-4.4-2.3-6.1-3c-1.7-0.7-3.8-2.2-5.4-3.3
		c-1.6-1.1-1.6-2.1-1.6-2.1L22.9,7z"/>
	<path class="st0" d="M20.6,16.6c0,0,1.5-0.2,2.7-2.2c1.2-1.9,2.1-3.9,2.1-3.9L24.5,10c0,0-0.4,1.4-1.5,2.8
		c-1.2,1.6-2.3,2.1-2.3,2.1L20.6,16.6z"/>
	<path class="st2" d="M27.7,9.7c0,0,2.2,1.3,7,3.4c2.2,1,4,1.3,5.8,1.3c1.4,0,2.3-0.6,2.3-0.6l0.2,1.3c0,0-1.3,1.6-5.7,0.8
		c-3.3-0.6-8.6-3.5-8.6-3.5L27.7,9.7z"/>
	<path class="st3" d="M26.1,10.8c2.7,2.1,4,3.5,4.8,5.3c0.8,1.8,2.3,0.2,1.3-1.7c-0.9-1.9-2.6-3.1-4.4-4.6c-2.3-1.9-3.6-2.9-4.3-4
		C23.6,5.3,24,4.5,24,4.5s-1.1,0.1-1.5,1.9C22.1,7.7,22.8,8.3,26.1,10.8z"/>
	<path class="st4" d="M38.3,13.4c0,0-0.5,2.9-0.6,3.5c-0.1,0.5,1,1,1.1,0.3c0.1-1.3,0.5-3.1,0.6-3.5C39.5,13,38.4,12.8,38.3,13.4z"
		/>
	<path class="st4" d="M24.8,6.5c0,0-1.2,2.7-1.4,3.2c-0.2,0.5,0.7,1.2,1,0.5c0.5-1.3,1.2-2.9,1.4-3.3C26.1,6.5,25,6,24.8,6.5z"/>
</g>
</svg>
