<?xml version="1.0" encoding="utf-8"?>
<!-- Generator: Adobe Illustrator 28.2.0, SVG Export Plug-In . SVG Version: 6.00 Build 0)  -->
<svg version="1.1" id="Capa_1" xmlns="http://www.w3.org/2000/svg" xmlns:xlink="http://www.w3.org/1999/xlink" x="0px" y="0px"
	 viewBox="0 0 64 64" style="enable-background:new 0 0 64 64;" xml:space="preserve">
<style type="text/css">
	.st0{opacity:0.1;}
	.st1{fill:#FFFFFF;}
	.st2{fill:#C5CCD0;}
	.st3{fill:#E588D3;}
	.st4{fill:#F85C45;}
	.st5{fill:#2A2A2A;}
	.st6{fill:#34B8E4;}
</style>
<g>
	<path class="st0" d="M32.7,16c0.4-0.2,1-0.3,1.4-0.2l9.2,2.9c0.4,0.1,1,0.4,1.4,0.6l11.6,6.7c0.4,0.2,0.9,0.6,1.1,0.9l4.1,4.6
		c0.3,0.3,0.2,0.7-0.2,0.9l-30,17.2c-0.4,0.2-0.9,0.2-1.3,0L2.7,34c-0.4-0.2-0.4-0.5,0-0.7L32.7,16z"/>
	<g>
		<path class="st1" d="M3.5,30.8l28.8-16.6c0,0,0.2-0.1,0.3-0.1l5.8,0.9l17,9.1l3.8,5.3c0.1,0.1,0.2,0.3,0.2,0.7
			c0.1,1.1-0.2,1.5-0.6,1.7l-29,16.8c-0.3,0.2-0.6,0.2-0.7,0.1L2.9,33.6c-0.3-0.1-0.4-0.5-0.4-1.2C2.4,31.2,3.5,30.8,3.5,30.8z"/>
		<path class="st2" d="M29.8,46l28.8-16.6c0,0,0.8-0.5,0.8,0.7c0.1,1.1-0.2,1.5-0.6,1.7l-29,16.8c-0.7,0.4-1.1,0-1.1-1.1
			C28.7,46.4,29.8,46,29.8,46z"/>
		<path class="st3" d="M37.2,28l-13.5,7.8L20.5,34l12.4-7.2c0,0,1.8-1.2,1.9-1.8l0.7,0.5L37.2,28z"/>
		<path class="st1" d="M29,30.1c-0.4,0.2-0.4,0.6,0,0.9c0.4,0.2,1.1,0.2,1.5,0c0.4-0.2,0.4-0.6,0-0.9C30.1,29.8,29.4,29.8,29,30.1z"
			/>
		<path class="st1" d="M24.5,32.6c-0.4,0.2-0.4,0.6,0,0.9c0.4,0.2,1.1,0.2,1.5,0c0.4-0.2,0.4-0.6,0-0.9
			C25.6,32.3,24.9,32.3,24.5,32.6z"/>
		<path class="st1" d="M33.6,27.4c-0.4,0.2-0.4,0.6,0,0.9c0.4,0.2,1.1,0.2,1.5,0c0.4-0.2,0.4-0.6,0-0.9C34.6,27.2,34,27.2,33.6,27.4
			z"/>
		<path class="st4" d="M38.2,15.1c4.3-2.3,9.8-0.1,12.4,1.4l0.5,0.3c2.6,1.5,6.4,4.7,2.5,7.2c-3.9,2.5-15.3,2-18,1.5
			C34.8,24,33.9,17.4,38.2,15.1z"/>
		<path class="st5" d="M38.2,15.1c4.3-2.3,9.8-0.1,12.4,1.4l0.5,0.3c2.5,1.5,6.2,4.5,2.8,7c-0.5-1-1.8-2.4-5-4.2
			c-8.6-5-11.8-2.2-11.8-2.2s-0.7,0.4-1.7,1.4C35.8,17.3,36.7,15.9,38.2,15.1z"/>
		<polygon class="st3" points="42.2,19.7 48.1,23.2 46.4,24.2 40.4,20.7 		"/>
		<path class="st6" d="M38.2,15.1c-5.8,2.5-10.7,10.7-10.7,10.7c2.6-0.5,8.1-0.3,8.1-0.3C34.8,24,33.9,17.4,38.2,15.1z"/>
		<path class="st6" d="M53.6,24c1.4-0.9,1.8-1.9,1.6-2.9l0.4,2.1c0,0.4-0.1,0.8-0.3,1.1c-1.8,3.8-15.9,8.9-15.9,8.9
			c-1.3-1.1-3.9-7.7-3.9-7.7C38.2,26,49.6,26.5,53.6,24z"/>
	</g>
</g>
</svg>
