<?xml version="1.0" encoding="utf-8"?>
<!-- Generator: Adobe Illustrator 28.2.0, SVG Export Plug-In . SVG Version: 6.00 Build 0)  -->
<svg version="1.1" id="Capa_1" xmlns="http://www.w3.org/2000/svg" xmlns:xlink="http://www.w3.org/1999/xlink" x="0px" y="0px"
	 viewBox="0 0 64 64" style="enable-background:new 0 0 64 64;" xml:space="preserve">
<style type="text/css">
	.st0{opacity:0.2;}
	.st1{fill:#C6C6CA;}
	.st2{opacity:0.21;}
	.st3{fill:#34B8E4;}
	.st4{fill:#E588D3;}
	.st5{fill:#FAC997;}
	.st6{fill:#FCCA97;}
	.st7{fill:#F85C45;}
	.st8{fill:#E8E7EE;}
	.st9{fill:#FFD126;}
	.st10{fill:#48494D;}
	.st11{fill:none;}
</style>
<path class="st0" d="M49.6,21.8c0-0.4,0.2-1.2,0.2-2.1c0-0.7,0-1.4-0.1-1.8c-0.6,0.9-1.3,1.7-2.2,2.1c-2.1,0.8-6.3-2.1-7.9-1
	c-1.6,1.1-3.4,2.9-4.4,3.9c-2.1,2-3.6,4.2-6,5.9c-1.8,1.2-3.4,2.7-4.9,4.2c-1.6,1.5-3.8,2.6-5.5,4c-3.7,2.8-3.8,6.5-3.8,6.5
	c1.7,0.2,3.1,0.4,4.7-0.2c1.2-0.5,2.2-1.5,3.5-2c1-0.4,2-0.4,3.1-0.7c3-0.7,5.9-0.9,8.9-1.7c4.3-1.2,9.6-3.4,12.3-7.3
	c1-1.5,2-3.8,2.4-5.5C50.2,24.7,49.6,23.2,49.6,21.8z"/>
<g>
	<g>
		<path class="st1" d="M48.9,9.4c-0.2-0.6-1.8-1.1-2.2-1C45.7,8.4,45.3,9.7,45,11c0,0-0.2,1.1,0.9,1.6c0.8,0.4,0.8,0.2,1.4-0.4
			C47.9,11.6,49.1,10.1,48.9,9.4z"/>
		<path d="M48.7,9.4C48,8.5,47.5,9.3,47.1,10c-0.6,1.2-0.6,2.4-0.4,2.4c0.2,0,0.5-0.3,0.9-0.8C47.9,11.1,48.9,9.9,48.7,9.4z"/>
		<g>
			<path d="M45.9,11.2L45.3,11c0.3-1.1,1-2.9,1.9-2.6l0.4,0.1l0.3,0.1C47,8.2,46.1,10.4,45.9,11.2z"/>
		</g>
		<g class="st2">
			<path d="M49.3,26.1c-4.4-6.5-10.8-7.6-17.3-5.4c-3.6,1.2-7.1,3-10.6,4.4c-3.4,1.4-6.8,2.7-10.1,4.3c-4.4,2.1-6.5,7.2-7.2,9.8
				c-0.6,2.5,2.5,4.3,3.9,4.8c2.7,1,8.7,1.5,11.7,1.4c8.5-0.5,19.8-9.1,23.7-11.6C46.9,31.3,51.6,29.5,49.3,26.1z"/>
		</g>
		<path class="st3" d="M48.7,21.3c0-2.9-0.2-5.8-1.6-8.5c-1-2-2.5-3.5-4.8-3.7c-2.5-0.1-2.7,1.1-3.9,2.8c-1,1.4-1.9,2.6-3.7,2.8
			c-2.2,0.5-4.1-1.2-6.1-1.4c-3.1-0.4-5.7,4.7-8.3,7.2c-0.1,0-6.8,6.5-10.5,8.3c-2.8,1.5-6.2,4.4-5.9,8.4C4,38.3,5,40.1,6.6,40.8
			c5.6,2.6,11.3,3.1,15.4,2.8c3.7-0.2,8.1-2.1,11.2-4c0.4-0.3,0.8-0.4,1.1-0.8c0.8-1.1,1.2-2.3,2-3.6c1-1.7,1.4-1.9,3.3-1.9
			c3.1,0,6.4-1.9,8.6-4.4C50.2,26.6,48.7,24,48.7,21.3z"/>
		<path class="st4" d="M44.6,9.7c-1.1-0.8-2.5-1-3.8-0.5c-3.5,1.3-3.5,6.5-8,5.3c-0.9-0.2-1.7-0.5-2.5-0.9c-0.5-0.3-1.3-0.8-1.8-0.9
			c-0.6-0.1-1.9,0.9-3.1,2c-0.9,0.9-1.8,1.8-2,2.2c-1.6,3.5,5.4,4.3,8.1,3.8c2.7-0.5,4-3.2,6.6-2.7c1.5,0.3,3,2.3,4.6,2
			c2.9-0.8,2.5-4.3,2.9-6.5C46,11.9,46.1,10.6,44.6,9.7z"/>
		<path class="st5" d="M44.1,11.2c-0.4,0.5-1,0.7-1.7,0.7c-1-0.1-1.1-0.5-1.8,0.4c-0.8,1.2-2.2,2.4-3.6,2.9
			c-1.4,0.4-2.2,0.5-3.5,1.4c-1.1,0.8-2.9,1.7-3.5,2.9c0.1,0.1,0.2,0.1,0.3,0.1l0.2-0.1c1.2,0.1,3-1.8,4.1-2.4
			c1.5-0.9,3.6-0.7,5.2,0.1C41,17.9,42,20,43,17.7c0.6-1.5,0.3-3.3,0.7-4.9C43.8,12.3,44.1,11.7,44.1,11.2z"/>
		<path class="st6" d="M17.4,35.7c-0.9,0.8-4.2,4.5-3.7,5.6c4.3-6.6,13.4-6.6,15.3-4.1c0.7,0.9,0.8,0.8,1.4-0.1
			c1.3-1.8-0.7-3-2.2-3.5c-2.4-0.7-4.2,0.1-6.5,0.8c-1.2,0.4-4.6,0.5-5,1.9"/>
		<path class="st7" d="M16.8,34.7c-0.4-0.6-1-0.7-1.7-0.7c-0.9,0-1.7,0.3-2.5,0.5c-0.5,0.2-1,0.3-1.5,0.4c-0.2,0-0.4,0-0.5,0
			c-0.7,0-1.3-0.3-2-0.7c-0.3-0.2-0.5-0.3-0.8-0.5c0,0-0.1-0.1-0.2-0.1c-0.5-0.3-1.3-0.7-1.4-1.4c-0.1-0.4,0.1-1,0.8-1.5l0.1-0.1
			c0,0-1.3,0.8-2.3,2.3c-0.9,1.4-1.1,3.3-1.1,3.3l0,0l3.2,4l6.9,1.1l0.1,0l0.2-0.2C15.4,40,17.9,36.4,16.8,34.7z"/>
		<path class="st8" d="M33.5,33.8c-0.1-0.1-0.3-0.3-0.4-0.4c-1.1-1-2.7-1.5-4.9-1.5c-1.9,0-4.2,0.4-6.7,1.2
			c-1.6,0.5-3.2,1.1-4.9,1.9c0.5,0.2,0.3,1.5,0.2,2.2c2.9-1.8,5.7-2.7,8.2-2.7c1.5,0,2.6,0.3,3.5,0.7c0.5,0.2,0.9,0.4,1.2,0.7
			c0.3,0.2,0.5,0.4,0.7,0.5c0.2,0.1,0.3,0.2,0.4,0.3c0.1,0.1,0.3,0.1,0.6,0.1h0c0.8,0,2.2-0.5,2.6-1.1C34.5,34.7,34,34.3,33.5,33.8z
			"/>
		<path class="st8" d="M20.5,30.8c0.7,0.8,0.9,1.4,0.9,2.4c0.7,0.1,2.2-0.3,2.9-0.8c-0.7-0.9-1.1-1.5-1.4-2.5
			c-0.5,0-0.9,0.5-1.3,0.7c-0.5,0.2-0.9,0.2-1.4,0.2"/>
		<g>
			<path d="M16.9,35c2.3-1,4.6-1.8,7.1-2.4c1.9-0.4,3.9-0.7,5.9-0.4c0.7,0.1,1.5,0.3,2.1,0.7c0.3,0.2,0.6,0.4,0.8,0.6
				c0.4,0.3,1,0.8,1,1.3c0,0.5-0.6,0.9-0.9,1.1c-0.4,0.2-0.9,0.4-1.3,0.5c-0.4,0.1-0.8,0.1-1.1-0.2c-1.3-1-2.7-1.7-4.4-1.9
				c-3.2-0.5-6.5,0.8-9.3,2.4l-0.1,0.4c3-1.8,6.6-3.2,10.1-2.5c0.9,0.2,1.8,0.6,2.6,1.1c0.4,0.2,0.7,0.6,1.2,0.8
				c0.6,0.3,1.4,0,2-0.2c0.6-0.3,1.4-0.7,1.4-1.5c0-0.3-0.3-0.6-0.5-0.9c-0.3-0.3-0.6-0.6-0.9-0.8c-0.5-0.4-1.2-0.7-1.8-0.9
				c-1.7-0.5-3.5-0.4-5.2-0.2c-2.3,0.3-4.6,1-6.8,1.9c-0.7,0.3-1.4,0.6-2.1,0.9L16.9,35L16.9,35z"/>
		</g>
		<g>
			<path class="st8" d="M6.5,41.1c5.6,2.6,11.3,3.1,15.4,2.8c3.7-0.2,8.1-2.6,11.5-4.7c2.1-1.3,2.2-1.8,3-3.4c1-1.7,1.2-2.1,3.2-2.1
				c3.1,0,5.7-1.9,8.7-3.8c2-1.5,1.2-5.2,1.1-7.9c0-0.1-0.2-0.5-0.6-0.6c0,1.1-0.1,2.2-0.9,3.2c-0.3,0.4-0.6,0.6-1.1,0.9
				c-1.1,0.7-2.4,1.3-3.5,1.7c-2.4,0.7-4.7,1.2-6.5,2.9c-0.5,0.5-0.9,0.9-1.3,1.4c-0.8,1-1.6,2.2-3.4,3.6c-2.5,2.1-5.1,3.4-7.7,4.2
				c-3.3,1-6.5,1.3-9.2,1.2c-4.4-0.2-7.6-1.1-7.6-1.1C7,39,6.9,38.4,6.7,37.7c-0.2-0.8-0.4-0.8-1.1-1.3C5,36,4.6,35.5,4,36.1
				c-0.4,0.3-0.2,0.7-0.2,1.2c0,0.1,0,0.1,0,0.2C4,38.6,4.9,40.3,6.5,41.1z"/>
		</g>
		<g>
			<path class="st9" d="M39.2,31.8c-1,0.9-1.6,1.6-2.1,2.7c0.5-0.5,0.7-0.5,1.4-0.6c1-0.2,1.7,0,2.5-0.6c1-0.7,4.3-2.4,3.5-3.3
				C43.6,29.3,40.4,30.7,39.2,31.8z"/>
		</g>
		<path class="st10" d="M33.4,39.2c-3.4,2.1-7.8,4.4-11.5,4.7c-3.8,0.3-12.1-0.7-14.8-2.7c-0.8-0.6-0.7-2.7-0.9-3.3
			c-0.2-0.8-0.4-0.8-1.1-1.3c-0.6-0.4-0.9-0.9-1.2-0.4c-0.2,0.5-0.2,1.2-0.2,1.7c0,0.1,0,0.1,0,0.2c0.1,1.1,1.1,2.9,2.7,3.6
			c5.6,2.6,11.3,3.1,15.4,2.8c3.7-0.2,8.1-2.6,11.5-4.7c1.1-0.7,1.6-1.3,1.9-1.9C34.8,38.2,34.3,38.6,33.4,39.2z"/>
		<path class="st10" d="M48.2,29.8c-3,2-5.6,3.8-8.7,3.8c-1.4,0-1.9,0.2-2.4,0.9c0.6-0.4,1.2-0.4,2.3-0.4c3.1,0,5.7-1.9,8.7-3.8
			c0.8-0.6,1.1-1.5,1.3-2.6C49.2,28.5,48.8,29.3,48.2,29.8z"/>
		<path d="M15.1,40.2c0.3-0.4,0.6-0.8,0.8-1.2c0.2-0.4,0.5-0.8,0.7-1.3c0.3-0.7,0.6-1.5,0.5-2.3c-0.1-0.6-0.4-1-0.8-1.2
			c-0.8-0.4-1.9-0.2-2.8,0c-0.8,0.2-1.6,0.5-2.4,0.7c-1.1,0.2-2-0.4-2.9-0.9c-0.5-0.3-1.1-0.5-1.6-1c-0.8-0.7-0.3-1.6,0.4-2.2
			c0.1-0.1-0.7,0.5-0.9,1C6,32,6,32.3,6,32.5c0.1,0.5,0.6,0.9,1.1,1.2c0.7,0.4,1.4,0.8,2,1.2c0.8,0.4,1.5,0.5,2.4,0.3
			c1.5-0.3,3.6-1.6,5-0.3c0.6,0.6,0.3,1.7,0,2.5c-0.4,1-1,2-1.7,2.9C14.8,40.2,15,40.2,15.1,40.2z"/>
		<path class="st8" d="M46.2,11.3c0.1,0.3,0.2,0.8,0.3,1.5c0.1,0.9,0.1,2.1,0,3.4c-0.1,1.4-0.6,3-1.4,4.3c-0.1,0.1-0.2,0.3-0.3,0.4
			c-0.2,0.2-0.4,0.5-0.8,0.7c-1.2,0.8-3.5,1.4-6.2,0.8c-0.6-0.1-1.2-0.3-1.8-0.6c-1-0.5-1-1.2-2.2-0.8c-1.8,0.5-3.4,3.5-3.4,3.5
			c1,1.6,3.7,1.5,5.4,1.8c1.6,0.2,3.6,0.1,5.2,0.5c0.8,0.3,1.2,0.8,2,0.8c1-0.1,3.4-0.8,3.7-2.2C48,19.9,48.4,13.6,46.2,11.3z"/>
		<g class="st2">
			<g>
				<path d="M42.1,27.1c-0.1-0.1-0.3-0.2-0.5-0.3c-0.5-0.3-1-0.4-1.5-0.5c-1.1-0.2-2.3-0.2-3.4-0.3c-0.9,0-1.8-0.2-2.7-0.3
					c-0.9-0.1-1.8-0.3-2.6-0.8c-0.2-0.1-0.3-0.2-0.5-0.4c0,0-0.2-0.3-0.4-0.5c0,0,0,0.1-0.1,0.1c0,0,0,0.1,0,0.1
					c0.2,0.3,0.4,0.5,0.6,0.7c0.4,0.3,0.9,0.5,1.4,0.7c1,0.3,2.2,0.3,3.1,0.4c1.3,0.1,2.6,0.1,3.9,0.3c0.3,0,0.7,0.1,1,0.2
					c0.4,0.1,0.7,0.2,1.1,0.4c0.1,0,0.1,0.1,0.2,0.1L42.1,27.1z"/>
				<g>
					<path class="st11" d="M46,11.4c0.2,0.2,0.3,0.3,0.4,0.5c-0.1-0.2-0.1-0.4-0.2-0.7C46.1,11.3,46,11.4,46,11.4z"/>
					<g>
						<path class="st11" d="M46,11.4c0.2,0.2,0.3,0.3,0.4,0.5c-0.1-0.2-0.1-0.4-0.2-0.7C46.1,11.3,46,11.4,46,11.4z"/>
						<g>
							<path class="st11" d="M46.2,11.3c-0.1,0-0.2,0.1-0.2,0.1c0,0,0,0.1,0,0.1c0.1,0.1,0.3,0.3,0.4,0.4c0-0.2-0.1-0.4-0.1-0.6
								C46.2,11.4,46.2,11.3,46.2,11.3z"/>
							<path d="M35.3,21.6c0,0,0.1,0.1,0.2,0.2c0.4,0.3,1,0.5,1.5,0.7c1.8,0.6,3.9,0.7,5.7,0.1c0.6-0.2,1.3-0.5,1.8-0.9
								c0.6-0.4,0.9-1.1,1.2-1.7c0.8-1.6,1.1-3.4,1.2-5.1c0-0.9,0-2.2-0.3-3.1c-0.1-0.1-0.2-0.4-0.4-0.5c0.3,1,0.4,2.2,0.4,3.3
								c0,0.3,0,0.6,0,0.9c-0.1,1-0.2,2-0.5,3c-0.3,0.9-0.7,2-1.4,2.7c-0.5,0.5-1.2,0.9-1.9,1.1c-1,0.3-2,0.4-3,0.4
								c-1.3-0.1-2.6-0.3-3.7-0.9c-0.2-0.1-0.4-0.2-0.5-0.3L35.3,21.6z"/>
							<path d="M46.2,11.3c0.1,0.2,0.2,0.5,0.2,0.7c1,1.5,1.1,3.6,1.1,5.3c0,2.7-0.4,5.4-1,8l0.3-0.2c0.6-2.6,1-5.3,0.9-7.9
								c0-0.7,0-1.5-0.1-2.2c-0.1-0.4-0.1-0.7-0.2-1.1c-0.1-0.4-0.2-0.9-0.4-1.3c-0.1-0.3-0.3-0.6-0.5-0.9
								C46.4,11.5,46.3,11.4,46.2,11.3z"/>
						</g>
					</g>
				</g>
			</g>
		</g>
		<path class="st8" d="M39.3,18.1c-0.7-0.7-1.9-1.1-3-1.1c-0.5,0-1,0.1-1.4,0.3c-0.5,0.1-1.7,1.2-2.8,2.1c-0.6,0.5-1.2,1-1.4,1.2
			c0,0,0,0-0.1,0h0c-0.4,0-1.7-0.8-3-1.5c-1.7-1-3.5-2.1-4.4-2.1c-0.2,0-0.4,0.1-0.5,0.2l-0.3,0.4c-1.6,2.1-2.3,3-5.7,5.5
			c-2.4,1.8-3.5,2.7-4,3.3c-0.6,0.6-0.4,0.9-0.2,1.3c0.2,0.4,0.7,0.7,1.2,0.9c0.2,0.1,1.4,0.5,2.2,1.2c0.2,0.2,0.4,0.5,0.6,0.7
			c0.2,0.3,0.4,0.6,0.7,0.8c0.2,0.1,0.3,0.2,0.5,0.3c0.2,0.1,0.5,0.1,1,0.1c0,0,0,0,0,0c1.4,0,3-0.6,4.1-1.1
			c1.2-0.5,3.6-1.6,5.6-3.1c0.9-0.7,1.6-1.5,2.4-2.3c0.8-0.8,1.6-1.7,2.5-2.4c0.3-0.2,0.5-0.4,0.8-0.6c1.8-1.3,3.9-2.7,5.1-4
			L39.3,18.1L39.3,18.1z"/>
		<g>
			<path d="M12.6,27.8L12.6,27.8c0.3,0.5,0.9,0.7,1.5,1c0.2,0.1,0.4,0.2,0.6,0.2c0.5,0.3,1.1,0.6,1.5,1c0.3,0.4,0.6,0.8,0.9,1.2
				c0.6,0.7,1.6,0.7,2.5,0.6c1-0.1,2-0.5,2.9-0.9c2.1-0.9,4.1-1.9,6-3.3c0.7-0.5,1.3-1.1,1.8-1.7c0.3-0.4,0.7-0.7,1-1.1
				c0.7-0.7,1.5-1.6,2.3-2.1c0.6-0.4,1.2-0.8,1.9-1.3c1.4-1,2.9-2.1,3.9-3.3L39.2,18c-1.4,1.7-3.5,3-5.3,4.2
				c-1.9,1.3-3.4,3.2-5.1,4.8c-1.8,1.6-4,2.6-6.1,3.6c-1,0.4-2,0.8-3,1c-0.5,0.1-1.1,0.1-1.6,0c-0.6-0.1-0.9-0.6-1.2-1.1
				c-0.5-0.7-1.2-1.2-2-1.6c-0.6-0.3-1.9-0.6-2.3-1.2c0,0-0.2-0.3-0.2-0.5C12.4,27.5,12.6,27.8,12.6,27.8z"/>
		</g>
		<path d="M32.3,21.8c0,0.3-0.3,0.6-0.6,0.6c-0.3,0-0.6-0.3-0.6-0.6c0-0.3,0.3-0.6,0.6-0.6C32,21.2,32.3,21.4,32.3,21.8z"/>
		<path d="M35,18.6c0,0.3-0.3,0.6-0.6,0.6c-0.3,0-0.6-0.3-0.6-0.6c0-0.3,0.3-0.6,0.6-0.6C34.8,18,35,18.3,35,18.6z"/>
		<path d="M30.3,20.7c-4.1-0.7-6.9-3.3-7.3-2.5c-2,3.8-6.9,6-8.2,7.3c-1.3,1.3,2.1,2.7,3.3,2.9c0.8,0.2,2.1-0.2,2.8-0.5
			C23.6,26.8,30.7,21.6,30.3,20.7z"/>
		<path class="st8" d="M34.2,15.6c-0.9-1.3-3.4-2.2-4.8-2.1c-3,0.2-5.4,4.8-5.4,4.8c-1.6,2.5,1.8,6.5,6.2,3
			C31.9,20.3,35.4,17.2,34.2,15.6z"/>
		<path d="M23.9,17.8c0,0,0.4,1.4,1.7,2.4c1.3,0.9,4.7,0.5,4.7,0.5l0.7,1.1l-5.6-0.5l-2-3.6L23.9,17.8z"/>
		<g>
			<path d="M34.2,15.6c-0.9-1.3-3.4-2.2-4.8-2.1c-0.2,0-0.5,0.1-0.7,0.1c1.5,0,3.7,0.9,4.6,2.1c1,1.4-1.6,4-3.4,5.3
				c0.1,0.1,0.3,0.2,0.4,0.3C32,20.3,35.4,17.2,34.2,15.6z"/>
		</g>
		<path class="st8" d="M30.9,21.3c-0.5,0-4-0.1-4.5-0.2c-0.6-0.1-4-0.5-4.3-0.4c0,0-0.1,0.5,0.3,0.8c0.2,0.1,2.6,0.5,3.1,0.6
			c2.9,0.4,5.5,0.3,5.9,0.2c0.4-0.1,0.8-0.3,0.6-0.8C31.8,21.1,31.3,21.2,30.9,21.3z"/>
		<g>
			<path d="M32,21.6c-0.1-0.1-0.2-0.2-0.3-0.3c0.1,0.4-0.3,0.7-0.6,0.7c-0.5,0.1-3,0.2-5.9-0.2c-0.3,0-1.5-0.2-2.3-0.4
				c-0.3-0.1-0.5-0.7-0.6-0.7c-0.2,0-0.5,0.1-0.6,0c0,0.1,0.5,0.7,0.6,0.8c0.2,0.1,2.6,0.5,3.1,0.6c2.9,0.4,5.5,0.3,5.9,0.2
				C31.8,22.3,32.2,22,32,21.6z"/>
		</g>
		<path class="st8" d="M22.7,21.6c-0.3-0.5-1.2-2.3-1.4-2.4c0,0-0.6-0.1-0.8,0.3c-0.1,0.2-0.2,0.6,0.2,1.1c2.1,3.1,3.2,6.2,3.4,6.4
			c0.4,0.2,0.8,0.1,0.9-0.2C25.1,25.6,23.3,22.6,22.7,21.6z"/>
		<g>
			<path d="M23.7,25.5c-0.4-0.5-0.9-2.2-3-5.4c-0.1-0.2-0.2-0.3-0.2-0.4c-0.1,0.2-0.1,0.6,0.2,1c2.1,3.1,3.2,6.2,3.4,6.4
				c0.4,0.2,0.8,0.1,0.9-0.2c0-0.1-0.1-0.9-0.2-1.1C24.7,26,24,25.9,23.7,25.5z"/>
		</g>
		<g>
			<path class="st8" d="M28.1,24.3c-0.2-0.4-2.4-3.2-3.2-4.4c-0.8-1.2-1.1-1.9-1.3-2.5c-0.2-0.6-0.1-0.7,0-0.8c0,0-0.6-0.3-1,0.1
				c-0.4,0.4-0.3,0.8-0.2,1.3c0.1,0.5,0.4,0.9,0.6,1.3c0.5,0.8,3.5,5.4,4.4,5.8C28,25.2,28.4,24.7,28.1,24.3z"/>
		</g>
		<g>
			<path d="M28.1,24.3c-0.2-0.4-2.4-3.2-3.2-4.4c-0.8-1.2-1.1-1.9-1.3-2.5c-0.2-0.6-0.1-0.6,0-0.8c0,0-0.3-0.2-0.6-0.1
				c0,0.2-0.1,0.3,0.1,0.8c0.2,0.6,0.5,1.3,1.3,2.5c0.6,0.9,1.4,2,2.2,3c0.3,0.4,0,0.7-0.7,0.5c0.2,0.3,1.8,1.6,1.5,1.6
				c0.1,0,0.1,0.1,0.2,0.1C28,25.2,28.4,24.7,28.1,24.3z"/>
		</g>
		<g>
			<path class="st8" d="M34.5,18.1c-2.1-0.1-4,0.1-5.3,0c-2-0.2-3.1-0.8-3.9-0.8c-1,0-1.6,0-1.7,0.1c0.1,0.3,0.2,0.7,0.3,0.9
				c0,0,2.6,0.8,5.2,1.1c2.3,0.2,4.6-0.1,4.9-0.1c0.4,0,0.7-0.2,0.8-0.4C34.9,18.5,34.7,18.1,34.5,18.1z"/>
			<g>
				<path d="M34.7,18.2c0,0,0,0.1,0,0.1c0,0.2-0.1,0.4-0.8,0.5c-0.3,0-2.4,0.2-4.6,0c-2.7-0.3-5.6-1.1-5.6-1.1c0,0,0-0.1-0.1-0.1
					c0.1,0.2,0.2,0.4,0.2,0.5c0,0,2.7,0.8,5.3,1.1c2.2,0.2,4.5-0.1,4.8-0.1c0.5,0,0.7-0.2,0.8-0.4C34.9,18.5,34.8,18.3,34.7,18.2z"
					/>
			</g>
		</g>
		<g>
			<path class="st8" d="M28.3,17.6c-0.7-1.1-1.4-2.2-1.8-2.8c-0.3-0.5-0.3-0.7-0.5-1c-0.4-0.4-1-0.1-1.1,0.3
				c-0.1,0.6,2.3,4.1,3.2,5.1c0.9,1,2.3,2.4,3.2,3c0.4,0.3,0.9-0.2,0.7-0.6C32,21.2,29.3,19.1,28.3,17.6z"/>
			<g>
				<path d="M32.1,21.5c-0.1,0.2-0.4,0.4-0.7,0.2c-0.9-0.6-2.4-2-3.2-3c-0.8-0.9-2.8-3.7-3.1-4.8c0,0,0,0.1-0.1,0.1
					c-0.1,0.6,2.3,4.1,3.2,5.1c0.9,1,2.3,2.4,3.2,3C31.8,22.5,32.2,22,32.1,21.5C32.1,21.6,32.1,21.6,32.1,21.5z"/>
			</g>
		</g>
		<path d="M25.3,26.8c0,0.3-0.3,0.6-0.6,0.6c-0.3,0-0.6-0.3-0.6-0.6c0-0.3,0.3-0.6,0.6-0.6C25,26.2,25.3,26.4,25.3,26.8z"/>
		<path d="M28.4,24.6c0,0.3-0.3,0.6-0.6,0.6c-0.3,0-0.6-0.3-0.6-0.6c0-0.3,0.3-0.6,0.6-0.6C28.1,24,28.4,24.3,28.4,24.6z"/>
		<path class="st8" d="M20.2,26.5c-0.3-0.9-0.5-1.8-0.8-2.5c-0.2-0.7-0.6-1.9-0.6-2.2c-0.6-0.4-1.5,0-1.1,1.2
			c0.3,1.1,0.9,2.3,1.2,3.4c0.2,0.5,0.5,1.4,0.7,1.6c0.3,0.3,0.9,0.7,1,0.2C20.7,27.8,20.3,26.8,20.2,26.5z"/>
		<g>
			<path d="M20.2,26.5c-0.3-0.9-0.5-1.8-0.8-2.5c-0.2-0.7-0.6-1.9-0.6-2.2c-0.1,0-0.2-0.1-0.2-0.1c0,0-0.1,0,0,0.1
				c0.1,0.5,0.4,1.3,0.5,1.8c0.3,0.7,0.5,1.6,0.8,2.5c0.1,0.4,0.3,0.8,0.3,1.1c0,0.1-1.1-0.8-1.3-0.8c0.1,0.1,0.7,1.7,0.7,1.7
				c0.3,0.3,0.9,0.7,1,0.2C20.7,27.8,20.3,26.8,20.2,26.5z"/>
		</g>
		<path class="st8" d="M24.7,26.1c-0.4-0.3-2.5-0.7-2.9-0.8c-2.1-0.4-4.1-0.5-5.9-0.4c0,0,1,1,1.8,1.1c1.5,0.1,4.1,0.6,6.6,1.2
			C25,27.4,25.3,26.5,24.7,26.1z"/>
		<g>
			<path d="M24.8,26.2c0.1,0.4-0.2,0.8-0.8,0.7c-1.9-0.6-3.7-0.9-5.2-1.1c-0.4,0-2.1-0.8-2.5-0.9c0,0-0.4,0-0.5,0c0,0,1,1,1.8,1.1
				c1.5,0.1,4.1,0.6,6.6,1.2C25,27.4,25.3,26.6,24.8,26.2z"/>
		</g>
		<path class="st8" d="M23.4,22.7c-1.7-0.2-3.8-0.3-4.4-0.2c0,0.1,0.3,0.9,0.3,0.9c0.1,0,3.1,0,5.8,0.8c0.5,0.1,2.2,0.8,2.5,0.9
			c0.5,0.1,0.8-0.4,0.6-0.7C28,23.8,24.6,22.8,23.4,22.7z"/>
		<g>
			<path d="M28.2,24.4c0,0-0.1-0.1-0.1-0.1c0,0.3-0.3,0.6-0.7,0.5c-0.4-0.1-2.1-0.7-2.5-0.9c-2.6-0.8-5.4-0.8-5.7-0.8
				c0.1,0.2,0.1,0.3,0.1,0.3c0.1,0,3.1,0,5.8,0.8c0.5,0.1,2.2,0.8,2.5,0.9C28,25.2,28.3,24.7,28.2,24.4z"/>
		</g>
		<path d="M21.3,28.8c0,0.3-0.3,0.6-0.6,0.6c-0.3,0-0.6-0.3-0.6-0.6c0-0.3,0.3-0.6,0.6-0.6C21,28.2,21.3,28.5,21.3,28.8z"/>
		<path class="st8" d="M20.3,27.6c-0.9-1-2.1-1.9-3.2-2.4c-0.5-0.2-1.8-0.8-2.8-0.2c-0.3,0.3-0.6,0.4-0.5,0.8
			c0.9-0.5,4.9,2.2,5.8,2.9c0.3,0.2,1,0.8,1.4,0.6C21.6,28.8,20.6,27.9,20.3,27.6z"/>
		<g>
			<path d="M21,28.5c0,0.1-0.1,0.2-0.2,0.2c-0.4,0.2-1.1-0.4-1.4-0.6c-0.7-0.5-3.3-2.3-4.9-2.8c0,0-0.4-0.2,0-0.6
				c-0.3,0.1-0.5,0.3-0.7,0.4c-0.2,0.2-0.2,0.3-0.2,0.5c0.9-0.5,4.9,2.2,5.8,2.9c0.3,0.2,1,0.8,1.4,0.6C21.2,29,21.2,28.7,21,28.5z"
				/>
		</g>
		<path d="M25.6,23.2c0,0,0-0.4,0.3-1c0.3-0.6,0.9-1,0.9-1l-0.9,0.1l-0.7,1.9L25.6,23.2z"/>
		<path class="st8" d="M26.8,21.1c-0.3-0.2-0.5-0.1-0.8-0.3c-0.2-0.1-0.6-0.6-0.8-0.6c-0.3,0-0.7,0.5-0.9,0.7
			c-0.1,0.2-0.8,1.4-1,1.7c0.4,0.1,0.6,0.2,1,0.3c0.4,0.1,1,0.2,1,0.2C25.5,21.7,26.4,21.2,26.8,21.1z"/>
		<polygon points="25.4,23 23.4,22.6 23.4,22.7 25.4,23.1 		"/>
		<g>
			<path d="M3.9,35.9c0-0.1,0.1-0.1,0.1-0.2c0.5-0.5,1.3,0.3,1.7,0.6C6,36.6,6.4,36.7,6.5,37c0.2,0.4,0.2,0.9,0.4,1.3
				c0.2,0.6,0.7,0.8,1.3,1c2.1,0.6,4.2,0.9,6.3,1c7.6,0.5,15.6-2.1,20.4-8.3c0.9-1.2,1.8-2.3,3.1-3.1c1.6-1,3.5-1.4,5.2-2
				c1.5-0.6,3-1.1,4.2-2.1c1.5-1.3,1.3-4.2,1.3-4.4c0,1.1-0.1,2.2-0.6,3.2c-0.5,1-1.6,1.6-2.5,2c-2,1-4.1,1.5-6.1,2.3
				c-1,0.4-1.9,0.9-2.7,1.6c-0.6,0.5-1.1,1.1-1.6,1.7c-0.6,0.7-1.1,1.4-1.7,2.1c-0.8,0.9-1.8,1.6-2.7,2.4C24.9,40,17.5,41,10.6,39.7
				c-1-0.2-2-0.4-2.9-0.7c-0.7-0.2-0.7-1.2-0.9-1.8c-0.2-0.5-0.6-0.7-1-1c-0.4-0.3-1.2-1.1-1.7-0.7c0,0-0.1,0.1-0.1,0.2L3.9,35.9z"
				/>
		</g>
	</g>
	<g>
		<path class="st1" d="M60.2,17.2c-0.2-0.6-1.8-1.1-2.2-1c-0.9,0.1-1.4,1.4-1.6,2.6c0,0-0.2,1.1,0.9,1.6c0.8,0.4,0.8,0.2,1.4-0.4
			C59.2,19.5,60.5,17.9,60.2,17.2z"/>
		<path d="M60,17.3c-0.6-0.9-1.2-0.1-1.5,0.6c-0.6,1.2-0.6,2.4-0.4,2.4c0.2,0,0.5-0.3,0.9-0.8C59.3,19,60.3,17.7,60,17.3z"/>
		<g>
			<path d="M57.3,19l-0.6-0.2c0.3-1.1,1-2.9,1.9-2.6l0.4,0.1l0.3,0.1C58.4,16.1,57.5,18.3,57.3,19z"/>
		</g>
		<g class="st2">
			<path d="M60.6,34c-4.4-6.5-10.8-7.6-17.3-5.4c-3.6,1.2-7.1,3-10.6,4.4c-3.4,1.4-6.8,2.7-10.1,4.3c-4.4,2.1-6.5,7.2-7.2,9.8
				c-0.6,2.5,2.5,4.3,3.9,4.8c2.7,1,8.7,1.5,11.7,1.4c8.5-0.5,19.8-9.1,23.7-11.6C58.3,39.2,62.9,37.3,60.6,34z"/>
		</g>
		<path class="st3" d="M60.1,29.2c0-2.9-0.2-5.8-1.6-8.5c-1-2-2.5-3.5-4.8-3.7c-2.5-0.1-2.7,1.1-3.9,2.8c-1,1.4-1.9,2.6-3.7,2.8
			c-2.2,0.5-4.1-1.2-6.1-1.4c-3.1-0.4-5.7,4.7-8.3,7.2c-0.1,0-6.8,6.5-10.5,8.3c-2.8,1.5-6.2,4.4-5.9,8.4c0.1,1.1,1.1,2.9,2.7,3.6
			c5.6,2.6,11.3,3.1,15.4,2.8c3.7-0.2,8.1-2.1,11.2-4c0.4-0.3,0.8-0.4,1.1-0.8c0.8-1.1,1.2-2.3,2-3.6c1-1.7,1.4-1.9,3.3-1.9
			c3.1,0,6.4-1.9,8.6-4.4C61.5,34.5,60.1,31.9,60.1,29.2z M53,35.8c0-0.7,2.1-1.4,1.4-2.1c-4.9-2.8-10.5-3.5-14-1.4
			c-3.5,1.4-10.5,4.9-5.6,7.7C41.1,44.1,48.1,42.7,53,35.8c-4.9,7-11.9,8.4-18.2,4.2c-4.9-2.8,2.1-6.3,5.6-7.7
			c3.5-2.1,9.1-1.4,14,1.4C55.1,34.3,53,35.1,53,35.8z"/>
		<path class="st4" d="M56,17.5c-1.1-0.8-2.5-1-3.8-0.5c-3.5,1.3-3.5,6.5-8,5.3c-0.9-0.2-1.7-0.5-2.5-0.9c-0.5-0.3-1.3-0.8-1.8-0.9
			c-0.6-0.1-1.9,0.9-3.1,2c-0.9,0.9-1.8,1.8-2,2.2c-1.6,3.5,5.4,4.3,8.1,3.8c2.7-0.5,4-3.2,6.6-2.7c1.5,0.3,3,2.3,4.6,2
			c2.9-0.8,2.5-4.3,2.9-6.5C57.3,19.7,57.4,18.5,56,17.5z"/>
		<path class="st5" d="M55.4,19c-0.4,0.5-1,0.7-1.7,0.7c-1-0.1-1.1-0.5-1.8,0.4c-0.8,1.2-2.2,2.4-3.6,2.9c-1.4,0.4-2.2,0.5-3.5,1.4
			c-1.1,0.8-2.9,1.7-3.5,2.9c0.1,0.1,0.2,0.1,0.3,0.1l0.2-0.1c1.2,0.1,3-1.8,4.1-2.4c1.5-0.9,3.6-0.7,5.2,0.1
			c1.3,0.7,2.3,2.9,3.3,0.6c0.6-1.5,0.3-3.3,0.7-4.9C55.2,20.2,55.5,19.6,55.4,19z"/>
		<path class="st6" d="M28.8,43.6c-0.9,0.8-4.2,4.5-3.7,5.6c4.3-6.6,13.4-6.6,15.3-4.1c0.7,0.9,0.8,0.8,1.4-0.1
			c1.3-1.8-0.7-3-2.2-3.5c-2.4-0.7-4.2,0.1-6.5,0.8c-1.2,0.4-4.6,0.5-5,1.9"/>
		<path class="st7" d="M28.1,42.6c-0.4-0.6-1-0.7-1.7-0.7c-0.9,0-1.7,0.3-2.5,0.5c-0.5,0.2-1,0.3-1.5,0.4c-0.2,0-0.4,0-0.5,0
			c-0.7,0-1.3-0.3-2-0.7c-0.3-0.2-0.5-0.3-0.8-0.5c0,0-0.1-0.1-0.2-0.1c-0.5-0.3-1.3-0.7-1.4-1.4c-0.1-0.4,0.1-1,0.8-1.5l0.1-0.1
			c0,0-1.3,0.8-2.3,2.3c-0.9,1.4-1.1,3.3-1.1,3.3l0,0l3.2,4l6.9,1.1l0.1,0l0.2-0.2C26.7,47.9,29.3,44.2,28.1,42.6z"/>
		<path class="st8" d="M44.8,41.6c-0.1-0.1-0.3-0.3-0.4-0.4c-1.1-1-2.7-1.5-4.9-1.5c-1.9,0-4.2,0.4-6.7,1.2
			c-1.6,0.5-3.2,1.1-4.9,1.9c0.2,0.7,0.3,1.5,0.2,2.2c2.9-1.8,5.7-2.7,8.1-2.7c1.5,0,2.6,0.3,3.5,0.7c0.5,0.2,0.9,0.4,1.2,0.7
			c0.3,0.2,0.5,0.4,0.7,0.5c0.2,0.1,0.3,0.2,0.4,0.3c0.1,0.1,0.3,0.1,0.6,0.1c0,0,0,0,0,0c0.8,0,2.2-0.5,2.6-1.1
			C45.9,42.6,45.4,42.1,44.8,41.6z"/>
		<path class="st8" d="M31.9,38.7c0.7,0.8,0.9,1.4,0.9,2.4c0.7,0.1,2.2-0.3,2.9-0.8c-0.7-0.9-1.1-1.5-1.4-2.5
			c-0.5,0-0.9,0.5-1.3,0.7c-0.5,0.2-0.9,0.2-1.4,0.2"/>
		<g>
			<path d="M28.3,42.9c2.3-1,4.6-1.8,7.1-2.4c1.9-0.4,3.9-0.7,5.9-0.4c0.7,0.1,1.5,0.3,2.1,0.7c0.3,0.2,0.6,0.4,0.8,0.6
				c0.4,0.3,1,0.8,1,1.3c0,0.5-0.6,0.9-0.9,1.1c-0.4,0.2-0.9,0.4-1.3,0.5c-0.4,0.1-0.8,0.1-1.1-0.2c-1.3-1-2.7-1.7-4.4-1.9
				c-3.2-0.5-6.5,0.8-9.3,2.4l-0.1,0.4c3-1.8,6.6-3.2,10.1-2.5c0.9,0.2,1.8,0.6,2.6,1.1c0.4,0.2,0.7,0.6,1.2,0.8
				c0.6,0.3,1.4,0,2-0.2c0.6-0.3,1.4-0.7,1.4-1.5c0-0.3-0.3-0.6-0.5-0.9c-0.3-0.3-0.6-0.6-0.9-0.8c-0.5-0.4-1.2-0.7-1.8-0.9
				c-1.7-0.5-3.5-0.4-5.2-0.2c-2.3,0.3-4.6,1-6.8,1.9c-0.7,0.3-1.4,0.6-2.1,0.9L28.3,42.9L28.3,42.9z"/>
		</g>
		<g>
			<path class="st8" d="M17.9,48.9c5.6,2.6,11.3,3.1,15.4,2.8c3.7-0.2,8.1-2.6,11.5-4.7c2.1-1.3,2.2-1.8,3-3.4
				c1-1.7,1.2-2.1,3.2-2.1c3.1,0,5.7-1.9,8.7-3.8c2-1.5,1.2-5.2,1.1-7.9c0-0.1-0.2-0.5-0.6-0.6c0,1.1-0.1,2.2-0.9,3.2
				c-0.3,0.4-0.6,0.6-1.1,0.9c-1.1,0.7-2.4,1.3-3.5,1.7c-2.4,0.7-4.7,1.2-6.5,2.9c-0.5,0.5-0.9,0.9-1.3,1.4c-0.8,1-1.6,2.2-3.4,3.6
				c-2.5,2.1-5.1,3.4-7.7,4.2c-3.3,1-6.5,1.3-9.2,1.2c-4.4-0.2-7.6-1.1-7.6-1.1c-0.6-0.3-0.7-0.9-0.9-1.6c-0.2-0.8-0.4-0.8-1.1-1.3
				c-0.6-0.4-1-0.9-1.6-0.3c-0.4,0.3-0.2,0.7-0.2,1.2c0,0.1,0,0.1,0,0.2C15.3,46.4,16.3,48.2,17.9,48.9z"/>
		</g>
		<g>
			<path class="st7" d="M50.6,39.6c-1,0.9-1.6,1.6-2.1,2.7c0.5-0.5,0.7-0.5,1.4-0.6c1-0.2,1.7,0,2.5-0.6c1-0.7,4.3-2.4,3.5-3.3
				C55,37.2,51.7,38.6,50.6,39.6z"/>
		</g>
		<path class="st10" d="M44.7,47c-3.4,2.1-7.8,4.4-11.5,4.7C29.5,52,21.2,51,18.4,49c-0.8-0.6-0.7-2.7-0.9-3.3
			c-0.2-0.8-0.4-0.8-1.1-1.3c-0.6-0.4-0.9-0.9-1.2-0.4c-0.2,0.5-0.2,1.2-0.2,1.7c0,0.1,0,0.1,0,0.2c0.1,1.1,1.1,2.9,2.7,3.6
			c5.6,2.6,11.3,3.1,15.4,2.8c3.7-0.2,8.1-2.6,11.5-4.7c1.1-0.7,1.6-1.3,1.9-1.9C46.2,46.1,45.6,46.5,44.7,47z"/>
		<path class="st10" d="M59.5,37.6c-3,2-5.6,3.8-8.7,3.8c-1.4,0-1.9,0.2-2.4,0.9C49,42,49.7,42,50.8,42c3.1,0,5.7-1.9,8.7-3.8
			c0.8-0.6,1.1-1.5,1.3-2.6C60.5,36.4,60.2,37.1,59.5,37.6z"/>
		<path d="M26.4,48c0.3-0.4,0.6-0.8,0.8-1.2c0.2-0.4,0.5-0.8,0.7-1.3c0.3-0.7,0.6-1.5,0.5-2.3c-0.1-0.6-0.4-1-0.8-1.2
			c-0.8-0.4-1.9-0.2-2.8,0c-0.8,0.2-1.6,0.5-2.4,0.7c-1.1,0.2-2-0.4-2.9-0.9c-0.5-0.3-1.1-0.5-1.6-1c-0.8-0.7-0.3-1.6,0.4-2.2
			c0.1-0.1-0.7,0.5-0.9,1c-0.1,0.2-0.1,0.5,0,0.7c0.1,0.5,0.6,0.9,1.1,1.2c0.7,0.4,1.4,0.8,2,1.2c0.8,0.4,1.5,0.5,2.4,0.3
			c1.5-0.3,3.6-1.6,5-0.3c0.6,0.6,0.3,1.7,0,2.5c-0.4,1-1,2-1.7,2.9C26.1,48,26.4,48,26.4,48z"/>
		<path class="st8" d="M57.6,19.1c0.1,0.3,0.2,0.8,0.3,1.5c0.1,0.9,0.1,2.1,0,3.4c-0.1,1.4-0.6,3-1.4,4.3c-0.1,0.1-0.2,0.3-0.3,0.4
			c-0.2,0.2-0.4,0.5-0.8,0.7c-1.2,0.8-3.5,1.4-6.2,0.8c-0.6-0.1-1.2-0.3-1.8-0.6c-1-0.5-1-1.2-2.2-0.8c-1.8,0.5-3.4,3.5-3.4,3.5
			c1,1.6,3.7,1.5,5.4,1.8c1.6,0.2,3.6,0.1,5.2,0.5c0.8,0.3,1.2,0.8,2,0.8c1-0.1,3.4-0.8,3.7-2.2C59.4,27.8,59.7,21.4,57.6,19.1z"/>
		<g>
			<g>
				<path d="M53.5,35c-0.1-0.1-0.3-0.2-0.5-0.3c-0.5-0.3-1-0.4-1.5-0.5c-1.1-0.2-2.3-0.2-3.4-0.3c-0.9,0-1.8-0.2-2.7-0.3
					c-0.9-0.1-1.8-0.3-2.6-0.8c-0.2-0.1-0.3-0.2-0.5-0.4c0,0-0.2-0.3-0.4-0.5c0,0,0,0.1-0.1,0.1c0,0,0,0.1,0,0.1
					c0.2,0.3,0.4,0.5,0.6,0.7c0.4,0.3,0.9,0.5,1.4,0.7c1,0.3,2.2,0.3,3.1,0.4c1.3,0.1,2.6,0.1,3.9,0.3c0.3,0,0.7,0.1,1,0.2
					c0.4,0.1,0.7,0.2,1.1,0.4c0.1,0,0.1,0.1,0.2,0.1L53.5,35z"/>
				<g>
					<path d="M57.3,19.3c0.2,0.2,0.3,0.3,0.4,0.5c-0.1-0.2-0.1-0.4-0.2-0.7C57.5,19.2,57.4,19.3,57.3,19.3z"/>
					<g>
						<path d="M57.3,19.3c0.2,0.2,0.3,0.3,0.4,0.5c-0.1-0.2-0.1-0.4-0.2-0.7C57.5,19.2,57.4,19.3,57.3,19.3z"/>
						<g>
							<path d="M57.5,19.1c-0.1,0-0.2,0.1-0.2,0.1c0,0,0,0.1,0,0.1c0.1,0.1,0.3,0.3,0.4,0.4c0-0.2-0.1-0.4-0.1-0.6
								C57.6,19.2,57.6,19.2,57.5,19.1z"/>
							<path d="M46.7,29.5c0,0,0.1,0.1,0.2,0.2c0.4,0.3,1,0.5,1.5,0.7c1.8,0.6,3.9,0.7,5.7,0.1c0.6-0.2,1.3-0.5,1.8-0.9
								c0.6-0.4,0.9-1.1,1.2-1.7c0.8-1.6,1.1-3.4,1.2-5.1c0-0.9,0-2.2-0.3-3.1c-0.1-0.1-0.2-0.4-0.4-0.5c0.3,1,0.4,2.2,0.4,3.3
								c0,0.3,0,0.6,0,0.9c-0.1,1-0.2,2-0.5,3c-0.3,0.9-0.7,2-1.4,2.7c-0.5,0.5-1.2,0.9-1.9,1.1c-1,0.3-2,0.4-3,0.4
								c-1.3-0.1-2.6-0.3-3.7-0.9c-0.2-0.1-0.4-0.2-0.5-0.3L46.7,29.5z"/>
							<path d="M57.6,19.1c0.1,0.2,0.2,0.5,0.2,0.7c1,1.5,1.1,3.6,1.1,5.3c0,2.7-0.4,5.4-1,8l0.3-0.2c0.6-2.6,1-5.3,0.9-7.9
								c0-0.7,0-1.5-0.1-2.2c-0.1-0.4-0.1-0.7-0.2-1.1c-0.1-0.4-0.2-0.9-0.4-1.3c-0.1-0.3-0.3-0.6-0.5-0.9
								C57.8,19.4,57.7,19.3,57.6,19.1z"/>
						</g>
					</g>
				</g>
			</g>
		</g>
		<path class="st8" d="M50.7,26c-0.7-0.7-1.9-1.1-3-1.1c-0.5,0-1,0.1-1.4,0.3c-0.5,0.1-1.7,1.2-2.8,2.1c-0.6,0.5-1.2,1-1.4,1.2
			c0,0,0,0-0.1,0h0c-0.4,0-1.7-0.8-3-1.5c-1.7-1-3.5-2.1-4.4-2.1c-0.2,0-0.4,0.1-0.5,0.2l-0.3,0.4c-1.6,2.1-2.3,3-5.7,5.5
			c-2.4,1.8-3.5,2.7-4,3.3c-0.6,0.6-0.4,0.9-0.2,1.3c0.2,0.4,0.7,0.7,1.2,0.9c0.2,0.1,1.4,0.5,2.2,1.2c0.2,0.2,0.4,0.5,0.6,0.7
			c0.2,0.3,0.4,0.6,0.7,0.8c0.2,0.1,0.3,0.2,0.5,0.3c0.2,0.1,0.5,0.1,1,0.1c0,0,0,0,0,0c1.4,0,3-0.6,4.1-1.1
			c1.2-0.5,3.6-1.6,5.6-3.1c0.9-0.7,1.6-1.5,2.4-2.3c0.8-0.8,1.6-1.7,2.5-2.4c0.3-0.2,0.5-0.4,0.8-0.6c1.8-1.3,3.9-2.7,5.1-4
			L50.7,26L50.7,26z"/>
		<g>
			<path d="M24,35.7L24,35.7c0.3,0.5,0.9,0.7,1.5,1c0.2,0.1,0.4,0.2,0.6,0.2c0.5,0.3,1.1,0.6,1.5,1c0.3,0.4,0.6,0.8,0.9,1.2
				c0.6,0.7,1.6,0.7,2.5,0.6c1-0.1,2-0.5,2.9-0.9c2.1-0.9,4.1-1.9,6-3.3c0.7-0.5,1.3-1.1,1.8-1.7c0.3-0.4,0.7-0.7,1-1.1
				c0.7-0.7,1.5-1.6,2.3-2.1c0.6-0.4,1.2-0.8,1.9-1.3c1.4-1,2.9-2.1,3.9-3.3l-0.2-0.2c-1.4,1.7-3.5,3-5.3,4.2
				c-1.9,1.3-3.4,3.2-5.1,4.8c-1.8,1.6-4,2.6-6.1,3.6c-1,0.4-2,0.8-3,1c-0.5,0.1-1.1,0.1-1.6,0c-0.6-0.1-0.9-0.6-1.2-1.1
				c-0.5-0.7-1.2-1.2-2-1.6c-0.6-0.3-1.9-0.6-2.3-1.2c0,0-0.2-0.3-0.2-0.5C23.7,35.3,24,35.7,24,35.7z"/>
		</g>
		<path d="M43.6,29.6c0,0.3-0.3,0.6-0.6,0.6c-0.3,0-0.6-0.3-0.6-0.6c0-0.3,0.3-0.6,0.6-0.6C43.3,29,43.6,29.3,43.6,29.6z"/>
		<path d="M46.4,26.5c0,0.3-0.3,0.6-0.6,0.6c-0.3,0-0.6-0.3-0.6-0.6c0-0.3,0.3-0.6,0.6-0.6C46.1,25.9,46.4,26.1,46.4,26.5z"/>
		<path d="M41.7,28.6c-4.1-0.7-6.9-3.3-7.3-2.5c-2,3.8-6.9,6-8.2,7.3c-1.3,1.3,2.1,2.7,3.3,2.9c0.8,0.2,2.1-0.2,2.8-0.5
			C35,34.6,42.1,29.4,41.7,28.6z"/>
		<path class="st8" d="M45.6,23.5c-0.9-1.3-3.4-2.2-4.8-2.1c-3,0.2-5.4,4.8-5.4,4.8c-1.6,2.5,1.8,6.5,6.2,3
			C43.3,28.2,46.7,25.1,45.6,23.5z"/>
		<path d="M35.3,25.7c0,0,0.4,1.4,1.7,2.4c1.3,0.9,4.7,0.5,4.7,0.5l0.7,1.1l-5.6-0.5l-2-3.6L35.3,25.7z"/>
		<g>
			<path d="M45.6,23.5c-0.9-1.3-3.4-2.2-4.8-2.1c-0.2,0-0.5,0.1-0.7,0.1c1.5,0,3.7,0.9,4.6,2.1c1,1.4-1.6,4-3.4,5.3
				c0.1,0.1,0.3,0.2,0.4,0.3C43.3,28.1,46.7,25.1,45.6,23.5z"/>
		</g>
		<path class="st8" d="M42.3,29.1c-0.5,0-4-0.1-4.5-0.2c-0.6-0.1-4-0.5-4.3-0.4c0,0-0.1,0.5,0.3,0.8c0.2,0.1,2.6,0.5,3.1,0.6
			c2.9,0.4,5.5,0.3,5.9,0.2c0.4-0.1,0.8-0.3,0.6-0.8C43.2,28.9,42.6,29.1,42.3,29.1z"/>
		<g>
			<path d="M43.4,29.4c-0.1-0.1-0.2-0.2-0.3-0.3c0.1,0.4-0.3,0.7-0.6,0.7c-0.5,0.1-3,0.2-5.9-0.2c-0.3,0-1.5-0.2-2.3-0.4
				c-0.3-0.1-0.5-0.7-0.6-0.7c-0.2,0-0.5,0.1-0.6,0c0,0.1,0.5,0.7,0.6,0.8c0.2,0.1,2.6,0.5,3.1,0.6c2.9,0.4,5.5,0.3,5.9,0.2
				C43.1,30.1,43.5,29.9,43.4,29.4z"/>
		</g>
		<path class="st8" d="M34.1,29.5c-0.3-0.5-1.2-2.3-1.4-2.4c0,0-0.6-0.1-0.8,0.3c-0.1,0.2-0.2,0.6,0.2,1.1c2.1,3.1,3.2,6.2,3.4,6.4
			c0.4,0.2,0.8,0.1,0.9-0.2C36.5,33.5,34.7,30.4,34.1,29.5z"/>
		<g>
			<path d="M35,33.3c-0.4-0.5-0.9-2.2-3-5.4c-0.1-0.2-0.2-0.3-0.2-0.4c-0.1,0.2-0.1,0.6,0.2,1c2.1,3.1,3.2,6.2,3.4,6.4
				c0.4,0.2,0.8,0.1,0.9-0.2c0-0.1-0.1-0.9-0.2-1.1C36,33.9,35.4,33.7,35,33.3z"/>
		</g>
		<g>
			<path class="st8" d="M39.5,32.1c-0.2-0.4-2.4-3.2-3.2-4.4c-0.8-1.2-1.1-1.9-1.3-2.5c-0.2-0.6-0.1-0.7,0-0.8c0,0-0.6-0.3-1,0.1
				c-0.4,0.4-0.3,0.8-0.2,1.3c0.1,0.5,0.4,0.9,0.6,1.3c0.5,0.8,3.5,5.4,4.4,5.8C39.3,33.1,39.7,32.6,39.5,32.1z"/>
		</g>
		<g>
			<path d="M39.5,32.1c-0.2-0.4-2.4-3.2-3.2-4.4c-0.8-1.2-1.1-1.9-1.3-2.5c-0.2-0.6-0.1-0.6,0-0.8c0,0-0.3-0.2-0.6-0.1
				c0,0.2-0.1,0.3,0.1,0.8c0.2,0.6,0.5,1.3,1.3,2.5c0.6,0.9,1.4,2,2.2,3c0.3,0.4,0,0.7-0.7,0.5c0.2,0.3,1.8,1.6,1.5,1.6
				c0.1,0,0.1,0.1,0.2,0.1C39.3,33.1,39.7,32.6,39.5,32.1z"/>
		</g>
		<g>
			<path class="st8" d="M45.9,25.9c-2.1-0.1-4,0.1-5.3,0c-2-0.2-3.1-0.8-3.9-0.8c-1,0-1.6,0-1.7,0.1c0.1,0.3,0.2,0.7,0.3,0.9
				c0,0,2.6,0.8,5.2,1.1c2.3,0.2,4.6-0.1,4.9-0.1c0.4,0,0.7-0.2,0.8-0.4C46.2,26.4,46.1,26,45.9,25.9z"/>
			<g>
				<path d="M46,26c0,0,0,0.1,0,0.1c0,0.2-0.1,0.4-0.8,0.5c-0.3,0-2.4,0.2-4.6,0c-2.7-0.3-5.6-1.1-5.6-1.1c0,0,0-0.1-0.1-0.1
					c0.1,0.2,0.2,0.4,0.2,0.5c0,0,2.7,0.8,5.3,1.1c2.2,0.2,4.5-0.1,4.8-0.1c0.5,0,0.7-0.2,0.8-0.4C46.2,26.4,46.2,26.2,46,26z"/>
			</g>
		</g>
		<g>
			<path class="st8" d="M39.7,25.5c-0.7-1.1-1.4-2.2-1.8-2.8c-0.3-0.5-0.3-0.7-0.5-1c-0.4-0.4-1-0.1-1.1,0.3
				c-0.1,0.6,2.3,4.1,3.2,5.1c0.9,1,2.3,2.4,3.2,3c0.4,0.3,0.9-0.2,0.7-0.6C43.3,29.1,40.7,27,39.7,25.5z"/>
			<g>
				<path d="M43.4,29.4c-0.1,0.2-0.4,0.4-0.7,0.2c-0.9-0.6-2.4-2-3.2-3c-0.8-0.9-2.8-3.7-3.1-4.8c0,0,0,0.1-0.1,0.1
					c-0.1,0.6,2.3,4.1,3.2,5.1c0.9,1,2.3,2.4,3.2,3C43.1,30.3,43.6,29.8,43.4,29.4C43.4,29.4,43.4,29.4,43.4,29.4z"/>
			</g>
		</g>
		<path d="M36.6,34.7c0,0.3-0.3,0.6-0.6,0.6c-0.3,0-0.6-0.3-0.6-0.6c0-0.3,0.3-0.6,0.6-0.6C36.3,34,36.6,34.3,36.6,34.7z"/>
		<path d="M39.8,32.5c0,0.3-0.3,0.6-0.6,0.6c-0.3,0-0.6-0.3-0.6-0.6c0-0.3,0.3-0.6,0.6-0.6C39.5,31.9,39.8,32.2,39.8,32.5z"/>
		<path class="st8" d="M31.6,34.3c-0.3-0.9-0.5-1.8-0.8-2.5c-0.2-0.7-0.6-1.9-0.6-2.2c-0.6-0.4-1.5,0-1.1,1.2
			c0.3,1.1,0.9,2.3,1.2,3.4c0.2,0.5,0.5,1.4,0.7,1.6c0.3,0.3,0.9,0.7,1,0.2C32.1,35.7,31.7,34.7,31.6,34.3z"/>
		<g>
			<path d="M31.6,34.3c-0.3-0.9-0.5-1.8-0.8-2.5c-0.2-0.7-0.6-1.9-0.6-2.2c-0.1,0-0.2-0.1-0.2-0.1c0,0-0.1,0,0,0.1
				c0.1,0.5,0.4,1.3,0.5,1.8c0.3,0.7,0.5,1.6,0.8,2.5c0.1,0.4,0.3,0.8,0.3,1.1c0,0.1-1.1-0.8-1.3-0.8c0.1,0.1,0.7,1.7,0.7,1.7
				c0.3,0.3,0.9,0.7,1,0.2C32.1,35.7,31.7,34.7,31.6,34.3z"/>
		</g>
		<path class="st8" d="M36.1,34c-0.4-0.3-2.5-0.7-2.9-0.8c-2.1-0.4-4.1-0.5-5.9-0.4c0,0,1,1,1.8,1.1c1.5,0.1,4.1,0.6,6.6,1.2
			C36.4,35.2,36.7,34.4,36.1,34z"/>
		<g>
			<path d="M36.2,34.1c0.1,0.4-0.2,0.8-0.8,0.7c-1.9-0.6-3.7-0.9-5.2-1.1c-0.4,0-2.1-0.8-2.5-0.9c0,0-0.4,0-0.5,0c0,0,1,1,1.8,1.1
				c1.5,0.1,4.1,0.6,6.6,1.2C36.3,35.2,36.6,34.5,36.2,34.1z"/>
		</g>
		<path class="st8" d="M34.7,30.5c-1.7-0.2-3.8-0.3-4.4-0.2c0,0.1,0.3,0.9,0.3,0.9c0.1,0,3.1,0,5.8,0.8c0.5,0.1,2.2,0.8,2.5,0.9
			c0.5,0.1,0.8-0.4,0.6-0.7C39.3,31.6,36,30.7,34.7,30.5z"/>
		<g>
			<path d="M39.6,32.2c0,0-0.1-0.1-0.1-0.1c0,0.3-0.3,0.6-0.7,0.5c-0.4-0.1-2.1-0.7-2.5-0.9c-2.6-0.8-5.4-0.8-5.7-0.8
				c0.1,0.2,0.1,0.3,0.1,0.3c0.1,0,3.1,0,5.8,0.8c0.5,0.1,2.2,0.8,2.5,0.9C39.4,33,39.7,32.6,39.6,32.2z"/>
		</g>
		<path d="M32.7,36.7c0,0.3-0.3,0.6-0.6,0.6c-0.3,0-0.6-0.3-0.6-0.6c0-0.3,0.3-0.6,0.6-0.6C32.4,36.1,32.7,36.3,32.7,36.7z"/>
		<path class="st8" d="M31.6,35.5c-0.9-1-2.1-1.9-3.2-2.4c-0.5-0.2-1.8-0.8-2.8-0.2c-0.3,0.3-0.6,0.4-0.5,0.8
			c0.9-0.5,4.9,2.2,5.8,2.9c0.3,0.2,1,0.8,1.4,0.6C33,36.7,31.9,35.8,31.6,35.5z"/>
		<g>
			<path d="M32.4,36.3c0,0.1-0.1,0.2-0.2,0.2c-0.4,0.2-1.1-0.4-1.4-0.6c-0.7-0.5-3.3-2.3-4.9-2.8c0,0-0.4-0.2,0-0.6
				c-0.3,0.1-0.5,0.3-0.7,0.4c-0.2,0.2-0.2,0.3-0.2,0.5c0.9-0.5,4.9,2.2,5.8,2.9c0.3,0.2,1,0.8,1.4,0.6
				C32.6,36.9,32.6,36.6,32.4,36.3z"/>
		</g>
		<path d="M36.9,31c0,0,0-0.4,0.3-1c0.3-0.6,0.9-1,0.9-1l-0.9,0.1l-0.7,1.9L36.9,31z"/>
		<path class="st8" d="M38.2,29c-0.3-0.2-0.5-0.1-0.8-0.3c-0.2-0.1-0.6-0.6-0.8-0.6c-0.3,0-0.7,0.5-0.9,0.7c-0.1,0.2-0.8,1.4-1,1.7
			c0.4,0.1,0.6,0.2,1,0.3c0.4,0.1,1,0.2,1,0.2C36.9,29.5,37.8,29,38.2,29z"/>
		<polygon points="36.8,30.9 34.8,30.4 34.7,30.5 36.7,31 		"/>
		<g>
			<path d="M15.3,43.8c0-0.1,0.1-0.1,0.1-0.2c0.5-0.5,1.3,0.3,1.7,0.6c0.3,0.2,0.6,0.4,0.8,0.7c0.2,0.4,0.2,0.9,0.4,1.3
				c0.2,0.6,0.7,0.8,1.3,1c2.1,0.6,4.2,0.9,6.3,1c7.6,0.5,15.6-2.1,20.4-8.3c0.9-1.2,1.8-2.3,3.1-3.1c1.6-1,3.5-1.4,5.2-2
				c1.5-0.6,3-1.1,4.2-2.1c1.5-1.3,1.3-4.2,1.3-4.4c0,1.1-0.1,2.2-0.6,3.2c-0.5,1-1.6,1.6-2.5,2c-2,1-4.1,1.5-6.1,2.3
				c-1,0.4-1.9,0.9-2.7,1.6c-0.6,0.5-1.1,1.1-1.6,1.7c-0.6,0.7-1.1,1.4-1.7,2.1c-0.8,0.9-1.8,1.6-2.7,2.4
				c-5.8,4.2-13.2,5.2-20.1,3.9c-1-0.2-2-0.4-2.9-0.7c-0.7-0.2-0.7-1.2-0.9-1.8c-0.2-0.5-0.6-0.7-1-1c-0.4-0.3-1.2-1.1-1.7-0.7
				c0,0-0.1,0.1-0.1,0.2L15.3,43.8z"/>
		</g>
	</g>
</g>
</svg>
