<?xml version="1.0" encoding="utf-8"?>
<!-- Generator: Adobe Illustrator 28.2.0, SVG Export Plug-In . SVG Version: 6.00 Build 0)  -->
<svg version="1.1" id="Capa_1" xmlns="http://www.w3.org/2000/svg" xmlns:xlink="http://www.w3.org/1999/xlink" x="0px" y="0px"
	 viewBox="0 0 64 64" style="enable-background:new 0 0 64 64;" xml:space="preserve">
<style type="text/css">
	.st0{fill:#E8B78B;}
	.st1{fill:#30AFD1;}
	.st2{fill:#CC76C0;}
	.st3{fill:url(#SVGID_1_);}
	.st4{fill:url(#SVGID_00000018237444440967049870000013487971427693684914_);}
	.st5{fill:url(#SVGID_00000031890057034416290290000014108342926443379617_);}
	.st6{fill:#FCCA97;}
	.st7{fill:#34B8E4;}
	.st8{fill:#E588D3;}
	.st9{fill:url(#SVGID_00000050661100126300938800000001066344554134344630_);}
	.st10{fill:url(#SVGID_00000009555514767697943330000017642864828137206656_);}
	.st11{fill:url(#SVGID_00000134936357108450937840000006099688417415111351_);}
</style>
<g>
	<g>
		<path class="st0" d="M49.7,30.3c2.8,1.3,5.2,1.7,7,0.7c0.3-3.8,0.4-7.2,0.3-8.3c-0.1-1.4-0.9-2.3-0.9-2.3s-13.6-7.6-15.7-8.7
			s-3.5,0.9-3.9,1.8c0,0-0.7,1-0.6,2.7c0,0.9,0.6,3.9,1.1,7.1l0,0C38.4,24.8,46,28.7,49.7,30.3z"/>
		<path class="st1" d="M56.4,33.8c0.1-0.9,0.2-1.8,0.3-2.8c-1.8,0.9-4.1,0.5-7-0.7c-3.7-1.7-11.4-5.6-12.8-7l0,0
			c0.5,3.1,1.1,6.3,1.2,7.5c0.1,1.1,0,2.5-0.5,3.7c2.4,1.7,8.8,4.9,12,6.4c2.8,1.2,5.1,1.6,6.8,0.8c0-0.4-0.1-0.8-0.1-1.2
			C56.1,38.2,56,37.1,56.4,33.8z"/>
		<g>
			<path class="st2" d="M50.6,41.4c-0.3-0.1-0.6-0.2-0.9-0.4c-3.3-1.5-9.6-4.7-12-6.4c-0.6,1.6-1.8,3-4.1,3.6
				c-4.1,1.1-8.2,1.9-11.1,1.8s-5.3,0.7-5.9,2.3c-0.6,1.6-0.7,4.2,2.4,6.9c3.1,2.6,7.2,5.6,12,5.9c4.7,0.3,8.7-0.9,11.7,0.3
				c0,0,0,0,0.1,0c0.2,0.1,0.4,0.2,0.7,0.3C41.9,48.4,46.9,43.2,50.6,41.4z"/>
			<linearGradient id="SVGID_1_" gradientUnits="userSpaceOnUse" x1="59.264" y1="-81.3621" x2="51.0322" y2="36.8771">
				<stop  offset="0" style="stop-color:#CC9D7F"/>
				<stop  offset="1" style="stop-color:#CC9D7F"/>
			</linearGradient>
			<path class="st3" d="M56.9,45.5c-0.1-1.5-0.3-2.7-0.4-3.7c-1.6,0.7-3.6,0.5-5.9-0.4c-3.8,1.8-8.7,7.1-7.1,14.3
				c2.7,1.1,4.8,2.1,7.9,1.2C54.8,55.8,57.5,52.2,56.9,45.5z"/>
		</g>
		
			<linearGradient id="SVGID_00000154408387695691467040000001880949180127768497_" gradientUnits="userSpaceOnUse" x1="48.08" y1="0.9493" x2="43.8443" y2="25.355">
			<stop  offset="0" style="stop-color:#CC9D7F"/>
			<stop  offset="1" style="stop-color:#CC9D7F"/>
		</linearGradient>
		<path style="fill:url(#SVGID_00000154408387695691467040000001880949180127768497_);" d="M38.6,1.9c-1.9-0.6-3.1,0.2-3,1.8
			c0.1,1.6,0.8,9.6,0.8,10c0,0.3,5.2,4.3,11.1,7s7,2.1,7.7,1.7s1.3-0.7,1.3-1.5c0-0.8,0-6.6,0-7.4c0-0.8-0.2-1.3-0.8-1.7
			S43.1,3.4,38.6,1.9z"/>
		
			<linearGradient id="SVGID_00000078725571454444510210000000834352451692217786_" gradientUnits="userSpaceOnUse" x1="60.6293" y1="-9.0045" x2="44.3591" y2="10.3583">
			<stop  offset="0" style="stop-color:#BA8563"/>
			<stop  offset="1" style="stop-color:#AA6D4F"/>
		</linearGradient>
		<path style="fill:url(#SVGID_00000078725571454444510210000000834352451692217786_);" d="M38.8,2.3c-0.9-0.5-1.8-0.2-2.2,0.4
			c-0.4,0.6,0.1,1.3,1.1,2.2c1,0.8,13.2,8.1,14.9,9c1.7,0.9,2.8,0.5,3,0c0.3-0.5,0.4-1.2-0.8-2.1C53.6,10.9,49.4,8,38.8,2.3z"/>
	</g>
	<g>
		<path class="st6" d="M40.3,35.5c2.8,1.3,5.2,1.7,7,0.7c0.3-3.8,0.4-7.2,0.3-8.3c-0.1-1.4-0.9-2.3-0.9-2.3S33.2,18,31,17
			s-3.5,0.9-3.9,1.8c0,0-0.7,1-0.6,2.7c0,0.9,0.6,3.9,1.1,7.1l0,0C29,30,36.6,33.9,40.3,35.5z"/>
		<path class="st7" d="M47,39c0.1-0.9,0.2-1.8,0.3-2.8c-1.8,0.9-4.1,0.5-7-0.7c-3.7-1.7-11.4-5.6-12.8-7l0,0
			c0.5,3.1,1.1,6.3,1.2,7.5c0.1,1.1,0,2.5-0.5,3.7c2.4,1.7,8.8,4.9,12,6.4c2.8,1.2,5.1,1.6,6.8,0.8c0-0.4-0.1-0.8-0.1-1.2
			C46.7,43.4,46.6,42.3,47,39z"/>
		<g>
			<path class="st8" d="M41.2,46.5c-0.3-0.1-0.6-0.2-0.9-0.4c-3.3-1.5-9.6-4.7-12-6.4c-0.6,1.6-1.8,3-4.1,3.6
				c-4.1,1.1-8.2,1.9-11.1,1.8c-2.9-0.1-5.3,0.7-5.9,2.3c-0.6,1.6-0.7,4.2,2.4,6.9c3.1,2.6,7.2,5.6,12,5.9c4.7,0.3,8.7-0.9,11.7,0.3
				c0,0,0,0,0.1,0c0.2,0.1,0.4,0.2,0.7,0.3C32.6,53.6,37.5,48.4,41.2,46.5z"/>
			
				<linearGradient id="SVGID_00000145030772184814445150000001455622714078784920_" gradientUnits="userSpaceOnUse" x1="49.869" y1="-76.1667" x2="41.6372" y2="42.0725">
				<stop  offset="0" style="stop-color:#EBBA9B"/>
				<stop  offset="1" style="stop-color:#EBBA9B"/>
			</linearGradient>
			<path style="fill:url(#SVGID_00000145030772184814445150000001455622714078784920_);" d="M47.5,50.7c-0.1-1.5-0.3-2.7-0.4-3.7
				c-1.6,0.7-3.6,0.5-5.9-0.4c-3.8,1.8-8.7,7.1-7.1,14.3c2.7,1.1,4.8,2.1,7.9,1.2C45.4,61,48.1,57.4,47.5,50.7z"/>
		</g>
		
			<linearGradient id="SVGID_00000171681400810002694850000001963877580760262328_" gradientUnits="userSpaceOnUse" x1="38.6851" y1="6.1447" x2="34.4494" y2="30.5504">
			<stop  offset="0" style="stop-color:#EBBA9B"/>
			<stop  offset="1" style="stop-color:#EBBA9B"/>
		</linearGradient>
		<path style="fill:url(#SVGID_00000171681400810002694850000001963877580760262328_);" d="M29.2,7.1c-1.9-0.6-3.1,0.2-3,1.8
			c0.1,1.6,0.8,9.6,0.8,10s5.2,4.3,11.1,7s7,2.1,7.7,1.7s1.3-0.7,1.3-1.5c0-0.8,0-6.6,0-7.4c0-0.8-0.2-1.3-0.8-1.7
			S33.7,8.6,29.2,7.1z"/>
		
			<linearGradient id="SVGID_00000082344308351288776120000000761528106653783211_" gradientUnits="userSpaceOnUse" x1="51.2344" y1="-3.8091" x2="34.9642" y2="15.5537">
			<stop  offset="0" style="stop-color:#D9A07C"/>
			<stop  offset="1" style="stop-color:#C98665"/>
		</linearGradient>
		<path style="fill:url(#SVGID_00000082344308351288776120000000761528106653783211_);" d="M29.4,7.5c-0.9-0.5-1.8-0.2-2.2,0.4
			c-0.4,0.6,0.1,1.3,1.1,2.2c1,0.8,13.2,8.1,14.9,9c1.7,0.9,2.8,0.5,3,0c0.3-0.5,0.4-1.2-0.8-2.1C44.2,16.1,40,13.2,29.4,7.5z"/>
	</g>
</g>
</svg>
