<?xml version="1.0" encoding="utf-8"?>
<!-- Generator: Adobe Illustrator 28.2.0, SVG Export Plug-In . SVG Version: 6.00 Build 0)  -->
<svg version="1.1" id="Capa_1" xmlns="http://www.w3.org/2000/svg" xmlns:xlink="http://www.w3.org/1999/xlink" x="0px" y="0px"
	 viewBox="0 0 64 64" style="enable-background:new 0 0 64 64;" xml:space="preserve">
<style type="text/css">
	.st0{fill:#100905;}
	.st1{fill:#0B0504;}
	.st2{fill:#0E0604;}
	.st3{fill:#FAC997;}
	.st4{fill:#30B7E4;}
	.st5{fill:#0D0604;}
	.st6{fill:#FBCC9D;}
	.st7{fill:#FFFFFF;}
	.st8{fill:#F9C692;}
	.st9{fill:#E388D3;}
	.st10{fill:#FAFAFC;}
</style>
<g>
	<g id="XMLID_00000089548224633128152810000002260981885358687153_">
		<path id="XMLID_00000147907616954035642740000004061960489783199627_" class="st0" d="M22.6,62.6c0.1,0.1,0.1,0.2,0,0.3
			c-0.1,0.1-0.4,0.1-0.5,0s-0.1-0.2,0-0.3C22.2,62.5,22.4,62.5,22.6,62.6z"/>
		<path id="XMLID_00000111155719869783784230000016727791451663006650_" class="st0" d="M21.2,61.8c0.1,0.1,0.1,0.2,0,0.3
			c-0.1,0.1-0.4,0.1-0.5,0c-0.1-0.1-0.1-0.2,0-0.3C20.8,61.7,21,61.7,21.2,61.8z"/>
		<path id="XMLID_00000016782639021886701110000014315742725316063119_" class="st0" d="M19.8,61c0.1,0.1,0.1,0.2,0,0.3
			c-0.1,0.1-0.4,0.1-0.5,0c-0.1-0.1-0.1-0.2,0-0.3C19.4,60.9,19.7,60.9,19.8,61z"/>
		<path id="XMLID_00000099661163176830170050000011011591892415502227_" class="st0" d="M18.4,60.2c0.1,0.1,0.1,0.2,0,0.3
			c-0.1,0.1-0.4,0.1-0.5,0c-0.1-0.1-0.1-0.2,0-0.3C18,60.1,18.3,60.1,18.4,60.2z"/>
		<path id="XMLID_00000181807565327327396570000006325589054196310965_" class="st0" d="M17,59.4c0.1,0.1,0.1,0.2,0,0.3
			c-0.1,0.1-0.4,0.1-0.5,0c-0.1-0.1-0.1-0.2,0-0.3C16.7,59.3,16.9,59.3,17,59.4z"/>
		<path id="XMLID_00000028301257355808191150000005396911468335307419_" class="st0" d="M22,53.1c0.1-0.1,0.4-0.1,0.5,0
			c0.1,0.1,0.1,0.2,0,0.3c-0.1,0.1-0.4,0.1-0.5,0C21.8,53.4,21.8,53.2,22,53.1C22.1,53,21.8,53.2,22,53.1z"/>
		<path id="XMLID_00000113322585683704956320000006062168116735329714_" class="st0" d="M23.9,52.3c0.1,0.1,0.1,0.2,0,0.3
			c-0.1,0.1-0.4,0.1-0.5,0c-0.1-0.1-0.1-0.2,0-0.3C23.5,52.2,23.8,52.2,23.9,52.3z"/>
		<path id="XMLID_00000109749724784326504920000007187969505257146555_" class="st0" d="M25.3,51.5c0.1,0.1,0.1,0.2,0,0.3
			c-0.1,0.1-0.4,0.1-0.5,0c-0.1-0.1-0.1-0.2,0-0.3C24.9,51.5,25.1,51.5,25.3,51.5z"/>
		<path id="XMLID_00000062905225006206628570000018426323269135159467_" class="st0" d="M24.8,62.6c0.1-0.1,0.4-0.1,0.5,0
			c0.1,0.1,0.1,0.2,0,0.3c-0.1,0.1-0.4,0.1-0.5,0C24.7,62.8,24.7,62.7,24.8,62.6z"/>
		<path id="XMLID_00000152978211582945577670000017378692901999468695_" class="st0" d="M26.7,61.8c0.1,0.1,0.1,0.2,0,0.3
			c-0.1,0.1-0.4,0.1-0.5,0c-0.1-0.1-0.1-0.2,0-0.3C26.3,61.7,26.6,61.7,26.7,61.8z"/>
		<path id="XMLID_00000061464294913961064860000016182471508407383998_" class="st0" d="M28.1,61c0.1,0.1,0.1,0.2,0,0.3
			c-0.1,0.1-0.4,0.1-0.5,0c-0.1-0.1-0.1-0.2,0-0.3C27.7,60.9,28,60.9,28.1,61z"/>
		<path id="XMLID_00000003091106310141651110000011152108098179233946_" class="st0" d="M29.5,60.2c0.1,0.1,0.1,0.2,0,0.3
			c-0.1,0.1-0.4,0.1-0.5,0c-0.1-0.1-0.1-0.2,0-0.3C29.1,60.1,29.3,60.1,29.5,60.2z"/>
		<path id="XMLID_00000003103785135161140560000003782828201455754937_" class="st0" d="M30.9,59.4c0.1,0.1,0.1,0.2,0,0.3
			c-0.1,0.1-0.4,0.1-0.5,0c-0.1-0.1-0.1-0.2,0-0.3C30.5,59.3,30.7,59.3,30.9,59.4z"/>
		<path id="XMLID_00000026873963946749801730000007739129477197299118_" class="st0" d="M32.2,58.6c0.1,0.1,0.1,0.2,0,0.3
			c-0.1,0.1-0.4,0.1-0.5,0c-0.1-0.1-0.1-0.2,0-0.3C31.9,58.5,32.1,58.5,32.2,58.6z"/>
		<path id="XMLID_00000134972314866794868750000010020410217122902699_" class="st0" d="M33.6,57.8c0.1,0.1,0.1,0.2,0,0.3
			c-0.1,0.1-0.4,0.1-0.5,0c-0.1-0.1-0.1-0.2,0-0.3C33.2,57.7,33.5,57.7,33.6,57.8z"/>
		<path id="XMLID_00000116200221649622311890000002650139598017814453_" class="st0" d="M35,57c0.1,0.1,0.1,0.2,0,0.3
			c-0.1,0.1-0.4,0.1-0.5,0c-0.1-0.1-0.1-0.2,0-0.3C34.6,56.9,34.9,56.9,35,57z"/>
		<path id="XMLID_00000151533501486492502410000002761938664956136125_" class="st0" d="M36.4,56.2c0.1,0.1,0.1,0.2,0,0.3
			c-0.1,0.1-0.4,0.1-0.5,0c-0.1-0.1-0.1-0.2,0-0.3C36,56.1,36.2,56.1,36.4,56.2z"/>
		<path id="XMLID_00000095316586857930294030000017330355355112568510_" class="st0" d="M23.4,61.8c0.1-0.1,0.4-0.1,0.5,0
			c0.1,0.1,0.1,0.2,0,0.3c-0.1,0.1-0.4,0.1-0.5,0C23.3,62,23.3,61.9,23.4,61.8z"/>
		<path id="XMLID_00000061445651666171897850000005494134077143273639_" class="st0" d="M25.3,61c0.1,0.1,0.1,0.2,0,0.3
			c-0.1,0.1-0.4,0.1-0.5,0c-0.1-0.1-0.1-0.2,0-0.3C25,60.9,25.2,60.9,25.3,61z"/>
		<path id="XMLID_00000167361474620195044860000014534765782382972092_" class="st0" d="M26.7,60.2c0.1,0.1,0.1,0.2,0,0.3
			c-0.1,0.1-0.4,0.1-0.5,0c-0.1-0.1-0.1-0.2,0-0.3C26.3,60.1,26.6,60.1,26.7,60.2z"/>
		<path id="XMLID_00000040572581381415661590000014684519551970574502_" class="st0" d="M28.1,59.4c0.1,0.1,0.1,0.2,0,0.3
			c-0.1,0.1-0.4,0.1-0.5,0c-0.1-0.1-0.1-0.2,0-0.3C27.7,59.3,28,59.3,28.1,59.4z"/>
		<path id="XMLID_00000166646535640925871850000017812050315816408503_" class="st0" d="M29.5,58.6c0.1,0.1,0.1,0.2,0,0.3
			c-0.1,0.1-0.4,0.1-0.5,0c-0.1-0.1-0.1-0.2,0-0.3C29.1,58.5,29.3,58.5,29.5,58.6z"/>
		<path id="XMLID_00000052065608150615002550000015741263974090155422_" class="st0" d="M30.9,57.8c0.1,0.1,0.1,0.2,0,0.3
			c-0.1,0.1-0.4,0.1-0.5,0c-0.1-0.1-0.1-0.2,0-0.3C30.5,57.7,30.7,57.7,30.9,57.8z"/>
		<path id="XMLID_00000145035532673016589230000006864563758403877798_" class="st0" d="M32.2,57c0.1,0.1,0.1,0.2,0,0.3
			c-0.1,0.1-0.4,0.1-0.5,0c-0.1-0.1-0.1-0.2,0-0.3C31.9,56.9,32.1,56.9,32.2,57z"/>
		<path id="XMLID_00000114071161212060654200000006680107206595907983_" class="st0" d="M33.6,56.2c0.1,0.1,0.1,0.2,0,0.3
			c-0.1,0.1-0.4,0.1-0.5,0c-0.1-0.1-0.1-0.2,0-0.3C33.2,56.1,33.5,56.1,33.6,56.2z"/>
		<path id="XMLID_00000029036492264431110650000010638060958412818564_" class="st0" d="M35,55.4c0.1,0.1,0.1,0.2,0,0.3
			c-0.1,0.1-0.4,0.1-0.5,0c-0.1-0.1-0.1-0.2,0-0.3C34.6,55.3,34.9,55.3,35,55.4z"/>
		<path id="XMLID_00000073707511849847465560000003201120073434580661_" class="st0" d="M36.4,54.6c0.1,0.1,0.1,0.2,0,0.3
			c-0.1,0.1-0.4,0.1-0.5,0c-0.1-0.1-0.1-0.2,0-0.3C36,54.5,36.2,54.5,36.4,54.6z"/>
		<path id="XMLID_00000146463200294763751770000010477366464283126456_" class="st0" d="M22.1,61c0.1-0.1,0.4-0.1,0.5,0
			c0.1,0.1,0.1,0.2,0,0.3c-0.1,0.1-0.4,0.1-0.5,0C21.9,61.2,21.9,61.1,22.1,61z"/>
		<path id="XMLID_00000007401470064789682380000011544555138814173879_" class="st0" d="M24,60.2c0.1,0.1,0.1,0.2,0,0.3
			c-0.1,0.1-0.4,0.1-0.5,0c-0.1-0.1-0.1-0.2,0-0.3C23.6,60.1,23.8,60.1,24,60.2z"/>
		<path id="XMLID_00000040572580964684594740000010017560194938466703_" class="st0" d="M25.3,59.4c0.1,0.1,0.1,0.2,0,0.3
			c-0.1,0.1-0.4,0.1-0.5,0c-0.1-0.1-0.1-0.2,0-0.3C25,59.3,25.2,59.3,25.3,59.4z"/>
		<path id="XMLID_00000042002463506435859320000014036746533445211055_" class="st0" d="M26.7,58.6c0.1,0.1,0.1,0.2,0,0.3
			c-0.1,0.1-0.4,0.1-0.5,0c-0.1-0.1-0.1-0.2,0-0.3C26.3,58.5,26.6,58.5,26.7,58.6z"/>
		<path id="XMLID_00000013186698353726584910000009734019972130940314_" class="st0" d="M28.1,57.8c0.1,0.1,0.1,0.2,0,0.3
			c-0.1,0.1-0.4,0.1-0.5,0c-0.1-0.1-0.1-0.2,0-0.3C27.7,57.7,28,57.7,28.1,57.8z"/>
		<path id="XMLID_00000023987587940046267170000007389896920797137051_" class="st0" d="M29.5,57c0.1,0.1,0.1,0.2,0,0.3
			c-0.1,0.1-0.4,0.1-0.5,0c-0.1-0.1-0.1-0.2,0-0.3C29.1,56.9,29.3,56.9,29.5,57z"/>
		<path id="XMLID_00000017487095572751043150000002570704382859487404_" class="st0" d="M30.9,56.2c0.1,0.1,0.1,0.2,0,0.3
			c-0.1,0.1-0.4,0.1-0.5,0c-0.1-0.1-0.1-0.2,0-0.3C30.5,56.1,30.7,56.1,30.9,56.2z"/>
		<path id="XMLID_00000168092647290901713790000014233813431238268566_" class="st0" d="M32.2,55.4c0.1,0.1,0.1,0.2,0,0.3
			c-0.1,0.1-0.4,0.1-0.5,0c-0.1-0.1-0.1-0.2,0-0.3C31.9,55.3,32.1,55.3,32.2,55.4z"/>
		<path id="XMLID_00000098219672911011814040000001024604246730218135_" class="st0" d="M33.6,54.6c0.1,0.1,0.1,0.2,0,0.3
			c-0.1,0.1-0.4,0.1-0.5,0c-0.1-0.1-0.1-0.2,0-0.3C33.2,54.5,33.5,54.5,33.6,54.6z"/>
		<path id="XMLID_00000047782192717380714390000000275468160219199406_" class="st0" d="M35,53.8c0.1,0.1,0.1,0.2,0,0.3
			c-0.1,0.1-0.4,0.1-0.5,0c-0.1-0.1-0.1-0.2,0-0.3C34.6,53.7,34.9,53.7,35,53.8z"/>
		<path id="XMLID_00000028320243710994136770000006531234695582486931_" class="st0" d="M20.7,60.2c0.1-0.1,0.4-0.1,0.5,0
			c0.1,0.1,0.1,0.2,0,0.3c-0.1,0.1-0.4,0.1-0.5,0C20.5,60.4,20.5,60.3,20.7,60.2z"/>
		<path id="XMLID_00000129924910489958137730000015026652680551306657_" class="st0" d="M22.6,59.4c0.1,0.1,0.1,0.2,0,0.3
			c-0.1,0.1-0.4,0.1-0.5,0c-0.1-0.1-0.1-0.2,0-0.3C22.2,59.3,22.4,59.3,22.6,59.4z"/>
		<path id="XMLID_00000095320360735716421590000001259038688636887730_" class="st0" d="M24,58.6c0.1,0.1,0.1,0.2,0,0.3
			c-0.1,0.1-0.4,0.1-0.5,0c-0.1-0.1-0.1-0.2,0-0.3C23.6,58.5,23.8,58.5,24,58.6z"/>
		<path id="XMLID_00000132789871743521765700000017508275378110897574_" class="st0" d="M25.3,57.8c0.1,0.1,0.1,0.2,0,0.3
			c-0.1,0.1-0.4,0.1-0.5,0c-0.1-0.1-0.1-0.2,0-0.3C25,57.7,25.2,57.7,25.3,57.8z"/>
		<path id="XMLID_00000141416532141490761870000009746312534756010409_" class="st0" d="M26.7,57c0.1,0.1,0.1,0.2,0,0.3
			c-0.1,0.1-0.4,0.1-0.5,0c-0.1-0.1-0.1-0.2,0-0.3C26.3,56.9,26.6,56.9,26.7,57z"/>
		<path id="XMLID_00000085931310673872431740000008800048401196908448_" class="st0" d="M28.1,56.2c0.1,0.1,0.1,0.2,0,0.3
			c-0.1,0.1-0.4,0.1-0.5,0c-0.1-0.1-0.1-0.2,0-0.3C27.7,56.1,27.9,56.1,28.1,56.2z"/>
		<path id="XMLID_00000001629225908315147330000013397844954567227834_" class="st0" d="M29.5,55.4c0.1,0.1,0.1,0.2,0,0.3
			c-0.1,0.1-0.4,0.1-0.5,0c-0.1-0.1-0.1-0.2,0-0.3C29.1,55.3,29.3,55.3,29.5,55.4z"/>
		<path id="XMLID_00000006684843206189766370000018372503110583680694_" class="st0" d="M30.9,54.6c0.1,0.1,0.1,0.2,0,0.3
			c-0.1,0.1-0.4,0.1-0.5,0c-0.1-0.1-0.1-0.2,0-0.3C30.5,54.5,30.7,54.5,30.9,54.6z"/>
		<path id="XMLID_00000031187620849001915670000010382158392101472915_" class="st0" d="M32.2,53.8c0.1,0.1,0.1,0.2,0,0.3
			c-0.1,0.1-0.4,0.1-0.5,0c-0.1-0.1-0.1-0.2,0-0.3C31.9,53.7,32.1,53.7,32.2,53.8z"/>
		<path id="XMLID_00000025416647854840499490000003032291310148670116_" class="st0" d="M33.6,53c0.1,0.1,0.1,0.2,0,0.3
			c-0.1,0.1-0.4,0.1-0.5,0c-0.1-0.1-0.1-0.2,0-0.3C33.2,52.9,33.5,52.9,33.6,53z"/>
		<path id="XMLID_00000034791100796648124820000006158004647077425564_" class="st0" d="M19.3,59.4c0.1-0.1,0.4-0.1,0.5,0
			c0.1,0.1,0.1,0.2,0,0.3c-0.1,0.1-0.4,0.1-0.5,0C19.1,59.6,19.1,59.5,19.3,59.4z"/>
		<path id="XMLID_00000072248107916634770420000017839175328876378759_" class="st0" d="M21.2,58.6c0.1,0.1,0.1,0.2,0,0.3
			c-0.1,0.1-0.4,0.1-0.5,0c-0.1-0.1-0.1-0.2,0-0.3C20.8,58.5,21,58.5,21.2,58.6z"/>
		<path id="XMLID_00000072972726892261547220000017935799662942480046_" class="st0" d="M22.6,57.8c0.1,0.1,0.1,0.2,0,0.3
			c-0.1,0.1-0.4,0.1-0.5,0c-0.1-0.1-0.1-0.2,0-0.3C22.2,57.7,22.4,57.7,22.6,57.8z"/>
		<path id="XMLID_00000127722161887379979090000002265567043309748097_" class="st0" d="M24,57c0.1,0.1,0.1,0.2,0,0.3
			c-0.1,0.1-0.4,0.1-0.5,0c-0.1-0.1-0.1-0.2,0-0.3C23.6,56.9,23.8,56.9,24,57z"/>
		<path id="XMLID_00000171707536217463780520000011655843458747542441_" class="st0" d="M25.3,56.2c0.1,0.1,0.1,0.2,0,0.3
			c-0.1,0.1-0.4,0.1-0.5,0c-0.1-0.1-0.1-0.2,0-0.3C25,56.1,25.2,56.1,25.3,56.2z"/>
		<path id="XMLID_00000085250006139267668550000015437923487061853621_" class="st0" d="M26.7,55.4c0.1,0.1,0.1,0.2,0,0.3
			c-0.1,0.1-0.4,0.1-0.5,0c-0.1-0.1-0.1-0.2,0-0.3C26.3,55.3,26.6,55.3,26.7,55.4z"/>
		<path id="XMLID_00000062903809555526432660000015447592960292715418_" class="st0" d="M28.1,54.6c0.1,0.1,0.1,0.2,0,0.3
			c-0.1,0.1-0.4,0.1-0.5,0c-0.1-0.1-0.1-0.2,0-0.3C27.7,54.5,27.9,54.5,28.1,54.6z"/>
		<path id="XMLID_00000179613718323752498900000013751407504652548233_" class="st0" d="M29.5,53.8c0.1,0.1,0.1,0.2,0,0.3
			c-0.1,0.1-0.4,0.1-0.5,0c-0.1-0.1-0.1-0.2,0-0.3C29.1,53.7,29.3,53.7,29.5,53.8z"/>
		<path id="XMLID_00000000224753009408629960000006508422115503871141_" class="st0" d="M30.9,53c0.1,0.1,0.1,0.2,0,0.3
			c-0.1,0.1-0.4,0.1-0.5,0c-0.1-0.1-0.1-0.2,0-0.3C30.5,52.9,30.7,52.9,30.9,53z"/>
		<path id="XMLID_00000073723041566853033480000007438732585216021392_" class="st0" d="M32.2,52.2c0.1,0.1,0.1,0.2,0,0.3
			c-0.1,0.1-0.4,0.1-0.5,0c-0.1-0.1-0.1-0.2,0-0.3C31.9,52.1,32.1,52.1,32.2,52.2z"/>
		<path id="XMLID_00000106857080416912916340000011625546484159249589_" class="st0" d="M17.9,58.6c0.1-0.1,0.4-0.1,0.5,0
			c0.1,0.1,0.1,0.2,0,0.3c-0.1,0.1-0.4,0.1-0.5,0C17.8,58.8,17.8,58.7,17.9,58.6z"/>
		<path id="XMLID_00000152238366259349086800000012328110489689856175_" class="st0" d="M19.8,57.8c0.1,0.1,0.1,0.2,0,0.3
			c-0.1,0.1-0.4,0.1-0.5,0c-0.1-0.1-0.1-0.2,0-0.3C19.4,57.7,19.7,57.7,19.8,57.8z"/>
		<path id="XMLID_00000132086655516500064700000010953776795356211869_" class="st0" d="M21.2,57c0.1,0.1,0.1,0.2,0,0.3
			c-0.1,0.1-0.4,0.1-0.5,0c-0.1-0.1-0.1-0.2,0-0.3C20.8,56.9,21,56.9,21.2,57z"/>
		<path id="XMLID_00000029010620281797084990000000110806476432528023_" class="st0" d="M22.6,56.2c0.1,0.1,0.1,0.2,0,0.3
			c-0.1,0.1-0.4,0.1-0.5,0c-0.1-0.1-0.1-0.2,0-0.3C22.2,56.1,22.4,56.1,22.6,56.2z"/>
		<path id="XMLID_00000000182675522447111340000005427361124489427073_" class="st0" d="M24,55.4c0.1,0.1,0.1,0.2,0,0.3
			c-0.1,0.1-0.4,0.1-0.5,0c-0.1-0.1-0.1-0.2,0-0.3C23.6,55.3,23.8,55.3,24,55.4z"/>
		<path id="XMLID_00000137124397361563184180000016656473315943709592_" class="st0" d="M25.3,54.6c0.1,0.1,0.1,0.2,0,0.3
			c-0.1,0.1-0.4,0.1-0.5,0c-0.1-0.1-0.1-0.2,0-0.3C25,54.5,25.2,54.5,25.3,54.6z"/>
		<path id="XMLID_00000173845876490759657220000016551678232946588587_" class="st0" d="M26.7,53.8c0.1,0.1,0.1,0.2,0,0.3
			c-0.1,0.1-0.4,0.1-0.5,0c-0.1-0.1-0.1-0.2,0-0.3C26.3,53.7,26.6,53.7,26.7,53.8z"/>
		<path id="XMLID_00000116208700916207610480000007593652841174491565_" class="st0" d="M28.1,53c0.1,0.1,0.1,0.2,0,0.3
			c-0.1,0.1-0.4,0.1-0.5,0c-0.1-0.1-0.1-0.2,0-0.3C27.7,52.9,27.9,52.9,28.1,53z"/>
		<path id="XMLID_00000018915361497014708910000003473014829680014749_" class="st0" d="M29.5,52.2c0.1,0.1,0.1,0.2,0,0.3
			c-0.1,0.1-0.4,0.1-0.5,0c-0.1-0.1-0.1-0.2,0-0.3C29.1,52.1,29.3,52.1,29.5,52.2z"/>
		<path id="XMLID_00000071556229662444152280000010243729708096692410_" class="st0" d="M30.9,51.4c0.1,0.1,0.1,0.2,0,0.3
			c-0.1,0.1-0.4,0.1-0.5,0c-0.1-0.1-0.1-0.2,0-0.3C30.5,51.3,30.7,51.3,30.9,51.4z"/>
		<path id="XMLID_00000122692711724913659250000005242371644149312417_" class="st0" d="M16.5,57.8c0.1-0.1,0.4-0.1,0.5,0
			c0.1,0.1,0.1,0.2,0,0.3c-0.1,0.1-0.4,0.1-0.5,0C16.4,58,16.4,57.9,16.5,57.8z"/>
		<path id="XMLID_00000039114423589965024330000014469055034255373723_" class="st0" d="M18.4,57c0.1,0.1,0.1,0.2,0,0.3
			c-0.1,0.1-0.4,0.1-0.5,0c-0.1-0.1-0.1-0.2,0-0.3C18.1,56.9,18.3,56.9,18.4,57z"/>
		<path id="XMLID_00000122703974533244417020000001869370367438986404_" class="st0" d="M19.8,56.2c0.1,0.1,0.1,0.2,0,0.3
			c-0.1,0.1-0.4,0.1-0.5,0c-0.1-0.1-0.1-0.2,0-0.3C19.4,56.1,19.7,56.1,19.8,56.2z"/>
		<path id="XMLID_00000082353476919611866090000015361406282840153490_" class="st0" d="M21.2,55.4c0.1,0.1,0.1,0.2,0,0.3
			c-0.1,0.1-0.4,0.1-0.5,0c-0.1-0.1-0.1-0.2,0-0.3C20.8,55.3,21,55.3,21.2,55.4z"/>
		<path id="XMLID_00000053509685449164202710000011554890436053183378_" class="st0" d="M22.6,54.6c0.1,0.1,0.1,0.2,0,0.3
			c-0.1,0.1-0.4,0.1-0.5,0c-0.1-0.1-0.1-0.2,0-0.3C22.2,54.5,22.4,54.5,22.6,54.6z"/>
		<path id="XMLID_00000078738845691025272800000003360940356030332563_" class="st0" d="M24,53.8c0.1,0.1,0.1,0.2,0,0.3
			c-0.1,0.1-0.4,0.1-0.5,0c-0.1-0.1-0.1-0.2,0-0.3C23.6,53.7,23.8,53.7,24,53.8z"/>
		<path id="XMLID_00000087373954165781193420000009529316796667210668_" class="st0" d="M25.3,53c0.1,0.1,0.1,0.2,0,0.3
			c-0.1,0.1-0.4,0.1-0.5,0c-0.1-0.1-0.1-0.2,0-0.3C25,52.9,25.2,52.9,25.3,53z"/>
		<path id="XMLID_00000085252249470352616400000002191005201862700421_" class="st0" d="M26.7,52.2c0.1,0.1,0.1,0.2,0,0.3
			c-0.1,0.1-0.4,0.1-0.5,0c-0.1-0.1-0.1-0.2,0-0.3C26.3,52.1,26.6,52.1,26.7,52.2z"/>
		<path id="XMLID_00000145032868995974294870000008101083906256676024_" class="st0" d="M28.1,51.4c0.1,0.1,0.1,0.2,0,0.3
			c-0.1,0.1-0.4,0.1-0.5,0c-0.1-0.1-0.1-0.2,0-0.3C27.7,51.3,27.9,51.3,28.1,51.4z"/>
		<path id="XMLID_00000121972512055281757160000009752707658639467195_" class="st0" d="M29.5,50.6c0.1,0.1,0.1,0.2,0,0.3
			c-0.1,0.1-0.4,0.1-0.5,0c-0.1-0.1-0.1-0.2,0-0.3C29.1,50.5,29.3,50.5,29.5,50.6z"/>
	</g>
	<g id="XMLID_00000097498821405406511470000017496077434665097633_">
		<path id="XMLID_00000090987221115083773180000003831111715138147001_" class="st0" d="M39.4,50.6c0.1,0.1,0.1,0.2,0,0.3
			c-0.1,0.1-0.4,0.1-0.5,0c-0.1-0.1-0.1-0.2,0-0.3C39,50.5,39.2,50.5,39.4,50.6z"/>
		<path id="XMLID_00000147900342022701528400000018357135192106205116_" class="st0" d="M38,49.8c0.1,0.1,0.1,0.2,0,0.3
			c-0.1,0.1-0.4,0.1-0.5,0c-0.1-0.1-0.1-0.2,0-0.3C37.6,49.7,37.9,49.7,38,49.8z"/>
		<path id="XMLID_00000084521721607073515310000007238685412932043663_" class="st0" d="M36.6,49c0.1,0.1,0.1,0.2,0,0.3
			c-0.1,0.1-0.4,0.1-0.5,0c-0.1-0.1-0.1-0.2,0-0.3C36.2,48.9,36.5,48.9,36.6,49z"/>
		<path id="XMLID_00000105428390336973877810000015391545128243233943_" class="st0" d="M35.2,48.2c0.1,0.1,0.1,0.2,0,0.3
			c-0.1,0.1-0.4,0.1-0.5,0c-0.1-0.1-0.1-0.2,0-0.3C34.9,48.1,35.1,48.1,35.2,48.2z"/>
		<path id="XMLID_00000026847676085772702490000006041949310361785789_" class="st0" d="M33.9,47.4c0.1,0.1,0.1,0.2,0,0.3
			c-0.1,0.1-0.4,0.1-0.5,0c-0.1-0.1-0.1-0.2,0-0.3C33.5,47.3,33.7,47.3,33.9,47.4z"/>
		<path id="XMLID_00000155146435702761744060000000299186376054837183_" class="st0" d="M38.8,41.2c0.1-0.1,0.4-0.1,0.5,0
			c0.1,0.1,0.1,0.2,0,0.3c-0.1,0.1-0.4,0.1-0.5,0C38.7,41.4,38.7,41.2,38.8,41.2C39,41.1,38.7,41.2,38.8,41.2z"/>
		<path id="XMLID_00000056391961038262744160000009947312108553800632_" class="st0" d="M40.7,40.4c0.1,0.1,0.1,0.2,0,0.3
			c-0.1,0.1-0.4,0.1-0.5,0c-0.1-0.1-0.1-0.2,0-0.3C40.3,40.3,40.6,40.3,40.7,40.4z"/>
		<path id="XMLID_00000010997614104446266380000017230599082181523589_" class="st0" d="M42.1,39.6c0.1,0.1,0.1,0.2,0,0.3
			c-0.1,0.1-0.4,0.1-0.5,0c-0.1-0.1-0.1-0.2,0-0.3C41.7,39.5,41.9,39.5,42.1,39.6z"/>
		<path id="XMLID_00000108278575221774442100000017542575104032816038_" class="st0" d="M41.6,50.6c0.1-0.1,0.4-0.1,0.5,0
			c0.1,0.1,0.1,0.2,0,0.3c-0.1,0.1-0.4,0.1-0.5,0C41.5,50.8,41.5,50.7,41.6,50.6z"/>
		<path id="XMLID_00000160906945439402954880000014686594400129500820_" class="st0" d="M43.5,49.8c0.1,0.1,0.1,0.2,0,0.3
			c-0.1,0.1-0.4,0.1-0.5,0c-0.1-0.1-0.1-0.2,0-0.3C43.2,49.7,43.4,49.7,43.5,49.8z"/>
		<path id="XMLID_00000021080459149809073650000017733842365276030096_" class="st0" d="M44.9,49c0.1,0.1,0.1,0.2,0,0.3
			c-0.1,0.1-0.4,0.1-0.5,0c-0.1-0.1-0.1-0.2,0-0.3C44.5,48.9,44.8,48.9,44.9,49z"/>
		<path id="XMLID_00000084515476667559417920000002056102328218632614_" class="st0" d="M46.3,48.2c0.1,0.1,0.1,0.2,0,0.3
			c-0.1,0.1-0.4,0.1-0.5,0c-0.1-0.1-0.1-0.2,0-0.3C45.9,48.1,46.2,48.1,46.3,48.2z"/>
		<path id="XMLID_00000002384956494080577010000016036079440840330915_" class="st0" d="M47.7,47.4c0.1,0.1,0.1,0.2,0,0.3
			c-0.1,0.1-0.4,0.1-0.5,0c-0.1-0.1-0.1-0.2,0-0.3C47.3,47.3,47.5,47.3,47.7,47.4z"/>
		<path id="XMLID_00000085955077697024410920000012508687686848295084_" class="st0" d="M49.1,46.6c0.1,0.1,0.1,0.2,0,0.3
			c-0.1,0.1-0.4,0.1-0.5,0c-0.1-0.1-0.1-0.2,0-0.3C48.7,46.5,48.9,46.5,49.1,46.6z"/>
		<path id="XMLID_00000181051647291351396240000003474469988501062573_" class="st0" d="M50.4,45.8c0.1,0.1,0.1,0.2,0,0.3
			c-0.1,0.1-0.4,0.1-0.5,0c-0.1-0.1-0.1-0.2,0-0.3C50.1,45.7,50.3,45.7,50.4,45.8z"/>
		<path id="XMLID_00000179605132266865991760000014841164206334083720_" class="st0" d="M51.8,45c0.1,0.1,0.1,0.2,0,0.3
			c-0.1,0.1-0.4,0.1-0.5,0c-0.1-0.1-0.1-0.2,0-0.3C51.4,44.9,51.7,44.9,51.8,45z"/>
		<path id="XMLID_00000098908926323693004320000003633901331032107702_" class="st0" d="M53.2,44.2c0.1,0.1,0.1,0.2,0,0.3
			c-0.1,0.1-0.4,0.1-0.5,0c-0.1-0.1-0.1-0.2,0-0.3C52.8,44.1,53,44.1,53.2,44.2z"/>
		<path id="XMLID_00000071523652860051436980000015951126738097083801_" class="st0" d="M40.2,49.8c0.1-0.1,0.4-0.1,0.5,0
			c0.1,0.1,0.1,0.2,0,0.3c-0.1,0.1-0.4,0.1-0.5,0C40.1,50,40.1,49.9,40.2,49.8z"/>
		<path id="XMLID_00000155861505535665396500000015528334779674758802_" class="st0" d="M42.2,49c0.1,0.1,0.1,0.2,0,0.3
			c-0.1,0.1-0.4,0.1-0.5,0c-0.1-0.1-0.1-0.2,0-0.3C41.8,48.9,42,48.9,42.2,49z"/>
		<path id="XMLID_00000036936266581025804800000003167982378478720701_" class="st0" d="M43.5,48.2c0.1,0.1,0.1,0.2,0,0.3
			c-0.1,0.1-0.4,0.1-0.5,0c-0.1-0.1-0.1-0.2,0-0.3C43.2,48.1,43.4,48.1,43.5,48.2z"/>
		<path id="XMLID_00000140700636055671002130000010283168006595922840_" class="st0" d="M44.9,47.4c0.1,0.1,0.1,0.2,0,0.3
			c-0.1,0.1-0.4,0.1-0.5,0c-0.1-0.1-0.1-0.2,0-0.3C44.5,47.3,44.8,47.3,44.9,47.4z"/>
		<path id="XMLID_00000059990792073333197460000010832887051617389220_" class="st0" d="M46.3,46.6c0.1,0.1,0.1,0.2,0,0.3
			c-0.1,0.1-0.4,0.1-0.5,0c-0.1-0.1-0.1-0.2,0-0.3C45.9,46.5,46.2,46.5,46.3,46.6z"/>
		<path id="XMLID_00000120539434922594336880000016635336967413328029_" class="st0" d="M47.7,45.8c0.1,0.1,0.1,0.2,0,0.3
			c-0.1,0.1-0.4,0.1-0.5,0c-0.1-0.1-0.1-0.2,0-0.3C47.3,45.7,47.5,45.7,47.7,45.8z"/>
		<path id="XMLID_00000033330553830081265680000003556009358778182334_" class="st0" d="M49.1,45c0.1,0.1,0.1,0.2,0,0.3
			c-0.1,0.1-0.4,0.1-0.5,0c-0.1-0.1-0.1-0.2,0-0.3C48.7,44.9,48.9,44.9,49.1,45z"/>
		<path id="XMLID_00000085937440175175821670000016330035833355970962_" class="st0" d="M50.4,44.2c0.1,0.1,0.1,0.2,0,0.3
			c-0.1,0.1-0.4,0.1-0.5,0c-0.1-0.1-0.1-0.2,0-0.3C50.1,44.1,50.3,44.1,50.4,44.2z"/>
		<path id="XMLID_00000063617251868524091420000006347238807998058942_" class="st0" d="M51.8,43.4c0.1,0.1,0.1,0.2,0,0.3
			c-0.1,0.1-0.4,0.1-0.5,0c-0.1-0.1-0.1-0.2,0-0.3C51.4,43.3,51.7,43.3,51.8,43.4z"/>
		<path id="XMLID_00000145046205588245012020000012684472175351914377_" class="st0" d="M53.2,42.6c0.1,0.1,0.1,0.2,0,0.3
			c-0.1,0.1-0.4,0.1-0.5,0c-0.1-0.1-0.1-0.2,0-0.3C52.8,42.5,53,42.5,53.2,42.6z"/>
		<path id="XMLID_00000145036198774650401370000000499928161723895454_" class="st0" d="M38.9,49c0.1-0.1,0.4-0.1,0.5,0
			c0.1,0.1,0.1,0.2,0,0.3c-0.1,0.1-0.4,0.1-0.5,0C38.7,49.2,38.7,49.1,38.9,49z"/>
		<path id="XMLID_00000083073880998247312730000006390931901810028698_" class="st0" d="M40.8,48.2c0.1,0.1,0.1,0.2,0,0.3
			c-0.1,0.1-0.4,0.1-0.5,0c-0.1-0.1-0.1-0.2,0-0.3C40.4,48.1,40.6,48.1,40.8,48.2z"/>
		<path id="XMLID_00000108287791044675846780000011727787366854961812_" class="st0" d="M42.2,47.4c0.1,0.1,0.1,0.2,0,0.3
			c-0.1,0.1-0.4,0.1-0.5,0c-0.1-0.1-0.1-0.2,0-0.3C41.8,47.3,42,47.3,42.2,47.4z"/>
		<path id="XMLID_00000026883900437876097950000008006497209530187707_" class="st0" d="M43.5,46.6c0.1,0.1,0.1,0.2,0,0.3
			c-0.1,0.1-0.4,0.1-0.5,0c-0.1-0.1-0.1-0.2,0-0.3C43.2,46.5,43.4,46.5,43.5,46.6z"/>
		<path id="XMLID_00000067928173548523664920000012112523511961587343_" class="st0" d="M44.9,45.8c0.1,0.1,0.1,0.2,0,0.3
			c-0.1,0.1-0.4,0.1-0.5,0c-0.1-0.1-0.1-0.2,0-0.3C44.5,45.7,44.8,45.7,44.9,45.8z"/>
		<path id="XMLID_00000144338376742520290200000001476282124111493535_" class="st0" d="M46.3,45c0.1,0.1,0.1,0.2,0,0.3
			c-0.1,0.1-0.4,0.1-0.5,0c-0.1-0.1-0.1-0.2,0-0.3C45.9,44.9,46.2,44.9,46.3,45z"/>
		<path id="XMLID_00000137098813096084686130000006339948821523535544_" class="st0" d="M47.7,44.2c0.1,0.1,0.1,0.2,0,0.3
			c-0.1,0.1-0.4,0.1-0.5,0c-0.1-0.1-0.1-0.2,0-0.3C47.3,44.1,47.5,44.1,47.7,44.2z"/>
		<path id="XMLID_00000094583245741847579000000017400200979232589751_" class="st0" d="M49.1,43.4c0.1,0.1,0.1,0.2,0,0.3
			c-0.1,0.1-0.4,0.1-0.5,0c-0.1-0.1-0.1-0.2,0-0.3C48.7,43.3,48.9,43.3,49.1,43.4z"/>
		<path id="XMLID_00000010276555969353313530000003951227152718192002_" class="st0" d="M50.4,42.6c0.1,0.1,0.1,0.2,0,0.3
			c-0.1,0.1-0.4,0.1-0.5,0c-0.1-0.1-0.1-0.2,0-0.3C50.1,42.5,50.3,42.5,50.4,42.6z"/>
		<path id="XMLID_00000154418464345879498690000003797199493784970385_" class="st0" d="M51.8,41.8c0.1,0.1,0.1,0.2,0,0.3
			c-0.1,0.1-0.4,0.1-0.5,0c-0.1-0.1-0.1-0.2,0-0.3C51.4,41.8,51.7,41.8,51.8,41.8z"/>
		<path id="XMLID_00000007430011857763065560000017185401378054746030_" class="st0" d="M37.5,48.2c0.1-0.1,0.4-0.1,0.5,0
			c0.1,0.1,0.1,0.2,0,0.3c-0.1,0.1-0.4,0.1-0.5,0C37.3,48.4,37.3,48.3,37.5,48.2z"/>
		<path id="XMLID_00000031184357747951322310000010508219106418404737_" class="st0" d="M39.4,47.4c0.1,0.1,0.1,0.2,0,0.3
			c-0.1,0.1-0.4,0.1-0.5,0c-0.1-0.1-0.1-0.2,0-0.3C39,47.3,39.2,47.3,39.4,47.4z"/>
		<path id="XMLID_00000139999811652469171200000007848567696518317239_" class="st0" d="M40.8,46.6c0.1,0.1,0.1,0.2,0,0.3
			c-0.1,0.1-0.4,0.1-0.5,0c-0.1-0.1-0.1-0.2,0-0.3C40.4,46.5,40.6,46.5,40.8,46.6z"/>
		<path id="XMLID_00000169524727293445284840000010872094258020243646_" class="st0" d="M42.1,45.8c0.1,0.1,0.1,0.2,0,0.3
			c-0.1,0.1-0.4,0.1-0.5,0c-0.1-0.1-0.1-0.2,0-0.3C41.8,45.7,42,45.7,42.1,45.8z"/>
		<path id="XMLID_00000036225771844776140920000009009165097281771704_" class="st0" d="M43.5,45c0.1,0.1,0.1,0.2,0,0.3
			c-0.1,0.1-0.4,0.1-0.5,0c-0.1-0.1-0.1-0.2,0-0.3C43.1,44.9,43.4,44.9,43.5,45z"/>
		<path id="XMLID_00000017510018821791879110000015227212314153490111_" class="st0" d="M44.9,44.2c0.1,0.1,0.1,0.2,0,0.3
			c-0.1,0.1-0.4,0.1-0.5,0c-0.1-0.1-0.1-0.2,0-0.3C44.5,44.1,44.8,44.1,44.9,44.2z"/>
		<path id="XMLID_00000160911588744151062770000018296614544930442142_" class="st0" d="M46.3,43.4c0.1,0.1,0.1,0.2,0,0.3
			c-0.1,0.1-0.4,0.1-0.5,0c-0.1-0.1-0.1-0.2,0-0.3C45.9,43.3,46.1,43.3,46.3,43.4z"/>
		<path id="XMLID_00000006701852307609032000000013179479839346011266_" class="st0" d="M47.7,42.6c0.1,0.1,0.1,0.2,0,0.3
			c-0.1,0.1-0.4,0.1-0.5,0c-0.1-0.1-0.1-0.2,0-0.3C47.3,42.5,47.5,42.5,47.7,42.6z"/>
		<path id="XMLID_00000053516899342435409420000010718599525949749129_" class="st0" d="M49,41.8c0.1,0.1,0.1,0.2,0,0.3
			c-0.1,0.1-0.4,0.1-0.5,0c-0.1-0.1-0.1-0.2,0-0.3C48.7,41.7,48.9,41.7,49,41.8z"/>
		<path id="XMLID_00000137843687464718123030000016735712188730105990_" class="st0" d="M50.4,41c0.1,0.1,0.1,0.2,0,0.3
			c-0.1,0.1-0.4,0.1-0.5,0c-0.1-0.1-0.1-0.2,0-0.3C50,40.9,50.3,40.9,50.4,41z"/>
		<path id="XMLID_00000173127269006971238730000013805805677679353216_" class="st0" d="M36.1,47.4c0.1-0.1,0.4-0.1,0.5,0
			c0.1,0.1,0.1,0.2,0,0.3c-0.1,0.1-0.4,0.1-0.5,0C36,47.6,36,47.5,36.1,47.4z"/>
		<path id="XMLID_00000084524267395253140970000017789153086053223570_" class="st0" d="M38,46.6c0.1,0.1,0.1,0.2,0,0.3
			c-0.1,0.1-0.4,0.1-0.5,0c-0.1-0.1-0.1-0.2,0-0.3C37.6,46.5,37.9,46.5,38,46.6z"/>
		<path id="XMLID_00000121252965025002822250000016892744612418569634_" class="st0" d="M39.4,45.8c0.1,0.1,0.1,0.2,0,0.3
			c-0.1,0.1-0.4,0.1-0.5,0c-0.1-0.1-0.1-0.2,0-0.3C39,45.7,39.2,45.7,39.4,45.8z"/>
		<path id="XMLID_00000095305636392327519730000017441858914675484858_" class="st0" d="M40.8,45c0.1,0.1,0.1,0.2,0,0.3
			c-0.1,0.1-0.4,0.1-0.5,0c-0.1-0.1-0.1-0.2,0-0.3C40.4,44.9,40.6,44.9,40.8,45z"/>
		<path id="XMLID_00000080894657011127856990000015182985470025611145_" class="st0" d="M42.1,44.2c0.1,0.1,0.1,0.2,0,0.3
			c-0.1,0.1-0.4,0.1-0.5,0c-0.1-0.1-0.1-0.2,0-0.3C41.8,44.1,42,44.1,42.1,44.2z"/>
		<path id="XMLID_00000181059023854326166160000002616630895331665830_" class="st0" d="M43.5,43.4c0.1,0.1,0.1,0.2,0,0.3
			c-0.1,0.1-0.4,0.1-0.5,0c-0.1-0.1-0.1-0.2,0-0.3C43.1,43.3,43.4,43.3,43.5,43.4z"/>
		<path id="XMLID_00000013185129969729334920000015194741069725931435_" class="st0" d="M44.9,42.6c0.1,0.1,0.1,0.2,0,0.3
			c-0.1,0.1-0.4,0.1-0.5,0c-0.1-0.1-0.1-0.2,0-0.3C44.5,42.5,44.8,42.5,44.9,42.6z"/>
		<path id="XMLID_00000171686308879919705150000012216224096842269870_" class="st0" d="M46.3,41.8c0.1,0.1,0.1,0.2,0,0.3
			c-0.1,0.1-0.4,0.1-0.5,0c-0.1-0.1-0.1-0.2,0-0.3C45.9,41.7,46.1,41.7,46.3,41.8z"/>
		<path id="XMLID_00000015344446891108085400000014939856695004874160_" class="st0" d="M47.7,41c0.1,0.1,0.1,0.2,0,0.3
			c-0.1,0.1-0.4,0.1-0.5,0c-0.1-0.1-0.1-0.2,0-0.3C47.3,40.9,47.5,40.9,47.7,41z"/>
		<path id="XMLID_00000046319549640704168360000012885411774550631843_" class="st0" d="M49,40.2c0.1,0.1,0.1,0.2,0,0.3
			c-0.1,0.1-0.4,0.1-0.5,0c-0.1-0.1-0.1-0.2,0-0.3C48.7,40.2,48.9,40.2,49,40.2z"/>
		<path id="XMLID_00000171711537364465963010000005096679182843807154_" class="st0" d="M34.7,46.6c0.1-0.1,0.4-0.1,0.5,0
			c0.1,0.1,0.1,0.2,0,0.3c-0.1,0.1-0.4,0.1-0.5,0C34.6,46.8,34.6,46.7,34.7,46.6z"/>
		<path id="XMLID_00000138531452062613668470000017059270178699474311_" class="st0" d="M36.6,45.8c0.1,0.1,0.1,0.2,0,0.3
			c-0.1,0.1-0.4,0.1-0.5,0c-0.1-0.1-0.1-0.2,0-0.3C36.2,45.7,36.5,45.7,36.6,45.8z"/>
		<path id="XMLID_00000145746267591411662020000017428328281433691778_" class="st0" d="M38,45c0.1,0.1,0.1,0.2,0,0.3
			c-0.1,0.1-0.4,0.1-0.5,0c-0.1-0.1-0.1-0.2,0-0.3C37.6,44.9,37.9,44.9,38,45z"/>
		<path id="XMLID_00000155843257565126489680000000265790585013894813_" class="st0" d="M39.4,44.2c0.1,0.1,0.1,0.2,0,0.3
			c-0.1,0.1-0.4,0.1-0.5,0c-0.1-0.1-0.1-0.2,0-0.3C39,44.1,39.2,44.1,39.4,44.2z"/>
		<path id="XMLID_00000022529470676667522710000016999489180452898457_" class="st0" d="M40.8,43.4c0.1,0.1,0.1,0.2,0,0.3
			c-0.1,0.1-0.4,0.1-0.5,0c-0.1-0.1-0.1-0.2,0-0.3C40.4,43.3,40.6,43.3,40.8,43.4z"/>
		<path id="XMLID_00000085236977353504561370000013503288688732137907_" class="st0" d="M42.1,42.6c0.1,0.1,0.1,0.2,0,0.3
			c-0.1,0.1-0.4,0.1-0.5,0c-0.1-0.1-0.1-0.2,0-0.3C41.8,42.5,42,42.5,42.1,42.6z"/>
		<path id="XMLID_00000006668126377456320760000015137803086646100129_" class="st0" d="M43.5,41.8c0.1,0.1,0.1,0.2,0,0.3
			c-0.1,0.1-0.4,0.1-0.5,0c-0.1-0.1-0.1-0.2,0-0.3C43.1,41.7,43.4,41.7,43.5,41.8z"/>
		<path id="XMLID_00000178191238294197869860000007471953329960416653_" class="st0" d="M44.9,41c0.1,0.1,0.1,0.2,0,0.3
			c-0.1,0.1-0.4,0.1-0.5,0c-0.1-0.1-0.1-0.2,0-0.3C44.5,40.9,44.8,40.9,44.9,41z"/>
		<path id="XMLID_00000107582271020584809870000017785676851304373938_" class="st0" d="M46.3,40.2c0.1,0.1,0.1,0.2,0,0.3
			c-0.1,0.1-0.4,0.1-0.5,0c-0.1-0.1-0.1-0.2,0-0.3C45.9,40.2,46.1,40.2,46.3,40.2z"/>
		<path id="XMLID_00000054986666922816072730000010514755572492829335_" class="st0" d="M47.7,39.4c0.1,0.1,0.1,0.2,0,0.3
			c-0.1,0.1-0.4,0.1-0.5,0c-0.1-0.1-0.1-0.2,0-0.3C47.3,39.4,47.5,39.4,47.7,39.4z"/>
		<path id="XMLID_00000008123043663981936130000014056143742978965941_" class="st0" d="M33.3,45.8c0.1-0.1,0.4-0.1,0.5,0
			c0.1,0.1,0.1,0.2,0,0.3c-0.1,0.1-0.4,0.1-0.5,0C33.2,46,33.2,45.9,33.3,45.8z"/>
		<path id="XMLID_00000104676599481924689870000006181991077427648133_" class="st0" d="M35.2,45c0.1,0.1,0.1,0.2,0,0.3
			c-0.1,0.1-0.4,0.1-0.5,0c-0.1-0.1-0.1-0.2,0-0.3C34.9,44.9,35.1,44.9,35.2,45z"/>
		<path id="XMLID_00000039124047559734000950000007162974818866677126_" class="st0" d="M36.6,44.2c0.1,0.1,0.1,0.2,0,0.3
			c-0.1,0.1-0.4,0.1-0.5,0c-0.1-0.1-0.1-0.2,0-0.3S36.5,44.1,36.6,44.2z"/>
		<path id="XMLID_00000070805066112982136190000015482229636509594302_" class="st0" d="M38,43.4c0.1,0.1,0.1,0.2,0,0.3
			c-0.1,0.1-0.4,0.1-0.5,0c-0.1-0.1-0.1-0.2,0-0.3C37.6,43.3,37.9,43.3,38,43.4z"/>
		<path id="XMLID_00000000903990211421957950000016512953871078878852_" class="st0" d="M39.4,42.6c0.1,0.1,0.1,0.2,0,0.3
			c-0.1,0.1-0.4,0.1-0.5,0c-0.1-0.1-0.1-0.2,0-0.3C39,42.5,39.2,42.5,39.4,42.6z"/>
		<path id="XMLID_00000036223988507747408090000006129891274746002096_" class="st0" d="M40.8,41.8c0.1,0.1,0.1,0.2,0,0.3
			c-0.1,0.1-0.4,0.1-0.5,0c-0.1-0.1-0.1-0.2,0-0.3C40.4,41.7,40.6,41.7,40.8,41.8z"/>
		<path id="XMLID_00000150785466262907101140000007105532645825510312_" class="st0" d="M42.1,41c0.1,0.1,0.1,0.2,0,0.3
			c-0.1,0.1-0.4,0.1-0.5,0c-0.1-0.1-0.1-0.2,0-0.3C41.8,40.9,42,40.9,42.1,41z"/>
		<path id="XMLID_00000013891208361812787780000016430821581657302414_" class="st0" d="M43.5,40.2c0.1,0.1,0.1,0.2,0,0.3
			c-0.1,0.1-0.4,0.1-0.5,0c-0.1-0.1-0.1-0.2,0-0.3C43.1,40.2,43.4,40.2,43.5,40.2z"/>
		<path id="XMLID_00000105421258081456375230000011489617734213492865_" class="st0" d="M44.9,39.4c0.1,0.1,0.1,0.2,0,0.3
			c-0.1,0.1-0.4,0.1-0.5,0c-0.1-0.1-0.1-0.2,0-0.3C44.5,39.4,44.8,39.4,44.9,39.4z"/>
		<path id="XMLID_00000119821238052405931140000006325312504438925212_" class="st0" d="M46.3,38.6c0.1,0.1,0.1,0.2,0,0.3
			c-0.1,0.1-0.4,0.1-0.5,0c-0.1-0.1-0.1-0.2,0-0.3C45.9,38.6,46.1,38.6,46.3,38.6z"/>
	</g>
	<g>
		<g id="XMLID_00000029037056673400264200000004775317269905545644_">
			<g id="XMLID_00000091720470267159702370000010468905415961016973_">
				<g id="XMLID_00000122685807016902125460000012067098608695168155_">
					<g id="XMLID_00000041276721362783129870000008661451337886410417_">
						<path id="XMLID_00000129888434231495052400000014712977300906633391_" class="st1" d="M37.3,41.5c0-2.1-1.5-4.6-3.3-5.6
							c-0.9-0.5-1.8-0.6-2.4-0.2l0,0l-3.1,1.9l4.4,8.1l3.4-2c0,0,0,0,0,0l0,0l0,0C37,43.3,37.3,42.6,37.3,41.5z"/>
						<path id="XMLID_00000139255513382718457010000004711503339311268027_" class="st2" d="M32.9,45.9l-4.6-8.4l3.5-2.1l0,0
							c0.7-0.3,1.5-0.2,2.4,0.3c1.9,1.1,3.4,3.7,3.4,5.8c0,1.1-0.4,1.9-1,2.3L32.9,45.9z M28.9,37.7l4.2,7.7l3.2-1.9
							c0.6-0.3,0.8-1,0.8-1.9c0-2-1.4-4.4-3.1-5.4c-0.8-0.5-1.6-0.5-2.1-0.2L31.6,36l0,0L28.9,37.7z"/>
					</g>
					<g id="XMLID_00000024709584996652504370000010897864206212212620_">
						<path id="XMLID_00000015316810731118796170000015355958516684709037_" class="st3" d="M34.1,43.5c0,2.1-1.5,2.9-3.3,1.9
							c-1.8-1-3.3-3.6-3.3-5.6c0-2.1,1.5-2.9,3.3-1.9C32.6,38.9,34.1,41.4,34.1,43.5z"/>
						<path id="XMLID_00000052826144344771018840000017010585933645761951_" class="st2" d="M32.3,46c-0.5,0-1-0.2-1.6-0.5
							c-1.9-1.1-3.4-3.7-3.4-5.8c0-1.1,0.4-1.9,1.1-2.3c0.7-0.4,1.6-0.3,2.5,0.2c1.9,1.1,3.4,3.7,3.4,5.8c0,1.1-0.4,1.9-1.1,2.3
							C32.9,45.9,32.6,46,32.3,46z M29.4,37.6c-0.3,0-0.5,0.1-0.7,0.2c-0.5,0.3-0.8,1-0.8,1.9c0,2,1.4,4.4,3.1,5.4
							c0.8,0.5,1.5,0.5,2.1,0.2c0.5-0.3,0.8-1,0.8-1.9c0-2-1.4-4.4-3.1-5.4C30.2,37.8,29.8,37.6,29.4,37.6z"/>
					</g>
					<g id="XMLID_00000026848441400785335470000015727104759963836087_">
						<path id="XMLID_00000039839216232370032240000012585880472559737274_" class="st1" d="M32.4,42.5c0,1-0.7,1.4-1.6,0.9
							s-1.6-1.8-1.6-2.8s0.7-1.4,1.6-0.9C31.7,40.2,32.4,41.5,32.4,42.5z"/>
						<path id="XMLID_00000165211324396067399430000009816421872133988243_" class="st2" d="M31.5,43.9c-0.3,0-0.5-0.1-0.8-0.3
							c-1-0.6-1.7-1.9-1.7-3c0-0.6,0.2-1,0.6-1.2c0.4-0.2,0.9-0.2,1.4,0.1c1,0.6,1.7,1.9,1.7,3c0,0.6-0.2,1-0.6,1.2
							C31.9,43.9,31.7,43.9,31.5,43.9z M30.1,39.7c-0.1,0-0.2,0-0.3,0.1c-0.2,0.1-0.4,0.4-0.4,0.9c0,1,0.7,2.1,1.5,2.6
							c0.4,0.2,0.7,0.2,0.9,0.1c0.2-0.1,0.4-0.4,0.4-0.9c0-1-0.7-2.1-1.5-2.6C30.5,39.8,30.3,39.7,30.1,39.7z"/>
					</g>
					<g id="XMLID_00000158724522263268009370000017137463257804862396_">
						<path id="XMLID_00000049189937041904308550000017541523420489257387_" class="st3" d="M30.8,39.7c-0.2-0.1-0.4-0.2-0.6-0.2
							c-0.1,0.2-0.1,0.4-0.1,0.6c0,1,0.7,2.3,1.6,2.8c0.2,0.1,0.4,0.2,0.6,0.2c0.1-0.2,0.1-0.4,0.1-0.6
							C32.4,41.5,31.7,40.2,30.8,39.7z"/>
						<path id="XMLID_00000148643382445958042010000006751759187930932135_" class="st2" d="M32.5,43.3l-0.2,0
							c-0.2,0-0.5-0.1-0.7-0.2c-1-0.6-1.7-1.9-1.7-3c0-0.2,0-0.5,0.1-0.7l0.1-0.2l0.2,0c0.2,0,0.5,0.1,0.7,0.2l0,0
							c1,0.6,1.7,1.9,1.7,3c0,0.2,0,0.5-0.1,0.7L32.5,43.3z M30.3,39.8c0,0.1,0,0.2,0,0.3c0,1,0.7,2.1,1.5,2.6
							c0.1,0.1,0.2,0.1,0.4,0.2c0-0.1,0-0.2,0-0.3c0-1-0.7-2.1-1.5-2.6l0,0C30.6,39.8,30.5,39.8,30.3,39.8z"/>
					</g>
				</g>
				<g id="XMLID_00000088113708093949505020000014864525955730838426_">
					<path id="XMLID_00000106869571355070319610000000894503796322246053_" class="st4" d="M30.3,16.2l0.2,19.9
						c0.4,0.1,0.8,0.2,1.2,0.5c2.1,1.2,3.9,4.3,3.9,6.7c0,0.4,0,0.7-0.1,1l2.6,1.5c1.3,0.7,3.2,0.8,4.3,0.2l2-1.1l0.3-2.5l3.3-1.9
						l2.1,1.1l2.3-1.4c0.5-0.3,0.6-0.6,0.7-1v0c0,0,0,0,0-0.1l2.9-22.8L30.3,16.2z"/>
					<path id="XMLID_00000142883839147443494210000005420447622577911938_" class="st5" d="M33.3,16.2l10.2,6.5l-2.9,22.8
						c0,0,0,0,0,0.1v0c-0.1,0.3-0.2,0.6-0.6,0.9c0.9,0.1,1.8,0,2.4-0.4l2-1.1l0.3-2.5l3.3-1.9l2.1,1.1l2.3-1.4
						c0.5-0.3,0.6-0.6,0.7-1v0c0,0,0,0,0-0.1l2.9-22.8L33.3,16.2z"/>
					<path id="XMLID_00000124155626393265253550000004599734128606073767_" class="st2" d="M40.5,46.6c-0.9,0-1.8-0.2-2.5-0.6
						l-2.8-1.6l0-0.2c0.1-0.3,0.1-0.6,0.1-1c0-2.4-1.7-5.3-3.8-6.5c-0.4-0.2-0.8-0.4-1.1-0.4l-0.2,0L30.1,16l0.2,0l26,0.2l-2.9,23.1
						c-0.1,0.4-0.3,0.8-0.8,1.1l-2.5,1.4L48,40.6l-3.1,1.8L44.6,45l-2.1,1.2C41.9,46.5,41.2,46.6,40.5,46.6z M35.7,44.2l2.5,1.4
						c1.2,0.7,3,0.8,4,0.2l1.9-1.1l0.3-2.5l3.5-2l2.1,1.1l2.2-1.3c0.4-0.2,0.5-0.5,0.6-0.9l2.9-22.6l-25.3-0.2l0.2,19.5
						c0.3,0.1,0.7,0.2,1.1,0.5c2.2,1.3,4,4.4,4,6.9C35.8,43.6,35.8,43.9,35.7,44.2z"/>
				</g>
				<g id="XMLID_00000007423253507514452280000011588689646356976529_">
					<path id="XMLID_00000045608050136157435040000016730225199239786651_" class="st6" d="M52,25.3c-0.2-0.1-0.5-0.2-0.7,0L47,27.8
						c-0.4,0.2-0.6,0.6-0.7,1l-1.8,13.3l0,0l3.4-2l2.1,1.1l0.3-0.2l1.9-15.1C52.3,25.7,52.2,25.4,52,25.3z"/>
					<g id="XMLID_00000158007833707163491380000008571654716073089937_">
						<path id="XMLID_00000000218779592882860080000010211889717514538156_" class="st1" d="M48,40.4l1.8-14L47.1,28
							c-0.3,0.2-0.5,0.5-0.6,0.8l-1.8,13.5L48,40.4z"/>
						<path id="XMLID_00000172405789271646356030000016628442791025222840_" class="st6" d="M47,27.8c-0.4,0.2-0.6,0.6-0.7,1
							L44.5,42l0.4-0.3l1.8-12.9c0-0.3,0.2-0.5,0.5-0.7l2.3-1.4l-1.7,13.4l0.2,0l0.2,0L50,26L47,27.8z"/>
					</g>
				</g>
				<g id="XMLID_00000066506867037304687350000009575840990817876379_">
					<path id="XMLID_00000101785377143475750820000018111196272092359569_" class="st3" d="M57.4,14.9c0-0.1,0-0.1,0-0.1V11
						c0-0.1,0-0.1-0.1-0.1l-7.7-0.5l-3.8-2.2C44.3,7.4,42.2,7.3,41,8l-4.2,2.4l-7.7,0.3c0,0-0.1,0-0.1,0.1v3.7c0,0.1,0,0.1,0,0.2v0
						l0,0c0,0.5,0.4,1,1.2,1.5l10.5,6c1.4,0.8,3.5,0.9,4.7,0.2L56.5,16C57,15.7,57.3,15.3,57.4,14.9L57.4,14.9L57.4,14.9z"/>
					<path id="XMLID_00000128473455337145430390000008095610154147030166_" class="st2" d="M43.3,23.1c-1,0-2-0.2-2.8-0.7l-10.5-6
						c-0.8-0.4-1.2-1-1.3-1.6c0-0.1,0-0.1,0-0.2l0-3.7c0-0.2,0.1-0.3,0.3-0.3l7.6-0.3l4.2-2.4c1.3-0.7,3.5-0.6,5,0.2l3.8,2.2
						l7.7,0.5c0.2,0,0.3,0.2,0.3,0.3v3.7c0,0.1,0,0.1,0,0.2l0,0c0,0.5-0.4,0.9-0.9,1.3l-11.2,6.4C44.9,23,44.1,23.1,43.3,23.1z
						 M29.2,11v3.6c0,0.1,0,0.1,0,0.2c0,0.5,0.4,0.9,1,1.3l10.5,6c1.3,0.8,3.4,0.9,4.5,0.2l11.2-6.4c0.4-0.2,0.7-0.6,0.7-0.9h0
						l0-0.1c0,0,0-0.1,0-0.1l0-3.6l-7.7-0.6l-3.8-2.2c-1.3-0.8-3.4-0.9-4.5-0.2l-4.3,2.5L29.2,11z"/>
				</g>
				<g id="XMLID_00000067208788837414663300000014077124501694155412_">
					<path id="XMLID_00000085235090015954435260000002762758421628126632_" class="st3" d="M56.5,12.2l-11.2,6.4
						c-1.2,0.7-3.3,0.6-4.7-0.2l-10.5-6c-1.4-0.8-1.6-2-0.3-2.7L41,3.2c1.2-0.7,3.3-0.6,4.7,0.2l10.5,6
						C57.6,10.3,57.7,11.5,56.5,12.2z"/>
					<path id="XMLID_00000070827632031133187390000016022296901704664494_" class="st6" d="M40.5,18.4c1.4,0.8,3.5,0.9,4.7,0.2
						l11.1-6.4c-0.1-0.1-0.3-0.2-0.5-0.3l-10.5-6C44,5,41.9,5,40.7,5.7l-11.1,6.4c0.1,0.1,0.3,0.2,0.5,0.3L40.5,18.4z"/>
					<path id="XMLID_00000136407316514766701170000004847192751611145615_" class="st2" d="M43.3,19.3c-1,0-2-0.2-2.8-0.7l-10.5-6
						c-0.8-0.5-1.3-1.1-1.3-1.7c0-0.5,0.3-1,0.9-1.4L40.9,3c1.3-0.7,3.5-0.6,5,0.2l10.5,6c0.8,0.5,1.3,1.1,1.3,1.7
						c0,0.5-0.3,1-0.9,1.4l-11.2,6.4C44.9,19.2,44.1,19.3,43.3,19.3z M43,3c-0.7,0-1.4,0.1-1.9,0.4L29.9,9.8c-0.5,0.3-0.7,0.6-0.7,1
						c0,0.5,0.4,1,1.1,1.4l10.5,6c1.3,0.8,3.4,0.9,4.5,0.2L56.4,12c0.5-0.3,0.7-0.6,0.7-1c0-0.5-0.4-1-1.1-1.4l-10.5-6
						C44.9,3.2,43.9,3,43,3z"/>
				</g>
				<g id="XMLID_00000011018048268166020640000009176200821657206167_">
					<g id="XMLID_00000155837304365717647850000007494801574550576014_">
						<path id="XMLID_00000101091256712438118370000012382232104284787372_" class="st3" d="M53.9,8.1L42.5,1.5
							c-0.5-0.3-1-0.3-1.4-0.1L31.1,7.3c0,0,0,0,0,0l14.8,11.1L56,12.5v-0.4C56,10.6,55.1,8.8,53.9,8.1z"/>
						<path id="XMLID_00000149363996300526151410000010281779984676725176_" class="st6" d="M54.1,9.8L42.7,3.2
							c-0.5-0.3-1-0.3-1.4-0.1l-8.9,5.2L46,18.4l10-5.8C55.7,11.4,54.9,10.3,54.1,9.8z"/>
						<path id="XMLID_00000095303255507780520100000006279725276656545158_" class="st2" d="M45.9,18.6L30.8,7.4l0-0.1l0-0.1L31,7.1
							l10.1-5.9c0.5-0.3,1-0.2,1.6,0.1L54,7.9c1.2,0.7,2.2,2.6,2.2,4.2v0.6L45.9,18.6z M31.4,7.3l14.5,10.8l9.9-5.7v-0.3
							c0-1.5-0.9-3.2-2-3.8L42.4,1.7c-0.4-0.3-0.8-0.3-1.1-0.1L31.4,7.3z"/>
					</g>
					<g id="XMLID_00000183232694613114986730000014825801552397606828_">
						<path id="XMLID_00000174583827959835368780000014054720558487492002_" class="st3" d="M45.9,18.4l-15.6-9V9
							c0-1.5,0.9-2.2,2.1-1.6L43.8,14c1.2,0.7,2.1,2.5,2.1,4V18.4z"/>
						<path id="XMLID_00000129885134175841042230000013585726676471187858_" class="st2" d="M46.1,18.8l-16-9.2V9
							c0-0.9,0.3-1.6,0.8-1.9c0.5-0.3,1-0.2,1.6,0.1l11.4,6.6c1.2,0.7,2.2,2.6,2.2,4.2V18.8z M30.6,9.3L45.7,18V18
							c0-1.5-0.9-3.2-2-3.8L32.3,7.6c-0.4-0.3-0.8-0.3-1.1-0.1c-0.4,0.2-0.6,0.8-0.6,1.5V9.3z"/>
					</g>
				</g>
			</g>
			<polygon id="XMLID_00000063619799953131619890000006685713315394059409_" class="st2" points="45,15.2 55.1,9.3 55.8,10.6 
				56,12.5 45.9,18.4 45.7,16.6 			"/>
			<polygon id="XMLID_00000096040226595215358210000003524686710591570085_" class="st2" points="43.4,19.1 43.4,22.9 44.8,22.7 
				56.9,15.7 57.3,14.9 57.2,11.4 56.5,12.2 45.4,18.6 44,19.1 			"/>
			<path id="XMLID_00000110444554742349592030000009724360459619184571_" class="st6" d="M45.5,22.7l10.3-6v-0.5l-10.5,6.1
				c-0.3,0.2-0.8,0.3-1.2,0.4v0.4C44.6,23,45.1,22.9,45.5,22.7z"/>
			<polygon id="XMLID_00000051356110550610222930000008321726224574033301_" class="st3" points="55.7,12.5 46.4,17.9 46.4,18.4 
				55.7,13 			"/>
			<g id="XMLID_00000072997198914670234010000006383758673695713423_">
				<path id="XMLID_00000002349623055889442760000012192109806370724251_" class="st3" d="M48.1,11.4L47,12
					c-0.6,0.3-1.6,0.3-2.3-0.1l-6-3.4c-0.7-0.4-0.8-1-0.2-1.3l1.1-0.6c0.6-0.3,1.6-0.3,2.3,0.1l6,3.4C48.6,10.4,48.7,11,48.1,11.4z"
					/>
				<path id="XMLID_00000078739118089053484190000005606879180621254321_" class="st5" d="M46.2,11.1c-0.5,0-1-0.1-1.4-0.4l-6-3.4
					c-0.4-0.2-0.7-0.6-0.7-0.9c0-0.3,0.2-0.6,0.5-0.8L39.7,5c0.7-0.4,1.8-0.3,2.5,0.1l6,3.4c0.4,0.2,0.7,0.6,0.7,0.9
					c0,0.3-0.2,0.6-0.5,0.8l-1.1,0.6C47,11.1,46.6,11.1,46.2,11.1z M40.9,5.2c-0.3,0-0.7,0.1-0.9,0.2L38.9,6
					c-0.1,0.1-0.3,0.2-0.3,0.4c0,0.2,0.2,0.4,0.5,0.6l6,3.4c0.6,0.4,1.6,0.4,2.1,0.1l1.1-0.6c0.1-0.1,0.3-0.2,0.3-0.4
					c0-0.2-0.2-0.4-0.5-0.6l-6-3.4C41.7,5.3,41.3,5.2,40.9,5.2z"/>
			</g>
		</g>
		<g id="XMLID_00000017496684378079495850000015698052143611050397_">
			<g id="XMLID_00000064329559533035812570000003636880828176929695_">
				<g id="XMLID_00000173877879498273881410000010643587733378871453_">
					<g id="XMLID_00000018232597219249702550000014998472442137658295_">
						<path id="XMLID_00000097482329981629151910000000388049218283574701_" class="st1" d="M16.4,53.9c0-2.1-1.5-4.6-3.3-5.6
							c-0.9-0.5-1.8-0.6-2.4-0.2l0,0L7.7,50l4.4,8.1l3.4-2c0,0,0,0,0,0l0,0l0,0C16,55.7,16.4,55,16.4,53.9z"/>
						<path id="XMLID_00000062882387706877701470000004729272091051108231_" class="st2" d="M12,58.3l-4.6-8.4l3.5-2.1l0,0
							c0.7-0.3,1.5-0.2,2.4,0.3c1.9,1.1,3.4,3.7,3.4,5.8c0,1.1-0.4,1.9-1,2.3L12,58.3z M8,50l4.2,7.7l3.2-1.9c0.6-0.3,0.8-1,0.8-1.9
							c0-2-1.4-4.4-3.1-5.4c-0.8-0.5-1.6-0.5-2.1-0.2l-0.2,0.1l0,0L8,50z"/>
					</g>
					<g id="XMLID_00000096780549020288727230000007669035237897728918_">
						<path id="XMLID_00000000945408905965901570000007789108624862142592_" class="st7" d="M13.1,55.9c0,2.1-1.5,2.9-3.3,1.9
							c-1.8-1-3.3-3.6-3.3-5.6c0-2.1,1.5-2.9,3.3-1.9C11.7,51.3,13.1,53.8,13.1,55.9z"/>
						<path id="XMLID_00000157284602233555705140000015582233293396112546_" class="st2" d="M11.3,58.4c-0.5,0-1-0.2-1.6-0.5
							c-1.9-1.1-3.4-3.7-3.4-5.8c0-1.1,0.4-1.9,1.1-2.3c0.7-0.4,1.6-0.3,2.5,0.2c1.9,1.1,3.4,3.7,3.4,5.8c0,1.1-0.4,1.9-1.1,2.3
							C12,58.3,11.7,58.4,11.3,58.4z M8.4,50c-0.3,0-0.5,0.1-0.7,0.2c-0.5,0.3-0.8,1-0.8,1.9c0,2,1.4,4.4,3.1,5.4
							c0.8,0.5,1.5,0.5,2.1,0.2c0.5-0.3,0.8-1,0.8-1.9c0-2-1.4-4.4-3.1-5.4C9.3,50.1,8.9,50,8.4,50z"/>
					</g>
					<g id="XMLID_00000048495325878858594120000010183373180109087899_">
						<path id="XMLID_00000090268974139199158930000016186480859006183594_" class="st1" d="M11.5,54.9c0,1-0.7,1.4-1.6,0.9
							C9,55.3,8.3,54.1,8.3,53c0-1,0.7-1.4,1.6-0.9C10.8,52.6,11.5,53.9,11.5,54.9z"/>
						<path id="XMLID_00000117650923074185139650000013024853304501983142_" class="st2" d="M10.6,56.3c-0.3,0-0.5-0.1-0.8-0.3
							c-1-0.6-1.7-1.9-1.7-3c0-0.6,0.2-1,0.6-1.2c0.4-0.2,0.9-0.2,1.4,0.1c1,0.6,1.7,1.9,1.7,3c0,0.6-0.2,1-0.6,1.2
							C11,56.2,10.8,56.3,10.6,56.3z M9.2,52.1c-0.1,0-0.2,0-0.3,0.1c-0.2,0.1-0.4,0.4-0.4,0.9c0,1,0.7,2.1,1.5,2.6
							c0.4,0.2,0.7,0.2,0.9,0.1c0.2-0.1,0.4-0.4,0.4-0.9c0-1-0.7-2.1-1.5-2.6C9.6,52.2,9.4,52.1,9.2,52.1z"/>
					</g>
					<g id="XMLID_00000099636610973887906430000017656794038448650633_">
						<path id="XMLID_00000042725863045856162430000004989870648642970023_" class="st8" d="M9.9,52.1c-0.2-0.1-0.4-0.2-0.6-0.2
							c-0.1,0.2-0.1,0.4-0.1,0.6c0,1,0.7,2.3,1.6,2.8c0.2,0.1,0.4,0.2,0.6,0.2c0.1-0.2,0.1-0.4,0.1-0.6
							C11.5,53.9,10.8,52.6,9.9,52.1z"/>
						<path id="XMLID_00000147915285031927818730000001866173379661431169_" class="st2" d="M11.5,55.7l-0.2,0
							c-0.2,0-0.5-0.1-0.7-0.2c-1-0.6-1.7-1.9-1.7-3c0-0.2,0-0.5,0.1-0.7l0.1-0.2l0.2,0c0.2,0,0.5,0.1,0.7,0.2l0,0
							c1,0.6,1.7,1.9,1.7,3c0,0.2,0,0.5-0.1,0.7L11.5,55.7z M9.4,52.1c0,0.1,0,0.2,0,0.3c0,1,0.7,2.1,1.5,2.6
							c0.1,0.1,0.2,0.1,0.4,0.2c0-0.1,0-0.2,0-0.3c0-1-0.7-2.1-1.5-2.6l0,0C9.7,52.2,9.5,52.2,9.4,52.1z"/>
					</g>
				</g>
				<g id="XMLID_00000060712762084451038470000013707495106910742681_">
					<path id="XMLID_00000014619585866256648320000008888979712678579870_" class="st9" d="M9.4,28.6l0.2,19.9
						c0.4,0.1,0.8,0.2,1.2,0.5c2.1,1.2,3.9,4.3,3.9,6.7c0,0.4,0,0.7-0.1,1l2.6,1.5c1.3,0.7,3.2,0.8,4.3,0.2l2-1.1l0.3-2.5l3.3-1.9
						l2.1,1.1l2.3-1.4c0.5-0.3,0.6-0.6,0.7-1v0c0,0,0,0,0-0.1l2.9-22.8L9.4,28.6z"/>
					<path id="XMLID_00000078729150385530394100000012755634503902477457_" class="st5" d="M12.3,28.6L22.6,35l-2.9,22.8
						c0,0,0,0,0,0.1v0c-0.1,0.3-0.2,0.6-0.6,0.9c0.9,0.1,1.8,0,2.4-0.4l2-1.1l0.3-2.5l3.3-1.9l2.1,1.1l2.3-1.4
						c0.5-0.3,0.6-0.6,0.7-1v0c0,0,0,0,0-0.1l2.9-22.8L12.3,28.6z"/>
					<path id="XMLID_00000035526290828919315340000017497292807203421853_" class="st2" d="M19.6,59c-0.9,0-1.8-0.2-2.5-0.6
						l-2.8-1.6l0-0.2c0.1-0.3,0.1-0.6,0.1-1c0-2.4-1.7-5.3-3.8-6.5c-0.4-0.2-0.8-0.4-1.1-0.4l-0.2,0L9.2,28.4l0.2,0l26,0.2
						l-2.9,23.1c-0.1,0.4-0.3,0.8-0.8,1.1l-2.5,1.4L27.1,53L24,54.8l-0.3,2.5l-2.1,1.2C21,58.9,20.3,59,19.6,59z M14.8,56.6l2.5,1.4
						c1.2,0.7,3,0.8,4,0.2l1.9-1.1l0.3-2.5l3.5-2l2.1,1.1l2.2-1.3c0.4-0.2,0.5-0.5,0.6-0.9L34.9,29L9.6,28.8l0.2,19.5
						c0.3,0.1,0.7,0.2,1.1,0.5c2.2,1.3,4,4.4,4,6.9C14.9,56,14.8,56.3,14.8,56.6z"/>
				</g>
				<g id="XMLID_00000170258675647010223110000007520932153242195361_">
					<path id="XMLID_00000008149965830695667940000013306050700999599544_" class="st10" d="M31,37.7c-0.2-0.1-0.5-0.2-0.7,0
						L26,40.2c-0.4,0.2-0.6,0.6-0.7,1l-1.8,13.3l0,0l3.4-2l2.1,1.1l0.3-0.2l1.9-15.1C31.4,38.1,31.3,37.8,31,37.7z"/>
					<g id="XMLID_00000024699723461625581060000008071650779706166151_">
						<path id="XMLID_00000109743542351133712980000014543988366098188169_" class="st1" d="M27.1,52.8l1.8-14l-2.7,1.6
							c-0.3,0.2-0.5,0.5-0.6,0.8l-1.8,13.5L27.1,52.8z"/>
						<path id="XMLID_00000050652161357272861580000018114402942341547406_" class="st10" d="M26,40.2c-0.4,0.2-0.6,0.6-0.7,1
							l-1.8,13.3l0.4-0.3l1.8-12.9c0-0.3,0.2-0.5,0.5-0.7l2.3-1.4l-1.7,13.4l0.2,0l0.2,0l1.8-14.3L26,40.2z"/>
					</g>
				</g>
				<g id="XMLID_00000078743073092812232890000016248092636568378041_">
					<path id="XMLID_00000119117085765620040280000014517553017455646896_" class="st8" d="M36.4,27.2c0-0.1,0-0.1,0-0.1v-3.7
						c0-0.1,0-0.1-0.1-0.1l-7.7-0.5l-3.8-2.2c-1.4-0.8-3.5-0.9-4.7-0.2l-4.2,2.4l-7.7,0.3c0,0-0.1,0-0.1,0.1v3.7c0,0.1,0,0.1,0,0.2
						v0l0,0c0,0.5,0.4,1,1.2,1.5l10.5,6c1.4,0.8,3.5,0.9,4.7,0.2l11.2-6.4C36.1,28.1,36.4,27.7,36.4,27.2L36.4,27.2L36.4,27.2z"/>
					<path id="XMLID_00000057109601940162225340000012867502174077094285_" class="st2" d="M22.4,35.5c-1,0-2-0.2-2.8-0.7l-10.5-6
						c-0.8-0.4-1.2-1-1.3-1.6c0-0.1,0-0.1,0-0.2l0-3.7c0-0.2,0.1-0.3,0.3-0.3l7.6-0.3l4.2-2.4c1.3-0.7,3.5-0.6,5,0.2l3.8,2.2
						l7.7,0.5c0.2,0,0.3,0.2,0.3,0.3v3.7c0,0.1,0,0.1,0,0.2l0,0c0,0.5-0.4,0.9-0.9,1.3L24.6,35C24,35.3,23.2,35.5,22.4,35.5z
						 M8.3,23.4v3.6c0,0.1,0,0.1,0,0.2c0,0.5,0.4,0.9,1,1.3l10.5,6c1.3,0.8,3.4,0.9,4.5,0.2l11.2-6.4c0.4-0.2,0.7-0.6,0.7-0.9h0
						l0-0.1c0,0,0-0.1,0-0.1l0-3.6l-7.7-0.6l-3.8-2.2c-1.3-0.8-3.4-0.9-4.5-0.2L15.8,23L8.3,23.4z"/>
				</g>
				<g id="XMLID_00000133521306678839846860000011581362016170346655_">
					<path id="XMLID_00000075885412259144537270000007647923489401399224_" class="st8" d="M35.6,24.6L24.5,31
						c-1.2,0.7-3.3,0.6-4.7-0.2l-10.5-6c-1.4-0.8-1.6-2-0.3-2.7l11.2-6.4c1.2-0.7,3.3-0.6,4.7,0.2l10.5,6
						C36.7,22.7,36.8,23.9,35.6,24.6z"/>
					<path id="XMLID_00000139264496771717374170000009729587728822313402_" class="st10" d="M19.6,30.8c1.4,0.8,3.5,0.9,4.7,0.2
						l11.1-6.4c-0.1-0.1-0.3-0.2-0.5-0.3l-10.5-6c-1.4-0.8-3.5-0.9-4.7-0.2L8.6,24.4c0.1,0.1,0.3,0.2,0.5,0.3L19.6,30.8z"/>
					<path id="XMLID_00000111185120578992291250000003632719369111232142_" class="st2" d="M22.4,31.7c-1,0-2-0.2-2.8-0.7L9.1,25
						c-0.8-0.5-1.3-1.1-1.3-1.7c0-0.5,0.3-1,0.9-1.4L20,15.4c1.3-0.7,3.5-0.6,5,0.2l10.5,6c0.8,0.5,1.3,1.1,1.3,1.7
						c0,0.5-0.3,1-0.9,1.4l-11.2,6.4C24,31.5,23.2,31.7,22.4,31.7z M22.1,15.3c-0.7,0-1.4,0.1-1.9,0.4L9,22.2
						c-0.5,0.3-0.7,0.6-0.7,1c0,0.5,0.4,1,1.1,1.4l10.5,6c1.3,0.8,3.4,0.9,4.5,0.2l11.2-6.4c0.5-0.3,0.7-0.6,0.7-1
						c0-0.5-0.4-1-1.1-1.4l-10.5-6C24,15.6,23,15.3,22.1,15.3z"/>
				</g>
				<g id="XMLID_00000154418818933234459730000000877649257894020748_">
					<g id="XMLID_00000098925812060984230940000011521989548861988993_">
						<path id="XMLID_00000147929782243125783190000010106940412600003238_" class="st8" d="M33,20.5l-11.4-6.6
							c-0.5-0.3-1-0.3-1.4-0.1l-10.1,5.9c0,0,0,0,0,0L25,30.8l10.1-5.9v-0.4C35.1,22.9,34.2,21.1,33,20.5z"/>
						<path id="XMLID_00000165235517635473266470000013582604828943216257_" class="st10" d="M33.2,22.2l-11.4-6.6
							c-0.5-0.3-1-0.3-1.4-0.1l-8.9,5.2l13.6,10.1l10-5.8C34.8,23.8,34,22.7,33.2,22.2z"/>
						<path id="XMLID_00000142854658046565952670000017632691948620774811_" class="st2" d="M25,31L9.9,19.8l0-0.1l0-0.1l0.1-0.1
							l10.1-5.9c0.5-0.3,1-0.2,1.6,0.1l11.4,6.6c1.2,0.7,2.2,2.6,2.2,4.2V25L25,31z M10.5,19.7L25,30.5l9.9-5.7v-0.3
							c0-1.5-0.9-3.2-2-3.8l-11.4-6.6c-0.4-0.3-0.8-0.3-1.1-0.1L10.5,19.7z"/>
					</g>
					<g id="XMLID_00000075122840591336336590000001072677155795828360_">
						<path id="XMLID_00000041268604835426027210000016172318604590406843_" class="st8" d="M25,30.8l-15.6-9v-0.4
							c0-1.5,0.9-2.2,2.1-1.6l11.4,6.6c1.2,0.7,2.1,2.5,2.1,4V30.8z"/>
						<path id="XMLID_00000008859579523388181420000015735866961029407903_" class="st2" d="M25.2,31.1l-16-9.2v-0.6
							c0-0.9,0.3-1.6,0.8-1.9c0.5-0.3,1-0.2,1.6,0.1L23,26.2c1.2,0.7,2.2,2.6,2.2,4.2V31.1z M9.6,21.7l15.1,8.7v-0.1
							c0-1.5-0.9-3.2-2-3.8L11.4,20c-0.4-0.3-0.8-0.3-1.1-0.1c-0.4,0.2-0.6,0.8-0.6,1.5V21.7z"/>
					</g>
				</g>
			</g>
			<polygon id="XMLID_00000023992155894091346490000014794898214773490852_" class="st2" points="24.1,27.6 34.2,21.6 34.9,23 
				35.1,24.9 25,30.8 24.8,29 			"/>
			<polygon id="XMLID_00000061433458739414729990000016986164680122665887_" class="st2" points="22.4,31.5 22.4,35.3 23.9,35.1 
				36,28.1 36.4,27.3 36.3,23.8 35.6,24.6 24.5,31 23.1,31.5 			"/>
			<path id="XMLID_00000005265268193341463640000005634797999448150203_" class="st10" d="M24.6,35l10.3-6v-0.5l-10.5,6.1
				C24,34.9,23.6,35,23.1,35v0.4C23.7,35.4,24.2,35.3,24.6,35z"/>
			<polygon id="XMLID_00000051362707053552026730000015357547641278535585_" class="st8" points="34.8,24.9 25.4,30.3 25.4,30.8 
				34.8,25.4 			"/>
			<g id="XMLID_00000122688121191639247220000007245797831012755111_">
				<path id="XMLID_00000097501430176089001720000010506199898196943031_" class="st8" d="M27.2,23.8l-1.1,0.6
					c-0.6,0.3-1.6,0.3-2.3-0.1l-6-3.4c-0.7-0.4-0.8-1-0.2-1.3l1.1-0.6c0.6-0.3,1.6-0.3,2.3,0.1l6,3.4C27.7,22.8,27.8,23.4,27.2,23.8
					z"/>
				<path id="XMLID_00000124882483586593761550000009976994093711136152_" class="st5" d="M25.3,23.5c-0.5,0-1-0.1-1.4-0.4l-6-3.4
					c-0.4-0.2-0.7-0.6-0.7-0.9c0-0.3,0.2-0.6,0.5-0.8l1.1-0.6c0.7-0.4,1.8-0.3,2.5,0.1l6,3.4c0.4,0.2,0.7,0.6,0.7,0.9
					c0,0.3-0.2,0.6-0.5,0.8l-1.1,0.6C26.1,23.4,25.7,23.5,25.3,23.5z M19.9,17.6c-0.3,0-0.7,0.1-0.9,0.2L18,18.4
					c-0.1,0.1-0.3,0.2-0.3,0.4c0,0.2,0.2,0.4,0.5,0.6l6,3.4c0.6,0.4,1.6,0.4,2.1,0.1l1.1-0.6c0.1-0.1,0.3-0.2,0.3-0.4
					c0-0.2-0.2-0.4-0.5-0.6l-6-3.4C20.8,17.7,20.3,17.6,19.9,17.6z"/>
			</g>
		</g>
	</g>
</g>
</svg>
