<?xml version="1.0" encoding="utf-8"?>
<!-- Generator: Adobe Illustrator 28.3.0, SVG Export Plug-In . SVG Version: 6.00 Build 0)  -->
<svg version="1.1" id="Cabeza" xmlns="http://www.w3.org/2000/svg" xmlns:xlink="http://www.w3.org/1999/xlink" x="0px" y="0px"
	 viewBox="0 0 976 976" style="enable-background:new 0 0 976 976;" xml:space="preserve">
<style type="text/css">
	.st0{fill:#FFFFFF;}
	.st1{fill:#E3E3E3;}
	.st2{fill:#371A45;}
	.st3{fill:#D6D6D6;}
	.st4{opacity:0.35;}
	.st5{fill:#111A28;}
	.st6{opacity:0.5;}
</style>
<g>
	<g>
		<g>
			<g>
				<g>
					<g>
						<g>
							<g>
								<path class="st0" d="M830.8,387.7c0,0,79.3,30.1,87.5,44.8c15.1,27.2,12.3,187.3-29.5,229c-16.4,16.3-136.7,31.6-136.7,31.6
									L830.8,387.7z"/>
							</g>
						</g>
						<g>
							<g>
								<path class="st1" d="M752.1,693.1c0,0,120.3-15.3,136.7-31.6c16.3-16.3,26.7-50.6,32.4-88c-1.3,1.2-43.8,37.9-128.6-36.7
									c0,0-0.1-0.1-0.2-0.1L752.1,693.1z"/>
							</g>
						</g>
						<g>
							<g>
								<path class="st0" d="M223.9,693.1c0,0-120.3-15.3-136.7-31.6c-16.3-16.3-26.7-50.6-32.4-88c0,0,0,0,0,0
									C46,515,48.5,449.1,57.7,432.5c8.1-14.7,87.5-44.8,87.5-44.8l38.4,148.9L223.9,693.1z"/>
							</g>
						</g>
						<g>
							<g>
								<path class="st1" d="M223.9,693.1c0,0-120.3-15.3-136.7-31.6c-16.3-16.3-26.7-50.6-32.4-88c1.3,1.2,43.8,37.9,128.6-36.7
									c0,0,0.1-0.1,0.2-0.1L223.9,693.1z"/>
							</g>
						</g>
						<g>
							<g>
								<path class="st2" d="M740.1,703.6l84.5-327.8l9.3,3.5c24.8,9.4,83.3,32.9,92.1,48.8c16.8,30.2,14.6,194.1-31,239.7
									c-17.6,17.6-121.3,31.5-141.9,34.1L740.1,703.6z M836.9,399.7L764,682.5c54-7.5,110.2-19.1,118.4-27.3
									c38.6-38.5,41.5-194,28-218.4C906.3,430.1,870.8,413.1,836.9,399.7z"/>
							</g>
						</g>
						<g>
							<g>
								<path class="st2" d="M235.9,703.6l-13-1.7c-20.6-2.6-124.2-16.5-141.9-34.1c-45.6-45.6-47.8-209.4-31-239.7
									c8.8-15.8,67.4-39.4,92.1-48.8l9.3-3.5L235.9,703.6z M139.1,399.7c-33.9,13.4-69.4,30.5-73.6,37.2
									C52,461.2,55,616.7,93.6,655.2c8.2,8.2,64.4,19.8,118.4,27.3L139.1,399.7z"/>
							</g>
						</g>
					</g>
					<g>
						<g>
							<polygon class="st3" points="486.8,554.7 486.8,556.1 486,555.4 							"/>
						</g>
					</g>
					<g>
						<g>
							<polygon class="st3" points="486,555.4 485.1,556.1 485.1,554.7 							"/>
						</g>
					</g>
					<g>
						<g>
							<circle class="st0" cx="488" cy="488" r="367.9"/>
						</g>
					</g>
					<g>
						<g>
							<path class="st1" d="M855.8,488c0,203.2-164.7,367.9-367.9,367.9S120.1,691.2,120.1,488c0-21.5,1.8-42.5,5.4-62.9
								C155.3,598.3,306.3,730,488,730c181.7,0,332.6-131.7,362.5-304.9C854,445.5,855.8,466.5,855.8,488z"/>
						</g>
					</g>
					<g>
						<g>
							<path class="st2" d="M488,864.8c-207.8,0-376.8-169-376.8-376.8s169-376.8,376.8-376.8s376.8,169,376.8,376.8
								S695.7,864.8,488,864.8z M488,129.1C290.1,129.1,129,290.1,129,488s161,358.9,358.9,358.9s358.9-161,358.9-358.9
								S685.9,129.1,488,129.1z"/>
						</g>
					</g>
					<g>
						<g>
							<path class="st2" d="M488,864.8c-207.8,0-376.8-169-376.8-376.8s169-376.8,376.8-376.8s376.8,169,376.8,376.8
								S695.7,864.8,488,864.8z M488,129.1C290.1,129.1,129,290.1,129,488s161,358.9,358.9,358.9s358.9-161,358.9-358.9
								S685.9,129.1,488,129.1z"/>
						</g>
					</g>
					<g>
						<g>
							<path class="st2" d="M488,864.8c-207.8,0-376.8-169-376.8-376.8s169-376.8,376.8-376.8s376.8,169,376.8,376.8
								S695.7,864.8,488,864.8z M488,129.1C290.1,129.1,129,290.1,129,488s161,358.9,358.9,358.9s358.9-161,358.9-358.9
								S685.9,129.1,488,129.1z"/>
						</g>
					</g>
					<g>
						<g>
							<path class="st2" d="M488,864.8c-171.7,0-321.5-115.8-364.6-281.7c-0.1-0.2-0.1-0.4-0.2-0.6c-7.9-30.6-12-62.4-12-94.5
								c0-14.2,0.8-28.4,2.4-42.2C134.8,255.1,295.7,111.2,488,111.2c192.3,0,353.3,143.9,374.4,334.7c1.6,13.8,2.3,28,2.3,42.1
								c0,32-4,63.8-11.9,94.5c-0.1,0.2-0.1,0.4-0.2,0.6C809.5,749,659.6,864.8,488,864.8z M140.5,578.1
								C181.4,736.4,324.3,846.9,488,846.9s306.6-110.5,347.5-268.8c0.1-0.2,0.1-0.5,0.2-0.7c7.4-29,11.2-59.1,11.2-89.4
								c0-13.4-0.7-26.9-2.2-40.1C824.5,266.1,671.1,129.1,488,129.1c-183.1,0-336.4,137-356.7,318.7c-1.5,13.1-2.3,26.7-2.3,40.2
								c0,30.4,3.8,60.4,11.2,89.4C140.4,577.6,140.4,577.9,140.5,578.1z"/>
						</g>
					</g>
					<g>
						<g>
							<path class="st2" d="M843,400.5c-3.5,0-6.8-2-8.2-5.4C776.7,260.2,640.6,173,488,173c-152.5,0-288.6,87.1-346.8,221.8
								c-1.9,4.3-6.7,6.4-11.1,4.9c-4.4-1.5-6.9-6.2-5.7-10.8C168.8,225.4,318.3,111.2,488,111.2c169.8,0,319.3,114.3,363.7,278
								c1.2,4.5-1.3,9.2-5.7,10.8C845,400.3,844,400.5,843,400.5z M488,155.2c114.2,0,219.6,46.7,292.7,125
								C714.7,187.5,606.5,129.1,488,129.1c-118.5,0-226.7,58.5-292.6,151C268.5,201.9,373.8,155.2,488,155.2z"/>
						</g>
					</g>
					<g>
						<g>
							<path class="st2" d="M855.8,488c0,31.8-4,62.8-11.6,92.2c0,0,0,0,0,0C780.3,703.6,644.8,809.6,488,809.6
								c-156.8,0-292.3-106.1-356.1-229.4c0,0,0,0,0,0c-7.6-29.5-11.7-60.4-11.7-92.2c0-13.9,0.8-27.7,2.3-41.2
								C172,309.5,316.9,210.2,488,210.2c171.1,0,316,99.4,365.6,236.8C855,460.4,855.8,474.1,855.8,488z"/>
						</g>
					</g>
					<g class="st4">
						<g>
							<path class="st5" d="M855.8,488c0,31.8-4,62.8-11.6,92.2c0,0,0,0,0,0C780.3,703.6,644.8,809.6,488,809.6
								S195.6,703.6,131.8,580.3c0,0,0,0,0,0c-4.5-17.6-7.8-35.6-9.7-54.1c82.5,92.7,202.4,160.1,335.9,160.1
								c170.1,0,318.2-109.4,394.9-241.1c0.2,0.6,0.5,1.2,0.7,1.8C855,460.4,855.8,474.1,855.8,488z"/>
						</g>
					</g>
					<g class="st6">
						<g>
							
								<ellipse transform="matrix(0.1583 -0.9874 0.9874 0.1583 151.6074 1153.0889)" class="st0" cx="752.2" cy="487.6" rx="63.1" ry="45.7"/>
						</g>
					</g>
					<g class="st6">
						<g>
							
								<ellipse transform="matrix(0.2933 -0.956 0.956 0.2933 -92.8197 1101.6982)" class="st0" cx="698.7" cy="613.6" rx="28.9" ry="24.8"/>
						</g>
					</g>
					<g class="st6">
						<g>
							<path class="st0" d="M201.5,597.4c0,0-60.8-180.6,35.8-255.1s237.5-77,234.4-67.9c0,0-155.3,40.9-213.8,165.5
								C212.6,536.1,201.5,597.4,201.5,597.4z"/>
						</g>
					</g>
				</g>
			</g>
		</g>
	</g>
</g>
</svg>
