<?xml version="1.0" encoding="utf-8"?>
<svg version="1.1" id="Capa_1" xmlns="http://www.w3.org/2000/svg" xmlns:xlink="http://www.w3.org/1999/xlink" x="0px" y="0px"
	 viewBox="0 0 976 976" style="enable-background:new 0 0 976 976;" xml:space="preserve">
<style type="text/css">
	.st0{fill:#93C1C1;}
	.st1{fill:#FFFFFF;}
	.st2{fill:#16110D;}
</style>
<g id="XMLID_00000109014132600367151130000012871899226421534102_">
	<g id="XMLID_00000128454058764891084680000011012963452422920864_">
		<polygon id="XMLID_00000152236034614998942620000001399402498611071911_" class="st0" points="488,891.6 138.5,689.8 138.5,286.2 
			488,488 		"/>
		<polygon id="XMLID_00000150090689221312192280000015056507008054770347_" class="st0" points="837.5,286.2 488,488 138.5,286.2 
			488,84.4 		"/>
		<polygon id="XMLID_00000134244179537910495190000005828867457816026018_" class="st1" points="837.5,356 551.8,519.6 202.3,317.8 
			488,154.2 		"/>
		<path id="XMLID_00000116957576157422281630000014896395633645974973_" class="st2" d="M488,72.5L138.5,274.3l-10.3,6.3v415.1
			l349.5,201.8l0,0l10.3,5.9l10.3-5.9l0,0l349.5-201.8V292.1v-11.9L488,72.5z M488,96.2l329,189.9l-165.1,95.4L488,476.1l-51.6-29.8
			L159,286.2L488,96.2z M148.7,683.9V304l329,190v379.9L148.7,683.9z"/>
	</g>
	<path id="XMLID_00000048468097578865675230000018017077826434588331_" class="st2" d="M403.7,770.7l-53.3-30.8
		c-8.5-4.9-15.5-18.2-15.5-29.6v-56.1c0-11.4,6.9-16.6,15.5-11.7l53.3,30.8c8.5,4.9,15.5,18.2,15.5,29.5v56.1
		C419.2,770.4,412.2,775.7,403.7,770.7z"/>
</g>
</svg>
