<?xml version="1.0" encoding="utf-8"?>
<!-- Generator: Adobe Illustrator 28.3.0, SVG Export Plug-In . SVG Version: 6.00 Build 0)  -->
<svg version="1.1" id="Capa_1" xmlns="http://www.w3.org/2000/svg" xmlns:xlink="http://www.w3.org/1999/xlink" x="0px" y="0px"
	 viewBox="0 0 976 976" style="enable-background:new 0 0 976 976;" xml:space="preserve">
<style type="text/css">
	.st0{fill:#505A61;}
	.st1{fill:#0064FF;}
	.st2{fill:#3C1847;}
	.st3{fill:#9C9CB4;}
	.st4{fill:#FFFFFF;}
	.st5{fill:#8C8DB5;}
	.st6{fill:#E4E6E7;}
	.st7{fill:#000557;}
	.st8{fill:#0E1A29;}
	.st9{fill:#A4A4BA;}
	.st10{fill:#101465;}
	.st11{opacity:0.5;fill:#FFFFFF;enable-background:new    ;}
	.st12{fill:#0054C5;}
	.st13{fill:#2A315E;}
	.st14{fill:#8080A8;}
	.st15{opacity:0.44;fill:url(#SVGID_1_);enable-background:new    ;}
	.st16{fill:#C8C1BC;}
	.st17{opacity:0.44;fill:url(#SVGID_00000046304103955945765510000008118526235474966670_);enable-background:new    ;}
	.st18{fill:#F6EDE7;}
</style>
<g>
	<g>
		<path class="st0" d="M707.3,927.2c-25.2,4.9-49.4,0.8-57.9-1c4.2-6.2,15.5-20.6,29.2-20.9c0.1,0,0.3,0,0.4,0
			C688.8,905.2,698.4,912.5,707.3,927.2z"/>
		<path class="st0" d="M687.1,888.5l3.8,14.8c-3.9-2-7.9-3-11.9-2.9c-0.2,0-0.4,0-0.6,0c-8.6,0.2-16.2,4.8-22.1,10.1l-21.5-29.8
			c0.8-1.7,4.7-6.9,23.6-9.8c0.8,0,6.2-0.1,12.2,1.9C678.9,875.7,684.5,880.8,687.1,888.5z"/>
		<path class="st1" d="M619.8,475.1c1.1,10.4,4.1,20.2,9.1,29.4c4.2,7.5,8.1,13,11.3,17.3c8,10.9,12,16.4,7.7,36.2
			c-0.4,1.8-3.4,9.7-6.3,16.9c-16.5-52.2-41.3-122.4-65.8-159.3c0.5-0.5,1-0.9,1.4-1.4c2.8-2.8,5.7-5.4,8.5-8
			c1.9-1.6,3.6-3.2,5.4-4.8C608.5,417.1,617.4,450.6,619.8,475.1z"/>
		<path class="st2" d="M629.9,304.2l-0.4,0.6l0,0c-25.1,43.3-78.2,68.1-149.5,69.9c-87.3,2.1-148-31.6-166.8-92.6
			c7.9-11,13.3-26.3,14.1-43.4c0.8-16.6-2.7-32.6-9.9-44.9c-1.4-2.3-2.8-4.4-4.4-6.3C333,113.7,398.3,61,472.2,59.2
			c84.3-2.1,156.3,59,171.4,145.2v0.2c1.5,9,2.4,18.1,2.7,27.3C647.1,259.5,641.6,283.9,629.9,304.2"/>
		<path class="st3" d="M643.6,253.8c-1.6,1.4-3,2.9-4.7,4.2c-0.9,14.9-3.9,28.8-8.8,41.4c4.6-8.7,8.2-18.2,10.6-28.7
			C642,265.4,643,259.6,643.6,253.8 M458.4,61.8c-13.9,1.5-27.2,4.9-39.8,9.7c-16.8,6.4-32.3,15.6-46.2,26.9
			c-7.6,6.3-14.8,13.4-21.3,20.9c26.6-26.7,61.2-44.2,98.9-48.6C452.8,67.7,455.5,64.7,458.4,61.8"/>
		<path class="st4" d="M449,37.2c69.9-1.7,132.3,33.9,167.1,89.5c-8.3-11.4-17.8-21.9-28.7-31.1c-32.3-27.7-73.3-42.4-115.1-41.3
			c-38.3,0.9-74.4,14.5-104.2,39.2c-14.4,11.9-26.8,26-37,41.8c-9.5,14.8-16.8,31-21.7,48c-6.1-6-13.4-9.4-21.1-9.8
			c-0.7-0.1-1.4-0.1-2.2,0c-6.2,0.2-12,2.3-17.5,5.9C290.3,97.4,363.5,39.2,449,37.2"/>
		<path class="st5" d="M430.4,40.5c-37,4.5-70.5,19.6-97.7,42.2c-28.5,23.7-50,55.6-60.8,92c1.6-0.7,3.2-1.5,4.9-2
			c2.9-1,6-1.4,9.1-1.5c0.8,0,1.5,0,2.3,0c2.8,0.1,5.6,0.7,8.2,1.5C316.6,106.8,367.5,57.3,430.4,40.5"/>
		<path class="st4" d="M256.7,276.8c-6.8-11.4-10.1-26.4-9.2-42.1c0.7-15.2,5.3-29.4,12.7-40.1c7.2-10.3,16.4-16.1,26-16.3
			c0.6,0,1.2,0,1.8,0.1c9.8,0.5,18.9,6.8,25.4,18c6.8,11.4,10.1,26.4,9.2,42.1c-0.7,15.2-5.3,29.4-12.7,40.1
			c-7.2,10.3-16.4,16.1-26,16.3l0,0c-0.6,0-1.2,0-1.8-0.1C272.2,294.4,263.2,288,256.7,276.8"/>
		<path class="st5" d="M286.1,180.1c-2.5,0.1-4.9,0.5-7.4,1.4c-2.4,0.9-4.7,2.1-7,3.8c-4.6,3.3-8.8,8.1-12.4,14.1
			c-2.4,4.1-4.4,8.5-6,13.5c-2.1,6.6-3.5,13.9-3.9,21.6l0,0c-0.1,2.2-0.1,4.4,0,6.5c0.2,9.5,2,18.3,4.9,25.9
			c2.9,7.5,6.9,13.7,11.6,18.1c3.1,2.9,6.5,5,10.1,6.3c2,0.7,4.1,1.1,6.2,1.2c0.6,0,1.1,0.1,1.7,0.1c2.5-0.1,4.9-0.5,7.4-1.4
			c0.3-0.1,0.6-0.2,0.9-0.3c-3.2-2.5-6.1-5.8-8.8-9.7c-7.6-10.9-11.9-25.6-12.2-41.3c-0.4-15.3,3.2-29.8,9.8-40.9
			c4.6-7.6,10.4-13.2,16.7-16c-1.1-0.6-2.3-1.1-3.4-1.5c-2-0.7-4.1-1.1-6.2-1.2C287.2,180.1,286.7,180.1,286.1,180.1"/>
		<path class="st4" d="M281.8,299.6c0.7,0.1,1.4,0.1,2.2,0l0,0c9.5-0.2,18.4-5.1,25.6-13.1c10.5,31.5,31.4,55.5,62.1,71.6
			c28.9,15.1,66.4,22.5,108.5,21.4c59.4-1.5,106.6-18.7,136.1-49.2c-12.8,20.5-29.5,38.4-49.1,52.9c-0.4,0.2-0.7,0.4-1,0.6l-1,0.6
			c-0.6,0.4-1.3,0.9-1.9,1.3c-0.6,0.4-1.1,0.8-1.7,1.2h-0.1c-22.5,15.4-47.5,25.6-74.4,30.3c-0.1,0-0.1-0.1-0.2-0.1
			c-4.5-1.9-9.1-3.8-13.6-5.5s-9.2-3.4-13.8-4.9c-4.6-1.5-9.4-3-14-4.3c-4.7-1.4-9.5-2.6-14.2-3.8c-4.7-1.2-9.5-2.3-14.3-3.4
			c-4.7-1.1-9.6-2-14.4-2.8c-4.8-0.9-9.6-1.8-14.5-2.4c-2.4-0.4-4.8-0.8-7.2-1.1c-2.4-0.3-4.8-0.7-7.2-1c-2.4-0.3-4.8-0.6-7.2-0.9
			l-3.6-0.4l-3.6-0.4c-4.8-0.5-9.7-1-14.5-1.3c-0.6-0.1-1.2-0.1-1.8-0.2c-30.5-22-54.5-52.6-67.8-86.5
			C277.3,299.1,279.5,299.5,281.8,299.6"/>
		<path class="st5" d="M303.8,294.5c-3.2,2.4-6.8,4.3-10.6,5.5c-2.9,1-6,1.4-9.1,1.5c-0.8,0-1.5,0-2.3,0c-0.9-0.1-1.8-0.2-2.7-0.2
			c13.4,31.9,36.2,60.6,65.1,81.7c0.2,0,0.5,0,0.7,0.1c4.9,0.4,9.7,0.8,14.6,1.2l3.6,0.4l3.6,0.4c2.4,0.2,4.8,0.6,7.3,0.8
			c2.4,0.3,4.8,0.7,7.3,0.9c1.4,0.2,2.9,0.4,4.3,0.6C357.7,366.1,320.2,340.1,303.8,294.5"/>
		<path class="st4" d="M524,435.5c-0.2,0.4-0.4,0.9-0.6,1.3c-0.2-0.1-0.4-0.3-0.5-0.4c-1-0.7-2-1.4-3.1-2c-2-1.4-4.2-2.6-6.3-3.8
			c-4.3-2.5-8.6-4.8-13-7c-1.8-0.9-3.6-1.8-5.5-2.6c17.5-3.7,34.3-9.8,50-18.1L545,403l-1.5,1.7c-1,1.1-1.9,2.3-2.9,3.6
			c-1,1.2-1.8,2.4-2.8,3.7c-0.5,0.6-0.9,1.2-1.4,1.8c-0.5,0.6-0.9,1.2-1.3,1.8l-1.3,1.9l-1.3,1.9c-0.4,0.6-0.8,1.3-1.2,1.9l-1.2,1.9
			l-1.2,2l-0.6,1l-0.6,1l-1.1,2l-1.1,2C525.4,432.8,524.8,434.1,524,435.5z"/>
		<path class="st1" d="M337.3,630.7c3.8,1.3,7.7,2.5,11.6,3.7c6.8,2,13.5,4,20.3,5.7c6,1.6,12.2,3,18.3,4.3
			c-0.3,4.5,1.7,11.3,10.6,15.9l1.4,0.8l1.3-1c0.4-0.3,9.4-7.9,19.8-21.5c9.6-12.4,22.3-32.5,28-56.9l0.4-1.4l-1-1
			c-0.5-0.4-10.9-9.6-19.4-4.3c-0.3-0.3-0.6-0.6-0.9-0.9c-0.8-0.8-1.6-1.5-2.5-2.2c-1.6-1.5-3.3-2.9-4.9-4.4s-3.4-2.8-5-4.2
			c-1.7-1.4-3.5-2.7-5.2-4.1s-3.5-2.6-5.3-4c-1.7-1.3-3.6-2.5-5.4-3.8s-3.7-2.5-5.5-3.7s-3.8-2.3-5.6-3.5c-1.9-1.2-3.8-2.2-5.7-3.3
			c-0.2-0.1-0.4-0.2-0.6-0.4c0.2-1.5,0.3-3.3,0.4-5.6c0.1-1.3,0.1-2.7,0.2-4.2s0.1-3.1,0.1-4.7c0.1-1.6,0-3.3,0-5.1
			c0-1.7,0-3.5-0.1-5.2c0-1.8-0.2-3.5-0.2-5.3c0-0.9-0.1-1.7-0.2-2.6c-0.1-0.8-0.1-1.7-0.3-2.5c-0.1-0.8-0.1-1.6-0.3-2.4
			c-0.1-0.8-0.2-1.6-0.4-2.3c-0.1-0.8-0.2-1.5-0.4-2.2c-0.1-0.7-0.2-1.4-0.4-2c-0.1-0.7-0.3-1.3-0.4-1.9s-0.3-1.2-0.4-1.7
			c-0.3-1-0.5-1.9-0.9-2.7c-0.1-0.4-0.2-0.7-0.4-1c-0.1-0.3-0.1-0.5-0.2-0.7c-0.2-0.4-0.3-0.6-0.3-0.6s0,0.3,0.1,0.7
			c0,0.4,0,0.9,0,1.7c0.1,0.8,0.1,1.7,0.2,2.7c0,0.5,0,1.1,0,1.7s0,1.2,0,1.9c0,0.6,0,1.3,0,2s0,1.4,0.1,2.2c0,1.5,0,3.1-0.1,4.7
			s-0.1,3.3-0.1,5c-0.1,1.7-0.1,3.4-0.2,5.2c-0.1,1.7-0.1,3.5-0.2,5.2c-0.1,1.7-0.2,3.4-0.3,5c-0.2,3.2-0.3,6.3-0.5,8.9
			c-0.1,1.2-0.1,2.3-0.1,3.3c-0.1-0.1-0.2-0.1-0.3-0.2c-1.9-1-3.9-1.9-6-2.8c-2-0.9-4-1.8-6.2-2.5c-1-0.4-2.1-0.7-3.1-1.1
			c-1-0.4-2.1-0.6-3.1-0.9c-2.1-0.5-4.3-1.1-6.4-1.4c-2.2-0.3-4.4-0.6-6.6-0.7h-0.1c-1.1-0.1-1.3,1.4-0.3,1.8h0.1
			c2.1,0.5,4.1,1.2,6.1,1.9c2,0.7,4,1.4,6,2.3l2.9,1.2c0.5,0.2,1,0.4,1.5,0.7c0.5,0.2,1,0.4,1.4,0.7c1.9,0.9,3.8,1.7,5.8,2.7
			c1.9,1,3.8,1.9,5.7,3c1.9,1.1,3.8,2.1,5.6,3.2c1.8,1.1,3.7,2.2,5.5,3.4s3.6,2.3,5.4,3.5c1.7,1.2,3.6,2.4,5.3,3.6
			c1.7,1.3,3.5,2.5,5.2,3.8s3.5,2.5,5.2,3.9c1.7,1.3,3.4,2.6,5.1,4s3.4,2.6,5,4s3.4,2.7,5,4.1c1.3,1.1,2.7,2.2,3.9,3.3
			c-0.2,1.1-0.3,2.2-0.6,3.3c-0.3,1.5-0.6,3-1,4.5s-0.8,3-1.3,4.4c-0.5,1.5-0.9,2.9-1.5,4.4c-2.2,5.9-4.8,11.4-8.1,16.8
			c-3.2,5.3-6.8,10.4-10.9,15.1c-2,2.4-4.2,4.6-6.4,6.8c-1.1,1.1-2.2,2.2-3.4,3.2c-0.6,0.5-1.2,1-1.8,1.5l-0.9,0.7h-0.1
			c-6.4-1.3-12.9-2.8-19.2-4.4c-6.7-1.7-13.5-3.6-20.1-5.6c-6.7-2-13.3-4.3-19.8-6.6c-6.6-2.4-12.9-5-19.2-7.9
			c-6.3-2.9-12.5-6.1-18.2-9.8c-1.4-1-2.8-1.8-4.3-2.9c-0.3-0.3-0.7-0.5-1-0.8l-1-0.8l-1-0.8l-1-0.8c-2.6-2.1-4.9-4.6-7.1-7.1
			c-4.3-5.2-7.6-11.1-9.7-17.5c-2.2-6.3-3.1-13.1-3-19.8c0.2-6.7,1.7-13.3,4.2-19.6c1.3-3.1,2.9-6.1,4.7-8.9c0.2-0.4,0.5-0.7,0.7-1
			l0.4-0.5l0.4-0.5l1.5-2.1c1-1.4,2-2.9,3-4.2c4.2-5.6,8.4-11.1,12.8-16.5s8.9-10.7,13.6-15.8c4.7-5.2,9.5-10.2,14.3-15.2
			s10-9.7,15-14.5c10.3-9.3,21.2-18,32.7-25.6c9.1,0.1,19.6,1,30.9,2.7c5.8,0.9,11.8,2,17.9,3.3c6,1.3,12.2,2.7,18.3,4.2
			c6.1,1.5,12.2,3.1,18.1,4.9c5.9,1.7,11.8,3.4,17.4,5.2c5.6,1.8,11.1,3.5,16.2,5.2s10,3.4,14.4,4.9c4.4,1.6,8.5,3.1,12.1,4.3
			c3.6,1.2,6.9,2.1,9.6,2.9c1,0.3,2,0.6,2.9,0.7c1.2,0.3,1.9-1.3,0.9-2c-0.8-0.5-1.6-1-2.6-1.4c-2.4-1.3-5.5-2.9-9-4.4
			s-7.6-3.1-12.1-4.8c-4.4-1.7-9.3-3.5-14.4-5.2c-5.1-1.8-10.6-3.6-16.2-5.5c-5.6-1.8-11.6-3.6-17.5-5.3c-6-1.7-12.2-3.3-18.3-4.9
			c-6.1-1.4-12.4-2.8-18.6-3.9c-6.1-1.1-12.3-2.2-18.2-3c-11.8-1.5-23.1-2.2-32.7-2c-0.5,0-1,0-1.5,0l0,0h-0.1
			c-4.2,0.1-8.1,0.5-11.5,1.1c-3.9,0.6-7.2,1.5-9.8,2.3c-1.3,0.4-2.5,0.9-3.6,1.3c-1,0.4-1.3,0.2-1.9,0.6c-1.4,0.6-1.8,0.9-1.8,0.9
			s0.5,0,2-0.2s3-0.2,5.7-0.5s6-0.7,9.8-0.9c1.6-0.1,3.2-0.2,5-0.3c-9.5,6.7-18.5,14.1-27.2,21.9c-5.2,4.7-10.4,9.7-15.2,14.6
			c-5,5-9.8,10.1-14.5,15.4c-4.7,5.2-9.3,10.5-13.7,16c-4.5,5.4-8.8,11-13,16.7c-1.1,1.4-2,2.9-3.1,4.3l-0.9,1.2
			c-6-2.6-25.9-12.6-33-32.4c-5.5-15.1-2.4-32.6,8.9-52l1-1.7l-1.4-1.4c-4.4-4.1-15.4-16.2-13.1-23.7c1.2-3.9,6.1-6.4,14.7-7.5
			l3.6-0.5l-1.8-3.2c-0.1-0.2-11-19.7-2.3-33.3c3.1-4.9,8.5-8.5,16-10.8c9.1-2.7,21.3-3.5,36.5-2.4c9.7,11.9,20.8,22.8,33,32.3
			c-1.3-0.1-2.6-0.1-3.8-0.2c-2.4-0.1-4.9-0.2-7.3-0.2s-4.9,0-7.3,0c-2.4,0.1-4.9,0.1-7.3,0.3c-1.2,0-2.4,0.2-3.7,0.3l0,0
			c-0.6,0-0.6,0.8-0.1,0.9l0,0c1.2,0.2,2.4,0.3,3.6,0.5c2.4,0.3,4.8,0.7,7.2,0.9c2.4,0.3,4.8,0.6,7.2,0.8c2.4,0.2,4.8,0.5,7.2,0.7
			c4.8,0.5,9.6,0.9,14.4,1.4s9.6,1.1,14.4,1.6l3.6,0.4l3.6,0.5c2.4,0.3,4.8,0.7,7.2,1c2.4,0.3,4.8,0.7,7.1,1.1
			c2.4,0.4,4.8,0.8,7.1,1.2c4.7,0.8,9.5,1.7,14.3,2.7c4.7,1,9.4,1.9,14.2,3c4.7,1.1,9.5,2.2,14.1,3.4c4.7,1.2,9.4,2.5,14,3.8
			c4.6,1.4,9.3,2.8,13.8,4.3c4.6,1.5,9.2,3.1,13.7,4.7c4.5,1.7,9,3.4,13.4,5.3s8.9,3.8,13.1,5.9c4.4,2.1,8.6,4.2,12.9,6.6
			c2.1,1.1,4.2,2.4,6.2,3.6c1,0.6,2,1.3,3,1.9c0.5,0.3,1,0.7,1.4,1c0.5,0.3,1,0.7,1.4,1l2.5,1.9l1.2-2.9c0.6-1.3,1.1-2.7,1.7-4
			s1.2-2.6,1.9-3.9l1-1.9l1.1-1.9l0.5-1l0.6-0.9l1.1-1.9l1.2-1.9c0.4-0.6,0.8-1.2,1.2-1.8l1.2-1.8l1.3-1.8c0.4-0.6,0.9-1.2,1.3-1.8
			c0.4-0.6,0.9-1.2,1.3-1.8c0.9-1.2,1.7-2.3,2.7-3.5c0.9-1.1,1.8-2.2,2.8-3.4l1.5-1.6l1.5-1.6c1-1.1,1.9-2.1,3-3.2
			c0.5-0.5,1.1-1,1.6-1.5s1.1-1,1.6-1.5s1.1-1,1.6-1.5c0.6-0.5,1.1-1,1.7-1.4c1.1-0.9,2.3-2,3.3-2.8c0.6-0.5,1.2-0.9,1.8-1.4
			c7.1-4.9,13.8-10,20-15.7c0.1,0,0.1,0,0.2,0c0.9,0.2,2.2,0.3,3.7,0.7c1.6,0.4,3.5,0.9,5.5,1.8c1,0.4,2,1,2.9,1.5s1.7,1.4,2.1,2.1
			c0.4,0.8,0.5,1.5,0.3,2.5c-0.3,1-0.8,2.2-1.7,3.3c-0.9,1.2-1.9,2.3-3.1,3.5c-0.3,0.3-0.6,0.5-0.9,0.8c-0.3,0.3-0.7,0.6-1,0.9
			c-0.4,0.3-0.7,0.6-1.1,0.9s-0.7,0.5-1.1,0.8c-2.9,2.4-5.9,4.9-8.7,7.6c-2.9,2.7-5.9,5.3-8.7,8.2s-5.6,5.7-8.3,8.7
			c-2.6,3-5.2,5.9-7.5,8.9s-4.5,5.9-6.5,8.8c-1.9,2.9-3.7,5.7-5.1,8.4c-0.8,1.3-1.3,2.7-1.9,3.9c-0.5,1.3-1,2.5-1.4,3.7
			c-0.7,2.4-1.2,4.5-1.4,6.3c-0.1,0.9-0.1,0.9-0.2,1.6c-0.1,0.7-0.1,1.1-0.1,1.6s0,0.7,0,0.9c0,0.2,0.1,0.8,0.1,0.8s0.4-0.5,0.5-0.8
			c0.1-0.2,0.1-0.1,0.3-0.6c0.2-0.4,0.1-0.3,0.4-0.9c0.3-0.6,0.6-1.3,0.9-2.1c0.8-1.5,1.6-3.3,2.8-5.5c0.3-0.5,0.6-1,0.9-1.6
			c0.3-0.5,0.7-1.1,1-1.6c0.4-0.6,0.7-1.1,1.1-1.7c0.4-0.6,0.7-1.2,1.2-1.8c0.4-0.6,0.8-1.2,1.2-1.8c0.4-0.6,0.9-1.2,1.3-1.9
			c0.9-1.3,1.8-2.6,2.7-4c1.9-2.6,4.2-5.5,6.5-8.3s4.9-5.6,7.5-8.5c1.1-1.1,2.1-2.3,3.3-3.5C601.4,464.2,630.8,555,646,606
			c7.2,24.3-11.5,42.4-29.6,50.4C567.7,678,497.5,679,447.2,676.2c-51.5-2.9-93.3-10.5-98.3-11.4C337.1,655.2,337.1,635,337.3,630.7
			"/>
		<path class="st1" d="M427.3,592.8c0.5-1.5,0.9-3.1,1.3-4.7c0.4-1.6,0.7-3.2,1.1-4.7c0.3-1.3,0.4-2.6,0.7-3.9
			c4.4-3.2,10.6,0.6,13.1,2.6c-5.6,22.8-17.5,41.6-26.6,53.5c-7.9,10.3-15.1,17.2-17.9,19.7c-6.9-4.2-6.7-9.5-6.5-11.3
			c0.1-0.1,0.2-0.1,0.3-0.2l1-0.8c0.6-0.5,1.3-1,1.9-1.5c1.3-1,2.4-2.2,3.6-3.3c2.3-2.3,4.6-4.6,6.7-7.1c4.3-4.9,8.2-10.2,11.4-15.8
			c3.4-5.6,6.2-11.5,8.5-17.6C426.2,596,426.8,594.5,427.3,592.8"/>
		<path class="st6" d="M426.5,580L426.5,580L426.5,580z"/>
		<path class="st4" d="M341.6,679.3c-0.5-3.6,0.9-8.6,6.2-10.9c0.1,0,0.1,0,0.2-0.1c5.8,1.1,47.5,8.5,98.7,11.5
			c19.2,1.1,37.5,1.4,54.7,1c11.8-0.3,23-1,33.8-1.9c33.1-3.1,61.1-9.5,83-19.2c9.4-4.1,17.5-10,23.3-16.9c4.5,1.6,7.7,5.4,8.5,10.3
			c0.8,5.3-1.4,10.4-6.1,13.3c-13.8,8.6-39.8,20.2-85.8,26.7c-55.3,7.8-125.2,6.2-207.7-4.8C344.7,687.5,342.1,683,341.6,679.3"/>
		<path class="st0" d="M298.2,882.5c2.3-7.7,7.7-13.2,15.8-16.4c5.8-2.2,11.2-2.5,12-2.5c19.2,1.9,23.3,6.9,24.1,8.6l-18,29.5
			c-4.3-4.1-9.8-7.5-16.5-8.2c-6.8-0.7-13.9,1.5-21,6.7L298.2,882.5"/>
		<path class="st0" d="M315.2,898.3c12.2,1.3,20.3,14.4,23.2,19.9c-8,2.1-32.1,7.6-57.9,4C292.8,905.2,304.5,897.2,315.2,898.3"/>
		<path class="st6" d="M401.9,907.8c-1.2,4.7-4.5,8.7-9.4,11c-34.9,16.4-61.8,21.9-78.2,23.6c-17.8,1.9-27.4-0.1-27.5-0.1h-0.2h-0.2
			c-3.9-0.3-7.3-2.5-9-6.1c-1.5-3.1-1.4-6.6,0.2-9.5c8.6,1.4,17,1.8,24.7,1.6c21.9-0.5,38.7-5.7,40.3-6.2
			c2.7-0.7,42.5-10.4,56.8-27.7C402,899,402.9,903.5,401.9,907.8"/>
		<path class="st0" d="M399.3,884.8c-4.2,15.8-40.2,28.1-56.1,32.2c-1.3-2.5-3.8-7.1-7.5-11.6l17.9-29.3c12,7.1,27.3,5.6,37.7-3.7
			l2.7-2.5C398.9,875,400.6,880,399.3,884.8"/>
		<path class="st4" d="M569.4,798.5c-10.3-16.7-29.8-37.3-57.8-61.5c-5.5-4.8-13.9-4.2-18.7,1.4c-16,18.4-54.6,64.5-69.9,95.5
			c-5,10.1-20.2,24.8-30.1,30.5l0,0c-0.1,0.1-0.3,0.2-0.4,0.3l-4.4,4c-9.1,8.1-22.6,9.2-32.7,2.7l-0.4-0.2c-0.4-1.3-1.5-3.2-4-5.1
			c-4.3-3.2-11.3-5.5-21-6.8c3-6.7,9.6-24.5,14.5-62.6v-0.2c0-0.3,1.7-35.1,14.3-102.2c52,6.6,98.9,9.4,140.1,8.4
			c21.5-0.5,41.6-2.1,60-4.7c34.2-4.8,57.6-12.5,73.3-19.7c35.6,39.7,37.5,97.3,37.3,114.2c0,3.7-0.5,7.3-1.3,10.9L653.8,867
			c-9.2,1.7-15.9,4.3-19.9,7.7c-2.5,2.1-3.4,4-3.8,5.3l-0.4,0.2c-9.9,7-23.4,6.6-32.8-1.1l-4-3.2L577,817.2
			C576.8,815,576.1,809.2,569.4,798.5"/>
		<path class="st0" d="M590.9,880.5l2.9,2.3c10.8,8.7,26.3,9.5,38,1.8L653,914c-4.2,4.5-7.2,8.9-8.6,11.1
			c-15.9-3.2-52.9-13.8-57.9-29.5C584.8,890.8,586.2,885.8,590.9,880.5"/>
		<path class="st6" d="M710.8,941c-1.5,3.6-4.8,6-8.6,6.5c-0.6,0.1-1.2,0.1-1.8,0.2c-7.8,1-23.9,3.1-49.5-1.2
			c-3.8-0.6-6.9-1.3-10.7-2.1l-1.7-0.4c-8.1-1.8-11.8-3.2-22.9-7.2c-5.1-1.9-11.5-4.3-20.7-7.5c-4.8-1.8-8.4-5.3-9.8-9.9
			c-1.4-4.5-0.7-9.4,1.9-14.1c15.3,16.5,55.4,24.3,58.1,24.9c2.2,0.5,32.7,8.2,65.2,1.4C711.8,934.5,711.9,937.8,710.8,941"/>
		<path class="st7" d="M268.8,186.6c9.4-41.3,32.3-77.6,63.9-103.9c31.7-26.3,72-42.5,116.4-43.6c24.5-0.6,48,3.5,69.8,11.4
			c32.6,11.9,61,32.5,82.5,59.1s35.9,59,40.4,94.7l4.5-0.6l-4.5,0.1l0,0l9.1-0.2l0,0v-0.2v-0.2c-6.3-49.9-31.2-93.8-67.2-124.9
			c-18-15.6-38.8-28-61.6-36.3c-22.7-8.3-47.4-12.6-73.1-12c-46.4,1.1-88.8,18.1-121.9,45.6s-57.1,65.6-66.9,108.9L268.8,186.6"/>
		<path class="st7" d="M344.6,383.2c-15.6-11.1-29.6-24.7-41.4-40s-21.4-32.5-28-50.8l-8.5,3c6.9,19.2,16.9,37.2,29.3,53.3
			c12.4,16.1,27.1,30.2,43.3,41.8L344.6,383.2"/>
		<path class="st7" d="M627.8,303.8L627.8,303.8l4.3,1.4l-4.1-1.8c-14.3,33.2-37.8,61.5-67.4,81.8c-22,15-47.4,25.6-74.9,30.2l1.5,9
			c28.8-4.9,55.4-16,78.5-31.7c31-21.2,55.7-50.9,70.6-85.7l0.1-0.2l0.1-0.2L627.8,303.8z"/>
		<path class="st7" d="M306.3,282.5c5.3,17.8,13.7,33.2,24.7,45.9c8.2,9.6,17.8,17.9,28.6,24.7c16.2,10.3,34.8,17.6,55.2,22.2
			c20.4,4.6,42.5,6.5,65.5,5.9c34-0.8,65.7-6.9,92.6-19c13.5-6,25.7-13.5,36.4-22.7s19.7-19.9,26.8-32.3l0.3-0.4l0.2-0.5l-4.3-1.3
			l4,2.2c5.9-10.3,10.5-22,13.5-34.5c3-12.7,4.4-26.5,4-41.5c-0.2-9.7-1.2-19.2-2.8-28.4l-4.5,0.8l4.5-0.1l0,0v-0.3v-0.3
			c-7.7-43.8-30.1-82.1-61.8-109.2c-15.8-13.5-33.9-24.3-53.7-31.5c-19.7-7.2-41-10.9-63.1-10.4c-20,0.5-39.1,4.4-56.8,11.2
			c-26.7,10.2-50.2,26.8-68.9,48.1c-18.8,21.3-32.8,47-40.3,75.6l8.8,2.3c9.5-36.2,30-67.8,57.6-90.5c13.7-11.3,29.3-20.5,46.2-26.9
			s35-10.2,53.9-10.6c20.9-0.5,41.1,3,59.8,9.8c55.9,20.5,98.7,71.2,109.6,133.8l4.5-0.8l-4.5,0.1l0,0v0.3v0.3
			c1.5,8.8,2.4,17.8,2.7,27c0.4,14.3-0.9,27.3-3.7,39.2c-2.8,11.9-7,22.6-12.5,32.1l-0.3,0.4l-0.2,0.5l4.3,1.3l-4-2.2
			c-6.5,11.5-15,21.4-24.9,29.9c-14.9,12.8-33.3,22.3-54.2,28.8s-44.3,10-69.1,10.6c-19.9,0.5-38.9-0.9-56.6-4.3
			c-13.3-2.6-25.8-6.3-37.3-11.1c-17.3-7.3-32.2-17.2-44.3-29.9c-12-12.7-21.2-28.3-26.9-47L306.3,282.5"/>
		<path class="st7" d="M245,234.2l-4.5-0.2c-0.1,2.4-0.2,4.8-0.1,7.2c0.2,8,1.4,15.6,3.4,22.5c1.5,5.3,3.5,10.1,6,14.5
			c3.7,6.6,8.2,12.2,13.6,16.3c2.8,2,5.6,3.7,8.7,4.9c3.1,1.2,6.3,1.8,9.8,2.1c0.8,0.1,1.6,0.1,2.3,0c3.1-0.1,6.2-0.7,9.1-1.5
			c5.2-1.6,9.9-4.5,14.1-8.3c6.4-5.7,11.6-13.4,15.5-22.5s6.2-19.5,6.8-30.7c0.1-2.4,0.2-4.8,0.1-7.2c-0.2-8-1.4-15.6-3.4-22.5
			c-1.5-5.3-3.5-10.1-6-14.5c-3.7-6.6-8.2-12.2-13.6-16.3c-2.8-2-5.6-3.7-8.7-4.9s-6.3-1.8-9.8-2.1c-0.8-0.1-1.6-0.1-2.3,0
			c-3.1,0.1-6.2,0.7-9.1,1.5c-5.2,1.6-9.9,4.5-14.1,8.3c-6.4,5.7-11.6,13.4-15.5,22.5s-6.2,19.6-6.8,30.7L245,234.2l4.5,0.2
			c0.4-7.7,1.7-15,3.9-21.6c1.6-4.9,3.7-9.5,6-13.5c3.6-6,7.8-10.8,12.4-14.1c2.3-1.7,4.6-2.9,7-3.8c2.4-0.9,4.9-1.3,7.4-1.4
			c0.5,0,1.1,0,1.7,0.1c2.1,0.1,4.2,0.5,6.2,1.2c3.5,1.2,6.9,3.3,10.1,6.3c4.7,4.4,8.8,10.6,11.6,18.1s4.7,16.4,4.9,25.9
			c0.1,2.1,0,4.3,0,6.5c-0.4,7.7-1.7,15-3.9,21.6c-1.6,4.9-3.7,9.5-6,13.5c-3.6,6-7.8,10.8-12.4,14.1c-2.3,1.7-4.6,2.9-7,3.8
			s-4.9,1.3-7.4,1.4c-0.5,0-1.1,0-1.7-0.1c-2.1-0.1-4.2-0.5-6.2-1.2c-3.5-1.2-6.9-3.3-10.1-6.3c-4.7-4.4-8.8-10.6-11.6-18.1
			c-2.9-7.5-4.7-16.4-4.9-25.9c-0.1-2.1,0-4.3,0-6.5L245,234.2"/>
		<path class="st7" d="M300.9,384.5c2.5-0.6,4.9-0.9,7.4-1.3s4.9-0.5,7.4-0.8c2.5-0.2,4.9-0.3,7.4-0.4c2.4-0.1,4.9,0,7.3,0
			s4.9,0.2,7.3,0.3c2.4,0.1,4.9,0.3,7.3,0.5c4.9,0.4,9.7,0.8,14.6,1.2l3.6,0.4l3.6,0.4c2.4,0.2,4.8,0.6,7.3,0.8
			c2.4,0.3,4.8,0.7,7.3,0.9c2.4,0.3,4.8,0.7,7.2,1c4.8,0.8,9.6,1.6,14.5,2.4c4.8,0.9,9.6,1.9,14.5,2.8s9.6,2.2,14.4,3.3
			c4.7,1.2,9.6,2.5,14.3,3.8s9.5,2.8,14.1,4.4s9.3,3.2,13.9,5l3.4,1.3l3.4,1.3c2.3,0.9,4.5,1.9,6.9,2.8c4.6,2,9,4.1,13.5,6.3
			c4.5,2.2,8.8,4.6,13.1,7.1c2.1,1.2,4.3,2.6,6.4,3.9c1,0.7,2.1,1.4,3.2,2.1c0.5,0.4,1,0.8,1.5,1.2l0.8,0.6l0.8,0.7l0,0l-6.7,1.8
			c0.6-1.4,1.1-2.8,1.8-4.2c0.7-1.4,1.2-2.8,2-4.3l1-2.1l1.1-2l0.6-1l0.6-1l1.2-2l1.2-2c0.4-0.7,0.8-1.3,1.3-1.9l1.3-1.9l1.3-1.9
			c0.4-0.6,0.9-1.3,1.4-1.9s0.9-1.2,1.4-1.8c1-1.2,1.8-2.4,2.8-3.7c0.5-0.6,1-1.2,1.5-1.8c0.5-0.6,1-1.2,1.5-1.7l1.6-1.7l1.6-1.7
			c1.1-1.1,2.1-2.3,3.2-3.4c0.6-0.5,1.1-1.1,1.7-1.6c0.6-0.5,1.1-1.1,1.7-1.6c0.6-0.5,1.1-1,1.7-1.5c0.6-0.5,1.2-1,1.8-1.5
			c1.2-1,2.4-2.1,3.5-3c1.2-0.9,2.5-2,3.7-2.9c0.6-0.4,1.3-0.9,2-1.3l1-0.7l0.5-0.3l0.6-0.3l4.5,7.4l-0.4,0.2l-0.4,0.3l-0.9,0.6
			c-0.6,0.4-1.2,0.8-1.8,1.2c-1.2,0.8-2.3,1.8-3.3,2.6c-1.1,0.9-2.3,1.9-3.3,2.8c-0.6,0.5-1.1,0.9-1.6,1.4s-1.1,0.9-1.6,1.4
			s-1.1,1-1.6,1.5s-1.1,1-1.6,1.5c-1,1-2,2-3,3.2l-1.5,1.6l-1.5,1.6c-0.5,0.5-0.9,1.1-1.4,1.6s-0.9,1.1-1.4,1.7
			c-0.9,1.1-1.7,2.2-2.6,3.5c-0.4,0.6-0.9,1.2-1.3,1.7c-0.4,0.6-0.9,1.2-1.3,1.7l-1.3,1.8l-1.2,1.8c-0.4,0.6-0.8,1.2-1.2,1.8
			l-1.2,1.8l-1.1,1.9l-0.6,0.9l-0.5,0.9l-1.1,1.9l-1,1.9c-0.7,1.3-1.2,2.6-1.8,3.9s-1.1,2.6-1.7,3.9l-2.2,5.2l-4.5-3.4l-0.6-0.4
			l-0.7-0.5l-1.4-1c-1-0.7-1.9-1.3-2.9-1.8c-2-1.3-4.1-2.4-6.2-3.5c-4.2-2.3-8.4-4.4-12.8-6.4s-8.7-4-13.1-5.8
			c-2.2-0.9-4.4-1.8-6.7-2.6l-3.3-1.3l-3.3-1.2c-4.5-1.7-9.1-3.2-13.6-4.7s-9.2-2.9-13.8-4.2c-4.6-1.3-9.3-2.6-13.9-3.8
			c-4.6-1.2-9.4-2.3-14-3.4c-4.7-1.1-9.4-2.1-14.1-3.1s-9.4-1.9-14.2-2.7c-2.4-0.4-4.7-0.8-7.1-1.2c-2.4-0.3-4.7-0.8-7.1-1.1
			c-2.4-0.3-4.7-0.7-7.1-1l-3.6-0.5l-3.6-0.5c-4.8-0.7-9.5-1.2-14.3-1.7c-4.8-0.6-9.6-1-14.4-1.5c-2.4-0.3-4.8-0.6-7.2-1
			c-2.4-0.3-4.8-0.8-7.2-1.1c-2.4-0.4-4.8-0.9-7.2-1.4C305.6,385.9,303.2,385.2,300.9,384.5"/>
		<path class="st7" d="M302.2,344.9c-6.3-0.5-12-0.7-17.2-0.6c-9.1,0.2-16.5,1.4-22.6,3.3c-4.6,1.4-8.4,3.3-11.7,5.5
			c-2.4,1.7-4.4,3.5-6.1,5.6c-2.5,3.1-4.1,6.4-5.1,9.7c-1,3.3-1.2,6.7-1.2,9.9s0.6,6.2,1.1,9c0.9,4.1,2.3,7.6,3.4,10.2
			c1.1,2.6,2,4.2,2,4.3l3.9-2.2l-0.5-4.5c-3.6,0.4-6.6,1.1-9.3,2c-2,0.6-3.7,1.5-5.2,2.5c-1.2,0.7-2.2,1.6-3,2.6
			c-1.3,1.4-2.3,3.1-2.9,4.8s-0.8,3.4-0.8,5.1c0,1.8,0.4,3.5,0.8,5.2c0.9,2.9,2.2,5.5,3.8,8c2.3,3.6,5.1,6.9,7.1,9.2
			c2.2,2.3,3.7,3.8,3.8,3.8l3-3.4l-4-2.3c-4.6,7.9-7.8,15.3-9.9,22.2c-2,7-2.9,13.4-2.7,19.4c0.1,4.9,0.8,9.4,2.1,13.6
			c2.2,7.2,5.8,13.5,10,18.6c6.2,7.7,13.6,13,19.5,16.4c5.9,3.5,10.2,5.1,10.4,5.1l3.1-8.5l0,0c-0.1-0.1-2.5-0.9-5.9-2.8
			c-2.5-1.3-5.7-3.3-9-5.7c-4.9-3.6-10.1-8.5-14.1-14.6c-2-3.1-3.7-6.4-4.8-10.1c-1.2-3.7-2-7.8-2.1-12.3c-0.1-5,0.5-10.5,2.3-16.6
			c1.7-6.1,4.7-12.8,9-20.2l1.8-3.1l-2.7-2.4l-0.1,0.1l0.1-0.1l0,0l-0.1,0.1l0.1-0.1c0,0-0.9-0.9-2.2-2.1c-1.8-2-4.6-5.1-6.8-8.3
			c-1.1-1.7-2.1-3.3-2.7-5c-0.3-0.8-0.5-1.6-0.8-2.3c-0.2-0.7-0.2-1.4-0.2-2c0-0.4,0-0.8,0.1-1.2c0.1-0.6,0.4-1.1,0.7-1.7
			c0.3-0.4,0.7-0.8,1.3-1.3c0.9-0.7,2.2-1.4,4-2c1.9-0.6,4.3-1.2,7.3-1.6l6.8-0.9l-3.3-5.9l0,0c-0.1-0.2-1.4-2.6-2.8-6.1
			c-1.3-3.6-2.6-8.3-2.7-12.9c-0.1-2.9,0.3-5.8,1.3-8.4c0.8-2,1.8-3.8,3.4-5.7c1.2-1.3,2.6-2.7,4.4-3.8c2.8-1.8,6.3-3.4,11.1-4.6
			s10.6-2,17.7-2.1c4.8-0.1,10.2,0,16.3,0.5L302.2,344.9"/>
		<path class="st7" d="M336.2,433c0,0,0.7-0.5,2-1.3c0.6-0.4,1.5-0.8,2.5-1.4c1-0.5,2.2-1.1,3.5-1.6c2.7-1.1,5.9-2.1,9.9-2.8
			c2-0.3,4.1-0.7,6.3-1c1.1-0.1,2.2-0.2,3.4-0.3c0.6,0,1.2,0,1.8-0.1c0.6,0,1.2,0,1.8,0c9.7-0.3,21,0.2,33,1.7
			c6,0.7,12.1,1.7,18.3,2.9c6.2,1.1,12.5,2.5,18.7,3.9s12.4,3.1,18.4,4.7c6,1.8,11.9,3.5,17.6,5.4c5.6,1.9,11.1,3.7,16.2,5.6
			s10,3.7,14.4,5.3c4.4,1.7,8.6,3.3,12,4.9c3.5,1.7,6.5,3.4,8.8,5c2.3,1.5,4.2,3,5.3,4.1s1.7,1.7,1.7,1.7s-0.9,0-2.4,0
			c-1.6-0.1-3.8-0.3-6.6-0.8c-2.8-0.4-6-1.3-9.8-2.3c-3.7-1.1-7.8-2.6-12.2-4.1c-4.4-1.6-9.3-3.2-14.4-4.8
			c-5.1-1.7-10.6-3.4-16.2-5.1c-5.6-1.8-11.5-3.4-17.4-5.1s-12-3.3-18-4.9s-12.2-3-18.1-4.3c-6-1.4-12-2.4-17.7-3.4
			c-11.6-1.9-22.4-3-31.6-3c-0.6,0-1.2,0-1.7-0.1c-0.6,0-1.1,0-1.7,0s-1.1,0-1.6,0s-1.1,0-1.6,0c-0.4,0-0.8,0-1.3,0
			c-0.6,0-1.2,0-1.8,0c-0.5,0-0.9,0-1.4,0s-1,0-1.5,0c-3.8,0.1-7,0.3-9.8,0.4c-1.4,0.1-2.6,0.2-3.7,0.2c-1.1,0.1-2,0.1-2.8,0.2
			C337,433,336.2,433,336.2,433"/>
		<path class="st7" d="M338.6,528.5c2.2-0.7,4.5-0.9,6.7-1c2.3-0.1,4.5,0,6.8,0.2c2.2,0.2,4.5,0.7,6.7,1.1c2.2,0.5,4.3,1.2,6.4,1.8
			c2.1,0.7,4.2,1.6,6.3,2.4c2,0.9,4.1,1.8,6.1,2.8s4,2,6,3.1c1.9,1.1,3.9,2.1,5.8,3.3s3.9,2.3,5.7,3.5c1.8,1.2,3.8,2.4,5.6,3.7
			c1.8,1.3,3.7,2.5,5.4,3.8c1.8,1.3,3.6,2.6,5.3,4c1.7,1.4,3.5,2.7,5.2,4.1s3.4,2.8,5,4.3s3.3,2.9,4.9,4.5c0.8,0.8,1.6,1.6,2.4,2.3
			c0.8,0.8,1.5,1.6,2.4,2.4l0,0l1.7,1.7l-0.3,2.3c-0.3,1.6-0.5,3.3-0.9,4.9c-0.4,1.6-0.7,3.2-1.1,4.9c-0.5,1.6-0.8,3.2-1.4,4.8
			c-0.5,1.6-1,3.1-1.6,4.7c-2.2,6.3-5.2,12.2-8.7,17.9s-7.3,11.1-11.7,16.1c-2.1,2.5-4.5,4.9-6.8,7.2c-1.2,1.1-2.4,2.3-3.7,3.4
			c-0.6,0.5-1.3,1.1-2,1.6l-1,0.8l-0.5,0.4l-0.6,0.4l-1.6,1.1l-2-0.4c-1.8-0.4-3.5-0.7-5.2-1.1s-3.4-0.8-5.2-1.2
			c-3.4-0.8-6.8-1.6-10.3-2.5c-6.8-1.7-13.7-3.7-20.4-5.7c-6.8-2-13.5-4.3-20.2-6.8c-6.7-2.4-13.2-5.2-19.7-8.1
			c-6.5-3-12.9-6.4-19.1-10.2c-1.5-1-3.1-2-4.6-3.1l-0.6-0.4l-0.3-0.2l-0.3-0.2l-1-0.8l-1.1-0.9l-1.1-0.9c-2.9-2.4-5.5-5.2-8-8
			c-4.8-5.8-8.5-12.5-11-19.6s-3.6-14.7-3.3-22.2c0.2-7.5,1.8-15,4.8-22c1.4-3.4,3.2-6.9,5.3-10c0.3-0.4,0.5-0.8,0.8-1.2l0.4-0.6
			l0.4-0.5l1.5-2.1l1.5-2.1l1.5-2.1c4.2-5.7,8.5-11.3,13-16.8s9.1-10.8,13.8-16.1c4.8-5.2,9.5-10.4,14.5-15.5c5-5,10.1-10,15.3-14.7
			c10.6-9.5,21.7-18.4,33.6-26.3l5,7.6c-11.4,7.6-22.2,16.3-32.5,25.5c-5.1,4.6-10.2,9.5-15,14.4c-4.9,4.9-9.7,9.9-14.2,15.2
			c-4.7,5.1-9.1,10.4-13.5,15.8s-8.6,10.8-12.7,16.4l-1.5,2.1l-1.4,2.1c-0.5,0.7-1,1.4-1.5,2.1l-0.4,0.5l-0.3,0.5
			c-0.2,0.3-0.5,0.7-0.7,1c-1.7,2.7-3.3,5.6-4.5,8.6c-2.5,6-3.9,12.4-4,18.8c-0.2,6.4,0.7,13,2.9,19c2.1,6.2,5.3,11.9,9.4,16.8
			c2.1,2.5,4.3,4.8,6.8,6.8l0.9,0.8l0.9,0.7l1,0.8l0.1,0.1l0.1,0.1c-0.1-0.1,0,0,0,0l0.3,0.2l0.5,0.4c1.3,1,2.7,1.9,4.2,2.8
			c5.7,3.6,11.8,6.8,17.9,9.7c6.2,2.8,12.6,5.5,19.1,7.8c6.5,2.4,13,4.6,19.7,6.6s13.3,3.9,20,5.6c3.3,0.8,6.7,1.6,10.1,2.5
			c1.7,0.4,3.4,0.8,5,1.2c1.7,0.4,3.4,0.7,5,1.1l-3.5,0.8l0.4-0.3l0.4-0.3l0.9-0.7c0.6-0.5,1.2-0.9,1.7-1.4c1.2-1,2.3-2.1,3.3-3.1
			c2.1-2.2,4.3-4.3,6.2-6.7c4-4.6,7.6-9.6,10.7-14.8c3.2-5.2,5.8-10.7,7.9-16.4c0.6-1.4,1-2.8,1.5-4.3c0.5-1.4,0.8-2.9,1.2-4.3
			c0.4-1.5,0.7-2.9,1-4.4s0.5-3,0.8-4.4l1.4,4l-2.4-1.9l-2.5-2l-5-4c-1.6-1.4-3.4-2.6-5-4s-3.4-2.6-5.1-3.9
			c-1.7-1.3-3.4-2.5-5.1-3.8s-3.5-2.5-5.2-3.7c-1.7-1.3-3.5-2.4-5.2-3.6s-3.6-2.3-5.3-3.5c-1.7-1.2-3.6-2.3-5.4-3.4
			c-1.8-1.1-3.7-2.2-5.5-3.2c-1.8-1.1-3.7-2-5.6-3c-1.8-1-3.7-1.9-5.7-2.8c-3.7-1.8-7.6-3.5-11.5-5.1c-1.9-0.9-3.9-1.6-6-2.5
			C342.8,530,340.7,529.2,338.6,528.5"/>
		<path class="st7" d="M377.8,488c0,0,0.1,0.2,0.3,0.6c0.1,0.2,0.2,0.4,0.4,0.7c0.2,0.3,0.3,0.6,0.5,1c0.4,0.7,0.7,1.6,1.2,2.7
			c0.2,0.5,0.4,1.1,0.6,1.7s0.4,1.2,0.6,1.9c0.2,0.7,0.3,1.3,0.6,2.1c0.2,0.7,0.3,1.4,0.6,2.2c0.1,0.8,0.3,1.5,0.5,2.3
			c0.1,0.8,0.2,1.6,0.5,2.4c0.1,0.8,0.2,1.7,0.4,2.5c0.1,0.9,0.2,1.7,0.3,2.6c0.1,0.9,0.1,1.8,0.3,2.6c0.1,0.9,0.1,1.8,0.2,2.7
			c0.1,1.8,0.2,3.5,0.2,5.3c0,1.7,0.1,3.5,0,5.1c0,3.3-0.1,6.4-0.3,9c-0.1,2.6-0.4,4.8-0.5,6.4c-0.1,0.8-0.2,1.4-0.3,1.8
			c-0.1,0.4-0.1,0.6-0.1,0.6l-9-0.8c0,0,0-0.2,0-0.6c0-0.4,0-1,0.1-1.7c0.1-1.5,0.1-3.7,0.2-6.2c0.1-1.3,0.1-2.7,0.2-4.2
			s0.2-3,0.3-4.6c0.1-1.6,0.2-3.3,0.4-5c0.2-1.7,0.2-3.4,0.4-5.1c0.2-3.4,0.4-6.9,0.7-10.1c0.2-3.2,0.4-6.2,0.7-8.8
			c0.1-0.6,0.1-1.3,0.2-1.9c0-0.6,0.1-1.2,0.1-1.7c0.1-1.1,0.1-2,0.1-2.8s0.1-1.4,0.1-1.8C377.7,488.2,377.8,488,377.8,488"/>
		<path class="st7" d="M540.9,464c0,0-0.1-0.5-0.3-1.5c-0.1-0.5-0.2-1.1-0.2-1.8c0-0.7,0-1.6-0.1-2.5c0.1-1.9,0.4-4.1,0.9-6.6
			c0.1-0.6,0.4-1.2,0.6-1.9c0.2-0.6,0.5-1.3,0.7-2c0.3-0.7,0.6-1.3,0.9-2c0.3-0.7,0.6-1.4,0.9-2.1c0.4-0.7,0.7-1.4,1-2.1
			c0.4-0.7,0.8-1.4,1.2-2.1c0.9-1.4,1.8-2.8,2.7-4.4c1.9-2.9,4.1-6,6.5-9c2.3-3.1,4.9-6,7.5-9c0.7-0.7,1.4-1.5,2-2.3
			c0.7-0.7,1.4-1.4,2-2.3c1.4-1.4,2.8-2.9,4.2-4.3c2.8-2.9,5.8-5.6,8.7-8.3c1.5-1.3,2.9-2.7,4.4-3.9c1.5-1.2,2.9-2.6,4.4-3.7
			c0.4-0.3,0.7-0.5,1.1-0.8s0.7-0.6,1.1-0.8c0.3-0.2,0.6-0.5,0.9-0.7c0.3-0.3,0.6-0.5,0.9-0.8c1.2-1.1,2.1-2.2,2.9-3.2
			c0.8-1,1.3-1.9,1.4-2.5c0.1-0.3,0.1-0.5,0.1-0.6s0-0.2-0.1-0.4c-0.1-0.3-0.6-0.9-1.3-1.4s-1.6-1-2.5-1.4c-1.8-0.9-3.6-1.3-5.1-1.7
			c-1.5-0.4-2.8-0.6-3.6-0.8c-0.8-0.2-1.3-0.2-1.2-0.2l0.6-8.2c0,0,0.6,0,1.6,0.1s2.5,0.2,4.3,0.5c0.9,0.2,2,0.4,3.1,0.6
			c1.1,0.3,2.4,0.6,3.7,1.1s2.8,1.1,4.4,2c0.8,0.5,1.5,1.1,2.3,1.7c0.8,0.7,1.6,1.7,2.3,2.7c0.6,1.1,1.2,2.5,1.4,3.9
			s0.2,2.8-0.2,4.1c-0.3,1.3-0.7,2.4-1.2,3.4s-1.1,1.9-1.7,2.8c-1.3,1.7-2.6,3.3-4,4.7c-0.4,0.3-0.7,0.7-1.1,1
			c-0.4,0.3-0.8,0.7-1.2,1s-0.7,0.6-1.1,0.9s-0.8,0.6-1.1,0.9c-2.7,2.3-5.6,4.8-8.4,7.3c-2.8,2.6-5.7,5.2-8.5,7.9
			c-1.4,1.3-2.7,2.8-4.1,4.1c-0.7,0.7-1.4,1.3-2.1,2.1c-0.7,0.7-1.4,1.4-2,2c-2.6,2.8-5.2,5.5-7.5,8.3s-4.5,5.5-6.5,8.1
			c-1.9,2.6-3.7,5.2-5.2,7.5c-0.2,0.3-0.4,0.6-0.6,0.9s-0.4,0.6-0.6,0.8c-0.4,0.6-0.8,1.1-1.2,1.6s-0.7,1.1-1.1,1.6s-0.7,1-1,1.5
			c-1.3,1.9-2.4,3.7-3.3,5.1c-0.4,0.7-0.9,1.4-1.3,1.9c-0.4,0.6-0.7,1.1-0.9,1.5C541.2,463.6,540.9,464,540.9,464z"/>
		<path class="st7" d="M588,401c4.4,3.6,8.4,8.5,12,14.3c5.2,8.7,9.3,19.2,12.2,29.8c3,10.5,4.7,21.2,5.6,30
			c1.1,10.6,4.2,20.9,9.3,30.2c2.9,5.2,5.6,9.5,8.2,13.1c1.9,2.7,3.6,5,5.2,7.2c1.1,1.6,2.2,3,3,4.4c1.3,2.1,2.3,4,3,6.1
			c0.7,2.1,1.1,4.4,1.2,7.3c0.1,3.6-0.4,8.1-1.7,14c0,0-0.1,0.2-0.1,0.5c-0.2,0.5-0.4,1.3-0.7,2.2c-0.6,1.6-1.3,3.7-2.2,5.9
			c-1.2,3.3-2.6,6.9-3.8,9.6c-0.6,1.3-1,2.5-1.3,3.3c-0.2,0.4-0.3,0.7-0.4,0.9c-0.1,0.2-0.1,0.3-0.1,0.3l8.4,3.4
			c0,0,2.1-5.1,4.2-10.5c1-2.7,2.2-5.6,3.1-8c0.5-1.2,0.8-2.3,1.1-3.2c0.2-0.5,0.3-0.9,0.4-1.3c0.1-0.4,0.2-0.8,0.3-1.2
			c1.3-6.3,2-11.6,1.9-16.2c-0.1-2.2-0.3-4.2-0.6-6.1c-0.7-3.3-1.8-6.3-3.2-9c-1.1-2.1-2.3-3.9-3.6-5.9c-2-2.9-4.2-5.8-6.5-9.1
			c-2.4-3.3-4.9-7.3-7.6-12c-4.5-8.2-7.4-17.3-8.3-26.7c-1.2-12.4-4.2-27.9-9.3-42.6c-2.6-7.3-5.9-14.5-9.7-21
			c-3.9-6.4-8.5-12.2-14-16.7L588,401z"/>
		<path class="st7" d="M568.8,417.1c7.2,10.4,14.5,24.2,21.7,39.6c10.8,23.2,21.1,50.4,30.3,76.7c9.2,26.4,17.1,51.9,23.1,71.8
			c1,3.2,1.4,6.2,1.4,9.1c0.1,4.1-0.6,8.1-2,11.9c-2.1,5.7-5.6,10.8-10.4,15.5c-4.8,4.6-10.8,8.5-17.4,11.4
			c-15.8,7-34.2,11.9-53.6,15.2c-19.4,3.3-40,4.9-60.4,5.4c-39,1-77.2-2.2-105.7-5.5c-14.2-1.7-26-3.5-34.2-4.8
			c-4.1-0.7-7.3-1.2-9.5-1.6c-1.1-0.2-1.9-0.4-2.5-0.4c-0.3-0.1-0.5-0.1-0.6-0.1s-0.1,0-0.2,0l0,0l-0.9,4.4l2.6-3.8
			c-2.1-1.4-3.9-3.4-5.3-5.7c-1-1.7-2-3.7-2.7-5.6c-1.1-3-1.9-6.2-2.2-9c-0.5-2.9-0.6-5.7-0.7-7.8c0-1.3-0.1-2.4,0-3.1
			c0-0.4,0-0.6,0.1-0.8c0-0.1,0-0.2,0-0.2l0,0l0,0l-2.4-0.1l2.4,0.1l0,0l-2.4-0.1l2.4,0.1l-9-0.7c0,0.1-0.2,2-0.1,5.1
			c0.1,2.1,0.2,4.8,0.6,7.8c0.6,4.4,1.7,9.6,3.9,14.4c1.1,2.5,2.4,4.8,4.2,7.1c1.8,2.3,3.8,4.3,6.3,6l0.8,0.6l0.9,0.2
			c0.1,0,19,3.6,47.7,7c28.8,3.4,67.4,6.5,107,5.6c20.7-0.5,41.7-2.1,61.7-5.5s39-8.5,55.8-15.9c5-2.2,9.8-4.9,14-8.1
			c6.4-4.8,11.7-10.5,15.6-17.1c1.9-3.3,3.3-6.8,4.3-10.5s1.4-7.5,1.3-11.5c-0.1-3.7-0.7-7.6-1.9-11.5c-8-26.7-19.5-63.3-32.8-98.8
			c-6.6-17.7-13.8-35.2-21.1-50.9c-7.3-15.7-14.8-29.8-22.5-40.9L568.8,417.1"/>
		<path class="st7" d="M385.9,640.8c-0.1,0.3-0.7,2-0.6,4.5c0,1.1,0.2,2.4,0.6,3.9c0.6,2.1,1.6,4.5,3.5,6.7c1.9,2.3,4.4,4.3,7.8,6.1
			l2.7,1.4l2.4-2c0.2-0.1,9.4-8,20.1-21.8c5.3-6.9,11-15.3,16.1-25s9.5-20.6,12.3-32.7l0.6-2.6l-2-1.8c-0.1-0.1-1.8-1.7-4.6-3.2
			c-1.3-0.8-2.9-1.6-4.8-2.2c-1.8-0.7-3.8-1.1-6-1.1c-1.5,0-3,0.3-4.6,0.9c-1.5,0.5-3,1.5-4.3,2.7l6.2,6.7c0.5-0.5,1-0.7,1.4-0.9
			c0.5-0.2,0.9-0.2,1.5-0.2c0.8,0,1.8,0.2,2.9,0.5c0.8,0.3,1.6,0.7,2.3,1c1.1,0.6,2.1,1.2,2.8,1.8c0.3,0.3,0.6,0.5,0.8,0.6
			c0.1,0.1,0.1,0.1,0.2,0.2l0,0l0,0l1.4-1.5l-1.4,1.5l0,0l1.4-1.5l-1.4,1.5l3-3.4l-4.4-1c-2.6,11.2-6.7,21.5-11.5,30.6
			c-7.2,13.7-15.7,24.8-22.4,32.4c-3.4,3.8-6.3,6.8-8.4,8.7c-1.1,1-1.9,1.7-2.4,2.3c-0.3,0.2-0.5,0.4-0.6,0.5s-0.1,0.1-0.2,0.1l0,0
			l0,0l0.2,0.3l-0.2-0.3l0,0l0.2,0.3l-0.2-0.3l0,0l2.7,3.2l-2.7-3.2l0,0l2.7,3.2l-2.7-3.2l2.9,3.4l2.1-4.1c-1.6-0.9-2.8-1.7-3.8-2.6
			c-1.3-1.3-2.1-2.5-2.6-3.4c-0.4-1.1-0.5-2-0.6-2.8c0-0.6,0.1-1,0.1-1.3c0-0.1,0.1-0.2,0.1-0.3l0,0l0,0l-2.1-0.5l2,0.7
			c0-0.1,0-0.1,0-0.1l-2.1-0.5l2,0.7L385.9,640.8"/>
		<path class="st7" d="M463,570c0,0,0,0.4-0.1,1.1c-0.1,0.7-0.1,1.8-0.2,3.2c0,0.7-0.2,1.4-0.2,2.3c-0.1,0.8-0.2,1.7-0.3,2.7
			c-0.1,0.5-0.1,1-0.2,1.5s-0.2,1-0.3,1.5c-0.1,0.5-0.2,1.1-0.3,1.6c-0.1,0.6-0.2,1.1-0.4,1.7c-0.3,1.1-0.5,2.3-0.7,3.6
			c-0.3,1.2-0.6,2.5-1,3.8c-0.1,0.3-0.2,0.7-0.3,1c-0.1,0.3-0.2,0.7-0.3,1c-0.2,0.7-0.4,1.3-0.6,2c-0.4,1.4-0.8,2.7-1.3,4.1
			s-1,2.8-1.5,4.2c-0.6,1.4-1.1,2.8-1.7,4.2c-0.3,0.7-0.6,1.4-0.9,2.1c-0.3,0.7-0.7,1.4-0.9,2.1c-0.7,1.4-1.3,2.8-2.1,4.3
			s-1.4,2.7-2.2,4.2c-0.4,0.7-0.8,1.3-1.2,2c-0.4,0.7-0.8,1.3-1.2,2c-0.4,0.7-0.8,1.3-1.2,2c-0.4,0.6-0.9,1.3-1.3,1.9
			c-0.8,1.3-1.6,2.5-2.5,3.8c-0.4,0.6-0.9,1.2-1.3,1.8s-0.9,1.2-1.3,1.7c-0.9,1.1-1.6,2.2-2.5,3.3c-1.6,2.1-3.3,4.1-4.9,5.8
			s-3,3.3-4.4,4.7c-1.4,1.3-2.5,2.5-3.6,3.4c-1,0.9-1.9,1.5-2.5,2.1c-0.6,0.4-0.9,0.7-0.9,0.7s0.2-0.3,0.7-0.9
			c0.4-0.6,1.1-1.5,1.8-2.6c0.8-1.1,1.7-2.4,2.7-4.1c1.1-1.5,2.2-3.4,3.5-5.3c0.6-1,1.3-1.9,1.9-3c0.3-0.5,0.7-1,1.1-1.6
			c0.4-0.5,0.7-1.1,1.1-1.6c0.7-1.1,1.4-2.2,2.1-3.5s1.4-2.4,2.1-3.7c1.4-2.4,2.9-5.1,4.4-7.7c0.8-1.3,1.4-2.6,2.2-4
			c0.7-1.3,1.4-2.7,2.1-4.1c2.8-5.5,5.3-10.9,7.6-16.2c1.1-2.6,2.2-5.2,3.1-7.7c0.5-1.2,0.9-2.4,1.4-3.5c0.5-1.2,0.8-2.3,1.2-3.3
			c0.5-1.1,0.7-2.1,1.1-3.1s0.7-1.9,1-2.8c0.6-1.8,1.1-3.3,1.6-4.6c0.4-1.3,0.7-2.3,1-3C462.9,570.5,463,570,463,570"/>
		<path class="st7" d="M346.1,661.5c-0.3,0.1-0.6,0.2-0.9,0.4c-1.8,0.7-3.4,1.7-4.7,2.9c-2.1,1.8-3.6,3.9-4.5,6.2s-1.4,4.7-1.3,7.1
			c0,1.9,0.4,3.9,1,5.7c1,2.8,2.7,5.3,5.1,7.3c1.2,1,2.5,1.8,4.1,2.5c1.5,0.7,3.1,1.1,4.8,1.4c60.3,8,109.5,10.5,149.4,9.5
			c43-1.1,75.2-6,99.1-12.3s39.7-13.9,49.4-20c3.3-2,5.7-4.7,7.3-7.9c1.6-3,2.2-6.5,2.2-9.8c-0.1-4.2-1.5-8.3-4-11.7
			c-1.2-1.7-2.9-3.2-4.7-4.5s-4-2.2-6.4-2.8c-0.2,0-0.3-0.1-0.3-0.1l-2,8.9l0.5-2l-0.5,2l0,0l0.5-2l-0.5,2c0,0,0,0,0.1,0
			c1.4,0.4,2.5,0.8,3.5,1.5c1.5,1,2.7,2.3,3.5,3.9c0.8,1.6,1.3,3.3,1.3,5.1c0,1.9-0.3,3.7-1.2,5.3s-2.1,3.2-4,4.3
			c-9,5.6-23.8,12.8-47,18.9c-23.2,6.1-54.7,11-97.1,12.1c-39.4,1-88.1-1.4-148-9.5c-1.2-0.2-2.2-0.5-3-1c-1.3-0.7-2.2-1.7-3-2.9
			c-0.7-1.3-1.1-2.7-1.1-4.2c0-1.6,0.3-3.2,1.2-4.4c0.4-0.6,0.9-1.2,1.6-1.8c0.6-0.5,1.4-1,2.4-1.4c0.3-0.1,0.5-0.2,0.8-0.3
			L346.1,661.5"/>
		<path class="st7" d="M352.3,690.5c-13.2,69.8-14.8,105.2-14.8,105.4l4.5,0.2l-4.5-0.6c-3.2,25-7.1,40.9-10.2,50.6
			c-1.5,4.8-2.8,8-3.8,10c-0.5,1-0.8,1.6-1.1,2c-0.1,0.2-0.2,0.3-0.2,0.4v0.1l0,0l1.3,0.9l-1.3-0.9l0,0l1.3,0.9l-1.3-0.9l2.6,1.6
			l-2.6-1.6l0,0l2.6,1.6l-2.6-1.6l3,1.9l-3-1.9l0,0l3,1.9l-3-1.9l0,0l3.8,2.4l-3.8-2.4l0,0l3.8,2.4l-3.8-2.4l7.6,4.9
			c0.3-0.4,2.8-4.4,5.9-14.7c3.3-10.2,7.2-26.7,10.5-52.1v-0.2v-0.2h-1.4l1.6,0.1l0,0l-1.6-0.1l1.6,0.1c0-0.1,1.6-35.1,14.7-104.2
			L352.3,690.5"/>
		<path class="st7" d="M336.7,907.5l20.7-33.9v-1.3c0-0.3,0-0.8-0.2-1.4c-0.2-1-0.8-2.4-1.9-3.9c-0.8-1.1-2-2.2-3.4-3.2
			c-2.2-1.5-5.2-3.1-9.2-4.4c-4-1.3-9.3-2.4-16-3h-0.2h-0.2c0,0-0.1,0-0.2,0c-0.6,0-2.6,0.1-5.3,0.5c-2.1,0.4-4.5,0.9-7.2,1.8
			c-4,1.3-8.4,3.5-12.5,6.9c-2,1.7-3.9,3.8-5.5,6.2s-3,5.3-3.9,8.5l-0.1,0.2l-4.9,24.6l8.8,1.8l4.8-24.4l-4.4-0.9l4.3,1.3
			c0.6-2.1,1.4-3.9,2.4-5.5c1.7-2.7,3.9-4.9,6.2-6.6c1.8-1.2,3.6-2.2,5.6-2.9c2.9-1.2,5.7-1.7,7.8-2.1c2.2-0.4,3.7-0.4,4-0.4h0.1
			l0,0l-0.1-2.6l0.1,2.6l0,0l-0.1-2.6l0.1,2.6v-4.5l-0.5,4.5c6.3,0.6,10.9,1.6,14.4,2.6c2.5,0.8,4.2,1.6,5.6,2.4
			c0.9,0.6,1.5,1.1,1.9,1.5c0.6,0.6,0.7,1,0.8,1l0,0h0.1h-0.1l0,0h0.1h-0.1l1.1-0.3l-1.1,0.1c0,0.1,0,0.1,0,0.2l1.1-0.3l-1.1,0.1
			l2.5-0.4l-2.5,0.3c0,0.1,0,0.1,0,0.2l2.5-0.4l-2.5,0.3l3.3-0.3l-3.3,0.2v0.1l3.3-0.3l-3.3,0.2l3.8-0.2l-3.8,0.2v0.1l3.8-0.2
			l-3.8,0.2l4-0.2l-4,0.1l0,0l4-0.2l-4,0.1l4.2-0.1l-4.2,0.1l0,0l4.2-0.1l-4.2,0.1l4.1-0.1l-4.1,0.1l0,0l4.1-0.1l-4.1,0.1v0.1
			l4.4-0.2l-4.4,0.2l0,0l4.4-0.2l-4.4,0.2l4.5-0.2l-3.9-2.4l-20,32.7L336.7,907.5"/>
		<path class="st7" d="M350.4,876.2l1.2,0.8c5.9,3.8,12.5,5.5,19.2,5.3c4-0.1,7.9-0.9,11.6-2.3c3.8-1.5,7.2-3.6,10.3-6.4l4.4-4
			l-3-3.4l-3.1,3.3c2.5,2.3,4.1,4.5,5.2,6.5c0.5,1,0.8,1.9,1.1,2.7c0.2,0.9,0.3,1.7,0.4,2.4c0,1-0.2,2-0.4,3
			c-0.3,0.9-0.7,1.9-1.2,2.9c-1.1,1.8-2.7,3.8-4.8,5.6c-3.6,3.3-8.6,6.5-14.1,9.2c-8.2,4.2-17.3,7.5-24.4,9.7
			c-3.6,1.1-6.6,2-8.6,2.5c-1.1,0.3-1.9,0.5-2.5,0.7c-0.3,0.1-0.5,0.1-0.6,0.1s-0.1,0-0.2,0l0,0l0,0l0,0l0,0l0,0l0,0l1,4.4l4.2-1.7
			c0-0.1-0.7-1.8-2.1-4.2c-1-1.9-2.4-4.1-4.2-6.6c-1.3-1.9-2.9-3.7-4.6-5.6c-2.7-2.7-5.8-5.4-9.6-7.4c-1.9-1-3.9-1.8-6.1-2.4
			c-2.2-0.5-4.5-0.8-6.9-0.7c-3,0.1-6.1,0.6-9.3,1.8c-4.8,1.7-9.7,4.7-14.7,9.3c-5.1,4.5-10.3,10.6-15.8,18.5l7.4,5.1
			c6.9-10,13.2-16.4,18.6-20.3c2.8-2,5.2-3.2,7.5-4.1c2.3-0.9,4.4-1.2,6.3-1.3s3.6,0.2,5.2,0.7c1.4,0.5,2.8,1,4.1,1.8
			c2.3,1.3,4.5,3.2,6.4,5.2c2.9,3,5.2,6.5,6.7,9.1c0.7,1.3,1.4,2.5,1.7,3.3c0.2,0.4,0.3,0.7,0.4,0.9c0,0.1,0.1,0.2,0.1,0.2l0,0l0,0
			l1.2-0.5l-1.2,0.5l0,0l1.2-0.5l-1.2,0.5l2.5-1.1l-2.5,1.1l0,0l2.5-1.1l-2.5,1.1l0,0l4-1.7l-4,1.7l0,0l4-1.7l-4,1.7
			c0.9,2.1,3.1,3.1,5.3,2.7c0.1,0,4-0.9,9.7-2.7c4.4-1.3,9.8-3.1,15.6-5.4c4.3-1.7,8.8-3.6,13.1-5.8c3.3-1.7,6.4-3.5,9.4-5.4
			c2.2-1.5,4.3-3,6.2-4.8c2.8-2.5,5.3-5.3,7.1-8.4c0.9-1.5,1.6-3.2,2.1-5s0.7-3.6,0.7-5.5c0-1.5-0.3-3.1-0.7-4.6
			c-0.7-2.3-1.7-4.6-3.2-6.8c-1.5-2.3-3.3-4.4-5.6-6.6c-1.7-1.7-4.3-1.7-6.1-0.1l-4.4,4c-2.3,2.1-4.9,3.6-7.6,4.7
			c-2.8,1.1-5.7,1.6-8.6,1.7c-4.9,0.1-9.7-1.2-14.1-4l-1.2-0.8L350.4,876.2"/>
		<path class="st7" d="M395.9,892.8c1.5,2,2.6,3.8,3.2,5.6s1,3.6,1,5.2c0,1.4-0.1,2.7-0.5,4c-0.6,1.9-1.5,3.6-2.9,5.2
			s-3.1,2.9-5.3,3.8c-41.8,19.6-72.1,23.9-89,24.3c-5.2,0.1-9.1-0.1-11.7-0.4c-1.3-0.2-2.2-0.2-2.9-0.3c-0.3-0.1-0.5-0.1-0.7-0.1
			c-0.1,0-0.1,0-0.1,0l0,0l-0.5,2l0.5-2l0,0l-0.5,2l0.5-2l-0.3-0.1h-0.3c-1.2-0.1-2.3-0.4-3.2-0.8c-1.4-0.7-2.6-1.8-3.5-3.1
			c-0.8-1.4-1.3-2.9-1.3-4.5c0-0.9,0.1-1.7,0.3-2.6c0.3-0.8,0.7-1.7,1.2-2.5l0,0l0,0l-3.7-2.6l-0.8,4.4c9.2,1.6,18.4,2,26.7,1.8
			c11.6-0.3,21.8-1.8,29.1-3.3c7.4-1.5,11.8-2.9,11.9-2.9l-2.7-8.6l0,0c-0.1,0-4.4,1.4-11.3,2.8c-6.9,1.4-16.4,2.8-27.2,3.1
			c-7.9,0.2-16.3-0.2-24.8-1.7l-2.8-0.5l-1.7,2.4l0,0c-1.2,1.6-1.9,3.3-2.5,5.2c-0.6,1.8-0.7,3.6-0.7,5.3c0.1,4.3,1.8,8.5,4.7,11.6
			c1.4,1.6,3.2,2.9,5.2,3.9s4.2,1.6,6.6,1.8l0.3-4.5l-1,4.4c0.3,0.1,6.3,1.3,17.5,1.1c18.1-0.4,49.8-4.9,92.6-25.1
			c4.3-2,7.8-5,10.2-8.7c1.3-1.8,2.2-3.9,2.8-6c0.6-2.1,0.9-4.4,0.8-6.7c-0.1-2.7-0.6-5.5-1.7-8.2s-2.5-5.4-4.6-8L395.9,892.8"/>
		<path class="st7" d="M659.8,911.2l-23.8-33l-3.6,2.7l4.5-0.1l-2.5,0.1l2.4,0.4c0-0.1,0-0.2,0-0.5l-2.5,0.1l2.4,0.4l-0.5-0.1
			l0.5,0.2v-0.1l-0.5-0.1l0.5,0.2c0,0,0.1-0.3,0.5-0.8c0.3-0.4,0.9-0.9,1.7-1.5c1.3-0.9,3.3-2.1,6.6-3.3c3.3-1.1,7.5-2.2,13.4-3.1
			l-0.7-4.5l0.2,4.5l-0.1-2.6l0.1,2.6l0,0l-0.1-2.6l0.1,2.6l0,0l0,0c0.3,0,1.9,0,4.1,0.2c1.7,0.2,3.7,0.5,5.8,1.2
			c3.2,0.9,6.7,2.4,9.7,4.8c1.5,1.2,2.9,2.5,4.1,4.2c1.2,1.7,2.3,3.5,3,5.9l4.3-1.5l-4.4,1.1l5.2,20.8l8.7-2.2l-5.2-21l-0.1-0.2
			c-1-2.8-2.2-5.2-3.8-7.5c-2.6-3.8-5.9-6.7-9.2-8.8c-2.5-1.5-5.1-2.7-7.6-3.6c-3.7-1.3-7.1-1.9-9.9-2.2c-2.7-0.3-4.6-0.3-5.2-0.3
			c-0.1,0-0.2,0-0.2,0h-0.2h-0.2c-6.8,1.1-11.9,2.4-16,3.9c-3,1.1-5.4,2.3-7.3,3.6c-1.4,0.9-2.6,2-3.4,2.9c-1.4,1.4-2.2,3-2.6,4.2
			c-0.2,0.6-0.4,1.2-0.5,1.6c0,0.2-0.1,0.4-0.1,0.6c0,0.1,0,0.2,0,0.3v0.1v0.1l0,0l0,0l4.5-0.1l0,0h-4.5l0,0v1.4l24.7,34.2
			L659.8,911.2"/>
		<path class="st7" d="M629.6,877.2l-1.2,0.8c-4.2,3-9,4.5-13.9,4.6c-2.9,0.1-5.8-0.4-8.6-1.3c-2.8-0.9-5.5-2.4-7.8-4.3l-4.6-3.8
			c-1.8-1.5-4.5-1.3-6.1,0.3c-2.9,3.1-5.1,6-6.5,9.2c-0.8,1.5-1.2,3.1-1.6,4.6c-0.4,1.5-0.5,3.1-0.5,4.6c0,2,0.4,3.9,1,5.7
			c0.5,1.7,1.4,3.3,2.3,4.7c1.9,2.9,4.2,5.3,6.9,7.5c4.7,3.9,10.6,7,16.5,9.8c9.1,4.1,18.8,7,26.2,9.1s12.7,3,12.8,3
			c1.9,0.4,3.8-0.5,4.7-2.2l0,0l0,0l0,0l0,0l0,0c0.1-0.1,1-1.6,2.5-3.8c1.2-1.6,2.7-3.7,4.6-5.8c2.8-3.2,6.2-6.5,10.1-9
			c1.9-1.2,3.8-2.3,5.9-2.9c2-0.7,4.1-1.1,6.2-1.2c2,0,4,0.2,6.1,0.9c1.6,0.6,3.2,1.3,5,2.4c2.6,1.6,5.4,4,8.3,7.2
			c2.9,3.2,5.9,7.5,8.9,12.7l7.9-4.5c-2.9-5-5.8-9.3-8.8-12.9c-4.4-5.3-9-9.1-13.7-11.5c-2.3-1.2-4.7-2.1-7-2.6s-4.6-0.8-6.8-0.7
			c-2.9,0.1-5.6,0.6-8.2,1.4c-4.5,1.5-8.5,3.8-11.9,6.6c-5.2,4-9.3,8.8-12.2,12.6s-4.4,6.5-4.5,6.7l4,2.2l0.8-4.4l-0.1,0.6l0.1-0.6
			l0,0l-0.1,0.6l0.1-0.6c0,0-3.9-0.7-9.6-2.2c-4.2-1.1-9.6-2.6-15.1-4.4c-4.1-1.4-8.5-3-12.5-4.9c-3-1.4-6-2.9-8.6-4.5
			c-1.9-1.2-3.8-2.4-5.4-3.7c-2.3-1.9-4.3-3.9-5.4-5.9c-0.6-1-1-1.9-1.4-2.9c-0.3-0.9-0.4-1.9-0.5-2.8c0-0.8,0.1-1.6,0.2-2.4
			c0.3-1.3,0.8-2.7,1.8-4.3s2.2-3.4,4-5.2l-3.3-3.1l-2.8,3.6l4.6,3.8c3.3,2.6,6.8,4.5,10.6,5.8s7.7,1.8,11.7,1.7
			c6.6-0.2,13.2-2.2,19-6.3l1.2-0.8L629.6,877.2"/>
		<path class="st7" d="M582.8,898.2c-1.9,2.7-3.3,5.5-4.2,8.3s-1.4,5.6-1.3,8.3c0.1,4.6,1.6,9,4.3,12.6c2.7,3.5,6.5,6.3,10.9,7.9
			c14.7,5.2,22.6,8.3,28.5,10.4c2.9,1,5.3,1.9,7.9,2.6c2.5,0.7,5,1.4,8.1,2c2.2,0.4,4.2,1,6.2,1.3c2,0.5,4.1,0.8,6.4,1.2
			c14,2.4,25.4,2.9,34.2,2.7c4.6-0.1,8.6-0.4,11.8-0.8c3.2-0.4,5.7-0.7,7.4-0.9c2.4-0.3,4.6-1,6.5-2.2c3-1.7,5.2-4,6.7-6.8
			c1.5-2.7,2.4-6,2.3-9.2c0-1.8-0.4-3.6-0.9-5.3c-0.6-1.8-1.5-3.5-2.7-5v-0.1l-1.8-2.3l-2.8,0.7c-8.5,1.9-16.9,2.7-24.7,2.9
			c-10.9,0.3-20.7-0.7-27.7-1.8c-3.5-0.5-6.3-1-8.2-1.5c-1-0.2-1.7-0.4-2.2-0.4c-0.2-0.1-0.4-0.1-0.5-0.1s-0.1,0-0.1,0l0,0l0,0
			l-2.3,8.8c0.1,0,4.6,1.2,12.1,2.3c7.4,1.1,17.7,2.2,29.3,1.9c8.3-0.2,17.4-1.1,26.5-3.2l-1-4.4L708,931l0,0l0,0
			c0.6,0.8,1,1.6,1.4,2.5c0.3,0.8,0.4,1.7,0.5,2.6c0.1,2.1-0.7,4.2-2.1,5.8c-0.7,0.8-1.5,1.5-2.4,2s-2,0.8-3.2,1
			c-1.9,0.2-4.2,0.6-7.2,0.9c-3,0.3-6.7,0.6-11,0.7c-8.3,0.2-19-0.2-32.5-2.5c-2.2-0.3-4.1-0.7-6-1.2s-3.9-0.9-6.1-1.3
			c-2.9-0.6-5.2-1.3-7.4-1.9c-1.7-0.5-3.4-1-5.3-1.8c-2.9-1-6.4-2.3-11.2-4.1s-11-4-19.3-7c-2.9-1-5.2-2.8-6.6-4.8
			c-1.6-2.1-2.4-4.5-2.5-7.4c0-1.7,0.2-3.5,0.9-5.3c0.7-1.9,1.6-3.8,3.1-5.9L582.8,898.2"/>
		<path class="st7" d="M595,875.7l-16.3-59.9l-4.4,1.2l4.5,0.6c0-0.2,0.1-0.7,0.1-1.2c0-1.5-0.4-4-1.8-7.8c-2.1-5.6-6.6-14-16.4-26
			c-9.7-12-24.7-27.6-47.7-47.4c-1.5-1.3-3.2-2.2-5-2.9s-3.6-0.9-5.4-0.9c-2.1,0.1-4.2,0.5-6.1,1.4c-1.9,0.8-3.7,2.2-5.2,3.9
			c-8,9.2-21.7,25.3-35.3,43.1c-6.8,8.9-13.6,18.1-19.6,27.2c-6.1,9.1-11.4,17.8-15.4,25.8c-1,2.2-2.9,5-5.1,7.7
			c-3.3,4.2-7.6,8.7-12,12.6c-2.2,2-4.3,3.8-6.5,5.4c-2.1,1.6-4,2.9-5.7,3.9l4.6,7.8c2.8-1.7,5.8-3.8,8.9-6.3
			c4.6-3.8,9.5-8.3,13.7-13c2.1-2.4,4.1-4.7,5.8-7.1c1.7-2.3,3.2-4.7,4.3-7c3.6-7.5,8.8-15.9,14.7-24.8
			c8.9-13.2,19.4-27.2,29.3-39.4c9.8-12.3,18.9-23,24.9-29.9c0.6-0.7,1.4-1.2,2.2-1.6c0.8-0.3,1.7-0.5,2.5-0.6s1.5,0.1,2.2,0.3
			c0.7,0.3,1.4,0.7,2,1.2c30.4,26.2,46.1,44.6,54.2,56.6c4,6,6.3,10.3,7.3,13.3c1.1,3,1.2,4.5,1.2,4.8v0.1l0,0h2.4l-2.4-0.3
			c0,0.2,0,0.2,0,0.3h2.4l-2.4-0.3l-0.1,0.9l16.5,60.8L595,875.7"/>
		<path class="st7" d="M629.4,678c7.9,8.6,14.2,18.1,19.2,27.8c7.5,14.6,12,29.9,14.8,43.9c2.7,13.8,3.6,26.2,3.9,35.1
			c0.1,2.8,0,5.3,0.1,7.3c0,3.5-0.5,7.1-1.2,10.5l-14.8,65l8.9,2l14.8-65c0.9-4,1.4-8.2,1.5-12.4c0-2.1,0-4.7-0.1-7.7
			c-0.3-12.3-1.9-31.1-7.6-51.5c-2.9-10.2-6.7-20.8-12.1-31.2s-12.1-20.6-20.6-29.8L629.4,678z"/>
		<path class="st7" d="M474.7,718c0,0,0.9,0.4,2.3,1c0.7,0.4,1.6,0.7,2.6,1.1c0.5,0.2,1.1,0.4,1.6,0.6c0.3,0.1,0.6,0.2,0.9,0.3
			s0.6,0.2,0.9,0.3s0.6,0.2,1,0.3c0.3,0.1,0.7,0.2,1,0.3c0.7,0.2,1.4,0.4,2.1,0.4c0.7,0.1,1.5,0.3,2.2,0.3c0.4,0.1,0.8,0.1,1.2,0.2
			c0.4,0.1,0.8,0.1,1.2,0.1c0.4,0,0.8,0.1,1.2,0.1c0.4,0,0.8,0,1.2,0.1c0.8,0.1,1.7,0,2.5,0s1.7,0,2.5-0.2c0.4,0,0.9-0.1,1.3-0.1
			c0.2,0,0.4,0,0.6,0l0.6-0.1l1.3-0.1c0.4-0.1,0.8-0.1,1.3-0.2c0.9-0.1,1.7-0.3,2.5-0.5c1.7-0.4,3.3-0.8,4.9-1.3
			c0.8-0.2,1.6-0.5,2.3-0.8c0.8-0.2,1.5-0.5,2.2-0.8c0.7-0.2,1.4-0.5,2.1-0.8c0.7-0.2,1.3-0.5,2-0.7c1.2-0.5,2.4-1.1,3.4-1.5
			s1.9-0.9,2.6-1.4s1.2-0.7,1.6-1c0.1-0.1,0.2-0.1,0.2-0.2c0.1-0.1,0.1-0.1,0.1-0.1c0.1-0.1,0.1-0.1,0.1-0.1s0,0.1,0,0.2
			c0,0.1,0,0.1-0.1,0.2c0,0.1-0.1,0.2-0.1,0.3c-0.1,0.1-0.1,0.2-0.2,0.3c-0.1,0.1-0.2,0.2-0.2,0.4c-0.2,0.3-0.4,0.6-0.7,0.9
			c-0.5,0.7-1.2,1.4-2,2.3c-0.8,0.8-1.9,1.6-2.9,2.6c-1.2,0.8-2.5,1.8-3.8,2.6c-1.4,0.8-3,1.7-4.6,2.4c-1.7,0.7-3.5,1.4-5.3,1.9
			c-0.5,0.1-0.9,0.2-1.4,0.3s-0.9,0.2-1.4,0.3s-1,0.2-1.4,0.3l-1.5,0.2c-1,0.1-2,0.2-2.9,0.3c-0.5,0-1,0-1.5,0s-1,0-1.5,0
			c-1-0.1-1.9-0.1-2.9-0.2c-0.5-0.1-0.9-0.1-1.4-0.2c-0.5-0.1-0.9-0.2-1.4-0.3s-0.9-0.2-1.3-0.3s-0.9-0.3-1.3-0.4
			c-0.9-0.3-1.7-0.6-2.4-0.8c-0.8-0.3-1.5-0.7-2.2-1c-0.3-0.2-0.7-0.4-1-0.6c-0.3-0.2-0.6-0.4-0.9-0.6c-1.2-0.8-2.2-1.6-3.2-2.3
			c-0.9-0.8-1.6-1.5-2.2-2.1C475.3,718.8,474.7,718,474.7,718"/>
		<path class="st8" d="M344.3,127.8c-13,17.3-22.9,37.2-28.9,58.8c1.8,2.4,3.4,4.8,4.9,7.5c2.4,4.4,4.4,9.3,6,14.5
			c2,7,3.2,14.5,3.4,22.5c0.1,2.4,0,4.8-0.1,7.2c-0.5,11.2-3,21.6-6.8,30.7c-2,4.8-4.4,9.1-7.1,13c5.6,17.8,14.6,32.7,26.2,44.9
			c12.1,12.7,27.1,22.6,44.3,29.9c11.5,4.8,24,8.5,37.3,11.1c17.7,3.4,36.7,4.8,56.6,4.3l0,0c0.7,0,1.4,0,2.2-0.1
			C449.6,358.9,317.6,293.8,344.3,127.8"/>
		<path class="st7" d="M315.7,282.1c-0.6,0.8-1.2,1.6-1.7,2.3c4.3,15.2,32.5,94.5,156.7,91.5c6-0.1,12.3-0.5,18.7-1.1
			c0,0-2.6-0.8-7.2-2.7c-0.7,0-1.4,0-2.2,0.1l0,0c-19.9,0.5-38.9-0.9-56.6-4.3c-13.3-2.6-25.8-6.3-37.3-11.1
			c-17.3-7.3-32.2-17.2-44.3-29.9C330.2,314.8,321.2,300,315.7,282.1 M345,124.1c0,0-26.3,25.8-31.4,60.3c0.6,0.8,1.3,1.6,2,2.4
			c6-21.7,15.9-41.5,28.9-58.8C344.6,126.7,344.8,125.3,345,124.1"/>
		<path class="st7" d="M313.5,184.4c-0.2,1-0.3,2-0.4,3.1c0,0,28.6,41.4,0.1,94.5c0,0,0.2,0.9,0.7,2.5c0.6-0.7,1.2-1.5,1.7-2.3
			c2.7-3.9,5.1-8.2,7.1-13c3.9-9.1,6.2-19.5,6.8-30.7c0.1-2.4,0.2-4.8,0.1-7.2c-0.2-8-1.4-15.6-3.4-22.5c-1.5-5.3-3.5-10.1-6-14.5
			c-1.5-2.7-3.1-5.2-4.9-7.5C314.8,185.9,314.2,185.1,313.5,184.4"/>
		<path class="st2" d="M600,216.4c-7.5,0.2-12.4-18-22.9-39.7c-11.4-23.9-25.1-43.1-16.2-47.3c0.9-0.4,1.9-0.6,2.9-0.7
			c9.2-0.2,23.5,14.8,33.7,36.3c11.4,23.9,13.6,46.7,4.7,50.9C601.5,216.1,600.8,216.4,600,216.4 M464.9,69.7
			c-5,0.1-9.9,0.4-14.8,1.1c-20.5,24.1-32.5,55.5-31.7,89.6c1.8,73.7,63,131.9,136.6,130.1c32.1-0.8,61.3-12.9,83.8-32.4
			c0.3-5,0.4-10.2,0.3-15.5c-0.2-9.2-1.2-18.4-2.7-27.3v-0.2C621.3,128.6,549.2,67.6,464.9,69.7"/>
		<path class="st9" d="M472.4,60.8c-4.7,0.1-9.4,0.4-14,0.9c-2.9,2.9-5.7,5.8-8.3,8.9c4.9-0.6,9.8-0.9,14.8-1.1
			c84.3-2.1,156.4,59.1,171.6,145.3v0.2c1.5,9,2.4,18.1,2.7,27.3c0.1,5.3,0.1,10.4-0.3,15.5c1.6-1.3,3.1-2.8,4.7-4.2
			c0.7-7,1-14.4,0.9-22.2c-0.2-9.2-1.1-18.3-2.7-27v-0.3l0,0c-11.1-62.4-53.8-113-109.7-133.5C513.5,63.8,493.3,60.3,472.4,60.8"/>
		<path class="st10" d="M476.1,58c-5,0.1-10,0.4-14.9,1.1c-1,0.8-1.9,1.7-2.7,2.7c4.6-0.5,9.3-0.8,14-0.9c20.9-0.5,41.1,3,59.8,9.8
			c55.8,20.5,98.6,71,109.6,133.4l0,0v0.3c1.5,8.8,2.4,17.8,2.7,27c0.2,7.8-0.1,15.2-0.9,22.2c2.2-2.1,4.3-4.2,6.3-6.5
			c0.4-5.4,0.5-10.8,0.4-16.5c-0.2-9.2-1.2-18.4-2.7-27.3v-0.2C632.4,117.2,560.3,56,476.1,58"/>
		<path class="st11" d="M563.8,128.6c-1,0-2,0.2-2.9,0.7c-8.8,4.2,4.8,23.4,16.2,47.3c10.4,21.8,15.4,39.9,22.9,39.7
			c0.7,0,1.5-0.2,2.3-0.6c8.8-4.2,6.7-27-4.7-50.9C587.3,143.6,573,128.4,563.8,128.6"/>
		<path class="st12" d="M339.3,633.2c0,0.2,0,0.4,0,0.5c0.1,2.1,0.2,4.8,0.7,7.8c0.5,2.9,1.1,6.1,2.2,9c0.7,2,1.6,3.9,2.7,5.6
			c1.2,2,2.8,3.7,4.6,5.2c0.6,0.1,1.3,0.3,2.3,0.4c2.2,0.3,5.4,1,9.5,1.6c8.2,1.3,20,3.1,34.2,4.8c28.5,3.4,66.7,6.5,105.6,5.5l0,0
			c12.3-0.3,24.6-1,36.8-2.2c-21.6-2.9-73.3-11.3-104-29c-1.2,1.4-2.4,2.9-3.5,4.1c-1.6,1.7-3,3.3-4.4,4.7c-1.4,1.3-2.5,2.5-3.6,3.4
			c-1,0.9-1.9,1.5-2.5,2.1c-0.6,0.4-0.9,0.7-0.9,0.7s0.2-0.3,0.7-0.9c0.4-0.6,1.1-1.5,1.8-2.6c0.8-1.1,1.7-2.4,2.7-4.1
			c1.1-1.5,2.2-3.4,3.5-5.3c0.6-1,1.3-1.9,1.9-3c0.3-0.4,0.5-0.8,0.8-1.1c-2-1.3-4-2.6-5.8-4.1c-0.8,1.1-1.6,2.1-2.4,3.2
			c-10.7,13.8-20,21.7-20.1,21.8l-2.4,2l-2.7-1.4c-3.3-1.7-5.9-3.9-7.8-6.1c-1.9-2.3-2.9-4.5-3.5-6.7c-0.3-1.2-0.5-2.4-0.5-3.4
			c-0.4-0.1-0.8-0.2-1.2-0.3c-1.7-0.4-3.4-0.8-5.2-1.2c-3.4-0.8-6.8-1.6-10.3-2.5c-6.8-1.7-13.7-3.7-20.4-5.7
			C345.3,635.2,342.3,634.2,339.3,633.2 M360.6,438c-8.2,6-16,12.5-23.5,19.3c-5.1,4.6-10.2,9.5-15,14.4c-4.9,4.9-9.7,9.9-14.2,15.2
			c-4.7,5.1-9.1,10.4-13.5,15.8s-8.6,10.8-12.7,16.4l-1.5,2.1l-1.4,2.1c-0.5,0.7-1,1.4-1.5,2.1l-0.4,0.5l-0.3,0.5
			c-0.2,0.3-0.5,0.7-0.7,1c-1.7,2.7-3.3,5.6-4.5,8.6c-2.5,6-3.9,12.4-4,18.8c-0.2,6.4,0.7,13,2.9,19c2.1,6.2,5.3,11.9,9.4,16.8
			c2.1,2.5,4.3,4.8,6.8,6.8l0.9,0.8l0.9,0.7l1,0.8l0.1,0.1l0,0l0,0l0,0l0.3,0.2l0.5,0.4c1.3,1,2.7,1.9,4.2,2.8
			c5.7,3.6,11.8,6.8,17.9,9.7s12.6,5.5,19.1,7.8c6.5,2.4,13,4.6,19.7,6.6s13.3,3.9,20,5.6c3.3,0.8,6.7,1.6,10.1,2.5
			c1.7,0.4,3.4,0.8,5,1.2c1,0.2,2,0.5,3,0.6l0.1-0.1c0.6-0.5,1.2-0.9,1.7-1.4c1.2-1,2.3-2.1,3.3-3.1c2.1-2.2,4.3-4.3,6.2-6.7
			c2.5-2.9,4.9-5.9,7.1-9.1c-10.6,0.2-50.4-1.3-90.9-29.2c-22-15.2-27.9-45.1-13.3-67.5c12.8-19.7,30.9-46.2,53.3-75.7
			C358.3,442.5,359.6,440.4,360.6,438 M285.1,353.5c-7.1,0.2-13,0.9-17.7,2.1c-4.8,1.2-8.3,2.8-11.1,4.6c-1.9,1.2-3.2,2.5-4.4,3.8
			c-1.6,1.7-2.6,3.7-3.4,5.7c-0.9,2.6-1.4,5.5-1.3,8.4c0.1,4.7,1.3,9.5,2.7,12.9c1.3,3.6,2.6,5.9,2.8,6.1l0,0l3.3,5.9l-6.8,0.9
			c-3,0.4-5.4,0.9-7.3,1.6c-1.9,0.6-3.1,1.4-4,2c-0.6,0.4-1,0.9-1.3,1.3c-0.4,0.5-0.6,1-0.7,1.7c-0.1,0.4-0.1,0.8-0.1,1.2
			c0,0.6,0.1,1.2,0.2,2c0.2,0.7,0.4,1.5,0.8,2.3c0.6,1.6,1.6,3.4,2.7,5c2.2,3.3,5,6.5,6.8,8.3c1.2,1.3,2.1,2.1,2.2,2.1l0,0l2.7,2.4
			l-1.8,3.1c-4.3,7.4-7.2,14.1-9,20.2c-1.7,6.1-2.4,11.7-2.3,16.6c0.1,4.5,0.9,8.6,2.1,12.3c1.2,3.7,2.9,7,4.8,10.1
			c4,6.1,9.2,11,14.1,14.6c3.3,2.4,6.4,4.2,9,5.7c1,0.6,1.9,1.1,2.7,1.3l1.5-2l1.5-2.1c4.2-5.7,8.5-11.3,13-16.8s9.1-10.8,13.8-16.1
			c4.8-5.2,9.5-10.4,14.5-15.5c5-5,10.1-10,15.3-14.7c7.2-6.6,14.8-12.8,22.6-18.7c-3.3,0.1-6.2,0.3-8.7,0.4
			c-1.4,0.1-2.6,0.2-3.7,0.2c-1.1,0.1-2,0.1-2.8,0.2c-1.4,0.1-2.2,0.2-2.3,0.2l0,0c0,0,0.7-0.5,2-1.3c0.6-0.4,1.5-0.8,2.5-1.4
			c1-0.5,2.2-1.1,3.5-1.6c2.7-1.1,5.9-2.1,9.9-2.8c2-0.3,4.1-0.7,6.3-1c1.1-0.1,2.2-0.2,3.4-0.3c0.2,0,0.3,0,0.5,0
			c0.1-0.1,0.3-0.2,0.4-0.3v0.1c1.2-11.6-2.8-23.3-10.8-31.7c-3.2-0.4-6.4-0.7-9.7-1.2c-4.8-0.6-9.6-1-14.4-1.5
			c-2.4-0.3-4.8-0.6-7.2-1c-2.4-0.3-4.8-0.8-7.2-1.1c-2.4-0.4-4.8-0.9-7.2-1.4c-2.4-0.5-4.8-1.1-7.2-1.8c2.5-0.6,4.9-0.9,7.4-1.3
			s4.9-0.5,7.4-0.8c2.5-0.2,4.9-0.3,7.4-0.4c1.8,0,3.5-0.1,5.3,0c-10.3-8.4-19.7-17.9-28.3-28.3
			C294.4,353.4,289.5,353.2,285.1,353.5"/>
		<path class="st12" d="M413.4,624.3c-1.9,2.6-4,5.2-6,7.7c-2.1,2.5-4.5,4.9-6.8,7.2c-1.2,1.1-2.4,2.3-3.7,3.4
			c-0.6,0.5-1.3,1.1-2,1.6l-0.6,0.4c0,0.1,0,0.3,0,0.4c0,0.8,0.1,1.7,0.6,2.8c0.4,1.1,1.2,2.2,2.6,3.4c0.3,0.3,0.7,0.6,1.1,1
			c0.3-0.2,0.5-0.5,0.8-0.7c2.1-2,5-4.9,8.4-8.7c3.1-3.5,6.5-7.7,10.1-12.6C416.1,628.3,414.7,626.5,413.4,624.3"/>
		<path class="st7" d="M301.5,352.6l-0.1,1.3c-0.5-0.1-1-0.1-1.5-0.2c8.6,10.4,18,19.9,28.3,28.3c0.7,0,1.4,0,2.1,0
			c2.4,0,4.9,0.2,7.3,0.3c0.3,0,0.5,0.1,0.8,0.1c-1.1-0.4-2.2-0.7-3.3-1l-3.7-1C331.3,380.5,319.4,371.8,301.5,352.6"/>
		<path class="st7" d="M323,382.1c-2.5,0.1-4.9,0.2-7.4,0.4s-4.9,0.4-7.4,0.8s-4.9,0.7-7.4,1.3c2.4,0.7,4.8,1.3,7.2,1.8
			c2.4,0.5,4.8,1,7.2,1.4c2.4,0.4,4.8,0.8,7.2,1.1c2.4,0.3,4.8,0.7,7.2,1c4.8,0.6,9.6,1.1,14.4,1.5c3.2,0.3,6.5,0.7,9.7,1.2
			c-4.1-4.4-9.3-7.9-15.5-10.1c-0.3,0-0.5-0.1-0.8-0.1c-2.4-0.1-4.9-0.3-7.3-0.3c-0.7,0-1.4-0.1-2.1,0
			C326.5,382.1,324.7,382.1,323,382.1"/>
		<path class="st7" d="M283.7,351c-21.5,0.5-53.4,8.1-35.8,51.2c0,0-32.7,4.6,1,32.3c0,0-41.7,59.4,21.8,84.1l0.5-0.7l0.1-0.2
			c-0.8-0.4-1.7-0.9-2.7-1.3c-2.5-1.3-5.7-3.3-9-5.7c-4.9-3.6-10.1-8.5-14.1-14.6c-2-3.1-3.7-6.4-4.8-10.1c-1.2-3.7-2-7.8-2.1-12.3
			c-0.1-5,0.5-10.5,2.3-16.6c1.7-6.1,4.7-12.8,9-20.2l1.8-3.1l-2.7-2.4c-0.1,0-0.9-0.9-2.2-2.1c-1.8-2-4.6-5.1-6.8-8.3
			c-1.1-1.7-2.1-3.3-2.7-5c-0.3-0.8-0.5-1.6-0.8-2.3c-0.2-0.7-0.2-1.4-0.2-2c0-0.4,0-0.8,0.1-1.2c0.1-0.6,0.4-1.1,0.7-1.7
			c0.3-0.4,0.7-0.8,1.3-1.3c0.9-0.7,2.2-1.4,4-2c1.9-0.6,4.3-1.2,7.3-1.6l6.8-0.9l-3.3-5.9l0,0c-0.1-0.2-1.4-2.6-2.8-6.1
			c-1.3-3.6-2.6-8.3-2.7-12.9c-0.1-2.9,0.3-5.8,1.3-8.4c0.8-2,1.8-3.8,3.4-5.7c1.2-1.3,2.6-2.7,4.4-3.8c2.8-1.8,6.3-3.4,11.1-4.6
			s10.6-2,17.7-2.1c4.4-0.1,9.3,0,14.8,0.4c0.5,0,1,0.1,1.5,0.2l0.1-1.3c-0.2-0.2-0.4-0.4-0.6-0.6C301,352,293.4,350.9,283.7,351"/>
		<path class="st7" d="M364.2,424.5c-0.2,0-0.3,0-0.5,0c-1.2,0-2.3,0.2-3.4,0.3c-2.2,0.3-4.3,0.5-6.3,1c-3.9,0.7-7.3,1.8-9.9,2.8
			c-1.3,0.5-2.5,1.1-3.5,1.6s-1.9,0.9-2.5,1.4c-1.3,0.8-2,1.3-2,1.3l0,0c0.1,0,0.9,0,2.3-0.2c0.8-0.1,1.7-0.1,2.8-0.2
			c1.1-0.1,2.3-0.2,3.7-0.2c2.5-0.2,5.4-0.3,8.7-0.4C357.1,429.5,360.6,427,364.2,424.5"/>
		<path class="st7" d="M364.6,424.2c-0.1,0.1-0.3,0.2-0.4,0.3c-3.5,2.4-7.1,4.9-10.5,7.4c-7.9,5.8-15.4,12.1-22.6,18.7
			c-5.3,4.7-10.4,9.7-15.3,14.7c-5,5-9.9,10.1-14.5,15.5c-4.8,5.2-9.3,10.6-13.8,16.1s-8.8,11-13,16.8l-1.5,2.1l-1.5,2l-0.1,0.2
			l-0.5,0.7c0.7,0.3,1.4,0.6,2.1,0.8c0,0-44,73.3,60.2,109.8l6.4,0.4l-2.4-0.1l2.4,0.1l0,0l0,0c0,0,0,0.1,0,0.2c0,0.2,0,0.5-0.1,0.8
			c0,0.6-0.1,1.5,0,2.6c2.9,0.9,5.8,2,8.9,2.8c6.8,2,13.6,4,20.4,5.7c3.4,0.9,6.8,1.7,10.3,2.5c1.7,0.4,3.4,0.8,5.2,1.2
			c0.4,0.1,0.8,0.2,1.2,0.3c0-0.2,0-0.3,0-0.5c-0.1-2.5,0.5-4.2,0.6-4.5l8.6,2.8l-2-0.7l2.1,0.5l0,0l0,0l0,0c0,0,0,0.1-0.1,0.3
			c0,0.2-0.1,0.5-0.1,0.9l0.6-0.4c0.7-0.5,1.3-1.1,2-1.6c1.3-1.1,2.4-2.3,3.7-3.4c2.3-2.3,4.7-4.7,6.8-7.2c2.1-2.5,4.2-5,6-7.7
			c-1.5-2.4-2.5-4.8-3.1-7.5c0,0-0.7,0-2.1,0.1c-0.2,0-0.5,0-0.7,0c-2.2,3.2-4.6,6.1-7.1,9.1c-2,2.4-4.1,4.5-6.2,6.7
			c-1.1,1-2.3,2.1-3.3,3.1c-0.6,0.5-1.2,1-1.7,1.4l-0.1,0.1c-1-0.2-2-0.5-3-0.6c-1.7-0.4-3.4-0.7-5-1.2c-3.4-0.8-6.7-1.6-10.1-2.5
			c-6.7-1.7-13.4-3.6-20-5.6c-6.7-2-13.2-4.2-19.7-6.6c-6.5-2.4-12.8-5-19.1-7.8c-6.2-2.8-12.3-6.1-17.9-9.7
			c-1.4-0.9-2.8-1.8-4.2-2.8l-0.6-0.3l-0.3-0.2l0,0l0,0l0,0l-0.1-0.1l-1-0.8l-0.9-0.7l-0.9-0.8c-2.5-2-4.7-4.4-6.8-6.8
			c-4.1-5-7.3-10.7-9.4-16.8c-2.1-6.2-3-12.6-2.9-19c0.2-6.5,1.6-12.8,4-18.8c1.2-2.9,2.8-5.9,4.5-8.6c0.2-0.3,0.5-0.7,0.7-1
			l0.3-0.5l0.4-0.5c0.5-0.7,1-1.4,1.5-2.1l1.4-2.1l1.5-2.1c4.1-5.6,8.3-11,12.7-16.4c4.4-5.4,8.9-10.6,13.5-15.8
			c4.7-5.1,9.4-10.2,14.2-15.2c4.9-4.9,9.9-9.7,15-14.4c7.5-6.8,15.4-13.3,23.5-19.3C362.8,433.8,364.2,429,364.6,424.2L364.6,424.2
			"/>
		<path class="st7" d="M333,629.2c1.4,0.5,2.8,0.9,4.2,1.4c0,0-1.5,13.2,8.4,30.3c0,0,54.5,18.8,140.8,16.6
			c19.1-0.5,39.7-2,61.6-4.9c0,0-3.7-0.4-9.9-1.2c-12.1,1.2-24.5,1.9-36.8,2.2l0,0c-39,1-77.2-2.2-105.6-5.5
			c-14.2-1.7-26-3.5-34.2-4.8c-4.1-0.7-7.3-1.2-9.5-1.6c-1-0.2-1.8-0.4-2.3-0.4c-1.8-1.4-3.4-3.1-4.6-5.2c-1-1.7-2-3.7-2.7-5.6
			c-1.1-3-1.9-6.2-2.2-9c-0.5-2.9-0.6-5.7-0.7-7.8c0-0.2,0-0.4,0-0.5c0-1.1,0-1.9,0-2.6c0-0.4,0-0.6,0.1-0.8c0-0.1,0-0.2,0-0.2l0,0
			l0,0l-2.4-0.1l2.4,0.1L333,629.2"/>
		<path class="st7" d="M417.9,630.2c-3.5,4.9-7,9.1-10.1,12.6c-3.4,3.8-6.3,6.8-8.4,8.7c-0.3,0.3-0.6,0.5-0.8,0.7
			c-0.4-0.3-0.8-0.6-1.1-1c-1.3-1.3-2.1-2.5-2.6-3.4c-0.4-1.1-0.5-2-0.6-2.8c0-0.2,0-0.3,0-0.4c0-0.4,0.1-0.7,0.1-0.9
			c0-0.1,0.1-0.2,0.1-0.3l0,0l0,0l0,0l0,0l-2.1-0.5l2,0.7l-8.6-2.8c-0.1,0.3-0.7,2-0.6,4.5c0,0.2,0,0.3,0,0.5c0,1,0.3,2.2,0.5,3.4
			c0.6,2.1,1.6,4.5,3.5,6.7c1.9,2.3,4.4,4.3,7.8,6.1l2.7,1.4l2.4-2c0.2-0.1,9.4-8,20.1-21.8c0.8-1,1.6-2.1,2.4-3.2
			C422.2,634.5,419.8,632.3,417.9,630.2"/>
		<path class="st7" d="M430.4,640.5c-0.3,0.4-0.5,0.8-0.8,1.1c-0.7,1-1.4,2-1.9,3c-1.3,1.9-2.4,3.8-3.5,5.3s-1.9,2.9-2.7,4.1
			c-0.8,1.1-1.4,2-1.8,2.6s-0.7,0.9-0.7,0.9s0.3-0.2,0.9-0.7s1.4-1.1,2.5-2.1c1-0.9,2.3-2.1,3.6-3.4c1.4-1.3,2.8-2.9,4.4-4.7
			c1.2-1.3,2.3-2.7,3.5-4.1C432.8,641.8,431.6,641,430.4,640.5"/>
		<path class="st12" d="M378.8,485.4c-2.9,0.1-5.8,2-6.4,5.6c-1.6,10.6-4,24.4-7.5,39.8c0.1,0,0.2,0.1,0.3,0.1
			c2.1,0.7,4.2,1.6,6.3,2.4c1.1,0.5,2.2,0.9,3.3,1.4c0,0,0,0,0-0.1c0.1-1.3,0.1-2.7,0.2-4.2s0.2-3,0.3-4.6c0.1-1.6,0.2-3.3,0.4-5
			c0.2-1.7,0.2-3.4,0.4-5.1c0.2-3.4,0.4-6.9,0.7-10.1c0.2-3.2,0.4-6.2,0.7-8.8c0.1-0.6,0.1-1.3,0.2-1.9c0-0.6,0.1-1.2,0.1-1.7
			c0.1-1.1,0.1-2,0.1-2.8s0.1-1.4,0.1-1.8s0-0.7,0-0.7s0.1,0.2,0.3,0.6c0.1,0.2,0.2,0.4,0.4,0.7c0.2,0.3,0.3,0.6,0.5,1
			c0.4,0.7,0.7,1.6,1.2,2.7c0.2,0.5,0.4,1.1,0.6,1.7s0.4,1.2,0.6,1.9c0.2,0.7,0.3,1.3,0.6,2.1c0.2,0.7,0.3,1.4,0.6,2.2
			c0.1,0.8,0.3,1.5,0.5,2.3c0.1,0.8,0.2,1.6,0.5,2.4c0.1,0.8,0.2,1.7,0.4,2.5c0.1,0.9,0.2,1.7,0.3,2.6c0.1,0.9,0.1,1.8,0.3,2.6
			c0.1,0.9,0.1,1.8,0.2,2.7c0.1,1.8,0.2,3.5,0.2,5.3c0,1.7,0.1,3.5,0,5.1c0,3.3-0.1,6.4-0.3,9c-0.1,1.5-0.2,2.9-0.3,4.1
			c1.7,1,3.5,1.9,5.3,3c1.9,1.2,3.9,2.3,5.7,3.5c1.8,1.2,3.8,2.4,5.6,3.7c1.8,1.3,3.7,2.5,5.4,3.8c1.8,1.3,3.6,2.6,5.3,4
			c1.7,1.4,3.5,2.7,5.2,4.1s3.4,2.8,5,4.3s3.3,2.9,4.9,4.5c0.8,0.7,1.5,1.5,2.3,2.2c0.2-0.1,0.4-0.2,0.6-0.2
			c1.5-0.6,3.1-0.9,4.5-0.9l0,0c2.2-0.1,4.2,0.4,6,1.1c1.8,0.7,3.4,1.4,4.8,2.2c0,0,0.1,0,0.1,0.1c-4.5-6.1-12.5-16.1-24.5-27.2
			c-11.3-10.4-20.3-23-26.3-37.2c-2.3-5.4-5.3-12.2-9.1-20.6C383.6,486.5,381.2,485.2,378.8,485.4"/>
		<path class="st7" d="M384.1,539.2c-0.1,0.8-0.2,1.6-0.2,2.2c-0.1,0.8-0.2,1.4-0.3,1.8c-0.1,0.4-0.1,0.6-0.1,0.6l-1.1-0.1
			c11.3,7.6,26.9,19.3,43,35.3c0,0,1-0.5,2.8-1.1l-3.3-3.5c1.2-1,2.5-1.9,3.7-2.5c-0.7-0.8-1.5-1.5-2.3-2.2c-1.6-1.6-3.3-3-4.9-4.5
			s-3.4-2.9-5-4.3c-1.7-1.4-3.5-2.8-5.2-4.1c-1.7-1.4-3.5-2.7-5.3-4s-3.6-2.6-5.4-3.8c-1.8-1.3-3.7-2.5-5.6-3.7
			c-1.8-1.2-3.8-2.3-5.7-3.5C387.7,541.2,386,540.2,384.1,539.2 M365,530.7c-0.2,0.7-0.4,1.4-0.4,2.1c0,0,3.9,2,10.1,6
			c0.1-1.2,0.1-2.6,0.2-4.1c-1.1-0.5-2.2-0.9-3.3-1.4c-2-0.9-4.1-1.7-6.3-2.4C365.2,530.8,365.1,530.7,365,530.7"/>
		<path class="st7" d="M377.8,488c0,0,0,0.2,0,0.7c0,0.4,0,1.1-0.1,1.8c0,0.8-0.1,1.7-0.1,2.8c0,0.5-0.1,1.1-0.1,1.7
			c-0.1,0.6-0.1,1.2-0.2,1.9c-0.2,2.6-0.4,5.6-0.7,8.8c-0.2,3.2-0.4,6.6-0.7,10.1c-0.2,1.7-0.2,3.4-0.4,5.1c-0.2,1.7-0.2,3.4-0.4,5
			c-0.1,1.6-0.2,3.2-0.3,4.6c-0.1,1.5-0.1,2.9-0.2,4.2c0,0,0,0,0,0.1c-0.1,1.5-0.1,2.9-0.2,4.1c2.3,1.4,4.9,3.1,7.8,5.1l1.1,0.1
			c0,0,0-0.2,0.1-0.6c0.1-0.4,0.2-1,0.3-1.8c0.1-0.6,0.2-1.4,0.2-2.2c0.1-1.2,0.2-2.6,0.3-4.1c0.1-2.6,0.3-5.7,0.3-9
			c0-1.7,0-3.4,0-5.1s-0.1-3.5-0.2-5.3c0-0.9-0.1-1.8-0.2-2.7c0-0.9-0.1-1.8-0.3-2.6c-0.1-0.9-0.1-1.7-0.3-2.6
			c-0.1-0.9-0.2-1.7-0.4-2.5c-0.1-0.8-0.2-1.6-0.5-2.4c-0.1-0.8-0.3-1.6-0.5-2.3c-0.2-0.8-0.3-1.5-0.6-2.2c-0.2-0.7-0.3-1.4-0.6-2.1
			c-0.2-0.7-0.4-1.3-0.6-1.9s-0.4-1.2-0.6-1.7c-0.4-1-0.8-1.9-1.2-2.7c-0.2-0.4-0.3-0.7-0.5-1s-0.3-0.5-0.4-0.7
			C377.9,488.1,377.8,488,377.8,488"/>
		<path class="st7" d="M433.8,571c-1.5,0-3,0.3-4.5,0.9c-0.2,0.1-0.4,0.1-0.6,0.2c-1.3,0.6-2.6,1.5-3.7,2.5l3.3,3.5
			c1.7-0.4,4-1,6.8-1.1c3.9-0.1,8.6,0.6,13.8,3.2c0,0-1.4-2.2-4-5.9c0,0-0.1,0-0.1-0.1c-1.3-0.8-2.9-1.6-4.8-2.2
			C438.1,571.5,436.1,571,433.8,571L433.8,571"/>
		<path class="st12" d="M491,590.7c-3.8,0.1-6.9,4-5.5,8c3.2,9.3,5.2,21.2,1.8,33.5c-1.1,4,2.1,7.8,5.9,7.7c0.7,0,1.4-0.1,2-0.4
			c8.2-3.2,19.5-6.2,32.8-6.5c5.4-0.1,11,0.2,17,1.1c0.4,0.1,0.8,0.1,1.1,0.1c4.7-0.1,7.6-5.6,4.7-9.6c-1.3-1.8-2.7-3.6-4-5.6
			c-7.2-10.2-18.2-17-30.6-18.8c-5.4-0.8-13.8-4.3-22.1-8.8C493,590.8,491.9,590.5,491,590.7"/>
		<path class="st5" d="M348.3,670.3c-0.8,0.3-1.4,0.7-2,1.2s-1.2,1.1-1.6,1.8c-0.8,1.3-1.2,2.8-1.2,4.4c0,1.4,0.5,2.9,1.1,4.2
			c0.7,1.3,1.7,2.3,3,2.9c0.8,0.5,1.8,0.9,3,1c35.2,4.7,66.6,7.5,94.5,8.8c10.5-4.7,23.1-8.7,38.1-11.8c-33.1-0.2-64.5-2.9-88.9-5.7
			C370.4,674.3,353.1,671.2,348.3,670.3"/>
		<path class="st13" d="M326,865.5c-0.5,0-1.9,0.1-3.8,0.4c-2.2,0.4-5,1-7.8,2.1c-1.9,0.7-3.8,1.7-5.6,2.9c-2.4,1.7-4.5,3.8-6.2,6.6
			c-1,1.5-1.7,3.2-2.4,5.3l-2.5,12.7c1.9-1,3.8-2,5.6-2.6c3.2-1.2,6.3-1.8,9.2-1.8l0,0l0,0c2.4-0.1,4.7,0.2,6.9,0.7
			c2.2,0.5,4.2,1.3,6.1,2.4c2.2,1.1,4.3,2.6,6.1,4.2l16-26.1l-0.1-0.1c-0.4-0.4-1-0.9-1.9-1.5c-1.2-0.8-3-1.5-5.6-2.4
			C336.8,867,332.3,866.2,326,865.5 M326.2,865.5L326.2,865.5L326.2,865.5"/>
		<path class="st13" d="M312.9,900c-1.9,0-4,0.4-6.3,1.3c-2.3,0.9-4.8,2.1-7.5,4.1c-4.4,3.1-9.3,7.9-14.6,14.9
			c6,0.7,12,0.8,17.6,0.7l0,0c10.8-0.3,20.4-1.7,27.2-3.1c2.4-0.5,4.4-0.9,6.1-1.3c-1.6-2.6-3.7-5.9-6.5-8.8c-2-2.1-4.1-3.8-6.4-5.2
			c-1.3-0.8-2.7-1.4-4.1-1.8C316.5,900.3,314.8,900,312.9,900"/>
		<path class="st14" d="M340.1,924.8c-2.1,0.6-5.1,1.3-8.8,2c-7.4,1.5-17.5,3-29.1,3.3c-7.3,0.2-15.3-0.1-23.3-1.3
			c0,0.1,0,0.1-0.1,0.2c-0.3,0.8-0.4,1.7-0.3,2.6c0,1.6,0.5,3.1,1.3,4.5s2.1,2.5,3.5,3.1c0.9,0.5,2,0.8,3.2,0.8h0.3l0.3,0.1l0,0h0.1
			c0.1,0,0.4,0.1,0.7,0.1c0.6,0.1,1.6,0.3,2.9,0.3c2.6,0.2,6.5,0.5,11.7,0.4c9.3-0.2,22.8-1.7,40-6.1
			C341.9,932.5,340.9,929,340.1,924.8"/>
		<path class="st5" d="M360.5,696.3c-12.4,66.4-13.9,100-13.9,100l0,0v0.2v0.2c-3.3,25.4-7.3,41.9-10.5,52.1c-1.1,3.5-2.1,6.4-3,8.5
			c3.8,0.6,6.9,1.3,9.7,2.2c4,1.3,7.1,2.7,9.2,4.4c0.8,0.6,1.5,1.3,2.2,1.8c9.4-25.4,16.8-48.8,22.9-69.8
			c10.2-35.7,12.4-50.3,24.1-66.7c6.1-8.5,15-17.9,28.6-26.2C408.4,701.5,385.5,699.5,360.5,696.3"/>
		<path class="st7" d="M348.9,668.7l0.5,1.3c-0.3,0.1-0.5,0.2-0.8,0.3c-0.1,0.1-0.3,0.1-0.4,0.2c4.8,0.9,22.1,4,46.4,6.8
			c24.4,2.9,55.8,5.6,88.9,5.7c3.3-0.7,6.7-1.3,10.3-1.9C493.8,681,416.5,680.2,348.9,668.7"/>
		<path class="st7" d="M348.6,668.5c0,0-19.1,12.9,5.1,20.2l-0.3,1.9l7.8,1.5c-0.3,1.4-0.5,2.8-0.8,4.2c25,3.1,47.9,5.2,69.1,6.6
			c4.6-2.9,9.9-5.6,15.7-8.2c-27.8-1.3-59.2-4-94.5-8.8c-1.2-0.2-2.2-0.5-3-1c-1.3-0.7-2.2-1.7-3-2.9c-0.7-1.3-1.1-2.7-1.1-4.2
			c0-1.6,0.3-3.2,1.2-4.4c0.4-0.6,0.9-1.2,1.6-1.8c0.6-0.4,1.2-0.9,2-1.2c0.1-0.1,0.3-0.1,0.4-0.2c0.3-0.1,0.5-0.2,0.8-0.3l-0.5-1.3
			C348.8,668.7,348.7,668.5,348.6,668.5"/>
		<path class="st7" d="M344.9,796.2L344.9,796.2 M353.4,690.7l-9.8,72.5c0,0,1.6,46.8-15.7,93.4c1.8,0.2,3.5,0.4,5.1,0.7
			c0.8-2.1,1.9-4.9,3-8.5c3.3-10.2,7.2-26.7,10.5-52.1v-0.2v-0.2c0-0.1,1.6-33.6,13.9-100c0.3-1.4,0.5-2.8,0.8-4.2L353.4,690.7"/>
		<path class="st7" d="M326.2,865.5L326.2,865.5L326.2,865.5L326.2,865.5 M327.9,856.7c-0.6,1.4-1.1,2.9-1.7,4.3l0,0
			c-1.2,0-30.1,1.1-31.4,36.4c1-0.7,2.1-1.4,3.1-1.9l2.5-12.7c0.7-2,1.4-3.7,2.4-5.3c1.7-2.7,3.9-4.9,6.2-6.6
			c1.8-1.2,3.6-2.2,5.6-2.9c2.9-1.2,5.7-1.7,7.8-2.1c1.9-0.3,3.3-0.4,3.8-0.4c6.2,0.6,10.7,1.6,14.1,2.7c2.5,0.8,4.2,1.6,5.6,2.4
			c0.9,0.6,1.5,1.1,1.9,1.5l0.1,0.1l-16.1,26.1c1.2,1.1,2.4,2.1,3.4,3.2c1,1.1,2.1,2.3,3,3.3c0.4-6.1,2.1-11.4,6.2-13.7
			c3.5-8.7,6.7-17.2,9.8-25.4c-0.6-0.6-1.3-1.3-2.2-1.8c-2.2-1.5-5.2-3.1-9.2-4.4c-2.7-0.8-5.8-1.6-9.7-2.2
			C331.4,857,329.7,856.8,327.9,856.7"/>
		<path class="st7" d="M312.7,891c-3,0.1-6.1,0.6-9.2,1.8c-1.9,0.6-3.8,1.6-5.6,2.6c-1,0.5-2,1.2-3.1,1.9c-0.1,0.9-0.1,1.9,0,2.9
			c0,0-13.7,8.2-18.8,18.9l1.2,0.2c2.4,0.4,4.8,0.8,7.2,1c5.3-6.9,10.3-11.8,14.6-14.9c2.8-2,5.2-3.2,7.5-4.1
			c2.3-0.9,4.4-1.2,6.3-1.3s3.6,0.2,5.2,0.7c1.4,0.5,2.8,1,4.1,1.8c2.3,1.3,4.5,3.2,6.4,5.2c2.8,2.9,5,6.2,6.5,8.8
			c1.4-0.3,2.5-0.7,3.3-0.9c-0.5-3.7-0.7-7.5-0.5-11c-0.9-1.1-1.9-2.3-3-3.3c-1-1.1-2.2-2.1-3.4-3.2c-1.8-1.6-3.9-2.9-6.1-4.2
			c-1.9-1-3.9-1.8-6.1-2.4C317.4,891.2,315.1,891,312.7,891L312.7,891L312.7,891"/>
		<path class="st7" d="M338.6,915.8c-0.9,0.2-2,0.5-3.3,0.9c-1.7,0.4-3.7,0.9-6.1,1.3c-6.9,1.4-16.4,2.8-27.2,3.1l0,0
			c-5.6,0.1-11.5,0-17.6-0.7c-2.4-0.2-4.8-0.6-7.2-1l-1.2-0.2c-2.7,5.4-3.1,11.4,1.5,17.1c0,0,4.1,7.7,26.5,7.2
			c9.5-0.2,22.3-1.9,39.4-6.3c0,0-0.2-0.8-0.7-2.2c-17.2,4.5-30.7,5.9-40,6.1c-5.2,0.1-9.1-0.1-11.7-0.4c-1.3-0.2-2.2-0.2-2.9-0.3
			c-0.3-0.1-0.5-0.1-0.7-0.1c-0.1,0-0.1,0-0.1,0l0,0l-0.3-0.1h-0.3c-1.2-0.1-2.3-0.4-3.2-0.8c-1.4-0.7-2.6-1.8-3.5-3.1
			c-0.8-1.4-1.3-2.9-1.3-4.5c0-0.9,0.1-1.7,0.3-2.6c0-0.1,0-0.1,0.1-0.2c8.1,1.2,16,1.5,23.3,1.3c11.6-0.3,21.8-1.8,29.1-3.3
			c3.7-0.8,6.7-1.5,8.8-2C339.5,922,339,918.8,338.6,915.8"/>
		<path class="st5" d="M528.3,713.2L528.3,713.2L528.3,713.2c0,0,0,0.1,0,0.2c0,0.1,0,0.1-0.1,0.2c0,0.1-0.1,0.2-0.1,0.3
			c-0.1,0.1-0.1,0.2-0.2,0.3c-0.1,0.1-0.2,0.2-0.2,0.4c-0.2,0.3-0.4,0.6-0.7,0.9c-0.5,0.7-1.2,1.4-2,2.3c-0.8,0.8-1.9,1.6-2.9,2.6
			c-1.2,0.8-2.5,1.8-3.8,2.6c-1.4,0.8-3,1.7-4.6,2.4c-1.7,0.7-3.5,1.4-5.3,1.9c-0.5,0.1-0.9,0.2-1.4,0.3s-0.9,0.2-1.4,0.3
			s-1,0.2-1.4,0.3l-1.5,0.2c-1,0.1-2,0.2-2.9,0.3c-0.2,0-0.4,0-0.5,0c-0.3,0-0.6,0-0.9,0c-0.5,0-1,0-1.5,0c-1-0.1-1.9-0.1-2.9-0.2
			c-0.5-0.1-0.9-0.1-1.4-0.2c-0.5-0.1-0.9-0.2-1.4-0.3s-0.9-0.2-1.3-0.3s-0.9-0.3-1.3-0.4c-0.9-0.3-1.7-0.6-2.4-0.8
			c-0.8-0.3-1.5-0.7-2.2-1c-0.3-0.2-0.7-0.4-1-0.6c-0.3-0.2-0.6-0.4-0.9-0.6c-1.2-0.8-2.2-1.6-3.2-2.3c-0.9-0.8-1.6-1.5-2.2-2.1
			c-1-1.3-1.6-2-1.6-2s0.9,0.4,2.3,1c0.7,0.4,1.6,0.7,2.6,1.1c0.5,0.2,1.1,0.4,1.6,0.6c0.3,0.1,0.6,0.2,0.9,0.3s0.6,0.2,0.9,0.3
			s0.6,0.2,1,0.3c0.3,0.1,0.7,0.2,1,0.3c0.7,0.2,1.4,0.4,2.1,0.4c0.7,0.1,1.5,0.3,2.2,0.3c0.4,0.1,0.8,0.1,1.2,0.2
			c0.4,0.1,0.8,0.1,1.2,0.1c0.4,0,0.8,0.1,1.2,0.1c0.4,0,0.8,0,1.2,0.1c0.8,0.1,1.7,0,2.5,0s1.7,0,2.5-0.2c0.4,0,0.9-0.1,1.3-0.1
			c0.2,0,0.4,0,0.6,0l0.6-0.1l1.3-0.1c0.4-0.1,0.8-0.1,1.3-0.2c0.9-0.1,1.7-0.3,2.5-0.5c1.7-0.4,3.3-0.8,4.9-1.3
			c0.8-0.2,1.6-0.5,2.3-0.8c0.8-0.2,1.5-0.5,2.2-0.8s1.4-0.5,2.1-0.8c0.7-0.2,1.3-0.5,2-0.7c1.2-0.5,2.4-1.1,3.4-1.5
			s1.9-0.9,2.6-1.4c0.7-0.4,1.2-0.7,1.6-1c0.1-0.1,0.2-0.1,0.2-0.2c0.1-0.1,0.1-0.1,0.1-0.1C528.2,713.2,528.3,713.2,528.3,713.2
			 M529,711c-0.7,0-1.4,0.1-2.1,0.3c-7.4,1.5-17.9,2.8-31.9,3.2c-4.9,0.1-10.2,0.2-16-0.1c-0.1,0-0.2,0-0.3,0
			c-3.6,0.1-5.5,4.3-3.1,7.1c4.9,5.8,9.5,14.7,6.1,26.4c3.6-4.3,6.9-8.1,9.5-11.1c1.5-1.7,3.2-3,5.2-3.9c1.9-0.8,4-1.4,6.1-1.4
			c1.8,0,3.7,0.2,5.4,0.9c1.8,0.7,3.4,1.6,5,2.9c23,19.9,38,35.5,47.7,47.4c9.7,12,14.3,20.4,16.4,26c1.4,3.8,1.8,6.3,1.8,7.8
			c0,0,0,0,0,0.1l15.7,57.9l3.5,2.8c2.3,1.9,5.1,3.4,7.8,4.3c2.8,0.9,5.7,1.4,8.6,1.3c4.7-0.1,9.3-1.5,13.3-4.2
			c-10.1-16.2-21.1-36.1-28-56.2c-6.2-18.2-16-34.9-28.1-49.7c-9.7-11.9-26.3-28-30.3-51.3C540.5,715,535.1,710.8,529,711"/>
		<path class="st13" d="M591.3,883.2c-0.5,0.7-1,1.3-1.4,2c-1,1.6-1.5,3-1.8,4.3c-0.2,0.9-0.3,1.7-0.2,2.4c0,1,0.1,1.9,0.5,2.8
			c0.3,0.9,0.7,1.9,1.4,2.9c1.2,2,3.1,3.9,5.4,5.9c1.6,1.3,3.4,2.5,5.4,3.7c2.6,1.6,5.6,3.1,8.6,4.5c4,1.8,8.4,3.5,12.5,4.9
			c5.5,1.9,10.9,3.3,15.1,4.4c2.6,0.6,4.9,1.2,6.5,1.5c0.7-1.1,1.6-2.4,2.8-3.9s2.5-3.3,4.1-5L631,887.2c-5,2.9-10.7,4.5-16.3,4.6
			c-4,0.1-7.9-0.5-11.7-1.7c-3.8-1.3-7.4-3.2-10.6-5.8L591.3,883.2"/>
		<path class="st14" d="M587.5,908.7c-0.1,0.2-0.2,0.5-0.3,0.7c-0.7,1.9-0.9,3.7-0.9,5.3c0.1,2.8,0.9,5.4,2.5,7.4
			c1.6,2.1,3.8,3.8,6.6,4.8c8.3,3,14.4,5.2,19.3,7s8.3,3.1,11.2,4.1c1.9,0.7,3.6,1.2,5.3,1.8c2.2,0.6,4.5,1.3,7.4,1.9
			c1.4,0.3,2.6,0.6,3.8,0.9c2.8-1.8,4.6-5,4.1-8.6c-0.1-0.5-0.1-1-0.1-1.5c-1.1-0.3-1.8-0.5-2.1-0.5c-0.9-0.2-5.8-1.2-12.6-2.9
			c-7.5-2-17.1-5-26.2-9.1c-6.1-2.8-11.8-5.9-16.5-9.8C588.5,909.8,588,909.2,587.5,908.7"/>
		<path class="st7" d="M632.8,886c-0.6,0.4-1.1,0.7-1.7,1l19.2,26.4c0.4-0.4,0.8-0.9,1.3-1.3C648.5,908.5,641.3,899,632.8,886"/>
		<path class="st7" d="M594.6,874.2l0.3,1.4l-7.7,2.1c-3.3,4.8-4.6,10.7-3.6,16.6c0.3,1.7,0.7,3.5,1.3,5.5l5.2,3.7
			c-1.3,1.7-2.1,3.6-2.8,5.2c0.5,0.5,1.1,1,1.7,1.5c4.7,3.9,10.6,7,16.5,9.8c9.1,4.1,18.8,7,26.2,9.1c6.7,1.8,11.7,2.7,12.6,2.9
			c-0.1,0-0.2,0-0.2,0l2.3-8.8l0,0l0,0h0.1c0.1,0,0.3,0.1,0.5,0.1c0.9-3.3,2.6-6.5,5.6-9.3c0,0-0.5-0.6-1.4-1.8
			c-0.4,0.4-0.9,0.9-1.3,1.3c-1.6,1.7-2.9,3.5-4.1,5c-1.2,1.4-2,2.8-2.8,3.9c-1.6-0.4-3.9-0.9-6.5-1.5c-4.2-1.1-9.6-2.6-15.1-4.4
			c-4.1-1.4-8.5-3-12.5-4.9c-3-1.4-6-2.9-8.6-4.5c-1.9-1.2-3.8-2.4-5.4-3.7c-2.3-1.9-4.3-3.9-5.4-5.9c-0.6-1-1-1.9-1.4-2.9
			c-0.3-0.9-0.4-1.9-0.5-2.8c0-0.8,0.1-1.6,0.2-2.4c0.3-1.3,0.8-2.7,1.8-4.3c0.4-0.6,0.9-1.3,1.4-2l1.2,1c3.3,2.6,6.8,4.5,10.6,5.8
			s7.7,1.8,11.7,1.7c5.6-0.1,11.3-1.7,16.3-4.6c0.6-0.3,1.1-0.6,1.7-1c-1.6-2.5-3.2-5-4.9-7.6c-4,2.7-8.7,4.1-13.3,4.2
			c-2.9,0.1-5.8-0.4-8.6-1.3c-2.8-0.9-5.5-2.4-7.8-4.3L594.6,874.2"/>
		<path class="st7" d="M646.6,923L646.6,923l-2.3,8.8c0,0,0.1,0,0.2,0c0.3,0.1,1,0.3,2.1,0.5c-0.3-2.9-0.1-6.1,0.7-9.1
			c-0.2-0.1-0.4-0.1-0.5-0.1C646.8,923,646.6,923,646.6,923L646.6,923 M585.1,900c0.4,1.7,1.1,3.5,1.7,5.5c0,0-4.4,3-4.8,12.3
			c0,0-2.3,14.1,54.2,26.2c0.7,0.2,1.4,0.3,2.1,0.2c1.6,0,3.2-0.6,4.5-1.3c-1.2-0.3-2.5-0.5-3.8-0.9c-2.9-0.6-5.2-1.3-7.4-1.9
			c-1.7-0.5-3.4-1-5.3-1.8c-2.9-1-6.4-2.3-11.2-4.1s-11-4-19.3-7c-2.9-1-5.2-2.8-6.6-4.8c-1.6-2.1-2.4-4.5-2.5-7.4
			c0-1.7,0.2-3.5,0.9-5.3c0.1-0.2,0.2-0.5,0.3-0.7c0.7-1.7,1.5-3.4,2.8-5.2L585.1,900"/>
		<path class="st7" d="M502.5,731.3c-2.1,0.1-4.2,0.5-6.1,1.4c-1.9,0.8-3.7,2.2-5.2,3.9c-2.6,3.1-5.8,6.8-9.5,11.1
			c-0.6,2.1-1.5,4.3-2.6,6.7c0,0,11.6-19.7,24.6-20c2.6-0.1,5.2,0.7,7.9,2.5c0,0,14.4,10.4,48.2,51.3c7.6,9.2,13.1,20,16.2,31.5
			l4.9,18.7l4.6,19l5.2,16.6c-1.3,1.1-2.3,2.4-3.2,3.7l7.7-2.1l-0.3-1.4l-15.7-57.9c0,0,0,0,0-0.1c0-1.5-0.4-4-1.8-7.8
			c-2.1-5.6-6.6-14-16.4-26c-9.7-12-24.7-27.6-47.7-47.4c-1.5-1.3-3.2-2.2-5-2.9C506.2,731.5,504.4,731.3,502.5,731.3"/>
		<path class="st7" d="M528.3,713.2L528.3,713.2l-0.2,0.2c-0.1,0.1-0.1,0.1-0.2,0.2c-0.3,0.3-0.9,0.6-1.6,1
			c-0.7,0.4-1.6,0.8-2.6,1.4c-1,0.5-2.1,1-3.4,1.5c-0.6,0.2-1.3,0.5-2,0.7c-0.7,0.3-1.4,0.5-2.1,0.8c-0.7,0.2-1.5,0.5-2.2,0.8
			c-0.8,0.2-1.5,0.5-2.3,0.8c-1.6,0.5-3.2,0.9-4.9,1.3c-0.8,0.1-1.7,0.3-2.5,0.5c-0.4,0.1-0.8,0.1-1.3,0.2l-1.3,0.1l-0.6,0.1
			c-0.2,0-0.4,0-0.6,0c-0.4,0-0.9,0.1-1.3,0.1c-0.8,0-1.7,0.1-2.5,0.2s-1.7,0-2.5,0c-0.4,0-0.8,0-1.2-0.1c-0.4,0-0.8-0.1-1.2-0.1
			c-0.4-0.1-0.8-0.1-1.2-0.1c-0.4-0.1-0.8-0.1-1.2-0.2c-0.8-0.1-1.5-0.3-2.2-0.3c-0.7-0.1-1.4-0.4-2.1-0.4c-0.3-0.1-0.7-0.2-1-0.3
			s-0.6-0.2-1-0.3c-0.3-0.1-0.6-0.2-0.9-0.3s-0.6-0.2-0.9-0.3c-0.6-0.2-1.1-0.4-1.6-0.6c-1-0.5-1.9-0.8-2.6-1.1
			c-1.5-0.8-2.3-1-2.3-1s0.6,0.8,1.6,2c0.5,0.6,1.3,1.3,2.2,2.1c0.9,0.7,1.9,1.6,3.2,2.3c0.3,0.2,0.6,0.4,0.9,0.6
			c0.3,0.2,0.7,0.4,1,0.6c0.7,0.4,1.4,0.8,2.2,1c0.8,0.3,1.6,0.7,2.4,0.8c0.4,0.1,0.9,0.3,1.3,0.4c0.4,0.1,0.9,0.2,1.3,0.3
			c0.5,0.1,0.9,0.2,1.4,0.3s0.9,0.1,1.4,0.2c0.9,0.2,1.9,0.2,2.9,0.2c0.5,0.1,1,0,1.5,0c0.3,0,0.6,0,0.9,0c0.2,0,0.4,0,0.5,0
			c1-0.1,2-0.1,2.9-0.3l1.5-0.2c0.5-0.1,1-0.2,1.4-0.3c0.5-0.1,1-0.2,1.4-0.3c0.5-0.1,0.9-0.2,1.4-0.3c1.8-0.5,3.6-1.2,5.3-1.9
			c1.7-0.7,3.2-1.6,4.6-2.4c1.4-0.8,2.7-1.8,3.8-2.6c1.2-0.9,2.2-1.8,2.9-2.6c0.9-0.8,1.5-1.6,2-2.3c0.3-0.3,0.5-0.6,0.7-0.9
			c0.1-0.1,0.2-0.3,0.2-0.4c0.1-0.1,0.1-0.2,0.2-0.3c0-0.1,0.1-0.2,0.1-0.3s0-0.2,0.1-0.2C528.3,713.2,528.3,713.2,528.3,713.2"/>
		<path class="st7" d="M528.5,453.8l-6.2,5c7.6,9.6,5,23.6,2.7,31.4c-3.6,0.7-6.2,3.9-6.1,7.7c0.1,4.2,3.6,7.5,7.8,7.4
			s7.5-3.6,7.4-7.8c0-1.7-0.7-3.3-1.6-4.6C535.3,483.6,538.6,466.5,528.5,453.8z"/>
		<path class="st7" d="M565.6,508.4c0-10-4.3-19.7-11.7-26.9c-5.8-5.7-13.1-16.1-14.2-33.3l-7.9,0.5c1.3,19.8,9.8,31.8,16.7,38.5
			c5.9,5.8,9.2,13.5,9.2,21.4c-2.2,1.4-3.6,3.8-3.5,6.6c0.1,4.2,3.6,7.5,7.8,7.4c4.2-0.1,7.5-3.6,7.4-7.8
			C569.4,512,567.9,509.8,565.6,508.4z"/>
	</g>
	<g>
		
			<linearGradient id="SVGID_1_" gradientUnits="userSpaceOnUse" x1="717.8043" y1="-1785.9716" x2="723.6737" y2="-1785.9716" gradientTransform="matrix(0.9852 -0.1713 0.1713 0.9852 43.6804 2393.4731)">
			<stop  offset="0" style="stop-color:#000000"/>
			<stop  offset="1" style="stop-color:#FFFFFF"/>
		</linearGradient>
		<path class="st15" d="M449.9,507.8l-5,0.8l0.8,4.7l0,0l0,0c0.1-2.2,2.1-3.9,4.2-3.6h0.1h0.2L449.9,507.8z"/>
		<path class="st16" d="M450.9,514L450.9,514l-1.1-6.4l-5,0.8l1.1,6.3v0.1v0.1l0.5,2.4l2.6-0.5l0,0
			C450.3,516.7,451.2,515.3,450.9,514z"/>
		
			<linearGradient id="SVGID_00000142886429598280540120000004733195266851259306_" gradientUnits="userSpaceOnUse" x1="717.8043" y1="-1785.7745" x2="723.6737" y2="-1785.7745" gradientTransform="matrix(0.9852 -0.1713 0.1713 0.9852 43.6804 2393.4731)">
			<stop  offset="0" style="stop-color:#000000"/>
			<stop  offset="1" style="stop-color:#FFFFFF"/>
		</linearGradient>
		<path style="opacity:0.44;fill:url(#SVGID_00000142886429598280540120000004733195266851259306_);enable-background:new    ;" d="
			M449.9,508l-5,0.8l0.8,4.7l0,0l0,0c0.1-2.2,2.1-3.9,4.2-3.6h0.1h0.2L449.9,508z"/>
		<path class="st18" d="M450.1,492.1l-4,0.7c-2.2,0.4-3.5,2.4-3.2,4.6l1.2,6.5l0.9,5.5l0.7,3.9l0,0c-0.4-2.2,1.1-4.2,3.2-4.6h0.1
			l3.9-0.7c4.4-0.8,7.3-4.9,6.5-9.3l0,0C458.7,494.2,454.5,491.4,450.1,492.1z M452,503l-2.9,0.5l-1-5.8l2.9-0.5
			c1.6-0.2,3.1,0.8,3.4,2.4S453.6,502.8,452,503z"/>
	</g>
</g>
</svg>
