<?xml version="1.0" encoding="utf-8"?>
<svg version="1.1" id="Capa_1" x="0px" y="0px" viewBox="0 0 584 57" style="enable-background:new 0 0 584 57;" xmlns="http://www.w3.org/2000/svg">
  <style type="text/css">
	.st0{fill:#FFFFFF;}
	.st1{font-family:'YuGothicUI-Bold';}
	.st2{font-size:29px;}
	.st3{font-family:'DINAlternate-Bold';}
</style>
  <text transform="matrix(1 0 0 1 0 31)" class="st0 st1 st2" style="fill: rgb(2, 2, 2); white-space: pre;">㍾</text>
  <text transform="matrix(1 0 0 1 29 31)" class="st0 st3 st2" style="fill: rgb(2, 2, 2); white-space: pre;">  </text>
  <text transform="matrix(1 0 0 1 42.9053 31)" class="st0 st1 st2" style="fill: rgb(2, 2, 2); white-space: pre;">㌻</text>
  <text transform="matrix(1 0 0 1 71.9053 31)" class="st0 st3 st2" style="fill: rgb(2, 2, 2); white-space: pre;"> </text>
  <text transform="matrix(1 0 0 1 78.8579 31)" class="st0 st1 st2" style="fill: rgb(2, 2, 2); white-space: pre;">㌷</text>
  <text transform="matrix(1 0 0 1 107.8579 31)" class="st0 st3 st2" style="fill: rgb(2, 2, 2); white-space: pre;"> </text>
  <text transform="matrix(1 0 0 1 114.8105 31)" class="st0 st1 st2" style="fill: rgb(2, 2, 2); white-space: pre;">㌆</text>
  <text transform="matrix(1 0 0 1 143.8106 31)" class="st0 st3 st2" style="fill: rgb(2, 2, 2); white-space: pre;"> </text>
  <text transform="matrix(1 0 0 1 150.7632 31)" class="st0 st1 st2" style="fill: rgb(2, 2, 2); white-space: pre;">㍗㍎</text>
  <text transform="matrix(1 0 0 1 208.7632 31)" class="st0 st3 st2" style="fill: rgb(2, 2, 2); white-space: pre;"> </text>
  <text transform="matrix(1 0 0 1 215.7158 31)" class="st0 st1 st2" style="fill: rgb(2, 2, 2); white-space: pre;">㍈㍐</text>
  <text transform="matrix(1 0 0 1 273.7159 31)" class="st0 st3 st2" style="fill: rgb(2, 2, 2); white-space: pre;"> </text>
  <text transform="matrix(1 0 0 1 280.6685 31)" class="st0 st1 st2" style="fill: rgb(2, 2, 2); white-space: pre;">㍕㍖㍒</text>
  <text transform="matrix(1 0 0 1 367.6685 31)" class="st0 st3 st2" style="fill: rgb(2, 2, 2); white-space: pre;"> </text>
  <text transform="matrix(1 0 0 1 374.6211 31)" class="st0 st1 st2" style="fill: rgb(2, 2, 2); white-space: pre;">㌿㍂㌤</text>
</svg>