<?xml version="1.0" encoding="utf-8"?>
<!-- Generator: Adobe Illustrator 28.2.0, SVG Export Plug-In . SVG Version: 6.00 Build 0)  -->
<svg version="1.1" id="Capa_1" xmlns="http://www.w3.org/2000/svg" xmlns:xlink="http://www.w3.org/1999/xlink" x="0px" y="0px"
	 viewBox="0 0 733.7 833.8" style="enable-background:new 0 0 733.7 833.8;" xml:space="preserve">
<style type="text/css">
	.st0{opacity:0.2;}
	.st1{fill:#3C1847;}
	.st2{fill:#FFFFFF;}
	.st3{opacity:0.3;}
	.st4{fill:#FF8E7E;}
	.st5{opacity:0.7;}
	.st6{fill:#85C2C1;}
	.st7{opacity:0.35;}
	.st8{fill:#0E1A29;}
	.st9{opacity:0.5;}
	.st10{fill:#99A8BA;}
</style>
<g>
	<g>
		<g class="st0">
			
				<ellipse transform="matrix(0.6417 -0.767 0.767 0.6417 -447.1897 350.8979)" class="st1" cx="152" cy="654.1" rx="25.7" ry="216"/>
		</g>
		<g>
			<g>
				<path class="st2" d="M171.4,449l-16.3-13.7c-8.6-7.2-12.4-18-11.2-28.4c0.7-6,3.1-11.6,7.2-16.5l116.4-139
					c13.1-15.7,36.5-17.8,52.3-4.6l10.8,9.1l7.3,42.7C338.2,299.6,171.4,449,171.4,449z"/>
			</g>
			<g>
				<path class="st1" d="M169.1,451.7l-16.3-13.7c-15-12.6-17-35.1-4.4-50.1L264.6,249c14.4-17.2,40.2-19.5,57.4-5.1l10.8,9.1
					c1.5,1.3,1.7,3.5,0.4,5.1s-3.5,1.7-5.1,0.4l-10.8-9.1c-14.2-11.9-35.3-10-47.2,4.2l-116.4,139c-10,12-8.5,29.8,3.5,39.8
					l13.9,11.6c64.2-57.3,158.4-142,163.6-147.7c0.4-0.6,1.1-1.1,1.9-1.4c1.9-0.6,4,0.5,4.6,2.3c0.7,2.3-0.6,3.5-2.8,5.6
					c-1.2,1.2-3,2.8-5.3,5c-4.3,4-10.6,9.7-18.8,17.3c-13.7,12.6-32.9,30-57.2,51.7c-41.2,37.1-83,74.5-83.3,74.8
					C172.5,452.9,170.5,453,169.1,451.7z M334.4,299.6L334.4,299.6L334.4,299.6z M334.4,299.6L334.4,299.6L334.4,299.6z
					 M334.4,299.6L334.4,299.6L334.4,299.6z M334.4,299.6L334.4,299.6L334.4,299.6z M334.4,299.6L334.4,299.6L334.4,299.6z
					 M334.3,299.4c0,0,0,0.1,0.1,0.1C334.4,299.5,334.3,299.5,334.3,299.4z M334.3,299.4L334.3,299.4L334.3,299.4z M334.3,299.4
					L334.3,299.4L334.3,299.4z M334.3,299.4L334.3,299.4L334.3,299.4z"/>
			</g>
			<g>
				<path class="st2" d="M236.7,729.1l-60.5-50.7c-7.2-7.8-7.6-14.1-4.4-20.9c2.2-4.7,6.1-9.8,10.7-15.9l27.4-36.7
					c3.1-4.1,5.6-8.8,7.1-13.8l10.5-32.1l-1.9,1.3l0,0l-32.2,21.2l-44.4,48c-7.7,8.3-20.4,9.1-29.1,1.9l-60.6-50.8
					c-6-5.1-9.3-12.8-7.8-20.6c1.1-6.6,5.3-12.8,12.5-16.5c6.3-3.4,14.9-5,25.8-3.5c0,0,64.9-86.5,95.6-119.5
					s126.7-151.4,126.7-151.4l32.9,8.9l100.1,73.3l8.6,74.5l-59.1,108.4l-6.1,11.1c-35.7,52.5-76.2,103.4-120.3,153.1
					C280.7,726.3,260.6,746.5,236.7,729.1z"/>
			</g>
			<g class="st3">
				<path class="st1" d="M236.7,729.1l-60.5-50.7c-7.2-7.8-7.6-14.1-4.4-20.9c0,0,41.9,49.2,58.1,40.6c16.2-8.7,4.7-27.4,4.7-27.4
					s64.2-40.4,66.9-78.4c0,0-36.7-25.8-48.1-40.2c0,0-34.2-32.4-39.3-51.8c0.1,0.1,0.3,0.4,0.7,0.8l0.8,2.4c0.1-0.3,0.2-0.7,0.4-1
					c9.7,10.6,54.4,55.3,106.4,44c-9.6-7.3-21.4-20.2-18.6-37.7c0.6-3.3-1.3-6.4-4.5-7.5c-18.2-5.9-73.2-21.3-83.2,1.2
					c-0.5-0.6-0.9-1-1.3-1.3l-5.9-16c0,0-10.7-0.8-23.2-5c-12.5-4.1-6.3-34.8-6.3-34.8s75.3,15.2,80.2,16.5
					c4.9,1.2,38.8,11.9,39.8,13.5s31.9,29.1,34.3,33.9c2.3,4.8,10,20.7,10,20.7s3.6,3.3,5.2,5.8c0.1-0.1,0.1-0.1,0.2-0.2
					c25.2-15.4,38.5-12.3,45.1-1.5l-6.1,11.1c-35.7,52.5-76.2,103.4-120.3,153.1C280.7,726.3,260.6,746.5,236.7,729.1z"/>
			</g>
			<g class="st3">
				<path class="st1" d="M215.7,503.5l-0.8-2.4c0.3,0.4,0.8,0.8,1.3,1.3C216,502.8,215.9,503.2,215.7,503.5z"/>
			</g>
			<g>
				<path class="st1" d="M234.3,732l-60.5-50.7c-0.1-0.1-0.3-0.2-0.3-0.4c-13.8-15.2-5.7-25.7,5.4-40.5l0.8-1.1l27.4-36.7
					c2.9-3.9,5.2-8.1,6.5-12.7l7.3-22.2l-25.1,16.5L151.6,632c-9,9.7-24,10.7-34.2,2.2l-60.6-50.8c-7.2-6-10.7-15.2-9.2-24.1
					c2.4-13.6,15.8-25.8,40.2-23.2c9.2-12.2,66.5-87.9,94.5-118.1c30.2-32.6,125.6-150,126.6-151.2c0.9-1.2,2.4-1.6,3.8-1.2
					l32.9,8.9c0.4,0.1,0.9,0.3,1.2,0.6l100.1,73.3c0.8,0.6,1.4,1.6,1.5,2.5l8.6,74.5c0.3,2-1.2,3.9-3.2,4c-2,0.3-3.9-1.2-4-3.2
					l-8.4-72.8l-98.3-71.9l-30-8.1c-12.3,15.1-97.1,119.3-125.4,149.8c-30.2,32.5-94.6,118.3-95.3,119.2c-0.8,1.1-2.1,1.6-3.4,1.4
					c-21-2.9-32.3,6.5-34.2,17.1c-1.1,6.3,1.5,12.8,6.6,17.2l60.6,50.8c7.2,6,17.8,5.3,24.1-1.5l44.3-48c0.2-0.2,0.5-0.4,0.7-0.6
					l34.3-22.4c1.3-0.9,3-0.8,4.2,0.1s1.7,2.5,1.2,4.1l-10.5,32.1c-1.7,5.4-4.3,10.3-7.7,14.8L184.5,645c-11.8,15.5-15.1,21-6,31
					l60.3,50.4c9,6.5,17.9,7.5,23.7,2.8c6.8-5.5,7.7-17,2.1-29.3c-0.6-1.3-0.3-2.8,0.6-4c46.6-52.5,85.8-102.4,120-152.6
					c1.1-1.6,3.4-2.1,5-1c1.6,1.1,2.1,3.4,1,5c-33.9,50-72.9,99.6-119,151.7c5.8,14.5,4,28.4-5.1,35.7c-8.5,6.9-21,5.8-32.6-2.6
					C234.5,732,234.4,732,234.3,732z"/>
			</g>
			<g>
				<path class="st1" d="M346,453.1l-69.4-58.1c-7.1-6-8.1-16.6-2.1-23.7l26.2-31.2c6-7.1,16.6-8.1,23.7-2.1l69.4,58.1
					c7.1,6,8.1,16.6,2.1,23.7L369.7,451C363.8,458.2,353.1,459.1,346,453.1z M319.6,343.6c-4-3.3-10.1-2.8-13.5,1.1L280,376
					c-3.3,4-2.8,10.1,1.1,13.5l69.4,58.1c4,3.3,10.1,2.8,13.5-1.1l26.2-31.2c3.3-4.1,2.8-10.1-1.1-13.5L319.6,343.6z"/>
			</g>
			<g>
				<g>
					<path class="st4" d="M244,350.9l231.9,51.6c9.3,2.1,15.3,11,13.7,20.4l-14.7,83.1c-1.7,9.8-11.1,16.3-20.9,14.3l-260.8-51.3
						c-9.2-1.8-15.4-10.6-14.1-19.9l12.5-88.6"/>
				</g>
				<path class="st2" d="M406.8,479.2c2.1,0.8,13.1,2.8,13.1,2.8s-4.4-10.4,1.8-14.3c6.2-3.9,12.4-4,12.4-4s5,2.1,6.2,2.8
					s0.6,3,2.9,3.9c2.4,0.9-0.4,14.8-0.4,14.8s4.7,1,7.5,2c2.8,0.9,6.4,2.6,6.4,3.7c-0.1,1.2-0.4-1.7-0.1,1.2
					c0.2,2.9-0.7,14.8-1.9,14.9c-1.2,0.1,5.4,6.8-5.6,3.6c-11-3.2-48.5-10.3-47-10.9c1.5-0.6-4.2-2.9-2.9-9.1
					c1.2-6.1,4.5-9.2,4.5-9.2S400.6,477,406.8,479.2z"/>
				<path class="st2" d="M414.4,440.5c4.5-2.4,47.4,12.7,50.5,9.6c3.1-3.2,8-6.2,9.6-10.9s2.8-22.1,2.8-22.1s-9.7-7.3-25.9-10
					s-29.1-4.1-29.1-4.1s-6.9-3.4-10.6,15.6C408,437.6,414.4,440.5,414.4,440.5z"/>
				<path class="st2" d="M254.8,383.9c2,1.3,137.5,27.1,137.5,27.1s3.9-4,4.9-7.4c1-3.4-0.6-7.3-0.6-7.3L258.8,366
					c0,0-3.6,1.3-5.3,6.2C251.6,377.1,249.7,380.9,254.8,383.9z"/>
				<path class="st2" d="M278.2,400.2c0,0,87,18.5,88.4,18.1c1.4-0.3,22.7,3.7,22.7,3.7s5.5,1.3,4.2,8.2c-1.3,6.9-11,55.5-11,55.5
					s0,9-12.4,7.5c-12.4-1.5-168.3-34.4-169.2-35.6s-6.5-3.5-5.8-14.3s4.7-39.4,4.7-39.4s2.3-4.5,5.9-4.5
					C209.3,399.6,278.2,400.2,278.2,400.2z"/>
				<g class="st3">
					<path class="st1" d="M454,520.4l-260.8-51.3c-7.1-1.4-12.3-6.8-13.8-13.4c2.1,1.6,4.5,2.7,7.2,3.2l260.9,51.4
						c9.7,1.9,19.1-4.5,20.9-14.3l14.7-83.1c0.4-2.5,0.3-4.8-0.2-7c5.2,3.9,8,10.5,6.9,17.3L475,506.2
						C473.2,515.8,463.8,522.3,454,520.4z"/>
				</g>
				<g class="st5">
					<path class="st2" d="M488.7,427.9c0.5-8.5-5.3-16.4-13.8-18.3l-232-51.6l-52.3,9.6l1-7l52.4-9.6l231.9,51.6
						c9.3,2.1,15.3,11,13.7,20.4L488.7,427.9z"/>
				</g>
				<g>
					<path class="st1" d="M182.9,468c-5.5-4.6-8.5-11.8-7.4-19.4l12.5-88.6c0.2-2,2.1-3.4,4.1-3.1c2,0.2,3.4,2.1,3.1,4.1l-12.5,88.6
						c-1.1,7.4,3.8,14.4,11.2,15.8l260.9,51.4c3.7,0.7,7.5,0,10.7-2.2c3.1-2.2,5.3-5.4,5.9-9.1l14.7-83.1
						c1.3-7.5-3.4-14.6-10.8-16.2l-231.9-51.6c-2-0.4-3.2-2.4-2.8-4.3c0.4-2,2.4-3.2,4.3-2.8L476.7,399
						c11.2,2.5,18.4,13.3,16.4,24.6l-14.7,83.1c-1,5.7-4.2,10.7-9,13.9c-4.8,3.2-10.5,4.5-16.2,3.3l-260.8-51.4
						C188.9,471.9,185.6,470.3,182.9,468z"/>
				</g>
				<g>
					<path class="st1" d="M251.5,385.1c-0.4-0.4-0.9-0.9-1.2-1.3c-0.9-1.4-1.2-3-0.8-4.7l2.4-10.7c0.8-3.3,4-5.4,7.3-4.6l136.1,29.4
						c3.1,0.6,5.2,3.5,4.8,6.7l-1,8.4c-0.2,1.7-1.2,3.2-2.5,4.2c-1.4,1-3.1,1.4-4.7,1l-137.5-27.1
						C253.3,386.2,252.3,385.8,251.5,385.1z M394.8,398.1c-0.2-0.1-0.4-0.3-0.6-0.3l-136.1-29.4l0,0c-0.7-0.1-1.4,0.3-1.5,1
						l-2.4,10.7c-0.1,0.5,0.1,0.8,0.1,0.9c0.1,0.1,0.3,0.5,0.8,0.5l137.5,27.1c0.5,0.1,0.8-0.1,1-0.2c0.1-0.1,0.5-0.4,0.6-0.9l1-8.4
						C395.3,398.7,395.2,398.4,394.8,398.1z M258.7,366L258.7,366L258.7,366z"/>
				</g>
				<g class="st3">
					<path class="st1" d="M392.3,411.2L254.8,384c-2.1-0.4-3.3-2.4-2.9-4.5l0.9-4c0.3,1.5,1.4,2.7,2.9,3l137.4,27.1
						c1.7,0.4,3.2-0.5,4-1.9l-0.5,4.2C396.4,410,394.3,411.5,392.3,411.2z"/>
				</g>
				<g>
					<path class="st1" d="M380.2,410.9c-0.6-0.5-1-1.4-0.8-2.4l3.1-15.8c0.2-1.3,1.5-2.2,2.9-1.9c1.3,0.2,2.2,1.5,1.9,2.9l-3.1,15.8
						c-0.2,1.3-1.5,2.2-2.9,1.9C380.9,411.3,380.5,411.2,380.2,410.9z"/>
				</g>
				<g>
					<path class="st1" d="M360.6,405.9c-0.6-0.5-1-1.4-0.8-2.4l2.8-14.3c0.2-1.3,1.5-2.2,2.9-1.9c1.3,0.2,2.2,1.5,1.9,2.9l-2.8,14.3
						c-0.2,1.3-1.5,2.2-2.9,1.9C361.2,406.4,360.8,406.2,360.6,405.9z"/>
				</g>
				<g>
					<path class="st1" d="M340.9,402c-0.6-0.5-1-1.4-0.8-2.4l2.8-14.3c0.2-1.3,1.5-2.2,2.9-1.9c1.3,0.2,2.2,1.5,1.9,2.9l-2.8,14.3
						c-0.2,1.3-1.5,2.2-2.9,1.9C341.6,402.5,341.2,402.3,340.9,402z"/>
				</g>
				<g>
					<path class="st1" d="M320.9,398c-0.6-0.5-1-1.4-0.8-2.4l2.8-14.3c0.2-1.3,1.5-2.2,2.9-1.9c1.3,0.2,2.2,1.5,1.9,2.9l-2.8,14.3
						c-0.2,1.3-1.5,2.2-2.9,1.9C321.6,398.4,321.2,398.3,320.9,398z"/>
				</g>
				<g>
					<path class="st1" d="M300.3,393.5c-0.6-0.5-1-1.4-0.8-2.4l2.8-14.3c0.2-1.3,1.5-2.2,2.9-1.9c1.3,0.2,2.2,1.5,1.9,2.9l-2.8,14.3
						c-0.2,1.3-1.5,2.2-2.9,1.9C300.9,394,300.6,393.7,300.3,393.5z"/>
				</g>
				<g>
					<path class="st1" d="M279.3,389.4c-0.6-0.5-1-1.4-0.8-2.4l2.8-14.3c0.2-1.3,1.5-2.2,2.9-1.9c1.3,0.2,2.2,1.5,1.9,2.9l-2.8,14.3
						c-0.2,1.3-1.5,2.2-2.9,1.9C280,389.8,279.6,389.6,279.3,389.4z"/>
				</g>
				<g>
					<path class="st1" d="M195.2,457.5c-1.9-1.7-3.1-4.3-2.9-7l4.2-45.2c0.4-4.1,3.8-7.3,8-7.4l68.7-1c0.6,0,1.1,0.1,1.7,0.2l0,0
						l114.8,22.6c2.2,0.5,4,1.7,5.2,3.5c1.2,1.8,1.6,4,1.2,6.2l-12.6,58.6c-0.9,4.3-5.2,7.1-9.5,6.3l-175.1-35.1
						C197.5,459,196.2,458.4,195.2,457.5z M273.9,401.9L273.9,401.9c-0.2,0-0.5-0.1-0.7,0l-68.6,0.9c-1.6,0-3.1,1.3-3.3,3l-4.2,45.2
						c-0.2,1.7,1,3.2,2.6,3.5l175.1,34.9c1.8,0.3,3.5-0.8,3.9-2.5l12.6-58.6c0.2-0.9,0-1.7-0.5-2.5c-0.5-0.7-1.2-1.2-2.1-1.4
						L273.9,401.9z"/>
				</g>
				<g>
					<path class="st1" d="M363.6,484.3c-0.7-0.5-1.1-1.5-0.8-2.4l13.8-62.4c0.3-1.3,1.6-2.2,2.9-1.8s2.2,1.6,1.8,2.9l-13.8,62.4
						c-0.3,1.3-1.6,2.2-2.9,1.8C364.2,484.7,363.9,484.5,363.6,484.3z"/>
				</g>
				<g>
					<path class="st1" d="M344.8,477.6c-0.7-0.5-1.1-1.5-0.8-2.4l13.4-59.5c0.3-1.3,1.6-2.2,3-1.8c1.3,0.3,2.2,1.6,1.8,3l-13.4,59.5
						c-0.3,1.3-1.6,2.2-3,1.8C345.5,478,345.2,477.9,344.8,477.6z"/>
				</g>
				<g>
					<path class="st1" d="M326.6,464.6c-0.6-0.5-1-1.4-0.8-2.3l9.1-50.9c0.2-1.3,1.5-2.2,2.8-2c1.3,0.2,2.2,1.5,2,2.8l-9.1,50.9
						c-0.2,1.3-1.5,2.2-2.8,2C327.3,465.1,326.9,464.9,326.6,464.6z"/>
				</g>
				<g>
					<path class="st1" d="M306.4,461.4c-0.6-0.5-1-1.4-0.8-2.3l8.5-51.7c0.2-1.3,1.5-2.2,2.8-2c1.3,0.2,2.2,1.5,2.1,2.8l-8.5,51.7
						c-0.2,1.3-1.5,2.2-2.8,2C307.2,461.8,306.8,461.6,306.4,461.4z"/>
				</g>
				<g>
					<path class="st1" d="M280,457.9c-0.6-0.5-1-1.4-0.8-2.3c0.2-1.3,1.5-2.2,2.8-2l101.6,17.1c1.3,0.2,2.2,1.5,2,2.8
						s-1.5,2.2-2.8,2l-101.6-17.1C280.7,458.3,280.3,458.1,280,457.9z"/>
				</g>
				<g>
					<path class="st1" d="M307.3,425.5c-0.7-0.5-1-1.5-0.8-2.4c0.2-1.3,1.6-2.2,2.9-1.8l82.2,17.2c1.3,0.3,2.2,1.6,1.8,2.9
						c-0.2,1.3-1.6,2.2-2.9,1.8L308.3,426C308,425.9,307.7,425.8,307.3,425.5z"/>
				</g>
				<g>
					<path class="st1" d="M281.2,440.1c-0.6-0.5-1-1.4-0.8-2.3c0.2-1.3,1.5-2.2,2.9-1.9l104.8,19.3c1.3,0.2,2.2,1.5,1.9,2.9
						c-0.2,1.3-1.5,2.2-2.9,1.9l-104.8-19.3C281.8,440.5,281.4,440.4,281.2,440.1z"/>
				</g>
				<g>
					<path class="st1" d="M410.1,438.5c-0.7-0.5-1.3-1.2-1.8-2c-1.4-2.2-1.9-4.7-1.4-7.1l5.1-24l0,0c0.5-2.4,2-4.6,4.2-6
						c2.2-1.4,4.7-1.8,7.2-1.2l49.7,11.6c4.8,1.1,7.9,5.8,7,10.6l-4.1,22.1c-0.4,2.5-1.8,4.7-4,6c-2.1,1.5-4.6,2-7,1.4l-50.5-9.6
						C412.9,440.1,411.3,439.5,410.1,438.5z M416.8,406.3l-5.1,24c-0.2,1.2,0,2.4,0.6,3.5c0.6,1,1.7,1.7,2.9,1.9l50.5,9.6
						c1.2,0.2,2.4,0,3.4-0.7c1-0.6,1.7-1.7,1.9-2.9l4.1-22.1c0.4-2.3-1-4.5-3.3-5l-49.7-11.6c-1.2-0.3-2.4-0.1-3.5,0.6
						C417.8,404.2,417,405.1,416.8,406.3L416.8,406.3z"/>
				</g>
				<g>
					<path class="st1" d="M410.7,418.1c-0.7-0.5-1.1-1.5-0.8-2.4c0.3-1.3,1.6-2.2,3-1.8l63.3,14.8c1.3,0.3,2.2,1.6,1.8,3
						c-0.3,1.3-1.6,2.2-3,1.8l-63.3-14.8C411.3,418.5,410.9,418.3,410.7,418.1z"/>
				</g>
				<g>
					<path class="st1" d="M426.7,442.5c-0.7-0.5-1-1.5-0.8-2.4l8.1-37c0.3-1.3,1.6-2.2,2.9-1.8s2.2,1.6,1.8,2.9l-8.1,37
						c-0.3,1.3-1.6,2.2-2.9,1.8C427.4,442.9,427,442.8,426.7,442.5z"/>
				</g>
				<g>
					<path class="st1" d="M452.9,446.7c-0.6-0.5-1-1.4-0.8-2.3l6-35.5c0.2-1.3,1.5-2.2,2.8-2s2.2,1.5,2,2.8l-6,35.5
						c-0.2,1.3-1.5,2.2-2.8,2C453.7,447.1,453.3,447,452.9,446.7z"/>
				</g>
				<g>
					<path class="st1" d="M398.5,500.8c-1.9-1.5-2.9-3.9-2.4-6.5l1.8-12c0.3-1.9,1.3-3.6,2.9-4.8c1.6-1.1,3.6-1.5,5.5-1.1l47.7,9.8
						c3.7,0.7,6.2,4.4,5.5,8.2l-2.5,13.1c-0.3,1.9-1.4,3.5-3.1,4.5c-1.6,1-3.6,1.4-5.4,1l-47-10.9
						C400.3,501.9,399.3,501.4,398.5,500.8z M454,491.4c-0.3-0.2-0.6-0.4-0.9-0.5l0,0l-47.7-9.8c-0.6-0.1-1.2,0-1.7,0.3
						c-0.5,0.3-0.9,0.9-0.9,1.5l-1.8,12c-0.2,1.1,0.5,2.2,1.7,2.4l47,10.9c0.6,0.1,1.2,0,1.7-0.3c0.5-0.3,0.9-0.9,1-1.5l2.5-13.1
						C454.9,492.8,454.5,491.9,454,491.4z M453.4,488.6L453.4,488.6L453.4,488.6z"/>
				</g>
				<g class="st3">
					<path class="st1" d="M449,510.7l-47-10.9c-2.3-0.5-3.9-2.8-3.5-5.2l0.6-3.9c0.6,1.3,1.7,2.2,3.1,2.6l47,10.9
						c2.5,0.5,5.1-1.1,5.6-3.6l1.9-9.6c0.5,0.9,0.7,1.9,0.5,3l-2.5,13.1C454,509.6,451.5,511.3,449,510.7z"/>
				</g>
				<g>
					<path class="st1" d="M417.8,505.2c-1.9-1.7-2.9-4.2-2.4-6.8l6.2-30.8c0.4-1.9,1.4-3.4,3-4.5c1.6-1,3.5-1.4,5.3-1l0,0l12.8,2.6
						c1.9,0.4,3.5,1.5,4.4,3.1c1,1.6,1.3,3.5,1,5.3l-6.8,31c-0.4,1.9-1.5,3.4-3.1,4.4s-3.5,1.3-5.3,0.9l-12.2-2.8
						C419.6,506.4,418.6,505.9,417.8,505.2z M429.1,466.9L429.1,466.9c-0.6-0.1-1.1,0-1.7,0.3c-0.5,0.3-0.8,0.8-0.9,1.4l-6.2,30.8
						c-0.2,1.2,0.5,2.3,1.7,2.5l12.2,2.8c0.6,0.1,1.2,0,1.7-0.3c0.5-0.3,0.8-0.8,0.9-1.4l6.8-31c0.1-0.6,0-1.2-0.3-1.7
						c-0.3-0.5-0.8-0.8-1.4-0.9L429.1,466.9z"/>
				</g>
				<g class="st3">
					<polygon class="st1" points="396,411.8 389.3,422.1 278.2,400.2 275,389 					"/>
				</g>
				<g class="st3">
					<path class="st1" d="M471.8,445.5c0.9-0.9,1.5-2.1,1.7-3.4l0-0.1c-0.4,0-0.7,0-1.1-0.1l-50.5-9.6c-3.8-0.8-6.3-4.4-5.5-8.2
						l5-23.7c-2.6,0-5.1,1.5-6.3,3.8l0.3-2.6l-9.5,9.3l-5.9,24.6c-1,4.1,1.5,8.2,5.6,9.2l53.4,12.5c2,0.4,4-0.2,5.2-1.9L471.8,445.5
						z"/>
				</g>
			</g>
			<g>
				<g>
					<path class="st2" d="M294.8,315.5c0,0-22.7,23.3-25,36.7c-2.3,13.4,5.8,47.2,5.8,47.2s26.5,10.5,31.5,21.3
						c4.9,10.8-10,17-25.4,13.9c0,0,7.8,19.5-10.9,37.4c-18.7,17.9-44.3,4.3-59.4-20.6c-15.2-25-39.5-79-2-130.8
						s85.7-59.5,120.9-46.9"/>
				</g>
				<g class="st3">
					<path class="st1" d="M270.9,472c-18.7,17.9-44.2,4.3-59.4-20.6c-15.2-25-39.5-79-2-130.8c4.3-6,8.7-11.3,13.3-16.1
						c-0.4,0.6-0.9,1.2-1.3,1.8c-37.5,51.8-13.2,105.9,2,130.8c14.3,23.6,37.8,37,56.2,23.3C277.8,464.2,274.9,468.2,270.9,472z"/>
				</g>
				<g>
					<path class="st1" d="M295.2,316c-7.6,10.4-15.5,20.5-20.4,32.2c-0.2,0.6-0.6,1.8-0.8,2.4c-0.1,0.7-0.4,1.7-0.5,2.3
						c-0.7,7.5,0.8,15.7,1.8,23.2c1.1,7.5,2.6,15.1,4,22.5l-2.2-2.5c6,2.4,11.6,5.2,17.1,8.4c7,4.5,15.8,9.6,17.5,18.8
						c1.2,15.1-19.7,17.4-30.6,15l4.1-5c1.6,4.4,2,9,1.8,13.7c-0.8,13.6-9.1,26.1-20.7,33c-8,4.7-18.2,4.9-26.8,1.6
						c-16.7-6.4-27.6-21-35.6-36c-16.1-29.3-23.9-65.1-12.7-97.5c5.3-16,14.9-30.4,26.1-42.9l4.2-4.6c4.4-4.2,9.2-8.9,14.1-12.6
						c6.7-5.1,13.9-9.8,21.5-13.3c0.9-0.4,3.4-1.6,4.3-2c1.2-0.5,6.2-2.3,7.5-2.8c3-1,6.1-1.8,9.2-2.6c1.6-0.2,4.7-0.9,6.3-1.2
						c2.2-0.5,7.2-0.8,9.5-1.1c4.2-0.2,8.6-0.3,12.8,0.2c8.5,0.6,16.8,2.4,24.9,5.2c1.9,0.6,2.9,2.7,2.2,4.6
						c-0.6,1.9-2.7,2.9-4.6,2.2c-7.5-2.6-15.2-4.2-23-4.8c-1.1,0-3.3-0.3-4.4-0.3c-0.7,0.1-6.4,0.1-7.3,0.2
						c-1.2,0.2-6.3,0.6-7.3,0.8c-2.1,0.4-5.2,1-7.2,1.4c-2.9,0.8-5.7,1.5-8.5,2.4c-1.1,0.4-6,2.2-6.9,2.6
						c-5.8,2.7-11.6,5.5-16.9,9.2c-5.7,3.9-11.3,8.1-16.2,13l-4.4,4.1c-2.3,2.7-5.8,6.3-7.9,9l-3.7,4.8c-7.4,9.3-13.2,19.8-17,31.1
						c-10.4,30.5-2.9,64,12.3,91.8c3.8,7,7.9,13.7,13.3,19.5c11,12.2,29.3,21.6,43.5,8.9c6.9-6.1,12.1-14.6,12.5-23.9
						c0.1-3.1-0.1-6.4-0.9-9.4c-0.1-0.5-0.3-0.9-0.4-1.2c-1-2.6,1.4-5.4,4.2-4.9c5.3,1,11.3,1.1,16.4-0.7c4.6-1.6,7.3-4.7,4.5-9
						c-2.9-4.4-8.2-7.8-12.8-10.6c-5.2-3-10.7-5.7-16.1-7.9c-1.1-0.4-2-1.4-2.2-2.5c-3.2-11.4-5.3-22.9-6.3-34.7
						c-0.2-4.1-0.4-8.3,0.2-12.3l0.2-1.6c0.4-1.6,0.9-3.4,1.5-4.8c2.4-5.6,6.1-10.6,9.9-15.2c5.1-6,10.6-11.6,16.6-16.5
						c0.2-0.3,0.6-0.2,0.9,0.1C295.4,315.4,295.4,315.7,295.2,316L295.2,316z"/>
				</g>
				<g>
					<path class="st1" d="M190.5,359.2c-0.2-0.1-0.4-0.3-0.4-0.5c-1-1.3-0.8-3.3,0.5-4.3c10.5-8.1,24.3-13,38.9-13.7
						c15.5-0.8,30.3,3.3,42,11.6c1.4,0.9,1.6,2.8,0.7,4.3c-0.9,1.4-2.8,1.6-4.3,0.7c-23.1-16.4-55.5-11.8-73.5,2.1
						C193.1,360.2,191.6,360.1,190.5,359.2z"/>
				</g>
			</g>
			<g>
				<g>
					<path class="st6" d="M627,303c29.7,28.9-45,105.6-74.7,76.7L627,303z"/>
				</g>
				<g class="st3">
					<path class="st1" d="M552.4,379.6l11.8-12.1c18.1,12.2,48.4-6.4,65.6-29.8C616,368.4,573.1,399.9,552.4,379.6z"/>
				</g>
				<g>
					<path class="st1" d="M551.7,383.2c-0.5-0.4-1.1-0.9-1.5-1.4c-1.2-1.2-1.2-3-0.1-4.3l74.7-76.7c0.6-0.6,1.4-0.9,2.2-0.9
						c0.8,0,1.6,0.3,2.2,0.9c16.8,16.4,4,44.8-15,64.4c-10.1,10.3-21.7,18.1-32.4,21.7C569.6,390.8,559.3,389.6,551.7,383.2z
						 M627,307.4l-70.2,72c7.3,5.2,16.4,3.8,23,1.6c9.9-3.3,20.6-10.5,30-20.2C626.3,343.9,636.9,320.8,627,307.4z"/>
				</g>
				<g>
					<path class="st2" d="M607.3,337.2c-29,34.6-69.2,54-110.9,57.4l0,0c-40.9,3.3-82.9-8.8-116.8-37.2
						c-68.5-57.3-77.5-159.3-20.2-227.7s159.2-77.6,227.7-20.3C644,157,659.9,235.5,630.8,300C624.8,313.1,617,325.6,607.3,337.2z"
						/>
				</g>
				<g class="st3">
					<path class="st1" d="M606.6,127.8c-77.1-50.5-142.9-51.7-193.7,12.6l-13.2-19.7c0,0,49-45.9,53-46.3c4.1-0.4,19.5-9.4,30.5-9.4
						c11,0.1,56.2,16.4,57.7,17.4c1.5,0.9,35.3,12.5,35.3,12.5l28.2,12.5"/>
				</g>
				<g class="st3">
					<path class="st1" d="M482.2,395.1c-36.2-0.2-72.6-12.5-102.5-37.7c-68.5-57.3-77.5-159.3-20.2-227.7
						c37.8-45.1,94.8-64.4,149-56c-46.6-0.3-92.9,19.4-125.2,57.9C326,200.1,335,302,403.5,359.3
						C426.8,378.8,454.1,390.7,482.2,395.1z"/>
				</g>
				<g>
					<path class="st1" d="M607.3,337.2c-29,34.6-69.2,54-110.9,57.4l0,0c-75.1-2.3-159.8-93.3-134.2-180l46.6-60.5
						c99.5-86.8,261.2,4.9,223.2,143l-1.5,1.9c0,0,0.1,0.3,0.2,1.1C624.8,313.1,617,325.6,607.3,337.2z"/>
				</g>
				<g class="st7">
					<path class="st8" d="M607.3,337.2c-29,34.6-69.2,54-110.9,57.4l0,0c-75.1-2.3-159.8-93.3-134.2-180l2.5-3.1
						c6.1,36.8,24.9,71.6,55.7,97.4c33.9,28.3,76,40.4,116.8,37.2l0,0c31.6-2.6,62.4-14.4,88.1-35
						C620.2,320.1,614.2,328.9,607.3,337.2z"/>
				</g>
				<g>
					<path class="st1" d="M377.2,360.2c-69.9-58.5-79.2-162.9-20.7-232.8s162.9-79.2,232.8-20.7c56.7,47.5,75,127.6,44.6,194.8
						c-6.2,13.6-14.2,26.4-23.9,38c-28.6,34.3-68.9,55.1-113.3,58.7c-0.1,0-0.2,0-0.2,0.1C453,401.7,410.7,388.1,377.2,360.2z
						 M584.7,112.3c-66.8-56-166.7-47-222.5,19.8s-47,166.7,19.8,222.5c32,26.8,72.5,39.6,114.2,36.3c0.1,0,0.2,0,0.2-0.1
						c42.5-3.5,80.8-23.4,108.2-56c9.3-11.1,17-23.3,22.9-36.4C656.5,234.1,638.9,157.6,584.7,112.3z"/>
				</g>
				<g>
					<path class="st1" d="M405.2,131.1c-0.2-0.1-0.4-0.3-0.4-0.5c-1-1.3-0.8-3.2,0.5-4.3c39.2-30.7,87.5-38.5,136.3-22
						c50.3,17,92.9,57.9,103.7,99.4c0.4,1.6-0.6,3.3-2.2,3.7c-1.6,0.4-3.3-0.6-3.7-2.2c-10.3-39.6-51.2-78.8-99.7-95.2
						c-46.8-15.8-93.1-8.4-130.6,21C407.9,132.1,406.4,132,405.2,131.1z"/>
				</g>
				<g>
					<path class="st1" d="M396.9,366.6c-33.1-27.7-46.5-56.4-51.9-77.5c-7.3-29.1-1.2-50.1-0.9-51c0.5-1.6,2.1-2.5,3.8-2
						c1.6,0.5,2.5,2.1,2,3.8l0,0c0,0.2-5.9,20.5,1.1,48.1c6.5,25.6,25.7,62.7,80.2,95.3c1.5,0.9,1.9,2.8,1,4.1
						c-0.8,1.4-2.8,1.9-4.1,1C416.1,381.5,405.8,374,396.9,366.6z"/>
				</g>
				<g class="st9">
					<path class="st2" d="M572.4,330.9c62.4-51.4,59.3-125.3-2.7-165.8c-3.9-2.6-8.7,1.8-6.7,6c22.6,48,26,99.1,2.3,154.4
						C563.1,330,568.5,334.1,572.4,330.9z"/>
				</g>
				<g class="st9">
					
						<ellipse transform="matrix(0.6418 -0.7669 0.7669 0.6418 -17.2553 404.4401)" class="st2" cx="424.3" cy="220.7" rx="24.5" ry="22.5"/>
				</g>
				<g class="st9">
					<circle class="st2" cx="426.4" cy="271.4" r="11.9"/>
				</g>
				<g>
					<g>
						<path class="st2" d="M410.7,316.7c-5.8,9.5-6.5,17.7-1.1,25.9c0,0,10.8,10.4,22.9,6.8c12.1-3.6,15.2-26.2,2.6-33.4
							c-4.5-2.6-8.4-4-11.6-4.7C418.4,310,413.4,312.3,410.7,316.7z"/>
					</g>
					<g class="st3">
						<path class="st1" d="M432.4,349.3c-12.1,3.6-22.9-6.8-22.9-6.8c-4-6.1-4.6-12.3-2.3-18.9c0.4,2.9,1.5,5.8,3.5,8.7
							c0,0,10.8,10.4,22.9,6.8c4.5-1.4,7.7-5.3,9.5-10.1C443.9,337.6,439.9,347.1,432.4,349.3z"/>
					</g>
					<g class="st5">
						<path class="st2" d="M442.8,335c-0.6-5.2-3.1-10.1-7.9-12.8c-4.5-2.6-8.4-4-11.6-4.7c-5-1.2-10.1,1.1-12.8,5.5
							c-2.4,3.9-3.8,7.5-4.4,11c-0.8-5.4,0.8-11.1,4.6-17.3c2.7-4.4,7.7-6.7,12.8-5.5c3.1,0.7,7,2.1,11.6,4.7
							C441.7,319.7,444,327.8,442.8,335z"/>
					</g>
					<g>
						<path class="st1" d="M408.5,345.6c-0.5-0.5-0.9-0.8-1-0.9c-0.2-0.1-0.3-0.4-0.4-0.5c-5.8-8.9-5.5-18.4,1-29.1l0,0
							c3.4-5.5,9.8-8.3,16.1-6.9c4,0.9,8.2,2.6,12.4,5.1c6.8,3.9,10.5,12,9.5,21.2c-1,8.8-5.9,15.7-12.7,17.7
							C421.8,355.8,411.5,348.3,408.5,345.6z M411.8,340.6c1.6,1.4,10.4,8.6,19.7,5.8c4.3-1.3,7.7-6.4,8.4-12.6
							c0.6-5.3-0.8-12-6.4-15.3c-3.7-2.2-7.4-3.6-10.7-4.4c-3.7-0.8-7.5,0.8-9.5,4.1l0,0C408,326.9,407.5,333.8,411.8,340.6z"/>
					</g>
					<g>
						<g>
							<path class="st10" d="M408.4,334c-0.7-0.2-10.6-3.8-23.6-14.8c-7.2-6-15.2-14.2-23.2-25.2c-6.7-9.3-10.5-20.7-12.5-31.9l0,0
								c-4.3-24.2-0.4-47.8-0.2-49.2c0.7-3.9,4.5-6.6,8.4-6c3.9,0.7,6.6,4.5,6,8.4c-0.1,0.3-1.5,9.2-1.6,21.1
								c-0.2,15.2,1.8,35.4,11.7,49c19.9,27.3,39.7,34.7,39.9,34.7c3.8,1.4,5.7,5.6,4.4,9.3C416.4,333.3,412.2,335.3,408.4,334z"/>
						</g>
						<g class="st3">
							<path class="st1" d="M349.1,262.1c-4.3-24.2-0.4-47.8-0.2-49.2c0.7-3.9,4.5-6.6,8.4-6c3.9,0.7,6.6,4.5,6,8.4
								c-0.1,0.3-1.5,9.2-1.6,21.1C357,239.1,347.6,246.5,349.1,262.1z"/>
						</g>
					</g>
					<g>
						<g>
							<path class="st1" d="M382.9,321.5c-8.6-7.2-16.6-15.8-23.7-25.7c-22-30.4-13.6-81.3-13.2-83.3c0.5-2.8,2-5.1,4.2-6.7
								c2.3-1.6,4.9-2.2,7.7-1.7c2.8,0.5,5.1,2,6.7,4.2c1.6,2.3,2.2,4.9,1.7,7.7c-0.1,0.4-7.2,44.6,9.6,67.8
								c19,26.3,38.3,33.6,38.5,33.7c2.6,0.9,4.7,2.8,5.9,5.3c1.2,2.5,1.3,5.3,0.4,7.9c-1.9,5.4-7.8,8.2-13.2,6.3
								C406.3,336.4,396.2,332.6,382.9,321.5z M358.8,210.9c-0.5-0.5-1.3-0.8-2-0.9c-1.1-0.2-2.2,0-3.2,0.7
								c-0.9,0.7-1.5,1.7-1.7,2.8c-0.4,2.1-8.4,50.5,12.2,78.8c6.9,9.5,14.5,17.7,22.7,24.6c12.7,10.6,22.3,14.1,22.7,14.2
								c2.2,0.8,4.6-0.4,5.4-2.6c0.4-1.1,0.3-2.2-0.1-3.3c-0.5-1-1.3-1.7-2.4-2.1c-0.2,0-21-7.8-41.3-35.8
								c-18.3-25.3-11-70.5-10.6-72.3c0.2-1.1,0-2.2-0.7-3.2C359.4,211.4,359.2,211.1,358.8,210.9z"/>
						</g>
					</g>
					<g>
						<path class="st10" d="M402.5,128.8l-19.1-16c0,0,21.9-31.7,49.4-41.6c2.5-0.9,4.9-1.6,7.5-2.2l16.5,13.8
							C456.7,82.8,424.9,96.3,402.5,128.8z"/>
					</g>
					<g class="st3">
						<path class="st1" d="M402.5,128.8l-9.1-7.7c-4.5-6.1-7.6-11.1-7.6-11.1s16.1,13.5,33.4-2.8c17.2-16.3,13.7-36,13.7-36
							c2.5-0.9,4.9-1.6,7.5-2.2l16.5,13.8C456.7,82.8,424.9,96.3,402.5,128.8z"/>
					</g>
					<g>
						<path class="st1" d="M400.1,131.6l-19.1-16c-1.4-1.2-1.8-3.3-0.7-4.9c1.1-1.5,27.1-38.9,57.3-46.7c1.9-0.5,3.9,0.7,4.4,2.6
							s-0.7,3.9-2.6,4.4c-23.1,6-44.7,32.5-51.2,41l13.5,11.2c22.5-30.6,52.3-43.4,53.6-44c1.9-0.8,4,0.1,4.7,1.9
							c0.8,1.9-0.1,4-1.9,4.7c-0.4,0.2-31.2,13.6-52.7,44.6c-0.5,0.8-1.5,1.4-2.5,1.5C402,132.5,400.9,132.2,400.1,131.6z"/>
					</g>
					<g>
						<g>
							<path class="st6" d="M396.4,194.7c-2.4,2.9-5,5.6-7.7,8.1c-19.9,18.3-45.1,23.5-59.8,11.2l-17.8-14.8
								c-13.8-11.5-14.1-34.8-2.2-56.5c2.5-4.6,5.6-9.2,9.2-13.5c20.7-24.7,50.9-33.3,67.6-19.3l17.8,14.8
								C420.2,138.9,417,170.2,396.4,194.7z"/>
						</g>
						<g class="st5">
							<path class="st2" d="M411.5,167.7c2.7-14.5-0.5-27.7-9.8-35.5l-17.8-14.8c-16.8-14-47-5.4-67.6,19.3
								c-3.6,4.4-6.7,8.9-9.2,13.5c-2.5,4.4-4.4,9-5.8,13.5c1.3-6.9,3.8-14,7.6-20.9c2.5-4.6,5.6-9.2,9.2-13.5
								C338.8,104.6,369,96,385.7,110l17.8,14.8C414.3,134,416.7,150.4,411.5,167.7z"/>
						</g>
						<g class="st3">
							<path class="st1" d="M388.7,202.9c-19.9,18.3-45.1,23.5-59.8,11.2l-17.8-14.8c-13.8-11.5-14.1-34.8-2.2-56.5l61.8,6.9
								l0.8,38.9L388.7,202.9C388.5,202.7,388.6,202.7,388.7,202.9z"/>
						</g>
						<g>
							<path class="st1" d="M326.4,216.8L308.7,202c-18.3-15.3-15.3-49,6.6-75.1s54.5-35,72.8-19.7l17.8,14.8
								c18.3,15.3,15.3,49-6.6,75.1S344.7,232,326.4,216.8z M383.3,112.8c-15.2-12.6-43.2-4.3-62.5,18.8
								c-19.3,23.1-22.6,52.1-7.4,64.8l17.8,14.8c15.2,12.6,43.2,4.3,62.5-18.8c19.3-23.1,22.6-52.1,7.4-64.8L383.3,112.8z"/>
						</g>
						<g>
							<path class="st1" d="M309.2,201.5c-18-15.1-15.1-48.3,6.6-74.2s53.9-34.7,71.9-19.6c3.4,2.8,6,6.3,8.1,10.4
								c2.2,4.4,3.4,9.5,3.7,15c1,15.7-5.9,34-18.4,48.8c-12.4,14.8-29.2,24.8-44.9,26.7c-5.5,0.7-10.7,0.3-15.4-1
								C316.4,206.4,312.5,204.3,309.2,201.5z M383.7,112.3c-15.4-12.9-43.8-4.5-63.3,18.9c-19.5,23.3-22.8,52.8-7.4,65.7
								c2.7,2.3,5.8,3.8,9.3,4.8c4,1.1,8.4,1.4,13,0.8c14.2-1.7,29.5-10.9,40.8-24.6c11.5-13.7,17.8-30.3,17-44.6
								c-0.3-4.7-1.3-9-3.1-12.7C388.6,117.4,386.5,114.6,383.7,112.3z"/>
						</g>
						<g>
							
								<ellipse transform="matrix(0.6417 -0.767 0.767 0.6417 8.5966 311.125)" class="st2" cx="337.3" cy="146.4" rx="39.9" ry="31.4"/>
						</g>
						<g class="st5">
							<path class="st2" d="M372,143.9c-0.7-7.4-3.9-14.2-9.4-18.9c-13.3-11.1-35.5-6.4-49.7,10.5c-5.9,6.9-9.4,14.9-10.6,22.6
								c-1-10.3,2.7-22.1,10.9-31.9c14.2-17,36.4-21.6,49.7-10.5C370.7,122.3,373.7,132.8,372,143.9z"/>
						</g>
						<g class="st3">
							<path class="st1" d="M361.3,166.5c-14.2,16.9-36.4,21.6-49.7,10.5c-11.1-9.3-12.5-26.7-4.4-42c-0.4,9.4,2.7,18,9.5,23.7
								c13.3,11.1,35.5,6.5,49.7-10.5c2.3-2.8,4.2-5.7,5.8-8.6C372,148.5,368.3,158.2,361.3,166.5z"/>
						</g>
						<g>
							<path class="st1" d="M309.3,179.8c-14.8-12.4-14.4-37.5,1.1-55.9c15.4-18.5,40-23.3,54.8-10.9c14.8,12.4,14.4,37.5-1.1,55.9
								S324.2,192.2,309.3,179.8z M360.5,118.6c-11.7-9.8-31.8-5.3-44.5,10c-12.9,15.3-13.7,35.8-1.9,45.6
								c11.7,9.8,31.8,5.3,44.5-10C371.5,148.9,372.3,128.4,360.5,118.6z"/>
						</g>
						<g>
							<path class="st1" d="M307,165.9c-10.2-8.5-8.9-27.1,3-41.3c11.9-14.2,29.9-18.8,40.1-10.3c10.2,8.5,8.9,27.1-3,41.3
								C335.1,169.8,317.2,174.4,307,165.9z M345.4,119.8c-7-5.9-20.6-1.6-29.8,9.4c-9.2,10.9-11,25.1-4,31c7,5.9,20.6,1.6,29.8-9.4
								C350.6,139.9,352.4,125.7,345.4,119.8z"/>
						</g>
					</g>
					<g>
						<path class="st6" d="M657.7,213.2c9.4-103.3-129.9-194.4-216.5-157.3c-5,2.2-6.1,8.9-1.8,12.5l20,16.7c1.9,1.7,4.5,2.1,7,1.4
							c77.9-24.4,176.4,42.1,179.4,126.5c0.1,3.6,3.3,6.2,6.8,5.8l0,0C655.3,218.3,657.5,216.1,657.7,213.2z"/>
					</g>
					<g class="st3">
						<path class="st1" d="M656.3,216.5c-1,1.1-2.4,1.9-3.9,2.2c-3.5,0.4-6.7-2.3-6.8-5.8c-3-84.4-101.5-150.9-179.4-126.5
							c-2.4,0.7-5,0.3-7-1.4l-20-16.7c-3.1-2.7-3.4-7.1-1.2-10.1l20.3,17.1c1.9,1.7,4.6,2.2,7,1.5c78.6-23.8,179,44.3,182.9,129.5
							c0.2,3.6,3.4,6.4,7,5.9c1-0.1,1.9-0.5,2.7-1c0,0.7-0.2,1.5-0.2,2.2C657.6,214.4,657.1,215.6,656.3,216.5z"/>
					</g>
					<g class="st5">
						<path class="st2" d="M658.1,199.1C648.8,105,522.4,28.2,441.7,62.8c-1.9,0.8-3.1,2.1-3.8,3.7c-2.3-3.6-1-8.9,3.4-10.8
							C523.9,20.4,654.5,101.8,658.1,199.1z"/>
					</g>
					<g>
						<path class="st1" d="M456.9,87.7L437,71c-2.9-2.4-4.4-6.2-3.8-10.1s3-7,6.5-8.5c42.6-18.3,101.8-7,150.9,28.6
							c48.5,35.3,75,84.8,70.6,132.4l0,0c-0.4,4.5-3.9,8.2-8.5,8.7c-2.7,0.3-5.4-0.4-7.4-2.2c0,0,0,0-0.1,0c-2-1.8-3.3-4.3-3.4-7.1
							c-1.4-37.7-23.3-75.2-58.8-100.4c-36.2-25.7-79.6-34.2-115.9-22.8C463.7,90.9,459.8,90.2,456.9,87.7z M597.7,95.7
							c-3.5-3-7.3-5.9-11.2-8.7C539.4,52.9,483,41.9,442.7,59.2c-1.7,0.7-2.1,2.3-2.2,2.9c-0.1,0.6-0.2,2.2,1.3,3.4l20,16.7
							c1,0.8,2.2,1.1,3.5,0.7c38.3-12.1,83.9-3.2,122,23.8c37.4,26.5,60.5,66.1,61.9,106.1c0,0.9,0.6,1.5,0.8,1.8
							c0.4,0.3,0.9,0.7,1.8,0.5c1.1-0.1,2-1.1,2.1-2.2C657.8,171.6,636.9,128.6,597.7,95.7z"/>
					</g>
				</g>
			</g>
			<g>
				<g>
					<path class="st2" d="M415.5,512.8c5.4-16.2-16.2-20.5-30.8-6.1c-9.9-27-49.1-43.1-67.5-13.3C296.3,556,427.5,580.1,462.3,520
						c-2.5,0.7-4.9,0.9-7.5,0.4L415.5,512.8z"/>
				</g>
				<g class="st3">
					<path class="st1" d="M317.2,493.5c2.9-4.8,6.4-8.4,10.3-11c-15.7,55.4,89,79.5,134.1,38.9C425.6,579.8,296.5,555.5,317.2,493.5
						z"/>
				</g>
				<g>
					<path class="st1" d="M327.6,538.8c-14.6-12.2-19.8-28.8-13.9-46.4c0.1-0.3,0.2-0.5,0.3-0.8c7.9-12.8,19.9-19,34.1-17.6
						c15.7,1.6,30.7,12.4,37.9,26.8c10.1-7.6,21.4-7.9,27.9-3.9c4.6,2.8,6.6,7.5,6,13.1l35.5,7c2,0.3,3.8,0.1,5.9-0.4
						c1.4-0.4,2.9,0.1,3.8,1.3c0.9,1.2,1,2.8,0.2,4.1c-22.1,38.2-81.5,45-121,27.1C337.9,546.1,332.3,542.6,327.6,538.8z M320.6,495
						c-9,27.8,15.8,42.4,26.9,47.4c17.8,8,40.9,10.7,61.7,7c20-3.5,36-12.3,46-25.2c-0.3-0.1-0.6-0.1-0.9-0.2l-0.1,0l-39.3-7.7
						c-1-0.2-1.9-0.8-2.4-1.7c-0.6-0.9-0.7-2-0.3-3c1.4-4,0.7-7-2-8.7c-4.9-3-14.9-1.4-22.8,6.3c-0.9,0.9-2.1,1.3-3.3,1
						s-2.2-1.1-2.7-2.3c-5.2-14.1-19.4-25.3-33.9-26.8C336.4,480.1,326.8,485.1,320.6,495z"/>
				</g>
				<g>
					<path class="st1" d="M418.8,514.2c-4.9,8.6-11.6,16.2-19.9,21.5c-0.2,0.2-0.6,0.1-0.9-0.2c-0.2-0.2-0.1-0.6,0.1-0.8
						c6.5-6.4,11.1-14.7,13.8-23.3C413.8,506.3,421.3,509.4,418.8,514.2L418.8,514.2z"/>
				</g>
				<g>
					<path class="st1" d="M424.2,551.1c-0.2-0.1-0.4-0.3-0.4-0.5c-1-1.3-0.8-3.2,0.5-4.3c15.2-11.9,10.2-27.6,9.9-28.2
						c-0.5-1.6,0.3-3.3,1.9-3.8s3.3,0.3,3.8,1.9c0.1,0.2,6.9,20.4-11.9,35C426.9,551.9,425.2,551.9,424.2,551.1z"/>
				</g>
			</g>
			<g>
				<path class="st1" d="M290.9,354.6l-15.9-13.3c-1.5-1.3-1.7-3.5-0.4-5.1c1.3-1.5,3.5-1.7,5.1-0.4l15.9,13.3
					c1.5,1.3,1.7,3.5,0.4,5.1C294.7,355.7,292.5,355.9,290.9,354.6z"/>
			</g>
			<g>
				<path class="st1" d="M212.1,493.9c13.9,33.6,43.8,61.7,78.4,73.1c11.6,3.7,24.1,5.2,36.5,4.2c0.3,0,0.7,0.2,0.6,0.5
					c0,0.3-0.2,0.6-0.4,0.6c-12.3,3.3-25.7,2.9-38.2-0.1c-31.2-7.9-59.2-30.2-72.8-59.6c-2.6-5.9-4.6-12.2-5.4-18.5
					C210.8,493.6,211.7,493.2,212.1,493.9L212.1,493.9z"/>
			</g>
			<g>
				<path class="st1" d="M225.3,561.9c-0.2-0.1-0.3-0.4-0.5-0.5c-1.3-1.5-1-3.9,0.6-5.1l17.6-13.9c1.5-1.3,3.9-1,5.2,0.6
					c1.3,1.5,1,3.9-0.6,5.1L229.9,562C228.4,563.1,226.5,562.9,225.3,561.9z"/>
			</g>
			<g>
				<path class="st1" d="M90.2,536.4c14.6,4.6,24.5,18.7,31.3,31.6l2.7,5.6c0.3,0.7-0.6,1.2-1,0.6c-4.2-6.8-9.1-13.7-15-19.2
					c-5.5-5.2-11.8-9.9-19.2-11.5C83,543.5,84.3,534.7,90.2,536.4L90.2,536.4z"/>
			</g>
			<g>
				<path class="st1" d="M264.7,699.7c-4.5-10.2-13.3-18.1-22.7-24c-1.6-0.9-3.9-2.3-5.6-3c-2.8-1.4-5.9-2.6-8.8-3.8
					c-0.7-0.3-0.4-1.4,0.4-1.1c3.6,0.9,7.5,2.1,10.9,3.4c10.8,4.2,21,10.7,28.5,19.8c1.6,2,3.1,4,4.2,6.3
					C273.7,702.2,266.2,704.9,264.7,699.7L264.7,699.7z"/>
			</g>
			<g>
				<path class="st1" d="M154.5,559.7c-28.3-23.6-41.2-51.3-42-52.9c-0.8-1.9,0-4,1.8-4.9c1.9-0.8,4,0,4.9,1.8
					c0.3,0.7,24.2,51.6,77.5,72.9c1.9,0.7,2.7,2.9,2,4.7c-0.7,1.9-2.9,2.7-4.7,2C178.5,577.3,165.5,568.8,154.5,559.7z"/>
			</g>
			<g>
				<path class="st1" d="M242.5,629.9c-18-15.1-29.6-29.7-30.5-30.9c-1.2-1.6-1-3.9,0.7-5.2s3.9-1,5.2,0.7
					c0.4,0.5,39.3,49.6,84.9,59.7c2,0.4,3.2,2.4,2.8,4.3s-2.4,3.2-4.3,2.8C278.7,656.4,258.2,643,242.5,629.9z"/>
			</g>
			<g class="st3">
				<path class="st1" d="M307.1,239.8c6.3,13.4-2.2,23.5-25.4,30.3l42.5-1.6l-4.5-21.8"/>
			</g>
			<g class="st3">
				<path class="st1" d="M183.1,421.1l-19,21.8l-9.1-7.5c-8.6-7.2-12.4-18-11.2-28.4c22.7,41,45.3-32.7,46.1-35.4L183.1,421.1z"/>
			</g>
			<g class="st3">
				<path class="st1" d="M313,271c0,0,16.5,85.9,111.7,117.4c-47.7-23.9-74.1-53.2-100.1-116.9"/>
			</g>
			<g class="st3">
				<path class="st1" d="M243.3,546.6l-2.9,3.5l-14.9,10.3l0,0l-32.2,21.2l-44.4,48c-7.7,8.3-20.4,9.1-29.1,1.9l-60.6-50.8
					c-6-5.1-9.3-12.8-7.8-20.6c1.1-6.6,5.3-12.8,12.5-16.5c-23.3,19.3,29.7,50.9,57.1,58.8c27.5,8,56.8-30.6,75.4-58.9
					c18.4-27.8,13.1-52.3,13-53.1C216,511.2,228,529.7,243.3,546.6z"/>
			</g>
			<g class="st3">
				<path class="st1" d="M266.4,562.9c-18.7-5.4-33.9,3.5-45.7,26.9l6.1-27.5l16.5-15.6"/>
			</g>
			<g class="st3">
				<path class="st1" d="M215.7,503.5l-0.8-2.4c0.3,0.4,0.8,0.8,1.3,1.3C216,502.8,215.9,503.2,215.7,503.5z"/>
			</g>
		</g>
	</g>
</g>
</svg>
