<?xml version="1.0" encoding="utf-8"?>
<!-- Generator: Adobe Illustrator 28.2.0, SVG Export Plug-In . SVG Version: 6.00 Build 0)  -->
<svg version="1.1" xmlns="http://www.w3.org/2000/svg" xmlns:xlink="http://www.w3.org/1999/xlink" x="0px" y="0px"
	 viewBox="0 0 976 976" style="enable-background:new 0 0 976 976;" xml:space="preserve">
<style type="text/css">
	.st0{display:none;}
	.st1{display:inline;fill:#CCCCCC;}
	.st2{opacity:0.2;}
	.st3{fill:#371B45;}
	.st4{fill:#FFFFFF;}
	.st5{fill:#D7D8D8;}
	.st6{fill:#22132C;}
	.st7{opacity:0.5;}
	.st8{opacity:0.3;}
	.st9{fill:#3FA2DB;}
	.st10{fill:#3871B8;}
	.st11{opacity:0.7;}
	.st12{fill:#47255B;}
	.st13{fill:#FCBD21;}
	.st14{clip-path:url(#SVGID_00000056426689905948647210000000568339861964607671_);}
	.st15{filter:url(#Adobe_OpacityMaskFilter);}
	.st16{clip-path:url(#SVGID_00000089565430629045682810000013054676118092124834_);}
	.st17{clip-path:url(#SVGID_00000062160001537736835210000016537650300863563153_);}
	
		.st18{clip-path:url(#SVGID_00000019647471575035703190000001757422889133312187_);fill:url(#SVGID_00000096738559671161265700000012477521043244434587_);}
	
		.st19{clip-path:url(#SVGID_00000089565430629045682810000013054676118092124834_);mask:url(#SVGID_00000025434601089498559900000013986627725247328902_);fill:url(#SVGID_00000093174034035759162120000001574492144630084754_);}
	.st20{fill:url(#SVGID_00000021105940991372453430000007478520951396214430_);}
	.st21{clip-path:url(#SVGID_00000166659724551626325460000002075923332141406362_);}
	.st22{filter:url(#Adobe_OpacityMaskFilter_00000030445415999719128430000013621835686105626757_);}
	.st23{clip-path:url(#SVGID_00000035532761845136603750000003102664914273691539_);}
	.st24{clip-path:url(#SVGID_00000162339006577675639690000000299634684661757072_);}
	
		.st25{clip-path:url(#SVGID_00000176003187328914866800000010090747518898260877_);fill:url(#SVGID_00000158744626674231738960000010094182790496823487_);}
	
		.st26{clip-path:url(#SVGID_00000035532761845136603750000003102664914273691539_);mask:url(#SVGID_00000000936436643542371090000003019417782212277144_);fill:url(#SVGID_00000025422594660184111400000012023222060833698451_);}
	.st27{fill:url(#SVGID_00000171679837540474458860000002281479616247705791_);}
	.st28{opacity:0.44;fill:url(#SVGID_00000114787208028781625960000010065472570842521734_);enable-background:new    ;}
	.st29{fill:#C5C1BD;}
	.st30{opacity:0.44;fill:url(#SVGID_00000046309432058356706060000010266089653160968375_);enable-background:new    ;}
	.st31{fill:#F3EEE9;}
	.st32{clip-path:url(#SVGID_00000148640727086016010700000013162948552838831793_);}
	.st33{clip-path:url(#SVGID_00000091735530869176202330000011442757395218651579_);}
	.st34{clip-path:url(#SVGID_00000030460452416257185700000004220040767340561053_);}
	.st35{clip-path:url(#SVGID_00000021823935782662769000000005477996061465305253_);}
	.st36{clip-path:url(#SVGID_00000106831763370170290110000001107595975567181988_);}
</style>
<g id="Fondo" class="st0">
	<rect x="-86.3" y="-64.9" class="st1" width="1101.4" height="1090.7"/>
</g>
<g id="Ast-Cafe">
	<g>
		<g class="st2">
			<ellipse class="st3" cx="464.8" cy="859.8" rx="239.7" ry="47.8"/>
		</g>
		<g>
			<g>
				<g>
					<path class="st4" d="M545.3,390.6l-2.8,30.1l-1.4,15.4l-24.5,264.8c0,0,17,0.7,40-0.3c4.5-0.2,9.2-0.5,14-0.8
						c36.2-2.6,80.2-9.8,97.3-29.2c25.6-28.9,33.2-173,12.5-230.7c-9.5-26.5-60.9-39.1-97.5-44.9c-4.1-0.6-8-1.2-11.6-1.7
						C555.9,391.3,545.3,390.6,545.3,390.6z"/>
				</g>
				<g class="st2">
					<path class="st3" d="M542.5,420.8l-1.4,15.4l-19.4,210.2l-5,54.5c0,0,0.4,0,1,0c0.2,0,0.4,0,0.7,0c0.2,0,0.4,0,0.6,0
						c0.2,0,0.3,0,0.5,0c0.1,0,0.1,0,0.2,0c0.3,0,0.7,0,1,0c0.1,0,0.2,0,0.2,0c0.3,0,0.6,0,0.9,0c0.5,0,0.9,0,1.4,0
						c0.3,0,0.7,0,1.1,0c0.4,0,0.8,0,1.2,0c0.5,0,1,0,1.6,0c1.1,0,2.2,0,3.5,0c1.1,0,2.2,0,3.4,0c1.4,0,2.8,0,4.3,0
						c5.5-0.1,11.7-0.2,18.5-0.5c1.3-0.1,2.7-0.1,4-0.2c0.9,0,1.9-0.1,2.9-0.2c2.3-0.1,4.7-0.3,7.2-0.5c36.2-2.6,80.2-9.8,97.3-29.2
						c21.1-23.8,30-125.7,20.9-193.2c0.4,58.5-8.5,120.8-24.4,138.7c-7.8,8.9-36.4-25-35-43.7c3.5-48.2-1-110.6-41.1-149.5
						C587.2,421.9,562.7,424,542.5,420.8z"/>
				</g>
				<g>
					<path class="st3" d="M532.3,705.4c-9,0-14.8-0.2-15.9-0.3L512,705l29.4-318.9l4.1,0.2c5,0.3,123,8,138.9,52.1
						c21.6,59.9,13.4,204.9-13.3,235C645.7,702.2,566.6,705.4,532.3,705.4z M521.3,696.8c21.9,0.4,117.3,0.6,143.5-29
						c11-12.5,19.9-52.5,22.6-102c2.7-50.6-1.5-98.3-10.9-124.5c-11.1-30.9-92-43.4-127.2-46.2L521.3,696.8z"/>
				</g>
				<g>
					<path class="st4" d="M682,562.1l-49.1,1.3c-4.4,0.1-8.2,3.4-9.2,7.9c-3.7,16.7-10.3,55.6,4.4,69.3c12.2,11.4,33,11.2,45.6,0.9
						c14.2-11.5,17.4-49.9,18.1-68.9C692,566.8,687.5,562,682,562.1z"/>
				</g>
				<g class="st2">
					<path class="st3" d="M623.7,571.4c-3.7,16.7-10.3,55.6,4.4,69.3c12.2,11.4,33,11.2,45.6,0.9c8.7-7.1,13.3-24.3,15.7-41
						c-2.6,8.2-6.4,14.8-10.9,19.1c-25.9,24.2-42.8-6.8-42.8-6.8s-3.5,7.1-6.1,7.4c-10.7,1.2-6.8-34.2-4.3-52.5
						C624.5,568.9,624,570.1,623.7,571.4z"/>
				</g>
				<g>
					<path class="st3" d="M651.3,653.6c-9.6,0-19.1-3.3-26.1-9.8c-15.8-14.7-10.3-52.3-5.7-73.4c1.4-6.5,6.8-11.1,13.2-11.2
						l49.1-1.3c3.8-0.1,7.3,1.3,10,4.1c2.8,2.9,4.4,6.9,4.2,11c-1,26.4-5.2,60.3-19.7,72C669.3,650.7,660.3,653.6,651.3,653.6z
						 M682.1,566.4l-49.1,1.3c-2.4,0.1-4.5,2-5.1,4.6c-7.2,32.4-6,56.8,3.2,65.3c10.3,9.7,28.7,10,40,0.7c9.1-7.4,15.2-32,16.5-65.8
						c0.1-1.8-0.6-3.5-1.8-4.7C684.8,566.9,683.5,566.4,682.1,566.4L682.1,566.4z M682,562.1L682,562.1L682,562.1z"/>
				</g>
				<g>
					<path class="st3" d="M650.1,652.5c-18.1-14.2-18.3-39.9-15-60.6c0.5-3,1.1-5.9,2.2-8.9c0.2-0.6,0.9-0.9,1.5-0.7
						c0.5,0.2,0.8,0.8,0.7,1.4c-2.4,9.7-2.2,20.4-1.4,30.3c1,9.7,4.1,19.5,10.4,27c1.6,1.9,3.6,3.8,5.6,5.1
						C658.5,648.7,654.5,655.3,650.1,652.5L650.1,652.5z"/>
				</g>
				<g>
					<path class="st3" d="M606.5,429.8c18.2-1.4,36.4-2.1,54.7-0.8c6.1,0.5,12.3,1.2,18.5,2.7c2.3,0.5,3.7,2.9,3.2,5.1
						c-0.6,2.4-3,3.8-5.4,3.1c-11.1-3.2-23.2-4.4-34.8-5.2c-11.9-0.7-24-0.9-35.9-0.6C604,434.3,603.7,430.1,606.5,429.8
						L606.5,429.8z"/>
				</g>
			</g>
			<g>
				<g>
					<g>
						<path class="st4" d="M428.1,397.2l-42.8,69.8l-8.4,13.7c-4.9,56.5-87,70.3-169,46.3v-88.8c13.3-11.9,27.7-12.4,43-2
							c4.2,2.9,9.2,4.2,14.3,4.2l36.7-0.3c7.8,0,15.4-2.9,21.4-8C358.8,401.7,393.9,382.4,428.1,397.2z"/>
					</g>
					<g>
						<path class="st3" d="M282.2,543.6c-23.4,0-49.3-3.8-75.7-11.6c-2.2-0.6-3.7-2.7-3.7-5v-88.8c0-1.5,0.6-2.9,1.7-3.9
							c15-13.3,32-14.2,49.3-2.5c3.2,2.2,7.1,3.3,11.2,3.3c0.1,0,0.1,0,0.2,0l36.7-0.3c6.6,0,13-2.5,18.1-6.8
							c30.1-25.8,69.9-53.1,110.3-35.6c1.4,0.6,2.4,1.8,2.9,3.2c0.5,1.4,0.3,3-0.5,4.2L382,482.4c-1.9,17.5-10.9,32.2-26.2,42.7
							C337.9,537.3,312.1,543.6,282.2,543.6z M213.1,523.1c55.1,15.3,108.5,12.8,136.9-6.6c13.2-9,20.5-21.2,21.8-36.3
							c0.1-0.8,0.3-1.6,0.7-2.2l47.9-78.2c-26-8.2-55.3,3.1-93.9,36.1c-6.9,5.9-15.7,9.2-24.7,9.3l-36.7,0.3
							c-6.2,0-12.2-1.7-17.2-5.1c-12.8-8.7-24-8.6-34.9,0.2L213.1,523.1L213.1,523.1z"/>
					</g>
					<g>
						<path class="st3" d="M212.3,473.9c6.8,12.4,22.2-5.1,25.2-13.1c1.6-3.4,6.6-1.4,5.5,2.1c-3.9,11.3-13.3,24.5-26.6,24.3
							c-5.2-0.2-10.1-3.7-12.8-7.9C199.6,473.3,208.5,467.7,212.3,473.9L212.3,473.9z"/>
					</g>
					<g>
						<path class="st3" d="M213.6,531.8c-1.9,0-4-0.2-6.3-0.6c-2.1-0.4-3.5-2.4-3.1-4.5s2.4-3.5,4.5-3.1c7.3,1.3,12.9-0.1,16.6-4.2
							c6.2-7,6.8-21.4,1.5-39.5c-0.6-2,0.6-4.2,2.6-4.8c2.1-0.6,4.2,0.6,4.8,2.6c6.2,21.1,5.1,37.7-3.1,46.9
							C227.8,528,222.4,531.8,213.6,531.8z"/>
					</g>
					<g>
						<path class="st3" d="M309,540.3c-1.5,0-3-0.9-3.6-2.4c-0.8-2,0.1-4.2,2.1-5.1c18.9-7.8,20-50.6,2.6-93.6c-0.8-2,0.1-4.2,2.1-5
							s4.2,0.1,5,2.1c17.3,42.5,19.5,92.9-6.8,103.7C310,540.2,309.5,540.3,309,540.3z"/>
					</g>
					<g class="st2">
						<g>
							<path class="st3" d="M391,426c-1.8,10.6-3.7,21.1-5.6,31.6l-8.4,13.7c-4.9,56.5-87,70.3-169,46.3v-44.7
								c5.9,0.8,11.9,1.5,17.9,2.3c9.6,1.2,19.1,2.5,28.7,3.2c10.2,0.9,20.4,1.2,30.6,1.1c11.9-0.1,23.8-0.9,35.2-4.1
								C348.3,467.6,370.3,446.4,391,426z"/>
						</g>
					</g>
				</g>
				<g>
					<g>
						<path class="st4" d="M614.3,864.1c-46,24.1-92.7,18.5-111.7,2.8c-12.2-10.1-13-24.5,5.4-37.8c-25-31.6-36.7-64.3-48.4-111.2
							c-1.4-5.7-2.8-11.5-4.3-17.6c3.8,53.1,2.3,103.2-8.2,148.2c-2.6,11.2-12.5,19.2-24,19.5c-33.5,0.9-66-0.9-97.3-5.8
							c-14.5-2.3-23.5-16.4-20.5-29.8c0.5-2.3,1.4-4.6,2.7-6.8c5.3-9.1,15.2-16.5,28.9-19c0-176.8,22.4-291.8,52.9-370.2l34.3-44.2
							l176.1,20l2.3,8l18.9,66.3c3,10.4,5.1,21.1,6.3,31.8c1.5,12.8,1.7,25.8,0.6,38.7c-0.1,1.4-0.2,2.7-0.4,4
							c-0.2,2.4-0.5,4.8-0.8,7.2c-0.4,3.7-0.9,7.5-1.4,11.3c-4.2,32.4-10.6,66.9-13.8,106.9c-1.8,22.5-0.2,45.1,5.3,67
							c6.8,27.4,10.7,55.7,12.2,84.6C630,848.8,624,859,614.3,864.1z"/>
					</g>
					<g>
						<path class="st3" d="M392.1,437.1c-30.4,88.7-42.9,182.3-47.5,275.7c-1.5,31.2-2.2,62.4-2.4,93.7c0,2.5-1.9,4.6-4.2,5.1
							c-10,1.8-19.2,7-24.6,15.4c-5.2,7.5-4.1,18.3,2.6,24.7c4.8,5,11.4,5.6,17.9,6.4c29.2,4.1,58.9,5.4,88.4,4.7
							c8.1,0.2,15.8-4.8,18.9-12.3c0.4-1,0.8-2.2,1-3.2c0.9-4.1,1.9-8.2,2.6-12.3c2.9-14.7,4.7-29.5,5.9-44.4
							c2.4-29.9,1.7-60-0.4-90c-0.4-6.3,8.6-7.7,10.2-1.6c10.6,44.6,22.3,90.6,51.7,126.8c1.8,2.3,1.4,5.7-1,7.4
							c-4.5,3.3-8.9,7.4-11,12.4c-4.7,10.7,6.8,19.4,15.7,23.1c29,11.9,62.9,6.4,90.7-6.5c2.7-1.3,5.4-2.5,7.9-4.2
							c5.5-3.8,9.2-10,9.9-16.7c-0.6-27.2-4.5-54.3-10.5-80.8c-3.2-12.6-5.9-26.2-6.9-39.3c-1.1-13.3-0.9-26.8,0.4-40
							c3.2-39.1,10.7-78,15.1-116.7c3.1-25.4,1.2-51.2-5.6-75.7l-21.4-75.4l4.4,3.7l-176.1-20c-2.8-0.3-4.9-2.9-4.5-5.7
							s2.9-4.9,5.7-4.5l176.1,20c2.1,0.2,3.8,1.8,4.4,3.7c7.2,27.9,27.4,86.8,28.3,115c1,13.3,0.6,26.9-1,40.1
							c-4.5,39.2-11.9,77.3-15.1,116.5c-1.2,12.8-1.5,25.5-0.4,38.3c1,13,3.4,25.1,6.7,37.8c6,25.8,9.4,52.1,10.8,78.5
							c1.2,13.5-6.9,27-19.2,32.6c-13.5,6.9-28.1,11.9-43.2,14.4c-23.4,3.7-49.7,2.7-70.1-10.8c-10.2-6.8-17-19.1-11.6-31.3
							c3.1-7.1,8.5-12.4,14.5-16.7l-1,7.4c-30.4-37.4-42.9-85-53.7-130.9l10.2-1.6c3.2,45.6,3,92-5.7,137.1
							c-1.2,5.9-2.1,12-4.3,17.6c-4.6,11.1-16.1,18.7-28.1,18.6c-30.1,0.7-60.2-0.6-90-4.8c-4-0.6-8.1-1-12-2.2
							c-4.4-1.4-8.4-3.8-11.6-7c-14.3-14.3-10.6-35.2,4.6-47.3c6.6-5.5,14.7-8.8,22.8-10.3l-4.2,5.1c0.1-15.7,0-31.4,0.5-47.1
							c2.1-86.4,10.1-173.2,32.1-257c6.3-22.8,13.9-45.2,23.3-66.9c0.5-1.2,1.9-1.7,3-1.2C391.9,434.8,392.5,436,392.1,437.1
							L392.1,437.1z"/>
					</g>
					<g>
						<path class="st3" d="M505.7,824.5c15.6-6.5,33.6-3.5,47.9,4.3c1.2,0.7,1.6,2.2,0.9,3.3c-0.6,1.1-2,1.5-3.1,1
							c-12.7-5.3-29.2-6.2-41.1,0.5C504,837.1,499.1,827.6,505.7,824.5L505.7,824.5z"/>
					</g>
					<g>
						<path class="st3" d="M336.8,801.3c13.3,0.2,24.8,3.6,32.9,14.8c1.7,2.2-1.3,5-3.4,3.1c-3.9-3.6-8.3-6.5-13.4-7.6
							c-4.9-1.1-10.2-0.7-15.6,0C329.8,812.2,329.4,801.4,336.8,801.3L336.8,801.3z"/>
					</g>
					<g>
						<path class="st3" d="M373.6,660.1c18.5,20.5,45.2,31.8,72.3,34.2c16.5,1.5,32.7-0.2,49.2-2.8c2.7-0.4,3.8,3.4,1.3,4.5
							c-32.3,13.4-71.3,8.7-100.9-9.5c-9.9-6.2-18.7-14.2-25.5-23.6C368.5,660.6,371.7,658,373.6,660.1L373.6,660.1z"/>
					</g>
					<g>
						<path class="st3" d="M521.8,798.8c-14,0-27.7-1.8-39.9-5.4c-2.4-0.7-3.8-3.2-3.1-5.6c0.7-2.4,3.2-3.8,5.6-3.1
							c45.4,13.3,112.5-0.4,127.6-37.6c0.9-2.3,3.6-3.4,5.9-2.5c2.3,0.9,3.4,3.6,2.5,5.9c-8.2,20.3-29.1,35.7-58.8,43.3
							C548.9,797.2,535.2,798.8,521.8,798.8z"/>
					</g>
					<g>
						<path class="st3" d="M406.9,783.7c-20.9,0-42.6-2.7-57-8.1c-9-3.4-14.4-7.5-16.6-12.5c-1-2.3,0.1-5,2.4-5.9
							c2.3-1,5,0.1,5.9,2.4c0.5,1.2,2.6,4.3,11.4,7.6c26.5,9.9,81.6,10.1,101.8,0.4c2.2-1.1,5-0.2,6,2.1c1.1,2.2,0.1,5-2.1,6
							C447.7,781,427.7,783.7,406.9,783.7z"/>
					</g>
					<g class="st2">
						<g>
							<path class="st3" d="M604.5,864.1c-44.6,24.1-89.8,18.5-108.1,2.8c15.1,0.3,30.2-2.5,44.1-8.4c7.4-3.1,14.7-7.3,19.2-14.2
								c7.5-11.5,4.9-27,1.3-40.4c-8-30.1-19.3-59.2-33.5-86.7c-3-5.8-6.3-11.7-11.2-15.9c-13-11.3-32.4-7.5-48.8-3.2
								c-3.4,0.9-7.1,2-9.4,4.7c-2.6,3.1-3,7.5-3.2,11.6c0,1.2-0.1,2.3-0.2,3.5c-1.4-5.7-2.7-11.5-4.1-17.6
								c3.7,53.1,2.2,103.2-8,148.2c-2.5,11.2-12.1,19.2-23.2,19.5c-32.4,0.9-63.9-0.9-94.2-5.8c-14.1-2.3-22.8-16.4-19.8-29.8
								c6.5,8,14.3,14.8,23.8,18.5c17.1,6.6,40.7-2.2,43.3-20.9c0.5-3.4,0.4-7.2,2.6-9.8c1.9-2.1,4.8-2.7,7.3-3.9
								c11.2-5.2,12.8-20.7,12.7-33.4c-0.1-28.9-0.2-57.7-0.4-86.6c0-4.7-0.1-9.7-2.5-13.8c-2.3-4-6.4-6.3-10.1-9
								c-11.4-8.3-19.7-21.1-22.8-35.2c21,15.4,43.8,31.4,69.6,32c22.9,0.5,44.9-11.6,60.2-29.2c15.3-17.5,24.5-40,30.1-62.9
								l-14.8,34.6c5.5-15.5,8.4-31.9,8.5-48.4c34,6.8,68.3,11.7,102.8,14.9c-4.1,32.4-10.2,66.9-13.4,106.9
								c-1.8,22.5-0.2,45.1,5.1,67c6.6,27.4,10.4,55.7,11.8,84.6C619.7,848.8,613.9,859,604.5,864.1z"/>
						</g>
					</g>
				</g>
				<g>
					<g>
						<path class="st4" d="M768.1,481.2v88.3c-2.8,7.2-10.9,10-18.5,8.8c-5-0.8-10.1-1.2-15.1-0.9c-39.7,2.1-75.9-3.1-106.1-20.5
							c-15.9-9.1-30.2-21.7-42.4-38.2c-10.6-12.2-17.1-25.3-19.7-38.6c-3.7-18.6,0.2-37.7,10.8-55.6c9.1-3.2,17.5-4.5,25.5-4.3
							c25.7,0.8,46.7,18.2,68.3,44.9c7.3,9,17.5,15.2,28.8,17.6l8.5,1.8c10.3,2.2,21,1.9,31-1.5
							C748.5,479.8,759.1,479.5,768.1,481.2z"/>
					</g>
					<g>
						<path class="st3" d="M587.5,517.5c36.4,44,83.9,57.3,139.5,55.1c6.4-0.3,13.5-0.7,19.9,0.1c1.9,0.2,3.9,0.6,5.8,0.7
							c4.3,0.2,9.2-1.8,10.6-5.8c0,0-0.4,1.9-0.4,1.9v-88.3l4.2,5.1c-8.5-1.5-17.5-1.2-25.6,1.3c-1.7,0.5-3.4,1.1-5.1,1.5
							c-11.6,3.1-23.9,1.9-35.4-1c-14.8-2.6-27.1-10.5-36.2-22.4c-15.9-19-35.7-39.2-61.7-40.4c-8.2-0.4-16.4,1.2-24.4,4
							c-6.4,2.1-9.8-7.3-3.4-9.8c17.9-6.6,39-6.2,55.9,3.1c16.7,8.8,29.7,22.4,41.4,36.5c7.5,10,18,16.8,30.4,18.9
							c10,2.5,20.7,3.7,30.8,1c1.5-0.4,3.1-0.9,4.5-1.4c10-3.1,20.5-3.5,30.7-1.6c2.5,0.5,4.2,2.6,4.2,5.1v88.3
							c-0.9,6.3-7,11.4-12.9,13.1c-7.8,2.6-15.7-0.6-23.7-0.2c-26.9,1.1-54.5-0.3-80.4-8.8c-29.3-9.1-55.3-28.2-72-53.8
							C583.1,517.8,585.9,515.6,587.5,517.5L587.5,517.5z"/>
					</g>
					<g>
						<path class="st3" d="M769.2,532.2c-17.4,4.9-35.6-6.7-31.3-25.8c0.3-1.3,1.7-2.1,3-1.8c1.2,0.3,2,1.5,1.8,2.8
							c-0.8,5.9,1.9,11.8,7,14.7c5,2.9,11.1,2.4,16.4,0.3C773,520,776.2,530.2,769.2,532.2L769.2,532.2z"/>
					</g>
					<g>
						<path class="st3" d="M757.8,576.2c-6.7,0-12.4-2.4-16.6-7.2c-9.2-10.4-9.5-29.5-0.7-47.6c0.9-1.9,3.2-2.7,5.2-1.8
							c1.9,0.9,2.7,3.2,1.8,5.2c-7.3,15.1-7.5,31.2-0.5,39.1c5.4,6.1,13.5,5,19.4,3c2-0.7,4.2,0.4,4.9,2.4s-0.4,4.2-2.4,4.9
							C765,575.6,761.3,576.2,757.8,576.2z"/>
					</g>
					<g>
						<path class="st3" d="M647.2,567.7c-2.6,0-4.9-2-5.1-4.7c-2.9-32,14.9-68.4,43.3-88.5c2.3-1.6,5.5-1.1,7.2,1.2s1.1,5.5-1.2,7.2
							c-25.6,18.1-41.6,50.6-39,79.1c0.3,2.8-1.8,5.3-4.7,5.6C647.5,567.7,647.3,567.7,647.2,567.7z"/>
					</g>
					<g class="st2">
						<g>
							<path class="st3" d="M768.1,525.8v43.8c-2.8,7.2-10.9,10-18.5,8.8c-5-0.8-10.1-1.2-15.1-0.9c-39.7,2.1-75.9-3.1-106.1-20.5
								c-0.1,1.4-0.2,2.7-0.4,4c-0.2,2.4-0.5,4.8-0.8,7.2c-9.4-1.7-19.3,1.1-29,1.8c-15.3,1.2-31-3.2-43.6-12.1l-1.8,2.1
								c-21.9-25.6-25.9-54.3-16.4-65c4.6-5.2,16.2-10.4,23.5-13.6c1.2-0.5,3.5-1.8,6.4-1.3c2.6,0.5,5.2,1.8,7.4,3.2
								c10.5,6.8,19.6,15.5,30,22.5c7.5,5,15.7,9,24,12.5c9.1,3.8,18.5,6.9,27.8,10c9.7,3.2,19.5,6.5,29.6,8.1
								c10,1.7,20.2,1.8,30.3,1.1C733.4,536.1,751.2,532.2,768.1,525.8z"/>
						</g>
					</g>
					<g class="st2">
						<g>
							<path class="st3" d="M421.7,384c5.2,14.9,11.3,30.2,22.7,41.1c9.2,8.8,21.3,14.1,33.4,18.1c27.5,9.2,57.4,13.3,85.6,6.6
								c28.2-6.7,54.4-25.4,65.6-52.1c-46,4.5-92.4-0.5-138.4-5.5c-21.2-2.3-43-4.8-62-14.7c1.2,11.6,2.4,23.1,3.5,34.7"/>
						</g>
					</g>
				</g>
				<g>
					<g>
						<path class="st4" d="M359.4,304c8.4,29.1,24.2,56.2,47,78.5c4.6,4.5,9.5,8.9,14.7,13c2.5,2,5.1,3.9,7.8,5.9
							c8.1,5.7,16.4,10.7,25,14.9c7.4,3.7,15,6.8,22.7,9.4c9.3,3.1,18.8,5.5,28.3,7.1c3.5,0.6,7,1.1,10.5,1.5
							c63.8,7,129.5-19.1,169.6-74.2c59.1-81.1,40.2-194.1-42.2-252.4c-15.9-11.2-32.9-19.6-50.6-25.2c-2.1-0.7-4.1-1.3-6.2-1.9
							c-5.6-1.6-11.2-2.9-16.9-3.9c-13.1-2.4-26.3-3.3-39.5-2.9c-13.1,0.4-26.2,2.3-38.9,5.4c-4,1-8.1,2.1-12,3.4
							c-6,1.9-11.8,4.1-17.6,6.7c-28.8,12.6-54.6,32.7-74.3,59.7C352.7,195.5,344.6,252.7,359.4,304z"/>
						<path class="st3" d="M535.8,435.6c-6.8,0-13.7-0.4-20.5-1.1c-3.5-0.4-7-0.9-10.5-1.5c-9.6-1.6-19.2-4-28.3-7.1
							c-7.8-2.6-15.5-5.8-22.7-9.4c-8.7-4.3-17.1-9.3-25.1-14.9c-2.9-2.1-5.5-4-7.8-5.9c-5.1-4-10.1-8.4-14.8-13
							c-22.2-21.7-38.5-48.9-47.1-78.6c-15.5-53.6-5.5-110.3,27.4-155.5c19-26.1,44.8-46.8,74.4-59.8c5.6-2.5,11.6-4.7,17.6-6.7
							c3.9-1.3,8-2.4,12.1-3.4c12.8-3.2,25.9-5,39-5.4c13.3-0.4,26.6,0.5,39.6,2.9c5.7,1,11.3,2.3,16.9,3.9c2.2,0.6,4.3,1.2,6.2,1.9
							c18,5.7,35,14.2,50.7,25.3c40.1,28.4,66.5,70.4,74.4,118.4c7.8,47.6-3.6,95.4-32.1,134.6C650.6,407.8,594.6,435.6,535.8,435.6
							z M535.9,74c-2.1,0-4.2,0-6.3,0.1c-13.1,0.4-26.2,2.2-38.9,5.4c-4.1,1-8.1,2.2-12,3.4c-6.1,2-12,4.2-17.6,6.7
							c-29.5,12.9-55.2,33.5-74.1,59.5c-32.8,45-42.7,101.4-27.2,154.8c8.6,29.6,24.8,56.6,46.9,78.3c4.7,4.6,9.6,8.9,14.7,12.9
							c2.3,1.8,4.9,3.8,7.8,5.8c7.9,5.6,16.3,10.6,25,14.9c7.2,3.6,14.9,6.7,22.6,9.4c9.1,3.1,18.6,5.5,28.2,7.1
							c3.5,0.6,7,1.1,10.4,1.5c65.8,7.3,130.7-21.1,169.2-74.1c28.4-39,39.7-86.5,32-133.9c-7.8-47.8-34.1-89.6-74-117.8
							c-15.6-11-32.5-19.5-50.5-25.2c-2-0.6-4-1.2-6.2-1.9c-5.5-1.6-11.2-2.9-16.8-3.9C558.1,75,547,74,535.9,74z"/>
					</g>
					<g>
						<path class="st5" d="M684.9,359.9c-40.1,55.1-105.8,81.3-169.6,74.2c-3.5-0.4-7-0.9-10.4-1.5c-9.5-1.6-19-4-28.3-7.1
							c-7.7-2.6-15.3-5.7-22.7-9.4c-8.6-4.2-17-9.2-25-14.9c-2.7-1.9-5.3-3.9-7.8-5.8c-5.2-4.1-10.1-8.4-14.7-13
							c-22.7-22.2-38.5-49.4-47-78.5c-4.6-16-7-32.5-7.1-49.2c8.7,27.6,24.1,53.2,45.8,74.4c4.6,4.5,9.5,8.9,14.7,13
							c2.5,2,5.1,3.9,7.8,5.8c8.1,5.7,16.4,10.7,25,14.9c7.4,3.7,15,6.8,22.7,9.4c9.3,3.1,18.8,5.5,28.3,7.1c3.5,0.6,7,1.1,10.5,1.5
							c63.8,7.1,129.5-19.1,169.6-74.2c23.4-32.1,34.5-69.2,34.4-106C727.5,253,719.8,312,684.9,359.9z"/>
					</g>
					<g>
						<path class="st3" d="M535.8,438.5c-6.9,0-13.9-0.4-20.8-1.1c-3.5-0.4-7.1-0.9-10.6-1.5c-9.8-1.7-19.5-4.1-28.8-7.2
							c-7.9-2.7-15.7-5.9-23.1-9.6c-8.8-4.3-17.4-9.4-25.5-15.2c-3-2.1-5.6-4.1-7.9-6c-5.2-4.1-10.2-8.5-15-13.2
							c-22.5-22.1-39.1-49.7-47.8-79.9c-15.8-54.5-5.6-112,27.8-157.9c19.3-26.6,45.5-47.6,75.6-60.7c5.7-2.5,11.7-4.8,17.9-6.8
							c4-1.3,8.1-2.5,12.3-3.5c13-3.2,26.3-5.1,39.6-5.5c13.5-0.5,27,0.5,40.2,2.9c5.7,1,11.5,2.4,17.2,4c2.3,0.6,4.4,1.2,6.4,1.9
							c18.2,5.8,35.5,14.4,51.4,25.7c40.7,28.8,67.5,71.5,75.5,120.2c7.9,48.4-3.6,96.9-32.6,136.7
							C652.3,410.2,595.5,438.5,535.8,438.5z M535.9,76.8c-2.1,0-4.1,0-6.2,0.1c-12.9,0.4-25.8,2.2-38.3,5.3c-4,1-8,2.1-11.8,3.4
							c-6,1.9-11.8,4.1-17.3,6.6c-29.1,12.7-54.3,33-73,58.6c-32.2,44.3-42,99.8-26.8,152.3c8.4,29.1,24.4,55.8,46.1,77
							c4.6,4.5,9.5,8.8,14.5,12.7c2.3,1.8,4.8,3.7,7.7,5.8c7.8,5.5,16.1,10.4,24.6,14.6c7.1,3.5,14.6,6.6,22.3,9.2
							c9,3,18.3,5.4,27.8,7c3.4,0.6,6.8,1,10.3,1.4c64.8,7.2,128.7-20.8,166.6-72.9c27.9-38.4,39.1-85.2,31.5-131.8
							c-7.7-47-33.6-88.2-72.9-116c-15.3-10.8-32-19.2-49.7-24.8c-1.9-0.6-3.9-1.2-6.1-1.8c-5.5-1.5-11.1-2.8-16.6-3.8
							C557.8,77.8,546.8,76.8,535.9,76.8z"/>
					</g>
					<g>
						<path class="st3" d="M535.8,440.4c-7,0-14-0.4-21-1.2c-3.6-0.4-7.2-0.9-10.7-1.5c-9.9-1.7-19.7-4.1-29.1-7.3
							c-8-2.7-15.9-6-23.3-9.6c-8.9-4.4-17.6-9.5-25.7-15.3c-3-2.2-5.6-4.1-8-6c-5.2-4.1-10.3-8.6-15.1-13.3
							c-22.8-22.3-39.5-50.2-48.3-80.7c-15.9-55-5.7-113.2,28.1-159.6c19.5-26.8,45.9-48,76.4-61.4c5.8-2.5,11.9-4.8,18.1-6.9
							c4-1.3,8.2-2.5,12.4-3.5c13.1-3.3,26.5-5.1,40-5.6C543,68,556.7,69,570,71.4c5.8,1.1,11.6,2.4,17.3,4c2.3,0.6,4.4,1.3,6.4,1.9
							c18.4,5.8,35.9,14.6,51.9,25.9c41.1,29.1,68.2,72.2,76.3,121.5c8,48.9-3.7,97.9-33,138.1C653.5,411.8,596.1,440.4,535.8,440.4
							z M535.9,78.7c-2,0-4.1,0-6.1,0.1c-12.8,0.4-25.5,2.2-37.9,5.3c-4,1-7.9,2.1-11.7,3.3c-5.9,1.9-11.7,4.1-17.1,6.5
							c-28.8,12.6-53.7,32.6-72.2,58c-31.9,43.8-41.6,98.7-26.5,150.6c8.3,28.8,24.1,55.1,45.6,76.2c4.6,4.5,9.4,8.7,14.3,12.6
							c2.3,1.8,4.8,3.7,7.6,5.7c7.7,5.5,15.9,10.3,24.3,14.5c7.1,3.5,14.5,6.6,22.1,9.1c8.9,3,18.1,5.3,27.5,6.9
							c3.4,0.6,6.8,1,10.2,1.4c64.1,7.1,127.3-20.5,164.8-72.1c27.6-37.9,38.7-84.2,31.1-130.4c-7.6-46.5-33.2-87.3-72.1-114.8
							c-15.2-10.7-31.7-19-49.2-24.5c-1.9-0.6-3.9-1.2-6-1.8c-5.4-1.5-11-2.8-16.4-3.8C557.5,79.7,546.7,78.7,535.9,78.7z"/>
					</g>
					<g>
						<path class="st3" d="M378,346.6c88.7,95.3,243,75.1,278.7-47.9c24.2-83.7-40.2-171.8-123.3-189.7
							c-60.5-13-125.3,0.4-171.4,87.4c0,0-14.4,41.6-9,72.6c5.3,31,15.8,60.2,15.8,60.2L378,346.6z"/>
					</g>
					<g>
						<path class="st6" d="M656.7,298.6C621,421.7,466.7,441.9,378,346.6l-1.9-3.5c110.9,45.7,241.3,2.8,279.7-120.9
							C663.2,246.6,664.1,272.8,656.7,298.6z"/>
					</g>
					<g>
						<path class="st3" d="M512.1,429.2c-19.8,0-39.8-3-59.4-9.1l-0.6-0.2c-8.9-4.4-17.5-9.5-25.6-15.2c-3-2.1-5.6-4.1-8-6
							c-5.2-4.1-10.2-8.5-15-13.2c-22.6-22.2-39.3-49.9-48-80.3c-15.8-54.7-5.7-112.6,28-158.7c19.4-26.7,45.7-47.8,76-61l0.4-0.2
							l0.4-0.1c23.6-5,49.6-4.5,77.3,1.5c49.8,10.7,95.8,44.2,122.9,89.6c24.4,40.9,31.1,86.6,18.9,128.9
							c-13.3,46-41.5,81.7-81.6,103.2C571.9,422.2,542.3,429.2,512.1,429.2z M455.5,412.2c47.3,14.6,97.7,10.5,138.2-11.3
							c38-20.5,64.9-54.4,77.5-98.2c11.6-40,5.2-83.4-18-122.3c-26-43.4-69.9-75.5-117.5-85.7c-26.4-5.7-51.1-6.2-73.4-1.6
							c-28.8,12.7-53.7,32.8-72.2,58.1c-32.1,44-41.8,99.3-26.7,151.5c8.4,29,24.2,55.5,45.9,76.6c4.6,4.5,9.4,8.7,14.4,12.7
							c2.3,1.8,4.8,3.7,7.6,5.7C439,403.2,447.1,408.1,455.5,412.2z"/>
					</g>
					<g>
						<path class="st3" d="M511.4,410.7c-49.9,0-99.8-21.8-136.5-61.3l-0.4-0.4l-9.7-18.5c-0.1-0.3-10.7-29.9-16-60.9
							c-5.5-31.7,8.6-72.9,9.2-74.7l0.3-0.6c40.2-75.8,99.4-105.9,175.9-89.5c44.5,9.6,85.4,39.4,109.6,79.9
							c21.8,36.5,27.8,77.3,16.9,115c-15.8,54.7-56,93.4-110.4,106.4C537.5,409.2,524.5,410.7,511.4,410.7z M381.4,344.1
							c44.2,47.3,108.1,67.9,166.9,53.9c51.3-12.2,89.3-48.9,104.3-100.6c10.3-35.5,4.6-73.9-16-108.4c-23-38.5-62-67-104.2-76.1
							c-72.4-15.5-128.4,13-166.6,84.9c-1.2,3.7-13.6,42-8.8,70.2c4.9,28.7,14.5,56.2,15.5,59.2L381.4,344.1z"/>
					</g>
					<g>
						<path class="st4" d="M737.8,308.3c-5.7,35.2-31.5,61.4-57.8,58.5s-42.9-33.8-37.2-69c0-0.2,0.1-0.5,0.1-0.7
							c5.9-34.9,31.6-60.8,57.6-57.9c20.3,2.2,34.8,21.2,37.8,45.9C739.3,292.5,739.1,300.3,737.8,308.3z"/>
					</g>
					<g class="st2">
						<path class="st3" d="M737.8,308.3c-5.7,35.2-31.5,61.4-57.8,58.5s-42.9-33.8-37.2-69c0-0.2,0.1-0.5,0.1-0.7
							c2.3,3.9,6.2,8,12.5,7.5c11-0.9,33.8-21.5,33.8-21.5s21.3,0.8,49.2,2.1C739.3,292.5,739.1,300.3,737.8,308.3z"/>
					</g>
					<g>
						<path class="st3" d="M684,371.2c-1.5,0-2.9-0.1-4.4-0.2c-11.4-1.3-21.5-7.2-29.1-17.2c-11-14.4-15.3-35.1-11.8-56.6
							c6-37.3,34-65.1,62.3-62c11.4,1.3,21.5,7.2,29.1,17.2c11,14.4,15.3,35.1,11.8,56.6l-4.1-0.7l4.1,0.7
							C736.3,344.4,710.8,371.2,684,371.2z M696.6,243.2c-22.8,0-44.6,23.9-49.6,55.2c-3.1,19,0.8,37.8,10.2,50.2
							c6.2,8.1,14.3,13,23.3,14c24,2.7,47.9-22,53.2-55c3.1-19-0.8-37.8-10.2-50.2c-6.2-8.1-14.3-13-23.3-14
							C699,243.3,697.8,243.2,696.6,243.2z"/>
					</g>
					<g>
						
							<ellipse transform="matrix(0.2528 -0.9675 0.9675 0.2528 225.8183 914.0262)" class="st4" cx="704.7" cy="310.8" rx="51.4" ry="38.8"/>
						<path class="st3" d="M699.1,361.9c-6.4,0-12.5-2-18-6c-17.9-13.2-22-44.2-9.1-69c7.2-13.9,18.4-23.5,30.7-26.3
							c9.2-2.1,18-0.4,25.4,5.1c17.9,13.2,22,44.2,9.1,69c-7.2,13.9-18.4,23.5-30.7,26.3C704,361.6,701.5,361.9,699.1,361.9z
							 M710.2,260.5c-2.4,0-4.8,0.3-7.2,0.9c-12.1,2.8-23.1,12.2-30.2,25.9c-12.7,24.5-8.8,55,8.8,67.9c7.2,5.3,15.8,7,24.7,5
							c12.1-2.8,23.1-12.2,30.2-25.9l0.4,0.2l-0.4-0.2c12.7-24.5,8.8-55-8.8-67.9C722.4,262.5,716.5,260.5,710.2,260.5z"/>
					</g>
					<g class="st2">
						<path class="st3" d="M665,326.6c-0.9-9.7,0.9-19.6,4.7-28.7c3.9,21.9,21.7,33.4,41.5,25.9c12.8-4.9,23.4-16.5,29.2-30.5
							c0.2,1.4,0.4,2.8,0.6,4.3c2.2,24.7-13,51.1-34,59.1C686,364.7,667.2,351.2,665,326.6z"/>
					</g>
					<g>
						<path class="st3" d="M699,365.8c-1,0-2,0-3-0.1c-8.5-0.9-15.9-5.3-21.7-12.8c-8.9-11.6-12.4-29.5-9.4-47.7
							c5.1-30.8,27.1-54,49-51.8c8.5,0.9,16,5.3,21.7,12.8c8.9,11.6,12.4,29.5,9.4,47.7l0,0C740.2,343.3,720,365.8,699,365.8z
							 M711,261.6c-16.9,0-33.5,19.5-37.7,44.9c-2.7,16,0.2,31.5,7.8,41.3c4.3,5.6,9.8,8.9,15.9,9.5c17.6,1.8,35.6-18.3,39.9-44.8
							c2.7-16-0.2-31.5-7.8-41.3c-4.3-5.6-9.8-8.9-15.9-9.5C712.5,261.6,711.8,261.6,711,261.6z M741,313.2L741,313.2L741,313.2z"/>
					</g>
					<g class="st7">
						<path class="st4" d="M569.4,154.4c0,0-79.6-11.9-132.6,23.3c-0.1,0-0.1,0.1-0.2,0.1c-11.1,7.4-20.1,17.7-25.9,29.7
							c-7.7,15.8-10.6,27.9-12.8,38.5c-6.6,32.5-3.5,48.9-3.5,48.9c-15.3-20.9-21.9-42.4-16.7-69.6c0.5-2.7,1.2-5.4,1.9-8.2
							c0.2-0.6,0.4-1.3,0.5-1.9c0,0,0,0,0,0c1.9-5.5,4.7-12.7,8.5-20.6c11.5-23.7,32.5-53.4,67.4-62.2
							C521.2,116,572.8,151.6,569.4,154.4z"/>
					</g>
					<g class="st7">
						
							<ellipse transform="matrix(0.9973 -7.349965e-02 7.349965e-02 0.9973 -16.2769 45.7191)" class="st4" cx="613.1" cy="244" rx="24.5" ry="28.2"/>
					</g>
					<g class="st7">
						
							<ellipse transform="matrix(0.9861 -0.1659 0.1659 0.9861 -40.407 106.3476)" class="st4" cx="616.4" cy="295" rx="10.1" ry="11.6"/>
					</g>
				</g>
				<g>
					<g>
						<path class="st4" d="M380.4,518c0,0-8.2-2.7-19.5-0.8c-13.5,2.3-16.9,28.5,9.6,32c24.5,3.2,25.9-5,25.9-5l-8.8-17.6"/>
					</g>
					<g class="st8">
						<path class="st3" d="M372.1,537.3c-11.9-1.6-17.7-7.7-19.4-14.2c-5,8.6-1.8,23.6,17.8,26.1c24.5,3.2,25.9-5,25.9-5l-3.8-7.5
							C388.9,537.9,382.6,538.7,372.1,537.3z"/>
					</g>
					<g>
						<path class="st3" d="M380.6,553.2c-3,0-6.5-0.2-10.6-0.8c-16.5-2.2-22.5-12.3-22.7-21c-0.2-8.6,5.4-16.1,13-17.4
							c12-2,20.7,0.8,21.1,0.9c1.7,0.6,2.6,2.4,2,4.1s-2.4,2.6-4.1,2c-0.1,0-7.7-2.4-18-0.7c-4.4,0.8-7.7,5.5-7.6,10.9
							c0,2.9,1.5,12.7,17.1,14.8c15.2,2,20.3-0.7,21.8-2l-8-16c-0.8-1.6-0.1-3.5,1.4-4.3c1.6-0.8,3.5-0.2,4.3,1.4l9.3,18.5l-0.2,1
							C399.3,546.3,397.1,553.2,380.6,553.2z"/>
					</g>
					<g>
						<g>
							<path class="st4" d="M401.1,601.9L524.7,614c14.6,1.4,27.8-9.4,29.2-24l6.4-65.8c1.3-12.8-6.9-24.5-18.8-28.2
								c-1.7-0.5-3.4-0.9-5.3-1.1l-123.6-12.1c-14.6-1.4-27.8,9.4-29.2,24l-5.1,52.1l-1.3,13.7C375.7,587.3,386.5,600.4,401.1,601.9
								z"/>
						</g>
						<g>
							<path class="st4" d="M401.1,601.9L524.7,614c14.6,1.4,27.8-9.4,29.2-24l6.4-65.8c1.3-12.8-6.9-24.5-18.8-28.2
								c-1.7-0.5-3.4-0.9-5.3-1.1l-123.6-12.1c-14.6-1.4-27.8,9.4-29.2,24l-5.1,52.1l-1.3,13.7C375.7,587.3,386.5,600.4,401.1,601.9
								z"/>
						</g>
						<g>
							<path class="st4" d="M401.1,601.9L524.7,614c14.6,1.4,27.8-9.4,29.2-24l6.4-65.8c1.3-12.8-6.9-24.5-18.8-28.2
								c-1.7-0.5-3.4-0.9-5.3-1.1l-123.6-12.1c-14.6-1.4-27.8,9.4-29.2,24l-5.1,52.1l-1.3,13.7C375.7,587.3,386.5,600.4,401.1,601.9
								z"/>
						</g>
						<g class="st2">
							<path class="st3" d="M400.9,601.8l123.6,12.1c14.6,1.4,27.8-9.4,29.2-24l6.4-65.8c1.3-12.8-6.9-24.5-18.8-28.2
								c-7.5,4-12.2,6.5-12.2,6.5c-11.2,52.2-28.8,77.1-94.5,71.7c-28.4-2.3-45.8-8.4-56.5-15.3l-1.3,13.7
								C375.5,587.3,386.3,600.4,400.9,601.8z"/>
						</g>
						<g>
							<path class="st3" d="M532.7,619.8c-0.8,0-1.7,0-2.5-0.1l-135.4-13.2c-6.9-0.7-13.1-4-17.5-9.4s-6.5-12.1-5.8-19l7.6-77.6
								c1.4-14.3,14.1-24.7,28.4-23.3l135.4,13.2c14.3,1.4,24.7,14.1,23.3,28.4l-7.6,77.6C557.2,609.8,545.9,619.8,532.7,619.8z
								 M531.1,609.4c8.6,0.8,16.3-5.5,17.1-14.1l7.6-77.6c0.8-8.6-5.5-16.3-14.1-17.1l-135.4-13.2c-8.6-0.9-16.3,5.5-17.1,14.1
								l-7.6,77.6c-0.4,4.1,0.8,8.2,3.5,11.5c2.7,3.2,6.4,5.2,10.5,5.7L531.1,609.4z"/>
						</g>
						<g>
							<path class="st4" d="M444.9,605.7l0.2,0.5l79.7,7.8c10.7,1,20.6-4.5,25.7-13.3c1.9-3.2,3.1-6.8,3.5-10.7l2.9-29.2l1-9.6
								l1.7-16.9l1-10c1.4-14.6-9.4-27.8-24-29.2l-26.7-2.6c12.1,3.5,20.4,15.3,19.1,28.2l-1.9,19.5l-1.6,16l-3,30.3
								c-1.4,14.6-14.6,25.4-29.2,24L444.9,605.7z"/>
						</g>
						<g class="st2">
							<path class="st3" d="M432.3,604.4l0.2,0.5l92.3,9c10.7,1,20.6-4.5,25.7-13.3c1.9-3.2,3.1-6.8,3.5-10.7l2.9-29.2l1-9.6
								l1.7-16.9c-5.3-1.3-12.5-1.2-17.1,6.3c-6.4,10.4-11.8,6.2-15.4-0.4l-1.6,16l-3,30.3c-1.4,14.6-14.6,25.4-29.2,24L432.3,604.4
								z"/>
						</g>
						<g>
							<path class="st3" d="M527.4,618.3c-1,0-2,0-3.1-0.2l-111.9-11l0-0.1c-2.5-0.5-4.1-1.5-3.9-4.5l0.4-4.2l4.3,0.4
								c1.6,0.2,80.3,7.4,80.3,7.4c6,0.6,11.8-1.2,16.5-5c4.7-3.8,7.5-9.2,8.1-15.2l6.4-65.8c1-10.7-5.7-20.7-16.1-23.8l1.6-8.3
								l26.7,2.6c17,1.7,29.5,16.9,27.8,33.9l-6.4,65.8c-0.8,8.2-4.8,15.6-11.2,20.9C541.4,615.9,534.5,618.3,527.4,618.3z
								 M514.2,608.7l10.9,1.1c5.9,0.6,11.8-1.2,16.4-5s7.5-9.2,8.1-15.2l0,0l6.4-65.8c1.2-12.3-7.8-23.4-20.2-24.6l-9.9-1
								c5.1,6.2,7.8,14.3,7,22.8l-6.4,65.8c-0.8,8.2-4.8,15.6-11.2,20.9C515,608,514.6,608.3,514.2,608.7z"/>
						</g>
						<g>
							<path class="st9" d="M476.8,549.2c-0.2,2.4,1.4,22.4,1.4,22.4s6.2,0.6,13.9,1.3c9.5,0.9,18.2-8.3,19.3-20.5
								c1.1-12.2-5.7-22.8-15.3-23.7c-6.4-0.6-13.9-1.3-13.9-1.3S477.1,545.3,476.8,549.2z"/>
						</g>
						<g>
							<path class="st10" d="M476.8,549.2c-0.2,2.4,1.4,22.4,1.4,22.4s6.2,0.6,13.9,1.3c9.5,0.9,18.2-8.3,19.3-20.5
								c1.1-12.2-5.7-22.8-15.3-23.7c-6.4-0.6-13.9-1.3-13.9-1.3S477.1,545.3,476.8,549.2z"/>
						</g>
						<g>
							<path class="st3" d="M493.3,575.6c-0.5,0-1,0-1.5-0.1l-9.6-0.9c-3.7-0.3-6.6-3.3-6.9-7c-1.2-16.4-1.1-18-1-18.6l0,0
								c0.3-2.8,2.5-11.4,4.4-18.2c1-3.6,4.4-5.9,8-5.6l9.7,0.9c11,1,18.8,12.9,17.6,26.5c-0.6,6.5-3.1,12.4-7.2,16.7
								C502.9,573.4,498.2,575.6,493.3,575.6z M479.4,549.5c-0.1,0.8,0.2,6,1.1,17.7c0.1,1.2,1,2.2,2.2,2.3l9.6,0.9
								c3.8,0.3,7.6-1.3,10.7-4.5c3.3-3.5,5.3-8.3,5.8-13.6c1-10.8-4.8-20.1-12.9-20.9l-9.7-0.9c-1.2-0.1-2.3,0.6-2.6,1.8
								C481.1,541.3,479.5,547.6,479.4,549.5z"/>
						</g>
						<g>
							
								<ellipse transform="matrix(9.169879e-02 -0.9958 0.9958 9.169879e-02 -111.0624 977.373)" class="st9" cx="480.2" cy="549.6" rx="22.2" ry="17.4"/>
						</g>
						<g class="st11">
							<path class="st4" d="M497.5,551.2c-0.1,0.9-0.2,1.8-0.4,2.7c-0.9-9.8-7.1-17.7-15.2-18.4c-8.8-0.8-16.9,7-19,17.8
								c-0.2-1.7-0.2-3.5,0-5.3c1.1-12.2,9.8-21.4,19.3-20.5C491.8,528.3,498.6,539,497.5,551.2z"/>
						</g>
						<g>
							<path class="st10" d="M497.5,551.2c-1.1,12.2-9.8,21.4-19.3,20.5c-9.5-0.9-16.4-11.5-15.2-23.7c0.2-1.9,0.5-3.8,1.1-5.5
								c1.8,8.5,7.5,14.8,14.8,15.5c8,0.8,15.5-5.6,18.3-15C497.6,545.6,497.8,548.3,497.5,551.2z"/>
						</g>
						<g>
							<path class="st3" d="M479.4,574.3c-0.5,0-1,0-1.5-0.1c-11-1-18.8-12.9-17.6-26.5c0.6-6.5,3.1-12.4,7.2-16.7
								c4.2-4.5,9.5-6.6,14.9-6.1c5.4,0.5,10.2,3.6,13.6,8.8c3.2,5,4.6,11.2,4,17.7C498.9,564.4,489.8,574.3,479.4,574.3z M481,530
								c-3.5,0-6.9,1.6-9.7,4.6c-3.3,3.5-5.3,8.3-5.8,13.6c-1,10.8,4.8,20.1,12.9,20.9c8.1,0.8,15.5-7.4,16.5-18.2
								c0.5-5.3-0.7-10.5-3.2-14.5c-2.4-3.8-5.9-6.1-9.7-6.4C481.7,530,481.3,530,481,530z"/>
						</g>
						<g>
							<path class="st3" d="M439.6,608.3c-0.1,0-0.2,0-0.2,0c-1.8-0.1-3.1-1.7-3-3.4l2.5-33.3c0.5-6.7-2.4-13.1-7.7-17.2
								c-7.2-5.5-10.9-14.2-10.1-23.3l4.4-46.9c0.2-1.8,1.7-3,3.5-2.9c1.8,0.2,3,1.7,2.9,3.5l-4.4,46.9c-0.6,6.8,2.2,13.4,7.6,17.6
								c7,5.4,10.8,13.9,10.1,22.7l-2.5,33.3C442.6,607.1,441.2,608.3,439.6,608.3z"/>
						</g>
					</g>
					<g>
						<g>
							<path class="st4" d="M554.2,551c0,0-12.3-2.2-15,10.7c-2.7,12.9,9.7,17.9,9.7,17.9s43.6,14.3,76.7,6
								c14.6-10.6,3.2-27.1,3.2-27.1S590,562.9,554.2,551z"/>
						</g>
						<g class="st2">
							<path class="st3" d="M548.9,579.6c0,0,43.6,14.3,76.7,6c6.5-4.7,7.8-10.7,7.3-15.7c-1.1,1.5-2.5,2.9-4.3,4.2
								c-33.1,8.2-76.7-6-76.7-6s-8.9-3.6-10-12.6c-1.2,1.5-2.2,3.6-2.7,6.2C536.5,574.6,548.9,579.6,548.9,579.6z"/>
						</g>
						<g>
							<path class="st3" d="M602.3,591.4c-27.1,0-52.9-8.3-54.3-8.8l-0.2-0.1c-5.2-2.1-14.2-9.2-11.7-21.5
								c2.6-12.6,13.4-14.1,18.7-13.2l0.4,0.1c34.7,11.5,72.9,7.3,73.2,7.3l1.9-0.2l1.1,1.6c4.6,6.6,9.6,21.7-3.9,31.5l-0.5,0.4
								l-0.6,0.2C618.7,590.6,610.4,591.4,602.3,591.4z M550.1,576.6c2.5,0.8,43.3,13.5,74.2,6.1c9-7,4.9-17,2.9-20.8
								c-8.6,0.8-41.9,2.8-73.7-7.7c-1.9-0.3-9.2-0.7-11.1,8.2C540.3,572,549,576.1,550.1,576.6z"/>
						</g>
					</g>
				</g>
			</g>
			<g>
				<g>
					<path class="st9" d="M886.9,480.6v113.5c-25.8,31-94.2,29-117.5,0V480.6H886.9z"/>
				</g>
				<g>
					<path class="st3" d="M828.3,621.2c-0.4,0-0.8,0-1.2,0c-26.1-0.3-49.5-9.5-61.3-24.2c-0.6-0.8-1-1.8-1-2.8V480.6
						c0-2.5,2-4.5,4.5-4.5h117.5c2.5,0,4.5,2,4.5,4.5v113.5c0,1.1-0.4,2.1-1,2.9C877.7,612.2,854.6,621.2,828.3,621.2z M773.9,592.5
						c10.4,11.9,30.7,19.4,53.3,19.6c0.4,0,0.7,0,1.1,0c22.9,0,42.8-7.3,54-19.7V485.1H773.9V592.5z"/>
				</g>
				<g>
					<path class="st4" d="M886.9,480.6c0,2.1-1.6,4-4.4,5.9c-8.8,5.6-29.8,9.5-54.3,9.5s-45.5-3.9-54.3-9.5
						c-2.8-1.8-4.4-3.8-4.4-5.9c0-8.5,26.3-15.4,58.7-15.4S886.9,472.1,886.9,480.6z"/>
				</g>
				<g>
					<path class="st12" d="M882.5,486.5c-8.8,5.6-29.8,9.5-54.3,9.5s-45.5-3.9-54.3-9.5c8.8-5.6,29.8-9.5,54.3-9.5
						S873.7,480.9,882.5,486.5z"/>
				</g>
				<g>
					<g>
						<path class="st13" d="M869.2,483.1c0,0.2-0.4,0.5-1.1,0.7c-0.3,0.1-0.6,0.4-0.6,0.8c0,0.7-0.2,1.2-0.4,1.2s-0.5-0.4-0.7-1.1
							c-0.1-0.4-0.4-0.6-0.8-0.6c-0.7,0-1.2-0.2-1.2-0.4c0-0.2,0.4-0.5,1.1-0.7c0.3-0.1,0.6-0.4,0.6-0.8c0-0.7,0.2-1.2,0.4-1.2
							s0.5,0.4,0.7,1.1c0.1,0.4,0.4,0.6,0.8,0.6C868.7,482.7,869.2,482.9,869.2,483.1z"/>
					</g>
					<g>
						<path class="st4" d="M793.3,482.8c0,0.1-0.3,0.3-0.7,0.4c-0.2,0.1-0.4,0.2-0.4,0.5c0,0.4-0.1,0.7-0.3,0.8s-0.3-0.3-0.4-0.7
							c0-0.2-0.2-0.4-0.5-0.4c-0.4,0-0.7-0.1-0.8-0.3s0.3-0.3,0.7-0.4c0.2,0,0.4-0.2,0.4-0.5c0-0.4,0.1-0.7,0.3-0.8s0.3,0.3,0.4,0.7
							c0,0.2,0.2,0.4,0.5,0.4C793,482.5,793.3,482.6,793.3,482.8z"/>
					</g>
					<g>
						<path class="st13" d="M814.8,487.1c0.1,0.6-0.4,1.2-1,1.2s-1.2-0.4-1.2-1s0.4-1.2,1-1.2C814.2,486.1,814.8,486.5,814.8,487.1z
							"/>
					</g>
					<g>
						<path class="st13" d="M853.6,481.4c0,0.5-0.3,0.8-0.7,0.9c-0.5,0-0.8-0.3-0.9-0.7s0.3-0.8,0.7-0.9
							C853.2,480.6,853.6,480.9,853.6,481.4z"/>
					</g>
					<g>
						<path class="st4" d="M838.2,487.2c0,0.5-0.3,0.8-0.7,0.9c-0.5,0-0.8-0.3-0.9-0.7s0.3-0.8,0.7-0.9
							C837.8,486.4,838.2,486.7,838.2,487.2z"/>
					</g>
				</g>
				<g>
					<path class="st3" d="M828.2,500.5c-23.5,0-63.2-4.2-63.2-19.9s39.8-19.9,63.2-19.9s63.2,4.2,63.2,19.9S851.6,500.5,828.2,500.5
						z M774,480.6c1.2,3.2,18.6,10.9,54.2,10.9s53-7.7,54.2-10.9c-1.2-3.2-18.6-10.9-54.2-10.9C792.5,469.8,775.1,477.5,774,480.6z
						 M882.4,480.7L882.4,480.7L882.4,480.7z"/>
				</g>
				<g>
					<g>
						<defs>
							<polygon id="SVGID_1_" points="1,1 2,1 1,2 							"/>
						</defs>
						<defs>
							<polygon id="SVGID_00000096776560153854268680000007719965344519991944_" points="-1,-1 -2,-1 -1,-2 							"/>
						</defs>
						<clipPath id="SVGID_00000129913729032162670110000011181759257943280273_">
							<use xlink:href="#SVGID_1_"  style="overflow:visible;"/>
						</clipPath>
						
							<clipPath id="SVGID_00000103232375935078554550000018180788709958576559_" style="clip-path:url(#SVGID_00000129913729032162670110000011181759257943280273_);">
							<use xlink:href="#SVGID_00000096776560153854268680000007719965344519991944_"  style="overflow:visible;"/>
						</clipPath>
						<defs>
							<filter id="Adobe_OpacityMaskFilter" filterUnits="userSpaceOnUse" x="785.7" y="336.9" width="101.2" height="146.4">
								<feColorMatrix  type="matrix" values="1 0 0 0 0  0 1 0 0 0  0 0 1 0 0  0 0 0 1 0"/>
							</filter>
						</defs>
						
							<mask maskUnits="userSpaceOnUse" x="785.7" y="336.9" width="101.2" height="146.4" id="SVGID_00000013898900413142729730000000445381032470551169_">
							<g class="st15">
								<g>
									<defs>
										<polygon id="SVGID_00000063605091644996999640000001877977418901399997_" points="1,1 2,1 1,2 										"/>
									</defs>
									<defs>
										<polygon id="SVGID_00000040551903174473773400000004687502627500336062_" points="-1,-1 -2,-1 -1,-2 										"/>
									</defs>
									
										<clipPath id="SVGID_00000098902096391290161250000008946984832343916453_" style="clip-path:url(#SVGID_00000103232375935078554550000018180788709958576559_);">
										<use xlink:href="#SVGID_00000063605091644996999640000001877977418901399997_"  style="overflow:visible;"/>
									</clipPath>
									
										<clipPath id="SVGID_00000016043189730099556200000009952108137238049704_" style="clip-path:url(#SVGID_00000098902096391290161250000008946984832343916453_);">
										<use xlink:href="#SVGID_00000040551903174473773400000004687502627500336062_"  style="overflow:visible;"/>
									</clipPath>
									
										<linearGradient id="SVGID_00000148660517957096128900000008037829678893230976_" gradientUnits="userSpaceOnUse" x1="836.207" y1="539.2003" x2="835.6605" y2="491.8578" gradientTransform="matrix(1 0 0 -1 0 976)">
										<stop  offset="0" style="stop-color:#FFFFFF"/>
										<stop  offset="1" style="stop-color:#000000"/>
									</linearGradient>
									
										<path style="clip-path:url(#SVGID_00000016043189730099556200000009952108137238049704_);fill:url(#SVGID_00000148660517957096128900000008037829678893230976_);" d="
										M879.7,393.9c-5.6-9.2-12.2-19.3-22.8-21.8c-7.3-1.7-15.2,0.7-22.4-1.4c-7.1-2-12.7-8.7-13.4-16c-0.7-6.9,3-14,9-17.6
										c-8.5,4.7-17,10.3-21.8,18.7c-5.1,8.7-4.9,21.2,2.8,27.7c3.5,2.9,8.4,4.7,10.1,8.9c1.9,4.5-0.8,9.6-4.2,13
										c-9,9.1-23.7,12.9-29.2,24.4c-4.2,8.8-1.5,19.4,3.3,27.8c4.8,8.5,11.6,15.7,16.2,24.3l0.3-0.1c12.9,2,26,2.3,39,0.8
										c-2.2-9.6,1.2-19.7,6.9-27.7c5.6-8,13.3-14.4,20.7-20.9c5.6-4.9,11.3-10.5,12.5-17.9C888,408.1,883.8,400.6,879.7,393.9z
										 M847,424.9c-1.8,5.5-5.5,10.2-9.3,14.6c-3.8,4.4-7.8,8.7-10.6,13.8c-2.8,5.1-4.2,11.2-2.5,16.8l-0.8-1.7
										c-3.1-5.7-6.2-11.4-7.7-17.7c-1.5-6.3-1.2-13.3,2.4-18.7c3.6-5.6,9.9-8.7,15.4-12.4c5.5-3.7,10.9-9.1,10.7-15.8
										C848.4,410.2,849.3,418,847,424.9z"/>
								</g>
							</g>
						</mask>
						
							<linearGradient id="SVGID_00000124119562624884139720000006273397984546400399_" gradientUnits="userSpaceOnUse" x1="836.207" y1="539.2003" x2="835.6605" y2="491.8578" gradientTransform="matrix(1 0 0 -1 0 976)">
							<stop  offset="0" style="stop-color:#FFFFFF"/>
							<stop  offset="1" style="stop-color:#000000"/>
						</linearGradient>
						
							<path style="clip-path:url(#SVGID_00000103232375935078554550000018180788709958576559_);mask:url(#SVGID_00000013898900413142729730000000445381032470551169_);fill:url(#SVGID_00000124119562624884139720000006273397984546400399_);" d="
							M879.7,393.9c-5.6-9.2-12.2-19.3-22.8-21.8c-7.3-1.7-15.2,0.7-22.4-1.4c-7.1-2-12.7-8.7-13.4-16c-0.7-6.9,3-14,9-17.6
							c-8.5,4.7-17,10.3-21.8,18.7c-5.1,8.7-4.9,21.2,2.8,27.7c3.5,2.9,8.4,4.7,10.1,8.9c1.9,4.5-0.8,9.6-4.2,13
							c-9,9.1-23.7,12.9-29.2,24.4c-4.2,8.8-1.5,19.4,3.3,27.8c4.8,8.5,11.6,15.7,16.2,24.3l0.3-0.1c12.9,2,26,2.3,39,0.8
							c-2.2-9.6,1.2-19.7,6.9-27.7c5.6-8,13.3-14.4,20.7-20.9c5.6-4.9,11.3-10.5,12.5-17.9C888,408.1,883.8,400.6,879.7,393.9z
							 M847,424.9c-1.8,5.5-5.5,10.2-9.3,14.6c-3.8,4.4-7.8,8.7-10.6,13.8c-2.8,5.1-4.2,11.2-2.5,16.8l-0.8-1.7
							c-3.1-5.7-6.2-11.4-7.7-17.7c-1.5-6.3-1.2-13.3,2.4-18.7c3.6-5.6,9.9-8.7,15.4-12.4c5.5-3.7,10.9-9.1,10.7-15.8
							C848.4,410.2,849.3,418,847,424.9z"/>
					</g>
				</g>
				
					<linearGradient id="SVGID_00000055703288070610533580000006540298730436238991_" gradientUnits="userSpaceOnUse" x1="836.207" y1="539.2003" x2="835.6605" y2="491.8578" gradientTransform="matrix(1 0 0 -1 0 976)">
					<stop  offset="0" style="stop-color:#FFFFFF"/>
					<stop  offset="1" style="stop-color:#FFFFFF"/>
				</linearGradient>
				<path style="fill:url(#SVGID_00000055703288070610533580000006540298730436238991_);" d="M879.7,393.9
					c-5.6-9.2-12.2-19.3-22.8-21.8c-7.3-1.7-15.2,0.7-22.4-1.4c-7.1-2-12.7-8.7-13.4-16c-0.7-6.9,3-14,9-17.6
					c-8.5,4.7-17,10.3-21.8,18.7c-5.1,8.7-4.9,21.2,2.8,27.7c3.5,2.9,8.4,4.7,10.1,8.9c1.9,4.5-0.8,9.6-4.2,13
					c-9,9.1-23.7,12.9-29.2,24.4c-4.2,8.8-1.5,19.4,3.3,27.8c4.8,8.5,11.6,15.7,16.2,24.3l0.3-0.1c12.9,2,26,2.3,39,0.8
					c-2.2-9.6,1.2-19.7,6.9-27.7c5.6-8,13.3-14.4,20.7-20.9c5.6-4.9,11.3-10.5,12.5-17.9C888,408.1,883.8,400.6,879.7,393.9z
					 M847,424.9c-1.8,5.5-5.5,10.2-9.3,14.6c-3.8,4.4-7.8,8.7-10.6,13.8c-2.8,5.1-4.2,11.2-2.5,16.8l-0.8-1.7
					c-3.1-5.7-6.2-11.4-7.7-17.7c-1.5-6.3-1.2-13.3,2.4-18.7c3.6-5.6,9.9-8.7,15.4-12.4c5.5-3.7,10.9-9.1,10.7-15.8
					C848.4,410.2,849.3,418,847,424.9z"/>
				<g class="st2">
					<g>
						<path class="st3" d="M879.6,542.3v45.2c-22.4,29.1-81.8,27.3-102,0V483.4c5.2,3.1,10.8,5.3,16.7,6.4l-2.7,2.6
							c-0.3,6.5-0.6,12.9-0.9,19.4c-0.7,15.3-1.2,31.7,6.3,44.8c7.5,13.1,22.3,20.2,36.5,19.3c14.2-0.8,27.5-8.9,37.1-20.3
							C874,551.5,877,547,879.6,542.3z"/>
					</g>
				</g>
			</g>
			<g>
				<g>
					<path class="st9" d="M206.6,425.2v113.6c-25.8,31-94.2,29-117.5,0V425.2H206.6z"/>
				</g>
				<g>
					<path class="st3" d="M148,565.8c-0.4,0-0.8,0-1.1,0c-26.1-0.3-49.6-9.5-61.3-24.2c-0.6-0.8-1-1.8-1-2.8V425.2
						c0-2.5,2-4.5,4.5-4.5h117.5c2.5,0,4.5,2,4.5,4.5v113.6c0,1.1-0.4,2.1-1.1,2.9C197.4,556.8,174.3,565.8,148,565.8z M93.6,537.1
						c10.4,11.9,30.7,19.4,53.3,19.6c0.4,0,0.7,0,1.1,0c22.9,0,42.9-7.3,54-19.7V429.8H93.6V537.1z"/>
				</g>
				<g>
					<path class="st4" d="M206.6,425.2c0,2.1-1.6,4-4.4,5.9c-8.8,5.6-29.8,9.5-54.3,9.5s-45.5-3.9-54.3-9.5
						c-2.8-1.8-4.4-3.8-4.4-5.9c0-8.5,26.3-15.4,58.7-15.4S206.6,416.7,206.6,425.2z"/>
				</g>
				<g>
					<path class="st12" d="M202.2,431.1c-8.8,5.6-29.8,9.5-54.3,9.5s-45.5-3.9-54.3-9.5c8.8-5.6,29.8-9.5,54.3-9.5
						S193.4,425.5,202.2,431.1z"/>
				</g>
				<g>
					<g>
						<path class="st13" d="M187.9,428.4c0,0.2-0.4,0.5-1.1,0.7c-0.4,0.1-0.6,0.4-0.6,0.8c0,0.7-0.2,1.2-0.4,1.2s-0.5-0.4-0.7-1.1
							c-0.1-0.4-0.4-0.6-0.8-0.6c-0.7,0-1.2-0.2-1.2-0.4c0-0.2,0.4-0.5,1.1-0.7c0.4-0.1,0.6-0.4,0.6-0.8c0-0.7,0.2-1.2,0.4-1.2
							s0.5,0.4,0.7,1.1c0.1,0.4,0.4,0.6,0.8,0.6C187.4,428,187.9,428.2,187.9,428.4z"/>
					</g>
					<g>
						<path class="st4" d="M112,428.1c0,0.1-0.3,0.3-0.7,0.4c-0.2,0-0.4,0.2-0.4,0.5c0,0.4-0.1,0.7-0.3,0.8s-0.3-0.3-0.4-0.7
							c-0.1-0.2-0.2-0.4-0.5-0.4c-0.4,0-0.7-0.1-0.8-0.3s0.3-0.3,0.7-0.4c0.2,0,0.4-0.2,0.4-0.5c0-0.4,0.1-0.7,0.3-0.8
							s0.3,0.3,0.4,0.7c0.1,0.2,0.2,0.4,0.5,0.4C111.7,427.8,112,427.9,112,428.1z"/>
					</g>
					<g>
						<path class="st13" d="M133.4,432.4c0.1,0.6-0.4,1.2-1,1.2s-1.2-0.4-1.2-1s0.4-1.2,1-1.2C132.9,431.4,133.4,431.8,133.4,432.4z
							"/>
					</g>
					<g>
						<path class="st13" d="M172.2,426.7c0,0.5-0.3,0.8-0.7,0.9s-0.8-0.3-0.9-0.7c0-0.5,0.3-0.8,0.7-0.9
							C171.8,425.9,172.2,426.2,172.2,426.7z"/>
					</g>
					<g>
						<path class="st4" d="M156.8,432.5c0,0.5-0.3,0.8-0.7,0.9s-0.8-0.3-0.9-0.7c0-0.5,0.3-0.8,0.7-0.9
							C156.4,431.7,156.8,432,156.8,432.5z"/>
					</g>
				</g>
				<g>
					<path class="st3" d="M147.9,445.1c-23.5,0-63.2-4.2-63.2-19.9s39.8-19.9,63.2-19.9s63.2,4.2,63.2,19.9S171.3,445.1,147.9,445.1
						z M93.7,425.2c1.2,3.2,18.6,10.9,54.2,10.9s53.1-7.7,54.2-10.9c-1.1-3.2-18.6-10.9-54.2-10.9S94.8,422.1,93.7,425.2z
						 M202.1,425.3L202.1,425.3L202.1,425.3z"/>
				</g>
				<g>
					<g>
						<defs>
							<polygon id="SVGID_00000152979498276739404590000005593704799390299546_" points="1,1 2,1 1,2 							"/>
						</defs>
						<defs>
							<polygon id="SVGID_00000048459319539841911260000009209429067067193526_" points="-1,-1 -2,-1 -1,-2 							"/>
						</defs>
						<clipPath id="SVGID_00000080895960417034848120000003953212564562043577_">
							<use xlink:href="#SVGID_00000152979498276739404590000005593704799390299546_"  style="overflow:visible;"/>
						</clipPath>
						
							<clipPath id="SVGID_00000059277206630749441550000000934444585146389928_" style="clip-path:url(#SVGID_00000080895960417034848120000003953212564562043577_);">
							<use xlink:href="#SVGID_00000048459319539841911260000009209429067067193526_"  style="overflow:visible;"/>
						</clipPath>
						<defs>
							
								<filter id="Adobe_OpacityMaskFilter_00000077290457925973714170000000252755334997508248_" filterUnits="userSpaceOnUse" x="105.4" y="281.6" width="101.2" height="146.4">
								<feColorMatrix  type="matrix" values="1 0 0 0 0  0 1 0 0 0  0 0 1 0 0  0 0 0 1 0"/>
							</filter>
						</defs>
						
							<mask maskUnits="userSpaceOnUse" x="105.4" y="281.6" width="101.2" height="146.4" id="SVGID_00000045584335857846615510000014242279625349238428_">
							<g style="filter:url(#Adobe_OpacityMaskFilter_00000077290457925973714170000000252755334997508248_);">
								<g>
									<defs>
										<polygon id="SVGID_00000060735924847106443610000001312428125463181734_" points="1,1 2,1 1,2 										"/>
									</defs>
									<defs>
										<polygon id="SVGID_00000158740616176304917520000003928935954158117811_" points="-1,-1 -2,-1 -1,-2 										"/>
									</defs>
									
										<clipPath id="SVGID_00000143592376813091813890000005842487334910932385_" style="clip-path:url(#SVGID_00000059277206630749441550000000934444585146389928_);">
										<use xlink:href="#SVGID_00000060735924847106443610000001312428125463181734_"  style="overflow:visible;"/>
									</clipPath>
									
										<clipPath id="SVGID_00000153701427193580815110000010614580644069474201_" style="clip-path:url(#SVGID_00000143592376813091813890000005842487334910932385_);">
										<use xlink:href="#SVGID_00000158740616176304917520000003928935954158117811_"  style="overflow:visible;"/>
									</clipPath>
									
										<linearGradient id="SVGID_00000089576200671944088520000014811945924668198528_" gradientUnits="userSpaceOnUse" x1="155.9071" y1="594.5852" x2="155.3606" y2="547.2429" gradientTransform="matrix(1 0 0 -1 0 976)">
										<stop  offset="0" style="stop-color:#FFFFFF"/>
										<stop  offset="1" style="stop-color:#000000"/>
									</linearGradient>
									
										<path style="clip-path:url(#SVGID_00000153701427193580815110000010614580644069474201_);fill:url(#SVGID_00000089576200671944088520000014811945924668198528_);" d="
										M199.4,338.5c-5.6-9.2-12.2-19.3-22.8-21.8c-7.3-1.7-15.2,0.7-22.4-1.4c-7.1-2-12.7-8.7-13.4-16c-0.7-6.9,3-14,9-17.6
										c-8.5,4.7-16.9,10.3-21.8,18.7c-5.1,8.7-4.9,21.2,2.8,27.7c3.5,2.9,8.4,4.7,10.1,8.9c1.9,4.5-0.8,9.6-4.2,13
										c-9,9.1-23.7,12.9-29.2,24.4c-4.2,8.8-1.5,19.4,3.3,27.8c4.8,8.5,11.6,15.7,16.2,24.3l0.3-0.1c12.9,2,26.1,2.3,39,0.8
										c-2.2-9.6,1.2-19.7,6.9-27.7c5.6-8,13.3-14.4,20.7-20.9c5.6-4.9,11.3-10.5,12.5-17.9C207.7,352.7,203.4,345.2,199.4,338.5z
										 M166.7,369.5c-1.8,5.5-5.5,10.2-9.3,14.6c-3.8,4.4-7.8,8.7-10.6,13.8c-2.8,5.1-4.2,11.2-2.5,16.8l-0.8-1.7
										c-3.1-5.7-6.2-11.4-7.7-17.7c-1.5-6.3-1.1-13.3,2.4-18.7c3.6-5.6,9.9-8.7,15.4-12.4c5.5-3.7,10.9-9.1,10.7-15.8
										C168.1,354.8,169,362.6,166.7,369.5z"/>
								</g>
							</g>
						</mask>
						
							<linearGradient id="SVGID_00000060022059376068615060000001045648853792280486_" gradientUnits="userSpaceOnUse" x1="155.9071" y1="594.5852" x2="155.3606" y2="547.2429" gradientTransform="matrix(1 0 0 -1 0 976)">
							<stop  offset="0" style="stop-color:#FFFFFF"/>
							<stop  offset="1" style="stop-color:#000000"/>
						</linearGradient>
						
							<path style="clip-path:url(#SVGID_00000059277206630749441550000000934444585146389928_);mask:url(#SVGID_00000045584335857846615510000014242279625349238428_);fill:url(#SVGID_00000060022059376068615060000001045648853792280486_);" d="
							M199.4,338.5c-5.6-9.2-12.2-19.3-22.8-21.8c-7.3-1.7-15.2,0.7-22.4-1.4c-7.1-2-12.7-8.7-13.4-16c-0.7-6.9,3-14,9-17.6
							c-8.5,4.7-16.9,10.3-21.8,18.7c-5.1,8.7-4.9,21.2,2.8,27.7c3.5,2.9,8.4,4.7,10.1,8.9c1.9,4.5-0.8,9.6-4.2,13
							c-9,9.1-23.7,12.9-29.2,24.4c-4.2,8.8-1.5,19.4,3.3,27.8c4.8,8.5,11.6,15.7,16.2,24.3l0.3-0.1c12.9,2,26.1,2.3,39,0.8
							c-2.2-9.6,1.2-19.7,6.9-27.7c5.6-8,13.3-14.4,20.7-20.9c5.6-4.9,11.3-10.5,12.5-17.9C207.7,352.7,203.4,345.2,199.4,338.5z
							 M166.7,369.5c-1.8,5.5-5.5,10.2-9.3,14.6c-3.8,4.4-7.8,8.7-10.6,13.8c-2.8,5.1-4.2,11.2-2.5,16.8l-0.8-1.7
							c-3.1-5.7-6.2-11.4-7.7-17.7c-1.5-6.3-1.1-13.3,2.4-18.7c3.6-5.6,9.9-8.7,15.4-12.4c5.5-3.7,10.9-9.1,10.7-15.8
							C168.1,354.8,169,362.6,166.7,369.5z"/>
					</g>
				</g>
				
					<linearGradient id="SVGID_00000067199409198084053050000009218983724822308009_" gradientUnits="userSpaceOnUse" x1="155.9071" y1="594.5852" x2="155.3606" y2="547.2429" gradientTransform="matrix(1 0 0 -1 0 976)">
					<stop  offset="0" style="stop-color:#FFFFFF"/>
					<stop  offset="1" style="stop-color:#FFFFFF"/>
				</linearGradient>
				<path style="fill:url(#SVGID_00000067199409198084053050000009218983724822308009_);" d="M199.4,338.5
					c-5.6-9.2-12.2-19.3-22.8-21.8c-7.3-1.7-15.2,0.7-22.4-1.4c-7.1-2-12.7-8.7-13.4-16c-0.7-6.9,3-14,9-17.6
					c-8.5,4.7-16.9,10.3-21.8,18.7c-5.1,8.7-4.9,21.2,2.8,27.7c3.5,2.9,8.4,4.7,10.1,8.9c1.9,4.5-0.8,9.6-4.2,13
					c-9,9.1-23.7,12.9-29.2,24.4c-4.2,8.8-1.5,19.4,3.3,27.8c4.8,8.5,11.6,15.7,16.2,24.3l0.3-0.1c12.9,2,26.1,2.3,39,0.8
					c-2.2-9.6,1.2-19.7,6.9-27.7c5.6-8,13.3-14.4,20.7-20.9c5.6-4.9,11.3-10.5,12.5-17.9C207.7,352.7,203.4,345.2,199.4,338.5z
					 M166.7,369.5c-1.8,5.5-5.5,10.2-9.3,14.6c-3.8,4.4-7.8,8.7-10.6,13.8c-2.8,5.1-4.2,11.2-2.5,16.8l-0.8-1.7
					c-3.1-5.7-6.2-11.4-7.7-17.7c-1.5-6.3-1.1-13.3,2.4-18.7c3.6-5.6,9.9-8.7,15.4-12.4c5.5-3.7,10.9-9.1,10.7-15.8
					C168.1,354.8,169,362.6,166.7,369.5z"/>
				<g class="st2">
					<g>
						<path class="st3" d="M199.3,486.9v45.2c-22.4,29.1-81.8,27.3-102,0V428c5.2,3.1,10.8,5.3,16.7,6.4l-2.7,2.6
							c-0.3,6.5-0.6,12.9-0.9,19.4c-0.7,15.3-1.2,31.7,6.3,44.8c7.5,13.1,22.3,20.2,36.5,19.3c14.2-0.8,27.5-8.9,37.1-20.3
							C193.7,496.1,196.7,491.6,199.3,486.9z"/>
					</g>
				</g>
			</g>
		</g>
		<g>
			<path class="st4" d="M122.7,457.8h4.6c3.6,0,5.4,2.2,5.4,6.7c0,1.7-0.2,3-0.7,3.8s-1.3,1.5-2.5,1.9c1.4,0.5,2.3,1.2,2.8,2.1
				c0.5,0.8,0.8,2.1,0.8,3.8c0,4.6-2,7-5.9,7h-4.4C122.7,483,122.7,457.8,122.7,457.8z M125.9,468.9c1.3,0,2.2-0.3,2.8-0.9
				c0.5-0.6,0.8-1.8,0.8-3.4c0-2.7-1-4.1-2.9-4.1h-0.3h-0.2c-0.1,0-0.1,0-0.2,0L125.9,468.9L125.9,468.9z M125.9,480.1
				c1.4,0,2.4-0.3,2.9-0.9s0.8-1.7,0.8-3.2c0-1.6-0.3-2.7-0.8-3.4c-0.5-0.6-1.5-1-2.9-1V480.1z"/>
			<path class="st4" d="M136.5,457.8h9v2.9h-5.6v8h5v2.9h-5v8.6h5.6v2.9h-9V457.8z"/>
			<path class="st4" d="M157.1,458.3v3.3c-1-0.7-2-1.1-2.8-1.1c-0.9,0-1.6,0.3-2.2,1c-0.6,0.6-0.9,1.4-0.9,2.4
				c0,0.9,0.2,1.6,0.6,2.3c0.2,0.3,0.6,0.8,1,1.3c0.5,0.5,1.1,1.2,1.8,1.9c1.4,1.4,2.3,2.6,2.8,3.6c0.5,1,0.8,2.2,0.8,3.6
				c0,2-0.6,3.6-1.6,4.8c-1.1,1.2-2.5,1.9-4.2,1.9c-1.4,0-2.7-0.4-3.7-1.2v-3.4c1.2,0.9,2.3,1.3,3.3,1.3c0.9,0,1.6-0.3,2.2-0.9
				s0.8-1.5,0.8-2.5c0-0.9-0.2-1.7-0.6-2.5c-0.2-0.4-0.5-0.8-0.9-1.2s-0.8-1-1.4-1.5c-0.9-0.9-1.6-1.6-2.1-2.2s-1-1.2-1.3-1.7
				c-0.5-1-0.8-2.2-0.8-3.6c0-2,0.5-3.5,1.5-4.7c1-1.2,2.4-1.8,4.2-1.8C154.8,457.5,156,457.8,157.1,458.3z"/>
			<path class="st4" d="M159.6,457.8h11.1v3h-3.8V483h-3.3v-22.3h-3.9V457.8z"/>
			<path class="st4" d="M122.7,488h4.6c3.6,0,5.4,2.2,5.4,6.7c0,1.7-0.2,3-0.7,3.8s-1.3,1.5-2.5,1.9c1.4,0.5,2.3,1.2,2.8,2.1
				c0.5,0.8,0.8,2.1,0.8,3.8c0,4.6-2,7-5.9,7h-4.4C122.7,513.3,122.7,488,122.7,488z M125.9,499.1c1.3,0,2.2-0.3,2.8-0.9
				c0.5-0.6,0.8-1.8,0.8-3.4c0-2.7-1-4.1-2.9-4.1h-0.3h-0.2c-0.1,0-0.1,0-0.2,0L125.9,499.1L125.9,499.1z M125.9,510.4
				c1.4,0,2.4-0.3,2.9-0.9s0.8-1.7,0.8-3.2c0-1.6-0.3-2.7-0.8-3.4c-0.5-0.6-1.5-1-2.9-1V510.4z"/>
			<path class="st4" d="M149.1,501.3c0,4.5-0.5,7.6-1.5,9.5c-1,1.9-2.6,2.8-5,2.8c-2.4,0-4.2-1-5.2-3c-1-2-1.5-5.5-1.5-10.5
				c0-4.5,0.5-7.7,1.5-9.5c1-1.9,2.7-2.8,5-2.8c2.1,0,3.7,0.7,4.7,2.2c0.7,1,1.2,2.4,1.5,4.1C148.9,495.7,149.1,498.1,149.1,501.3z
				 M145.5,501.6c0-4.4-0.2-7.3-0.6-8.7c-0.4-1.4-1.2-2.2-2.4-2.2c-1.2,0-2,0.7-2.4,2c-0.4,1.3-0.6,4-0.6,8c0,3.7,0.2,6.2,0.6,7.7
				c0.4,1.4,1.2,2,2.4,2c1.1,0,1.9-0.6,2.4-1.9C145.3,507.3,145.5,505,145.5,501.6z"/>
			<path class="st4" d="M160.8,488.6v3.3c-1-0.7-2-1.1-2.8-1.1c-0.9,0-1.6,0.3-2.2,1c-0.6,0.6-0.9,1.4-0.9,2.4
				c0,0.9,0.2,1.6,0.6,2.3c0.2,0.3,0.6,0.8,1,1.3c0.5,0.5,1.1,1.2,1.8,1.9c1.4,1.4,2.3,2.6,2.8,3.6c0.5,1,0.8,2.2,0.8,3.6
				c0,2-0.6,3.6-1.6,4.8c-1.1,1.2-2.5,1.8-4.2,1.8c-1.4,0-2.7-0.4-3.7-1.2V509c1.2,0.9,2.3,1.3,3.3,1.3c0.9,0,1.6-0.3,2.2-0.9
				s0.8-1.5,0.8-2.5c0-0.9-0.2-1.7-0.6-2.5c-0.2-0.4-0.5-0.8-0.9-1.2s-0.8-1-1.4-1.5c-0.9-0.9-1.6-1.6-2.1-2.2s-1-1.2-1.3-1.7
				c-0.5-1-0.8-2.2-0.8-3.6c0-2,0.5-3.5,1.5-4.7c1-1.2,2.4-1.8,4.2-1.8C158.6,487.7,159.7,488,160.8,488.6z"/>
			<path class="st4" d="M173.3,488.6v3.3c-1-0.7-2-1.1-2.8-1.1c-0.9,0-1.6,0.3-2.2,1c-0.6,0.6-0.9,1.4-0.9,2.4
				c0,0.9,0.2,1.6,0.6,2.3c0.2,0.3,0.6,0.8,1,1.3c0.5,0.5,1.1,1.2,1.8,1.9c1.4,1.4,2.3,2.6,2.8,3.6c0.5,1,0.8,2.2,0.8,3.6
				c0,2-0.6,3.6-1.6,4.8c-1.1,1.2-2.5,1.8-4.2,1.8c-1.4,0-2.7-0.4-3.7-1.2V509c1.2,0.9,2.3,1.3,3.3,1.3c0.9,0,1.6-0.3,2.2-0.9
				s0.8-1.5,0.8-2.5c0-0.9-0.2-1.7-0.6-2.5c-0.2-0.4-0.5-0.8-0.9-1.2s-0.8-1-1.4-1.5c-0.9-0.9-1.6-1.6-2.1-2.2
				c-0.6-0.6-1-1.2-1.3-1.7c-0.5-1-0.8-2.2-0.8-3.6c0-2,0.5-3.5,1.5-4.7c1-1.2,2.4-1.8,4.2-1.8C171.1,487.7,172.2,488,173.3,488.6z"
				/>
			<path class="st4" d="M122.7,518.3h9v2.9h-5.6v8h5v2.9h-5v8.6h5.6v2.9h-9V518.3z"/>
			<path class="st4" d="M132.9,518.3h3.4l1.5,9.3l0.3,1.7l0.5,3.7c0.1,0.6,0.2,1.2,0.2,1.7s0.1,1,0.2,1.4l0.2,1.2
				c0-0.2,0.1-0.5,0.1-0.7s0-0.4,0.1-0.5l0.4-2.9l0.6-3.8c0.1-0.3,0.1-0.7,0.2-1s0.1-0.6,0.1-0.8l1.6-9.3h3.2l-4.9,25.2h-2.7
				L132.9,518.3z"/>
			<path class="st4" d="M147.3,518.3h9v2.9h-5.6v8h5v2.9h-5v8.6h5.6v2.9h-9V518.3z"/>
			<path class="st4" d="M159.4,518.3h4.5c1.9,0,3.2,0.4,4.1,1.3c1.1,1.1,1.7,2.9,1.7,5.2c0,1.8-0.3,3.3-0.9,4.4s-1.5,1.8-2.6,2
				l4.6,12.3h-3.4l-4.6-12.3v12.3h-3.4L159.4,518.3L159.4,518.3z M162.8,529.4c1.3,0,2.2-0.3,2.8-0.9s0.8-1.6,0.8-3.1
				c0-0.8-0.1-1.5-0.2-2s-0.3-1-0.5-1.4c-0.2-0.3-0.6-0.6-0.9-0.8c-0.4-0.2-0.9-0.2-1.4-0.2h-0.6V529.4z"/>
		</g>
		<g>
			
				<linearGradient id="SVGID_00000055688055238944351240000005365217890281823377_" gradientUnits="userSpaceOnUse" x1="812.2188" y1="414.025" x2="825.119" y2="414.025" gradientTransform="matrix(1 0 0 -1 0 976)">
				<stop  offset="0" style="stop-color:#020203"/>
				<stop  offset="1" style="stop-color:#FFFFFF"/>
			</linearGradient>
			
				<path style="opacity:0.44;fill:url(#SVGID_00000055688055238944351240000005365217890281823377_);enable-background:new    ;" d="
				M824.3,556.8h-11.2v10.4l0,0l0,0c1.2-4.7,5.9-7.5,10.5-6.3l0.3,0.1l0.4,0.1V556.8z"/>
			<path class="st29" d="M824.3,570.9C824.3,570.9,824.3,570.9,824.3,570.9v-14.2h-11.2v13.9c0,0.1,0,0.2,0,0.2c0,0.1,0,0.2,0,0.2
				v5.4h5.8v0C821.8,576.4,824.3,574,824.3,570.9z"/>
			
				<linearGradient id="SVGID_00000059302846555121539330000003661332721553868946_" gradientUnits="userSpaceOnUse" x1="812.2188" y1="413.455" x2="825.119" y2="413.455" gradientTransform="matrix(1 0 0 -1 0 976)">
				<stop  offset="0" style="stop-color:#020203"/>
				<stop  offset="1" style="stop-color:#FFFFFF"/>
			</linearGradient>
			
				<path style="opacity:0.44;fill:url(#SVGID_00000059302846555121539330000003661332721553868946_);enable-background:new    ;" d="
				M824.3,557.3h-11.2v10.4l0,0l0,0c1.2-4.7,5.9-7.5,10.5-6.3l0.3,0.1l0.4,0.1V557.3z"/>
			<path class="st31" d="M830.7,523.3h-8.9c-4.8,0-8.7,3.9-8.7,8.7v14.4v12.1v8.7l0,0c0-4.8,3.9-8.7,8.7-8.7h0.3h8.7
				c9.7,0,17.6-7.9,17.6-17.6l0,0C848.3,531.2,840.4,523.3,830.7,523.3z M830.7,547.3h-6.4v-12.9h6.4c3.5,0,6.4,2.9,6.4,6.4
				C837.1,544.4,834.2,547.3,830.7,547.3z"/>
		</g>
	</g>
</g>
<g id="Copos">
	<g id="Blanco">
		<defs>
			<rect id="SVGID_00000015354152093066056590000004974454950654354070_" x="809.5" y="42.8" width="11" height="11"/>
		</defs>
		<clipPath id="SVGID_00000173144739087166374660000003356476689902326938_">
			<use xlink:href="#SVGID_00000015354152093066056590000004974454950654354070_"  style="overflow:visible;"/>
		</clipPath>
		
			<g id="Grupo_2499" transform="translate(0 0)" style="clip-path:url(#SVGID_00000173144739087166374660000003356476689902326938_);">
			<path id="Trazado_149003" class="st4" d="M820.6,48.3c0,0.5-0.4,0.9-0.9,1c-1.8,0.3-3.3,1.7-3.6,3.6c-0.1,0.5-0.5,0.9-1.1,0.9
				c-0.5,0-1-0.3-1.1-0.8c-0.3-1.9-1.8-3.3-3.6-3.6c-0.5-0.1-0.9-0.5-0.8-1c0,0,0-0.1,0-0.1c0.1-0.4,0.4-0.8,0.8-1
				c1.9-0.4,3.3-1.8,3.7-3.7c0.2-0.4,0.6-0.7,1-0.8c0.5-0.1,1,0.3,1.1,0.8c0,0,0,0,0,0.1c0.3,1.8,1.8,3.3,3.6,3.6
				C820.2,47.4,820.6,47.8,820.6,48.3 M815,49.6l1.3-1.2l-1.3-1.4l-1.4,1.3C814.1,48.7,814.6,49.2,815,49.6"/>
		</g>
	</g>
	<g id="Blanco_00000085239183562828612920000016248493964740175292_">
		<defs>
			<rect id="SVGID_00000034089316063661688150000003915801711290302357_" x="256.6" y="266.7" width="11" height="11"/>
		</defs>
		<clipPath id="SVGID_00000173139845909025860870000003432120988234208658_">
			<use xlink:href="#SVGID_00000034089316063661688150000003915801711290302357_"  style="overflow:visible;"/>
		</clipPath>
		
			<g id="Grupo_2499_00000160155852323500777190000007745192443365539969_" transform="translate(0 0)" style="clip-path:url(#SVGID_00000173139845909025860870000003432120988234208658_);">
			<path id="Trazado_149003_00000093881767250534604740000007111444740053162421_" class="st4" d="M267.6,272.2c0,0.5-0.4,0.9-0.9,1
				c-1.8,0.3-3.3,1.7-3.6,3.6c-0.1,0.5-0.5,0.9-1.1,0.9c-0.5,0-1-0.3-1.1-0.8c-0.3-1.9-1.8-3.3-3.6-3.6c-0.5-0.1-0.9-0.5-0.8-1
				c0,0,0-0.1,0-0.1c0.1-0.4,0.4-0.8,0.8-1c1.9-0.4,3.3-1.8,3.7-3.7c0.2-0.4,0.6-0.7,1-0.8c0.5-0.1,1,0.3,1.1,0.8c0,0,0,0,0,0.1
				c0.3,1.8,1.8,3.3,3.6,3.6C267.3,271.2,267.6,271.7,267.6,272.2 M262.1,273.5l1.3-1.2l-1.3-1.4l-1.4,1.3
				C261.2,272.6,261.7,273.1,262.1,273.5"/>
		</g>
	</g>
	<g id="Blanco_00000038396518204859726740000014229936914889447043_">
		<defs>
			<rect id="SVGID_00000042697139097485382150000015238715893660894858_" x="768.3" y="409.8" width="11" height="11"/>
		</defs>
		<clipPath id="SVGID_00000020374488300119709660000009838756922131190161_">
			<use xlink:href="#SVGID_00000042697139097485382150000015238715893660894858_"  style="overflow:visible;"/>
		</clipPath>
		
			<g id="Grupo_2499_00000103223546849035255980000000698617705361241508_" transform="translate(0 0)" style="clip-path:url(#SVGID_00000020374488300119709660000009838756922131190161_);">
			<path id="Trazado_149003_00000173160751554042149690000017106374101128480926_" class="st4" d="M779.3,415.3c0,0.5-0.4,0.9-0.9,1
				c-1.8,0.3-3.3,1.7-3.6,3.6c-0.1,0.5-0.5,0.9-1.1,0.9c-0.5,0-1-0.3-1.1-0.8c-0.3-1.9-1.8-3.3-3.6-3.6c-0.5-0.1-0.9-0.5-0.8-1
				c0,0,0-0.1,0-0.1c0.1-0.4,0.4-0.8,0.8-1c1.9-0.4,3.3-1.8,3.7-3.7c0.2-0.4,0.6-0.7,1-0.8c0.5-0.1,1,0.3,1.1,0.8c0,0,0,0,0,0.1
				c0.3,1.8,1.8,3.3,3.6,3.6C779,414.4,779.4,414.8,779.3,415.3 M773.8,416.6l1.3-1.2l-1.3-1.4l-1.4,1.3
				C772.9,415.8,773.4,416.2,773.8,416.6"/>
		</g>
	</g>
	<g id="Blanco_00000052813553539290873550000005377954798455139216_">
		<defs>
			<rect id="SVGID_00000171702133071631121800000018212947135226262915_" x="876.8" y="738.8" width="11" height="11"/>
		</defs>
		<clipPath id="SVGID_00000043421752652205754190000010684140544167857838_">
			<use xlink:href="#SVGID_00000171702133071631121800000018212947135226262915_"  style="overflow:visible;"/>
		</clipPath>
		
			<g id="Grupo_2499_00000164490549405311140050000002110849311591245704_" transform="translate(0 0)" style="clip-path:url(#SVGID_00000043421752652205754190000010684140544167857838_);">
			<path id="Trazado_149003_00000064348050387138785410000017015532760892051369_" class="st4" d="M887.9,744.3c0,0.5-0.4,0.9-0.9,1
				c-1.8,0.3-3.3,1.7-3.6,3.6c-0.1,0.5-0.5,0.9-1.1,0.9c-0.5,0-1-0.3-1.1-0.8c-0.3-1.9-1.8-3.3-3.6-3.6c-0.5-0.1-0.9-0.5-0.8-1
				c0,0,0-0.1,0-0.1c0.1-0.4,0.4-0.8,0.8-1c1.9-0.4,3.3-1.8,3.7-3.7c0.2-0.4,0.6-0.7,1-0.8c0.5-0.1,1,0.3,1.1,0.8c0,0,0,0,0,0.1
				c0.3,1.8,1.8,3.3,3.6,3.6C887.5,743.4,887.9,743.8,887.9,744.3 M882.3,745.6l1.3-1.2l-1.3-1.4l-1.4,1.3
				C881.4,744.8,881.9,745.2,882.3,745.6"/>
		</g>
	</g>
	<g id="Blanco_00000033333473997449936800000013286201227356877453_">
		<defs>
			<rect id="SVGID_00000129187918569822468300000016041433653314201761_" x="232.6" y="653.8" width="11" height="11"/>
		</defs>
		<clipPath id="SVGID_00000047039261491472379030000012324954653424932244_">
			<use xlink:href="#SVGID_00000129187918569822468300000016041433653314201761_"  style="overflow:visible;"/>
		</clipPath>
		
			<g id="Grupo_2499_00000173840883356022669620000014441387713253596325_" transform="translate(0 0)" style="clip-path:url(#SVGID_00000047039261491472379030000012324954653424932244_);">
			<path id="Trazado_149003_00000130644633083421254340000007645640980324216246_" class="st4" d="M243.6,659.4c0,0.5-0.4,0.9-0.9,1
				c-1.8,0.3-3.3,1.7-3.6,3.6c-0.1,0.5-0.5,0.9-1.1,0.9c-0.5,0-1-0.3-1.1-0.8c-0.3-1.9-1.8-3.3-3.6-3.6c-0.5-0.1-0.9-0.5-0.8-1
				c0,0,0-0.1,0-0.1c0.1-0.4,0.4-0.8,0.8-1c1.9-0.4,3.3-1.8,3.7-3.7c0.2-0.4,0.6-0.7,1-0.8c0.5-0.1,1,0.3,1.1,0.8c0,0,0,0,0,0.1
				c0.3,1.8,1.8,3.3,3.6,3.6C243.2,658.4,243.6,658.8,243.6,659.4 M238,660.6l1.3-1.2l-1.3-1.4l-1.4,1.3
				C237.2,659.8,237.6,660.2,238,660.6"/>
		</g>
	</g>
</g>
</svg>
