<?xml version="1.0" encoding="utf-8"?>
<!-- Generator: Adobe Illustrator 28.2.0, SVG Export Plug-In . SVG Version: 6.00 Build 0)  -->
<svg version="1.1" id="LETRA" xmlns="http://www.w3.org/2000/svg" xmlns:xlink="http://www.w3.org/1999/xlink" x="0px" y="0px"
	 viewBox="0 0 976 252.63" style="enable-background:new 0 0 976 252.63;" xml:space="preserve">
<style type="text/css">
	.st0{fill:#080809;}
</style>
<path class="st0" d="M182.13,49.02h31.49v145.14h-31.49V49.02z M282.19,89.03c3.74-4.1,8.16-7.26,13.26-9.49
	c5.1-2.23,10.67-3.34,16.71-3.34c8.77,0,16.03,1.83,21.78,5.5c5.75,3.67,10.42,8.66,14.02,14.99l25.66-14.45
	c-3.45-7.62-8.3-14.09-14.56-19.41c-6.25-5.32-13.34-9.41-21.24-12.29c-7.91-2.87-16.03-4.31-24.37-4.31
	c-10.64,0-20.49,1.94-29.55,5.82c-9.06,3.88-17.04,9.27-23.94,16.17c-6.9,6.9-12.26,14.88-16.07,23.94
	c-3.81,9.06-5.72,18.91-5.72,29.54c0,10.5,1.9,20.31,5.72,29.44c3.81,9.13,9.16,17.15,16.07,24.05c6.9,6.9,14.88,12.29,23.94,16.18
	c9.06,3.88,18.9,5.82,29.55,5.82c8.34,0,16.46-1.44,24.37-4.31c7.91-2.87,14.99-6.97,21.24-12.29c6.25-5.32,11.11-11.79,14.56-19.41
	l-25.66-14.45c-3.45,6.18-8.09,11.14-13.91,14.88c-5.82,3.74-13.12,5.61-21.89,5.61c-6.04,0-11.65-1.11-16.82-3.34
	c-5.18-2.23-9.6-5.39-13.26-9.49c-3.67-4.1-6.51-8.95-8.52-14.56c-2.02-5.61-3.02-11.65-3.02-18.12c0-6.61,1-12.69,3.02-18.22
	C275.57,97.95,278.44,93.13,282.19,89.03z M149.82,73.18c5.39,7.76,8.09,17.33,8.09,28.68c0,11.64-2.62,21.46-7.87,29.44
	c-5.25,7.98-12.69,14.06-22.32,18.22c-9.64,4.17-21.14,6.25-34.51,6.25H71.86v38.17l-31.49,0.21V49.02h51.11
	c13.8,0,25.63,2.09,35.48,6.26C136.81,59.45,144.43,65.41,149.82,73.18z M125.56,101.86c0-5.32-1.33-9.74-3.99-13.26
	c-2.66-3.52-6.47-6.15-11.43-7.87c-4.96-1.72-10.89-2.59-17.79-2.59H71.86v48.52h20.49c7.04,0,13.01-0.9,17.9-2.7
	c4.89-1.8,8.66-4.53,11.32-8.2C124.23,112.1,125.56,107.47,125.56,101.86z M912.14,49.02v58.45h-66.21V49.02h-31.49v145.14h31.49
	v-57.8h66.21v57.8h31.48V49.02H912.14z M631.44,165.48l14.02,28.68h-34.07l-12.94-25.88c-2.16-4.46-4.46-8.2-6.9-11.21
	c-2.45-3.02-5.43-5.32-8.95-6.9c-3.52-1.58-8.02-2.37-13.48-2.37h-12.34l-0.17,46.37h-31.06V49.02h55.86
	c10.92,0,20.77,1.69,29.55,5.07c8.77,3.38,15.71,8.49,20.81,15.31c5.1,6.83,7.66,15.42,7.66,25.77c0,8.2-1.83,15.42-5.5,21.67
	c-3.67,6.25-8.73,11.18-15.2,14.77c-2.94,1.63-6.16,2.84-9.6,3.73c4.32,2.44,8.08,5.86,11.21,10.39
	C623.85,150.85,627.55,157.43,631.44,165.48z M594.67,117.28c3.81-1.65,6.83-4.1,9.06-7.33c2.23-3.24,3.34-7.08,3.34-11.54
	c0-4.89-1.12-8.81-3.34-11.75c-2.23-2.95-5.25-5.1-9.06-6.47c-3.81-1.36-8.09-2.05-12.83-2.05h-24.8l-0.15,41.62h24.53
	C586.43,119.76,590.85,118.94,594.67,117.28z M700.58,89.03c3.74-4.1,8.16-7.26,13.26-9.49c5.1-2.23,10.67-3.34,16.71-3.34
	c8.77,0,16.03,1.83,21.78,5.5c5.75,3.67,10.42,8.66,14.02,14.99l25.66-14.45c-3.45-7.62-8.3-14.09-14.56-19.41
	c-6.25-5.32-13.34-9.41-21.24-12.29c-7.91-2.87-16.03-4.31-24.37-4.31c-10.64,0-20.49,1.94-29.55,5.82
	c-9.06,3.88-17.04,9.27-23.94,16.17c-6.9,6.9-12.26,14.88-16.07,23.94c-3.81,9.06-5.72,18.91-5.72,29.54
	c0,10.5,1.9,20.31,5.72,29.44c3.81,9.13,9.17,17.15,16.07,24.05c6.9,6.9,14.88,12.29,23.94,16.18c9.06,3.88,18.9,5.82,29.55,5.82
	c8.34,0,16.46-1.44,24.37-4.31c7.91-2.87,14.99-6.97,21.24-12.29c6.25-5.32,11.11-11.79,14.56-19.41l-25.66-14.45
	c-3.45,6.18-8.09,11.14-13.91,14.88c-5.82,3.74-13.12,5.61-21.89,5.61c-6.04,0-11.65-1.11-16.82-3.34
	c-5.18-2.23-9.6-5.39-13.26-9.49c-3.67-4.1-6.51-8.95-8.52-14.56c-2.02-5.61-3.02-11.65-3.02-18.12c0-6.61,1-12.69,3.02-18.22
	C693.96,97.95,696.84,93.13,700.58,89.03z M488.1,118.68c-4.96-3.16-10.35-5.57-16.18-7.22c-5.82-1.65-11.47-2.98-16.93-3.99
	c-5.18-1-9.89-2.08-14.13-3.23c-4.24-1.15-7.58-2.84-10.03-5.07c-2.45-2.23-3.67-5.28-3.67-9.16c0-3.02,0.86-5.61,2.59-7.77
	c1.73-2.16,4.1-3.81,7.12-4.96c3.02-1.15,6.47-1.73,10.35-1.73c7.33,0,13.41,1.44,18.22,4.31c4.81,2.88,8.37,6.69,10.67,11.43
	l26.31-13.15c-4.6-10.35-11.72-18.22-21.35-23.62c-9.64-5.39-20.49-8.09-32.57-8.09c-9.92,0-18.91,1.98-26.96,5.93
	c-8.05,3.96-14.38,9.27-18.98,15.96c-4.6,6.69-6.9,14.34-6.9,22.97c0,8.05,1.58,14.77,4.74,20.17c3.16,5.39,7.37,9.67,12.62,12.83
	c5.25,3.16,10.85,5.57,16.82,7.23c5.96,1.65,11.68,2.99,17.15,3.99c5.03,0.86,9.56,1.8,13.59,2.8c4.02,1.01,7.19,2.55,9.49,4.64
	c2.3,2.09,3.45,5.14,3.45,9.16c0,3.45-1.08,6.36-3.23,8.74c-2.16,2.37-5,4.17-8.52,5.39c-3.52,1.22-7.59,1.83-12.19,1.83
	c-7.48,0-13.77-1.37-18.87-4.1c-5.11-2.73-8.81-6.69-11.11-11.86l-26.31,13.16c4.6,10.35,11.9,18.22,21.89,23.62
	c9.99,5.39,21.46,8.09,34.4,8.09c10.35,0,19.7-1.94,28.04-5.82c8.34-3.88,14.99-9.24,19.95-16.07c4.96-6.83,7.44-14.56,7.44-23.18
	c0-8.34-1.58-15.17-4.75-20.49C497.12,126.09,493.06,121.85,488.1,118.68z"/>
</svg>
