<?xml version="1.0" encoding="utf-8"?>
<svg version="1.1" id="Capa_1" xmlns="http://www.w3.org/2000/svg" xmlns:xlink="http://www.w3.org/1999/xlink" x="0px" y="0px"
	 viewBox="0 0 1920 5329" style="enable-background:new 0 0 1920 5329;" xml:space="preserve">
<style type="text/css">
	.st0{clip-path:url(#SVGID_00000164493844893800536780000016193990933028450493_);}
	.st1{fill:#FFFFFF;}
	.st2{clip-path:url(#SVGID_00000045611022407367068370000000528419919537255052_);}
	.st3{clip-path:url(#SVGID_00000168092022916814416450000007009746762713288618_);}
	.st4{clip-path:url(#SVGID_00000027578021141383586780000016807874734815808642_);}
</style>
<g id="MOVING_FORWARD">
	<g id="Grupo_1673" transform="translate(572.538 3757)">
		<g>
			<g>
				<g>
					<g>
						<defs>
							<rect id="SVGID_1_" x="0" y="-1209" width="884.5" height="519.5"/>
						</defs>
						<clipPath id="SVGID_00000000186128115174641940000017228386199936963459_">
							<use xlink:href="#SVGID_1_"  style="overflow:visible;"/>
						</clipPath>
						<g id="Grupo_1673-2" style="clip-path:url(#SVGID_00000000186128115174641940000017228386199936963459_);">
							<path id="Trazado_143938" class="st1" d="M706.8-689.5l-8.9-15.6l158.9-90.4c9.2-5.2,12.4-16.9,7.2-26.2
								c-1.7-3-4.1-5.4-7.1-7.1L583.6-987.1c-18-10.4-40.2-10.5-58.3-0.2l-60.8,34.6c-15.1,8.6-33.7,8.5-48.7-0.2L0-1193.5l9-15.5
								l415.6,240.5c9.6,5.5,21.3,5.5,30.9,0.1l60.8-34.6c23.7-13.4,52.6-13.3,76.2,0.3L866-844.3c17.7,10.3,23.8,33,13.5,50.7
								c-3.3,5.7-8,10.4-13.8,13.7L706.8-689.5z"/>
						</g>
					</g>
				</g>
			</g>
		</g>
	</g>
	<path id="Trazado_143941" class="st1" d="M1006.3,2264l-403.5,230.4l9.3,16.4L1025,2275L1006.3,2264z"/>
	<g id="Grupo_1678" transform="translate(559.171 4256.787)">
		<g>
			<g>
				<g>
					<g>
						<defs>
							<rect id="SVGID_00000129189806064601073040000012104125246952909456_" x="0" y="-1209" width="758.2" height="910.6"/>
						</defs>
						<clipPath id="SVGID_00000123405114797190114630000015891137650894251426_">
							<use xlink:href="#SVGID_00000129189806064601073040000012104125246952909456_"  style="overflow:visible;"/>
						</clipPath>
						<g id="Grupo_1677" style="clip-path:url(#SVGID_00000123405114797190114630000015891137650894251426_);">
							<path id="Trazado_143942" class="st1" d="M748.7-298.4L26.6-715.2C1.2-729.9-7.6-762.4,7.1-787.8
								c4.7-8.2,11.5-14.9,19.7-19.6L731-1209l9.4,16.6L36.2-790.8c-16.3,9.3-22,30.1-12.7,46.4c3,5.2,7.3,9.6,12.6,12.6L758.2-315
								L748.7-298.4z"/>
						</g>
					</g>
				</g>
			</g>
		</g>
	</g>
	<g id="Grupo_1684" transform="translate(610.343 5249.688)">
		<g>
			<g>
				<g>
					<g>
						<defs>
							<rect id="SVGID_00000015338088683665440590000006963488389659444155_" x="0" y="-1209" width="699.3" height="727.7"/>
						</defs>
						<clipPath id="SVGID_00000038391588473809851510000013119364726184800384_">
							<use xlink:href="#SVGID_00000015338088683665440590000006963488389659444155_"  style="overflow:visible;"/>
						</clipPath>
						<g id="Grupo_1684-2" style="clip-path:url(#SVGID_00000038391588473809851510000013119364726184800384_);">
							<path id="Trazado_144272" class="st1" d="M17-481.3l-17-9.9l189.5-110c23.7-13.6,31.8-43.8,18.2-67.4
								c-4.3-7.5-10.6-13.8-18.1-18.2L55.9-763.9c-22.9-13.2-30.7-42.5-17.5-65.4c4.2-7.4,10.4-13.4,17.7-17.7l634.7-362l8.5,14.9
								l-634.7,362c-14.7,8.4-19.8,27.1-11.4,41.9c2.7,4.7,6.6,8.6,11.3,11.4l133.7,77.1c31.8,18.4,42.8,59.1,24.4,90.9
								c-5.9,10.2-14.3,18.6-24.5,24.4L17-481.3z"/>
						</g>
					</g>
				</g>
			</g>
		</g>
	</g>
	<g id="Grupo_7713" transform="translate(602.864 1813.505)">
		<g>
			<g>
				<g>
					<g>
						<defs>
							<rect id="SVGID_00000103234856956013638990000001206099485468892299_" x="0" y="-1209" width="846.6" height="1114.6"/>
						</defs>
						<clipPath id="SVGID_00000136369867584967648290000000895641102731591838_">
							<use xlink:href="#SVGID_00000103234856956013638990000001206099485468892299_"  style="overflow:visible;"/>
						</clipPath>
						<g id="Grupo_7713-2" style="clip-path:url(#SVGID_00000136369867584967648290000000895641102731591838_);">
							<path id="Trazado_171024" class="st1" d="M6.5-102.8L6.5-102.8c-2.6-4.6-1-10.5,3.6-13.2l461.1-263
								c11.5-6.6,15.5-21.2,9-32.8c-2.1-3.7-5.1-6.7-8.8-8.8l-128.4-75c-20.7-12.1-27.6-38.6-15.6-59.3c3.8-6.6,9.4-12,16-15.8
								L815.2-839c11.5-6.6,15.6-21.2,9-32.8c-2.1-3.7-5.1-6.8-8.8-8.9l-290.8-168.7c-7.4-4.3-16.6-4.3-24-0.1l-101.1,57.9
								c-13.4,7.7-29.9,7.6-43.3-0.1L14.4-1189.3c-4.6-2.7-6.2-8.6-3.5-13.2c0.8-1.4,2-2.7,3.5-3.5l0.3-0.2c3-1.8,6.7-1.8,9.7,0
								l341.5,197.8c7.4,4.3,16.6,4.3,24,0.1l101.1-57.9c13.4-7.7,29.9-7.6,43.3,0.1l290.8,168.7c20.7,12,27.7,38.5,15.7,59.2
								c-3.8,6.6-9.4,12.1-15.9,15.9L352.9-553.9c-11.5,6.6-15.6,21.2-9,32.8c2.1,3.7,5.1,6.7,8.8,8.9l128.4,75
								c20.7,12.1,27.6,38.6,15.6,59.3c-3.8,6.6-9.3,12-15.9,15.8L19.7-99.1C15-96.6,9.1-98.2,6.5-102.8L6.5-102.8"/>
						</g>
					</g>
				</g>
			</g>
		</g>
	</g>
</g>
</svg>
