<?xml version="1.0" encoding="utf-8"?>
<!-- Generator: Adobe Illustrator 28.2.0, SVG Export Plug-In . SVG Version: 6.00 Build 0)  -->
<svg version="1.1" id="Capa_1" xmlns="http://www.w3.org/2000/svg" xmlns:xlink="http://www.w3.org/1999/xlink" x="0px" y="0px"
	 viewBox="0 0 976 976" style="enable-background:new 0 0 976 976;" xml:space="preserve">
<style type="text/css">
	.st0{opacity:0.25;}
	.st1{fill:#3C1847;}
	.st2{fill:#E7E7E7;}
	.st3{fill:#FFFFFF;}
	.st4{opacity:0.6;}
	.st5{fill:#9EA2A8;}
	.st6{fill:#0098F6;}
	.st7{opacity:0.7;}
	.st8{fill:#0E1A29;}
	.st9{opacity:0.5;}
	.st10{fill:#D7D7D7;}
	.st11{fill:#250E2F;}
	.st12{fill:#FFE9FC;}
	.st13{fill:#C8C8C8;}
	.st14{fill:#A9A9A9;}
	.st15{fill:#E9D2E1;}
	.st16{fill:#B59AB3;}
	.st17{clip-path:url(#SVGID_00000115472560107991791740000001488033529521190834_);}
	.st18{clip-path:url(#SVGID_00000140695351638498659630000012307065177010280084_);}
	.st19{clip-path:url(#SVGID_00000064314606195464958670000015282610723558103430_);}
	.st20{fill:#92C1C0;}
	.st21{clip-path:url(#SVGID_00000041980925460514124980000000611193033744240018_);}
	.st22{fill:#F39483;}
	.st23{clip-path:url(#SVGID_00000088817487157821742440000005081341659365253765_);}
</style>
<g>
	<g>
		<g class="st0">
			<ellipse class="st1" cx="265.9" cy="745.8" rx="186.6" ry="14.6"/>
		</g>
		<g>
			<g>
				<g>
					<g>
						<path class="st2" d="M532.2,667.2h-28.9c0,0,0-4.4,1.4-5.5c1.1-0.8,1.8-0.7,3.7-1.1c3-0.6,4.7-2,6.1-2.7
							c1.5-0.8,12.5-2.2,12.5-2.2L532.2,667.2z"/>
					</g>
				</g>
			</g>
			<g>
				<g>
					<g>
						<path class="st1" d="M502.2,667.2c0-1.2,0.1-5.1,1.9-6.4c1-0.7,1.8-0.8,2.8-1c0.4-0.1,0.8-0.1,1.3-0.2c2.1-0.4,3.5-1.3,4.7-2
							c0.4-0.2,0.8-0.5,1.2-0.7c1.6-0.8,11-2.1,12.8-2.3c0.5-0.1,1,0.2,1.2,0.7l5.1,11.5c0.2,0.4,0.1,0.8-0.1,1.1
							c-0.2,0.3-0.6,0.5-1,0.5h-28.9C502.7,668.4,502.2,667.9,502.2,667.2z M526.4,657c-5.1,0.7-10.5,1.6-11.3,2
							c-0.3,0.2-0.6,0.4-1,0.6c-1.2,0.7-2.9,1.8-5.4,2.3c-0.6,0.1-1,0.2-1.4,0.2c-0.9,0.1-1.3,0.2-1.9,0.6c-0.4,0.3-0.8,1.9-0.9,3.4
							h25.9L526.4,657z"/>
					</g>
				</g>
			</g>
			<g>
				<g>
					<g>
						<path class="st3" d="M533.9,667.2h-26.7c0,0,1.1-4.4,3.2-5c4-1.1,6.9-1.2,9.1-2.9c3.8-3,7.3-4.2,8.8-3.2
							C531.5,658,533.9,667.2,533.9,667.2z"/>
					</g>
				</g>
				<g>
					<g>
						<path class="st1" d="M506.3,667.9c-0.2-0.3-0.3-0.6-0.2-1c0.2-0.8,1.4-5.1,4-5.9c1.3-0.4,2.6-0.7,3.7-0.9
							c2.1-0.5,3.8-0.8,5-1.8c4.2-3.3,8.1-4.6,10.1-3.3c3.4,2.1,5.8,10.8,6,11.8c0.1,0.3,0,0.7-0.2,1s-0.5,0.4-0.9,0.4h-26.7
							C506.9,668.4,506.6,668.2,506.3,667.9z M527.8,657.1c-0.8-0.5-3.7,0.1-7.5,3.2c-1.6,1.3-3.6,1.7-5.9,2.2
							c-1.1,0.2-2.2,0.5-3.5,0.9c-0.7,0.2-1.5,1.5-2,2.8h23.6C531.3,662.7,529.5,658.1,527.8,657.1z"/>
					</g>
				</g>
			</g>
			<g>
				<g>
					<g>
						<circle class="st2" cx="524.9" cy="662.3" r="2.3"/>
					</g>
				</g>
			</g>
		</g>
		<g>
			<g>
				<g>
					<g>
						<path class="st2" d="M436.2,683.2c0,0,19.7,2.7,21.9,3.5c3.6,1.2,11,12.2,11,12.2h-26.6"/>
					</g>
				</g>
				<g>
					<g>
						<path class="st1" d="M442.5,700h26.6c0.4,0,0.8-0.2,1-0.6c0.2-0.4,0.2-0.8-0.1-1.2c-0.8-1.2-7.7-11.4-11.6-12.6
							c-2.3-0.8-20.1-3.2-22.1-3.5c-0.6-0.1-1.2,0.3-1.3,1c-0.1,0.6,0.3,1.2,1,1.3c7.9,1.1,20.1,2.9,21.7,3.4c2,0.7,6.3,5.9,9.2,10
							h-24.4c-0.6,0-1.1,0.5-1.1,1.1C441.4,699.5,441.9,700,442.5,700z"/>
					</g>
				</g>
			</g>
			<g>
				<g>
					<g>
						<path class="st3" d="M424.6,698.9h35c0,0-4.1-6.7-6.7-7.9c-2.1-0.9-6.6-2.1-9.2-4.4c-3.1-2.8-8.5-5.2-12.2-1.5
							C426.8,689.7,424.6,698.9,424.6,698.9z"/>
					</g>
				</g>
				<g>
					<g>
						<path class="st1" d="M423.7,699.6c-0.2-0.3-0.3-0.6-0.2-1c0.1-0.4,2.3-9.6,7.2-14.4c4-3.9,9.8-2.1,13.8,1.5
							c1.7,1.5,4.6,2.6,6.7,3.4c0.8,0.3,1.6,0.6,2.1,0.8c2.9,1.3,6.8,7.6,7.2,8.4c0.2,0.4,0.2,0.8,0,1.1c-0.2,0.4-0.6,0.6-1,0.6h-35
							C424.2,700,423.9,699.8,423.7,699.6z M452.4,692c-0.5-0.2-1.2-0.5-2-0.8c-2.3-0.8-5.4-2-7.5-3.8c-2.4-2.1-7.3-4.9-10.7-1.5
							c-3.3,3.3-5.4,9.2-6.2,11.9h31.4C455.9,695.4,453.7,692.6,452.4,692z"/>
					</g>
				</g>
			</g>
			<g>
				<g>
					<g>
						<circle class="st2" cx="434.6" cy="689.9" r="2.8"/>
					</g>
				</g>
			</g>
			<g>
				<g>
					<g>
						<circle class="st2" cx="444.7" cy="694.1" r="1.9"/>
					</g>
				</g>
			</g>
		</g>
		<g>
			<g>
				<g>
					<g>
						<path class="st2" d="M500,722.6c0,0,33.5,4.7,37.4,5.9c6.1,2,18.7,20.8,18.7,20.8h-45.3"/>
					</g>
				</g>
				<g>
					<g>
						<path class="st1" d="M510.8,751.2h45.3c0.7,0,1.4-0.4,1.7-1s0.3-1.4-0.1-2c-1.3-2-13.2-19.4-19.8-21.5
							c-3.9-1.3-34.2-5.5-37.7-6c-1.1-0.1-2,0.6-2.2,1.7c-0.1,1.1,0.6,2,1.7,2.2c13.4,1.9,34.3,5,37,5.8c3.5,1.1,10.7,10.1,15.6,17
							h-41.6c-1.1,0-1.9,0.9-1.9,1.9S509.7,751.2,510.8,751.2z"/>
					</g>
				</g>
			</g>
			<g>
				<g>
					<g>
						<path class="st3" d="M480.3,749.3h59.6c0,0-6.9-11.4-11.5-13.5c-3.6-1.6-11.3-3.6-15.6-7.5c-5.3-4.7-14.5-8.8-20.9-2.6
							C484,733.6,480.3,749.3,480.3,749.3z"/>
					</g>
				</g>
				<g>
					<g>
						<path class="st1" d="M478.7,750.5c-0.4-0.5-0.5-1.1-0.4-1.7c0.2-0.7,3.9-16.3,12.2-24.5c6.8-6.7,16.7-3.6,23.5,2.5
							c2.9,2.6,7.9,4.4,11.5,5.7c1.4,0.5,2.6,1,3.6,1.4c5,2.2,11.6,13,12.4,14.3c0.4,0.6,0.4,1.3,0,2c-0.3,0.6-1,1-1.7,1h-59.6
							C479.7,751.2,479.1,750.9,478.7,750.5z M527.6,737.6c-0.9-0.4-2-0.8-3.4-1.3c-3.9-1.4-9.3-3.4-12.7-6.5
							c-4.1-3.6-12.5-8.3-18.2-2.6c-5.7,5.6-9.1,15.6-10.5,20.2h53.5C533.6,743.3,529.9,738.6,527.6,737.6z"/>
					</g>
				</g>
			</g>
			<g>
				<g>
					<g>
						<circle class="st2" cx="497.4" cy="734" r="4.8"/>
					</g>
				</g>
			</g>
			<g>
				<g>
					<g>
						<circle class="st2" cx="514.6" cy="741.2" r="3.2"/>
					</g>
				</g>
			</g>
		</g>
		<g>
			<g>
				<g>
					<g>
						<path class="st3" d="M262.4,749.8L262.4,749.8c-15,0-27.2-12.2-27.2-27.2l0,0c0-15,12.2-27.2,27.2-27.2l0,0
							c15,0,27.2,12.2,27.2,27.2l0,0C289.6,737.6,277.4,749.8,262.4,749.8z"/>
					</g>
					<g class="st4">
						<path class="st3" d="M249.7,706.3c-4.9,4.9-8,11.7-8,19.2c0,9.8,5.3,18.4,13.1,23.2c-11.3-3.3-19.5-13.8-19.5-26.1
							c0-7.5,3.1-14.3,8-19.2s11.7-8,19.2-8c5.2,0,10,1.5,14.1,4c-2.4-0.7-5-1.1-7.7-1.1C261.4,698.3,254.6,701.4,249.7,706.3z"/>
					</g>
					<g>
						<path class="st1" d="M262.6,734.7L262.6,734.7c-6.5,0-11.9-5.4-11.9-11.9l0,0c0-6.5,5.4-11.9,11.9-11.9l0,0
							c6.5,0,11.9,5.4,11.9,11.9l0,0C274.5,729.3,269.2,734.7,262.6,734.7z"/>
					</g>
					<g class="st4">
						<path class="st3" d="M276.5,724.3c0,3.3-1.3,6.2-3.5,8.4c-2.1,2.2-5.1,3.5-8.4,3.5c-3.1,0-6-1.2-8.1-3.2
							c1.8,1.1,3.9,1.7,6.1,1.7c3.3,0,6.2-1.3,8.4-3.5c2.2-2.2,3.5-5.1,3.5-8.4s-1.3-6.2-3.5-8.4c-0.1-0.1-0.2-0.2-0.3-0.3
							c0.8,0.5,1.6,1.1,2.3,1.8C275.2,718.1,276.5,721.1,276.5,724.3z"/>
					</g>
					<g>
						<path class="st1" d="M262.4,753.5c-17,0-30.9-13.9-30.9-30.9s13.9-30.9,30.9-30.9s30.9,13.9,30.9,30.9
							C293.3,739.7,279.5,753.5,262.4,753.5z M262.4,699.1c-13,0-23.5,10.5-23.5,23.5s10.5,23.5,23.5,23.5s23.5-10.5,23.5-23.5
							C285.9,709.7,275.4,699.1,262.4,699.1z"/>
					</g>
					<g>
						<path class="st5" d="M284.4,695.1c0,4.3-0.6,8.1-1.8,11.4c-7.5,21.6-36.2,19.9-40.4-4.9c-0.3-2-0.5-4.1-0.5-6.4L284.4,695.1
							L284.4,695.1z"/>
					</g>
					<g>
						<path class="st1" d="M263,725.3c-12.4,0-25-10.3-25-30.1c0-2,1.7-3.7,3.7-3.7s3.7,1.7,3.7,3.7c0,15.6,9.2,22.7,17.7,22.7
							c8.5,0,17.7-7.1,17.7-22.7c0-2,1.7-3.7,3.7-3.7s3.7,1.7,3.7,3.7C288.1,714.9,275.5,725.3,263,725.3z"/>
					</g>
					<g class="st0">
						<path class="st1" d="M284.4,695.1c0,4.3-0.6,8.1-1.8,11.4l-40.4-4.9c-0.3-2-0.5-4.1-0.5-6.4L284.4,695.1L284.4,695.1z"/>
					</g>
				</g>
				<g>
					<path class="st3" d="M187.5,481.5c0,0-3.8,16.3-17.8,32.6c-3,3.4-13.3,3.5-16.4,7.2c-20.4,23.6-43.4,50.1-49,56.1
						c-3.3,3.5-8.7,3.9-12.5,1L55,550.2l-13.7-10.5c-2-1.5-2.9-4-2.4-6.4c4.7-22.4,22.4-27.5,43.3-19.2
						c21.9-39.7,48.7-53.1,79.8-44.2C170.3,472.2,178.8,476.1,187.5,481.5z"/>
				</g>
				<g>
					<g>
						<path class="st3" d="M360.6,749.8L360.6,749.8c-15,0-27.2-12.2-27.2-27.2l0,0c0-15,12.2-27.2,27.2-27.2l0,0
							c15,0,27.2,12.2,27.2,27.2l0,0C387.8,737.6,375.6,749.8,360.6,749.8z"/>
					</g>
					<g class="st4">
						<path class="st3" d="M347.9,706.3c-4.9,4.9-8,11.7-8,19.2c0,9.8,5.3,18.4,13.1,23.2c-11.3-3.3-19.5-13.8-19.5-26.1
							c0-7.5,3.1-14.3,8-19.2s11.7-8,19.2-8c5.2,0,10,1.5,14.1,4c-2.4-0.7-5-1.1-7.7-1.1C359.6,698.3,352.8,701.4,347.9,706.3z"/>
					</g>
					<g>
						<path class="st1" d="M360.8,734.7L360.8,734.7c-6.5,0-11.9-5.4-11.9-11.9l0,0c0-6.5,5.4-11.9,11.9-11.9l0,0
							c6.5,0,11.9,5.4,11.9,11.9l0,0C372.7,729.3,367.3,734.7,360.8,734.7z"/>
					</g>
					<g class="st4">
						<path class="st3" d="M374.7,724.3c0,3.3-1.3,6.2-3.5,8.4c-2.1,2.2-5.1,3.5-8.4,3.5c-3.1,0-6-1.2-8.1-3.2
							c1.8,1.1,3.9,1.7,6.1,1.7c3.3,0,6.2-1.3,8.4-3.5c2.2-2.2,3.5-5.1,3.5-8.4s-1.3-6.2-3.5-8.4c-0.1-0.1-0.2-0.2-0.3-0.3
							c0.8,0.5,1.6,1.1,2.3,1.8C373.4,718.1,374.7,721.1,374.7,724.3z"/>
					</g>
					<g>
						<path class="st1" d="M360.6,753.5c-17,0-30.9-13.9-30.9-30.9s13.9-30.9,30.9-30.9s30.9,13.9,30.9,30.9
							C391.5,739.7,377.6,753.5,360.6,753.5z M360.6,699.1c-13,0-23.5,10.5-23.5,23.5s10.5,23.5,23.5,23.5s23.5-10.5,23.5-23.5
							C384.1,709.7,373.6,699.1,360.6,699.1z"/>
					</g>
					<g>
						<path class="st5" d="M382.6,695.1c0,4.3-0.6,8.1-1.8,11.4c-7.5,21.6-36.2,19.9-40.4-4.9c-0.3-2-0.5-4.1-0.5-6.4L382.6,695.1
							L382.6,695.1z"/>
					</g>
					<g>
						<path class="st1" d="M361.2,725.3c-12.4,0-25-10.3-25-30.1c0-2,1.7-3.7,3.7-3.7s3.7,1.7,3.7,3.7c0,15.6,9.2,22.7,17.7,22.7
							s17.7-7.1,17.7-22.7c0-2,1.7-3.7,3.7-3.7s3.7,1.7,3.7,3.7C386.3,714.9,373.7,725.3,361.2,725.3z"/>
					</g>
					<g class="st0">
						<path class="st1" d="M382.6,695.1c0,4.3-0.6,8.1-1.8,11.4l-40.4-4.9c-0.3-2-0.5-4.1-0.5-6.4L382.6,695.1L382.6,695.1z"/>
					</g>
				</g>
				<g>
					<g>
						<path class="st3" d="M241.4,749.8L241.4,749.8c-15,0-27.2-12.2-27.2-27.2l0,0c0-15,12.2-27.2,27.2-27.2l0,0
							c15,0,27.2,12.2,27.2,27.2l0,0C268.6,737.6,256.4,749.8,241.4,749.8z"/>
					</g>
					<g class="st4">
						<path class="st3" d="M228.7,706.3c-4.9,4.9-8,11.7-8,19.2c0,9.8,5.3,18.4,13.1,23.2c-11.3-3.3-19.5-13.8-19.5-26.1
							c0-7.5,3.1-14.3,8-19.2s11.7-8,19.2-8c5.2,0,10,1.5,14.1,4c-2.4-0.7-5-1.1-7.7-1.1C240.4,698.3,233.6,701.4,228.7,706.3z"/>
					</g>
					<g>
						<path class="st1" d="M241.6,734.7L241.6,734.7c-6.5,0-11.9-5.4-11.9-11.9l0,0c0-6.5,5.4-11.9,11.9-11.9l0,0
							c6.5,0,11.9,5.4,11.9,11.9l0,0C253.5,729.3,248.2,734.7,241.6,734.7z"/>
					</g>
					<g class="st4">
						<path class="st3" d="M255.6,724.3c0,3.3-1.3,6.2-3.5,8.4c-2.1,2.2-5.1,3.5-8.4,3.5c-3.1,0-6-1.2-8.1-3.2
							c1.8,1.1,3.9,1.7,6.1,1.7c3.3,0,6.2-1.3,8.4-3.5s3.5-5.1,3.5-8.4s-1.3-6.2-3.5-8.4c-0.1-0.1-0.2-0.2-0.3-0.3
							c0.8,0.5,1.6,1.1,2.3,1.8C254.2,718.1,255.6,721.1,255.6,724.3z"/>
					</g>
					<g>
						<path class="st1" d="M241.4,753.5c-17,0-30.9-13.9-30.9-30.9s13.9-30.9,30.9-30.9s30.9,13.9,30.9,30.9
							C272.3,739.7,258.5,753.5,241.4,753.5z M241.4,699.1c-13,0-23.5,10.5-23.5,23.5s10.5,23.5,23.5,23.5s23.5-10.5,23.5-23.5
							C264.9,709.7,254.4,699.1,241.4,699.1z"/>
					</g>
					<g>
						<path class="st5" d="M263.4,695.1c0,4.3-0.6,8.1-1.8,11.4c-7.5,21.6-36.2,19.9-40.4-4.9c-0.3-2-0.5-4.1-0.5-6.4L263.4,695.1
							L263.4,695.1z"/>
					</g>
					<g>
						<path class="st1" d="M242.1,725.3c-12.4,0-25-10.3-25-30.1c0-2,1.7-3.7,3.7-3.7s3.7,1.7,3.7,3.7c0,15.6,9.2,22.7,17.7,22.7
							s17.7-7.1,17.7-22.7c0-2,1.7-3.7,3.7-3.7s3.7,1.7,3.7,3.7C267.1,714.9,254.5,725.3,242.1,725.3z"/>
					</g>
					<g class="st0">
						<path class="st1" d="M263.4,695.1c0,4.3-0.6,8.1-1.8,11.4l-40.4-4.9c-0.3-2-0.5-4.1-0.5-6.4L263.4,695.1L263.4,695.1z"/>
					</g>
				</g>
				<g>
					<g>
						<path class="st3" d="M141.3,749.8L141.3,749.8c-15,0-27.2-12.2-27.2-27.2l0,0c0-15,12.2-27.2,27.2-27.2l0,0
							c15,0,27.2,12.2,27.2,27.2l0,0C168.5,737.6,156.3,749.8,141.3,749.8z"/>
					</g>
					<g class="st4">
						<path class="st3" d="M128.6,706.3c-4.9,4.9-8,11.7-8,19.2c0,9.8,5.3,18.4,13.1,23.2c-11.3-3.3-19.5-13.8-19.5-26.1
							c0-7.5,3.1-14.3,8-19.2s11.7-8,19.2-8c5.2,0,10,1.5,14.1,4c-2.4-0.7-5-1.1-7.7-1.1C140.3,698.3,133.5,701.4,128.6,706.3z"/>
					</g>
					<g>
						<path class="st1" d="M141.5,734.7L141.5,734.7c-6.5,0-11.9-5.4-11.9-11.9l0,0c0-6.5,5.4-11.9,11.9-11.9l0,0
							c6.5,0,11.9,5.4,11.9,11.9l0,0C153.4,729.3,148,734.7,141.5,734.7z"/>
					</g>
					<g class="st4">
						<path class="st3" d="M155.4,724.3c0,3.3-1.3,6.2-3.5,8.4c-2.1,2.2-5.1,3.5-8.4,3.5c-3.1,0-6-1.2-8.1-3.2
							c1.8,1.1,3.9,1.7,6.1,1.7c3.3,0,6.2-1.3,8.4-3.5s3.5-5.1,3.5-8.4s-1.3-6.2-3.5-8.4c-0.1-0.1-0.2-0.2-0.3-0.3
							c0.8,0.5,1.6,1.1,2.3,1.8C154.1,718.1,155.4,721.1,155.4,724.3z"/>
					</g>
					<g>
						<path class="st1" d="M141.3,753.5c-17,0-30.9-13.9-30.9-30.9s13.9-30.9,30.9-30.9s30.9,13.9,30.9,30.9
							C172.2,739.7,158.3,753.5,141.3,753.5z M141.3,699.1c-13,0-23.5,10.5-23.5,23.5s10.5,23.5,23.5,23.5s23.5-10.5,23.5-23.5
							C164.8,709.7,154.3,699.1,141.3,699.1z"/>
					</g>
					<g>
						<path class="st5" d="M163.3,695.1c0,4.3-0.6,8.1-1.8,11.4c-7.5,21.6-36.2,19.9-40.4-4.9c-0.3-2-0.5-4.1-0.5-6.4L163.3,695.1
							L163.3,695.1z"/>
					</g>
					<g>
						<path class="st1" d="M141.9,725.3L141.9,725.3c-12.4,0-25-10.3-25-30.1c0-2,1.7-3.7,3.7-3.7s3.7,1.7,3.7,3.7
							c0,15.6,9.2,22.7,17.7,22.7s17.7-7.1,17.7-22.7c0-2,1.7-3.7,3.7-3.7l0,0c2,0,3.7,1.7,3.7,3.7
							C167,714.9,154.4,725.3,141.9,725.3z"/>
					</g>
					<g class="st0">
						<path class="st1" d="M163.3,695.1c0,4.3-0.6,8.1-1.8,11.4l-40.4-4.9c-0.3-2-0.5-4.1-0.5-6.4L163.3,695.1L163.3,695.1z"/>
					</g>
				</g>
				<g class="st0">
					<path class="st1" d="M187.5,481.5l-14.4,16.7l-2.5,14.8l-12.8,2.9l-12.5,14.4c-7.8,11.3-30.4,35.7-41.2,47.1
						c-3.3,3.5-8.7,3.9-12.5,1L55,550.2c0.2-0.7,0.3-1.1,0.3-1.1s32.5,7.4,38.9-5.8c6.5-13.1,30.6-38.7,53.9-43.6
						s13.9-29.9,13.9-29.9l0,0C170.3,472.2,178.8,476.1,187.5,481.5z"/>
				</g>
				<g>
					<path class="st1" d="M124.7,517.3c-0.4,0-0.9-0.1-1.3-0.3c-17.2-7.7-28-23.1-28.4-23.7c-1-1.5-0.6-3.5,0.8-4.5
						c1.5-1,3.5-0.6,4.5,0.8c0.1,0.2,10.2,14.5,25.7,21.5c1.6,0.7,2.4,2.6,1.6,4.3C127.1,516.6,125.9,517.3,124.7,517.3z"/>
				</g>
				<g>
					<path class="st1" d="M97.5,584c-2.8,0-5.6-0.9-7.9-2.7l-50.4-38.6c-3.1-2.4-4.6-6.3-3.8-10.1c2.2-10.6,7.5-18.4,15.1-22.5
						c8.1-4.3,18.5-4.5,30.1-0.5c14.1-24.4,30.6-39.3,49.3-44.2c17.9-4.7,37.9-0.3,59.6,13c1.7,1.1,2.3,3.3,1.2,5.1
						c-1.1,1.7-3.3,2.3-5.1,1.2c-19.8-12.2-38-16.3-53.8-12.1c-17.3,4.6-32.9,19.1-46.2,43.4c-0.9,1.6-2.9,2.3-4.6,1.6
						c-10.8-4.3-20.2-4.6-27-1c-5.8,3.1-9.6,9-11.4,17.5c-0.2,1,0.2,2.1,1,2.7L94,575.4c2.3,1.8,5.6,1.5,7.5-0.6
						c9.7-10.3,33.1-35.3,40.8-46.6c1.2-1.7,3.4-2.1,5.1-0.9c1.7,1.2,2.1,3.5,0.9,5.1c-7.8,11.3-29.4,34.6-41.6,47.5
						C104.4,582.6,100.9,584,97.5,584z"/>
				</g>
				<g>
					<path class="st5" d="M407,430.5h25.1c0,0,11.4,7.1,8.3,18S422.5,459,422.5,459h-26.9l-5.1-18.5"/>
				</g>
				<g>
					<path class="st3" d="M390.6,482.7l-1.4,10.9l-7.4,56.1c-33.3,56.7-88.3,17-88.3,17l27.3-77.3l0.7-2c0,0,35.9-68.3,59.1-56.4
						C403.7,442.7,390.6,482.7,390.6,482.7z"/>
				</g>
				<g>
					<path class="st1" d="M334.3,583.8c-23,0-42.1-13.6-43-14.2c-1.7-1.2-2-3.5-0.8-5.1s3.5-2,5.1-0.8l0,0c0.2,0.2,24,17,48.6,11.8
						c13.6-2.9,25-12,34-27.1l8.8-66.2c0-0.2,0.1-0.4,0.2-0.7c0.1-0.4,11.9-37.1-8.2-47.4c-14.5-7.4-40.9,29.7-54.1,54.9
						c-0.9,1.8-3.2,2.5-5,1.5c-1.8-0.9-2.5-3.2-1.5-5c0.4-0.7,9.3-17.5,21.2-33.2c17-22.3,31.4-30.7,42.8-24.8
						c24.7,12.7,13.3,51.6,12,55.9l-8.8,66.6c-0.1,0.5-0.2,1-0.5,1.4c-10.2,17.3-23.4,27.8-39.3,31.2
						C341.8,583.4,338,583.8,334.3,583.8z"/>
				</g>
				<g class="st0">
					<path class="st1" d="M389.2,493.5l-7.4,56.1c-33.3,56.7-88.3,17-88.3,17l27.3-77.3l6.3-2.4C327,486.9,358.1,504.6,389.2,493.5z
						"/>
				</g>
				<g>
					<path class="st3" d="M347.7,521.5c-8.9,38-73.3,79.3-113.3,40.3c0,0,0.6-31.1,4.4-35.6c3.8-4.5,3.3-12.7,11.7-18.3
						c8.4-5.5,51.6-0.5,69.1,0"/>
				</g>
				<g class="st4">
					<path class="st3" d="M402.9,436.6h26.6c0,0,6.3-0.1,8.7,4.5c0,0-1.4-6.3-5.1-7.8s-8.2-0.8-8.2-0.8l-17.8-0.2"/>
				</g>
				<g class="st0">
					<path class="st1" d="M347.7,521.5c-8.9,38-73.3,79.3-113.3,40.3c0,0,0.6-31.1,4.4-35.6c3.8-4.5,3.3-12.7,11.7-18.3
						c8.4-5.5,51.6-0.5,69.1,0"/>
				</g>
				<g>
					<path class="st1" d="M272,580.5c-15.3,0-29.1-5.4-40.1-16c-1.5-1.4-1.5-3.7-0.1-5.2s3.7-1.5,5.2-0.1
						c13.9,13.3,33,17.3,53.8,11.1c25.6-7.6,48.5-28.9,53.4-49.6c0.5-2,2.4-3.2,4.4-2.7s3.2,2.4,2.7,4.4
						c-5.4,23.1-30.6,46.8-58.5,55C285.7,579.5,278.7,580.5,272,580.5z"/>
				</g>
				<g>
					<g>
						<path class="st1" d="M114.1,617.6c-1.7,0-3.2-1.1-3.6-2.8l-19.8-83.6c-0.5-2,0.8-4,2.7-4.4c2-0.5,4,0.8,4.4,2.7l19.8,83.6
							c0.5,2-0.8,4-2.7,4.4C114.7,617.5,114.4,617.6,114.1,617.6z"/>
					</g>
					<g>
						<path class="st1" d="M139.9,616.7c-1.3,0-2.4-0.9-2.7-2.2l-18-83.6c-0.3-1.5,0.6-3,2.1-3.3s3,0.6,3.3,2.1l18,83.6
							c0.3,1.5-0.6,3-2.1,3.3C140.3,616.6,140.1,616.7,139.9,616.7z"/>
					</g>
					<g>
						<path class="st1" d="M167.8,616.7c-1.3,0-2.5-1-2.7-2.3l-14.3-83.6c-0.3-1.5,0.8-2.9,2.3-3.2s2.9,0.8,3.2,2.3l14.3,83.6
							c0.3,1.5-0.8,2.9-2.3,3.2C168.1,616.6,168,616.7,167.8,616.7z"/>
					</g>
					<g>
						<path class="st1" d="M247.4,616.7c-1.4,0-2.7-1.1-2.8-2.6l-6-83.6c-0.1-1.5,1-2.8,2.6-3c1.5-0.1,2.8,1,3,2.6l6,83.6
							c0.1,1.5-1,2.8-2.6,3C247.6,616.6,247.5,616.7,247.4,616.7z"/>
					</g>
					<g>
						<path class="st1" d="M290.3,616.7c-1.5,0-2.7-1.2-2.8-2.7l-3.2-83.6c-0.1-1.5,1.1-2.8,2.7-2.9c1.5,0,2.8,1.1,2.9,2.7l3.2,83.6
							c0.1,1.5-1.1,2.8-2.7,2.9C290.4,616.6,290.3,616.7,290.3,616.7z"/>
					</g>
					<g>
						<path class="st1" d="M334.2,616.7c-1.5,0-2.8-1.2-2.8-2.7l-0.5-83.6c0-1.5,1.2-2.8,2.7-2.8l0,0c1.5,0,2.8,1.2,2.8,2.7
							l0.5,83.6C336.9,615.4,335.7,616.6,334.2,616.7L334.2,616.7z"/>
					</g>
					<g>
						<polyline class="st5" points="194.7,613.9 180.4,530.3 192.3,530.3 206.4,613.9 						"/>
					</g>
					<g>
						<path class="st1" d="M194.7,616.7c-1.3,0-2.5-1-2.7-2.3l-14.3-83.6c-0.1-0.8,0.1-1.6,0.6-2.2c0.5-0.6,1.3-1,2.1-1h11.9
							c1.3,0,2.5,1,2.7,2.3l14.1,83.6c0.3,1.5-0.8,2.9-2.3,3.2s-2.9-0.8-3.2-2.3l-13.8-81.3h-6.3l13.7,80.3c0.3,1.5-0.8,2.9-2.3,3.2
							C195,616.6,194.8,616.7,194.7,616.7z"/>
					</g>
					<g>
						<path class="st5" d="M373.5,566.9H101c-2.9,0-5.3,2.4-5.3,5.3l0,0c0,2.9,2.4,5.3,5.3,5.3h272.6"/>
					</g>
					<g>
						<path class="st1" d="M373.5,579.8H101c-4.2,0-7.6-3.4-7.6-7.6c0-4.2,3.4-7.6,7.6-7.6h272.6c1.3,0,2.3,1,2.3,2.3
							s-1,2.3-2.3,2.3H101c-1.7,0-3,1.3-3,3s1.3,3,3,3h272.6c1.3,0,2.3,1,2.3,2.3S374.8,579.8,373.5,579.8z"/>
					</g>
					<g>
						<path class="st5" d="M315.5,674.6h-22.1c8.3-8.6,5.3-19.6,0.6-28c-4.2-7.5-9.7-12.9-9.7-12.9h19.2c5,3.7,8.2,8.3,10.3,12.9
							C319.6,660.1,315.5,674.6,315.5,674.6z"/>
					</g>
					<g>
						<path class="st5" d="M415.5,459.8h-16.7c0,0-16.9,23.2-22.1,54.3H90.4c-4.5,0-8.1,3.6-8.1,8.1l0,0c0,4.5,3.6,8.1,8.1,8.1
							h276.9c3.4,0,6.2,2.8,6.2,6.2v71.1c0,3.4-2.8,6.2-6.2,6.2H114.1c-5.5,0-9.9,4.4-9.9,9.9l0,0c0,5.5,4.4,9.9,9.9,9.9h250.3
							c4.9,0,9.2,3,11,7.5c2.5,6.3,5.7,15.6,6.3,24c0.4,5.2-3.7,9.4-8.9,9.4H101.2c-5.7,0-10.3,4.6-10.3,10.3l0,0
							c0,5.7,4.6,10.3,10.3,10.3h277.3c9,0,17.6-4.3,22.7-11.7c3.3-4.7,5.3-9.2,3.4-17.1c-4.9-21.5-12.9-41.8-12.9-41.8V521.9
							c0,0,8.8-42,27.1-58.2"/>
					</g>
					<g class="st0">
						<path class="st1" d="M367.3,532.5H90.4c-2.2,0-4.3-0.9-5.7-2.4c-1.5-1.5-2.4-3.5-2.4-5.7c0-1.5,0.4-2.9,1.1-4.1
							c0.4,0.6,0.8,1.1,1.2,1.6c1.5,1.5,3.5,2.4,5.7,2.4h276.9c3.4,0,6.2,2.8,6.2,6.2v8.3C373.5,535.3,370.8,532.5,367.3,532.5z"/>
					</g>
					<g class="st0">
						<path class="st1" d="M375.4,632.9c2.5,6.3,5.7,15.6,6.2,24c0.1,1.3-0.1,2.6-0.5,3.8c-1.1-7-3.6-14.2-5.7-19.4
							c-1.8-4.5-6.2-7.5-11.1-7.5H114.1c-2.7,0-5.2-1.1-7-2.9c-1.8-1.8-2.9-4.3-2.9-7c0-1.5,0.3-2.9,0.9-4.1c0.5,1.1,1.2,2,2,2.9
							c1.8,1.8,4.3,2.9,7,2.9h250.3C369.3,625.4,373.6,628.4,375.4,632.9z"/>
					</g>
					<g class="st0">
						<path class="st1" d="M404.8,667.5c1.4,7.2-0.6,11.5-3.7,15.9c-5.1,7.4-13.7,11.8-22.7,11.8H101.2c-2.8,0-5.4-1.2-7.3-3
							c-1.9-1.9-3-4.4-3-7.3c0-1.5,0.3-2.9,0.9-4.1c0.5,1.2,1.2,2.2,2.1,3.1c1.9,1.9,4.4,3,7.3,3h277.3c9,0,17.6-4.3,22.7-11.8
							C402.8,672.7,404.2,670.3,404.8,667.5z"/>
					</g>
					<g class="st0">
						<path class="st1" d="M404.6,658c0.9,3.8,0.9,6.9,0.2,9.5c-0.1-0.4-0.2-0.8-0.2-1.2c-4.9-21.5-12.9-41.8-12.9-41.8v-8.3
							C391.7,616.2,399.7,636.5,404.6,658z"/>
					</g>
					<g class="st4">
						<path class="st3" d="M104.7,626.9c-0.3-1-0.5-2-0.5-3.1c0-5.5,4.4-9.9,9.9-9.9h253.2c3.4,0,6.2-2.8,6.2-6.2v6.2
							c0,3.4-2.8,6.2-6.2,6.2H114.1C109.7,620.1,106,623,104.7,626.9z"/>
					</g>
					<g class="st4">
						<path class="st3" d="M381.7,671.3c0.4,5.2-3.6,9.4-8.9,9.4H101.2c-4.6,0-8.5,3-9.8,7.2c-0.3-1-0.5-2-0.5-3.1
							c0-5.7,4.6-10.3,10.3-10.3h271.6c4.1,0,7.5-2.7,8.5-6.3C381.5,669.3,381.6,670.3,381.7,671.3z"/>
					</g>
					<g class="st4">
						<path class="st3" d="M380.6,503.9c-1.6,5.1-3,10.7-3.9,16.5H90.4c-3.4,0-6.3,2.1-7.5,5c-0.4-1-0.6-2-0.6-3.1
							c0-4.5,3.6-8.1,8.1-8.1h286.2c0.6-3.8,1.4-7.4,2.4-10.9C379.5,503.4,380,503.7,380.6,503.9z"/>
					</g>
					<g>
						<path class="st1" d="M378.5,698.8H101.2c-7.7,0-14-6.3-14-14s6.3-14,14-14h271.6c1.5,0,2.9-0.6,3.8-1.6c1-1,1.4-2.4,1.3-3.9
							c-0.5-7.9-3.6-16.8-6-22.8c-1.3-3.1-4.2-5.2-7.6-5.2H114.1c-7.5,0-13.6-6.1-13.6-13.6s6.1-13.6,13.6-13.6h253.2
							c1.4,0,2.5-1.1,2.5-2.5v-71.1c0-1.4-1.1-2.5-2.5-2.5H90.4c-6.5,0-11.8-5.3-11.8-11.8s5.3-11.8,11.8-11.8h283.1
							c5.8-30,21.5-51.8,22.2-52.8s1.8-1.5,3-1.5h16.7c2,0,3.7,1.7,3.7,3.7c0,0.1,0,0.2,0,0.2c0.9,0.1,1.8,0.5,2.4,1.2
							c1.3,1.5,1.2,3.9-0.3,5.2c-16.3,14.4-25,51.7-25.9,55.8v101.5c1.4,3.7,8.3,22,12.8,41.7c2,8.9-0.1,14.5-4,20.1
							C398.4,693.8,388.8,698.8,378.5,698.8z M101.2,678.2c-3.6,0-6.6,3-6.6,6.6s3,6.6,6.6,6.6h277.3c7.9,0,15.3-3.8,19.7-10.2
							c3.1-4.4,4.3-7.8,2.9-14.2c-4.8-21-12.7-41.1-12.7-41.3c-0.2-0.4-0.3-0.9-0.3-1.4V521.9c0-0.3,0-0.5,0.1-0.8
							c0.4-1.7,8.5-39.5,25.7-57.6h-13.1c-3.7,5.6-16.1,25.8-20.4,51.2c-0.3,1.8-1.8,3.1-3.6,3.1H90.4c-2.4,0-4.4,2-4.4,4.4
							s2,4.4,4.4,4.4h276.9c5.5,0,9.9,4.4,9.9,9.9v71.1c0,5.5-4.4,9.9-9.9,9.9H114.1c-3.4,0-6.2,2.8-6.2,6.2s2.8,6.2,6.2,6.2h250.3
							c6.4,0,12.1,3.8,14.5,9.8c2.6,6.6,5.9,16.2,6.5,25.1c0.2,3.5-0.9,6.9-3.3,9.4c-2.4,2.6-5.7,4-9.2,4L101.2,678.2L101.2,678.2z"
							/>
					</g>
					<g>
						<path class="st1" d="M315.5,678.2h-22.1c-1.5,0-2.8-0.9-3.4-2.2c-0.6-1.4-0.3-2.9,0.7-4c13-13.5-8.8-35.5-9.1-35.7
							c-1.4-1.4-1.5-3.8,0-5.2c1.4-1.4,3.8-1.5,5.2,0c0.3,0.3,6.7,6.7,11.1,15.2c4.8,9.3,5.6,17.6,2.4,24.5h12.1
							c1.2-6.6,2.7-23.8-11.2-34.2c-1.6-1.2-2-3.5-0.7-5.2c1.2-1.6,3.5-2,5.2-0.7c21.3,15.9,13.7,43.7,13.3,44.8
							C318.6,677.2,317.1,678.2,315.5,678.2z"/>
					</g>
					<g>
						<path class="st1" d="M217.8,637.4h-15.6c-7.5,0-13.6-6.1-13.6-13.6s6.1-13.6,13.6-13.6h15.6c2,0,3.7,1.7,3.7,3.7
							s-1.7,3.7-3.7,3.7h-15.6c-3.4,0-6.2,2.8-6.2,6.2s2.8,6.2,6.2,6.2h15.6c2,0,3.7,1.7,3.7,3.7
							C221.5,635.7,219.8,637.4,217.8,637.4z"/>
					</g>
					<g>
						<path class="st1" d="M233.1,698.8h-14.9c-7.7,0-14-6.3-14-14s6.3-14,14-14H231c2,0,3.7,1.7,3.7,3.7s-1.7,3.7-3.7,3.7h-12.7
							c-3.6,0-6.6,3-6.6,6.6s3,6.6,6.6,6.6h14.9c2,0,3.7,1.7,3.7,3.7S235.2,698.8,233.1,698.8z"/>
					</g>
					<g class="st0">
						<path class="st1" d="M313.8,646.6H294c-4.2-7.5-9.7-12.9-9.7-12.9h19.2C308.5,637.4,311.7,642,313.8,646.6z"/>
					</g>
				</g>
				<g>
					<path class="st3" d="M472.6,489.2c0,0-5.3,25.8-28.8,19.1c0,0-11.5-5.5-9.7-24.2c0.1-0.7,0.1-1.5,0.2-2.2l-18.9-22.1H432
						c15.2-5.2,10.2-26.3,0-29.3h-25l-34.8,21.2c0,0,0,0.5,0,1.4c-0.2,5.3-1.7,24.7-12.7,46.7l3.1,2.6l-3.1,11.8H250.3
						c0,0-6.1,37.3-14.7,60.6c-8.6,23.3-23,20.3-34.7,16.6c-7.1-2.2-26.3-15.1-38.4-29.5c-7.8-9.3-12.6-19.1-9.2-27.2
						c8.5-20.5,26.2-21.3,34.3-18.7l1.5-2.9h-16.6c0,0-7.4-32.6,16.8-58.4l-3.6-4.6c-1.7-2.2-1.9-5.2-0.5-7.5L196,424l1.9-3.2
						c-21.3-10.8-39.6-23.9-53.5-40.5c-25.4,4.8-42.4-28.7-26.3-44.8l-0.3-0.3l-10.4-9.9c-3.8-3.6-4.1-9.4-0.8-13.4
						c1.9-2.3,4.7-3.5,7.6-3.5c1.9,0,3.9,0.6,5.6,1.8l24.7,17.2c0,0,2.3-16.8,13.8-20c3.9-1.1,8,1.5,8.6,5.5
						c0.3,2.4,0.1,5.8-1.5,10.3c-4.5,13.1,6,20.8,6.3,21.1c0.3,0.2,38.5,27.6,80.9,36.1s157.2,8.7,157.2,8.7s3.1-2.7,7.9-3.9
						c7-1.7,17.6-0.2,28.2,17.2c18,29.5,24,44.2,24,44.2S496.6,470.8,472.6,489.2z"/>
				</g>
				<g>
					<path class="st1" d="M213.8,597.1c-5.4,0-10.4-1.6-13.9-2.7c-9.5-3-39.1-23.4-48.2-43.1c-3.1-6.7-3.6-12.7-1.4-17.9
						c4.5-10.8,11.6-16.8,19-19.7l0,0c-0.3-1.4-7.2-32.9,15.7-59.2l-1.9-2.4c-2.5-3.2-2.8-7.7-0.8-11.2l11-18.8
						c-21.1-11.1-37.6-23.6-50.2-38.3c-12.4,1.5-24.2-5-30.6-17.1c-5.7-10.8-5.2-22.6,1.1-30.9l-8.5-8.1c-5-4.7-5.4-12.6-1-17.8
						c4.4-5.2,11.9-6.2,17.5-2.4l20.8,14.5c1.7-5.9,5.8-15.1,14.9-17.8c2.8-0.8,5.8-0.3,8.3,1.3c2.4,1.6,4,4.1,4.4,6.9
						c0.5,3.4-0.1,7.3-1.6,11.8c-3.7,10.9,4.8,17.1,5.1,17.4l0.1,0.1c4,2.8,40,27.6,79.6,35.5c39.4,7.9,143.6,8.6,155.5,8.7
						c2.4-1.7,8.5-5.4,16.6-4.2c8.6,1.3,16.5,7.7,23.5,19.1c16,26.3,22.5,40.8,23.9,44c2.7,2.6,13.8,14.2,13.2,27.6
						c-0.3,7.1-3.8,13.4-10.3,18.8c-0.9,3.4-4.3,13.3-12.7,18.5c-5.6,3.4-12.3,4.1-19.8,1.9c-0.2-0.1-0.4-0.1-0.5-0.2
						c-0.6-0.3-13.8-7-11.4-28.3l-18-21c-0.8-1-1-2.3-0.5-3.4s1.7-1.9,2.9-1.9h16c6.2-2.4,7-7.7,6.9-10.8
						c-0.1-5.4-3.2-10.7-6.9-12.1h-23.7l-32.5,19.8c-0.2,5.8-1.8,24.2-11.9,45.4l1.2,1c0.9,0.8,1.3,2.1,1,3.3l-3.1,11.8
						c-0.4,1.4-1.7,2.4-3.1,2.4H253.1c-1.6,9.1-7.1,38.5-14.4,58.5C232.3,592.9,222.5,597.1,213.8,597.1z M180.2,518.1
						c-7.8,0-18.1,3.7-24,17.8c-1.4,3.5-1,7.7,1.3,12.7c7.9,17.1,35.5,36.9,44.3,39.6c12,3.8,23.3,5.5,30.7-14.6
						c8.4-22.8,14.5-59.6,14.6-60c0.3-1.6,1.6-2.7,3.2-2.7h106.6l1.9-7.4l-1.5-1.3c-1.1-1-1.5-2.6-0.8-3.9
						c12.4-24.7,12.4-46.4,12.4-46.6c0-1.1,0.6-2.2,1.5-2.8l34.8-21.2c0.5-0.3,1.1-0.5,1.7-0.5H432c0.3,0,0.6,0,0.9,0.1
						c6.6,2,11.7,9.8,11.9,18.3c0.2,8.2-4.2,14.6-11.8,17.2c-0.3,0.1-0.7,0.2-1,0.2h-9.6l14.3,16.8c0.6,0.7,0.9,1.6,0.7,2.6
						c-2.3,16.4,6,22.1,7.5,23c5.6,1.5,10.4,1.1,14.3-1.3c7.7-4.7,10.1-15.4,10.1-15.5c0.2-0.8,0.6-1.4,1.2-1.9
						c5.6-4.3,8.5-9.2,8.7-14.6c0.5-11.9-11.5-22.9-11.7-23c-0.4-0.3-0.6-0.7-0.8-1.2c-0.1-0.1-6.1-14.9-23.7-43.8
						c-5.8-9.6-12.2-15-18.8-16c-7.1-1.1-12.4,3.4-12.5,3.4c-0.6,0.5-1.4,0.8-2.1,0.8l0,0c-4.7,0-115.6-0.3-157.9-8.8
						c-40.9-8.2-78-33.7-82-36.6c-0.2-0.1-13-9.2-7.6-24.8c1.2-3.5,1.6-6.5,1.3-8.8c-0.2-1.3-1.1-2.1-1.6-2.4c-0.9-0.6-2-0.7-3-0.5
						c-9.3,2.7-11.4,17.2-11.4,17.4c-0.2,1.1-0.9,2.1-1.9,2.5s-2.2,0.3-3.1-0.3l-24.7-17.2c-2.8-2-6.6-1.5-8.8,1.2
						c-2.2,2.7-2,6.6,0.5,9l10.8,10.2c0.6,0.6,1,1.4,1,2.3s-0.3,1.7-0.9,2.3c-7.6,7.6-5.9,18.7-2.1,25.8c4,7.7,13.2,15.8,25.6,13.5
						c1.1-0.2,2.3,0.2,3.1,1.1c12.8,15.3,30,28.3,52.4,39.7c0.8,0.4,1.4,1.1,1.6,2c0.3,0.9,0.1,1.8-0.3,2.5l-12.7,21.7
						c-0.7,1.2-0.6,2.8,0.3,3.9l3.6,4.6c1,1.3,0.9,3-0.2,4.2c-19,20.2-17.5,45.1-16.4,52.9H189c1.1,0,2.2,0.6,2.7,1.5
						c0.6,1,0.6,2.1,0.1,3.1l-1.5,2.9c-0.7,1.4-2.3,2.1-3.9,1.6C184.9,518.4,182.7,518.1,180.2,518.1z"/>
				</g>
				<g>
					<path class="st1" d="M330.9,516.9c-0.3,0-0.6,0-0.9-0.1c-46.1-15.3-58.8-30.9-59.4-31.6c-0.7-0.9-0.8-2.1-0.2-3.1l10.8-18.2
						c0.4-0.7,1-1.1,1.8-1.3c0.7-0.2,1.5,0,2.1,0.4l4.2,2.8l5.9-12.5c0.7-1.6,0.5-3.5-0.6-4.8l-8-9.7c-0.8-1-1.8-1.8-2.9-2.4
						l-62.1-34.1c-2.4-1.3-5.5-0.7-7.2,1.5L200,422.5c-0.9,1.2-2.7,1.4-3.9,0.5s-1.4-2.7-0.5-3.9l14.6-18.8
						c3.4-4.3,9.4-5.6,14.2-2.9l62.1,34.1c1.7,1,3.3,2.2,4.5,3.8l8,9.7c2.4,3,3,7.2,1.3,10.7l-7.3,15.4c-0.3,0.7-1,1.3-1.8,1.5
						s-1.6,0.1-2.3-0.4l-4.5-3l-8.3,13.9c4.1,4,19,16.3,55.5,28.4c1.4,0.5,2.2,2,1.8,3.5C333.2,516.1,332.1,516.9,330.9,516.9z"/>
				</g>
				<g>
					<path class="st1" d="M359.4,503.4c-0.3,0-0.6,0-1-0.1c-36.8-10-68.5-29.5-69.8-30.3c-1.7-1.1-2.3-3.3-1.2-5.1
						c1.1-1.7,3.3-2.3,5.1-1.2c0.3,0.2,32.1,19.7,67.8,29.5c2,0.5,3.1,2.6,2.6,4.5C362.5,502.4,361,503.4,359.4,503.4z"/>
				</g>
				<g>
					<path class="st1" d="M374.1,454.2l-16.2,8.3l12.3-13.4C373.9,445.5,378.5,451.6,374.1,454.2L374.1,454.2z"/>
				</g>
				<g>
					<path class="st1" d="M279.7,516.9c-0.8,0-1.6-0.4-2.2-1c0,0-3.7-4.5-15.2-17c-11.1-12-31.5-18.2-31.7-18.3
						c-0.2-0.1-0.4-0.1-0.6-0.2L187.9,457c-1.3-0.7-1.8-2.4-1.1-3.8s2.4-1.8,3.8-1.1l41.9,23.2c2.8,0.9,22.4,7.3,33.9,19.7
						c11.7,12.7,15.3,17.1,15.4,17.3c1,1.2,0.8,2.9-0.4,3.9C280.9,516.7,280.3,516.9,279.7,516.9z"/>
				</g>
				<g>
					<path class="st1" d="M189,515.7c-0.3,0-0.6,0-0.9-0.1c-1.4-0.5-2.2-2.1-1.7-3.5c6.7-20,19.1-28.8,28.3-32.7
						c10-4.2,18.4-3.6,18.7-3.6c1.5,0.1,2.7,1.4,2.5,3c-0.1,1.5-1.4,2.7-3,2.5c-1.2-0.1-29.9-1.7-41.4,32.6
						C191.2,515,190.1,515.7,189,515.7z"/>
				</g>
				<g>
					<path class="st1" d="M254.2,491.4c-0.5,0-1-0.1-1.5-0.4c-1.3-0.8-1.7-2.5-0.8-3.8l28.5-44.3c1-1.6,1.3-3.4,0.9-5.3
						c-0.4-1.8-1.5-3.4-3.1-4.4c-1.3-0.8-1.7-2.5-0.9-3.8c0.8-1.3,2.5-1.7,3.8-0.9c2.9,1.8,4.9,4.6,5.6,7.8c0.7,3.3,0.1,6.7-1.7,9.5
						l-28.5,44.3C256,490.9,255.1,491.4,254.2,491.4z"/>
				</g>
				<g>
					<path class="st1" d="M268.2,503.9c-0.8,0-1.6-0.3-2.1-1c-1-1.2-0.8-2.9,0.3-3.9c6.8-5.8,9.5-11.5,9.6-11.6
						c0.6-1.4,2.3-2,3.7-1.3c1.4,0.6,2,2.3,1.3,3.7c-0.1,0.3-3.2,6.9-11,13.5C269.5,503.7,268.8,503.9,268.2,503.9z"/>
				</g>
				<g>
					<path class="st1" d="M196.9,461.6c-0.5,0-1-0.1-1.5-0.5c-1.3-0.8-1.6-2.6-0.8-3.8l19.5-29.8c0.6-0.9,1.6-1.3,2.6-1.2l15.2,1.6
						c4.8-6.8,11.4-16,12-16.9c0.8-1.3,2.5-1.7,3.8-0.9c1.3,0.8,1.7,2.5,0.9,3.8c-0.9,1.5-11.9,16.8-13.1,18.5
						c-0.6,0.8-1.6,1.2-2.5,1.1l-15.1-1.6l-18.6,28.3C198.7,461.2,197.8,461.6,196.9,461.6z"/>
				</g>
				<g>
					
						<ellipse transform="matrix(0.6587 -0.7524 0.7524 0.6587 -251.2355 338.9279)" class="st6" cx="248" cy="446.4" rx="13.3" ry="11.1"/>
				</g>
				<g>
					<path class="st1" d="M245.8,461.6c-3.1,0-6.1-1-8.4-3.1c-5.8-5-5.7-14.6,0.1-21.3c5.8-6.7,15.3-8,21.1-3s5.7,14.6-0.1,21.3l0,0
						l0,0C255,459.5,250.3,461.6,245.8,461.6z M250.1,436.7c-2.9,0-6.1,1.5-8.4,4.2c-3.8,4.4-4.1,10.4-0.7,13.5
						c3.5,3,9.4,1.9,13.3-2.4l0,0c3.8-4.4,4.1-10.4,0.7-13.5C253.6,437.3,251.9,436.7,250.1,436.7z"/>
				</g>
				<g>
					<path class="st1" d="M127.4,378c-1.8,0-3.7-0.3-5.5-0.9c-1.5-0.5-2.3-2-1.8-3.5s2-2.3,3.5-1.8c5.8,1.9,9.8-0.6,12.1-3.1
						c5.4-5.5,6.9-15.5,3.8-24.3c-1.4-3.8-3.5-6.3-6.4-7.4c-6.3-2.4-14.7,2-14.8,2c-1.3,0.7-3,0.2-3.8-1.1c-0.7-1.3-0.2-3,1.1-3.8
						c0.4-0.2,10.6-5.7,19.4-2.4c4.5,1.7,7.7,5.3,9.7,10.7c3.9,10.8,1.9,22.9-5,30C136.2,376.1,131.9,378,127.4,378z"/>
				</g>
				<g>
					<path class="st1" d="M167.6,332.5c1.7,7.9,1.5,16.3-1.2,24c0.4-6.6-1.1-13.3-3.7-19.3c-0.4-0.8-0.8-1.7-1.2-2.4L167.6,332.5
						L167.6,332.5z"/>
				</g>
				<g>
					<path class="st1" d="M165.9,404.1c-1.2,0-2.3-0.6-2.9-1.8c-0.8-1.6-0.2-3.5,1.4-4.3c27.3-14,23-41.2,22.9-41.5
						c-0.3-1.8,0.9-3.4,2.6-3.7c1.8-0.3,3.4,0.9,3.7,2.6c0.1,0.3,5.1,32.1-26.4,48.3C166.9,404,166.4,404.1,165.9,404.1z"/>
				</g>
				<g>
					<path class="st1" d="M144.5,341.7l-6.4-0.3c0.3-6.2,3.2-14.8,3.3-15.2l6.1,2.1C147.4,328.4,144.7,336.4,144.5,341.7z"/>
				</g>
				<g>
					<path class="st1" d="M449.2,469.3c4.2,3,9.5,4.1,14.5,4c0.9,0,1.5,0.8,1.5,1.7c0.1,3.1,0.6,6.7,1.9,9.4c0.7,1.3,1.6,2.4,3,1.8
						c0.4-0.1,1-0.4,1.5-0.7l2.7,6.8c-1.1,0.3-2.2,0.6-3.6,0.6c-9.6,0.3-10.1-11.3-8.8-18.3l1.5,1.7
						C458.2,475.5,452.9,473.3,449.2,469.3L449.2,469.3z"/>
				</g>
				<g>
					<path class="st1" d="M435.4,434.3l-2.6-5.9c11.1-4.9,14.8-17.6,14.8-17.7l6.2,1.7C453.7,413.1,449.3,428.2,435.4,434.3z"/>
				</g>
				<g>
					<path class="st1" d="M219.5,596l-1.8-5.2c3.4-1.2,5.9-3.4,7.4-6.4c2.1-4.4,2-10.4-0.2-16.5c-3.6-9.9-20.7-23.6-43.8-34.9
						c-8.9-4.3-15.7-5.1-19.9-2.4c-6,3.9-5.6,14.2-5.6,14.3l-5.5,0.3c0-0.5-0.6-13.5,8-19.2c6-4,14.5-3.3,25.4,2
						c24.6,12,42.5,26.6,46.6,38c2.7,7.5,2.7,15.1,0,20.8C228,591.1,224.3,594.3,219.5,596z"/>
				</g>
				<g>
					
						<rect x="153.3" y="537.9" transform="matrix(0.7501 -0.6613 0.6613 0.7501 -315.4622 247.4447)" class="st1" width="32.8" height="6.5"/>
				</g>
				<g>
					
						<rect x="163" y="551.2" transform="matrix(0.7222 -0.6917 0.6917 0.7222 -332.6452 280.766)" class="st1" width="40.4" height="6.5"/>
				</g>
				<g>
					
						<rect x="178.8" y="561.8" transform="matrix(0.6817 -0.7316 0.7316 0.6817 -349.9229 325.7466)" class="st1" width="41.2" height="6.5"/>
				</g>
				<g>
					
						<rect x="199.6" y="575.8" transform="matrix(0.6524 -0.7579 0.7579 0.6524 -363.9098 364.729)" class="st1" width="32" height="6.5"/>
				</g>
				<g>
					<path class="st1" d="M188.6,512.3c5.3,2.3,10.2,5.2,14.9,8.5c2.3,1.6,4.5,3.4,6.6,5.3c2.1,1.9,3.9,3.9,5.6,6.1
						c-6.3-5.1-13.8-8.5-21.6-10.8c-2.5-0.7-5.1-1.5-7.6-1.9C181.1,518.2,183.4,510.5,188.6,512.3L188.6,512.3z"/>
				</g>
				<g>
					<path class="st1" d="M247.3,533.1c-0.9,0-1.8-0.5-2.3-1.3c-21.2-33.6-50.6-24.7-51.9-24.3c-1.4,0.5-3-0.3-3.5-1.8
						s0.3-3,1.8-3.5c0.4-0.1,8.9-2.8,20.3-0.9c10.5,1.8,25.6,8,37.9,27.4c0.8,1.3,0.4,3-0.9,3.8
						C248.3,532.9,247.8,533.1,247.3,533.1z"/>
				</g>
				<g>
					<path class="st1" d="M229.2,405.9c-0.7,0-1.5-0.3-2-0.9c-1.1-1.1-1-2.9,0.1-3.9l12.4-11.9c1.1-1.1,2.9-1,3.9,0.1
						c1.1,1.1,1,2.9-0.1,3.9l-12.4,11.9C230.6,405.7,229.9,405.9,229.2,405.9z"/>
				</g>
				<g class="st0">
					<path class="st1" d="M273.3,417.7c0,0,26.6,41.2,82.9,21.8c56.3-19.4,53.3-48.3,53.3-48.3s-34.7,33.6-71.6,36.5
						S273.3,417.7,273.3,417.7z"/>
				</g>
				<g class="st0">
					<path class="st1" d="M472.6,489.2c0,0-5.3,25.8-28.8,19.1c0,0-11.5-5.5-9.7-24.2c20.2,27.4,30.3-6.8,30.3-6.8l-0.1,6.9
						c21.7-12.8-5.1-33.8-5.1-33.8C432.5,383.3,412,389,412,389l5.6-3.9c7-1.7,17.6-0.2,28.2,17.2c18,29.5,24,44.2,24,44.2
						S496.6,470.8,472.6,489.2z"/>
				</g>
				<g class="st0">
					<path class="st1" d="M219.2,398.8c-10.4,4-11.7,12.1-11.7,12.1L196,424l1.9-3.2c-21.3-10.8-39.6-23.9-53.5-40.5
						c-25.4,4.8-42.4-28.7-26.3-44.8l-0.3-0.3l0.7-0.8c0.8,17.7,11.3,22.4,22.8,25.7l1.6-7.8c1.4,12.8,11.9,13.7,11.9,13.7
						C190.1,398.4,219.2,398.8,219.2,398.8z"/>
				</g>
				<g class="st0">
					<path class="st1" d="M279,514.1h-28.7c0,0-6.1,37.3-14.7,60.6c-8.6,23.3-23,20.3-34.7,16.6c-7.1-2.2-26.3-15.1-38.4-29.5
						c39.6,18,56.9,14.9,42-18.6c0,0,12.6-2.2,13.1-11c0,0,12.4-35,25.7-31c13.4,4,23,1.2,17.4-6.2
						C261.1,495.3,272.6,506.6,279,514.1z"/>
				</g>
				<g class="st0">
					<path class="st1" d="M359.8,499.8l3.1,2.6l-3.1,11.8h-81.4l-21.5-23.9v-5.4l21-9.1c0,0,21.9,15.6,42.1,22.8
						c20.3,7.1,14.5-8.9,14.5-8.9l-7.1-2.7c0,0,20.3-0.2,38-32.3l7.1-1.5C372.3,458.3,370.8,477.8,359.8,499.8z"/>
				</g>
				<g>
					<g>
						<path class="st3" d="M224.8,269.2l-4.5,78.5c-1.1,0-2.2-0.1-3.2-0.2c-12.1-1.8-18.3-14.5-19.3-29.1
							C196.4,297,206.2,271.6,224.8,269.2z"/>
					</g>
					<g>
						<path class="st3" d="M436.3,318c0,60.6-49.9,109.8-111.6,109.8c-21.8,0-42.1-6.2-59.3-16.8l0,0
							c-31.4-19.4-52.2-53.8-52.2-92.9c0-13.6,2.5-26.6,7.1-38.6c15.9-41.6,56.6-71.2,104.5-71.2C386.3,208.2,436.3,257.3,436.3,318
							z"/>
					</g>
					<g class="st0">
						<path class="st1" d="M436.3,318c0,60.6-49.9,109.8-111.6,109.8c-2.9,0-5.9-0.1-8.7-0.3c53.7-7.9,94.8-53.5,94.8-108.5
							c0-57.7-45.3-105-102.8-109.4c5.5-0.8,11-1.2,16.7-1.2C386.3,208.2,436.3,257.3,436.3,318z"/>
					</g>
					<g>
						<path class="st1" d="M401.4,327.3c0,49.9-43.9,90.4-98,90.4c-11.1,0-26.8-2.2-38-6.8l0,0c-31.4-19.4-52.2-53.8-52.2-92.9
							c0-13.6,2.5-26.6,7.1-38.6c17.1-29.6,47.3-42.5,83.1-42.5C357.5,236.9,401.4,277.4,401.4,327.3z"/>
					</g>
					<g class="st7">
						<path class="st8" d="M401.4,327.3c0,49.9-43.9,90.4-98,90.4c-11.1,0-26.8-2.2-38-6.8l0,0c-14.1-8.7-26.1-20.5-35-34.4
							c0.4,0.2,0.7,0.5,1.1,0.7l0,0c15,9.3,32.8,14.7,51.8,14.7c53.8,0,97.4-42.9,97.4-95.8c0-10.3-1.6-20.2-4.7-29.4
							C391.8,282.7,401.4,304,401.4,327.3z"/>
					</g>
					<g>
						<path class="st1" d="M303.4,420.4c-10.9,0-27.2-2.2-39-7c-1.4-0.6-2-2.1-1.4-3.5s2.1-2,3.5-1.4c11.1,4.6,26.6,6.6,37,6.6
							c52.6,0,95.3-39.4,95.3-87.8s-42.8-87.8-95.3-87.8c-37.4,0-65.3,14.3-80.8,41.2c-0.7,1.3-2.3,1.7-3.6,1s-1.7-2.4-1-3.6
							c16.5-28.7,46.1-43.9,85.4-43.9c55.5,0,100.7,41.8,100.7,93.1S358.9,420.4,303.4,420.4z"/>
					</g>
					<g>
						<path class="st1" d="M324.7,431.4c-21.8,0-42.9-6-61.3-17.3l0,0c0,0-0.1,0-0.1-0.1c-33.7-20.9-53.9-56.8-53.9-96
							c0-13.8,2.5-27.2,7.3-39.9c8.2-21.4,22.5-39.7,41.6-52.9c19.5-13.5,42.4-20.6,66.3-20.6c63.5,0,115.2,50.9,115.2,113.4
							C440,380.5,388.3,431.4,324.7,431.4z M267.5,407.9c17.1,10.6,36.9,16.2,57.3,16.2c59.5,0,107.9-47.6,107.9-106.1
							s-48.4-106.1-107.9-106.1c-44.7,0-85.3,27.6-101,68.8c-4.6,11.9-6.9,24.4-6.9,37.3c0,36.7,18.9,70.3,50.5,89.8
							C267.4,407.8,267.4,407.8,267.5,407.9z"/>
					</g>
					<g>
						
							<ellipse transform="matrix(0.189 -0.982 0.982 0.189 5.839 691.818)" class="st3" cx="421.8" cy="342.4" rx="38.2" ry="25.7"/>
					</g>
					<g class="st0">
						<path class="st1" d="M447,347.3c-4,20.7-18.5,35.4-32.4,32.7c-8.5-1.6-14.8-9.3-17.5-19.8c1.8,1.1,3.7,1.9,5.8,2.2
							c13.9,2.7,28.4-12,32.4-32.7c1.6-8.1,1.3-16-0.5-22.7C445,313.3,450.4,329.6,447,347.3z"/>
					</g>
					<g>
						<path class="st1" d="M417.8,384c-1.3,0-2.6-0.1-3.9-0.4c-15.9-3.1-25.3-24-20.9-46.7c2.1-10.7,6.9-20.3,13.5-27
							c7-7.1,15.3-10.1,23.3-8.6s14.5,7.4,18.4,16.6c3.7,8.7,4.6,19.4,2.5,30.1l0,0C446.6,368.8,432.4,384,417.8,384z M425.7,308.2
							c-4.7,0-9.6,2.4-14,6.8c-5.6,5.7-9.7,13.9-11.5,23.2c-3.6,18.7,3.1,35.8,15,38.1c11.9,2.3,24.5-11.1,28.1-29.8
							c1.8-9.3,1.1-18.5-2-25.8c-2.9-6.8-7.5-11.2-13-12.2C427.4,308.3,426.6,308.2,425.7,308.2z M447,347.3L447,347.3L447,347.3z"
							/>
					</g>
					<g>
						<path class="st1" d="M426.1,377.4c-0.8,0-1.7-0.1-2.5-0.2c-5.7-1.1-10.3-5.9-12.8-13.4c-2.3-6.9-2.6-15.5-0.9-24.2
							s5.2-16.5,9.8-22.1c5.1-6.1,11.1-8.8,16.8-7.7c5.7,1.1,10.3,5.9,12.8,13.4c2.3,6.9,2.6,15.5,0.9,24.2s-5.2,16.5-9.8,22.1
							C436,374.7,431,377.4,426.1,377.4z M434.1,316c-3,0-6.4,2-9.5,5.7c-4,4.7-7,11.6-8.4,19.2c-1.5,7.6-1.2,15.1,0.7,20.9
							c1.7,5.2,4.6,8.5,7.9,9.1s7.2-1.4,10.7-5.5c4-4.7,7-11.6,8.4-19.2c1.5-7.6,1.2-15.1-0.7-20.9c-1.7-5.2-4.6-8.5-7.9-9.1
							C434.9,316,434.5,316,434.1,316z"/>
					</g>
					<g>
						<path class="st1" d="M410,307.9c-8.7-34.3-29.6-60.8-59.1-74.5c-29.7-13.8-65.3-13.5-95.2,1l-2.8-5.8
							c31.6-15.3,69.3-15.7,100.7-1.1c31.2,14.5,53.4,42.5,62.6,78.7L410,307.9z"/>
					</g>
					<g>
						<path class="st1" d="M350.4,428c-1.2,0-2.4-0.7-2.9-1.9c-0.7-1.6,0-3.5,1.6-4.3c40.6-18.2,50.7-49.9,50.8-50.3
							c0.5-1.7,2.3-2.7,4-2.2s2.7,2.3,2.2,4c-0.4,1.4-10.9,34.9-54.3,54.3C351.3,427.9,350.8,428,350.4,428z"/>
					</g>
					<g class="st9">
						<path class="st3" d="M293,250.4c-40.8,3.1-78.3,36.6-61.3,93.3c1.7,5.7,9.9,5.4,11.2-0.4c8.4-35.9,24.5-64.8,53.5-82.2
							C301.7,258.1,299.1,250,293,250.4z"/>
					</g>
					<g class="st9">
						<path class="st3" d="M356,355.6c-4.2,7.2-8.9,13.7-14.2,19.6c-4.4,5-1.5,13,5.2,13.7c17.6,2.1,31.1-16.6,23.7-32.7
							C367.9,350.1,359.3,349.7,356,355.6z"/>
					</g>
					<g class="st9">
						<ellipse class="st3" cx="372.6" cy="323.9" rx="10.2" ry="13.7"/>
					</g>
					<g>
						<path class="st1" d="M220.2,351.4c-14.7,0-24.7-12.5-26-32.7c-1.5-23.5,9.6-50.5,30.2-53.1c2-0.3,3.9,1.2,4.1,3.2
							c0.3,2-1.2,3.9-3.2,4.1c-15.9,2-25.1,25.1-23.8,45.3c0.4,6.1,2.9,25.8,18.7,25.8h0.1c2,0,3.7,1.6,3.7,3.7c0,2-1.6,3.7-3.7,3.7
							C220.2,351.4,220.2,351.4,220.2,351.4z"/>
					</g>
					<g class="st0">
						<path class="st1" d="M217.1,347.5c-12.1-1.8-18.3-14.5-19.3-29.1c5.2-3.3,11.3-8.7,16.7-17.6
							C214.5,300.8,212.1,330.2,217.1,347.5z"/>
					</g>
				</g>
				<g>
					
						<rect x="373.4" y="470.6" transform="matrix(0.2833 -0.959 0.959 0.2833 -189.935 704.097)" class="st1" width="5.5" height="17"/>
				</g>
				<g>
					<path class="st1" d="M362.8,549.3c-12.3,0-24.4-6-25.1-6.3c-1.4-0.7-1.9-2.3-1.2-3.7c0.7-1.4,2.3-1.9,3.7-1.2l0,0
						c0.2,0.1,19.7,9.7,32.2,3.9c1.4-0.7,3-0.1,3.7,1.3c0.7,1.4,0.1,3-1.3,3.7C371,548.6,366.9,549.3,362.8,549.3z"/>
				</g>
				<g>
					<path class="st1" d="M427.5,462.6C427.4,462.6,427.4,462.6,427.5,462.6c-7-0.2-12.2-6.8-12.7-15.9c-0.5-8.1,3.2-17.5,12.3-18.9
						c1.5-0.2,2.9,0.8,3.2,2.3c0.2,1.5-0.8,2.9-2.3,3.2c-5.7,0.9-8,7.4-7.6,13.1c0.3,5.1,2.7,10.6,7.3,10.7c1.5,0,2.7,1.3,2.7,2.9
						C430.2,461.4,428.9,462.6,427.5,462.6z"/>
				</g>
				<g class="st0">
					<path class="st1" d="M390.1,474.5c0,0,11.4,3.3,10.2,15.1l17.2-28.5l-18.7-1.3"/>
				</g>
				<g class="st0">
					<path class="st1" d="M396.6,438.5c0,0-0.6,9.1,6.3,10.3h15.2c0,0,15.5,2,20.6-8.6c0,0,4.3,18.3-10,19.5s-32.1,0-32.1,0
						l-3.8-17.8"/>
				</g>
			</g>
		</g>
		<g>
			<g>
				<g class="st0">
					<ellipse class="st1" cx="743.8" cy="745.5" rx="171.8" ry="11.6"/>
				</g>
				<g>
					<g>
						<g>
							<g>
								<g>
									<g>
										<g>
											<path class="st3" d="M831.4,661.7c0,0,6.5-4.6,14.7-11.6c1.6-1.4,3.3-2.8,5-4.3c0.3-0.2,0.5-0.5,0.8-0.7
												c0.8-0.7,1.6-1.5,2.4-2.2c11.7-10.9,23.8-24.4,24.8-35c1.6-17.3-34.5-69.3-57.8-83.3c-6.1-3.7-16.1-1.8-26.4,2
												c-0.1,0-0.1,0.1-0.2,0.1c-7.5,2.8-15.2,6.8-21.5,10.3c-0.6,0.3-1.1,0.6-1.7,0.9c-1.1,0.6-2.1,1.2-3.1,1.8
												c-0.8,0.5-1.5,0.9-2.2,1.3c-5,3-8.1,5.2-8.1,5.2l7.1,11.2l3.6,5.7l6.7,10.6l2,3.2L831.4,661.7z"/>
										</g>
										<g>
											<path class="st10" d="M765.2,557.5l3.6,5.7l49.7,78.2l12.9,20.3c0,0,0.1-0.1,0.4-0.3c0.1-0.1,0.2-0.1,0.3-0.2
												c0.1-0.1,0.2-0.1,0.2-0.2c0.1,0,0.1-0.1,0.2-0.1c0,0,0.1,0,0.1-0.1c0.1-0.1,0.2-0.2,0.4-0.3c0,0,0.1,0,0.1-0.1
												c0.1-0.1,0.2-0.2,0.3-0.3c0.2-0.1,0.3-0.3,0.5-0.4c0.1-0.1,0.3-0.2,0.4-0.3c0.1-0.1,0.3-0.2,0.4-0.3
												c0.2-0.1,0.4-0.3,0.6-0.4c0.4-0.3,0.8-0.6,1.3-1c0.4-0.3,0.8-0.6,1.2-1c0.5-0.4,1-0.8,1.6-1.2c2-1.6,4.3-3.4,6.7-5.5
												c0.5-0.4,0.9-0.8,1.4-1.2c0.3-0.3,0.7-0.6,1-0.9c0.8-0.7,1.7-1.5,2.5-2.2c12.6-11.3,26.9-26.4,28-38
												c1.3-14.3-22.9-52-44.5-72.7c16,20.1,29.5,44.2,28.5,54.9c-0.5,5.3-4.1,11.6-9.2,18c-2.2,2.7-6.4,2-7.6-1.3v-0.1
												c-2.2-5.9-5.4-12.2-10.3-18.9c-10.3-14.2-27.3-33.3-54.8-38.6C780.5,549.1,773.6,552.9,765.2,557.5"/>
										</g>
										<g>
											<path class="st1" d="M830.8,665.1L755,545.7l1.9-1.3c0.1-0.1,11.9-8.1,25.5-14.8c18.9-9.3,32.4-11.6,40.1-7
												c24.3,14.6,60.6,67.3,58.9,85.5c-2,21.9-46.7,54.2-48.6,55.5L830.8,665.1z M761.3,547L832,658.4
												c8.7-6.5,43-33.3,44.7-50.7c0.7-7.4-6.8-23.6-19.1-41.4c-12.6-18.2-27-33.4-37.5-39.7C807.9,519.3,775.2,537.8,761.3,547
												z"/>
										</g>
										<g>
											<path class="st3" d="M850.8,570.5L833.1,585c-1.6,1.3-2.1,3.5-1.2,5.4c3.1,6.8,11.2,22.2,20.4,22.7
												c7.6,0.4,15.2-5.6,17.1-12.8c2.1-8-7.1-22.2-12-29C855.8,569.2,852.8,568.8,850.8,570.5"/>
										</g>
										<g>
											<path class="st10" d="M831.8,590.4c3.1,6.8,11.2,22.2,20.4,22.7c7.6,0.4,15.2-5.6,17.1-12.8c1.3-4.9-1.7-12.2-5.3-18.6
												c1.3,3.6,1.7,7,1.1,9.7c-3,15.8-17.6,9.9-17.6,9.9s0.6,3.5-0.3,4.3c-3.6,3.5-11.7-9.9-15.8-16.9
												C831.5,589.3,831.6,589.8,831.8,590.4"/>
										</g>
										<g>
											<path class="st1" d="M853,615.4c-0.3,0-0.6,0-0.9,0c-10.1-0.6-18.3-15.3-22.4-24c-1.3-2.8-0.5-6.2,1.9-8.1l17.7-14.5
												c1.5-1.2,3.4-1.7,5.2-1.5c1.9,0.2,3.6,1.3,4.7,2.8c6.8,9.5,14.5,22.6,12.3,30.9C869.4,609.1,861.2,615.4,853,615.4z
												 M852.3,572.3l-17.7,14.5c-0.8,0.6-1,1.7-0.6,2.6c6,13,12.9,21,18.4,21.3c6.3,0.4,13-4.7,14.7-11c1.3-5-3-15.1-11.6-27
												c-0.4-0.5-0.9-0.8-1.5-0.9C853.4,571.7,852.8,571.9,852.3,572.3L852.3,572.3z"/>
										</g>
										<g>
											<path class="st1" d="M863.7,611.2c-0.2,0-0.3,0-0.4,0c-0.1,0-0.2,0-0.3,0c-0.2,0-0.4,0-0.6,0c-0.4,0-0.8,0-1.1-0.1
												c-0.7-0.1-1.5-0.2-2.2-0.4c-1.4-0.4-2.8-0.9-4-1.5c-2.5-1.3-4.8-3-6.7-5c-0.5-0.5-0.9-1-1.4-1.5s-0.8-1.1-1.3-1.6
												l-0.6-0.8l-0.6-0.8c-0.4-0.5-0.7-1.1-1.1-1.7c-0.7-1.1-1.4-2.3-2-3.5c-0.3-0.6-0.6-1.2-0.9-1.8c-0.3-0.6-0.5-1.2-0.7-2
												c-0.1-0.3,0.1-0.7,0.4-0.8c0.3-0.1,0.6,0.1,0.7,0.4v0.1c0.2,0.5,0.5,1.1,0.8,1.7c0.3,0.6,0.6,1.1,1,1.6
												c0.7,1.1,1.4,2.1,2.2,3.1c0.4,0.5,0.8,1,1.2,1.5l0.6,0.7l0.6,0.7c0.4,0.5,0.8,1,1.3,1.4s0.9,0.9,1.4,1.3
												c1.9,1.6,4,3,6.2,3.9c1.1,0.5,2.3,0.8,3.4,0.9c0.6,0.1,1.1,0.2,1.7,0.2c0.3,0,0.6,0,0.8,0c0.1,0,0.3,0,0.4,0
												c0.1,0,0.1,0,0.2,0c0.1,0,0.1,0,0.1,0c1.1-0.2,2.2,0.6,2.3,1.7C865.6,610,864.8,611,863.7,611.2"/>
										</g>
										<g>
											<path class="st1" d="M791.1,542.1c2.1-1.9,4.2-3.8,6.4-5.6s4.3-3.6,6.6-5.4c2.2-1.7,4.5-3.5,6.9-5.1s4.8-3.1,7.6-4.4
												c1.2-0.6,2.6-0.1,3.1,1.1s0.1,2.6-1.1,3.1c0,0-0.1,0-0.1,0.1l0,0c-2.4,1-4.9,2.3-7.2,3.6c-2.4,1.4-4.7,2.9-7,4.4
												c-2.3,1.6-4.6,3.2-6.8,4.9s-4.5,3.4-6.6,5.1l0,0c-0.5,0.4-1.3,0.3-1.7-0.2C790.6,543.3,790.7,542.5,791.1,542.1"/>
										</g>
										<g>
											<path class="st3" d="M921,731.4c-5.5,21.7-29.8,20.1-45.3,17.9c-8.1-1.1-10.9-7.8-9.2-13.6c1-3.4,3.6-6.5,7.5-8
												c2.7-5,2.4-8.6,1.9-10.4c-0.2-0.8-0.4-1.2-0.4-1.2c-70.5,12.4-80-44.6-80-44.6l57.4-45.5c2,13.9,6.5,23.1,12.3,29.4
												c13.8,15,34.6,13.1,44.8,19.2c7.3,4.3,11,14,12.5,24.5l0,0C924.2,710.5,923.1,723.1,921,731.4"/>
										</g>
										<g>
											<path class="st10" d="M921,731.4c-5.5,21.7-29.8,20.1-45.3,17.9c-8.1-1.1-10.9-7.8-9.2-13.6c1.5,2.5,4.7,5.2,11.6,6
												c40.2,5,41.8-13.4,44.4-42.6C924.2,710.5,923.1,723.1,921,731.4"/>
										</g>
										<g>
											<path class="st10" d="M876,717.3c-0.2-0.8-0.4-1.2-0.4-1.2c-70.5,12.4-80-44.6-80-44.6L853,626
												c2,13.9,6.5,23.1,12.3,29.4c-7.6,11.9-22.6,39.2-9.1,48.9c18,12.8,46.6-5.3,48.6-5.1C906.6,699.3,895.1,711.9,876,717.3"
												/>
										</g>
										<g>
											<path class="st1" d="M890.5,752.9c-6,0-11.5-0.8-15-1.3c-6.5-0.9-10.9-5.1-11.6-11.1c-0.7-6.1,2.8-12,8.6-14.7
												c1.6-3.3,1.7-5.7,1.5-7.2c-23.1,3.7-42.2,0.4-56.7-9.9c-20-14.1-23.8-36.1-24-37c-0.1-0.8,0.2-1.7,0.9-2.2l57.4-45.5
												c0.7-0.5,1.5-0.6,2.3-0.3s1.3,1,1.4,1.8c4.8,33.7,24.9,38.3,41,42c5.7,1.3,11,2.5,15,4.9c16.7,9.9,16.1,43.6,12,59.4
												C918.8,749.3,903.4,752.9,890.5,752.9z M875.6,713.7c0.8,0,1.6,0.5,2,1.2c0.1,0.2,3,5.6-1.5,13.9
												c-0.3,0.5-0.7,0.9-1.2,1.1c-5,1.9-6.9,6.6-6.5,10.1c0.4,3.8,3.2,6.4,7.6,7c17.3,2.4,37.8,2.8,42.7-16.2
												c3.6-14.2,4.5-45.7-9.9-54.3c-3.4-2-8.2-3.1-13.7-4.4c-16-3.7-37.6-8.7-43.9-41.9l-53.1,42.1c1.1,4.8,6.2,21.6,21.9,32.7
												c13.9,9.8,32.4,12.7,55.2,8.7C875.3,713.7,875.5,713.7,875.6,713.7z M795.6,671.4L795.6,671.4L795.6,671.4z"/>
										</g>
										<g>
											<path class="st1" d="M837.4,717.8c-1.2,0-2.3-1-2.3-2.2c0-1.3,1-2.4,2.2-2.4c12.1-0.5,20.2-8.1,24.9-14.3
												c9.1-12.2,11.8-27.6,9.7-35.8c-0.3-1.3,0.4-2.5,1.7-2.8c1.2-0.3,2.5,0.4,2.8,1.7c2.8,11.1-1.6,27.9-10.5,39.8
												C860.6,708.7,851.4,717.3,837.4,717.8L837.4,717.8z"/>
										</g>
										<g>
											<path class="st3" d="M844.5,670.3c-18.2,21.7-68.7,30.6-93.2,2.6c-5.8-6.6-11-14.2-15.6-22.3s-8.5-16.7-11.9-25.6
												c-8.8-23.5-13.2-48.8-13-70.2c0.5-46.5,32.2-64.8,60.2-25c20.3,28.8,37.8,41.1,52.6,53.1c5.3,4.3,10.3,8.6,14.9,13.7
												c1.8,2,3.6,4.1,5.3,6.4C855.4,618.2,864.4,646.6,844.5,670.3"/>
										</g>
										<g>
											<path class="st10" d="M838.6,596.7c-2.9,4.7-6.8,9.2-9.5,12.6c-6.9,8.3-17,14.9-33.5,21.4c-21.3,8.3-44.7,15.6-59.8,20.1
												c-4.6-8.1-8.5-16.7-11.9-25.6c9.7-13.1,40.4-53.3,47.8-48.2c8.8,6.1-2.5,31.4,27.1,20.6c4.9-1.8,15.6-9.4,24.9-14.4
												C829,587.3,834,591.6,838.6,596.7"/>
										</g>
										<g>
											<path class="st1" d="M794.2,692.8c-18.4,0-34.2-6.5-44.6-18.3c-12.8-14.7-23.5-34.5-30.9-57.3
												c-6.7-20.7-10.3-42.9-10.1-62.4l0,0c0.2-25.1,9.5-43.5,24.1-48.1c13-4.1,27.7,3.9,40.4,21.8
												c17.7,25.2,33.2,37.5,46.8,48.4c9.8,7.9,18.3,14.6,25.9,24.7c10.4,13.8,22.3,44.2,0.5,70.2c-10.5,12.5-30.6,20.8-51.3,21
												C794.7,692.8,794.5,692.8,794.2,692.8z M710.9,554.8h2.3c-0.3,33.8,12,84.7,39.9,116.5c9.6,11,24.5,16.9,41.9,16.7
												c19-0.2,38.2-8,47.8-19.3c19.9-23.7,8.9-51.6-0.7-64.3c-7.3-9.6-15.5-16.2-25.1-23.9c-13.9-11.1-29.6-23.7-47.7-49.4
												c-11.4-16.1-24.2-23.4-35.2-20c-12.4,3.9-20.6,21-20.8,43.7H710.9z"/>
										</g>
										<g>
											<path class="st3" d="M598.7,502.7c18.5,54,77.4,82.7,131.3,64.1c18.2-6.2,33.5-17.1,45.1-30.7
												c11.4-13.4,19.2-29.6,22.7-46.9s2.5-35.8-3.6-53.7c-18.6-54-77.4-82.7-131.3-64.1C608.8,389.9,580.1,448.7,598.7,502.7"
												/>
										</g>
										<g>
											<path class="st10" d="M611.7,528.4c25.8,36.8,73.7,53.7,118.3,38.4c18.2-6.2,33.5-17.1,45.1-30.7
												c0.4-0.4,0.7-0.8,1.1-1.3c0.7-0.9,1.4-1.7,2.1-2.6c0.3-0.4,0.7-0.9,1-1.3c0.3-0.4,0.6-0.9,1-1.3c0.3-0.4,0.6-0.9,1-1.3
												c0.3-0.4,0.6-0.9,0.9-1.4c0.3-0.4,0.5-0.8,0.8-1.2c0.1-0.1,0.1-0.2,0.2-0.3c0.2-0.4,0.5-0.8,0.7-1.1
												c0.8-1.2,1.5-2.4,2.2-3.6c0.3-0.5,0.6-1,0.8-1.5c0.3-0.6,0.7-1.2,1-1.9c0-0.1,0.1-0.2,0.1-0.2c0.3-0.6,0.6-1.2,0.9-1.8
												c1-2,1.9-3.9,2.7-5.9c0.3-0.6,0.5-1.2,0.7-1.8c0.1-0.2,0.1-0.3,0.2-0.5c0.2-0.5,0.4-1,0.6-1.5c0.3-0.7,0.5-1.4,0.8-2.2
												c0.1-0.3,0.2-0.6,0.3-1s0.3-0.9,0.4-1.3V501c0.1-0.4,0.3-0.8,0.4-1.2c0.2-0.7,0.4-1.4,0.7-2.2c0.2-0.7,0.4-1.4,0.6-2.1
												c0.3-1.1,0.6-2.1,0.8-3.2c0.1-0.5,0.2-1.1,0.4-1.6c0.1-0.5,0.2-1.1,0.3-1.6c-0.8-4.9-2.2-9.1-4.1-12.6
												c-13-24.1-47.3-15.9-49.1,25.3c0.3,13.3,4.4,22.8,10.3,28.4c-9.7,7.4-20.7,13.4-32.8,17.6
												C683,561.4,641.6,552.7,611.7,528.4"/>
										</g>
										<g>
											<path class="st1" d="M696.5,574.8c-43.9,0-85-27.6-100-71.3c-9.2-26.7-7.4-55.4,5-80.7c12.4-25.4,33.9-44.4,60.6-53.6
												c26.7-9.2,55.4-7.4,80.7,5c25.4,12.4,44.4,33.9,53.6,60.6l0,0c18.9,55.1-10.5,115.4-65.6,134.3
												C719.4,573,707.9,574.8,696.5,574.8z M696.3,368.1c-10.9,0-21.9,1.8-32.8,5.5c-25.5,8.8-46.1,27-57.9,51.2
												c-11.8,24.2-13.5,51.6-4.8,77.2c18.1,52.7,75.7,80.8,128.4,62.7c52.7-18.1,80.8-75.7,62.7-128.4l0,0
												C777.5,394.4,738.3,368.1,696.3,368.1z"/>
										</g>
										<g>
											<path class="st1" d="M696.5,574.8c-43.9,0-85-27.6-100-71.3c-9.2-26.7-7.4-55.4,5-80.7c12.4-25.4,33.9-44.4,60.6-53.6
												c26.7-9.2,55.4-7.4,80.7,5c25.4,12.4,44.4,33.9,53.6,60.6l0,0c18.9,55.1-10.5,115.4-65.6,134.3
												C719.4,573,707.9,574.8,696.5,574.8z M696.3,368.1c-10.9,0-21.9,1.8-32.8,5.5c-25.5,8.8-46.1,27-57.9,51.2
												c-11.8,24.2-13.5,51.6-4.8,77.2c18.1,52.7,75.7,80.8,128.4,62.7c52.7-18.1,80.8-75.7,62.7-128.4l0,0
												C777.5,394.4,738.3,368.1,696.3,368.1z"/>
										</g>
										<g>
											<path class="st1" d="M765.1,448.3c6.5,48.7-27.9,93.5-76.7,99.9c-48.9,6.5-93.7-27.8-100.2-76.5s27.9-93.5,76.7-99.9
												C713.8,365.3,758.7,399.5,765.1,448.3"/>
										</g>
										<g>
											<path class="st11" d="M688.4,548.2c-44,5.8-84.7-21.4-97.2-62.4c19,20.6,47.5,32,77.5,28c48.9-6.5,83.2-51.2,76.7-99.9
												c-0.6-4.9-1.7-9.6-3.1-14.1c12,13,20.3,29.7,22.8,48.5C771.6,497,737.3,541.7,688.4,548.2"/>
										</g>
										<g>
											<path class="st1" d="M676.4,561.2c-18,0-35.5-4.8-51.3-14c-1.1-0.7-1.5-2.1-0.8-3.2c0.7-1.1,2.1-1.5,3.2-0.8
												c18.8,11.1,40.2,15.4,61.9,12.5c25.6-3.4,48.4-16.5,64.1-37c15.7-20.5,22.5-45.8,19.1-71.4
												c-4.9-36.5-29.6-66.6-64.5-78.6c-1.2-0.4-1.9-1.7-1.5-3c0.4-1.2,1.7-1.9,3-1.5c17.6,6,33.1,16.8,45,31
												c12.2,14.6,20,32.4,22.6,51.4c3.6,26.8-3.5,53.4-20,74.8c-16.5,21.5-40.3,35.2-67.2,38.8
												C685.5,560.9,680.9,561.2,676.4,561.2z"/>
										</g>
										<g>
											<path class="st3" d="M801.6,503.3c-11.4,47.5-59.9,40.1-53.6-6.3C758,446.8,809.9,454.7,801.6,503.3"/>
										</g>
										<g>
											<path class="st10" d="M767.6,535.4c-14.6-2.1-23.6-20.9-19.2-40.9c7.3,22,32.7-10.9,35.1-20.8
												C820.3,486.6,794.3,539.9,767.6,535.4"/>
										</g>
										<g>
											<path class="st1" d="M770.9,537.9c-1.4,0-2.9-0.1-4.2-0.4c-12.9-2.4-24.4-16-21-40.8v-0.1c2.5-12.4,7.7-22.4,15.1-28.8
												c6.6-5.7,14.8-8.2,22.4-6.8c13.1,2.4,25.2,16.9,20.7,42.8v0.1C798.1,527.8,783.5,537.9,770.9,537.9z M750.2,497.4
												c-2.9,21.8,6.6,33.5,17.3,35.5c11.3,2.1,26.1-6.4,31.8-30.1c3.9-22.7-6.1-35.3-17-37.3
												C770,463.2,755.1,473.4,750.2,497.4z M801.6,503.3L801.6,503.3L801.6,503.3z"/>
										</g>
										<g>
											<path class="st3" d="M803.2,503.2c-9.2,38.5-45.7,33.6-40.6-4C770.6,458.1,810.2,463.4,803.2,503.2"/>
										</g>
										<g>
											<path class="st10" d="M803.2,503.2c1-5.8,1.1-10.8,0.4-15.1c-5.5,22.9-28.6,28.3-41,11.3
												C757.6,536.8,793.9,541.6,803.2,503.2"/>
										</g>
										<g>
											<path class="st1" d="M779.1,532.2c-1.1,0-2.1-0.1-3.1-0.3c-9.8-1.8-18.6-12.8-15.8-33v-0.1c4.4-22.5,18.3-32.2,29.7-30.1
												c10.1,1.9,19.3,13.6,15.5,34.9v0.1C800.6,523.7,789,532.2,779.1,532.2z M764.8,499.6c-2.3,17.1,4.4,26.2,12.1,27.7
												c8.3,1.6,19.4-5.5,24-24.5c3.2-18.1-3.9-28-11.8-29.4C779.9,471.6,768.7,480.1,764.8,499.6z M803.2,503.2L803.2,503.2
												L803.2,503.2z"/>
										</g>
										<g class="st9">
											<g>
												<g>
													<path class="st12" d="M741.8,448.1c-0.6,19.4-22.7,19.1-25,2.2C715,428.9,741.1,428.8,741.8,448.1"/>
												</g>
											</g>
										</g>
										<g class="st9">
											<g>
												<g>
													<path class="st12" d="M739,480.2c-0.8,8.5-11.9,8.6-11.9-0.8C727.9,470.9,739,470.9,739,480.2"/>
												</g>
											</g>
										</g>
										<g class="st9">
											<g>
												<g>
													<path class="st12" d="M612.1,466.8c-16.4-73.2,59.6-86.8,83.7-72.4C646.9,400.4,626.8,431.9,612.1,466.8"/>
												</g>
											</g>
										</g>
										<g>
											<path class="st1" d="M907.8,732.1c-2.4-1.5-5-2.7-7.8-3.4c-2.7-0.8-5.6-1.2-8.4-1.3c-5.7-0.2-11.5,0.8-16.8,2.5l0,0
												c-1.2,0.4-2.6-0.3-3-1.5s0.3-2.6,1.5-3h0.1c3-0.8,6.1-1.3,9.2-1.6c3.1-0.3,6.2-0.3,9.3,0s6.1,0.9,9.1,2
												c2.9,1,5.7,2.5,8.2,4.3c0.5,0.4,0.6,1.1,0.3,1.6C909,732.3,908.4,732.4,907.8,732.1L907.8,732.1z"/>
										</g>
										<g>
											<path class="st3" d="M830.6,589.3c0.2,7.8-8.3,20.6-23.6,30.2c-12,7.5-28.2,13.1-47.7,12.7l-15.8-13.8
												c0,0,22.8-0.9,44.3-13.4c10.6-6.1,20.8-15,27.8-28C815.6,577,830.2,573.1,830.6,589.3"/>
										</g>
										<g>
											<path class="st10" d="M807,619.5c-12,7.5-28.2,13.1-47.7,12.7l-15.8-13.8c0,0,22.8-0.9,44.3-13.4
												c-1,3.6-1.4,9.3,4.3,12.6C795.7,619.9,801.2,620.1,807,619.5"/>
										</g>
										<g>
											<path class="st1" d="M761.2,634.5c-0.7,0-1.3,0-2,0c-1.3,0-2.3-1.1-2.3-2.4c0-1.3,1.1-2.3,2.4-2.3
												c32.5,0.6,51.7-15.1,58.5-21.9c7.8-7.9,10.5-14.8,10.4-18.6c-0.1-4.2-1.2-7.2-3.4-8.8c-2.6-1.9-6.1-1.7-7.7-1.5
												c-9,16.1-24.5,28.4-44.7,35.5c-15.5,5.5-28.2,6.1-28.8,6.1c-1.3,0-2.4-0.9-2.4-2.2c-0.1-1.3,0.9-2.4,2.2-2.4
												c0.5,0,49.8-2.6,70.2-40.1c0.3-0.6,0.8-1,1.5-1.1c0.3-0.1,7.4-1.9,12.7,2c3.4,2.5,5.2,6.7,5.3,12.4
												c0.1,6.2-4.3,14.4-11.8,22C814.1,618.3,794.3,634.5,761.2,634.5z"/>
										</g>
										<g>
											<path class="st3" d="M855.2,638.1c0.2,28.3-17.8,38.9-17.8,38.9c-25.7,18.8-61.6,9.2-61.6,9.2s-12,24.5-30.2,36.3
												c-8.3,5.4-18,8.1-28.4,4.6c-24.2-8.2-40-30.3-43.8-48.5c-1.4-6.7-1.2-12.8,0.8-17.5c1-2.4,2.4-4.3,4.4-5.9
												c22.1-17.5,34.3,0,34.3,0c2.3-5.1,4.9-9.8,7.8-14c20.6-29.2,56-34.1,80.8-12.5l51.3-9.8
												C854.4,626.1,855.2,632.5,855.2,638.1"/>
										</g>
										<g>
											<path class="st10" d="M855.2,638.1c0.2,28.3-17.8,38.9-17.8,38.9c-25.7,18.8-61.6,9.2-61.6,9.2s-12,24.5-30.2,36.3
												c-8.3,5.4-18,8.1-28.4,4.6c-24.2-8.2-40-30.3-43.8-48.5c7.3-11.7,15.5-19.8,23.1-15.6c19.6,11.1,25.7,41.8,35.1,37.2
												c10.9-5.2-18.7-45-18.7-45c2.3-5.1,4.9-9.8,7.8-14c4.2,18,13.7,48.4,30,46.2c21.1-2.8,19-24.3,26.4-30.2
												C791.1,645.8,846.1,687.6,855.2,638.1"/>
										</g>
										<g>
											<path class="st13" d="M745.5,722.5c-8.3,5.4-18,8.1-28.4,4.6c-22.4-7.5-37.5-27-42.7-44.3c-2.5-8.3-2.7-16.1-0.3-21.8
												c4.7-4.9,11.8-8.7,20.6-2.3c5.7,4.1,9.9,10.2,13.5,17.1C718.7,696.2,723.6,723,745.5,722.5L745.5,722.5z"/>
										</g>
										<g>
											<path class="st14" d="M745.5,722.5c-8.3,5.4-18,8.1-28.4,4.6c-22.4-7.5-37.5-27-42.7-44.3c6.6,11.2,18.5,27.6,29.8,25.5
												c11.6-2.2,6-25.5,4-32.5C718.7,696.2,723.6,723,745.5,722.5L745.5,722.5z"/>
										</g>
										<g>
											<path class="st1" d="M726.5,731c-3.4,0-6.8-0.6-10.2-1.7c-17.9-6-33.4-20.3-41.4-38.3c-5.3-11.7-6.4-23-3-30.8
												c0.1-0.3,0.3-0.5,0.5-0.7c7.2-7.5,15.6-8.4,23.7-2.6c10.1,7.2,15.6,20.1,20.9,32.6c7.1,16.7,13.3,31.1,28.5,30.8
												c1,0,2,0.7,2.3,1.7s-0.1,2.1-1,2.7C740,728.8,733.2,731,726.5,731z M676,662.4c-2.6,6.6-1.4,16.5,3.2,26.7
												c7.5,16.8,22,30.2,38.6,35.8c6.5,2.2,13.3,1.9,20.1-1c-13-3.8-19.3-18.4-25.3-32.7c-5-11.9-10.3-24.1-19.3-30.6
												C687.2,656.3,681.5,656.9,676,662.4z"/>
										</g>
										<g>
											<path class="st1" d="M673.3,681c-0.4,0-0.8-0.1-1.2-0.3c-1.1-0.7-1.4-2.1-0.8-3.2c0.1-0.2,10.7-16.9,33.5-10.7
												c1.2,0.3,2,1.6,1.6,2.9c-0.3,1.2-1.6,2-2.9,1.6c-19.3-5.3-27.9,8-28.3,8.6C674.8,680.6,674,681,673.3,681z"/>
										</g>
										<g>
											<path class="st1" d="M680.8,699.6c-0.5,0-1-0.2-1.4-0.5c-1-0.8-1.2-2.2-0.5-3.3c0.5-0.7,13-17.1,34.2-12.6
												c1.3,0.3,2.1,1.5,1.8,2.8s-1.5,2.1-2.8,1.8c-18.3-3.9-29.1,10.2-29.5,10.8C682.2,699.3,681.5,699.6,680.8,699.6z"/>
										</g>
										<g>
											<path class="st1" d="M692.1,713.9c-0.6,0-1.2-0.2-1.6-0.6c-0.9-0.9-1-2.4-0.1-3.3c0.5-0.6,13.1-13.6,30.8-8.9
												c1.2,0.3,2,1.6,1.7,2.9c-0.3,1.2-1.6,2-2.9,1.7c-15-3.9-25.8,7.1-26.2,7.6C693.3,713.6,692.7,713.9,692.1,713.9z"/>
										</g>
										<g>
											<path class="st1" d="M708.4,725.7c-0.6,0-1.3-0.3-1.8-0.8c-0.9-1-0.8-2.4,0.2-3.3c0.5-0.4,11.8-10.3,24.9-6.3
												c1.2,0.4,1.9,1.7,1.6,2.9c-0.4,1.2-1.7,1.9-2.9,1.5c-10.6-3.2-20.4,5.2-20.5,5.3C709.5,725.6,708.9,725.7,708.4,725.7z"
												/>
										</g>
										<g>
											<path class="st1" d="M854.9,618.5c1.3,5.3,2.2,10.7,2.6,16.2c0.3,5.5,0,11.1-1.1,16.5s-3.2,10.7-6.1,15.5
												c-1.5,2.4-3.2,4.6-5.1,6.7c-1,1-2,2-3,3c-0.5,0.5-1.1,0.9-1.7,1.4c-0.3,0.2-0.6,0.4-0.9,0.6l-0.5,0.3
												c-0.2,0.1-0.3,0.2-0.5,0.3l0.2-0.1c-4.5,3.3-9.5,5.9-14.7,7.7c-5.2,1.9-10.7,3.1-16.1,3.7c-5.5,0.6-11,0.8-16.4,0.4
												c-2.7-0.2-5.5-0.4-8.2-0.8c-1.4-0.2-2.7-0.4-4.1-0.7c-1.4-0.3-2.7-0.5-4.1-0.9l2.7-1.2c-1,2.1-2.1,4-3.2,5.9
												c-1.1,1.9-2.3,3.8-3.5,5.7c-2.4,3.7-5.1,7.3-8,10.7s-6,6.7-9.4,9.7s-7.1,5.7-11.2,7.8c-4.1,2.1-8.6,3.6-13.3,4
												s-9.5-0.3-13.9-1.9c-8.5-3-16.4-7.9-23-14s-12.2-13.4-16.2-21.5c-2-4-3.7-8.3-4.7-12.7c-1.1-4.4-1.7-9.1-1.2-13.8
												c0.2-2.4,0.8-4.7,1.8-7s2.5-4.4,4.4-6.1c0.2-0.2,0.5-0.4,0.7-0.6l0.7-0.5c0.5-0.3,0.9-0.7,1.4-1c0.9-0.7,1.9-1.3,2.9-1.9
												c2-1.2,4.1-2.3,6.3-3.1s4.6-1.4,7-1.6c2.4-0.2,4.9,0,7.3,0.6c2.4,0.6,4.7,1.7,6.7,3c1,0.7,2,1.4,2.9,2.3
												c0.4,0.4,0.9,0.8,1.3,1.3c0.2,0.2,0.4,0.5,0.6,0.7l0.3,0.4c0.1,0.1,0.2,0.2,0.3,0.4l-4.3,0.4c3.8-8.5,8.9-16.5,15.5-23.2
												s14.7-12,23.7-15s18.8-3.5,28-1.3c4.6,1.1,9,2.8,13.1,5c4.1,2.3,7.9,5,11.2,8.2c0.5,0.4,0.5,1.2,0,1.7
												c-0.4,0.4-1.1,0.5-1.6,0.1c-3.5-2.8-7.2-5.2-11.2-7.1c-4-1.9-8.2-3.3-12.4-4.1c-2.1-0.4-4.3-0.7-6.5-0.8s-4.3-0.1-6.5,0
												c-4.3,0.3-8.6,1.2-12.7,2.6c-8.2,2.8-15.7,7.8-21.8,14c-6.1,6.3-10.9,13.8-14.4,21.9c-0.6,1.3-2,1.8-3.3,1.3
												c-0.4-0.2-0.7-0.4-1-0.8l-0.1-0.1l-0.2-0.2l-0.2-0.3c-0.1-0.2-0.3-0.4-0.5-0.5c-0.3-0.3-0.7-0.7-1-1
												c-0.7-0.7-1.5-1.3-2.3-1.8c-1.6-1.1-3.3-1.9-5.2-2.4c-3.7-1-7.6-0.6-11.4,0.8c-1.9,0.7-3.7,1.6-5.5,2.6
												c-0.9,0.5-1.7,1.1-2.6,1.7c-0.4,0.3-0.8,0.6-1.3,0.9L680,657c-0.2,0.2-0.4,0.3-0.5,0.4c-1.4,1.2-2.4,2.7-3.2,4.4
												s-1.2,3.6-1.4,5.6c-0.4,4,0.1,8.1,1,12.2c1,4,2.5,8,4.4,11.8c3.8,7.5,9,14.4,15.2,20.1c6.2,5.7,13.5,10.2,21.4,13
												c1,0.4,1.9,0.7,2.9,0.9c1,0.3,2,0.4,3,0.6c2,0.3,4,0.3,6,0.2c4-0.3,7.9-1.6,11.6-3.5c3.7-1.9,7.1-4.4,10.3-7.1
												c3.2-2.8,6.1-5.9,8.8-9.1c2.7-3.3,5.3-6.7,7.6-10.3c1.2-1.8,2.3-3.6,3.4-5.5c1.1-1.8,2.1-3.7,3.1-5.6
												c0.5-1,1.6-1.5,2.7-1.2c1.2,0.3,2.5,0.6,3.7,0.8c1.3,0.2,2.6,0.4,3.9,0.6c2.6,0.4,5.2,0.6,7.8,0.8
												c5.2,0.3,10.4,0.2,15.6-0.4c5.2-0.6,10.2-1.7,15.1-3.5c4.8-1.7,9.4-4.1,13.6-7.1h0.1l0.1-0.1l0.3-0.2l0.4-0.2
												c0.2-0.2,0.5-0.4,0.7-0.5c0.5-0.4,1-0.8,1.4-1.2c0.9-0.8,1.8-1.7,2.7-2.6c1.7-1.8,3.2-3.9,4.5-6c2.6-4.3,4.5-9.1,5.5-14
												c1-5,1.4-10.1,1.1-15.3c-0.3-5.1-1.2-10.3-2.4-15.3c-0.3-1.3,0.4-2.5,1.7-2.8C853.3,616.4,854.6,617.2,854.9,618.5
												L854.9,618.5z"/>
										</g>
										<g>
											<path class="st1" d="M775.7,688.5c-0.1,0-0.3,0-0.5,0c-1.3-0.2-2.1-1.5-1.8-2.7c4.1-20.8-2.9-35.8-9.5-44.7
												c-7.9-10.7-17.7-16.3-22-17.2c-1.3-0.3-2-1.5-1.8-2.8c0.3-1.3,1.5-2,2.8-1.8c5.1,1.2,15.9,7.2,24.7,19
												c7.1,9.6,14.7,25.8,10.3,48.3C777.8,687.7,776.8,688.5,775.7,688.5z"/>
										</g>
										<g>
											<rect x="575.6" y="509" class="st15" width="131.1" height="124"/>
										</g>
										<g class="st7">
											<g>
												<g>
													<rect x="575.6" y="509" class="st3" width="131.1" height="7.8"/>
												</g>
											</g>
										</g>
										<g>
											<path class="st16" d="M706.7,547.5V633H575.6v-84.1c0,0,18.5,47.8,68.7,44.6C673.3,591.6,694.9,565.9,706.7,547.5"/>
										</g>
										<g>
											<path class="st1" d="M706.6,635.4h-131c-1.3,0-2.3-1-2.3-2.3V509c0-1.3,1-2.3,2.3-2.3h131c1.3,0,2.3,1,2.3,2.3v124
												C709,634.3,707.9,635.4,706.6,635.4z M577.9,630.7h126.4V511.3H577.9V630.7z"/>
										</g>
										<g>
											<rect x="629.9" y="509" class="st3" width="22.3" height="39.9"/>
										</g>
										<g class="st7">
											<g>
												<g>
													<rect x="629.8" y="509" class="st3" width="22.3" height="7.8"/>
												</g>
											</g>
										</g>
										<g>
											<rect x="629.9" y="601.3" class="st3" width="22.3" height="31.6"/>
										</g>
										<g>
											<path class="st1" d="M652.1,551.3h-22.3c-1.3,0-2.3-1-2.3-2.3v-40c0-1.3,1-2.3,2.3-2.3h22.3c1.3,0,2.3,1,2.3,2.3v39.9
												C654.5,550.2,653.4,551.3,652.1,551.3z M632.2,546.6h17.6v-35.3h-17.6V546.6z"/>
										</g>
										<g>
											<path class="st1" d="M652.1,635.3h-22.3c-1.3,0-2.3-1-2.3-2.3v-31.6c0-1.3,1-2.3,2.3-2.3h22.3c1.3,0,2.3,1,2.3,2.3V633
												C654.5,634.2,653.4,635.3,652.1,635.3z M632.2,630.6h17.6v-26.9h-17.6V630.6z"/>
										</g>
										<g>
											<polygon class="st15" points="575.6,509 575.6,633 545.7,621.3 545.7,520.7 											"/>
										</g>
										<g class="st7">
											<g>
												<g>
													<polygon class="st3" points="575.6,509 575.6,516.8 545.7,526.5 545.7,520.7 													"/>
												</g>
											</g>
										</g>
										<g>
											<path class="st16" d="M575.6,553.6V633l-29.9-11.7v-65.1c0,0,4.3,38.1,13.6,37.8C571.2,593.6,575.6,553.6,575.6,553.6"/>
										</g>
										<g>
											<path class="st1" d="M575.6,635.4c-0.3,0-0.6-0.1-0.9-0.2l-29.9-11.7c-0.9-0.4-1.5-1.2-1.5-2.2V520.7
												c0-1,0.6-1.8,1.5-2.2l29.9-11.7c0.7-0.3,1.5-0.2,2.2,0.2c0.6,0.4,1,1.2,1,1.9v124c0,0.8-0.4,1.5-1,1.9
												C576.5,635.2,576.1,635.4,575.6,635.4z M548,619.7l25.2,9.9V512.4l-25.2,9.9V619.7z"/>
										</g>
										<g>
											<path class="st3" d="M781.5,547.9l-9.8,28.9l-5.1,14.9c0,0-14.8,27.2-37.9,44.9c-25.8,19.7-55.9,20.8-74.4,17.6
												c-36.2-6.2-38-21.1-38-21.1c23.1,0.4,34.4-2.1,36-11c0.8-4.2-16.5-10.1-6.9-21.5c8.7-0.9,32,12.8,32,12.8
												c40.7-13.1,34.8-51.1,57.9-68.3C758.9,527.5,781.5,547.9,781.5,547.9"/>
										</g>
										<g>
											<path class="st10" d="M771.7,576.8l-5.1,14.9c0,0-14.8,27.2-37.9,44.9c-25.8,19.7-55.9,20.8-74.4,17.6
												c-36.2-6.2-38-21.1-38-21.1c23.1,0.4,34.4-2.1,36-11c-1.4,13.2-11.9,16.3-3.7,20.9c11.6,6.5,51.5,5,77.5-14.3
												c22.8-17,28.2-55.5,40.5-53.8C768.6,575.1,770.3,575.8,771.7,576.8"/>
										</g>
										<g>
											<path class="st1" d="M780.7,548.7c-1.1-0.8-2.4-1.6-3.6-2.3c-1.2-0.7-2.5-1.4-3.8-2s-2.6-1.2-3.9-1.7
												c-0.7-0.2-1.3-0.5-2-0.7s-1.3-0.4-2-0.6c-5.4-1.4-11.1-1.7-16.4-0.4c-5.3,1.3-10.3,4.2-14.5,7.9s-7.3,8.4-10.1,13.5
												c-2.7,5.1-5,10.5-7.6,16c-1.3,2.7-2.6,5.4-4.1,8.1c-1.5,2.7-3.1,5.3-4.9,7.8c-1.8,2.5-3.8,4.9-6,7.1
												c-2.2,2.2-4.6,4.2-7.2,6c-5.1,3.5-10.8,6.2-16.7,8l0,0c-0.6,0.2-1.3,0.1-1.9-0.2c-2.4-1.4-5-2.8-7.5-4.1
												s-5.1-2.6-7.7-3.8c-2.6-1.2-5.2-2.3-7.8-3.1c-1.3-0.4-2.6-0.8-3.9-1.1c-1.3-0.3-2.6-0.4-3.6-0.3l1.5-0.8
												c-0.8,0.9-1.4,1.9-1.9,2.9c-0.4,1-0.6,1.9-0.5,2.9c0.1,0.9,0.5,1.9,1.1,2.8c0.6,1,1.4,1.9,2.3,2.8
												c0.9,0.9,1.9,1.8,2.9,2.8c0.5,0.5,1.1,1,1.6,1.6s1.1,1.3,1.6,2.5c0.1,0.3,0.2,0.7,0.2,1.1c0,0.2,0,0.4,0,0.6v0.3v0.2v0.1
												c-0.1,0.4-0.2,0.8-0.3,1.2c-0.2,0.8-0.6,1.6-1,2.4c-0.8,1.5-2,2.8-3.3,3.8c-2.7,2-5.6,3-8.4,3.7
												c-2.9,0.7-5.7,1.1-8.5,1.3c-5.6,0.5-11.2,0.5-16.8,0.4l0,0l2.4-2.6l0,0v0.1c0,0.1,0,0.1,0.1,0.2l0.2,0.5
												c0.2,0.3,0.3,0.7,0.5,1s0.4,0.7,0.6,1l0.7,1c0.6,0.6,1.1,1.3,1.7,1.9l0.9,0.9l1,0.8c0.3,0.3,0.7,0.6,1,0.8l1.1,0.7
												l1.1,0.8c0.4,0.2,0.8,0.4,1.2,0.7l1.2,0.7l0.6,0.3c0.2,0.1,0.4,0.2,0.6,0.3l2.5,1.2c6.7,2.9,14.1,4.6,21.4,5.9
												c3.7,0.6,7.4,1,11.1,1.2l2.8,0.1c0.5,0,0.9,0,1.4,0h1.4h2.8l2.8-0.2c1.9-0.1,3.7-0.3,5.6-0.5c0.9-0.1,1.8-0.3,2.8-0.4
												l2.8-0.4l2.7-0.6l1.4-0.3c0.5-0.1,0.9-0.2,1.4-0.3l2.7-0.7l1.3-0.4c0.4-0.1,0.9-0.3,1.3-0.4c7.1-2.1,14-5.1,20.3-9
												l2.4-1.5l0.6-0.4l0.6-0.4l1.1-0.8c1.5-1.1,3.1-2.1,4.5-3.3c1.5-1.2,2.9-2.3,4.3-3.6l2.1-1.9c0.7-0.6,1.4-1.3,2-1.9
												c5.4-5.2,10.4-10.8,15-16.8c1.1-1.5,2.3-3,3.4-4.5l1.7-2.3c0.6-0.8,1.1-1.5,1.7-2.3l6.7-9.1l0,0c0.4-0.5,1.1-0.6,1.6-0.2
												c0.4,0.3,0.6,0.9,0.4,1.4c-0.7,1.8-1.6,3.6-2.5,5.3c-0.5,0.8-0.9,1.7-1.4,2.5l-1.5,2.5c-2,3.3-4.2,6.5-6.6,9.6
												c-4.7,6.2-9.8,12-15.3,17.5c-0.7,0.7-1.4,1.4-2.1,2l-2.2,2c-1.4,1.3-3,2.5-4.5,3.8s-3.1,2.4-4.7,3.5l-1.2,0.9l-0.6,0.4
												l-0.6,0.4l-2.5,1.6c-6.7,4.1-13.9,7.3-21.4,9.6c-0.5,0.1-0.9,0.3-1.4,0.4l-1.4,0.4l-2.8,0.7c-0.5,0.1-1,0.2-1.4,0.3
												l-1.4,0.3l-2.9,0.6l-2.9,0.4c-1,0.1-1.9,0.3-2.9,0.4c-1.9,0.2-3.9,0.5-5.8,0.5l-2.9,0.2h-2.9h-1.5c-0.5,0-1,0-1.5,0
												l-2.9-0.1c-3.9-0.2-7.8-0.6-11.7-1.2c-1.9-0.4-3.8-0.7-5.7-1.1c-1-0.2-1.9-0.4-2.8-0.7l-2.8-0.7
												c-0.5-0.1-0.9-0.2-1.4-0.4l-1.4-0.5l-2.8-0.9c-0.5-0.1-0.9-0.3-1.4-0.5l-1.4-0.5l-1.4-0.5c-0.5-0.2-0.9-0.4-1.4-0.6
												l-2.7-1.3c-0.2-0.1-0.5-0.2-0.7-0.3l-0.7-0.4l-1.3-0.8c-0.4-0.3-0.9-0.5-1.3-0.8l-1.3-0.9l-1.3-0.9
												c-0.4-0.3-0.8-0.6-1.2-1l-1.2-1l-1.1-1.1c-0.8-0.7-1.4-1.6-2.1-2.4c-0.3-0.4-0.6-0.9-0.9-1.3c-0.3-0.4-0.5-1-0.8-1.4
												c-0.3-0.5-0.5-1-0.7-1.6l-0.3-0.9c0-0.1-0.1-0.3-0.1-0.5l-0.1-0.2l-0.1-0.4c-0.2-1.2,0.6-2.4,1.9-2.6c0.1,0,0.3,0,0.4,0
												h0.1l0,0c5.5,0.1,10.9,0.1,16.3-0.4c2.7-0.2,5.3-0.6,7.8-1.2c2.5-0.6,4.9-1.5,6.7-2.8c0.9-0.7,1.6-1.5,2.1-2.4
												c0.2-0.5,0.5-0.9,0.6-1.4c0.1-0.2,0.1-0.5,0.2-0.8l0,0l0,0c0,0,0,0,0,0.1v0.1v0.1c0-0.1-0.3-0.5-0.7-0.9
												s-0.8-0.9-1.3-1.3c-1-0.9-2-1.9-3.1-2.9c-1-1.1-2.1-2.2-2.9-3.6c-0.9-1.4-1.6-3-1.8-4.9c-0.2-1.8,0.2-3.7,0.9-5.2
												c0.7-1.6,1.6-2.9,2.6-4.1l0,0c0.4-0.5,1-0.7,1.5-0.8c1.9-0.2,3.5,0.1,5,0.4c1.5,0.3,3,0.8,4.4,1.2c2.9,1,5.6,2.1,8.3,3.3
												s5.3,2.5,7.9,3.9c2.6,1.4,5.2,2.7,7.7,4.2l0,0l-1.9-0.2c5.4-1.8,10.6-4.4,15.2-7.6c2.3-1.7,4.4-3.5,6.4-5.5
												c1.9-2,3.8-4.2,5.4-6.5c1.6-2.3,3.1-4.8,4.5-7.3s2.7-5.2,3.9-7.8c2.5-5.3,4.8-10.9,7.7-16.2c1.5-2.7,3.1-5.3,4.9-7.8
												c1.9-2.5,3.9-4.9,6.3-7c2.4-2.1,5-3.9,7.8-5.4s5.8-2.7,8.9-3.4c3.1-0.7,6.3-1,9.5-0.8s6.3,0.8,9.3,1.8s5.8,2.3,8.4,3.9
												c1.3,0.8,2.6,1.7,3.8,2.6c1.2,0.9,2.4,1.9,3.5,3.1c0.4,0.5,0.4,1.2,0,1.7C781.8,549,781.2,549.1,780.7,548.7L780.7,548.7
												z"/>
										</g>
										<g>
											<path class="st3" d="M712.7,655.2c0,0,11.8,13.9,18.7,29.4"/>
										</g>
										<g>
											<path class="st1" d="M714.5,653.7c1.9,2.4,3.6,4.8,5.2,7.2c1.7,2.4,3.2,4.9,4.8,7.5c1.5,2.5,3,5.1,4.3,7.7
												c1.4,2.6,2.6,5.3,3.7,8c0.2,0.6,0,1.3-0.6,1.5s-1.2,0-1.5-0.6l0,0c-1.3-2.6-2.6-5.1-4.1-7.6s-3-4.9-4.7-7.2
												c-1.6-2.4-3.4-4.7-5.1-7c-1.8-2.3-3.6-4.5-5.5-6.6l0,0c-0.9-1-0.8-2.4,0.2-3.3c1-0.9,2.4-0.8,3.3,0.2
												C714.4,653.6,714.4,653.7,714.5,653.7"/>
										</g>
										<g>
											<path class="st1" d="M735.1,633.6c-0.1,0-0.1,0-0.2,0c-1.3-0.1-2.2-1.3-2.1-2.5c2.6-27.4-25.6-36.8-26.8-37.2
												s-1.9-1.7-1.5-2.9s1.7-1.9,2.9-1.5c0.3,0.1,8.3,2.7,16,9.1c10.4,8.6,15.2,20,14,33C737.3,632.7,736.2,633.6,735.1,633.6z
												"/>
										</g>
										<g>
											<path class="st1" d="M875.1,713.7c1.3-0.2,2.7-0.5,4-0.9c1.3-0.3,2.7-0.7,4-1.2c2.7-0.9,5.3-1.9,7.8-3.1
												c1.2-0.6,2.5-1.3,3.7-2s2.3-1.5,3.4-2.3c1.1-0.8,2.1-1.7,3.1-2.7s1.8-2,2.6-3.1l0,0c0.4-0.5,1.1-0.6,1.6-0.3
												c0.5,0.4,0.6,1,0.3,1.6c-0.8,1.3-1.7,2.5-2.7,3.6s-2.1,2.2-3.2,3.2c-1.1,1-2.3,1.9-3.5,2.8c-1.2,0.8-2.5,1.6-3.8,2.4
												c-2.6,1.5-5.3,2.8-8,3.9c-1.4,0.6-2.8,1.1-4.2,1.5c-1.4,0.5-2.8,0.9-4.3,1.3c-1.3,0.3-2.5-0.5-2.8-1.7
												c-0.3-1.3,0.5-2.5,1.7-2.8C875,713.8,875,713.8,875.1,713.7L875.1,713.7z"/>
										</g>
									</g>
								</g>
							</g>
						</g>
					</g>
				</g>
			</g>
			<g>
				<g>
					<defs>
						<rect id="SVGID_1_" x="590.7" y="565.5" width="100.7" height="16.8"/>
					</defs>
					<clipPath id="SVGID_00000157265747423446817530000008024575549720066472_">
						<use xlink:href="#SVGID_1_"  style="overflow:visible;"/>
					</clipPath>
					
						<g id="Grupo_1_00000028313639241846130430000001158579926146602665_" style="clip-path:url(#SVGID_00000157265747423446817530000008024575549720066472_);">
						<path id="Trazado_1_00000033332483211228341170000005558795166564779700_" class="st1" d="M594.2,581.9h-3.5v-16.2h5.7
							c1.5,0,2.9,0.2,4,0.7s1.9,1.1,2.5,2s0.9,1.9,0.9,3.2s-0.3,2.4-0.9,3.3s-1.4,1.6-2.5,2c-1.1,0.5-2.4,0.7-3.8,0.7h-3.2l0.5-3.2
							h2.6c0.8,0,1.5-0.1,2-0.3s1-0.5,1.3-0.9s0.4-0.9,0.4-1.6c0-0.6-0.1-1.1-0.4-1.5c-0.3-0.4-0.7-0.7-1.3-0.9s-1.2-0.3-2-0.3h-2.3
							V581.9z"/>
						
							<rect id="Rectngulo_1_00000088849992327588530660000011051198176980230289_" x="606.5" y="565.8" class="st1" width="3.5" height="16.2"/>
						<path id="Trazado_2_00000002357184617470702460000012959359342625255854_" class="st1" d="M621.1,582.3
							c-1.1,0-2.3-0.2-3.3-0.6c-1-0.4-1.9-1-2.7-1.8s-1.4-1.7-1.8-2.7c-0.4-1-0.6-2.2-0.6-3.3s0.2-2.2,0.6-3.3c0.4-1,1-1.9,1.8-2.7
							s1.7-1.4,2.7-1.8c1-0.4,2.2-0.7,3.3-0.6c0.9,0,1.8,0.2,2.7,0.5s1.7,0.8,2.4,1.4c0.7,0.6,1.3,1.3,1.6,2.2l-2.9,1.6
							c-0.4-0.7-0.9-1.3-1.6-1.7c-0.6-0.4-1.5-0.6-2.4-0.6c-0.6,0-1.3,0.1-1.9,0.4c-0.6,0.2-1.1,0.6-1.5,1.1s-0.8,1-1,1.6
							c-0.2,0.7-0.3,1.3-0.3,2s0.1,1.4,0.3,2s0.5,1.1,0.9,1.6s0.9,0.8,1.5,1.1s1.2,0.4,1.9,0.4c1,0,1.8-0.2,2.4-0.6
							c0.6-0.4,1.2-1,1.6-1.7l2.9,1.6c-0.4,0.8-0.9,1.6-1.6,2.2c-0.7,0.6-1.5,1.1-2.4,1.4C623,582.1,622,582.3,621.1,582.3"/>
						<path id="Trazado_3_00000002361045035926818080000014363815754602246846_" class="st1" d="M636.3,582.3
							c-1.4,0-2.7-0.3-3.8-0.9c-1.1-0.6-2-1.5-2.4-2.6l2.9-1.5c0.2,0.6,0.7,1,1.2,1.3c0.6,0.3,1.3,0.5,2.1,0.5
							c0.5,0,0.9-0.1,1.4-0.2c0.4-0.1,0.7-0.3,0.9-0.6s0.4-0.6,0.4-1s-0.1-0.8-0.4-1c-0.3-0.2-0.6-0.4-1.1-0.5
							c-0.4-0.1-1-0.2-1.5-0.3c-0.6-0.1-1.2-0.3-1.9-0.4c-0.7-0.2-1.3-0.5-1.9-0.8c-0.6-0.3-1.1-0.8-1.4-1.4
							c-0.4-0.6-0.5-1.4-0.5-2.2c0-1,0.3-1.8,0.8-2.6c0.5-0.7,1.2-1.3,2.1-1.8c0.9-0.4,1.9-0.7,3-0.7c1.3,0,2.6,0.3,3.6,0.9
							c1.1,0.6,1.9,1.5,2.4,2.6l-2.9,1.5c-0.3-0.5-0.7-1-1.2-1.3s-1.2-0.5-2-0.5c-0.4,0-0.8,0.1-1.2,0.2c-0.3,0.1-0.6,0.3-0.8,0.6
							c-0.2,0.2-0.3,0.6-0.3,0.9c0,0.4,0.1,0.8,0.4,1s0.6,0.4,1.1,0.6c0.5,0.1,1,0.2,1.6,0.4c0.6,0.1,1.2,0.3,1.9,0.4
							c0.6,0.2,1.2,0.5,1.8,0.8c0.6,0.4,1,0.8,1.4,1.4c0.4,0.6,0.5,1.4,0.5,2.3c0,0.9-0.3,1.8-0.8,2.6c-0.6,0.8-1.3,1.4-2.2,1.8
							C638.5,582.1,637.4,582.3,636.3,582.3"/>
						<path id="Trazado_4_00000009584323222252548650000001849963554376455041_" class="st1" d="M648.2,582h-3.5v-16.2h6.2
							c1.2,0,2.3,0.2,3.3,0.6c1,0.4,1.8,0.9,2.3,1.7c0.6,0.8,0.9,1.7,0.9,2.9c0,0.9-0.2,1.7-0.6,2.4c-0.4,0.7-1,1.3-1.7,1.6
							c-0.7,0.4-1.6,0.6-2.6,0.6l-0.9-0.7c0.9,0,1.7,0.1,2.3,0.4c0.6,0.3,1.1,0.7,1.4,1.3c0.5,0.7,0.9,1.4,1.2,2.2l1.6,3.2h-3.8
							l-1.4-2.9c-0.2-0.4-0.5-0.9-0.8-1.3c-0.3-0.3-0.6-0.6-1-0.8s-0.9-0.3-1.5-0.3h-1.7v-3.1h3.1c0.5,0,1-0.1,1.5-0.3
							c0.4-0.2,0.8-0.5,1-0.8c0.3-0.4,0.4-0.8,0.4-1.3s-0.1-1-0.4-1.3c-0.3-0.3-0.6-0.6-1-0.7c-0.5-0.2-0.9-0.2-1.4-0.2h-2.8
							L648.2,582z"/>
						<path id="Trazado_5_00000045607872133710678600000011967901599752987321_" class="st1" d="M667.8,582.3
							c-1.1,0-2.3-0.2-3.3-0.6c-1-0.4-1.9-1-2.7-1.8s-1.4-1.7-1.8-2.7c-0.4-1-0.6-2.2-0.6-3.3s0.2-2.2,0.6-3.3c0.4-1,1-1.9,1.8-2.7
							s1.7-1.4,2.7-1.8c1-0.4,2.2-0.7,3.3-0.6c0.9,0,1.8,0.2,2.7,0.5s1.7,0.8,2.4,1.4c0.7,0.6,1.3,1.3,1.6,2.2l-2.9,1.6
							c-0.4-0.7-0.9-1.3-1.6-1.7c-0.6-0.4-1.5-0.6-2.4-0.6c-0.6,0-1.3,0.1-1.9,0.4c-0.6,0.2-1.1,0.6-1.5,1.1s-0.8,1-1,1.6
							c-0.2,0.7-0.3,1.3-0.3,2s0.1,1.4,0.3,2s0.5,1.1,0.9,1.6s0.9,0.8,1.5,1.1s1.2,0.4,1.9,0.4c1,0,1.8-0.2,2.4-0.6
							c0.6-0.4,1.2-1,1.6-1.7l2.9,1.6c-0.4,0.8-0.9,1.6-1.6,2.2c-0.7,0.6-1.5,1.1-2.4,1.4C669.6,582.1,668.7,582.3,667.8,582.3"/>
						<path id="Trazado_6_00000062907875656389391990000001022493617412371875_" class="st1" d="M680.5,582H677v-16.2h3.5v6.5h7.4
							v-6.5h3.5V582h-3.5v-6.4h-7.4V582z"/>
					</g>
				</g>
			</g>
		</g>
	</g>
	<g class="st0">
		<ellipse class="st1" cx="483.6" cy="647.8" rx="68.3" ry="4.6"/>
	</g>
	<g>
		<g>
			<g>
				<g>
					<g>
						<g>
							<g>
								<g>
									<rect x="435.5" y="591.7" class="st15" width="60.1" height="56.9"/>
								</g>
								<g class="st7">
									<g>
										<g>
											<rect x="435.5" y="591.7" class="st3" width="60.1" height="3.6"/>
										</g>
									</g>
								</g>
								<g>
									<path class="st16" d="M495.5,609.3v39.2h-60.1V610c0,0,8.5,21.9,31.5,20.4C480.3,629.6,490.1,617.8,495.5,609.3"/>
								</g>
								<g>
									<path class="st1" d="M495.5,649.6h-60.1c-0.6,0-1.1-0.5-1.1-1.1v-56.9c0-0.6,0.5-1.1,1.1-1.1h60.1c0.6,0,1.1,0.5,1.1,1.1
										v56.9C496.6,649.1,496.1,649.6,495.5,649.6z M436.5,647.5h57.9v-54.7h-57.9V647.5z"/>
								</g>
								<g>
									<rect x="460.3" y="591.7" class="st3" width="10.2" height="18.3"/>
								</g>
								<g class="st7">
									<g>
										<g>
											<rect x="460.3" y="591.7" class="st3" width="10.2" height="3.6"/>
										</g>
									</g>
								</g>
								<g>
									<rect x="460.3" y="634" class="st3" width="10.2" height="14.5"/>
								</g>
								<g>
									<path class="st1" d="M470.5,611.1h-10.2c-0.6,0-1.1-0.5-1.1-1.1v-18.3c0-0.6,0.5-1.1,1.1-1.1h10.2c0.6,0,1.1,0.5,1.1,1.1
										V610C471.6,610.6,471.1,611.1,470.5,611.1z M461.4,608.9h8.1v-16.2h-8.1V608.9z"/>
								</g>
								<g>
									<path class="st1" d="M470.5,649.6h-10.2c-0.6,0-1.1-0.5-1.1-1.1V634c0-0.6,0.5-1.1,1.1-1.1h10.2c0.6,0,1.1,0.5,1.1,1.1
										v14.5C471.6,649.1,471.1,649.6,470.5,649.6z M461.4,647.4h8.1V635h-8.1V647.4z"/>
								</g>
								<g>
									<polygon class="st15" points="435.5,591.7 435.5,648.5 421.8,643.2 421.8,597 									"/>
								</g>
								<g class="st7">
									<g>
										<g>
											<polygon class="st3" points="435.5,591.7 435.5,595.3 421.8,599.7 421.8,597 											"/>
										</g>
									</g>
								</g>
								<g>
									<path class="st16" d="M435.5,612.1v36.4l-13.7-5.4v-29.9c0,0,2,17.5,6.2,17.3C433.4,630.5,435.5,612.1,435.5,612.1"/>
								</g>
								<g>
									<path class="st1" d="M435.5,649.6c-0.1,0-0.3,0-0.4-0.1l-13.7-5.4c-0.4-0.2-0.7-0.6-0.7-1V597c0-0.4,0.3-0.8,0.7-1
										l13.7-5.4c0.3-0.1,0.7-0.1,1,0.1c0.3,0.2,0.5,0.5,0.5,0.9v56.9c0,0.4-0.2,0.7-0.5,0.9C435.9,649.6,435.7,649.6,435.5,649.6
										z M422.8,642.5l11.6,4.5v-53.7l-11.6,4.5V642.5z"/>
								</g>
							</g>
						</g>
					</g>
				</g>
			</g>
		</g>
		<g>
			<g>
				<defs>
					<rect id="SVGID_00000096757829603831421580000008004230629845732012_" x="442.4" y="617.6" width="46.2" height="7.7"/>
				</defs>
				<clipPath id="SVGID_00000163784608641928124560000009126587218785082034_">
					<use xlink:href="#SVGID_00000096757829603831421580000008004230629845732012_"  style="overflow:visible;"/>
				</clipPath>
				
					<g id="Grupo_1_00000133525586214538014960000006333576820976852652_" style="clip-path:url(#SVGID_00000163784608641928124560000009126587218785082034_);">
					<path id="Trazado_1_00000109713092672073912090000005503769070552381332_" class="st1" d="M444,625.1h-1.6v-7.4h2.6
						c0.7,0,1.3,0.1,1.8,0.3s0.9,0.5,1.2,0.9c0.3,0.4,0.4,0.9,0.4,1.5s-0.1,1.1-0.4,1.5s-0.6,0.7-1.1,0.9s-1.1,0.3-1.8,0.3h-1.5
						l0.2-1.5h1.2c0.4,0,0.7,0,0.9-0.1c0.2-0.1,0.4-0.2,0.6-0.4s0.2-0.4,0.2-0.7s-0.1-0.5-0.2-0.7s-0.3-0.3-0.6-0.4
						c-0.3-0.1-0.6-0.1-0.9-0.1h-1L444,625.1L444,625.1z"/>
					
						<rect id="Rectngulo_1_00000106833128086101318490000009239080838511647418_" x="449.6" y="617.7" class="st1" width="1.6" height="7.4"/>
					<path id="Trazado_2_00000041985057339303491620000004232588539614266757_" class="st1" d="M456.3,625.3c-0.5,0-1-0.1-1.5-0.3
						s-0.9-0.5-1.2-0.8c-0.4-0.4-0.6-0.8-0.8-1.2c-0.2-0.5-0.3-1-0.3-1.5s0.1-1,0.3-1.5c0.2-0.5,0.5-0.9,0.8-1.2
						c0.4-0.4,0.8-0.6,1.2-0.8c0.5-0.2,1-0.3,1.5-0.3c0.4,0,0.8,0.1,1.2,0.2c0.4,0.1,0.8,0.4,1.1,0.6c0.3,0.3,0.6,0.6,0.7,1
						l-1.3,0.7c-0.2-0.3-0.4-0.6-0.7-0.8c-0.3-0.2-0.7-0.3-1.1-0.3c-0.3,0-0.6,0.1-0.9,0.2c-0.3,0.1-0.5,0.3-0.7,0.5
						s-0.3,0.5-0.4,0.7c-0.1,0.3-0.2,0.6-0.2,0.9c0,0.3,0,0.6,0.2,0.9c0.1,0.3,0.2,0.5,0.4,0.7c0.2,0.2,0.4,0.4,0.7,0.5
						c0.3,0.1,0.6,0.2,0.9,0.2c0.4,0,0.8-0.1,1.1-0.3c0.3-0.2,0.5-0.5,0.7-0.8l1.3,0.7c-0.2,0.4-0.4,0.7-0.7,1
						c-0.3,0.3-0.7,0.5-1.1,0.6C457.2,625.2,456.8,625.3,456.3,625.3"/>
					<path id="Trazado_3_00000023972874053484878660000008275625794640639374_" class="st1" d="M463.3,625.3c-0.7,0-1.2-0.1-1.8-0.4
						c-0.5-0.3-0.9-0.7-1.1-1.2l1.3-0.7c0.1,0.3,0.3,0.5,0.6,0.6c0.3,0.1,0.6,0.2,1,0.2c0.2,0,0.4,0,0.6-0.1s0.3-0.1,0.4-0.3
						c0.1-0.1,0.2-0.3,0.2-0.4c0-0.2-0.1-0.4-0.2-0.5s-0.3-0.2-0.5-0.2c-0.2-0.1-0.4-0.1-0.7-0.1c-0.3-0.1-0.6-0.1-0.9-0.2
						c-0.3-0.1-0.6-0.2-0.9-0.4s-0.5-0.4-0.6-0.7c-0.2-0.3-0.2-0.6-0.2-1s0.1-0.8,0.4-1.2c0.2-0.3,0.6-0.6,1-0.8s0.9-0.3,1.4-0.3
						c0.6,0,1.2,0.1,1.7,0.4c0.5,0.3,0.9,0.7,1.1,1.2l-1.3,0.7c-0.1-0.2-0.3-0.4-0.5-0.6c-0.2-0.1-0.6-0.2-0.9-0.2
						c-0.2,0-0.4,0-0.5,0.1s-0.3,0.1-0.4,0.3c-0.1,0.1-0.1,0.3-0.1,0.4c0,0.2,0.1,0.4,0.2,0.5s0.3,0.2,0.5,0.3s0.5,0.1,0.7,0.2
						c0.3,0.1,0.6,0.1,0.9,0.2c0.3,0.1,0.6,0.2,0.8,0.4c0.3,0.2,0.5,0.4,0.6,0.7c0.2,0.3,0.2,0.6,0.2,1s-0.1,0.8-0.4,1.2
						c-0.3,0.3-0.6,0.6-1,0.8C464.3,625.2,463.8,625.3,463.3,625.3"/>
					<path id="Trazado_4_00000037656595310331600720000017109421366693040278_" class="st1" d="M468.8,625.1h-1.6v-7.4h2.9
						c0.6,0,1.1,0.1,1.5,0.3s0.8,0.4,1.1,0.8c0.3,0.3,0.4,0.8,0.4,1.3c0,0.4-0.1,0.8-0.3,1.1c-0.2,0.3-0.5,0.6-0.8,0.8
						s-0.7,0.3-1.2,0.3l-0.4-0.3c0.4,0,0.8,0.1,1,0.2c0.3,0.1,0.5,0.3,0.7,0.6s0.4,0.7,0.6,1l0.7,1.5h-1.7L471,624
						c-0.1-0.2-0.2-0.4-0.4-0.6c-0.1-0.2-0.3-0.3-0.5-0.4c-0.2-0.1-0.4-0.1-0.7-0.1h-0.8v-1.4h1.4c0.2,0,0.5,0,0.7-0.1
						s0.3-0.2,0.5-0.4c0.1-0.2,0.2-0.4,0.2-0.6c0-0.2-0.1-0.5-0.2-0.6c-0.1-0.2-0.3-0.3-0.5-0.3c-0.2-0.1-0.4-0.1-0.7-0.1h-1.3
						L468.8,625.1z"/>
					<path id="Trazado_5_00000043422734988828421060000007585750362972518584_" class="st1" d="M477.7,625.3c-0.5,0-1-0.1-1.5-0.3
						s-0.9-0.5-1.2-0.8c-0.4-0.4-0.6-0.8-0.8-1.2c-0.2-0.5-0.3-1-0.3-1.5s0.1-1,0.3-1.5c0.2-0.5,0.5-0.9,0.8-1.2
						c0.4-0.4,0.8-0.6,1.2-0.8c0.5-0.2,1-0.3,1.5-0.3c0.4,0,0.8,0.1,1.2,0.2c0.4,0.1,0.8,0.4,1.1,0.6c0.3,0.3,0.6,0.6,0.7,1
						l-1.3,0.7c-0.2-0.3-0.4-0.6-0.7-0.8c-0.3-0.2-0.7-0.3-1.1-0.3c-0.3,0-0.6,0.1-0.9,0.2c-0.3,0.1-0.5,0.3-0.7,0.5
						s-0.3,0.5-0.4,0.7c-0.1,0.3-0.2,0.6-0.2,0.9c0,0.3,0,0.6,0.2,0.9c0.1,0.3,0.2,0.5,0.4,0.7c0.2,0.2,0.4,0.4,0.7,0.5
						c0.3,0.1,0.6,0.2,0.9,0.2c0.4,0,0.8-0.1,1.1-0.3c0.3-0.2,0.5-0.5,0.7-0.8l1.3,0.7c-0.2,0.4-0.4,0.7-0.7,1
						c-0.3,0.3-0.7,0.5-1.1,0.6C478.6,625.2,478.1,625.3,477.7,625.3"/>
					<path id="Trazado_6_00000060728166003442039430000011483061582672502460_" class="st1" d="M483.5,625.1h-1.6v-7.4h1.6v3h3.4v-3
						h1.6v7.4h-1.6v-3h-3.4V625.1z"/>
				</g>
			</g>
		</g>
	</g>
</g>
<g>
	<defs>
		<rect id="SVGID_00000054983302356827611110000000631951020548450213_" x="874.1" y="363.7" width="14.7" height="14.7"/>
	</defs>
	<clipPath id="SVGID_00000072267639286386965010000016177080586619776955_">
		<use xlink:href="#SVGID_00000054983302356827611110000000631951020548450213_"  style="overflow:visible;"/>
	</clipPath>
	
		<g id="Grupo_2499" transform="translate(0 0)" style="clip-path:url(#SVGID_00000072267639286386965010000016177080586619776955_);">
		<path id="Trazado_149003" class="st20" d="M888.8,371c0,0.7-0.5,1.3-1.2,1.4c-2.4,0.4-4.3,2.3-4.7,4.8c-0.1,0.7-0.7,1.2-1.4,1.2
			c-0.7,0.1-1.3-0.4-1.4-1.1c-0.4-2.5-2.4-4.4-4.8-4.8c-0.7-0.1-1.2-0.7-1.1-1.3c0,0,0-0.1,0-0.1c0.1-0.6,0.5-1.1,1.1-1.3
			c2.5-0.5,4.4-2.4,4.9-4.9c0.3-0.5,0.8-0.9,1.4-1c0.7-0.1,1.3,0.3,1.4,1c0,0,0,0.1,0,0.1c0.4,2.5,2.4,4.4,4.8,4.8
			C888.4,369.7,888.8,370.3,888.8,371 M881.4,372.7l1.8-1.7l-1.7-1.8c-0.7,0.6-1.3,1.2-1.9,1.7C880.2,371.6,880.9,372.2,881.4,372.7
			"/>
	</g>
</g>
<g>
	<defs>
		<rect id="SVGID_00000005976973313590402190000009190528380468759174_" x="604.7" y="316.9" width="14" height="13.9"/>
	</defs>
	<clipPath id="SVGID_00000092435887536663458180000008882487158544227235_">
		<use xlink:href="#SVGID_00000005976973313590402190000009190528380468759174_"  style="overflow:visible;"/>
	</clipPath>
	
		<g id="Grupo_2499_00000093178438456563456160000016091760759217640591_" transform="translate(0 0)" style="clip-path:url(#SVGID_00000092435887536663458180000008882487158544227235_);">
		<path id="Trazado_149003_00000036211096916194749910000002669475629733891465_" class="st22" d="M618.7,323.9
			c0,0.7-0.5,1.2-1.1,1.3c-2.3,0.4-4.1,2.2-4.5,4.5c-0.1,0.7-0.7,1.1-1.3,1.1c-0.7,0-1.3-0.4-1.4-1.1c-0.4-2.3-2.2-4.2-4.6-4.6
			c-0.6-0.1-1.1-0.6-1-1.3c0,0,0-0.1,0-0.1c0.1-0.6,0.5-1,1-1.3c2.4-0.5,4.2-2.3,4.7-4.7c0.3-0.5,0.7-0.9,1.3-1
			c0.6-0.1,1.2,0.3,1.3,1c0,0,0,0.1,0,0.1c0.4,2.3,2.2,4.2,4.6,4.6C618.3,322.7,618.7,323.3,618.7,323.9 M611.6,325.5l1.7-1.6
			l-1.6-1.7c-0.6,0.6-1.3,1.1-1.8,1.6C610.6,324.4,611.1,325,611.6,325.5"/>
	</g>
</g>
<g>
	<defs>
		<rect id="SVGID_00000137100707139202146130000016185763120317277071_" x="301" y="97.1" width="14" height="13.9"/>
	</defs>
	<clipPath id="SVGID_00000182506553209603633870000005949968278363210663_">
		<use xlink:href="#SVGID_00000137100707139202146130000016185763120317277071_"  style="overflow:visible;"/>
	</clipPath>
	
		<g id="Grupo_2499_00000166664470980941064170000004705128172705381025_" transform="translate(0 0)" style="clip-path:url(#SVGID_00000182506553209603633870000005949968278363210663_);">
		<path id="Trazado_149003_00000149348662576067459850000006935740026699143300_" class="st22" d="M315,104.1c0,0.7-0.5,1.2-1.1,1.3
			c-2.3,0.4-4.1,2.2-4.5,4.5c-0.1,0.7-0.7,1.1-1.3,1.1c-0.7,0-1.3-0.4-1.4-1.1c-0.4-2.3-2.2-4.2-4.6-4.6c-0.6-0.1-1.1-0.6-1-1.3
			c0,0,0-0.1,0-0.1c0.1-0.6,0.5-1,1-1.3c2.4-0.5,4.2-2.3,4.6-4.7c0.3-0.5,0.7-0.9,1.3-1c0.6-0.1,1.2,0.3,1.3,1c0,0,0,0.1,0,0.1
			c0.4,2.3,2.2,4.2,4.6,4.6C314.6,102.9,315,103.5,315,104.1 M307.9,105.7l1.7-1.6l-1.6-1.7c-0.6,0.6-1.3,1.1-1.8,1.6
			C306.9,104.7,307.4,105.3,307.9,105.7"/>
	</g>
</g>
</svg>
