<?xml version="1.0" encoding="utf-8"?>
<!-- Generator: Adobe Illustrator 28.2.0, SVG Export Plug-In . SVG Version: 6.00 Build 0)  -->
<svg version="1.1" id="Capa_1" xmlns="http://www.w3.org/2000/svg" xmlns:xlink="http://www.w3.org/1999/xlink" x="0px" y="0px"
	 viewBox="0 0 976 976" style="enable-background:new 0 0 976 976;" xml:space="preserve">
<style type="text/css">
	.st0{fill:#FFFFFF;}
	.st1{opacity:0.35;}
	.st2{fill:#371F48;}
	.st3{fill:#49A5F1;}
	.st4{fill:#3C1847;}
	.st5{fill:#0E1A29;}
	.st6{opacity:0.7;}
	.st7{fill:#949EAD;}
	.st8{opacity:0.3;}
	.st9{fill:#651850;}
	.st10{fill:#F6F0EA;}
	.st11{fill:#FF00FA;}
	.st12{opacity:0.44;fill:url(#SVGID_1_);}
	.st13{fill:#C8C1BC;}
	.st14{opacity:0.44;fill:url(#SVGID_00000026142516562834127200000003369881963195533484_);}
	.st15{fill:#F6EDE7;}
	.st16{fill:#8718ED;}
	.st17{opacity:0.79;}
	.st18{fill:#90CCDE;}
	.st19{fill:#F6F6F6;}
	.st20{fill:#0060ED;}
</style>
<g>
	<g>
		<g>
			<g>
				<g>
					<g>
						<path class="st0" d="M623.76,423.67c0,0,84.9-6.51,109.87,10.78c45,31.15,57.62,199.76,22.67,259.52
							c-25.65,43.87-182.87,21.23-182.87,21.23"/>
					</g>
					<g class="st1">
						<path class="st2" d="M756.31,693.97c-25.65,43.86-182.88,21.22-182.88,21.22l13.78-79.82c34.2,4.04,151.66,14.97,173.53-22.42
							c6.82-11.65,11.83-27.45,15.13-45.55C778.32,616.65,772.27,666.68,756.31,693.97z"/>
					</g>
					<g>
						<path class="st2" d="M657.31,725.95c-0.69,0-1.38,0-2.08,0c-42.36-0.18-82.1-5.83-82.5-5.89c-2.68-0.39-4.55-2.87-4.16-5.56
							s2.89-4.55,5.56-4.16c42.82,6.16,158.27,14.79,177.94-18.84c34.31-58.66,20.42-224.17-21.23-253
							c-19.3-13.36-83.57-11.69-106.7-9.92c-2.71,0.2-5.06-1.82-5.27-4.52c-0.21-2.7,1.82-5.06,4.52-5.27
							c3.54-0.27,86.94-6.43,113.04,11.64c22.12,15.31,38.35,61.17,43.42,122.67c3.85,46.76,0.81,108.98-19.3,143.37
							C749.1,716.03,714.36,725.95,657.31,725.95z"/>
					</g>
					<g>
						<path class="st0" d="M771.78,573.28l-43.6,3.37c-3.89,0.3-7.09,3.18-7.78,7.03c-2.51,14.07-6.63,46.88,7.08,57.68
							c11.38,8.96,29.82,7.87,40.6-1.3c12.06-10.26,13.17-42.43,12.94-58.35C780.95,576.75,776.72,572.9,771.78,573.28z"/>
					</g>
					<g class="st1">
						<path class="st2" d="M720.41,583.68c-2.52,14.07-6.63,46.88,7.08,57.67c11.38,8.97,29.81,7.87,40.6-1.3
							c7.41-6.31,10.69-20.91,12.06-34.92c-1.95,7-5.02,12.69-8.85,16.42c-21.93,21.4-38.39-3.74-38.39-3.74s-2.83,6.12-5.1,6.47
							c-9.49,1.47-7.59-28.24-6.25-43.59C720.99,581.59,720.6,582.59,720.41,583.68z"/>
					</g>
					<g>
						<path class="st2" d="M746.63,652.45c-8.06,0-16.04-2.39-22.19-7.24c-15.27-12.03-12.11-44.26-8.87-62.4
							c1.08-6.04,6.11-10.59,12.24-11.06l43.6-3.37c3.71-0.28,7.39,0.98,10.13,3.48c2.74,2.5,4.34,6.06,4.39,9.77
							c0.32,22.39-1.96,51.35-14.67,62.16C764.5,649.54,755.51,652.45,746.63,652.45z M772.16,578.17l-43.6,3.37
							c-1.67,0.13-3.03,1.36-3.33,2.99c-4.78,26.79-2.81,46.59,5.28,52.96c9.28,7.31,25.03,6.77,34.38-1.19
							c7.42-6.31,11.62-26.7,11.21-54.54c-0.01-1.02-0.44-1.97-1.19-2.65C774.17,578.43,773.19,578.09,772.16,578.17L772.16,578.17z
							"/>
					</g>
					<g>
						<path class="st2" d="M747.2,651.32c-0.96-0.55-1.45-0.93-2.09-1.4c-0.59-0.46-1.16-0.92-1.69-1.41
							c-1.08-0.97-2.06-1.99-2.97-3.07c-1.8-2.15-3.4-4.43-4.64-6.87c-2.58-4.83-4.13-10.02-4.9-15.22c-0.33-2.6-0.61-5.2-0.63-7.79
							c-0.13-2.61,0-5.1,0.09-7.65c0.12-2.54,0.33-5.08,0.67-7.62c0.38-2.57,0.74-4.99,1.69-7.67c0.24-0.67,0.98-1.02,1.65-0.79
							c0.63,0.22,0.98,0.88,0.83,1.51l-0.04,0.17c-0.51,2.1-0.69,4.67-0.78,7.06c-0.08,2.43-0.03,4.88,0.11,7.33
							c0.27,4.93,0.8,9.74,1.95,14.33c1.16,4.59,2.99,8.93,5.53,12.68c1.22,1.91,2.71,3.59,4.26,5.11c0.78,0.76,1.61,1.46,2.46,2.07
							c0.42,0.32,0.85,0.6,1.28,0.87c0.38,0.24,0.94,0.54,1.08,0.58c2.31,0.71,3.61,3.16,2.9,5.47c-0.71,2.31-3.16,3.61-5.47,2.9
							c-0.31-0.09-0.59-0.22-0.86-0.37L747.2,651.32z"/>
					</g>
					<g>
						<path class="st2" d="M674.92,454.2c-1.86,0-3.64-1.06-4.47-2.87c-1.13-2.47-0.05-5.38,2.42-6.51
							c39.81-18.23,64.2-12.79,65.22-12.55c2.64,0.62,4.27,3.27,3.65,5.91c-0.62,2.63-3.26,4.27-5.88,3.65
							c-0.31-0.07-22.53-4.75-58.89,11.91C676.3,454.06,675.6,454.2,674.92,454.2z"/>
					</g>
				</g>
				<g>
					<path class="st0" d="M450.12,454.7c0,0-38.99,117.06-146,154.85v71.81h146V454.7z"/>
				</g>
				<g>
					<path class="st0" d="M450.12,454.69v226.65h-146v-71.81C411.13,571.76,450.12,454.69,450.12,454.69z"/>
				</g>
				<g class="st1">
					<path class="st2" d="M450.12,500.48v180.87H321.27C415.32,634.64,450.12,500.48,450.12,500.48z"/>
				</g>
				<g>
					<path class="st2" d="M455.03,686.26H299.21v-80.19l3.27-1.16c103.42-36.52,142.59-150.62,142.98-151.77l9.57-28.64V686.26z
						 M309.03,676.44h136.18V479.1c-5.4,11.33-13.24,25.94-23.9,41.61c-21.09,31-57.56,71.87-112.28,92.27V676.44z"/>
				</g>
				<g>
					<path class="st0" d="M723.74,681.34H405.58c0,0,17.52-88.06,33.42-183.12c2.47-14.73,4.9-29.63,7.22-44.4
						c19.35-123.28,203.72-42.89,203.72-42.89s7.21,9.86,17.11,29.3C687.57,480.44,719.69,561.65,723.74,681.34z"/>
				</g>
				<g>
					<path class="st2" d="M728.82,686.26H399.59l1.17-5.87c0.23-1.17,23.55-118.65,40.6-227.32c4.45-28.34,17.69-48.73,39.35-60.62
						c60.87-33.41,166.73,12.04,171.2,13.99l1.22,0.53l0.78,1.07c0.71,0.97,17.52,24.25,35.25,69.73
						c16.28,41.79,36.35,110.99,39.48,203.4L728.82,686.26z M411.55,676.44h307.09c-6.58-160.55-64.61-250.78-71.91-261.53
						c-12.09-5.01-108.03-43.11-161.31-13.85c-18.85,10.35-30.41,28.36-34.36,53.53C436.15,549.59,416.48,651.28,411.55,676.44z"/>
				</g>
				<g>
					<g class="st1">
						<path class="st2" d="M556.26,694.68c-0.5,2.66-0.97,5.28-1.4,7.86C555.28,699.96,555.75,697.34,556.26,694.68z"/>
					</g>
					<g class="st1">
						<path class="st2" d="M434.95,577.62c-2.98,26.82-4.71,50.07-5.07,69.46C429.39,629.02,431.15,605.71,434.95,577.62z"/>
					</g>
					<g>
						<circle class="st0" cx="420.34" cy="617.02" r="22.83"/>
					</g>
					<g class="st1">
						<path class="st2" d="M397.52,617.61c0.33,12.6,10.8,22.56,23.4,22.23c12.6-0.33,22.56-10.82,22.23-23.42
							c-0.09-3.48-0.96-6.78-2.45-9.7c-3.46,7.8-11.19,13.36-20.29,13.59c-9.1,0.24-17.11-4.91-20.96-12.52
							C398.12,610.79,397.43,614.13,397.52,617.61z"/>
					</g>
					<g>
						<path class="st2" d="M420.33,643.86c-14.48,0-26.45-11.59-26.83-26.15l0,0c-0.19-7.17,2.43-13.98,7.37-19.18
							c4.94-5.2,11.6-8.17,18.77-8.35c7.2-0.18,13.98,2.43,19.18,7.37c5.2,4.94,8.17,11.6,8.35,18.77
							c0.39,14.8-11.34,27.15-26.14,27.54C420.8,643.86,420.56,643.86,420.33,643.86z M420.35,598.21c-0.17,0-0.33,0-0.5,0.01
							c-5.02,0.13-9.69,2.21-13.15,5.85c-3.46,3.64-5.29,8.41-5.16,13.44c0.27,10.37,8.96,18.53,19.29,18.31
							c10.37-0.27,18.58-8.92,18.31-19.29c-0.13-5.02-2.21-9.69-5.85-13.15C429.76,600.04,425.18,598.21,420.35,598.21z"/>
					</g>
					<g>
						<g class="st1">
							<path class="st2" d="M431.4,639.26c3.9-25.63,4.64-49.39,3.56-70.53c-0.52,12.21-1.68,25.03-3.72,38.38
								c-2.37,15.65-3.1,31.99-1.65,48.03C429.99,649.8,430.61,644.49,431.4,639.26z"/>
						</g>
						<g>
							<path class="st0" d="M453.37,683.46l119.2,6.13c14.11,0.73,26.26-10.22,26.99-24.35l3.26-63.43
								c0.64-12.37-7.69-23.21-19.25-26.2c-1.64-0.44-3.34-0.69-5.1-0.78l-119.18-6.13c-14.13-0.73-26.27,10.22-26.99,24.35
								l-2.59,50.24l-0.68,13.19C428.29,670.6,439.26,682.73,453.37,683.46z"/>
						</g>
						<g class="st1">
							<path class="st2" d="M453.37,683.46l119.2,6.13c14.11,0.73,26.26-10.22,26.99-24.35l3.26-63.43
								c0.64-12.37-7.69-23.21-19.25-26.2c-7,4.15-11.45,6.8-11.45,6.8c-8.42,50.62-24.22,75.26-87.5,73.05
								c-27.31-0.96-44.33-6.01-54.91-12.17l-0.68,13.19C428.29,670.6,439.26,682.73,453.37,683.46z"/>
						</g>
						<g>
							<path class="st2" d="M573.9,694.54c-0.53,0-1.06-0.01-1.59-0.04h0l-119.19-6.13c-8.14-0.42-15.64-4-21.13-10.09
								c-5.49-6.09-8.28-13.92-7.87-22.06l3.26-63.44c0.87-16.86,15.31-29.85,32.14-29l119.19,6.13c16.86,0.87,29.87,15.29,29,32.14
								l-3.26,63.44c-0.42,8.14-4,15.64-10.09,21.13C588.68,691.76,581.46,694.54,573.9,694.54z M572.81,684.69
								c11.43,0.6,21.24-8.25,21.83-19.7l3.26-63.44c0.59-11.45-8.25-21.24-19.7-21.83l-119.19-6.13
								c-5.52-0.29-10.84,1.62-14.97,5.35c-4.14,3.73-6.57,8.83-6.86,14.35l-3.26,63.44c-0.28,5.52,1.62,10.84,5.35,14.97
								c3.73,4.14,8.83,6.57,14.35,6.86L572.81,684.69L572.81,684.69z"/>
						</g>
						<g>
							<path class="st0" d="M448.61,682.75c1.53,0.4,3.11,0.64,4.76,0.72l119.2,6.13c10.34,0.53,19.62-5.2,24.13-13.88
								c1.64-3.15,2.66-6.7,2.84-10.47l1.46-28.18l0.48-9.3l1.33-25.95c0.73-14.13-10.24-26.26-24.35-26.99l-25.76-1.32
								c11.76,2.85,20.26,13.78,19.62,26.27l-1.75,34.26l-1.5,29.19c-0.73,14.11-12.88,25.08-26.99,24.35L448.61,682.75z"/>
						</g>
						<g class="st1">
							<path class="st2" d="M448.61,682.75c1.53,0.4,3.11,0.64,4.76,0.72l119.2,6.13c14.11,0.73,26.26-10.22,26.97-24.35l1.94-37.48
								c-3.34,6.47-9.14,14.32-17.8,14.73c-4.75,0.24-9.23-3.41-13.09-8.45l-1.5,29.19c-0.73,14.11-12.88,25.08-26.99,24.35
								L448.61,682.75z"/>
						</g>
						<g>
							<path class="st2" d="M573.92,694.54c-0.53,0-1.07-0.01-1.61-0.04l-119.2-6.13c-1.91-0.09-3.84-0.37-5.72-0.85l1.47-9.66
								l93.49,4.81c5.51,0.28,10.82-1.61,14.96-5.34c4.14-3.74,6.57-8.83,6.86-14.35l3.26-63.44c0.51-9.96-6.16-18.9-15.87-21.26
								l1.41-9.67l25.75,1.32c8.14,0.42,15.65,4.01,21.14,10.09c5.49,6.09,8.28,13.92,7.86,22.06l-3.26,63.44
								c-0.41,8.14-4,15.64-10.08,21.14C588.68,691.76,581.47,694.54,573.92,694.54z M564.28,684.25l8.54,0.44
								c5.51,0.29,10.82-1.61,14.96-5.35c4.14-3.74,6.57-8.83,6.86-14.35v0l3.26-63.44c0.29-5.52-1.61-10.83-5.34-14.97
								c-3.73-4.14-8.83-6.58-14.35-6.86l-7.67-0.39c4.57,5.69,7.1,12.99,6.7,20.71l-3.26,63.44
								C573.56,671.43,570.13,678.79,564.28,684.25z"/>
						</g>
						<g>
							<path class="st3" d="M523.67,629.6c-0.11,2.35,2.33,21.44,2.33,21.44s6,0.27,13.37,0.61c9.21,0.42,17.1-8.77,17.64-20.53
								s-6.49-21.63-15.7-22.05c-6.21-0.28-13.37-0.61-13.37-0.61S523.85,625.78,523.67,629.6z"/>
						</g>
						<g class="st1">
							<path class="st2" d="M523.67,629.6c-0.11,2.35,2.33,21.44,2.33,21.44s6,0.27,13.37,0.61c9.21,0.42,17.1-8.77,17.64-20.53
								s-6.49-21.63-15.7-22.05c-6.21-0.28-13.37-0.61-13.37-0.61S523.85,625.78,523.67,629.6z"/>
						</g>
						<g>
							<path class="st2" d="M539.97,655.34c-0.25,0-0.51-0.01-0.77-0.02l-9.29-0.42c-4.17-0.19-7.57-3.33-8.08-7.47
								c-1.94-15.8-1.87-17.4-1.84-18c0.1-2.24,1.26-8.24,3.44-17.84c0.92-4.03,4.61-6.83,8.71-6.63l9.33,0.43
								c5.61,0.26,10.7,3.21,14.33,8.32c3.44,4.83,5.17,11.07,4.87,17.58C560.07,644.74,550.85,655.34,539.97,655.34z
								 M527.35,629.76c-0.01,0.33,0.06,2.64,1.8,16.77c0.07,0.56,0.53,0.99,1.1,1.01l9.29,0.42c7.21,0.32,13.35-7.31,13.79-17.02
								c0.22-4.87-1.03-9.47-3.52-12.97c-2.29-3.22-5.37-5.08-8.67-5.23l-9.33-0.43c-0.58-0.01-1.07,0.36-1.19,0.9
								C527.72,625.99,527.38,629.1,527.35,629.76z M523.67,629.6h0.02H523.67z"/>
						</g>
						<g>
							
								<ellipse transform="matrix(0.0456 -0.999 0.999 0.0456 -126.153 1127.4535)" class="st3" cx="526.97" cy="629.75" rx="21.31" ry="16.68"/>
						</g>
						<g>
							<path class="st0" d="M543.64,630.51c-0.11,2.44-0.54,4.76-1.24,6.92c0.23-11.44-6.69-20.92-15.71-21.33
								c-7.29-0.33-13.76,5.38-16.4,13.61c-0.01-0.25,0-0.48,0.01-0.72c0.54-11.76,8.43-20.94,17.64-20.52
								C537.15,608.88,544.17,618.75,543.64,630.51z"/>
						</g>
						<g class="st1">
							<path class="st2" d="M543.64,630.51c-0.54,11.76-8.43,20.95-17.64,20.54c-9.21-0.43-16.24-10.3-15.7-22.06
								c0.11-2.28,0.49-4.47,1.12-6.51c2.3,7.45,7.86,12.8,14.58,13.11c7.41,0.33,13.98-5.56,16.52-14.02
								C543.39,624.31,543.79,627.34,543.64,630.51z"/>
						</g>
						<g>
							<path class="st2" d="M526.62,654.73c-0.26,0-0.52-0.01-0.79-0.02c-11.22-0.51-19.83-12.13-19.21-25.89v0
								c0.63-13.77,10.22-24.57,21.49-24.04c5.61,0.26,10.7,3.21,14.33,8.32c3.44,4.83,5.17,11.07,4.87,17.58
								c-0.3,6.5-2.59,12.56-6.45,17.06C536.97,652.27,531.94,654.73,526.62,654.73z M513.98,629.15
								c-0.44,9.71,5.02,17.88,12.19,18.2c3.27,0.15,6.53-1.42,9.11-4.42c2.8-3.26,4.46-7.73,4.68-12.6
								c0.22-4.87-1.03-9.48-3.52-12.97c-2.29-3.22-5.37-5.08-8.67-5.23C520.56,611.81,514.43,619.45,513.98,629.15L513.98,629.15z"
								/>
						</g>
						<g>
							<path class="st2" d="M490.45,688.59c-0.03,0-0.07,0-0.1,0c-2.03-0.06-3.64-1.75-3.58-3.78l1.17-42.07l-19.79-13.91
								l2.85-59.48c0.1-2.03,1.85-3.56,3.85-3.5c2.03,0.1,3.6,1.82,3.5,3.85l-2.66,55.43l19.71,13.86l-1.28,46.03
								C494.07,687.01,492.44,688.59,490.45,688.59z"/>
						</g>
					</g>
					<g>
						<path class="st0" d="M706.29,600.73c0,0,11.03,8.78,11.52,22.32c0.56,15.66-9.24,22.01-9.24,22.01s-42.87,21.95-111.65,7.37
							c0,0-20.24-25.59,2.3-40.03C599.23,612.4,671.82,622.37,706.29,600.73z"/>
					</g>
					<g class="st1">
						<path class="st2" d="M717.81,623.06c0.56,15.64-9.23,21.99-9.23,21.99s-42.86,21.96-111.66,7.37c0,0-6.66-8.44-8.07-18.33
							c0.32,0.49,0.54,0.74,0.54,0.74c50.28,10.67,86.7,1.8,102.66-3.74c11.09-3.85,18.5-13.91,18.24-25.16
							c0-0.15-0.01-0.31-0.01-0.47c-0.01-0.26-0.01-0.52-0.06-0.77C713.43,608.54,717.52,614.94,717.81,623.06z"/>
					</g>
					<g>
						<path class="st2" d="M643.52,662.37c-14.02,0-29.97-1.41-47.61-5.15l-1.73-0.37l-1.1-1.39c-0.47-0.59-11.5-14.74-9.05-29.36
							c1.22-7.29,5.45-13.3,12.56-17.85l1.52-0.98l1.79,0.25c0.71,0.1,71.24,9.47,103.79-10.96l2.95-1.85l2.72,2.17
							c0.52,0.42,12.81,10.37,13.36,25.99c0.65,18.23-10.98,25.98-11.47,26.31l-0.43,0.25C709.46,650.12,684.9,662.37,643.52,662.37
							z M599.81,648.01c62.19,12.67,102.56-5.43,106.26-7.19c1.11-0.85,7.25-6.06,6.83-17.59c-0.27-7.47-4.57-13.34-7.35-16.39
							c-33.61,18.22-93.45,12.08-105.1,10.66c-3.86,2.84-6.08,6.2-6.75,10.23C592.35,635.85,597.57,644.68,599.81,648.01z"/>
					</g>
				</g>
				<g>
					<g class="st1">
						<path class="st2" d="M667.06,440.24c-29.2,39.77-73,65.83-120.77,73.34c-3.51,0.54-7.03,0.99-10.57,1.35
							c-9.72,0.95-19.58,1.14-29.48,0.52c-8.19-0.52-16.44-1.57-24.65-3.23c-9.53-1.89-19.01-4.57-28.42-8.05
							c-3.11-1.17-6.17-2.39-9.17-3.69c-1.68-0.72-3.35-1.47-5-2.25c2.47-14.73,4.9-29.63,7.22-44.4
							c19.35-123.28,203.72-42.89,203.72-42.89S657.15,420.8,667.06,440.24z"/>
					</g>
					<g>
						<path class="st0" d="M353.27,401.45c16.06,26.51,38.8,49.11,66.95,65.03c5.74,3.24,11.69,6.21,17.85,8.88
							c2.99,1.3,6.06,2.53,9.17,3.7c9.4,3.49,18.89,6.16,28.42,8.05c8.21,1.65,16.45,2.71,24.65,3.23
							c9.9,0.63,19.75,0.43,29.47-0.52c3.54-0.36,7.07-0.81,10.57-1.35c64.1-10.08,121.03-53.54,145.2-118.71
							c35.63-95.99-13.31-202.68-109.28-238.31c-18.49-6.85-37.39-10.6-56.09-11.43c-2.18-0.12-4.38-0.17-6.58-0.18
							c-5.87-0.06-11.71,0.15-17.5,0.64c-13.4,1.14-26.56,3.75-39.26,7.71c-12.69,3.94-24.94,9.24-36.48,15.78
							c-3.67,2.08-7.27,4.27-10.81,6.61c-5.29,3.5-10.42,7.26-15.35,11.31c-24.63,20.13-44.39,46.88-56.25,78.86
							C317.46,295.97,324.95,354.71,353.27,401.45z"/>
						<path class="st2" d="M511.79,491.2c-3.85,0-7.7-0.12-11.51-0.36c-8.34-0.53-16.66-1.61-24.71-3.23
							c-9.62-1.91-19.21-4.63-28.49-8.07c-3.41-1.29-6.42-2.5-9.2-3.71c-6.05-2.61-12.07-5.61-17.9-8.9
							c-27.5-15.56-50.71-38.11-67.13-65.21c-29.62-48.89-35.21-107.62-15.35-161.13c11.48-30.95,30.99-58.29,56.4-79.07
							c4.8-3.95,9.98-7.77,15.39-11.34c3.46-2.29,7.11-4.52,10.84-6.63c11.57-6.55,23.88-11.88,36.58-15.82
							c12.81-3.99,26.05-6.59,39.36-7.73c5.78-0.49,11.69-0.71,17.55-0.65c2.35,0.01,4.51,0.07,6.6,0.18
							c19.08,0.85,38,4.7,56.24,11.46c96.09,35.67,145.24,142.87,109.58,238.95c-23.36,62.97-79.15,108.58-145.59,119.03
							c-3.49,0.54-7.06,1-10.6,1.36C523.83,490.9,517.79,491.2,511.79,491.2z M353.69,401.2c16.33,26.96,39.42,49.39,66.77,64.86
							c5.79,3.27,11.78,6.25,17.8,8.85c2.76,1.2,5.76,2.41,9.15,3.69c9.24,3.43,18.77,6.13,28.34,8.03
							c8.01,1.61,16.28,2.69,24.58,3.22c9.7,0.62,19.6,0.44,29.39-0.51c3.52-0.36,7.07-0.81,10.55-1.35
							c66.09-10.39,121.58-55.76,144.82-118.39c35.48-95.57-13.42-202.19-108.99-237.68c-18.13-6.72-36.95-10.55-55.94-11.4
							c-2.07-0.11-4.22-0.17-6.56-0.18c-5.83-0.06-11.7,0.15-17.46,0.64c-13.23,1.13-26.41,3.72-39.15,7.69
							c-12.63,3.92-24.87,9.21-36.38,15.73c-3.71,2.1-7.33,4.32-10.78,6.59c-5.38,3.56-10.53,7.36-15.31,11.28
							c-25.28,20.67-44.68,47.86-56.1,78.65C318.66,294.15,324.23,352.56,353.69,401.2z"/>
					</g>
					<g class="st1">
						<path class="st2" d="M685.56,369.76c-24.17,65.17-81.1,108.64-145.21,118.71c-3.5,0.55-7.02,1-10.56,1.35
							c-9.72,0.95-19.58,1.14-29.47,0.52c-8.2-0.52-16.44-1.58-24.64-3.22c-9.54-1.89-19.02-4.56-28.43-8.05
							c-3.11-1.18-6.17-2.4-9.17-3.7c-6.16-2.67-12.1-5.65-17.85-8.89c-28.15-15.92-50.9-38.52-66.96-65.04
							c-8.82-14.56-15.63-30.3-20.19-46.72c15.9,24.95,37.84,46.21,64.69,61.4c5.74,3.26,11.68,6.22,17.85,8.89
							c2.99,1.3,6.06,2.52,9.17,3.7c9.4,3.49,18.89,6.16,28.42,8.06c8.21,1.64,16.45,2.7,24.64,3.22c9.9,0.62,19.76,0.43,29.47-0.52
							c3.55-0.36,7.07-0.81,10.57-1.36C582,428.04,638.92,384.58,663.1,319.4c14.12-38.02,14.95-77.71,4.86-114
							C698.15,252.72,706.59,313.1,685.56,369.76z"/>
					</g>
					<g>
						<path class="st2" d="M511.79,494.51c-3.92,0-7.84-0.12-11.72-0.37c-8.49-0.54-16.95-1.64-25.16-3.29
							c-9.78-1.94-19.54-4.71-28.99-8.21c-3.48-1.31-6.54-2.55-9.37-3.78c-6.15-2.66-12.28-5.7-18.2-9.05
							c-27.99-15.84-51.62-38.79-68.34-66.38c-30.15-49.76-35.84-109.54-15.62-164c11.69-31.5,31.54-59.33,57.41-80.48
							c4.88-4.02,10.15-7.9,15.66-11.54c3.53-2.33,7.24-4.6,11.03-6.75c11.78-6.67,24.3-12.09,37.23-16.1
							c13.04-4.06,26.52-6.71,40.06-7.86c5.89-0.5,11.91-0.73,17.87-0.66c2.38,0.01,4.6,0.07,6.74,0.19
							c19.39,0.86,38.65,4.79,57.21,11.66c97.8,36.31,147.83,145.41,111.53,243.21c-23.78,64.09-80.56,110.51-148.18,121.15
							c-3.56,0.55-7.18,1.01-10.78,1.38C524.05,494.21,517.9,494.51,511.79,494.51z M356.52,399.48
							c16.04,26.48,38.71,48.5,65.57,63.69c5.69,3.21,11.57,6.14,17.49,8.69c2.72,1.19,5.67,2.37,9.01,3.63
							c9.05,3.36,18.42,6.01,27.82,7.88c7.88,1.58,16,2.65,24.14,3.16c9.53,0.6,19.24,0.44,28.86-0.5c3.45-0.35,6.94-0.8,10.36-1.32
							c64.9-10.2,119.4-54.76,142.22-116.27c34.84-93.86-13.18-198.57-107.04-233.42c-17.81-6.6-36.3-10.36-54.94-11.19
							c-2.05-0.11-4.14-0.17-6.42-0.18c-5.73-0.05-11.51,0.15-17.16,0.63c-13,1.11-25.93,3.65-38.45,7.55
							c-12.41,3.85-24.43,9.05-35.74,15.45c-3.64,2.06-7.2,4.24-10.58,6.47c-5.29,3.5-10.34,7.22-15.03,11.08
							c-24.83,20.3-43.89,47.01-55.1,77.24C322.12,294.34,327.59,351.72,356.52,399.48z"/>
					</g>
					<g>
						<path class="st2" d="M511.79,495.61c-3.95,0-7.88-0.12-11.79-0.37c-8.54-0.54-17.05-1.65-25.3-3.31
							c-9.84-1.95-19.65-4.73-29.16-8.26c-3.5-1.32-6.58-2.56-9.43-3.8c-6.18-2.67-12.34-5.73-18.3-9.1
							c-28.16-15.93-51.92-39.02-68.74-66.77l0,0c-30.32-50.05-36.05-110.18-15.71-164.96c11.75-31.69,31.72-59.68,57.75-80.95
							c4.91-4.04,10.21-7.94,15.75-11.61c3.55-2.34,7.28-4.63,11.1-6.79c11.85-6.71,24.44-12.16,37.44-16.19
							c13.11-4.09,26.67-6.75,40.29-7.91c5.93-0.5,11.99-0.72,17.97-0.66c2.4,0.01,4.63,0.07,6.79,0.19
							c19.5,0.87,38.87,4.81,57.53,11.73c98.37,36.52,148.69,146.26,112.18,244.63c-23.92,64.47-81.03,111.16-149.04,121.85
							c-3.58,0.56-7.22,1.02-10.84,1.39C524.12,495.31,517.94,495.61,511.79,495.61z M357.47,398.91
							c15.94,26.31,38.48,48.2,65.17,63.31c5.66,3.2,11.5,6.1,17.38,8.64c2.71,1.18,5.63,2.36,8.96,3.61
							c8.99,3.34,18.3,5.97,27.64,7.83c7.83,1.57,15.9,2.63,24,3.14c9.47,0.6,19.13,0.43,28.69-0.5c3.43-0.35,6.9-0.79,10.3-1.32
							c64.5-10.14,118.67-54.42,141.35-115.57c34.63-93.29-13.1-197.36-106.39-232c-17.7-6.56-36.07-10.3-54.6-11.13
							c-2.04-0.11-4.11-0.17-6.38-0.18c-5.74-0.06-11.45,0.15-17.07,0.63c-12.91,1.1-25.77,3.63-38.21,7.5
							c-12.33,3.83-24.28,9-35.52,15.36c-3.62,2.05-7.16,4.21-10.52,6.43c-5.25,3.47-10.28,7.18-14.94,11.01
							c-24.69,20.18-43.62,46.72-54.77,76.77C323.27,294.41,328.71,351.43,357.47,398.91L357.47,398.91z"/>
					</g>
					<g>
						<path class="st4" d="M382.89,438.59c112.15,70.56,257.11,9.38,258.57-121.84c1-89.28-85.65-159.18-171.46-154.65
							c-62.45,3.3-121.98,33.84-143.35,132.17c0,0-2.74,44.99,10.83,74.2c13.57,29.21,31.7,55.33,31.7,55.33L382.89,438.59z"/>
					</g>
					<g>
						<path class="st5" d="M641.45,316.75c-1.46,131.22-146.42,192.4-258.57,121.84l-2.78-3c120.4,15.54,235.89-61.68,239.84-194.33
							C633.73,263.5,641.76,289.2,641.45,316.75z"/>
					</g>
					<g>
						<path class="st2" d="M483.24,492.17c-2.58,0-5.17-0.05-7.76-0.15l-0.77-0.09c-9.85-1.96-19.66-4.74-29.17-8.26
							c-3.5-1.32-6.58-2.56-9.43-3.8c-6.18-2.67-12.34-5.73-18.3-9.1c-28.16-15.93-51.92-39.02-68.74-66.77
							c-30.32-50.05-36.05-110.18-15.71-164.96c11.75-31.69,31.72-59.68,57.75-80.95l0.39-0.32l0.45-0.23
							c21.76-11.28,47.34-17.77,76.04-19.29c51.15-2.7,104.76,17.87,143.48,55.02c35.59,34.14,54.91,78.1,54.4,123.77
							c-0.56,49.63-18.75,92.9-52.61,125.12C579.64,474.17,532.61,492.17,483.24,492.17z M476.24,482.22
							c49.39,1.79,96.87-15.4,130.26-47.18c31.89-30.35,49.03-71.2,49.56-118.12c0.48-42.93-17.77-84.33-51.38-116.57
							c-36.81-35.31-87.71-54.87-136.17-52.3c-27.09,1.43-51.17,7.48-71.59,17.96c-24.48,20.13-43.28,46.55-54.36,76.44
							c-19.29,51.95-13.86,108.98,14.91,156.45c15.94,26.31,38.48,48.2,65.17,63.31c5.66,3.19,11.5,6.1,17.38,8.64
							c2.71,1.18,5.63,2.36,8.96,3.61C457.85,477.76,467.03,480.37,476.24,482.22z"/>
					</g>
					<g>
						<path class="st2" d="M483.7,473.17c-35.3,0-71.31-10.22-103.42-30.43l-0.55-0.34l-14.58-15.81
							c-0.75-1.08-18.53-26.8-32.12-56.06c-13.93-29.99-11.39-74.68-11.28-76.56l0.1-0.74c18.71-86.06,68.47-131.83,147.89-136.03
							c45.63-2.39,93.5,15.94,128.06,49.09c31.78,30.48,49.03,69.73,48.57,110.51c-0.66,58.89-29.8,108.33-79.94,135.67
							C541.03,466.32,512.6,473.17,483.7,473.17z M386.05,434.78c55.3,34.54,122.55,38.03,175.68,9.07
							c46.94-25.58,74.21-71.93,74.82-127.15c0.42-38.04-15.75-74.73-45.55-103.31c-32.64-31.31-77.76-48.64-120.74-46.37
							c-74.34,3.93-121.01,46.97-138.73,127.92c-0.21,4.26-1.85,45.09,10.4,71.47c12.49,26.88,29.13,51.45,31.09,54.32
							L386.05,434.78z"/>
					</g>
					<g>
						
							<ellipse transform="matrix(0.9984 -0.057 0.057 0.9984 -16.7013 39.029)" class="st0" cx="675.49" cy="312.14" rx="48.17" ry="66.3"/>
					</g>
					<g class="st1">
						<path class="st2" d="M682.72,377.96c-24.57,3.87-47.63-18.6-53.85-51.14c4.89,1.36,9.98,1.72,15.15,0.91
							c26.34-4.15,57.17-35.33,53.18-71.67c-0.27-2.44-13.33-6.48-13.79-8.83c20.04,5.58,36.57,28.18,39.78,57.4
							C727.18,340.99,709.06,373.81,682.72,377.96z"/>
					</g>
					<g>
						<path class="st2" d="M677.14,383.31c-9.36,0-18.54-3.27-26.86-9.63c-14.91-11.4-24.89-30.9-27.37-53.5
							c-4.27-38.86,15.73-74.17,44.58-78.71c11.53-1.81,23.01,1.34,33.21,9.13c14.91,11.4,24.89,30.9,27.37,53.49l0,0
							c4.27,38.86-15.73,74.17-44.58,78.71C681.37,383.15,679.25,383.31,677.14,383.31z M673.76,250.8c-1.58,0-3.17,0.12-4.75,0.37
							c-23.75,3.74-40.05,34.22-36.35,67.94c2.16,19.65,10.97,37.13,23.58,46.77c8.01,6.12,16.9,8.62,25.71,7.24
							c23.75-3.74,40.05-34.21,36.35-67.94l0,0c-2.16-19.65-10.97-37.13-23.57-46.77C688.16,253.39,680.99,250.8,673.76,250.8z"/>
					</g>
					<g>
						
							<ellipse transform="matrix(0.9997 -0.0228 0.0228 0.9997 -7.0229 15.8471)" class="st0" cx="691.52" cy="315.94" rx="39.25" ry="52.62"/>
						<path class="st2" d="M692.11,369.1c-3.78,0-7.58-0.73-11.33-2.2c-21.07-8.27-33.44-37.83-27.57-65.9
							c3.29-15.72,11.67-28.24,22.99-34.36c8.34-4.5,17.35-5.08,26.07-1.65c21.07,8.27,33.44,37.83,27.57,65.9
							c-3.29,15.72-11.67,28.24-23,34.36C702.09,367.81,697.12,369.1,692.11,369.1z M690.95,263.81c-4.85,0-9.66,1.25-14.26,3.73
							c-11.06,5.97-19.25,18.24-22.48,33.66c-5.78,27.6,6.31,56.64,26.94,64.73c8.43,3.31,17.14,2.75,25.21-1.6
							c11.06-5.97,19.25-18.24,22.48-33.66c5.78-27.6-6.31-56.64-26.93-64.73C698.28,264.52,694.6,263.81,690.95,263.81z"/>
					</g>
					<g class="st1">
						<path class="st2" d="M657.1,342.15c-3.47-9.34-4.39-19.68-3.13-29.61c9.71,20.64,30.18,27.25,47.39,14.54
							c11.12-8.21,18.31-22.6,20.26-37.98c0.62,1.3,1.19,2.67,1.72,4.09c8.83,23.8,1.16,54.06-17.13,67.58
							C687.91,374.28,665.93,365.93,657.1,342.15z"/>
					</g>
					<g>
						<path class="st2" d="M693.19,373.49c-6.93,0-13.75-2.44-19.98-7.18c-12.05-9.17-20.46-26.1-22.49-45.28
							c-3.46-32.69,11.64-61.24,34.37-65c8.58-1.42,17.17,0.92,24.86,6.77c12.05,9.17,20.46,26.1,22.49,45.28
							c3.46,32.69-11.64,61.24-34.37,65C696.44,373.35,694.81,373.49,693.19,373.49z M689.91,265.45c-1.07,0-2.15,0.09-3.22,0.26
							c-17.02,2.82-29.03,27.67-26.21,54.28c1.75,16.54,8.73,30.94,18.67,38.5c5.48,4.17,11.47,5.87,17.31,4.9
							c17.02-2.82,29.03-27.67,26.21-54.28c-1.75-16.55-8.73-30.94-18.67-38.51C699.52,267.2,694.7,265.45,689.91,265.45z"/>
					</g>
					<g class="st6">
						<path class="st0" d="M515.81,192.35c0,0-83.65,9.79-127.26,60.55c-0.05,0.05-0.09,0.11-0.14,0.16
							c-9.17,10.69-15.28,23.67-17.79,37.53c-3.32,18.33-2.92,31.45-2.12,42.98c2.44,35.08,10.15,51.06,10.15,51.06
							c-21.24-17.15-33.95-37.4-36.27-66.6c-0.22-2.88-0.34-5.86-0.37-8.91c-0.01-0.7,0-1.4,0.02-2.11
							c-0.02-0.01-0.01-0.02,0.01-0.04c0.38-6.2,1.18-14.33,2.85-23.42c5.03-27.43,17.88-63.65,50.55-82.31
							C456.52,166.33,518.44,188.48,515.81,192.35z"/>
					</g>
					<g class="st6">
						
							<ellipse transform="matrix(0.9458 -0.3249 0.3249 0.9458 -57.446 204.6631)" class="st0" cx="584.21" cy="274.37" rx="24.78" ry="28.88"/>
					</g>
					<g class="st6">
						
							<ellipse transform="matrix(0.915 -0.4035 0.4035 0.915 -79.6134 270.1671)" class="st0" cx="601.25" cy="323.99" rx="10.23" ry="11.92"/>
					</g>
				</g>
				<g>
					<g>
						<polygon class="st0" points="756.64,779.82 535.87,779.82 547.05,752 563.67,710.67 706.04,712.16 738.77,755.92 						"/>
					</g>
					<g>
						<path class="st2" d="M766.44,784.73H528.6l31.77-79.01l148.16,1.56L766.44,784.73z M543.13,774.91h203.71l-43.27-57.86
							l-136.59-1.44L543.13,774.91z"/>
					</g>
					<g>
						<path class="st2" d="M726.4,763.97c-6.81,0.02-13.62-0.11-20.43-0.16l-20.42-0.42c-6.81-0.1-13.62-0.4-20.4-0.56
							c-6.8-0.13-13.6-0.2-20.4-0.21c-13.61-0.2-27.22-0.16-40.83-0.27l-20.42-0.18c-6.81-0.13-13.62-0.18-20.43-0.36
							c6.8-0.37,13.61-0.56,20.42-0.83l20.42-0.49c13.62-0.27,27.24-0.29,40.86-0.28c6.81,0.08,13.63,0.22,20.44,0.43
							c6.83,0.27,13.62,0.51,20.42,0.9l20.39,1.09C712.81,763.08,719.6,763.45,726.4,763.97z"/>
					</g>
					<g>
						<path class="st2" d="M717.3,748.96c-6.26,0.06-12.52-0.03-18.78-0.04l-18.78-0.29c-12.52-0.21-25.02-0.74-37.52-1.1
							l-37.51-1.27c-6.25-0.21-12.49-0.39-18.74-0.25c-6.25-0.02-12.51,0.04-18.78-0.05c12.48-0.78,25.01-1.7,37.55-1.56
							c12.53-0.01,25.04,0.33,37.56,0.72c12.51,0.42,25.02,1.01,37.52,1.66l18.74,0.96C704.8,748.15,711.05,748.48,717.3,748.96z"/>
					</g>
					<g>
						<path class="st2" d="M707.89,736.01c-5.75-0.03-11.49-0.22-17.24-0.32l-17.21-0.57l-34.42-1.04l-34.41-1.21
							c-5.74-0.22-11.46-0.39-17.2-0.46c-5.75-0.21-11.5-0.33-17.23-0.61c11.49-0.43,22.95-0.83,34.46-0.79
							c11.49,0,22.98,0.31,34.46,0.66c11.48,0.42,22.96,0.85,34.42,1.61l17.2,1.24C696.45,735.01,702.18,735.43,707.89,736.01z"/>
					</g>
					<g>
						<path class="st2" d="M699.47,723.57c-10.4,1.06-20.87,0.65-31.29,0.49c-10.42-0.21-20.84-0.56-31.25-0.87l-31.24-1.14
							c-5.2-0.21-10.41-0.4-15.61-0.51c-5.17-0.18-10.5-0.15-15.57-0.49l15.56-0.69c5.22-0.14,10.44-0.15,15.66-0.16
							c10.43-0.01,20.86,0.26,31.28,0.58c10.42,0.37,20.84,0.79,31.25,1.44c5.2,0.33,10.4,0.63,15.6,0.88
							C689.06,723.38,694.26,723.7,699.47,723.57z"/>
					</g>
				</g>
				<g>
					<polygon class="st0" points="867.03,745.24 646.25,745.24 674.07,676.09 695.35,676.31 816.43,677.6 					"/>
				</g>
				<g>
					<path class="st0" d="M516.68,673.15l-79.38,71.65c0,0,70.75-3.64,103.59-3.55c26.77,0.08,116.34,6.93,116.34,6.93l20.83-72.09
						L516.68,673.15z"/>
				</g>
				<g class="st1">
					<path class="st2" d="M738.77,755.92H659.3l-0.85,2.95c0,0-80.03-6.14-111.41-6.87l16.62-41.33l142.38,1.5L738.77,755.92z"/>
				</g>
				<g>
					<polygon class="st0" points="867.03,745.24 646.25,745.24 674.07,676.09 695.35,676.31 816.43,677.6 					"/>
				</g>
				<g>
					<path class="st2" d="M876.83,750.15H638.98l31.77-79.01l148.16,1.56L876.83,750.15z M653.52,740.33h203.71l-43.27-57.86
						l-136.59-1.44L653.52,740.33z"/>
				</g>
				<g>
					<path class="st2" d="M836.79,729.39c-6.81,0.02-13.62-0.11-20.43-0.16l-20.42-0.42c-6.81-0.1-13.62-0.4-20.4-0.56
						c-6.8-0.13-13.6-0.2-20.4-0.21c-13.61-0.2-27.22-0.16-40.83-0.27l-20.42-0.18c-6.81-0.13-13.62-0.18-20.43-0.36
						c6.8-0.37,13.61-0.56,20.42-0.83l20.42-0.49c13.62-0.27,27.24-0.29,40.86-0.28c6.81,0.08,13.63,0.22,20.44,0.43
						c6.83,0.27,13.62,0.52,20.42,0.91l20.39,1.09C823.19,728.5,829.99,728.87,836.79,729.39z"/>
				</g>
				<g>
					<path class="st2" d="M827.69,714.38c-6.26,0.06-12.52-0.03-18.78-0.04l-18.78-0.29c-12.52-0.21-25.02-0.73-37.53-1.1
						l-37.51-1.27c-6.25-0.21-12.49-0.39-18.74-0.25c-6.25-0.02-12.51,0.04-18.78-0.05c12.48-0.78,25.01-1.7,37.55-1.56
						c12.53-0.01,25.04,0.33,37.56,0.72c12.51,0.42,25.02,1.01,37.52,1.66l18.74,0.96C815.19,713.58,821.44,713.9,827.69,714.38z"/>
				</g>
				<g>
					<path class="st2" d="M818.28,703.04c-5.75-0.03-11.49-0.22-17.24-0.32l-17.21-0.57l-34.42-1.04l-34.41-1.21
						c-5.74-0.22-11.46-0.39-17.2-0.46c-5.75-0.21-11.5-0.33-17.23-0.61c11.49-0.43,22.95-0.83,34.46-0.79
						c11.49,0,22.98,0.31,34.46,0.66c11.48,0.42,22.96,0.85,34.42,1.61l17.2,1.24C806.84,702.04,812.57,702.46,818.28,703.04z"/>
				</g>
				<g>
					<path class="st2" d="M809.86,692.21c-10.4,1.06-20.87,0.65-31.29,0.5c-10.42-0.21-20.84-0.56-31.25-0.87l-31.24-1.14
						c-5.21-0.21-10.41-0.4-15.61-0.51c-5.17-0.18-10.5-0.15-15.57-0.49l15.56-0.69c5.22-0.14,10.44-0.15,15.66-0.16
						c10.43-0.01,20.86,0.26,31.28,0.58c10.42,0.37,20.84,0.79,31.25,1.44c5.2,0.33,10.4,0.63,15.6,0.88
						C799.45,692.02,804.65,692.34,809.86,692.21z"/>
				</g>
				<g>
					<path class="st2" d="M4.04,657.47l30.25-0.55l30.25-0.41l60.5-0.81l120.99-1.01c40.33-0.41,80.66-0.44,120.99-0.65l120.99-0.2
						l120.99,0.19c40.33,0.21,80.66,0.24,120.99,0.65l120.99,1.01l60.5,0.82l30.25,0.41l30.25,0.55c2.4,0.04,4.31,2.02,4.26,4.42
						c-0.04,2.34-1.94,4.22-4.26,4.26l-30.25,0.55l-30.25,0.41l-60.5,0.82l-120.99,1.01c-40.33,0.41-80.66,0.43-120.99,0.65
						L488,669.79l-120.99-0.2c-40.33-0.21-80.66-0.24-120.99-0.65l-120.99-1.01l-60.5-0.81l-30.25-0.41l-30.25-0.55
						c-2.4-0.04-4.31-2.02-4.26-4.42C-0.19,659.39,1.71,657.52,4.04,657.47z"/>
				</g>
				<g>
					<path class="st7" d="M413.05,734.3l69.45-64.57c0.28-0.26,0.44-0.62,0.44-1v-11.6c0-0.79-0.66-1.41-1.45-1.36l-222.16,13.56
						l-103.1,64.97H413.05z"/>
				</g>
				<g class="st8">
					<path class="st9" d="M482.94,663.35v5.39c0,0.38-0.16,0.75-0.44,1.01l-69.45,64.57H156.23l18.79-11.85h233.33L482.94,663.35z"
						/>
				</g>
				<g>
					<path class="st2" d="M414.98,739.21H139.23l118.55-74.7l223.41-13.63c1.73-0.09,3.43,0.51,4.68,1.69
						c1.25,1.18,1.97,2.85,1.97,4.57v11.6c0,1.73-0.73,3.4-1.99,4.59L414.98,739.21z M173.23,729.39h237.89l66.91-62.2v-6.29
						l-217.14,13.25L173.23,729.39z"/>
				</g>
				<g>
					<polygon class="st7" points="413.05,707.01 482.93,655.69 259.33,655.69 156.23,707.01 					"/>
				</g>
				<g>
					<polygon class="st0" points="395.02,700.53 440.48,667.14 295.03,667.14 227.95,700.53 					"/>
				</g>
				<g>
					<path class="st2" d="M414.1,710.23H142.55l116.03-57.76h220.2c1.99,0,3.73,1.27,4.35,3.15c0.62,1.89-0.04,3.94-1.64,5.12
						L414.1,710.23z M169.91,703.8H412l61.13-44.89H260.09L169.91,703.8z"/>
				</g>
				<g>
					<path class="st7" d="M406.43,737.34H114.28c-1.89,0-3.62-0.77-4.87-2.06c-0.82-0.83-1.44-1.91-1.74-3.13L58.52,532.73
						c-2.12-8.6,4.38-16.91,13.24-16.91h272.75c8.99,0,16.85,5.86,19.52,14.34c0.13,0.41,0.26,0.82,0.36,1.24l48.66,197.49
						C414.11,733.18,410.85,737.34,406.43,737.34z"/>
				</g>
				<g class="st8">
					<path class="st9" d="M406.43,737.34H114.28c-1.89,0-3.62-0.77-4.87-2.06c35.82,1.73,160.31,2.71,219.76-61.42
						c38.06-41.07,38.68-105.42,34.87-143.7c0.13,0.41,0.26,0.82,0.36,1.24l48.66,197.49C414.11,733.18,410.85,737.34,406.43,737.34
						z"/>
				</g>
				<g class="st1">
					<path class="st0" d="M73.46,538.72l48.94,198.62h-8.13c-3.14,0-5.87-2.15-6.62-5.19L58.52,532.73
						c-2.12-8.6,4.38-16.91,13.24-16.91h272.75c9.18,0,17.21,6.11,19.69,14.9c-0.86-0.11-1.72-0.17-2.6-0.17H79.87
						C75.59,530.55,72.43,534.56,73.46,538.72z"/>
				</g>
				<g>
					<path class="st2" d="M406.42,742.24H114.28c-5.41,0-10.1-3.67-11.39-8.93L53.75,533.9c-1.37-5.57-0.13-11.36,3.41-15.88
						c3.54-4.52,8.87-7.11,14.61-7.11h272.75c11.71,0,21.84,7.94,24.64,19.31l48.66,197.49c0.87,3.53,0.08,7.19-2.16,10.04
						C413.42,740.61,410.05,742.24,406.42,742.24z M71.77,520.73c-2.7,0-5.21,1.22-6.88,3.35c-1.67,2.13-2.25,4.85-1.61,7.48
						l49.14,199.42c0.21,0.86,0.98,1.46,1.86,1.46h292.15c0.81,0,1.29-0.46,1.5-0.73c0.22-0.27,0.55-0.85,0.35-1.64l-48.66-197.49
						c-1.72-6.97-7.93-11.84-15.11-11.84H71.77z"/>
				</g>
				<g class="st1">
					<polygon class="st2" points="695.35,676.31 675.44,745.24 646.25,745.24 674.07,676.09 					"/>
				</g>
				<g>
					<path class="st0" d="M516.68,673.15l-79.38,71.65c0,0,70.75-3.64,103.59-3.55c26.77,0.08,116.34,6.93,116.34,6.93l20.83-72.09
						L516.68,673.15z"/>
				</g>
				<g>
					<path class="st2" d="M660.83,753.39l-3.98-0.3c-0.89-0.07-89.69-6.85-115.98-6.92c-32.28-0.07-102.62,3.5-103.32,3.54
						l-13.8,0.71l91.08-82.21l169.71,3.09L660.83,753.39z M539.64,736.34c0.43,0,0.84,0,1.26,0c23.73,0.07,94.85,5.3,112.71,6.65
						l17.94-62.11l-153.02-2.79l-67.73,61.13C472.73,738.2,515.59,736.34,539.64,736.34z"/>
				</g>
				<g>
					<path class="st2" d="M559.33,674.14c0.03,10.91-2.1,21.64-6.18,31.1l-1.7,3.92c-1.94,4.5-6.82,4.5-8.76,0l-1.75-4.06
						c-4.04-9.36-6.17-19.99-6.17-30.8V562.73c0-3.83,5.42-6.95,12.12-6.95c6.69,0,12.11,3.12,12.11,6.95
						c0,0.18-0.01,0.37-0.04,0.55L559.33,674.14z"/>
				</g>
				<g>
					<path class="st2" d="M644.27,727.7c-6.74-0.11-13.46-0.37-20.19-0.55l-20.16-0.8c-13.43-0.66-26.88-1.08-40.32-1.48
						c-13.44-0.55-26.89-0.96-40.32-1.38c-6.72-0.26-13.42-0.3-20.16-0.42c-6.73-0.2-13.46-0.32-20.19-0.59
						c13.46-0.44,26.89-0.85,40.38-0.84c13.47,0.04,26.92,0.47,40.38,0.83l20.17,0.85c6.72,0.28,13.44,0.65,20.16,1.18l20.14,1.48
						C630.87,726.55,637.58,727.05,644.27,727.7z"/>
				</g>
				<g>
					<path class="st2" d="M651.4,715.82c-8.49-0.1-16.96-0.35-25.42-0.75c-4.23-0.17-8.46-0.43-12.69-0.64
						c-4.23-0.24-8.45-0.54-12.67-0.71l-25.36-1.24c-8.46-0.37-16.91-0.86-25.39-1.09c8.46-0.7,16.96-0.85,25.44-0.79
						c8.48,0.04,16.96,0.31,25.43,0.72c8.48,0.46,16.92,1.16,25.36,1.89C634.55,713.92,642.99,714.79,651.4,715.82z"/>
				</g>
				<g>
					<path class="st0" d="M672.98,454.7c0,0,22.49,49.48,26.28,105.64c3.86,57.19-1.73,138.5-134.91,127.47
						c-46.69-3.86-44.42-23.7-46.15-47.11c-2.15-29,1.16-62.3,35.05-63.54c61.23-2.25,79.52-15.6,88.22-53.14"/>
				</g>
				<g class="st1">
					<path class="st2" d="M699.77,592.24c-2.59,51.12-25.75,104.63-135.42,95.56c-46.69-3.87-44.42-23.7-46.15-47.11
						c-1.18-15.87-0.71-33.03,5.5-45.51c0.06,3.45,0.23,6.9,0.49,10.29c1.73,23.4-0.54,43.24,46.14,47.1
						C654.49,659.53,687.7,629.63,699.77,592.24z"/>
				</g>
				<g>
					<path class="st2" d="M626.75,549.46c1.01-2.12,2.21-4.07,3.37-6.1c1.16-2.03,2.43-4.05,3.61-6.17c2.4-4.24,4.59-8.74,7.18-13.3
						c0.16-0.29,0.53-0.39,0.81-0.23c0.18,0.1,0.29,0.29,0.3,0.49c0.29,5.27-0.27,10.5-1.54,15.68c-0.66,2.58-1.45,5.17-2.65,7.61
						c-1.19,2.44-2.64,4.8-4.59,6.77c-1.58,1.59-4.16,1.6-5.75,0.02c-1.26-1.25-1.53-3.12-0.81-4.64L626.75,549.46z"/>
				</g>
				<g>
					<path class="st2" d="M587.41,693.71c-7.48,0-15.3-0.34-23.47-1.01c-47.63-3.94-49-25.74-50.32-46.81
						c-0.1-1.59-0.2-3.2-0.32-4.83c-2-27.08,1.88-45.67,11.87-56.83c6.73-7.52,16.12-11.55,27.9-11.98
						c38.96-1.43,59.5-7.43,70.91-20.71c1.77-2.06,4.87-2.29,6.92-0.53c2.06,1.77,2.29,4.87,0.52,6.92
						c-13.39,15.59-35.99,22.58-77.99,24.13c-9.14,0.34-15.99,3.19-20.94,8.72c-8.12,9.07-11.19,25.28-9.39,49.55
						c0.12,1.66,0.23,3.31,0.33,4.94c1.3,20.71,2.16,34.4,41.33,37.64c48.88,4.04,84.31-4.38,105.28-25.03
						c25.68-25.29,26.49-65.24,24.33-97.21c-3.69-54.64-25.63-103.45-25.85-103.93c-1.12-2.47-0.03-5.38,2.44-6.5
						c2.47-1.12,5.38-0.03,6.5,2.44c0.93,2.05,22.9,50.94,26.71,107.34c2.3,34.07,1.28,76.78-27.24,104.87
						C657.46,684.04,627.41,693.71,587.41,693.71z"/>
				</g>
				<g>
					<path class="st2" d="M681.01,657.64c-0.07,0-0.14,0-0.22,0c-2.71-0.12-4.81-2.41-4.69-5.12c3.49-80.74-46.32-93.84-48.44-94.36
						c-2.63-0.64-4.25-3.29-3.62-5.92c0.63-2.63,3.27-4.25,5.89-3.64c0.63,0.15,15.56,3.8,29.91,18.74
						c13,13.52,28.07,39.35,26.07,85.6C685.8,655.58,683.62,657.64,681.01,657.64z"/>
				</g>
			</g>
		</g>
	</g>
	<g>
		<g>
			<g>
				<polygon class="st10" points="352.43,713.02 367.93,697.51 352.43,682 365.58,682 381.09,697.51 365.58,713.02 				"/>
			</g>
			<g>
				<polygon class="st11" points="331.3,713.02 346.8,697.51 331.3,682 344.45,682 359.95,697.51 344.45,713.02 				"/>
			</g>
		</g>
		<g>
			<g>
				
					<linearGradient id="SVGID_1_" gradientUnits="userSpaceOnUse" x1="240.3029" y1="121.6116" x2="249.0313" y2="121.6116" gradientTransform="matrix(0.9778 -0.2094 0.2094 0.9778 -144.604 524.2891)">
					<stop  offset="0" style="stop-color:#000000"/>
					<stop  offset="1" style="stop-color:#FFFFFF"/>
				</linearGradient>
				<path class="st12" d="M122.96,587.23l-7.39,1.58l1.69,7.9h0l0,0c0.02-3.7,2.69-6.51,5.95-6.27l0.18,0.01l0.26,0.02
					L122.96,587.23z"/>
				<path class="st13" d="M125.27,597.99c0-0.02-0.01-0.04-0.02-0.06l-2.29-10.7l-7.39,1.58l2.27,10.59
					c0.01,0.06,0.02,0.11,0.03,0.17c0.01,0.06,0.03,0.11,0.04,0.17l0.87,4.09l3.81-0.81c0,0,0,0,0-0.01
					C124.56,602.51,125.76,600.3,125.27,597.99z"/>
				
					<linearGradient id="SVGID_00000040570267507555249110000015278658882011625367_" gradientUnits="userSpaceOnUse" x1="240.3029" y1="122.0575" x2="249.0313" y2="122.0575" gradientTransform="matrix(0.9778 -0.2094 0.2094 0.9778 -144.604 524.2891)">
					<stop  offset="0" style="stop-color:#000000"/>
					<stop  offset="1" style="stop-color:#FFFFFF"/>
				</linearGradient>
				<path style="opacity:0.44;fill:url(#SVGID_00000040570267507555249110000015278658882011625367_);" d="M123.05,587.67
					l-7.39,1.58l1.69,7.9h0l0,0c0.02-3.7,2.69-6.51,5.95-6.27l0.18,0.01l0.26,0.02L123.05,587.67z"/>
				<path class="st15" d="M121.76,560.86l-5.91,1.26c-3.17,0.68-5.11,4.18-4.33,7.83l2.34,10.95l1.97,9.22l1.41,6.6l0,0
					c-0.78-3.64,1.16-7.15,4.33-7.83l0.18-0.04l5.73-1.23c6.43-1.38,10.36-8.49,8.78-15.88l0,0
					C134.69,564.36,128.2,559.49,121.76,560.86z M125.68,579.13l-4.26,0.91l-2.09-9.78l4.26-0.91c2.35-0.5,4.73,1.28,5.3,3.98
					C129.46,576.03,128.02,578.63,125.68,579.13z"/>
			</g>
			<g>
				<path class="st16" d="M323.01,547.72c7.28-1.57,15.32,2,18.98,8.49c3.56,6.12,3.2,14.31-1.11,19.96
					c-4.51,6.23-13.34,8.78-20.52,6.08c-5.28-1.86-9.57-6.38-11.15-11.76c-1.63-5.18-0.65-11.06,2.51-15.47
					C314.35,551.24,318.52,548.63,323.01,547.72 M325.68,552.58c-0.84-0.21-1.68,0.2-2.33,0.71c-1.72,1.45-2.79,3.65-2.96,5.89
					c-0.07,1.03,0.28,2.28,1.34,2.68c1.24,0.43,2.46-0.44,3.25-1.32c1.32-1.49,2.21-3.44,2.26-5.45
					C327.27,554.04,326.79,552.84,325.68,552.58 M336.76,558.04c-1.52-0.26-2.77,0.99-3.6,2.1c-1.14,1.7-2.06,3.84-1.5,5.92
					c0.34,1.22,1.83,1.73,2.91,1.13c1.41-0.74,2.37-2.13,3.06-3.53c0.51-1.4,1.02-3,0.42-4.45
					C337.85,558.62,337.34,558.19,336.76,558.04 M313.23,560.04c-1.49,6.04,1.41,12.81,6.72,16.01c2.98,1.89,6.67,2.65,10.17,2.16
					c3.65-0.46,7.07-2.38,9.42-5.21c-0.48-0.39-0.87-0.9-1.39-1.24c-3.54,4.28-9.88,5.85-15,3.7c-5.94-2.13-9.55-8.97-8.08-15.08
					C314.48,560.21,313.85,560.15,313.23,560.04L313.23,560.04z"/>
				<path class="st0" d="M325.68,552.58c1.11,0.26,1.59,1.47,1.57,2.5c-0.06,2.01-0.95,3.96-2.26,5.45
					c-0.79,0.89-2.01,1.75-3.25,1.32c-1.06-0.4-1.41-1.65-1.34-2.68c0.17-2.23,1.24-4.44,2.96-5.89
					C324,552.77,324.84,552.37,325.68,552.58 M336.76,558.04c0.58,0.15,1.09,0.58,1.29,1.16c0.6,1.45,0.1,3.06-0.42,4.45
					c-0.69,1.4-1.65,2.79-3.06,3.53c-1.08,0.61-2.57,0.1-2.91-1.13c-0.56-2.07,0.36-4.21,1.5-5.92
					C333.99,559.02,335.24,557.77,336.76,558.04 M313.23,560.04c0.61,0.11,1.24,0.17,1.83,0.35c-1.47,6.11,2.15,12.96,8.08,15.08
					c5.12,2.15,11.46,0.58,15-3.7c0.52,0.34,0.91,0.85,1.39,1.24c-2.35,2.83-5.76,4.75-9.42,5.21c-3.5,0.48-7.19-0.28-10.17-2.16
					C314.64,572.86,311.75,566.08,313.23,560.04L313.23,560.04z"/>
			</g>
			<g>
				<g class="st17">
					<path class="st18" d="M192.18,639.92c4.3-0.93,7.86-4.23,9.88-8.52l0.05,0.57c0.27,2.93,2.48,4.87,4.93,4.34l3.81-0.82
						c2.45-0.53,4.22-3.34,3.95-6.26l-0.3-3.23l6.74,5.98c1.06,1,2.47,1.13,3.87,0.83c1.43-0.31,2.56-1.42,3.26-2.84
						c0.9,0.87,2.09,1.29,3.36,1.02l7.82-1.69c4.51-0.98,8.3-4.27,10.72-8.63l0.08,0.88c0.27,2.93,2.48,4.87,4.93,4.34l13.26-2.87
						c1.05-0.23,1.93-0.93,2.63-1.83c0.83,0.57,1.81,0.87,2.86,0.64l3.81-0.82c1.62-0.35,2.94-1.69,3.57-3.41l1.72,2.26l6.56-1.42
						c1.6-0.35,2.95-1.62,3.6-3.4l0.84-3.24l-4.5-7.45c2-2.87,2.99-6.43,2.66-10.02c-0.65-7.08-6.03-11.79-12-10.5l-9.58,2.07
						c-1.06,0.23-1.94,0.93-2.63,1.83c-0.83-0.57-1.8-0.87-2.85-0.64l-13.26,2.87c-2.45,0.53-4.23,3.34-3.96,6.27l0.08,0.86
						c-3.11-3.15-7.34-4.7-11.85-3.72l-7.82,1.69c-1.34,0.29-2.44,1.31-3.14,2.63c-0.92-0.97-2.16-1.48-3.51-1.19l-3.85,0.83
						c-2.45,0.53-4.22,3.34-3.95,6.26l0.26,2.87l-8.23-6.95l-2.34,0.51c-1.33,0.29-2.42,1.27-3.13,2.54
						c-0.87-0.71-1.97-1.05-3.14-0.8l-3.94,0.85c-2.45,0.53-4.23,3.34-3.96,6.27l1.15,15.56l-1.43-15.5
						c-0.27-2.93-2.48-4.87-4.93-4.34l-3.94,0.85c-2.45,0.53-4.23,3.34-3.96,6.27l1.45,15.8
						C178.62,635.89,185.05,641.46,192.18,639.92z"/>
					<path class="st18" d="M352.69,607.11l-3.85,0.83c-2.45,0.53-4.22,3.34-3.95,6.26l0.26,2.87l-8.23-6.95l-2.34,0.51
						c-2.45,0.53-4.22,3.32-3.95,6.23l0.1,1.07c-3.17-3.24-7.49-4.84-12.1-3.85c-4.62,1-8.49,4.4-10.94,8.9l-0.07-0.72
						c-0.27-2.93-2.48-4.87-4.93-4.34l-3.84,0.83c-1.62,0.35-2.88,1.74-3.51,3.45c-2.67-1.48-5.49-1.89-8.73-1.19
						c-4.43,0.96-8.2,4.1-10.68,8.31l-0.02-0.2c-0.27-2.93-2.48-4.87-4.93-4.34l-3.94,0.85c-2.45,0.53-4.23,3.34-3.96,6.27
						l1.15,15.56l-1.43-15.5c-0.27-2.93-2.48-4.87-4.93-4.34l-3.94,0.85c-1.92,0.42-3.39,2.24-3.82,4.41
						c-2.14-1.75-4.85-2.54-7.71-1.92l-9.58,2.07c-0.82,0.18-1.51,0.67-2.13,1.27c-0.7-0.32-1.46-0.5-2.27-0.32l-14.23,3.08
						c-1.25,0.27-2.32,1.15-3.03,2.32c-1.91-0.71-4.23-1.14-6.87-0.57c-3.45,0.75-5.98,2.75-7.67,5.27
						c-0.86-1.7-2.53-2.67-4.33-2.28l-3.85,0.83c-2.45,0.53-4.22,3.34-3.95,6.26l0.26,2.87l-8.23-6.94l-2.34,0.51
						c-2.45,0.53-4.22,3.32-3.95,6.23l0.1,1.06c-3.17-3.24-7.49-4.83-12.09-3.84c-4.14,0.89-7.69,3.7-10.16,7.49l-0.44-0.35
						c-3.28-2.6-6.69-3.4-10.77-2.52c-8.49,1.84-14.64,11.58-13.7,21.72c0.93,10.1,8.59,16.82,17.08,14.98
						c3.96-0.86,7.52-3.44,10.03-7.33l0.12-0.24c3.07,2.65,7.04,3.84,11.21,2.94c4.62-1,8.48-4.37,10.95-8.84l0.06,0.65
						c0.27,2.93,2.48,4.87,4.93,4.34l3.81-0.82c2.45-0.53,4.22-3.34,3.95-6.26l-0.3-3.23l6.74,5.97c1.06,1,2.47,1.13,3.87,0.83
						c1.69-0.37,3.01-1.84,3.6-3.65c1.74,0.94,4.56,1.89,8.57,1.02c5.24-1.13,8.59-5.36,9.79-9.95l0.18,2
						c0.27,2.93,2.48,4.87,4.93,4.34l3.85-0.83c2.45-0.53,4.22-3.34,3.95-6.26l-1.46-15.86l0.7-0.15l1.46,15.86
						c0.27,2.93,2.48,4.87,4.93,4.34l3.81-0.82c1.62-0.35,2.94-1.69,3.57-3.41l1.72,2.26l6.56-1.42c1.6-0.35,2.95-1.62,3.6-3.4
						l0.52-2.02c2.63,2.45,6.13,3.6,9.84,2.8c4.97-1.08,8.94-5.32,10.69-10.6c3.22,4.3,8.21,6.52,13.53,5.36
						c3.06-0.66,5.86-2.37,8.14-4.89c0.92,1.41,2.39,2.22,4.03,1.87l3.84-0.83c2.45-0.53,4.23-3.34,3.96-6.27l-0.06-0.68
						c3.17,3.26,7.5,4.88,12.12,3.88c4.62-1,8.49-4.38,10.96-8.85l0.06,0.66c0.27,2.93,2.48,4.87,4.93,4.34l3.81-0.82
						c2.45-0.53,4.22-3.34,3.95-6.26l-0.3-3.23l6.74,5.97c1.06,1,2.47,1.13,3.87,0.83c2.45-0.53,4.22-3.32,3.95-6.22l-2.37-25.75
						C357.34,608.53,355.14,606.58,352.69,607.11z M210.06,649.05l0.01-0.01c0.06,0.04,0.13,0.08,0.19,0.11
						C210.19,649.12,210.12,649.09,210.06,649.05z"/>
					<path class="st18" d="M192.18,628.59c4.3-0.93,7.86-4.23,9.88-8.52l0.05,0.57c0.27,2.93,2.48,4.87,4.93,4.34l3.81-0.82
						c2.45-0.53,4.22-3.34,3.95-6.26l-0.3-3.23l6.74,5.98c1.06,1,2.47,1.13,3.87,0.83c1.43-0.31,2.56-1.42,3.26-2.84
						c0.9,0.87,2.09,1.29,3.36,1.02l7.82-1.69c4.51-0.98,8.3-4.27,10.72-8.63l0.08,0.88c0.27,2.93,2.48,4.87,4.93,4.34l13.26-2.87
						c1.05-0.23,1.93-0.93,2.63-1.83c0.83,0.57,1.81,0.87,2.86,0.64l3.81-0.82c1.62-0.35,2.94-1.69,3.57-3.41l1.72,2.26l6.56-1.42
						c1.6-0.35,2.95-1.62,3.6-3.4l0.84-3.24l-4.5-7.45c2-2.87,2.99-6.43,2.66-10.02c-0.65-7.08-6.03-11.79-12-10.5l-9.58,2.07
						c-1.06,0.23-1.94,0.93-2.63,1.83c-0.83-0.57-1.8-0.87-2.85-0.64l-13.26,2.87c-2.45,0.53-4.23,3.34-3.96,6.27l0.08,0.86
						c-3.11-3.15-7.34-4.7-11.85-3.72l-7.82,1.69c-1.34,0.29-2.44,1.31-3.14,2.63c-0.92-0.97-2.16-1.48-3.51-1.19l-3.85,0.83
						c-2.45,0.53-4.22,3.34-3.95,6.26l0.26,2.87l-8.23-6.95l-2.34,0.51c-1.33,0.29-2.42,1.27-3.13,2.54
						c-0.87-0.71-1.97-1.05-3.14-0.8l-3.94,0.85c-2.45,0.53-4.23,3.34-3.96,6.27l1.15,15.56l-1.43-15.5
						c-0.27-2.93-2.48-4.87-4.93-4.34l-3.94,0.85c-2.45,0.53-4.23,3.34-3.96,6.27l1.45,15.8
						C178.62,624.57,185.05,630.14,192.18,628.59z"/>
					<path class="st18" d="M352.69,595.79l-3.85,0.83c-2.45,0.53-4.22,3.34-3.95,6.26l0.26,2.87l-8.23-6.95l-2.34,0.51
						c-2.45,0.53-4.22,3.32-3.95,6.23l0.1,1.07c-3.17-3.24-7.49-4.84-12.1-3.85c-4.62,1-8.49,4.4-10.94,8.9l-0.07-0.72
						c-0.27-2.93-2.48-4.87-4.93-4.34l-3.84,0.83c-1.62,0.35-2.88,1.74-3.51,3.45c-2.67-1.48-5.49-1.89-8.73-1.19
						c-4.43,0.96-8.2,4.1-10.68,8.31l-0.02-0.2c-0.27-2.93-2.48-4.87-4.93-4.34l-3.94,0.85c-2.45,0.53-4.23,3.34-3.96,6.27
						l1.15,15.56l-1.43-15.5c-0.27-2.93-2.48-4.87-4.93-4.34l-3.94,0.85c-1.92,0.42-3.39,2.24-3.82,4.41
						c-2.14-1.75-4.85-2.54-7.71-1.92l-9.58,2.07c-0.82,0.18-1.51,0.67-2.13,1.27c-0.7-0.32-1.46-0.5-2.27-0.32l-14.23,3.08
						c-1.25,0.27-2.32,1.15-3.03,2.32c-1.91-0.71-4.23-1.14-6.87-0.57c-3.45,0.75-5.98,2.75-7.67,5.27
						c-0.86-1.7-2.53-2.67-4.33-2.28l-3.85,0.83c-2.45,0.53-4.22,3.34-3.95,6.26l0.26,2.87l-8.23-6.94l-2.34,0.51
						c-2.45,0.53-4.22,3.32-3.95,6.23l0.1,1.06c-3.17-3.24-7.49-4.83-12.09-3.84c-4.14,0.89-7.69,3.7-10.16,7.49l-0.44-0.35
						c-3.28-2.6-6.69-3.4-10.77-2.52c-8.49,1.84-14.64,11.58-13.7,21.72c0.93,10.1,8.59,16.82,17.08,14.98
						c3.96-0.86,7.52-3.44,10.03-7.33l0.12-0.24c3.07,2.65,7.04,3.84,11.21,2.94c4.62-1,8.48-4.37,10.95-8.84l0.06,0.65
						c0.27,2.93,2.48,4.87,4.93,4.34l3.81-0.82c2.45-0.53,4.22-3.34,3.95-6.26l-0.3-3.23l6.74,5.97c1.06,1,2.47,1.13,3.87,0.83
						c1.69-0.37,3.01-1.84,3.6-3.65c1.74,0.94,4.56,1.89,8.57,1.02c5.24-1.13,8.59-5.36,9.79-9.95l0.18,2
						c0.27,2.93,2.48,4.87,4.93,4.34l3.85-0.83c2.45-0.53,4.22-3.34,3.95-6.26l-1.46-15.86l0.7-0.15l1.46,15.86
						c0.27,2.93,2.48,4.87,4.93,4.34l3.81-0.82c1.62-0.35,2.94-1.69,3.57-3.41l1.72,2.26l6.56-1.42c1.6-0.35,2.95-1.62,3.6-3.4
						l0.52-2.02c2.63,2.45,6.13,3.6,9.84,2.8c4.97-1.08,8.94-5.32,10.69-10.6c3.22,4.3,8.21,6.52,13.53,5.36
						c3.06-0.66,5.86-2.37,8.14-4.89c0.92,1.41,2.39,2.22,4.03,1.87l3.84-0.83c2.45-0.53,4.23-3.34,3.96-6.27l-0.06-0.68
						c3.17,3.26,7.5,4.88,12.12,3.88c4.62-1,8.49-4.38,10.96-8.85l0.06,0.66c0.27,2.93,2.48,4.87,4.93,4.34l3.81-0.82
						c2.45-0.53,4.22-3.34,3.95-6.26l-0.3-3.23l6.74,5.97c1.06,1,2.47,1.13,3.87,0.83c2.45-0.53,4.22-3.32,3.95-6.22l-2.37-25.75
						C357.34,597.2,355.14,595.26,352.69,595.79z M210.06,637.73l0.01-0.01c0.06,0.04,0.13,0.08,0.19,0.11
						C210.19,637.8,210.12,637.76,210.06,637.73z"/>
					<path class="st18" d="M190.7,624.74c-1.84,0-3.63-0.59-5.16-1.72c-2.43-1.78-3.99-4.73-4.3-8.09l-1.46-15.81
						c-0.08-0.91,0.53-1.8,1.37-1.98l3.95-0.85c0.39-0.1,0.87-0.02,1.26,0.27c0.4,0.29,0.64,0.75,0.69,1.27l1.43,15.49
						c0.11,1.17,0.6,2.14,1.32,2.67c0.54,0.39,1.13,0.51,1.8,0.36c1.73-0.38,2.93-2.38,2.73-4.56l-1.44-15.49
						c-0.09-0.95,0.51-1.8,1.38-2l3.94-0.85c0.42-0.09,0.88,0.01,1.25,0.27c0.39,0.29,0.65,0.74,0.71,1.24l1.45,15.83
						c0.6,6.37-3.45,12.54-9.01,13.75C191.96,624.67,191.33,624.74,190.7,624.74z M181.89,599.13l1.44,15.6
						c0.25,2.76,1.51,5.16,3.45,6.58c1.57,1.16,3.44,1.56,5.36,1.15c4.56-0.98,7.85-6.14,7.35-11.49l-1.4-15.35l-3.1,0.67
						l1.42,15.29c0.3,3.28-1.58,6.21-4.39,6.82c-1.22,0.25-2.47,0.02-3.49-0.72c-1.21-0.88-2-2.41-2.17-4.18l-1.38-15.04
						L181.89,599.13z"/>
					<path class="st18" d="M207.13,620.96c-0.33,0-0.64-0.11-0.92-0.3c-0.4-0.29-0.66-0.74-0.72-1.24l-2.4-25.78
						c-0.08-0.91,0.53-1.76,1.38-1.94l1.3-0.29l12.61,10.64L217.36,591c-0.09-0.95,0.52-1.82,1.38-1.99l3.84-0.83
						c0.4-0.08,0.88,0,1.25,0.27c0.4,0.3,0.65,0.76,0.7,1.27l2.37,25.74c0.1,0.89-0.51,1.78-1.38,1.96l-0.5,0.11
						c-0.35,0.09-1.01-0.03-1.37-0.35l-12.09-10.71l1.07,11.66c0.09,0.96-0.51,1.81-1.38,1.99l-3.79,0.83
						C207.35,620.95,207.24,620.96,207.13,620.96z M205.21,593.72l2.33,25.02l2.95-0.64l-1.39-15.09l1.49-0.18l0.4,0.31l13.76,12.19
						l-2.29-24.97l-2.99,0.65l1.33,14.28l-1.4,0.35l-0.46-0.34L205.21,593.72z M210.81,618.03c-0.01,0-0.01,0-0.01,0.01
						L210.81,618.03z M225.07,615.34c-0.02,0.01-0.07,0.02-0.11,0.04L225.07,615.34z M204.92,593.77l-0.01,0.01
						C204.92,593.77,204.92,593.77,204.92,593.77z M219.18,591.07l-0.01,0.01C219.18,591.07,219.18,591.07,219.18,591.07z
						 M223.03,590.24h-0.01H223.03z"/>
					<path class="st18" d="M231.82,615.62c-0.31,0-0.63-0.1-0.9-0.3c-0.4-0.29-0.65-0.76-0.7-1.28l-2.33-25.33
						c-0.09-0.93,0.51-1.8,1.35-1.97l7.81-1.69c2.91-0.63,5.96,0.01,8.45,1.82c2.99,2.19,4.92,5.84,5.31,10.03
						c0.72,7.92-4.15,15.55-10.85,17l-7.82,1.69C232.04,615.6,231.93,615.62,231.82,615.62z M231.7,613.51h-0.01H231.7z
						 M230.02,588.73l2.27,24.66l7.23-1.56c5.69-1.23,9.81-7.84,9.19-14.73c-0.33-3.58-1.96-6.69-4.46-8.52
						c-2-1.45-4.39-1.94-6.76-1.46L230.02,588.73z M229.69,588.8h-0.01H229.69z M234.88,609.21l-1.63-17.61l3.99-0.86
						c1.82-0.38,3.59-0.01,5.03,1.03c1.78,1.32,2.95,3.6,3.2,6.28c0.46,4.95-2.27,9.36-6.36,10.25L234.88,609.21z M235.53,593.27
						l1.23,13.38l1.91-0.41c3.04-0.66,5.06-4.09,4.7-7.98c-0.19-2.08-1.05-3.82-2.34-4.77c-0.96-0.71-2.08-0.95-3.34-0.67
						L235.53,593.27z"/>
					<path class="st18" d="M255.35,610.53c-0.33,0-0.65-0.11-0.93-0.32c-0.4-0.29-0.64-0.75-0.69-1.27l-2.33-25.33
						c-0.09-0.95,0.51-1.8,1.38-1.98l13.26-2.87c0.4-0.09,0.87-0.02,1.26,0.27c0.39,0.29,0.64,0.75,0.69,1.27l0.39,4.16
						c0.09,0.95-0.51,1.81-1.37,2l-7.96,1.72l0.24,2.63l6.14-1.33c0.41-0.09,0.9,0.01,1.26,0.28c0.4,0.29,0.65,0.75,0.7,1.25
						l0.39,4.17c0.08,0.95-0.53,1.81-1.39,1.99l-6.37,1.38l0.28,3.05l7.71-1.67c0.4-0.08,0.87-0.02,1.26,0.27
						c0.39,0.29,0.64,0.75,0.69,1.27l0.39,4.16c0.09,0.95-0.51,1.81-1.37,2l-13.26,2.87C255.58,610.51,255.46,610.53,255.35,610.53z
						 M253.53,583.64l2.27,24.67l12.41-2.69l-0.32-3.51l-9.48,2.06l-0.67-7.29l7.92-1.71l-0.32-3.5l-7.92,1.71l-0.64-6.86l9.49-2.05
						l-0.32-3.51L253.53,583.64z M265.94,595.1h-0.01H265.94z M265.88,591.55h-0.01H265.88z"/>
					<path class="st18" d="M274.09,606.47c-0.32,0-0.64-0.11-0.92-0.31c-0.4-0.29-0.64-0.75-0.69-1.27l-2.33-25.32
						c-0.09-0.95,0.51-1.8,1.37-1.99l9.59-2.07c1.99-0.43,3.94,0,5.57,1.19c1.94,1.42,3.2,3.79,3.44,6.5
						c0.31,3.39-1.09,6.78-3.7,9.06l4.81,7.97c0.32,0.54,0.36,1.22,0.11,1.79c-0.23,0.53-0.69,0.9-1.24,1.02l-4.26,0.92
						c-0.64,0.12-1.3-0.14-1.67-0.7l-4.83-8.59l-0.54,0.12l0.82,8.82c0.08,0.91-0.53,1.8-1.36,1.99l-3.83,0.82
						C274.33,606.45,274.21,606.47,274.09,606.47z M272.28,579.58l2.27,24.66l2.95-0.64l-0.97-10.48l3.9-0.85l5.36,9.54l3.54-0.77
						l-5.69-9.32l0.79-0.57c2.49-1.81,3.87-4.79,3.6-7.76c-0.2-2.1-1.14-3.92-2.59-4.99c-1.17-0.85-2.55-1.13-3.88-0.83
						L272.28,579.58z M272.26,579.38L272.26,579.38C272.26,579.38,272.26,579.38,272.26,579.38L272.26,579.38z M276.28,590.39
						l-0.75-8.09l5.66-1.23c0.83-0.18,1.75,0.01,2.49,0.55c0.84,0.62,1.38,1.63,1.48,2.77c0.21,2.16-1.15,4.32-2.97,4.72
						L276.28,590.39z M277.81,583.97l0.35,3.84l3.58-0.77c0.69-0.15,1.43-1.28,1.32-2.45c-0.06-0.54-0.28-1-0.63-1.26
						c-0.17-0.12-0.42-0.29-0.8-0.18L277.81,583.97z"/>
					<path class="st18" d="M138.29,674.99c-2.28,0-4.48-0.72-6.36-2.1c-3.04-2.23-5.01-5.99-5.4-10.33
						c-0.75-8.13,4.24-15.95,11.11-17.44l0,0c3.38-0.72,6.25-0.07,8.96,2.08c0.74,0.56,0.91,1.63,0.38,2.47l-2.2,3.62
						c-0.29,0.45-0.71,0.73-1.18,0.8c-0.46,0.01-0.9-0.08-1.23-0.39c-0.96-0.74-2.26-1.03-3.58-0.76c-3.01,0.65-5.09,4.21-4.72,8.11
						c0.19,2.05,1.06,3.79,2.4,4.77c0.97,0.72,2.15,0.97,3.35,0.7c1.29-0.28,2.64-1.18,3.51-2.36c0.28-0.39,0.74-0.66,1.24-0.7
						c0.38,0.03,0.9,0.13,1.19,0.44l2.76,2.61c0.6,0.53,0.72,1.6,0.23,2.37c-2.03,3.13-4.84,5.16-8.12,5.87
						C139.85,674.91,139.07,674.99,138.29,674.99z M138.09,647.18L138.09,647.18c-5.87,1.27-10.11,8.08-9.45,15.18
						c0.34,3.73,2,6.94,4.54,8.81c2.03,1.49,4.5,2.02,7.01,1.49c2.66-0.57,4.98-2.23,6.69-4.8l-2.18-2.06
						c-1.17,1.4-2.8,2.41-4.45,2.76c-1.76,0.4-3.57,0.01-5.05-1.07c-1.81-1.34-3-3.62-3.24-6.28c-0.46-4.94,2.34-9.49,6.38-10.37
						c1.69-0.39,3.46-0.04,4.9,0.87l1.85-3.04C142.92,647.05,140.85,646.59,138.09,647.18z M147.08,668.05
						c0.01,0.01,0.01,0.02,0.01,0.02L147.08,668.05z M144.28,665.4c0.01,0.01,0.02,0.02,0.03,0.02L144.28,665.4z M145.04,665.38
						c0,0.01,0,0.01-0.01,0.02C145.04,665.39,145.04,665.39,145.04,665.38z M143.69,652.04c0.01,0.01,0.02,0.02,0.03,0.02
						C143.71,652.06,143.71,652.05,143.69,652.04z M145.3,648.87c0.01,0,0.01,0.01,0.01,0.01S145.31,648.87,145.3,648.87z
						 M145.18,648.55L145.18,648.55L145.18,648.55z"/>
					<path class="st18" d="M159.68,670.37c-2.26,0-4.43-0.71-6.3-2.08c-3.04-2.23-5.01-6-5.41-10.36
						c-0.76-8.27,4.09-15.92,11.06-17.43l0,0c3.02-0.65,6.13-0.02,8.65,1.85c3.05,2.24,5.03,6.04,5.43,10.41
						c0.76,8.22-4.11,15.85-11.09,17.36C161.23,670.28,160.45,670.37,159.68,670.37z M159.47,642.56
						c-5.84,1.27-10.05,8.07-9.4,15.17c0.35,3.76,2.01,6.99,4.56,8.85c2.05,1.5,4.41,2.02,6.94,1.47c5.85-1.27,10.08-8.04,9.43-15.1
						c-0.34-3.77-2.01-7.02-4.58-8.9C164.36,642.53,161.95,642.03,159.47,642.56L159.47,642.56z M160.1,664.14
						c-1.35,0-2.66-0.43-3.79-1.27c-1.81-1.33-2.99-3.53-3.21-6.05c-0.44-4.75,2.48-9.33,6.49-10.2c1.79-0.4,3.63,0.01,5.15,1.12
						c1.82,1.34,3.01,3.58,3.24,6.13c0.43,4.71-2.5,9.26-6.54,10.13l0,0C160.99,664.09,160.55,664.14,160.1,664.14z M160.96,648.58
						c-0.31,0-0.62,0.03-0.93,0.1c-2.95,0.64-5.16,4.28-4.83,7.94c0.18,1.91,1.03,3.56,2.36,4.53c1.03,0.76,2.21,1.03,3.45,0.76
						c2.96-0.64,5.2-4.25,4.88-7.87c-0.18-1.95-1.05-3.63-2.39-4.61C162.72,648.87,161.86,648.58,160.96,648.58z"/>
					<path class="st18" d="M177.64,666.3c-0.33,0-0.66-0.11-0.94-0.31c-0.4-0.3-0.65-0.76-0.7-1.27l-2.4-25.74
						c-0.08-0.9,0.52-1.75,1.36-1.95l1.32-0.28l12.61,10.63l-1.02-11.05c-0.09-0.95,0.51-1.81,1.37-2l3.85-0.83
						c0.45-0.09,0.86,0.01,1.23,0.26c0.4,0.28,0.66,0.74,0.72,1.25l2.37,25.78c0.08,0.91-0.52,1.76-1.36,1.95l-0.53,0.11
						c-0.38,0.09-1.05-0.04-1.4-0.39l-12.04-10.67l1.07,11.65c0.09,0.95-0.51,1.8-1.37,1.99l-3.8,0.82
						C177.86,666.29,177.75,666.3,177.64,666.3z M175.72,639.07l2.33,25.02l2.95-0.64l-1.37-14.89l1.37-0.46l0.49,0.39l13.77,12.19
						l-2.29-24.97l-2.99,0.64l1.32,14.36l-1.45,0.24l-0.41-0.31L175.72,639.07z M193.54,635.59h-0.01H193.54z"/>
					<path class="st18" d="M205.52,660.42c-3.23,0-5.14-1.4-5.73-1.92c-0.61-0.54-0.94-1.11-0.55-2.18l1.22-3.5
						c0.19-0.54,0.59-0.94,1.12-1.13c0.54-0.18,1.08-0.13,1.48,0.1c2.08,1.1,3.33,1.14,3.98,1c0.76-0.17,1.24-0.85,1.17-1.65
						c-0.07-0.72-0.45-1.62-2.86-2.21c-4.66-1.14-7.42-4-7.78-8.05c-0.38-4.11,1.82-9.11,7.53-10.34c3.44-0.76,6.44,0.62,7.9,1.51
						c0.88,0.4,1.02,1.69,0.74,2.45l-1.38,3.34c-0.21,0.52-0.72,1.14-1.38,1.36c-0.44,0.12-0.86,0.08-1.21-0.14
						c-1.85-0.99-3.1-1.33-4-1.16c-0.64,0.14-1.04,0.77-1.01,1.26c0.06,0.61,0.35,1.33,3.05,2.02c1.84,0.45,7.46,1.85,8.06,8.25
						c0.41,4.35-2.36,9.54-7.66,10.69C207.23,660.33,206.33,660.42,205.52,660.42z M201.26,656.95c0.73,0.58,2.9,1.89,6.5,1.1
						c4.16-0.9,6.32-4.99,6-8.42c-0.41-4.35-3.68-5.71-6.48-6.4c-2.17-0.55-4.41-1.45-4.63-3.89c-0.14-1.62,1.03-3.16,2.66-3.52
						c1.74-0.36,3.67,0.44,5.04,1.16l1.38-3.22c-1.34-0.77-3.63-1.74-6.2-1.16c-4.45,0.96-6.16,4.86-5.87,8.08
						c0.36,3.94,3.57,5.54,6.19,6.18c2.78,0.68,4.28,2.06,4.46,4.08c0.18,1.86-1.02,3.51-2.82,3.9c-1.45,0.31-3.22-0.04-5.22-1.09
						L201.26,656.95z M210.79,637.22l0.1,0.06C210.85,637.25,210.82,637.23,210.79,637.22z M211.88,633.84
						c0.03,0.03,0.07,0.05,0.11,0.07C211.96,633.89,211.92,633.87,211.88,633.84z"/>
					<path class="st18" d="M222.79,656.54c-0.34,0-0.67-0.11-0.95-0.32c-0.4-0.3-0.64-0.75-0.69-1.26l-1.77-19.24l-3.43,0.74
						c-0.42,0.09-0.86,0.01-1.23-0.25c-0.4-0.28-0.66-0.74-0.72-1.26l-0.38-4.2c-0.11-0.91,0.49-1.79,1.35-1.99l14.24-3.08
						c0.43-0.1,0.9,0.01,1.25,0.27c0.39,0.28,0.65,0.74,0.71,1.24l0.38,4.2c0.11,0.91-0.5,1.8-1.37,1.99l-3.66,0.79l1.79,19.5
						c0.08,0.93-0.54,1.82-1.38,1.99l-3.84,0.83C223,656.53,222.88,656.54,222.79,656.54z M221.26,633.15l1.95,21.16l2.99-0.65
						l-1.95-21.16l5.19-1.12l-0.31-3.51l-13.37,2.9l0.31,3.51L221.26,633.15z M226.5,653.6c0,0,0,0-0.01,0H226.5z M229.45,631.6
						c0,0.01,0,0.01,0,0.01V631.6z M215.73,630.55v0.01C215.73,630.55,215.73,630.55,215.73,630.55z"/>
					<path class="st18" d="M236.19,653.64c-0.32,0-0.64-0.11-0.92-0.31c-0.4-0.29-0.64-0.75-0.69-1.27l-2.33-25.31
						c-0.1-0.93,0.5-1.81,1.37-2l9.58-2.07c1.98-0.41,3.95,0.01,5.58,1.21c1.94,1.42,3.2,3.79,3.44,6.49
						c0.31,3.39-1.09,6.78-3.7,9.07l4.81,7.97c0.32,0.54,0.36,1.22,0.11,1.79c-0.23,0.53-0.69,0.9-1.24,1.02l-4.26,0.92
						c-0.64,0.14-1.34-0.16-1.69-0.74l-4.82-8.55l-0.53,0.12l0.81,8.82c0.11,0.9-0.5,1.8-1.35,1.99l-3.83,0.82
						C236.42,653.62,236.31,653.64,236.19,653.64z M234.37,626.74l2.27,24.66l2.94-0.64l-0.96-10.48l3.89-0.85l5.37,9.54l3.54-0.77
						l-5.69-9.32l0.79-0.57c2.49-1.82,3.87-4.8,3.6-7.77c-0.2-2.1-1.14-3.91-2.59-4.98c-1.15-0.85-2.5-1.16-3.89-0.84L234.37,626.74
						z M239.6,650.99c0,0,0,0.01,0,0.01V650.99z M238.38,637.55l-0.75-8.09l5.66-1.23c0.92-0.2,1.76,0.02,2.49,0.54
						c0.84,0.62,1.38,1.63,1.48,2.78c0.21,2.16-1.15,4.32-2.97,4.72L238.38,637.55z M239.9,631.13l0.35,3.84l3.58-0.77
						c0.69-0.15,1.43-1.28,1.32-2.45c-0.06-0.55-0.29-1.01-0.64-1.27c-0.17-0.13-0.43-0.25-0.79-0.18L239.9,631.13z"/>
					<path class="st18" d="M264.27,647.78c-1.84,0-3.62-0.59-5.15-1.71c-2.43-1.78-3.99-4.73-4.3-8.1l-1.46-15.81
						c-0.08-0.92,0.52-1.79,1.36-1.98l3.95-0.85c0.44-0.1,0.9,0.01,1.27,0.27c0.39,0.29,0.64,0.76,0.69,1.27l1.43,15.49
						c0.11,1.17,0.59,2.14,1.3,2.67c0.51,0.38,1.13,0.5,1.8,0.36c1.73-0.38,2.93-2.38,2.73-4.56l-1.43-15.49
						c-0.09-0.95,0.51-1.8,1.38-2l3.94-0.85c0.46-0.09,0.91,0.02,1.26,0.28c0.4,0.3,0.64,0.75,0.69,1.26l1.46,15.79
						c0.59,6.39-3.46,12.56-9.02,13.76C265.53,647.72,264.9,647.78,264.27,647.78z M255.48,622.18l1.44,15.6
						c0.25,2.76,1.51,5.16,3.45,6.59c1.56,1.15,3.47,1.57,5.35,1.14c4.54-0.98,7.85-6.14,7.36-11.49l-1.42-15.34l-3.09,0.66
						l1.4,15.29c0.3,3.28-1.58,6.21-4.39,6.82c-1.24,0.27-2.49,0.01-3.49-0.73c-1.22-0.89-2-2.41-2.16-4.18l-1.38-15.04
						L255.48,622.18z"/>
					<path class="st18" d="M288.04,642.59c-2.27,0-4.46-0.71-6.35-2.1c-3.04-2.23-5.01-5.99-5.41-10.33
						c-0.74-8.14,4.25-15.96,11.12-17.44l0,0c3.38-0.75,6.23-0.07,8.96,2.08c0.74,0.56,0.91,1.63,0.38,2.47l-2.2,3.62
						c-0.28,0.44-0.7,0.72-1.17,0.79c-0.44,0.06-0.91-0.07-1.24-0.37c-1-0.76-2.28-1.08-3.58-0.77c-3.01,0.65-5.09,4.21-4.72,8.11
						c0.19,2.05,1.06,3.79,2.39,4.77c0.98,0.72,2.12,0.98,3.36,0.71c1.3-0.28,2.64-1.18,3.49-2.36c0.3-0.41,0.77-0.67,1.26-0.71
						c0.59-0.03,0.88,0.13,1.18,0.44l2.76,2.61c0.6,0.53,0.72,1.6,0.23,2.37c-2.03,3.13-4.84,5.16-8.13,5.87
						C289.6,642.51,288.81,642.59,288.04,642.59z M289.98,614.54c-0.67,0-1.38,0.08-2.13,0.25l0,0c-5.86,1.27-10.11,8.08-9.47,15.18
						c0.34,3.73,2.01,6.94,4.56,8.81c2.02,1.49,4.51,2.02,7,1.48c2.68-0.58,4.99-2.23,6.7-4.8l-2.18-2.06
						c-1.15,1.39-2.78,2.42-4.45,2.78c-1.78,0.39-3.59,0.01-5.05-1.07c-1.82-1.34-3-3.62-3.24-6.28c-0.46-4.94,2.34-9.49,6.38-10.37
						c1.65-0.37,3.43-0.06,4.9,0.88l1.85-3.04C293.27,615.11,291.73,614.54,289.98,614.54z M296.84,635.65
						c0.01,0.01,0.01,0.02,0.01,0.02L296.84,635.65z M294.03,633c0.01,0.01,0.02,0.02,0.03,0.02L294.03,633z M293.44,619.65
						c0.01,0.01,0.01,0.01,0.02,0.02C293.47,619.66,293.45,619.66,293.44,619.65z M295.06,616.47c0.01,0,0.01,0.01,0.01,0.01
						S295.07,616.47,295.06,616.47z M294.94,616.15L294.94,616.15L294.94,616.15z"/>
					<path class="st18" d="M302.23,639.34c-0.32,0-0.65-0.11-0.93-0.3c-0.4-0.29-0.65-0.76-0.7-1.26l-2.33-25.32
						c-0.1-0.92,0.52-1.82,1.38-2l3.83-0.83c0.45-0.08,0.91,0.02,1.27,0.29c0.39,0.29,0.64,0.75,0.69,1.25l2.33,25.32
						c0.08,0.92-0.53,1.81-1.37,2l-3.85,0.83C302.46,639.33,302.35,639.34,302.23,639.34z M302.11,637.24h-0.01H302.11z
						 M300.4,612.46l2.27,24.66l2.99-0.64l-2.27-24.67L300.4,612.46z M300.1,612.52l-0.01,0.01
						C300.1,612.53,300.1,612.53,300.1,612.52z"/>
					<path class="st18" d="M320.07,635.66c-2.26,0-4.43-0.71-6.3-2.08c-3.03-2.22-5-6-5.4-10.36c-0.76-8.27,4.09-15.93,11.06-17.44
						l0,0c3.05-0.67,6.11-0.01,8.64,1.84c3.05,2.24,5.04,6.04,5.44,10.41c0.76,8.23-4.11,15.86-11.09,17.37
						C321.63,635.58,320.84,635.66,320.07,635.66z M319.87,607.86c-5.84,1.27-10.05,8.07-9.4,15.17c0.35,3.76,2.01,6.98,4.56,8.85
						c2.02,1.5,4.42,2,6.94,1.47c5.85-1.26,10.08-8.04,9.43-15.1c-0.35-3.78-2.02-7.02-4.59-8.9
						C324.76,607.84,322.37,607.31,319.87,607.86L319.87,607.86z M320.49,629.43c-1.34,0-2.65-0.43-3.78-1.27
						c-1.81-1.33-2.99-3.53-3.21-6.05c-0.45-4.75,2.45-9.33,6.49-10.2c1.8-0.39,3.63,0.01,5.14,1.11c1.82,1.34,3.01,3.57,3.25,6.13
						c0.43,4.72-2.5,9.26-6.54,10.13l0,0C321.4,629.39,320.94,629.43,320.49,629.43z M321.36,613.88c-0.31,0-0.62,0.03-0.93,0.1
						c-2.96,0.64-5.18,4.27-4.83,7.93c0.18,1.92,1.03,3.58,2.36,4.54c1.04,0.77,2.27,1.03,3.45,0.76l0,0
						c2.96-0.64,5.2-4.25,4.88-7.87c-0.19-1.95-1.06-3.63-2.4-4.61C323.11,614.17,322.25,613.88,321.36,613.88z"/>
					<path class="st18" d="M338.04,631.6c-0.32,0-0.64-0.1-0.91-0.29c-0.41-0.29-0.67-0.74-0.73-1.25l-2.4-25.77
						c-0.08-0.9,0.52-1.75,1.36-1.95l1.33-0.28l12.61,10.63l-1.02-11.06c-0.11-0.92,0.49-1.8,1.36-2l3.85-0.83
						c0.39-0.09,0.87,0.01,1.25,0.27c0.4,0.3,0.65,0.76,0.7,1.27l2.38,25.74c0.08,0.91-0.52,1.76-1.38,1.95l-0.51,0.11
						c-0.38,0.08-1.04-0.04-1.4-0.39l-12.04-10.67l1.06,11.66c0.11,0.91-0.49,1.79-1.35,1.98l-3.83,0.82
						C338.26,631.59,338.15,631.6,338.04,631.6z M337.92,629.5h-0.01H337.92z M336.13,604.36l2.33,25.02l2.95-0.64l-1.36-14.89
						l1.37-0.46l0.49,0.39l13.77,12.19l-2.3-24.97l-2.97,0.64l1.33,14.4l-1.48,0.18l-0.4-0.29L336.13,604.36z M341.43,628.96
						c0,0.01,0,0.01,0,0.01V628.96z M350.38,601.42v0.01C350.38,601.42,350.38,601.42,350.38,601.42z M353.94,600.88h-0.01H353.94z"
						/>
				</g>
				<g>
					<g>
						<g>
							<g class="st17">
								<path class="st18" d="M192.18,647.07c4.3-0.93,7.86-4.23,9.88-8.52l0.05,0.57c0.27,2.93,2.48,4.87,4.93,4.34l3.81-0.82
									c2.45-0.53,4.22-3.34,3.95-6.26l-0.3-3.23l6.74,5.98c1.06,1,2.47,1.13,3.87,0.83c1.43-0.31,2.56-1.42,3.26-2.84
									c0.9,0.87,2.09,1.29,3.36,1.02l7.82-1.69c4.51-0.98,8.3-4.27,10.72-8.63l0.08,0.88c0.27,2.93,2.48,4.87,4.93,4.34
									l13.26-2.87c1.05-0.23,1.93-0.93,2.63-1.83c0.83,0.57,1.81,0.87,2.86,0.64l3.81-0.82c1.62-0.35,2.94-1.69,3.57-3.41
									l1.72,2.26l6.56-1.42c1.6-0.35,2.95-1.62,3.6-3.4l0.84-3.24l-4.5-7.45c2-2.87,2.99-6.43,2.66-10.02
									c-0.65-7.08-6.03-11.79-12-10.5l-9.58,2.07c-1.06,0.23-1.94,0.93-2.63,1.83c-0.83-0.57-1.8-0.87-2.85-0.64l-13.26,2.87
									c-2.45,0.53-4.23,3.34-3.96,6.27l0.08,0.86c-3.11-3.15-7.34-4.7-11.85-3.72l-7.82,1.69c-1.34,0.29-2.44,1.31-3.14,2.63
									c-0.92-0.97-2.16-1.48-3.51-1.19l-3.85,0.83c-2.45,0.53-4.22,3.34-3.95,6.26l0.26,2.87l-8.23-6.95l-2.34,0.51
									c-1.33,0.29-2.42,1.27-3.13,2.54c-0.87-0.71-1.97-1.05-3.14-0.8l-3.94,0.85c-2.45,0.53-4.23,3.34-3.96,6.27l1.15,15.56
									l-1.43-15.5c-0.27-2.93-2.48-4.87-4.93-4.34l-3.94,0.85c-2.45,0.53-4.23,3.34-3.96,6.27l1.45,15.8
									C178.62,643.04,185.05,648.61,192.18,647.07z"/>
								<path class="st18" d="M352.69,614.26l-3.85,0.83c-2.45,0.53-4.22,3.34-3.95,6.26l0.26,2.87l-8.23-6.95l-2.34,0.51
									c-2.45,0.53-4.22,3.32-3.95,6.23l0.1,1.07c-3.17-3.24-7.49-4.84-12.1-3.85c-4.62,1-8.49,4.4-10.94,8.9l-0.07-0.72
									c-0.27-2.93-2.48-4.87-4.93-4.34l-3.84,0.83c-1.62,0.35-2.88,1.74-3.51,3.45c-2.67-1.48-5.49-1.89-8.73-1.19
									c-4.43,0.96-8.2,4.1-10.68,8.31l-0.02-0.2c-0.27-2.93-2.48-4.87-4.93-4.34l-3.94,0.85c-2.45,0.53-4.23,3.34-3.96,6.27
									l1.15,15.56l-1.43-15.5c-0.27-2.93-2.48-4.87-4.93-4.34l-3.94,0.85c-1.92,0.42-3.39,2.24-3.82,4.41
									c-2.14-1.75-4.85-2.54-7.71-1.92l-9.58,2.07c-0.82,0.18-1.51,0.67-2.13,1.27c-0.7-0.32-1.46-0.5-2.27-0.32l-14.23,3.08
									c-1.25,0.27-2.32,1.15-3.03,2.32c-1.91-0.71-4.23-1.14-6.87-0.57c-3.45,0.75-5.98,2.75-7.67,5.27
									c-0.86-1.7-2.53-2.67-4.33-2.28l-3.85,0.83c-2.45,0.53-4.22,3.34-3.95,6.26l0.26,2.87l-8.23-6.94l-2.34,0.51
									c-2.45,0.53-4.22,3.32-3.95,6.23l0.1,1.06c-3.17-3.24-7.49-4.83-12.09-3.84c-4.14,0.89-7.69,3.7-10.16,7.49l-0.44-0.35
									c-3.28-2.6-6.69-3.4-10.77-2.52c-8.49,1.84-14.64,11.58-13.7,21.72c0.93,10.1,8.59,16.82,17.08,14.98
									c3.96-0.86,7.52-3.44,10.03-7.33l0.12-0.24c3.07,2.65,7.04,3.84,11.21,2.94c4.62-1,8.48-4.37,10.95-8.84l0.06,0.65
									c0.27,2.93,2.48,4.87,4.93,4.34l3.81-0.82c2.45-0.53,4.22-3.34,3.95-6.26l-0.3-3.23l6.74,5.97c1.06,1,2.47,1.13,3.87,0.83
									c1.69-0.37,3.01-1.84,3.6-3.65c1.74,0.94,4.56,1.89,8.57,1.02c5.24-1.13,8.59-5.36,9.79-9.95l0.18,2
									c0.27,2.93,2.48,4.87,4.93,4.34l3.85-0.83c2.45-0.53,4.22-3.34,3.95-6.26l-1.46-15.86l0.7-0.15l1.46,15.86
									c0.27,2.93,2.48,4.87,4.93,4.34l3.81-0.82c1.62-0.35,2.94-1.69,3.57-3.41l1.72,2.26l6.56-1.42c1.6-0.35,2.95-1.62,3.6-3.4
									l0.52-2.02c2.63,2.45,6.13,3.6,9.84,2.8c4.97-1.08,8.94-5.32,10.69-10.6c3.22,4.3,8.21,6.52,13.53,5.36
									c3.06-0.66,5.86-2.37,8.14-4.89c0.92,1.41,2.39,2.22,4.03,1.87l3.84-0.83c2.45-0.53,4.23-3.34,3.96-6.27l-0.06-0.68
									c3.17,3.26,7.5,4.88,12.12,3.88c4.62-1,8.49-4.38,10.96-8.85l0.06,0.66c0.27,2.93,2.48,4.87,4.93,4.34l3.81-0.82
									c2.45-0.53,4.22-3.34,3.95-6.26l-0.3-3.23l6.74,5.97c1.06,1,2.47,1.13,3.87,0.83c2.45-0.53,4.22-3.32,3.95-6.22l-2.37-25.75
									C357.34,615.68,355.14,613.73,352.69,614.26z M210.06,656.2l0.01-0.01c0.06,0.04,0.13,0.08,0.19,0.11
									C210.19,656.27,210.12,656.24,210.06,656.2z"/>
							</g>
							<g>
								<g>
									<path class="st19" d="M192.18,635.74c4.3-0.93,7.86-4.23,9.88-8.52l0.05,0.57c0.27,2.93,2.48,4.87,4.93,4.34l3.81-0.82
										c2.45-0.53,4.22-3.34,3.95-6.26l-0.3-3.23l6.74,5.98c1.06,1,2.47,1.13,3.87,0.83c1.43-0.31,2.56-1.42,3.26-2.84
										c0.9,0.87,2.09,1.29,3.36,1.02l7.82-1.69c4.51-0.98,8.3-4.27,10.72-8.63l0.08,0.88c0.27,2.93,2.48,4.87,4.93,4.34
										l13.26-2.87c1.05-0.23,1.93-0.93,2.63-1.83c0.83,0.57,1.81,0.87,2.86,0.64l3.81-0.82c1.62-0.35,2.94-1.69,3.57-3.41
										l1.72,2.26l6.56-1.42c1.6-0.35,2.95-1.62,3.6-3.4l0.84-3.24l-4.5-7.45c2-2.87,2.99-6.43,2.66-10.02
										c-0.65-7.08-6.03-11.79-12-10.5l-9.58,2.07c-1.06,0.23-1.94,0.93-2.63,1.83c-0.83-0.57-1.8-0.87-2.85-0.64l-13.26,2.87
										c-2.45,0.53-4.23,3.34-3.96,6.27l0.08,0.86c-3.11-3.15-7.34-4.7-11.85-3.72l-7.82,1.69c-1.34,0.29-2.44,1.31-3.14,2.63
										c-0.92-0.97-2.16-1.48-3.51-1.19l-3.85,0.83c-2.45,0.53-4.22,3.34-3.95,6.26l0.26,2.87l-8.23-6.95l-2.34,0.51
										c-1.33,0.29-2.42,1.27-3.13,2.54c-0.87-0.71-1.97-1.05-3.14-0.8l-3.94,0.85c-2.45,0.53-4.23,3.34-3.96,6.27l1.15,15.56
										l-1.43-15.5c-0.27-2.93-2.48-4.87-4.93-4.34l-3.94,0.85c-2.45,0.53-4.23,3.34-3.96,6.27l1.45,15.8
										C178.62,631.72,185.05,637.29,192.18,635.74z"/>
									<path class="st19" d="M352.69,602.94l-3.85,0.83c-2.45,0.53-4.22,3.34-3.95,6.26l0.26,2.87l-8.23-6.95l-2.34,0.51
										c-2.45,0.53-4.22,3.32-3.95,6.23l0.1,1.07c-3.17-3.24-7.49-4.84-12.1-3.85c-4.62,1-8.49,4.4-10.94,8.9l-0.07-0.72
										c-0.27-2.93-2.48-4.87-4.93-4.34l-3.84,0.83c-1.62,0.35-2.88,1.74-3.51,3.45c-2.67-1.48-5.49-1.89-8.73-1.19
										c-4.43,0.96-8.2,4.1-10.68,8.31l-0.02-0.2c-0.27-2.93-2.48-4.87-4.93-4.34l-3.94,0.85c-2.45,0.53-4.23,3.34-3.96,6.27
										l1.15,15.56l-1.43-15.5c-0.27-2.93-2.48-4.87-4.93-4.34l-3.94,0.85c-1.92,0.42-3.39,2.24-3.82,4.41
										c-2.14-1.75-4.85-2.54-7.71-1.92l-9.58,2.07c-0.82,0.18-1.51,0.67-2.13,1.27c-0.7-0.32-1.46-0.5-2.27-0.32l-14.23,3.08
										c-1.25,0.27-2.32,1.15-3.03,2.32c-1.91-0.71-4.23-1.14-6.87-0.57c-3.45,0.75-5.98,2.75-7.67,5.27
										c-0.86-1.7-2.53-2.67-4.33-2.28l-3.85,0.83c-2.45,0.53-4.22,3.34-3.95,6.26l0.26,2.87l-8.23-6.94l-2.34,0.51
										c-2.45,0.53-4.22,3.32-3.95,6.23l0.1,1.06c-3.17-3.24-7.49-4.83-12.09-3.84c-4.14,0.89-7.69,3.7-10.16,7.49l-0.44-0.35
										c-3.28-2.6-6.69-3.4-10.77-2.52c-8.49,1.84-14.64,11.58-13.7,21.72c0.93,10.1,8.59,16.82,17.08,14.98
										c3.96-0.86,7.52-3.44,10.03-7.33l0.12-0.24c3.07,2.65,7.04,3.84,11.21,2.94c4.62-1,8.48-4.37,10.95-8.84l0.06,0.65
										c0.27,2.93,2.48,4.87,4.93,4.34l3.81-0.82c2.45-0.53,4.22-3.34,3.95-6.26l-0.3-3.23l6.74,5.97c1.06,1,2.47,1.13,3.87,0.83
										c1.69-0.37,3.01-1.84,3.6-3.65c1.74,0.94,4.56,1.89,8.57,1.02c5.24-1.13,8.59-5.36,9.79-9.95l0.18,2
										c0.27,2.93,2.48,4.87,4.93,4.34l3.85-0.83c2.45-0.53,4.22-3.34,3.95-6.26l-1.46-15.86l0.7-0.15l1.46,15.86
										c0.27,2.93,2.48,4.87,4.93,4.34l3.81-0.82c1.62-0.35,2.94-1.69,3.57-3.41l1.72,2.26l6.56-1.42c1.6-0.35,2.95-1.62,3.6-3.4
										l0.52-2.02c2.63,2.45,6.13,3.6,9.84,2.8c4.97-1.08,8.94-5.32,10.69-10.6c3.22,4.3,8.21,6.52,13.53,5.36
										c3.06-0.66,5.86-2.37,8.14-4.89c0.92,1.41,2.39,2.22,4.03,1.87l3.84-0.83c2.45-0.53,4.23-3.34,3.96-6.27l-0.06-0.68
										c3.17,3.26,7.5,4.88,12.12,3.88c4.62-1,8.49-4.38,10.96-8.85l0.06,0.66c0.27,2.93,2.48,4.87,4.93,4.34l3.81-0.82
										c2.45-0.53,4.22-3.34,3.95-6.26l-0.3-3.23l6.74,5.97c1.06,1,2.47,1.13,3.87,0.83c2.45-0.53,4.22-3.32,3.95-6.22
										l-2.37-25.75C357.34,604.35,355.14,602.41,352.69,602.94z M210.06,644.88l0.01-0.01c0.06,0.04,0.13,0.08,0.19,0.11
										C210.19,644.95,210.12,644.92,210.06,644.88z"/>
								</g>
							</g>
						</g>
						<g>
							<g>
								<path class="st20" d="M190.7,631.89c-1.84,0-3.63-0.59-5.16-1.72c-2.43-1.78-3.99-4.73-4.3-8.09l-1.46-15.81
									c-0.08-0.91,0.53-1.8,1.37-1.98l3.95-0.85c0.39-0.1,0.87-0.02,1.26,0.27c0.4,0.29,0.64,0.75,0.69,1.27l1.43,15.49
									c0.11,1.17,0.6,2.14,1.32,2.67c0.54,0.39,1.13,0.51,1.8,0.36c1.73-0.38,2.93-2.38,2.73-4.56l-1.44-15.49
									c-0.09-0.95,0.51-1.8,1.38-2l3.94-0.85c0.42-0.09,0.88,0.01,1.25,0.27c0.39,0.29,0.65,0.74,0.71,1.24l1.45,15.83
									c0.6,6.37-3.45,12.54-9.01,13.75C191.96,631.82,191.33,631.89,190.7,631.89z M181.89,606.28l1.44,15.6
									c0.25,2.76,1.51,5.16,3.45,6.58c1.57,1.16,3.44,1.56,5.36,1.15c4.56-0.98,7.85-6.14,7.35-11.49l-1.4-15.35l-3.1,0.67
									l1.42,15.29c0.3,3.28-1.58,6.21-4.39,6.82c-1.22,0.25-2.47,0.02-3.49-0.72c-1.21-0.88-2-2.41-2.17-4.18l-1.38-15.04
									L181.89,606.28z"/>
							</g>
							<g>
								<path class="st20" d="M207.13,628.11c-0.33,0-0.64-0.11-0.92-0.3c-0.4-0.29-0.66-0.74-0.72-1.24l-2.4-25.78
									c-0.08-0.91,0.53-1.76,1.38-1.94l1.3-0.29l12.61,10.64l-1.03-11.06c-0.09-0.95,0.52-1.82,1.38-1.99l3.84-0.83
									c0.4-0.08,0.88,0,1.25,0.27c0.4,0.3,0.65,0.76,0.7,1.27l2.37,25.74c0.1,0.89-0.51,1.78-1.38,1.96l-0.5,0.11
									c-0.35,0.09-1.01-0.03-1.37-0.35l-12.09-10.71l1.07,11.66c0.09,0.96-0.51,1.81-1.38,1.99l-3.79,0.83
									C207.35,628.1,207.24,628.11,207.13,628.11z M205.21,600.87l2.33,25.02l2.95-0.64l-1.39-15.09l1.49-0.18l0.4,0.31
									l13.76,12.19l-2.29-24.97l-2.99,0.65l1.33,14.28l-1.4,0.35l-0.46-0.34L205.21,600.87z M210.81,625.18
									c-0.01,0-0.01,0-0.01,0.01L210.81,625.18z M225.07,622.49c-0.02,0.01-0.07,0.02-0.11,0.04L225.07,622.49z M204.92,600.92
									l-0.01,0.01C204.92,600.92,204.92,600.92,204.92,600.92z M219.18,598.22l-0.01,0.01
									C219.18,598.22,219.18,598.22,219.18,598.22z M223.03,597.39h-0.01H223.03z"/>
							</g>
							<g>
								<path class="st20" d="M231.82,622.77c-0.31,0-0.63-0.1-0.9-0.3c-0.4-0.29-0.65-0.76-0.7-1.28l-2.33-25.33
									c-0.09-0.93,0.51-1.8,1.35-1.97l7.81-1.69c2.91-0.63,5.96,0.01,8.45,1.82c2.99,2.19,4.92,5.84,5.31,10.03
									c0.72,7.92-4.15,15.55-10.85,17l-7.82,1.69C232.04,622.75,231.93,622.77,231.82,622.77z M231.7,620.66h-0.01H231.7z
									 M230.02,595.88l2.27,24.66l7.23-1.56c5.69-1.23,9.81-7.84,9.19-14.73c-0.33-3.58-1.96-6.69-4.46-8.52
									c-2-1.45-4.39-1.94-6.76-1.46L230.02,595.88z M229.69,595.95h-0.01H229.69z M234.88,616.36l-1.63-17.61l3.99-0.86
									c1.82-0.38,3.59-0.01,5.03,1.03c1.78,1.32,2.95,3.6,3.2,6.28c0.46,4.95-2.27,9.36-6.36,10.25L234.88,616.36z M235.53,600.42
									l1.23,13.38l1.91-0.41c3.04-0.66,5.06-4.09,4.7-7.98c-0.19-2.08-1.05-3.82-2.34-4.77c-0.96-0.71-2.08-0.95-3.34-0.67
									L235.53,600.42z"/>
							</g>
							<g>
								<path class="st20" d="M255.35,617.68c-0.33,0-0.65-0.11-0.93-0.32c-0.4-0.29-0.64-0.75-0.69-1.27l-2.33-25.33
									c-0.09-0.95,0.51-1.8,1.38-1.98l13.26-2.87c0.4-0.09,0.87-0.02,1.26,0.27c0.39,0.29,0.64,0.75,0.69,1.27l0.39,4.16
									c0.09,0.95-0.51,1.81-1.37,2l-7.96,1.72l0.24,2.63l6.14-1.33c0.41-0.09,0.9,0.01,1.26,0.28c0.4,0.29,0.65,0.75,0.7,1.25
									l0.39,4.17c0.08,0.95-0.53,1.81-1.39,1.99l-6.37,1.38l0.28,3.05l7.71-1.67c0.4-0.08,0.87-0.02,1.26,0.27
									c0.39,0.29,0.64,0.75,0.69,1.27l0.39,4.16c0.09,0.95-0.51,1.81-1.37,2l-13.26,2.87
									C255.58,617.66,255.46,617.68,255.35,617.68z M253.53,590.79l2.27,24.67l12.41-2.69l-0.32-3.51l-9.48,2.06l-0.67-7.29
									l7.92-1.71l-0.32-3.5l-7.92,1.71l-0.64-6.86l9.49-2.05l-0.32-3.51L253.53,590.79z M265.94,602.25h-0.01H265.94z
									 M265.88,598.7h-0.01H265.88z"/>
							</g>
							<g>
								<path class="st20" d="M274.09,613.62c-0.32,0-0.64-0.11-0.92-0.31c-0.4-0.29-0.64-0.75-0.69-1.27l-2.33-25.32
									c-0.09-0.95,0.51-1.8,1.37-1.99l9.59-2.07c1.99-0.43,3.94,0,5.57,1.19c1.94,1.42,3.2,3.79,3.44,6.5
									c0.31,3.39-1.09,6.78-3.7,9.06l4.81,7.97c0.32,0.54,0.36,1.22,0.11,1.79c-0.23,0.53-0.69,0.9-1.24,1.02l-4.26,0.92
									c-0.64,0.12-1.3-0.14-1.67-0.7l-4.83-8.59l-0.54,0.12l0.82,8.82c0.08,0.91-0.53,1.8-1.36,1.99l-3.83,0.82
									C274.33,613.6,274.21,613.62,274.09,613.62z M272.28,586.73l2.27,24.66l2.95-0.64l-0.97-10.48l3.9-0.85l5.36,9.54l3.54-0.77
									l-5.69-9.32l0.79-0.58c2.49-1.81,3.87-4.79,3.6-7.76c-0.2-2.1-1.14-3.92-2.59-4.99c-1.17-0.85-2.55-1.13-3.88-0.83
									L272.28,586.73z M272.26,586.53L272.26,586.53C272.26,586.54,272.26,586.54,272.26,586.53L272.26,586.53z M276.28,597.54
									l-0.75-8.09l5.66-1.23c0.83-0.18,1.75,0.01,2.49,0.55c0.84,0.62,1.38,1.63,1.48,2.77c0.21,2.16-1.15,4.32-2.97,4.72
									L276.28,597.54z M277.81,591.12l0.35,3.84l3.58-0.77c0.69-0.15,1.43-1.28,1.32-2.45c-0.06-0.54-0.28-1-0.63-1.26
									c-0.17-0.12-0.42-0.29-0.8-0.18L277.81,591.12z"/>
							</g>
							<g>
								<path class="st20" d="M138.29,682.14c-2.28,0-4.48-0.72-6.36-2.1c-3.04-2.23-5.01-5.99-5.4-10.33
									c-0.75-8.13,4.24-15.95,11.11-17.44l0,0c3.38-0.72,6.25-0.07,8.96,2.08c0.74,0.56,0.91,1.63,0.38,2.47l-2.2,3.62
									c-0.29,0.45-0.71,0.73-1.18,0.8c-0.46,0.01-0.9-0.08-1.23-0.39c-0.96-0.74-2.26-1.03-3.58-0.76
									c-3.01,0.65-5.09,4.21-4.72,8.11c0.19,2.05,1.06,3.79,2.4,4.77c0.97,0.72,2.15,0.97,3.35,0.7c1.29-0.28,2.64-1.18,3.51-2.36
									c0.28-0.39,0.74-0.66,1.24-0.7c0.38,0.03,0.9,0.13,1.19,0.44l2.76,2.61c0.6,0.53,0.72,1.6,0.23,2.37
									c-2.03,3.13-4.84,5.16-8.12,5.87C139.85,682.06,139.07,682.14,138.29,682.14z M138.09,654.34L138.09,654.34
									c-5.87,1.27-10.11,8.08-9.45,15.18c0.34,3.73,2,6.94,4.54,8.81c2.03,1.49,4.5,2.02,7.01,1.49c2.66-0.58,4.98-2.23,6.69-4.8
									l-2.18-2.06c-1.17,1.4-2.8,2.41-4.45,2.76c-1.76,0.4-3.57,0.01-5.05-1.07c-1.81-1.34-3-3.62-3.24-6.28
									c-0.46-4.94,2.34-9.49,6.38-10.37c1.69-0.39,3.46-0.04,4.9,0.87l1.85-3.04C142.92,654.2,140.85,653.74,138.09,654.34z
									 M147.08,675.2c0.01,0.01,0.01,0.02,0.01,0.02L147.08,675.2z M144.28,672.55c0.01,0.01,0.02,0.02,0.03,0.02L144.28,672.55z
									 M145.04,672.53c0,0.01,0,0.01-0.01,0.02C145.04,672.54,145.04,672.54,145.04,672.53z M143.69,659.2
									c0.01,0.01,0.02,0.02,0.03,0.02C143.71,659.21,143.71,659.2,143.69,659.2z M145.3,656.02c0.01,0,0.01,0.01,0.01,0.01
									S145.31,656.02,145.3,656.02z M145.18,655.7L145.18,655.7L145.18,655.7z"/>
							</g>
							<g>
								<path class="st20" d="M159.68,677.52c-2.26,0-4.43-0.71-6.3-2.08c-3.04-2.23-5.01-6-5.41-10.36
									c-0.76-8.27,4.09-15.92,11.06-17.43l0,0c3.02-0.65,6.13-0.02,8.65,1.85c3.05,2.24,5.03,6.04,5.43,10.41
									c0.76,8.22-4.11,15.85-11.09,17.36C161.23,677.43,160.45,677.52,159.68,677.52z M159.47,649.71
									c-5.84,1.27-10.05,8.07-9.4,15.17c0.35,3.76,2.01,6.99,4.56,8.85c2.05,1.5,4.41,2.02,6.94,1.47
									c5.85-1.27,10.08-8.04,9.43-15.1c-0.34-3.77-2.01-7.02-4.58-8.9C164.36,649.68,161.95,649.18,159.47,649.71L159.47,649.71z
									 M160.1,671.29c-1.35,0-2.66-0.43-3.79-1.27c-1.81-1.33-2.99-3.53-3.21-6.05c-0.44-4.75,2.48-9.33,6.49-10.2
									c1.79-0.4,3.63,0.01,5.15,1.12c1.82,1.34,3.01,3.58,3.24,6.13c0.43,4.71-2.5,9.26-6.54,10.13l0,0
									C160.99,671.24,160.55,671.29,160.1,671.29z M160.96,655.73c-0.31,0-0.62,0.03-0.93,0.1c-2.95,0.64-5.16,4.28-4.83,7.94
									c0.18,1.91,1.03,3.56,2.36,4.53c1.03,0.76,2.21,1.03,3.45,0.76c2.96-0.64,5.2-4.25,4.88-7.87
									c-0.18-1.95-1.05-3.63-2.39-4.61C162.72,656.02,161.86,655.73,160.96,655.73z"/>
							</g>
							<g>
								<path class="st20" d="M177.64,673.45c-0.33,0-0.66-0.11-0.94-0.31c-0.4-0.3-0.65-0.76-0.7-1.27l-2.4-25.74
									c-0.08-0.9,0.52-1.75,1.36-1.95l1.32-0.28l12.61,10.63l-1.02-11.05c-0.09-0.95,0.51-1.81,1.37-2l3.85-0.83
									c0.45-0.09,0.86,0.01,1.23,0.26c0.4,0.28,0.66,0.74,0.72,1.25l2.37,25.78c0.08,0.91-0.52,1.76-1.36,1.95l-0.53,0.11
									c-0.38,0.09-1.05-0.04-1.4-0.39l-12.04-10.67l1.07,11.65c0.09,0.95-0.51,1.8-1.37,1.99l-3.8,0.82
									C177.86,673.44,177.75,673.45,177.64,673.45z M175.72,646.22l2.33,25.02l2.95-0.64l-1.37-14.89l1.37-0.46l0.49,0.39
									l13.77,12.19l-2.29-24.97l-2.99,0.64l1.32,14.36l-1.45,0.24l-0.41-0.31L175.72,646.22z M193.54,642.74h-0.01H193.54z"/>
							</g>
							<g>
								<path class="st20" d="M205.52,667.57c-3.23,0-5.14-1.4-5.73-1.92c-0.61-0.54-0.94-1.11-0.55-2.18l1.22-3.5
									c0.19-0.54,0.59-0.94,1.12-1.13c0.54-0.18,1.08-0.13,1.48,0.1c2.08,1.1,3.33,1.14,3.98,1c0.76-0.17,1.24-0.85,1.17-1.65
									c-0.07-0.72-0.45-1.62-2.86-2.21c-4.66-1.14-7.42-4-7.78-8.05c-0.38-4.11,1.82-9.11,7.53-10.34
									c3.44-0.76,6.44,0.62,7.9,1.51c0.88,0.4,1.02,1.69,0.74,2.45l-1.38,3.34c-0.21,0.52-0.72,1.14-1.38,1.36
									c-0.44,0.12-0.86,0.08-1.21-0.14c-1.85-0.99-3.1-1.33-4-1.16c-0.64,0.14-1.04,0.77-1.01,1.26c0.06,0.61,0.35,1.33,3.05,2.02
									c1.84,0.45,7.46,1.85,8.06,8.25c0.41,4.35-2.36,9.54-7.66,10.69C207.23,667.48,206.33,667.57,205.52,667.57z M201.26,664.1
									c0.73,0.58,2.9,1.89,6.5,1.1c4.16-0.9,6.32-4.99,6-8.42c-0.41-4.35-3.68-5.71-6.48-6.4c-2.17-0.55-4.41-1.45-4.63-3.89
									c-0.14-1.62,1.03-3.16,2.66-3.52c1.74-0.36,3.67,0.44,5.04,1.16l1.38-3.22c-1.34-0.77-3.63-1.74-6.2-1.16
									c-4.45,0.96-6.16,4.86-5.87,8.08c0.36,3.94,3.57,5.54,6.19,6.18c2.78,0.68,4.28,2.06,4.46,4.08
									c0.18,1.86-1.02,3.51-2.82,3.9c-1.45,0.31-3.22-0.04-5.22-1.09L201.26,664.1z M210.79,644.37l0.1,0.06
									C210.85,644.4,210.82,644.38,210.79,644.37z M211.88,640.99c0.03,0.03,0.07,0.05,0.11,0.07
									C211.96,641.04,211.92,641.02,211.88,640.99z"/>
							</g>
							<g>
								<path class="st20" d="M222.79,663.69c-0.34,0-0.67-0.11-0.95-0.32c-0.4-0.3-0.64-0.75-0.69-1.26l-1.77-19.24l-3.43,0.74
									c-0.42,0.09-0.86,0.01-1.23-0.25c-0.4-0.28-0.66-0.74-0.72-1.26l-0.38-4.2c-0.11-0.91,0.49-1.79,1.35-1.99l14.24-3.08
									c0.43-0.1,0.9,0.01,1.25,0.27c0.39,0.28,0.65,0.74,0.71,1.24l0.38,4.2c0.11,0.91-0.5,1.8-1.37,1.99l-3.66,0.79l1.79,19.5
									c0.08,0.93-0.54,1.82-1.38,1.99l-3.84,0.83C223,663.68,222.88,663.69,222.79,663.69z M221.26,640.3l1.95,21.16l2.99-0.65
									l-1.95-21.16l5.19-1.12l-0.31-3.51l-13.37,2.9l0.31,3.51L221.26,640.3z M226.5,660.75c0,0,0,0-0.01,0H226.5z M229.45,638.76
									c0,0.01,0,0.01,0,0.01V638.76z M215.73,637.7v0.01C215.73,637.7,215.73,637.7,215.73,637.7z"/>
							</g>
							<g>
								<path class="st20" d="M236.19,660.79c-0.32,0-0.64-0.11-0.92-0.31c-0.4-0.29-0.64-0.75-0.69-1.27l-2.33-25.31
									c-0.1-0.93,0.5-1.81,1.37-2l9.58-2.07c1.98-0.41,3.95,0.01,5.58,1.21c1.94,1.42,3.2,3.79,3.44,6.49
									c0.31,3.39-1.09,6.78-3.7,9.07l4.81,7.97c0.32,0.54,0.36,1.22,0.11,1.79c-0.23,0.53-0.69,0.9-1.24,1.02l-4.26,0.92
									c-0.64,0.14-1.34-0.16-1.69-0.74l-4.82-8.55l-0.53,0.12l0.81,8.82c0.11,0.9-0.5,1.8-1.35,1.99l-3.83,0.82
									C236.42,660.77,236.31,660.79,236.19,660.79z M234.37,633.9l2.27,24.66l2.94-0.64l-0.96-10.48l3.89-0.85l5.37,9.54
									l3.54-0.77l-5.69-9.32l0.79-0.57c2.49-1.82,3.87-4.8,3.6-7.77c-0.2-2.1-1.14-3.91-2.59-4.98c-1.15-0.85-2.5-1.16-3.89-0.84
									L234.37,633.9z M239.6,658.14c0,0,0,0.01,0,0.01V658.14z M238.38,644.7l-0.75-8.09l5.66-1.23c0.92-0.2,1.76,0.02,2.49,0.54
									c0.84,0.62,1.38,1.63,1.48,2.78c0.21,2.16-1.15,4.32-2.97,4.72L238.38,644.7z M239.9,638.29l0.35,3.84l3.58-0.77
									c0.69-0.15,1.43-1.28,1.32-2.45c-0.06-0.55-0.29-1.01-0.64-1.27c-0.17-0.13-0.43-0.25-0.79-0.18L239.9,638.29z"/>
							</g>
							<g>
								<path class="st20" d="M264.27,654.93c-1.84,0-3.62-0.59-5.15-1.71c-2.43-1.78-3.99-4.73-4.3-8.1l-1.46-15.81
									c-0.08-0.92,0.52-1.79,1.36-1.98l3.95-0.85c0.44-0.1,0.9,0.01,1.27,0.27c0.39,0.29,0.64,0.76,0.69,1.27l1.43,15.49
									c0.11,1.17,0.59,2.14,1.3,2.67c0.51,0.38,1.13,0.5,1.8,0.36c1.73-0.38,2.93-2.38,2.73-4.56l-1.43-15.49
									c-0.09-0.95,0.51-1.8,1.38-2l3.94-0.85c0.46-0.09,0.91,0.02,1.26,0.28c0.4,0.3,0.64,0.75,0.69,1.26l1.46,15.79
									c0.59,6.39-3.46,12.56-9.02,13.76C265.53,654.87,264.9,654.93,264.27,654.93z M255.48,629.33l1.44,15.6
									c0.25,2.76,1.51,5.16,3.45,6.59c1.56,1.15,3.47,1.57,5.35,1.14c4.54-0.98,7.85-6.14,7.36-11.49l-1.42-15.34l-3.09,0.66
									l1.4,15.29c0.3,3.28-1.58,6.21-4.39,6.82c-1.24,0.27-2.49,0.01-3.49-0.73c-1.22-0.89-2-2.41-2.16-4.18l-1.38-15.04
									L255.48,629.33z"/>
							</g>
							<g>
								<path class="st20" d="M288.04,649.74c-2.27,0-4.46-0.71-6.35-2.1c-3.04-2.23-5.01-5.99-5.41-10.33
									c-0.74-8.14,4.25-15.96,11.12-17.44l0,0c3.38-0.75,6.23-0.07,8.96,2.08c0.74,0.56,0.91,1.63,0.38,2.47l-2.2,3.62
									c-0.28,0.44-0.7,0.72-1.17,0.79c-0.44,0.06-0.91-0.07-1.24-0.37c-1-0.76-2.28-1.08-3.58-0.77
									c-3.01,0.65-5.09,4.21-4.72,8.11c0.19,2.05,1.06,3.79,2.39,4.77c0.98,0.72,2.12,0.98,3.36,0.71
									c1.3-0.28,2.64-1.18,3.49-2.36c0.3-0.41,0.77-0.67,1.26-0.71c0.59-0.03,0.88,0.13,1.18,0.44l2.76,2.61
									c0.6,0.53,0.72,1.6,0.23,2.37c-2.03,3.13-4.84,5.16-8.13,5.87C289.6,649.66,288.81,649.74,288.04,649.74z M289.98,621.69
									c-0.67,0-1.38,0.08-2.13,0.25l0,0c-5.86,1.27-10.11,8.08-9.47,15.18c0.34,3.73,2.01,6.94,4.56,8.81
									c2.02,1.49,4.51,2.02,7,1.48c2.68-0.58,4.99-2.23,6.7-4.8l-2.18-2.06c-1.15,1.39-2.78,2.42-4.45,2.78
									c-1.78,0.39-3.59,0.01-5.05-1.07c-1.82-1.34-3-3.62-3.24-6.28c-0.46-4.94,2.34-9.49,6.38-10.37
									c1.65-0.37,3.43-0.06,4.9,0.88l1.85-3.04C293.27,622.26,291.73,621.69,289.98,621.69z M296.84,642.8
									c0.01,0.01,0.01,0.02,0.01,0.02L296.84,642.8z M294.03,640.15c0.01,0.01,0.02,0.02,0.03,0.02L294.03,640.15z M293.44,626.8
									c0.01,0.01,0.01,0.01,0.02,0.02C293.47,626.81,293.45,626.81,293.44,626.8z M295.06,623.62c0.01,0,0.01,0.01,0.01,0.01
									S295.07,623.62,295.06,623.62z M294.94,623.3L294.94,623.3L294.94,623.3z"/>
							</g>
							<g>
								<path class="st20" d="M302.23,646.5c-0.32,0-0.65-0.11-0.93-0.3c-0.4-0.29-0.65-0.76-0.7-1.26l-2.33-25.32
									c-0.1-0.92,0.52-1.82,1.38-2l3.83-0.83c0.45-0.08,0.91,0.02,1.27,0.29c0.39,0.29,0.64,0.75,0.69,1.25l2.33,25.32
									c0.08,0.92-0.53,1.81-1.37,2l-3.85,0.83C302.46,646.48,302.35,646.5,302.23,646.5z M302.11,644.39h-0.01H302.11z
									 M300.4,619.61l2.27,24.66l2.99-0.64l-2.27-24.67L300.4,619.61z M300.1,619.68l-0.01,0.01
									C300.1,619.68,300.1,619.68,300.1,619.68z"/>
							</g>
							<g>
								<path class="st20" d="M320.07,642.81c-2.26,0-4.43-0.71-6.3-2.08c-3.03-2.22-5-6-5.4-10.36
									c-0.76-8.27,4.09-15.93,11.06-17.44l0,0c3.05-0.67,6.11-0.01,8.64,1.84c3.05,2.24,5.04,6.04,5.44,10.41
									c0.76,8.23-4.11,15.86-11.09,17.37C321.63,642.73,320.84,642.81,320.07,642.81z M319.87,615.01
									c-5.84,1.27-10.05,8.07-9.4,15.17c0.35,3.76,2.01,6.98,4.56,8.85c2.02,1.5,4.42,2,6.94,1.47c5.85-1.26,10.08-8.04,9.43-15.1
									c-0.35-3.78-2.02-7.02-4.59-8.9C324.76,614.99,322.37,614.46,319.87,615.01L319.87,615.01z M320.49,636.58
									c-1.34,0-2.65-0.43-3.78-1.27c-1.81-1.33-2.99-3.53-3.21-6.05c-0.45-4.75,2.45-9.33,6.49-10.2c1.8-0.39,3.63,0.01,5.14,1.11
									c1.82,1.34,3.01,3.57,3.25,6.13c0.43,4.72-2.5,9.26-6.54,10.13l0,0C321.4,636.54,320.94,636.58,320.49,636.58z
									 M321.36,621.04c-0.31,0-0.62,0.03-0.93,0.1c-2.96,0.64-5.18,4.27-4.83,7.93c0.18,1.92,1.03,3.58,2.36,4.54
									c1.04,0.77,2.27,1.03,3.45,0.76l0,0c2.96-0.64,5.2-4.25,4.88-7.87c-0.19-1.95-1.06-3.63-2.4-4.61
									C323.11,621.32,322.25,621.04,321.36,621.04z"/>
							</g>
							<g>
								<path class="st20" d="M338.04,638.75c-0.32,0-0.64-0.1-0.91-0.29c-0.41-0.29-0.67-0.74-0.73-1.25l-2.4-25.77
									c-0.08-0.9,0.52-1.75,1.36-1.95l1.33-0.28l12.61,10.63l-1.02-11.06c-0.11-0.92,0.49-1.8,1.36-2l3.85-0.83
									c0.39-0.09,0.87,0.01,1.25,0.27c0.4,0.3,0.65,0.76,0.7,1.27l2.38,25.74c0.08,0.91-0.52,1.76-1.38,1.95l-0.51,0.11
									c-0.38,0.08-1.04-0.04-1.4-0.39l-12.04-10.67l1.06,11.66c0.11,0.91-0.49,1.79-1.35,1.98l-3.83,0.82
									C338.26,638.74,338.15,638.75,338.04,638.75z M337.92,636.65h-0.01H337.92z M336.13,611.51l2.33,25.02l2.95-0.64L340.05,621
									l1.37-0.46l0.49,0.39l13.77,12.19l-2.3-24.97l-2.97,0.64l1.33,14.4l-1.48,0.18l-0.4-0.29L336.13,611.51z M341.43,636.11
									c0,0.01,0,0.01,0,0.01V636.11z M350.38,608.57v0.01C350.38,608.57,350.38,608.57,350.38,608.57z M353.94,608.03h-0.01
									H353.94z"/>
							</g>
						</g>
					</g>
				</g>
			</g>
		</g>
	</g>
</g>
</svg>
