<?xml version="1.0" encoding="UTF-8"?>
<svg id="Capa_1" data-name="Capa 1" xmlns="http://www.w3.org/2000/svg" version="1.1" viewBox="0 0 261 302">
  <defs>
    <style>
      .cls-1 {
        fill: none;
      }

      .cls-1, .cls-2 {
        stroke: #000;
        stroke-miterlimit: 10;
        stroke-width: 2.5px;
      }

      .cls-2, .cls-3 {
        fill: #fff;
      }

      .cls-3, .cls-4 {
        stroke-width: 0px;
      }

      .cls-4 {
        fill: #f39483;
      }
    </style>
  </defs>
  <path class="cls-3" d="M237.3,31.2l-.9,33.7L76.4,199.7l10.3,89.8-20.5-10-40-77.5s-30.3-58.8,37-116.6c23.6-20.3,56.8-39.8,106.2-65.3,14.5-7.4,40.1-14.3,67.9,11.1"/>
  <path class="cls-4" d="M24.1,193.9c1.3,1.1,19.1,9.9,19.1,9.9l42.4,87-19.8-10.2-40.6-77-1-9.7Z"/>
  <path class="cls-4" d="M219.9,23.6s-15.7-11.2-39.8-1.8c-19.8,7.7-56.5,27.5-74.7,39.2-29.2,18.9-90.5,62.6-81.3,132.9,0,0-6.4-17-4.1-33.3,2.3-16.6,10.2-54.5,58.5-87.9,0,0,65.2-41,86.5-50.1,0,0,32-21.5,64.9,2.2l-10-1.3Z"/>
  <path class="cls-2" d="M47.1,212.9c-9.6-19.1-8.8-44.7,2.6-75.7,5.1-13.9,20.9-34.2,41-47,26.9-17.3,82.4-49.6,111.4-63.1,10.2-4.8,31.4-7.5,42,13.2,2.5,5,3.7,10.5,3.7,16.1v63.8s2.2,23.5-27.9,34.8l-91.4,53.5s-14.8,5.2-24.8,37.9l-16.3,43.4c0,.2-.4.2-.5,0-3-5.6-30.6-58.5-39.8-77Z"/>
  <path class="cls-1" d="M86.8,289.5l-20.5-10-40-77.5s-30.3-58.8,37-116.6c23.6-20.3,56.8-39.8,106.2-65.3,14.5-7.4,40.1-14.3,67.9,11.1"/>
</svg>