<?xml version="1.0" standalone="no"?>
<!DOCTYPE svg PUBLIC "-//W3C//DTD SVG 20010904//EN"
 "http://www.w3.org/TR/2001/REC-SVG-20010904/DTD/svg10.dtd">
<svg version="1.0" xmlns="http://www.w3.org/2000/svg"
 width="885.000000pt" height="183.000000pt" viewBox="0 0 885.000000 183.000000"
 preserveAspectRatio="xMidYMid meet">

<g transform="translate(0.000000,183.000000) scale(0.100000,-0.100000)"
fill="#000000" stroke="none">
<path d="M2680 1574 c-214 -45 -409 -217 -486 -428 -35 -96 -48 -219 -35 -319
33 -244 166 -428 386 -534 231 -110 515 -70 699 98 59 54 121 142 113 162 -4
11 -186 118 -213 125 -7 2 -22 -13 -33 -32 -27 -44 -84 -90 -148 -118 -39 -18
-66 -23 -143 -23 -83 0 -103 4 -157 29 -292 134 -292 620 0 751 117 53 264 43
363 -26 33 -23 75 -67 110 -118 6 -8 224 122 224 133 0 25 -58 103 -119 158
-141 130 -359 186 -561 142z"/>
<path d="M3931 1579 c-133 -23 -269 -119 -328 -230 -26 -50 -28 -62 -28 -169
0 -109 2 -118 30 -169 67 -122 171 -175 457 -232 157 -31 198 -62 198 -149 0
-123 -221 -181 -381 -99 -35 17 -82 65 -92 91 -3 9 -38 -4 -121 -44 -64 -32
-116 -62 -116 -67 0 -25 86 -132 135 -168 182 -135 483 -146 671 -25 127 82
187 188 187 327 -1 201 -109 312 -362 373 -245 58 -265 64 -298 98 -28 27 -33
39 -33 77 0 83 64 130 180 131 93 1 148 -21 209 -82 l55 -54 109 53 c60 30
111 57 113 61 9 14 -47 96 -100 146 -91 86 -201 129 -346 137 -47 2 -109 0
-139 -6z"/>
<path d="M6431 1574 c-181 -39 -361 -176 -450 -343 -95 -179 -99 -431 -11
-617 88 -184 271 -328 470 -370 145 -31 332 -1 458 73 67 39 164 135 194 190
l27 48 -109 63 c-60 34 -113 62 -117 62 -5 0 -19 -16 -32 -35 -122 -179 -414
-192 -564 -25 -134 149 -134 431 -1 579 131 146 381 162 513 33 26 -26 55 -58
64 -71 l16 -24 78 43 c43 24 95 54 115 67 l38 23 -30 49 c-127 205 -401 312
-659 255z"/>
<path d="M1654 1561 c-2 -2 -4 -296 -4 -653 l0 -648 140 0 140 0 0 653 0 652
-136 0 c-75 0 -138 -2 -140 -4z"/>
<path d="M380 911 l0 -651 140 0 140 0 0 170 0 170 113 1 c61 0 119 2 127 3 8
2 45 6 83 10 211 21 384 153 432 329 24 89 17 249 -14 329 -43 111 -152 204
-298 255 -78 28 -78 28 -400 31 l-323 3 0 -650z m635 365 c85 -37 125 -98 125
-191 0 -70 -17 -112 -63 -152 -56 -49 -119 -63 -279 -63 l-138 0 0 216 0 216
158 -4 c121 -3 166 -8 197 -22z"/>
<path d="M4730 910 l0 -650 140 0 140 0 0 211 0 212 98 -7 c170 -12 201 -38
318 -268 l75 -148 149 0 c83 0 150 2 150 5 0 13 -186 375 -213 415 -17 25 -46
59 -65 76 l-34 32 56 25 c139 64 216 204 203 373 -14 182 -136 311 -339 359
-49 11 -133 15 -370 15 l-308 0 0 -650z m602 380 c137 -38 174 -212 65 -307
-50 -44 -91 -53 -249 -53 l-138 0 0 185 0 185 143 0 c78 0 159 -5 179 -10z"/>
<path d="M7320 910 l0 -650 140 0 140 0 0 260 0 260 298 -2 297 -3 3 -258 2
-257 140 0 140 0 0 650 0 650 -140 0 -140 0 0 -260 0 -260 -300 0 -300 0 0
260 0 260 -140 0 -140 0 0 -650z"/>
</g>
</svg>
